<svg width="24" height="24" viewBox="0 0 24 24" fill="none" xmlns="http://www.w3.org/2000/svg">
<path d="M2.4548 7.93942C2.7361 7.65822 3.11756 7.50024 3.5153 7.50024C3.91305 7.50024 4.29451 7.65822 4.5758 7.93942L12.0008 15.3644L19.4258 7.93942C19.7087 7.66619 20.0876 7.51499 20.4809 7.51841C20.8742 7.52183 21.2504 7.67958 21.5285 7.9577C21.8066 8.23581 21.9644 8.61203 21.9678 9.00532C21.9712 9.39862 21.82 9.77752 21.5468 10.0604L13.0613 18.5459C12.78 18.8271 12.3986 18.9851 12.0008 18.9851C11.6031 18.9851 11.2216 18.8271 10.9403 18.5459L2.4548 10.0604C2.1736 9.77913 2.01562 9.39767 2.01562 8.99992C2.01562 8.60218 2.1736 8.22072 2.4548 7.93942Z" fill="#8880E3"/>
</svg>
