<svg width="160" height="142" viewBox="0 0 160 142" fill="none" xmlns="http://www.w3.org/2000/svg">
<mask id="path-1-inside-1_201_530" fill="white">
<path fill-rule="evenodd" clip-rule="evenodd" d="M62.4251 87.5543C61.8256 85.6647 61.426 83.2451 61.404 82C61.382 80.7599 61.6563 78.6937 61.6563 78.6937L42.8375 93.9985C39.5509 96.6368 35.1298 96.6318 33.0505 93.9834C31.0017 91.3787 32.0531 87.2631 35.3059 84.7881C35.3388 84.7622 35.3762 84.7352 35.4126 84.7088C35.4211 84.7027 35.4296 84.6965 35.438 84.6905L69.9194 58.39L50.596 58.4271L50.6011 58.4153C47.3246 58.4035 45.1844 56.2094 45.8007 53.5644C46.4001 50.9682 49.4293 48.9137 52.5805 48.9104H52.6313L90.7549 48.87L78.2468 38.7627L78.2553 38.7543C76.3081 37.1676 76.5587 34.6522 78.7464 33.1311C80.9103 31.6269 84.219 31.6218 86.1865 33.1227C86.2039 33.1339 86.2188 33.1463 86.2339 33.1588C86.2437 33.167 86.2537 33.1752 86.2644 33.1832L116.254 56.0647L116.247 56.0698C119.219 58.3598 121.718 61.0805 123.657 64.1882C125.776 67.5702 127.153 71.2803 127.719 75.2344C128.008 77.2635 128.074 79.2944 127.917 81.322C127.756 83.3798 127.355 85.4308 126.72 87.4516C125.456 91.4511 123.323 95.1578 120.351 98.4321C117.305 101.786 113.551 104.489 109.211 106.419C104.65 108.442 99.7071 109.485 94.5817 109.492C89.4477 109.5 84.5051 108.477 79.9435 106.47C75.6037 104.558 71.8463 101.866 68.7951 98.5146C65.8217 95.2537 63.6848 91.5538 62.4251 87.5543ZM94.5817 95.0821C100.456 95.0704 105.884 92.8442 109.762 88.9188C111.656 87.0006 113.043 84.8032 113.903 82.456C114.745 80.1543 115.072 77.7162 114.858 75.2562C114.645 72.8417 113.929 70.5534 112.772 68.4771C111.641 66.4378 110.085 64.5988 108.165 63.0441C104.392 60.0019 99.5971 58.3648 94.5732 58.3715C89.5544 58.3782 84.7557 60.0306 80.9865 63.0828C79.063 64.6442 77.5052 66.49 76.3741 68.5326C75.2227 70.6106 74.5014 72.9073 74.2965 75.3151C74.0797 77.7784 74.4065 80.2199 75.2481 82.52C76.1066 84.8604 77.4984 87.0579 79.3932 88.9676C83.2707 92.8864 88.6993 95.0922 94.5817 95.0821ZM86.1568 67.5986C83.7913 69.5857 82.2234 72.3889 82.0439 75.5707C81.8627 78.8366 83.1817 81.8736 85.5032 84.1249C87.867 86.4149 91.2382 87.8519 95.0057 87.8519C98.7732 87.8519 102.138 86.4149 104.503 84.1249C106.823 81.8736 108.145 78.8365 107.966 75.5673C107.785 72.3889 106.217 69.5857 103.853 67.5986C101.532 65.6468 98.4092 64.4539 95.0057 64.4539C91.5989 64.4539 88.4765 65.6468 86.1568 67.5986Z"/>
</mask>
<path fill-rule="evenodd" clip-rule="evenodd" d="M62.4251 87.5543C61.8256 85.6647 61.426 83.2451 61.404 82C61.382 80.7599 61.6563 78.6937 61.6563 78.6937L42.8375 93.9985C39.5509 96.6368 35.1298 96.6318 33.0505 93.9834C31.0017 91.3787 32.0531 87.2631 35.3059 84.7881C35.3388 84.7622 35.3762 84.7352 35.4126 84.7088C35.4211 84.7027 35.4296 84.6965 35.438 84.6905L69.9194 58.39L50.596 58.4271L50.6011 58.4153C47.3246 58.4035 45.1844 56.2094 45.8007 53.5644C46.4001 50.9682 49.4293 48.9137 52.5805 48.9104H52.6313L90.7549 48.87L78.2468 38.7627L78.2553 38.7543C76.3081 37.1676 76.5587 34.6522 78.7464 33.1311C80.9103 31.6269 84.219 31.6218 86.1865 33.1227C86.2039 33.1339 86.2188 33.1463 86.2339 33.1588C86.2437 33.167 86.2537 33.1752 86.2644 33.1832L116.254 56.0647L116.247 56.0698C119.219 58.3598 121.718 61.0805 123.657 64.1882C125.776 67.5702 127.153 71.2803 127.719 75.2344C128.008 77.2635 128.074 79.2944 127.917 81.322C127.756 83.3798 127.355 85.4308 126.72 87.4516C125.456 91.4511 123.323 95.1578 120.351 98.4321C117.305 101.786 113.551 104.489 109.211 106.419C104.65 108.442 99.7071 109.485 94.5817 109.492C89.4477 109.5 84.5051 108.477 79.9435 106.47C75.6037 104.558 71.8463 101.866 68.7951 98.5146C65.8217 95.2537 63.6848 91.5538 62.4251 87.5543ZM94.5817 95.0821C100.456 95.0704 105.884 92.8442 109.762 88.9188C111.656 87.0006 113.043 84.8032 113.903 82.456C114.745 80.1543 115.072 77.7162 114.858 75.2562C114.645 72.8417 113.929 70.5534 112.772 68.4771C111.641 66.4378 110.085 64.5988 108.165 63.0441C104.392 60.0019 99.5971 58.3648 94.5732 58.3715C89.5544 58.3782 84.7557 60.0306 80.9865 63.0828C79.063 64.6442 77.5052 66.49 76.3741 68.5326C75.2227 70.6106 74.5014 72.9073 74.2965 75.3151C74.0797 77.7784 74.4065 80.2199 75.2481 82.52C76.1066 84.8604 77.4984 87.0579 79.3932 88.9676C83.2707 92.8864 88.6993 95.0922 94.5817 95.0821ZM86.1568 67.5986C83.7913 69.5857 82.2234 72.3889 82.0439 75.5707C81.8627 78.8366 83.1817 81.8736 85.5032 84.1249C87.867 86.4149 91.2382 87.8519 95.0057 87.8519C98.7732 87.8519 102.138 86.4149 104.503 84.1249C106.823 81.8736 108.145 78.8365 107.966 75.5673C107.785 72.3889 106.217 69.5857 103.853 67.5986C101.532 65.6468 98.4092 64.4539 95.0057 64.4539C91.5989 64.4539 88.4765 65.6468 86.1568 67.5986Z" fill="url(#paint0_linear_201_530)"/>
<path d="M61.404 82L64.4036 81.947L64.4036 81.9468L61.404 82ZM62.4251 87.5543L65.2865 86.653L65.2846 86.6471L62.4251 87.5543ZM61.6563 78.6937L64.6302 79.0886L65.6245 71.5997L59.7635 76.3663L61.6563 78.6937ZM42.8375 93.9985L44.7155 96.338L44.7229 96.332L44.7304 96.326L42.8375 93.9985ZM33.0505 93.9834L35.4101 92.1308L35.4084 92.1286L33.0505 93.9834ZM35.3059 84.7881L37.1225 87.1755L37.1418 87.1608L37.1609 87.1458L35.3059 84.7881ZM35.4126 84.7088L37.1703 87.14L37.1707 87.1397L35.4126 84.7088ZM35.438 84.6905L37.2005 87.1181L37.2292 87.0973L37.2574 87.0758L35.438 84.6905ZM69.9194 58.39L71.7388 60.7754L78.8217 55.373L69.9137 55.39L69.9194 58.39ZM50.596 58.4271L47.8388 57.2448L46.0418 61.4358L50.6017 61.4271L50.596 58.4271ZM50.6011 58.4153L53.3583 59.5975L55.1446 55.4316L50.6118 55.4153L50.6011 58.4153ZM45.8007 53.5644L48.7224 54.2452L48.7238 54.2393L45.8007 53.5644ZM52.5805 48.9104V45.9104L52.5773 45.9104L52.5805 48.9104ZM52.6313 48.9104V51.9104L52.6345 51.9104L52.6313 48.9104ZM90.7549 48.87L90.7581 51.87L99.2296 51.861L92.6404 46.5365L90.7549 48.87ZM78.2468 38.7627L76.132 36.6349L73.7591 38.9934L76.3613 41.0961L78.2468 38.7627ZM78.2553 38.7543L80.3701 40.8821L82.7333 38.5333L80.1503 36.4286L78.2553 38.7543ZM78.7464 33.1311L77.034 30.6678L77.0338 30.668L78.7464 33.1311ZM86.1865 33.1227L84.367 35.508L84.4628 35.581L84.5641 35.6462L86.1865 33.1227ZM86.2339 33.1588L84.3159 35.4656L84.316 35.4657L86.2339 33.1588ZM86.2644 33.1832L88.0842 30.7982L88.0706 30.7879L88.0569 30.7777L86.2644 33.1832ZM116.254 56.0647L118.054 58.4644L121.226 56.0848L118.073 53.6796L116.254 56.0647ZM116.247 56.0698L114.446 53.6701L111.291 56.0378L114.416 58.4461L116.247 56.0698ZM123.657 64.1882L121.111 65.7761L121.115 65.7815L123.657 64.1882ZM127.719 75.2344L130.689 74.8106L130.688 74.8096L127.719 75.2344ZM127.917 81.322L130.908 81.5557L130.908 81.5543L127.917 81.322ZM126.72 87.4516L129.58 88.3551L129.582 88.3509L126.72 87.4516ZM120.351 98.4321L122.572 100.449L122.573 100.448L120.351 98.4321ZM109.211 106.419L110.427 109.162L110.43 109.16L109.211 106.419ZM94.5817 109.492L94.5777 106.492L94.5767 106.492L94.5817 109.492ZM79.9435 106.47L78.7343 109.215L78.7352 109.216L79.9435 106.47ZM68.7951 98.5146L71.0135 96.495L71.0119 96.4932L68.7951 98.5146ZM109.762 88.9188L107.627 86.8105L107.627 86.8105L109.762 88.9188ZM94.5817 95.0821L94.5868 98.0821H94.5877L94.5817 95.0821ZM113.903 82.456L116.72 83.4883L116.721 83.4862L113.903 82.456ZM114.858 75.2562L117.847 74.997L117.847 74.9922L114.858 75.2562ZM112.772 68.4771L110.149 69.9322L110.151 69.9369L112.772 68.4771ZM108.165 63.0441L110.053 60.7125L110.048 60.7087L108.165 63.0441ZM94.5732 58.3715L94.5692 55.3715H94.5692L94.5732 58.3715ZM80.9865 63.0828L79.0986 60.7513L79.0958 60.7536L80.9865 63.0828ZM76.3741 68.5326L78.9982 69.9866L78.9986 69.9859L76.3741 68.5326ZM74.2965 75.3151L77.2849 75.5781L77.2857 75.5695L74.2965 75.3151ZM75.2481 82.52L72.4307 83.5508L72.4316 83.5531L75.2481 82.52ZM79.3932 88.9676L81.5257 86.8575L81.5228 86.8547L79.3932 88.9676ZM82.0439 75.5707L79.0486 75.4017L79.0485 75.4045L82.0439 75.5707ZM86.1568 67.5986L88.0864 69.8956L88.0882 69.8941L86.1568 67.5986ZM85.5032 84.1249L83.4147 86.2785L83.4158 86.2796L85.5032 84.1249ZM104.503 84.1249L106.59 86.2803L106.593 86.2777L104.503 84.1249ZM107.966 75.5673L110.961 75.4028L110.961 75.3965L107.966 75.5673ZM103.853 67.5986L101.922 69.8948L101.923 69.895L103.853 67.5986ZM58.4045 82.053C58.4326 83.6415 58.8962 86.3514 59.5655 88.4614L65.2846 86.6471C64.7551 84.978 64.4195 82.8487 64.4036 81.947L58.4045 82.053ZM61.6563 78.6937C58.6824 78.2989 58.6824 78.2991 58.6824 78.2992C58.6824 78.2993 58.6824 78.2994 58.6823 78.2995C58.6823 78.2998 58.6823 78.3 58.6822 78.3003C58.6822 78.3009 58.6821 78.3017 58.682 78.3025C58.6817 78.3042 58.6814 78.3064 58.6811 78.3091C58.6804 78.3145 58.6794 78.3218 58.6782 78.3311C58.6758 78.3495 58.6725 78.3755 58.6683 78.4082C58.66 78.4737 58.6485 78.5666 58.6349 78.6812C58.6077 78.9097 58.5716 79.228 58.5362 79.5892C58.4691 80.2746 58.3902 81.2479 58.4045 82.0533L64.4036 81.9468C64.3958 81.5121 64.4431 80.8322 64.5076 80.1745C64.538 79.8641 64.5692 79.5883 64.5928 79.3907C64.6045 79.2922 64.6142 79.214 64.6208 79.1617C64.6242 79.1355 64.6267 79.1159 64.6283 79.1034C64.6291 79.0972 64.6297 79.0928 64.63 79.0903C64.6302 79.0891 64.6303 79.0883 64.6303 79.088C64.6303 79.0878 64.6303 79.0878 64.6303 79.0879C64.6303 79.0879 64.6303 79.088 64.6303 79.0881C64.6303 79.0882 64.6303 79.0883 64.6303 79.0883C64.6303 79.0884 64.6302 79.0886 61.6563 78.6937ZM44.7304 96.326L63.5492 81.0212L59.7635 76.3663L40.9446 91.6711L44.7304 96.326ZM30.6909 95.836C34.175 100.274 40.6549 99.5976 44.7155 96.338L40.9595 91.659C38.4469 93.676 36.0847 92.9899 35.4101 92.1308L30.6909 95.836ZM33.4892 82.4006C29.4612 85.4656 27.2211 91.425 30.6926 95.8382L35.4084 92.1286C34.7822 91.3325 34.6451 89.0607 37.1225 87.1755L33.4892 82.4006ZM33.6549 82.2777C33.63 82.2957 33.5407 82.3596 33.4509 82.4303L37.1609 87.1458C37.1518 87.153 37.1452 87.158 37.1419 87.1605C37.1385 87.1631 37.1372 87.164 37.1386 87.163C37.14 87.1619 37.143 87.1597 37.1485 87.1557C37.1544 87.1515 37.1607 87.1469 37.1703 87.14L33.6549 82.2777ZM33.6754 82.2628C33.6698 82.2669 33.6642 82.2709 33.6545 82.278L37.1707 87.1397C37.178 87.1344 37.1893 87.1262 37.2005 87.1181L33.6754 82.2628ZM68.1 56.0047L33.6186 82.3051L37.2574 87.0758L71.7388 60.7754L68.1 56.0047ZM50.6017 61.4271L69.9251 61.39L69.9137 55.39L50.5903 55.4271L50.6017 61.4271ZM47.8438 57.233L47.8388 57.2448L53.3532 59.6093L53.3583 59.5975L47.8438 57.233ZM42.879 52.8836C42.3333 55.2253 43.0271 57.4821 44.604 59.0827C46.1312 60.6329 48.3044 61.407 50.5903 61.4152L50.6118 55.4153C49.6212 55.4117 49.0861 55.0829 48.8782 54.8718C48.7763 54.7685 48.7338 54.6798 48.7145 54.612C48.696 54.5474 48.6786 54.4332 48.7224 54.2452L42.879 52.8836ZM52.5773 45.9104C50.3705 45.9127 48.2407 46.6258 46.5402 47.7888C44.856 48.9405 43.3864 50.6855 42.8776 52.8895L48.7238 54.2393C48.8144 53.847 49.1591 53.2667 49.9272 52.7413C50.6789 52.2272 51.6393 51.9114 52.5837 51.9104L52.5773 45.9104ZM52.6313 45.9104H52.5805V51.9104H52.6313V45.9104ZM90.7517 45.87L52.6281 45.9104L52.6345 51.9104L90.7581 51.87L90.7517 45.87ZM76.3613 41.0961L88.8694 51.2034L92.6404 46.5365L80.1324 36.4293L76.3613 41.0961ZM76.1405 36.6265L76.132 36.6349L80.3617 40.8905L80.3701 40.8821L76.1405 36.6265ZM77.0338 30.668C75.3546 31.8355 74.1503 33.5864 73.9626 35.6458C73.7701 37.7581 74.6952 39.7233 76.3603 41.08L80.1503 36.4286C79.9917 36.2994 79.9482 36.2104 79.9409 36.1941C79.9362 36.1837 79.9366 36.1814 79.9373 36.1856C79.938 36.1898 79.9377 36.1922 79.9379 36.1904C79.938 36.1882 79.9394 36.1753 79.948 36.1508C79.9566 36.126 79.9737 36.0865 80.0069 36.0342C80.0731 35.9297 80.2071 35.7694 80.4589 35.5943L77.0338 30.668ZM88.006 30.7374C86.3948 29.5084 84.3951 28.9977 82.5363 29C80.6685 29.0023 78.6844 29.5206 77.034 30.6678L80.4587 35.5945C80.9723 35.2374 81.7245 35.001 82.5439 35C83.3722 34.999 84.0107 35.2362 84.367 35.508L88.006 30.7374ZM88.1518 30.852C88.1501 30.8505 88.1061 30.8136 88.0543 30.7733C87.9971 30.7287 87.9137 30.6666 87.8089 30.5992L84.5641 35.6462C84.4767 35.59 84.4095 35.5396 84.3678 35.5072C84.3316 35.479 84.3026 35.4545 84.3159 35.4656L88.1518 30.852ZM88.0569 30.7777C88.0922 30.804 88.1194 30.8256 88.1349 30.8382C88.1484 30.8491 88.1591 30.858 88.1517 30.8519L84.316 35.4657C84.3174 35.4669 84.3871 35.5257 84.4718 35.5888L88.0569 30.7777ZM118.073 53.6796L88.0842 30.7982L84.4446 35.5683L114.434 58.4497L118.073 53.6796ZM118.047 58.4694L118.054 58.4644L114.453 53.665L114.446 53.6701L118.047 58.4694ZM126.202 62.6003C124.064 59.1737 121.318 56.1901 118.078 53.6935L114.416 58.4461C117.119 60.5294 119.371 62.9872 121.111 65.7761L126.202 62.6003ZM130.688 74.8096C130.062 70.4318 128.536 66.3247 126.198 62.5948L121.115 65.7815C123.017 68.8156 124.244 72.1288 124.749 75.6591L130.688 74.8096ZM130.908 81.5543C131.082 79.3063 131.009 77.0554 130.689 74.8106L124.749 75.6581C125.008 77.4717 125.066 79.2826 124.926 81.0897L130.908 81.5543ZM129.582 88.3509C130.283 86.1206 130.729 83.8464 130.908 81.5557L124.926 81.0882C124.783 82.9131 124.427 84.7411 123.858 86.5523L129.582 88.3509ZM122.573 100.448C125.826 96.8636 128.183 92.78 129.58 88.3551L123.859 86.5481C122.73 90.1222 120.82 93.4521 118.13 96.416L122.573 100.448ZM110.43 109.16C115.138 107.067 119.237 104.121 122.572 100.449L118.131 96.415C115.374 99.4502 111.964 101.912 107.992 103.678L110.43 109.16ZM94.5856 112.492C100.12 112.484 105.476 111.357 110.427 109.162L107.995 103.677C103.823 105.527 99.2942 106.486 94.5777 106.492L94.5856 112.492ZM78.7352 109.216C83.6893 111.396 89.0462 112.501 94.5866 112.492L94.5767 106.492C89.8492 106.5 85.3209 105.559 81.1518 103.724L78.7352 109.216ZM66.5767 100.534C69.919 104.206 74.0236 107.141 78.7343 109.215L81.1527 103.724C77.1838 101.976 73.7737 99.527 71.0135 96.495L66.5767 100.534ZM59.5637 88.4556C60.9587 92.8846 63.3211 96.9638 66.5783 100.536L71.0119 96.4932C68.3223 93.5436 66.411 90.2229 65.2865 86.653L59.5637 88.4556ZM107.627 86.8105C104.343 90.1359 99.6942 92.0719 94.5756 92.0821L94.5877 98.0821C101.217 98.0688 107.426 95.5526 111.896 91.027L107.627 86.8105ZM111.087 81.4238C110.378 83.3565 109.229 85.1895 107.627 86.8105L111.896 91.0271C114.084 88.8118 115.708 86.25 116.72 83.4883L111.087 81.4238ZM111.87 75.5154C112.045 77.5374 111.777 79.5354 111.086 81.4259L116.721 83.4862C117.713 80.7731 118.099 77.895 117.847 74.997L111.87 75.5154ZM110.151 69.9369C111.106 71.6506 111.694 73.5322 111.87 75.5203L117.847 74.9922C117.596 72.1513 116.752 69.4563 115.393 67.0173L110.151 69.9369ZM106.277 65.3756C107.913 66.7005 109.214 68.2464 110.149 69.9322L115.396 67.022C114.069 64.6293 112.257 62.497 110.053 60.7125L106.277 65.3756ZM94.5772 61.3715C98.9492 61.3656 103.07 62.7895 106.282 65.3794L110.048 60.7087C105.715 57.2144 100.245 55.3639 94.5692 55.3715L94.5772 61.3715ZM82.8745 65.4142C86.0852 62.8143 90.211 61.3774 94.5772 61.3715L94.5692 55.3715C88.8979 55.3791 83.4263 57.2469 79.0986 60.7513L82.8745 65.4142ZM78.9986 69.9859C79.9343 68.2961 81.2371 66.7433 82.8773 65.412L79.0958 60.7536C76.8889 62.5451 75.0761 64.6839 73.7496 67.0793L78.9986 69.9859ZM77.2857 75.5695C77.4535 73.5974 78.0444 71.7079 78.9982 69.9866L73.75 67.0786C72.401 69.5133 71.5492 72.2173 71.3073 75.0608L77.2857 75.5695ZM78.0654 81.4892C77.3748 79.6015 77.1069 77.6017 77.2849 75.5781L71.308 75.0522C71.0526 77.9551 71.4383 80.8382 72.4307 83.5508L78.0654 81.4892ZM81.5228 86.8547C79.9229 85.2421 78.7701 83.4102 78.0646 81.4869L72.4316 83.5531C73.4431 86.3107 75.0739 88.8737 77.2635 91.0806L81.5228 86.8547ZM94.5765 92.0821C89.4492 92.0909 84.8056 90.1724 81.5257 86.8575L77.2607 91.0777C81.7358 95.6004 87.9494 98.0935 94.5868 98.0821L94.5765 92.0821ZM85.0391 75.7396C85.167 73.4727 86.2828 71.4108 88.0864 69.8956L84.2271 65.3015C81.2998 67.7606 79.2797 71.3051 79.0486 75.4017L85.0391 75.7396ZM87.5917 81.9713C85.8353 80.268 84.9106 78.0556 85.0393 75.7368L79.0485 75.4045C78.8148 79.6175 80.5281 83.4792 83.4147 86.2785L87.5917 81.9713ZM95.0057 84.8519C92.0031 84.8519 89.3846 83.7082 87.5906 81.9702L83.4158 86.2796C86.3494 89.1216 90.4734 90.8519 95.0057 90.8519V84.8519ZM102.417 81.9695C100.619 83.7094 98.0065 84.8519 95.0057 84.8519V90.8519C99.5399 90.8519 103.656 89.1204 106.59 86.2803L102.417 81.9695ZM104.97 75.7317C105.098 78.0537 104.17 80.2674 102.414 81.972L106.593 86.2777C109.476 83.4798 111.193 79.6194 110.961 75.4028L104.97 75.7317ZM101.923 69.895C103.725 71.4106 104.842 73.4735 104.971 75.738L110.961 75.3965C110.728 71.3043 108.708 67.7608 105.783 65.3022L101.923 69.895ZM95.0057 67.4539C97.7109 67.4539 100.148 68.4027 101.922 69.8948L105.784 65.3023C102.915 62.8909 99.1074 61.4539 95.0057 61.4539V67.4539ZM88.0882 69.8941C89.8604 68.4031 92.2966 67.4539 95.0057 67.4539V61.4539C90.9012 61.4539 87.0927 62.8905 84.2254 65.303L88.0882 69.8941Z" fill="url(#paint1_linear_201_530)" mask="url(#path-1-inside-1_201_530)"/>
<path d="M61.404 82L64.4036 81.947L64.4036 81.9468L61.404 82ZM62.4251 87.5543L65.2865 86.653L65.2846 86.6471L62.4251 87.5543ZM61.6563 78.6937L64.6302 79.0886L65.6245 71.5997L59.7635 76.3663L61.6563 78.6937ZM42.8375 93.9985L44.7155 96.338L44.7229 96.332L44.7304 96.326L42.8375 93.9985ZM33.0505 93.9834L35.4101 92.1308L35.4084 92.1286L33.0505 93.9834ZM35.3059 84.7881L37.1225 87.1755L37.1418 87.1608L37.1609 87.1458L35.3059 84.7881ZM35.4126 84.7088L37.1703 87.14L37.1707 87.1397L35.4126 84.7088ZM35.438 84.6905L37.2005 87.1181L37.2292 87.0973L37.2574 87.0758L35.438 84.6905ZM69.9194 58.39L71.7388 60.7754L78.8217 55.373L69.9137 55.39L69.9194 58.39ZM50.596 58.4271L47.8388 57.2448L46.0418 61.4358L50.6017 61.4271L50.596 58.4271ZM50.6011 58.4153L53.3583 59.5975L55.1446 55.4316L50.6118 55.4153L50.6011 58.4153ZM45.8007 53.5644L48.7224 54.2452L48.7238 54.2393L45.8007 53.5644ZM52.5805 48.9104V45.9104L52.5773 45.9104L52.5805 48.9104ZM52.6313 48.9104V51.9104L52.6345 51.9104L52.6313 48.9104ZM90.7549 48.87L90.7581 51.87L99.2296 51.861L92.6404 46.5365L90.7549 48.87ZM78.2468 38.7627L76.132 36.6349L73.7591 38.9934L76.3613 41.0961L78.2468 38.7627ZM78.2553 38.7543L80.3701 40.8821L82.7333 38.5333L80.1503 36.4286L78.2553 38.7543ZM78.7464 33.1311L77.034 30.6678L77.0338 30.668L78.7464 33.1311ZM86.1865 33.1227L84.367 35.508L84.4628 35.581L84.5641 35.6462L86.1865 33.1227ZM86.2339 33.1588L84.3159 35.4656L84.316 35.4657L86.2339 33.1588ZM86.2644 33.1832L88.0842 30.7982L88.0706 30.7879L88.0569 30.7777L86.2644 33.1832ZM116.254 56.0647L118.054 58.4644L121.226 56.0848L118.073 53.6796L116.254 56.0647ZM116.247 56.0698L114.446 53.6701L111.291 56.0378L114.416 58.4461L116.247 56.0698ZM123.657 64.1882L121.111 65.7761L121.115 65.7815L123.657 64.1882ZM127.719 75.2344L130.689 74.8106L130.688 74.8096L127.719 75.2344ZM127.917 81.322L130.908 81.5557L130.908 81.5543L127.917 81.322ZM126.72 87.4516L129.58 88.3551L129.582 88.3509L126.72 87.4516ZM120.351 98.4321L122.572 100.449L122.573 100.448L120.351 98.4321ZM109.211 106.419L110.427 109.162L110.43 109.16L109.211 106.419ZM94.5817 109.492L94.5777 106.492L94.5767 106.492L94.5817 109.492ZM79.9435 106.47L78.7343 109.215L78.7352 109.216L79.9435 106.47ZM68.7951 98.5146L71.0135 96.495L71.0119 96.4932L68.7951 98.5146ZM109.762 88.9188L107.627 86.8105L107.627 86.8105L109.762 88.9188ZM94.5817 95.0821L94.5868 98.0821H94.5877L94.5817 95.0821ZM113.903 82.456L116.72 83.4883L116.721 83.4862L113.903 82.456ZM114.858 75.2562L117.847 74.997L117.847 74.9922L114.858 75.2562ZM112.772 68.4771L110.149 69.9322L110.151 69.9369L112.772 68.4771ZM108.165 63.0441L110.053 60.7125L110.048 60.7087L108.165 63.0441ZM94.5732 58.3715L94.5692 55.3715H94.5692L94.5732 58.3715ZM80.9865 63.0828L79.0986 60.7513L79.0958 60.7536L80.9865 63.0828ZM76.3741 68.5326L78.9982 69.9866L78.9986 69.9859L76.3741 68.5326ZM74.2965 75.3151L77.2849 75.5781L77.2857 75.5695L74.2965 75.3151ZM75.2481 82.52L72.4307 83.5508L72.4316 83.5531L75.2481 82.52ZM79.3932 88.9676L81.5257 86.8575L81.5228 86.8547L79.3932 88.9676ZM82.0439 75.5707L79.0486 75.4017L79.0485 75.4045L82.0439 75.5707ZM86.1568 67.5986L88.0864 69.8956L88.0882 69.8941L86.1568 67.5986ZM85.5032 84.1249L83.4147 86.2785L83.4158 86.2796L85.5032 84.1249ZM104.503 84.1249L106.59 86.2803L106.593 86.2777L104.503 84.1249ZM107.966 75.5673L110.961 75.4028L110.961 75.3965L107.966 75.5673ZM103.853 67.5986L101.922 69.8948L101.923 69.895L103.853 67.5986ZM58.4045 82.053C58.4326 83.6415 58.8962 86.3514 59.5655 88.4614L65.2846 86.6471C64.7551 84.978 64.4195 82.8487 64.4036 81.947L58.4045 82.053ZM61.6563 78.6937C58.6824 78.2989 58.6824 78.2991 58.6824 78.2992C58.6824 78.2993 58.6824 78.2994 58.6823 78.2995C58.6823 78.2998 58.6823 78.3 58.6822 78.3003C58.6822 78.3009 58.6821 78.3017 58.682 78.3025C58.6817 78.3042 58.6814 78.3064 58.6811 78.3091C58.6804 78.3145 58.6794 78.3218 58.6782 78.3311C58.6758 78.3495 58.6725 78.3755 58.6683 78.4082C58.66 78.4737 58.6485 78.5666 58.6349 78.6812C58.6077 78.9097 58.5716 79.228 58.5362 79.5892C58.4691 80.2746 58.3902 81.2479 58.4045 82.0533L64.4036 81.9468C64.3958 81.5121 64.4431 80.8322 64.5076 80.1745C64.538 79.8641 64.5692 79.5883 64.5928 79.3907C64.6045 79.2922 64.6142 79.214 64.6208 79.1617C64.6242 79.1355 64.6267 79.1159 64.6283 79.1034C64.6291 79.0972 64.6297 79.0928 64.63 79.0903C64.6302 79.0891 64.6303 79.0883 64.6303 79.088C64.6303 79.0878 64.6303 79.0878 64.6303 79.0879C64.6303 79.0879 64.6303 79.088 64.6303 79.0881C64.6303 79.0882 64.6303 79.0883 64.6303 79.0883C64.6303 79.0884 64.6302 79.0886 61.6563 78.6937ZM44.7304 96.326L63.5492 81.0212L59.7635 76.3663L40.9446 91.6711L44.7304 96.326ZM30.6909 95.836C34.175 100.274 40.6549 99.5976 44.7155 96.338L40.9595 91.659C38.4469 93.676 36.0847 92.9899 35.4101 92.1308L30.6909 95.836ZM33.4892 82.4006C29.4612 85.4656 27.2211 91.425 30.6926 95.8382L35.4084 92.1286C34.7822 91.3325 34.6451 89.0607 37.1225 87.1755L33.4892 82.4006ZM33.6549 82.2777C33.63 82.2957 33.5407 82.3596 33.4509 82.4303L37.1609 87.1458C37.1518 87.153 37.1452 87.158 37.1419 87.1605C37.1385 87.1631 37.1372 87.164 37.1386 87.163C37.14 87.1619 37.143 87.1597 37.1485 87.1557C37.1544 87.1515 37.1607 87.1469 37.1703 87.14L33.6549 82.2777ZM33.6754 82.2628C33.6698 82.2669 33.6642 82.2709 33.6545 82.278L37.1707 87.1397C37.178 87.1344 37.1893 87.1262 37.2005 87.1181L33.6754 82.2628ZM68.1 56.0047L33.6186 82.3051L37.2574 87.0758L71.7388 60.7754L68.1 56.0047ZM50.6017 61.4271L69.9251 61.39L69.9137 55.39L50.5903 55.4271L50.6017 61.4271ZM47.8438 57.233L47.8388 57.2448L53.3532 59.6093L53.3583 59.5975L47.8438 57.233ZM42.879 52.8836C42.3333 55.2253 43.0271 57.4821 44.604 59.0827C46.1312 60.6329 48.3044 61.407 50.5903 61.4152L50.6118 55.4153C49.6212 55.4117 49.0861 55.0829 48.8782 54.8718C48.7763 54.7685 48.7338 54.6798 48.7145 54.612C48.696 54.5474 48.6786 54.4332 48.7224 54.2452L42.879 52.8836ZM52.5773 45.9104C50.3705 45.9127 48.2407 46.6258 46.5402 47.7888C44.856 48.9405 43.3864 50.6855 42.8776 52.8895L48.7238 54.2393C48.8144 53.847 49.1591 53.2667 49.9272 52.7413C50.6789 52.2272 51.6393 51.9114 52.5837 51.9104L52.5773 45.9104ZM52.6313 45.9104H52.5805V51.9104H52.6313V45.9104ZM90.7517 45.87L52.6281 45.9104L52.6345 51.9104L90.7581 51.87L90.7517 45.87ZM76.3613 41.0961L88.8694 51.2034L92.6404 46.5365L80.1324 36.4293L76.3613 41.0961ZM76.1405 36.6265L76.132 36.6349L80.3617 40.8905L80.3701 40.8821L76.1405 36.6265ZM77.0338 30.668C75.3546 31.8355 74.1503 33.5864 73.9626 35.6458C73.7701 37.7581 74.6952 39.7233 76.3603 41.08L80.1503 36.4286C79.9917 36.2994 79.9482 36.2104 79.9409 36.1941C79.9362 36.1837 79.9366 36.1814 79.9373 36.1856C79.938 36.1898 79.9377 36.1922 79.9379 36.1904C79.938 36.1882 79.9394 36.1753 79.948 36.1508C79.9566 36.126 79.9737 36.0865 80.0069 36.0342C80.0731 35.9297 80.2071 35.7694 80.4589 35.5943L77.0338 30.668ZM88.006 30.7374C86.3948 29.5084 84.3951 28.9977 82.5363 29C80.6685 29.0023 78.6844 29.5206 77.034 30.6678L80.4587 35.5945C80.9723 35.2374 81.7245 35.001 82.5439 35C83.3722 34.999 84.0107 35.2362 84.367 35.508L88.006 30.7374ZM88.1518 30.852C88.1501 30.8505 88.1061 30.8136 88.0543 30.7733C87.9971 30.7287 87.9137 30.6666 87.8089 30.5992L84.5641 35.6462C84.4767 35.59 84.4095 35.5396 84.3678 35.5072C84.3316 35.479 84.3026 35.4545 84.3159 35.4656L88.1518 30.852ZM88.0569 30.7777C88.0922 30.804 88.1194 30.8256 88.1349 30.8382C88.1484 30.8491 88.1591 30.858 88.1517 30.8519L84.316 35.4657C84.3174 35.4669 84.3871 35.5257 84.4718 35.5888L88.0569 30.7777ZM118.073 53.6796L88.0842 30.7982L84.4446 35.5683L114.434 58.4497L118.073 53.6796ZM118.047 58.4694L118.054 58.4644L114.453 53.665L114.446 53.6701L118.047 58.4694ZM126.202 62.6003C124.064 59.1737 121.318 56.1901 118.078 53.6935L114.416 58.4461C117.119 60.5294 119.371 62.9872 121.111 65.7761L126.202 62.6003ZM130.688 74.8096C130.062 70.4318 128.536 66.3247 126.198 62.5948L121.115 65.7815C123.017 68.8156 124.244 72.1288 124.749 75.6591L130.688 74.8096ZM130.908 81.5543C131.082 79.3063 131.009 77.0554 130.689 74.8106L124.749 75.6581C125.008 77.4717 125.066 79.2826 124.926 81.0897L130.908 81.5543ZM129.582 88.3509C130.283 86.1206 130.729 83.8464 130.908 81.5557L124.926 81.0882C124.783 82.9131 124.427 84.7411 123.858 86.5523L129.582 88.3509ZM122.573 100.448C125.826 96.8636 128.183 92.78 129.58 88.3551L123.859 86.5481C122.73 90.1222 120.82 93.4521 118.13 96.416L122.573 100.448ZM110.43 109.16C115.138 107.067 119.237 104.121 122.572 100.449L118.131 96.415C115.374 99.4502 111.964 101.912 107.992 103.678L110.43 109.16ZM94.5856 112.492C100.12 112.484 105.476 111.357 110.427 109.162L107.995 103.677C103.823 105.527 99.2942 106.486 94.5777 106.492L94.5856 112.492ZM78.7352 109.216C83.6893 111.396 89.0462 112.501 94.5866 112.492L94.5767 106.492C89.8492 106.5 85.3209 105.559 81.1518 103.724L78.7352 109.216ZM66.5767 100.534C69.919 104.206 74.0236 107.141 78.7343 109.215L81.1527 103.724C77.1838 101.976 73.7737 99.527 71.0135 96.495L66.5767 100.534ZM59.5637 88.4556C60.9587 92.8846 63.3211 96.9638 66.5783 100.536L71.0119 96.4932C68.3223 93.5436 66.411 90.2229 65.2865 86.653L59.5637 88.4556ZM107.627 86.8105C104.343 90.1359 99.6942 92.0719 94.5756 92.0821L94.5877 98.0821C101.217 98.0688 107.426 95.5526 111.896 91.027L107.627 86.8105ZM111.087 81.4238C110.378 83.3565 109.229 85.1895 107.627 86.8105L111.896 91.0271C114.084 88.8118 115.708 86.25 116.72 83.4883L111.087 81.4238ZM111.87 75.5154C112.045 77.5374 111.777 79.5354 111.086 81.4259L116.721 83.4862C117.713 80.7731 118.099 77.895 117.847 74.997L111.87 75.5154ZM110.151 69.9369C111.106 71.6506 111.694 73.5322 111.87 75.5203L117.847 74.9922C117.596 72.1513 116.752 69.4563 115.393 67.0173L110.151 69.9369ZM106.277 65.3756C107.913 66.7005 109.214 68.2464 110.149 69.9322L115.396 67.022C114.069 64.6293 112.257 62.497 110.053 60.7125L106.277 65.3756ZM94.5772 61.3715C98.9492 61.3656 103.07 62.7895 106.282 65.3794L110.048 60.7087C105.715 57.2144 100.245 55.3639 94.5692 55.3715L94.5772 61.3715ZM82.8745 65.4142C86.0852 62.8143 90.211 61.3774 94.5772 61.3715L94.5692 55.3715C88.8979 55.3791 83.4263 57.2469 79.0986 60.7513L82.8745 65.4142ZM78.9986 69.9859C79.9343 68.2961 81.2371 66.7433 82.8773 65.412L79.0958 60.7536C76.8889 62.5451 75.0761 64.6839 73.7496 67.0793L78.9986 69.9859ZM77.2857 75.5695C77.4535 73.5974 78.0444 71.7079 78.9982 69.9866L73.75 67.0786C72.401 69.5133 71.5492 72.2173 71.3073 75.0608L77.2857 75.5695ZM78.0654 81.4892C77.3748 79.6015 77.1069 77.6017 77.2849 75.5781L71.308 75.0522C71.0526 77.9551 71.4383 80.8382 72.4307 83.5508L78.0654 81.4892ZM81.5228 86.8547C79.9229 85.2421 78.7701 83.4102 78.0646 81.4869L72.4316 83.5531C73.4431 86.3107 75.0739 88.8737 77.2635 91.0806L81.5228 86.8547ZM94.5765 92.0821C89.4492 92.0909 84.8056 90.1724 81.5257 86.8575L77.2607 91.0777C81.7358 95.6004 87.9494 98.0935 94.5868 98.0821L94.5765 92.0821ZM85.0391 75.7396C85.167 73.4727 86.2828 71.4108 88.0864 69.8956L84.2271 65.3015C81.2998 67.7606 79.2797 71.3051 79.0486 75.4017L85.0391 75.7396ZM87.5917 81.9713C85.8353 80.268 84.9106 78.0556 85.0393 75.7368L79.0485 75.4045C78.8148 79.6175 80.5281 83.4792 83.4147 86.2785L87.5917 81.9713ZM95.0057 84.8519C92.0031 84.8519 89.3846 83.7082 87.5906 81.9702L83.4158 86.2796C86.3494 89.1216 90.4734 90.8519 95.0057 90.8519V84.8519ZM102.417 81.9695C100.619 83.7094 98.0065 84.8519 95.0057 84.8519V90.8519C99.5399 90.8519 103.656 89.1204 106.59 86.2803L102.417 81.9695ZM104.97 75.7317C105.098 78.0537 104.17 80.2674 102.414 81.972L106.593 86.2777C109.476 83.4798 111.193 79.6194 110.961 75.4028L104.97 75.7317ZM101.923 69.895C103.725 71.4106 104.842 73.4735 104.971 75.738L110.961 75.3965C110.728 71.3043 108.708 67.7608 105.783 65.3022L101.923 69.895ZM95.0057 67.4539C97.7109 67.4539 100.148 68.4027 101.922 69.8948L105.784 65.3023C102.915 62.8909 99.1074 61.4539 95.0057 61.4539V67.4539ZM88.0882 69.8941C89.8604 68.4031 92.2966 67.4539 95.0057 67.4539V61.4539C90.9012 61.4539 87.0927 62.8905 84.2254 65.303L88.0882 69.8941Z" fill="url(#paint2_linear_201_530)" mask="url(#path-1-inside-1_201_530)"/>
<g style="mix-blend-mode:plus-lighter" opacity="0.1" filter="url(#filter0_f_201_530)">
<mask id="path-3-inside-2_201_530" fill="white">
<path fill-rule="evenodd" clip-rule="evenodd" d="M62.4251 87.5543C61.8256 85.6647 61.426 83.2451 61.404 82C61.382 80.7599 61.6563 78.6937 61.6563 78.6937L42.8375 93.9985C39.5509 96.6368 35.1298 96.6318 33.0505 93.9834C31.0017 91.3787 32.0531 87.2631 35.3059 84.7881C35.3388 84.7622 35.3762 84.7352 35.4126 84.7088C35.4211 84.7027 35.4296 84.6965 35.438 84.6905L69.9194 58.39L50.596 58.4271L50.6011 58.4153C47.3246 58.4035 45.1844 56.2094 45.8007 53.5644C46.4001 50.9682 49.4293 48.9137 52.5805 48.9104H52.6313L90.7549 48.87L78.2468 38.7627L78.2553 38.7543C76.3081 37.1676 76.5587 34.6522 78.7464 33.1311C80.9103 31.6269 84.219 31.6218 86.1865 33.1227C86.2039 33.1339 86.2188 33.1463 86.2339 33.1588C86.2437 33.167 86.2537 33.1752 86.2644 33.1832L116.254 56.0647L116.247 56.0698C119.219 58.3598 121.718 61.0805 123.657 64.1882C125.776 67.5702 127.153 71.2803 127.719 75.2344C128.008 77.2635 128.074 79.2944 127.917 81.322C127.756 83.3798 127.355 85.4308 126.72 87.4516C125.456 91.4511 123.323 95.1578 120.351 98.4321C117.305 101.786 113.551 104.489 109.211 106.419C104.65 108.442 99.7071 109.485 94.5817 109.492C89.4477 109.5 84.5051 108.477 79.9435 106.47C75.6037 104.558 71.8463 101.866 68.7951 98.5146C65.8217 95.2537 63.6848 91.5538 62.4251 87.5543ZM94.5817 95.0821C100.456 95.0704 105.884 92.8442 109.762 88.9188C111.656 87.0006 113.043 84.8032 113.903 82.456C114.745 80.1543 115.072 77.7162 114.858 75.2562C114.645 72.8417 113.929 70.5534 112.772 68.4771C111.641 66.4378 110.085 64.5988 108.165 63.0441C104.392 60.0019 99.5971 58.3648 94.5732 58.3715C89.5544 58.3782 84.7557 60.0306 80.9865 63.0828C79.063 64.6442 77.5052 66.49 76.3741 68.5326C75.2227 70.6106 74.5014 72.9073 74.2965 75.3151C74.0797 77.7784 74.4065 80.2199 75.2481 82.52C76.1066 84.8604 77.4984 87.0579 79.3932 88.9676C83.2707 92.8864 88.6993 95.0922 94.5817 95.0821ZM86.1568 67.5986C83.7913 69.5857 82.2234 72.3889 82.0439 75.5707C81.8627 78.8366 83.1817 81.8736 85.5032 84.1249C87.867 86.4149 91.2382 87.8519 95.0057 87.8519C98.7732 87.8519 102.138 86.4149 104.503 84.1249C106.823 81.8736 108.145 78.8365 107.966 75.5673C107.785 72.3889 106.217 69.5857 103.853 67.5986C101.532 65.6468 98.4092 64.4539 95.0057 64.4539C91.5989 64.4539 88.4765 65.6468 86.1568 67.5986Z"/>
</mask>
<path fill-rule="evenodd" clip-rule="evenodd" d="M62.4251 87.5543C61.8256 85.6647 61.426 83.2451 61.404 82C61.382 80.7599 61.6563 78.6937 61.6563 78.6937L42.8375 93.9985C39.5509 96.6368 35.1298 96.6318 33.0505 93.9834C31.0017 91.3787 32.0531 87.2631 35.3059 84.7881C35.3388 84.7622 35.3762 84.7352 35.4126 84.7088C35.4211 84.7027 35.4296 84.6965 35.438 84.6905L69.9194 58.39L50.596 58.4271L50.6011 58.4153C47.3246 58.4035 45.1844 56.2094 45.8007 53.5644C46.4001 50.9682 49.4293 48.9137 52.5805 48.9104H52.6313L90.7549 48.87L78.2468 38.7627L78.2553 38.7543C76.3081 37.1676 76.5587 34.6522 78.7464 33.1311C80.9103 31.6269 84.219 31.6218 86.1865 33.1227C86.2039 33.1339 86.2188 33.1463 86.2339 33.1588C86.2437 33.167 86.2537 33.1752 86.2644 33.1832L116.254 56.0647L116.247 56.0698C119.219 58.3598 121.718 61.0805 123.657 64.1882C125.776 67.5702 127.153 71.2803 127.719 75.2344C128.008 77.2635 128.074 79.2944 127.917 81.322C127.756 83.3798 127.355 85.4308 126.72 87.4516C125.456 91.4511 123.323 95.1578 120.351 98.4321C117.305 101.786 113.551 104.489 109.211 106.419C104.65 108.442 99.7071 109.485 94.5817 109.492C89.4477 109.5 84.5051 108.477 79.9435 106.47C75.6037 104.558 71.8463 101.866 68.7951 98.5146C65.8217 95.2537 63.6848 91.5538 62.4251 87.5543ZM94.5817 95.0821C100.456 95.0704 105.884 92.8442 109.762 88.9188C111.656 87.0006 113.043 84.8032 113.903 82.456C114.745 80.1543 115.072 77.7162 114.858 75.2562C114.645 72.8417 113.929 70.5534 112.772 68.4771C111.641 66.4378 110.085 64.5988 108.165 63.0441C104.392 60.0019 99.5971 58.3648 94.5732 58.3715C89.5544 58.3782 84.7557 60.0306 80.9865 63.0828C79.063 64.6442 77.5052 66.49 76.3741 68.5326C75.2227 70.6106 74.5014 72.9073 74.2965 75.3151C74.0797 77.7784 74.4065 80.2199 75.2481 82.52C76.1066 84.8604 77.4984 87.0579 79.3932 88.9676C83.2707 92.8864 88.6993 95.0922 94.5817 95.0821ZM86.1568 67.5986C83.7913 69.5857 82.2234 72.3889 82.0439 75.5707C81.8627 78.8366 83.1817 81.8736 85.5032 84.1249C87.867 86.4149 91.2382 87.8519 95.0057 87.8519C98.7732 87.8519 102.138 86.4149 104.503 84.1249C106.823 81.8736 108.145 78.8365 107.966 75.5673C107.785 72.3889 106.217 69.5857 103.853 67.5986C101.532 65.6468 98.4092 64.4539 95.0057 64.4539C91.5989 64.4539 88.4765 65.6468 86.1568 67.5986Z" fill="url(#paint3_linear_201_530)"/>
<path d="M61.404 82L64.4036 81.947L64.4036 81.9468L61.404 82ZM62.4251 87.5543L65.2865 86.653L65.2846 86.6471L62.4251 87.5543ZM61.6563 78.6937L64.6302 79.0886L65.6245 71.5997L59.7635 76.3663L61.6563 78.6937ZM42.8375 93.9985L44.7155 96.338L44.7229 96.332L44.7304 96.326L42.8375 93.9985ZM33.0505 93.9834L35.4101 92.1308L35.4084 92.1286L33.0505 93.9834ZM35.3059 84.7881L37.1225 87.1755L37.1418 87.1608L37.1609 87.1458L35.3059 84.7881ZM35.4126 84.7088L37.1703 87.14L37.1707 87.1397L35.4126 84.7088ZM35.438 84.6905L37.2005 87.1181L37.2292 87.0973L37.2574 87.0758L35.438 84.6905ZM69.9194 58.39L71.7388 60.7754L78.8217 55.373L69.9137 55.39L69.9194 58.39ZM50.596 58.4271L47.8388 57.2448L46.0418 61.4358L50.6017 61.4271L50.596 58.4271ZM50.6011 58.4153L53.3583 59.5975L55.1446 55.4316L50.6118 55.4153L50.6011 58.4153ZM45.8007 53.5644L48.7224 54.2452L48.7238 54.2393L45.8007 53.5644ZM52.5805 48.9104V45.9104L52.5773 45.9104L52.5805 48.9104ZM52.6313 48.9104V51.9104L52.6345 51.9104L52.6313 48.9104ZM90.7549 48.87L90.7581 51.87L99.2296 51.861L92.6404 46.5365L90.7549 48.87ZM78.2468 38.7627L76.132 36.6349L73.7591 38.9934L76.3613 41.0961L78.2468 38.7627ZM78.2553 38.7543L80.3701 40.8821L82.7333 38.5333L80.1503 36.4286L78.2553 38.7543ZM78.7464 33.1311L77.034 30.6678L77.0338 30.668L78.7464 33.1311ZM86.1865 33.1227L84.367 35.508L84.4628 35.581L84.5641 35.6462L86.1865 33.1227ZM86.2339 33.1588L84.3159 35.4656L84.316 35.4657L86.2339 33.1588ZM86.2644 33.1832L88.0842 30.7982L88.0706 30.7879L88.0569 30.7777L86.2644 33.1832ZM116.254 56.0647L118.054 58.4644L121.226 56.0848L118.073 53.6796L116.254 56.0647ZM116.247 56.0698L114.446 53.6701L111.291 56.0378L114.416 58.4461L116.247 56.0698ZM123.657 64.1882L121.111 65.7761L121.115 65.7815L123.657 64.1882ZM127.719 75.2344L130.689 74.8106L130.688 74.8096L127.719 75.2344ZM127.917 81.322L130.908 81.5557L130.908 81.5543L127.917 81.322ZM126.72 87.4516L129.58 88.3551L129.582 88.3509L126.72 87.4516ZM120.351 98.4321L122.572 100.449L122.573 100.448L120.351 98.4321ZM109.211 106.419L110.427 109.162L110.43 109.16L109.211 106.419ZM94.5817 109.492L94.5777 106.492L94.5767 106.492L94.5817 109.492ZM79.9435 106.47L78.7343 109.215L78.7352 109.216L79.9435 106.47ZM68.7951 98.5146L71.0135 96.495L71.0119 96.4932L68.7951 98.5146ZM109.762 88.9188L107.627 86.8105L107.627 86.8105L109.762 88.9188ZM94.5817 95.0821L94.5868 98.0821H94.5877L94.5817 95.0821ZM113.903 82.456L116.72 83.4883L116.721 83.4862L113.903 82.456ZM114.858 75.2562L117.847 74.997L117.847 74.9922L114.858 75.2562ZM112.772 68.4771L110.149 69.9322L110.151 69.9369L112.772 68.4771ZM108.165 63.0441L110.053 60.7125L110.048 60.7087L108.165 63.0441ZM94.5732 58.3715L94.5692 55.3715H94.5692L94.5732 58.3715ZM80.9865 63.0828L79.0986 60.7513L79.0958 60.7536L80.9865 63.0828ZM76.3741 68.5326L78.9982 69.9866L78.9986 69.9859L76.3741 68.5326ZM74.2965 75.3151L77.2849 75.5781L77.2857 75.5695L74.2965 75.3151ZM75.2481 82.52L72.4307 83.5508L72.4316 83.5531L75.2481 82.52ZM79.3932 88.9676L81.5257 86.8575L81.5228 86.8547L79.3932 88.9676ZM82.0439 75.5707L79.0486 75.4017L79.0485 75.4045L82.0439 75.5707ZM86.1568 67.5986L88.0864 69.8956L88.0882 69.8941L86.1568 67.5986ZM85.5032 84.1249L83.4147 86.2785L83.4158 86.2796L85.5032 84.1249ZM104.503 84.1249L106.59 86.2803L106.593 86.2777L104.503 84.1249ZM107.966 75.5673L110.961 75.4028L110.961 75.3965L107.966 75.5673ZM103.853 67.5986L101.922 69.8948L101.923 69.895L103.853 67.5986ZM58.4045 82.053C58.4326 83.6415 58.8962 86.3514 59.5655 88.4614L65.2846 86.6471C64.7551 84.978 64.4195 82.8487 64.4036 81.947L58.4045 82.053ZM61.6563 78.6937C58.6824 78.2989 58.6824 78.2991 58.6824 78.2992C58.6824 78.2993 58.6824 78.2994 58.6823 78.2995C58.6823 78.2998 58.6823 78.3 58.6822 78.3003C58.6822 78.3009 58.6821 78.3017 58.682 78.3025C58.6817 78.3042 58.6814 78.3064 58.6811 78.3091C58.6804 78.3145 58.6794 78.3218 58.6782 78.3311C58.6758 78.3495 58.6725 78.3755 58.6683 78.4082C58.66 78.4737 58.6485 78.5666 58.6349 78.6812C58.6077 78.9097 58.5716 79.228 58.5362 79.5892C58.4691 80.2746 58.3902 81.2479 58.4045 82.0533L64.4036 81.9468C64.3958 81.5121 64.4431 80.8322 64.5076 80.1745C64.538 79.8641 64.5692 79.5883 64.5928 79.3907C64.6045 79.2922 64.6142 79.214 64.6208 79.1617C64.6242 79.1355 64.6267 79.1159 64.6283 79.1034C64.6291 79.0972 64.6297 79.0928 64.63 79.0903C64.6302 79.0891 64.6303 79.0883 64.6303 79.088C64.6303 79.0878 64.6303 79.0878 64.6303 79.0879C64.6303 79.0879 64.6303 79.088 64.6303 79.0881C64.6303 79.0882 64.6303 79.0883 64.6303 79.0883C64.6303 79.0884 64.6302 79.0886 61.6563 78.6937ZM44.7304 96.326L63.5492 81.0212L59.7635 76.3663L40.9446 91.6711L44.7304 96.326ZM30.6909 95.836C34.175 100.274 40.6549 99.5976 44.7155 96.338L40.9595 91.659C38.4469 93.676 36.0847 92.9899 35.4101 92.1308L30.6909 95.836ZM33.4892 82.4006C29.4612 85.4656 27.2211 91.425 30.6926 95.8382L35.4084 92.1286C34.7822 91.3325 34.6451 89.0607 37.1225 87.1755L33.4892 82.4006ZM33.6549 82.2777C33.63 82.2957 33.5407 82.3596 33.4509 82.4303L37.1609 87.1458C37.1518 87.153 37.1452 87.158 37.1419 87.1605C37.1385 87.1631 37.1372 87.164 37.1386 87.163C37.14 87.1619 37.143 87.1597 37.1485 87.1557C37.1544 87.1515 37.1607 87.1469 37.1703 87.14L33.6549 82.2777ZM33.6754 82.2628C33.6698 82.2669 33.6642 82.2709 33.6545 82.278L37.1707 87.1397C37.178 87.1344 37.1893 87.1262 37.2005 87.1181L33.6754 82.2628ZM68.1 56.0047L33.6186 82.3051L37.2574 87.0758L71.7388 60.7754L68.1 56.0047ZM50.6017 61.4271L69.9251 61.39L69.9137 55.39L50.5903 55.4271L50.6017 61.4271ZM47.8438 57.233L47.8388 57.2448L53.3532 59.6093L53.3583 59.5975L47.8438 57.233ZM42.879 52.8836C42.3333 55.2253 43.0271 57.4821 44.604 59.0827C46.1312 60.6329 48.3044 61.407 50.5903 61.4152L50.6118 55.4153C49.6212 55.4117 49.0861 55.0829 48.8782 54.8718C48.7763 54.7685 48.7338 54.6798 48.7145 54.612C48.696 54.5474 48.6786 54.4332 48.7224 54.2452L42.879 52.8836ZM52.5773 45.9104C50.3705 45.9127 48.2407 46.6258 46.5402 47.7888C44.856 48.9405 43.3864 50.6855 42.8776 52.8895L48.7238 54.2393C48.8144 53.847 49.1591 53.2667 49.9272 52.7413C50.6789 52.2272 51.6393 51.9114 52.5837 51.9104L52.5773 45.9104ZM52.6313 45.9104H52.5805V51.9104H52.6313V45.9104ZM90.7517 45.87L52.6281 45.9104L52.6345 51.9104L90.7581 51.87L90.7517 45.87ZM76.3613 41.0961L88.8694 51.2034L92.6404 46.5365L80.1324 36.4293L76.3613 41.0961ZM76.1405 36.6265L76.132 36.6349L80.3617 40.8905L80.3701 40.8821L76.1405 36.6265ZM77.0338 30.668C75.3546 31.8355 74.1503 33.5864 73.9626 35.6458C73.7701 37.7581 74.6952 39.7233 76.3603 41.08L80.1503 36.4286C79.9917 36.2994 79.9482 36.2104 79.9409 36.1941C79.9362 36.1837 79.9366 36.1814 79.9373 36.1856C79.938 36.1898 79.9377 36.1922 79.9379 36.1904C79.938 36.1882 79.9394 36.1753 79.948 36.1508C79.9566 36.126 79.9737 36.0865 80.0069 36.0342C80.0731 35.9297 80.2071 35.7694 80.4589 35.5943L77.0338 30.668ZM88.006 30.7374C86.3948 29.5084 84.3951 28.9977 82.5363 29C80.6685 29.0023 78.6844 29.5206 77.034 30.6678L80.4587 35.5945C80.9723 35.2374 81.7245 35.001 82.5439 35C83.3722 34.999 84.0107 35.2362 84.367 35.508L88.006 30.7374ZM88.1518 30.852C88.1501 30.8505 88.1061 30.8136 88.0543 30.7733C87.9971 30.7287 87.9137 30.6666 87.8089 30.5992L84.5641 35.6462C84.4767 35.59 84.4095 35.5396 84.3678 35.5072C84.3316 35.479 84.3026 35.4545 84.3159 35.4656L88.1518 30.852ZM88.0569 30.7777C88.0922 30.804 88.1194 30.8256 88.1349 30.8382C88.1484 30.8491 88.1591 30.858 88.1517 30.8519L84.316 35.4657C84.3174 35.4669 84.3871 35.5257 84.4718 35.5888L88.0569 30.7777ZM118.073 53.6796L88.0842 30.7982L84.4446 35.5683L114.434 58.4497L118.073 53.6796ZM118.047 58.4694L118.054 58.4644L114.453 53.665L114.446 53.6701L118.047 58.4694ZM126.202 62.6003C124.064 59.1737 121.318 56.1901 118.078 53.6935L114.416 58.4461C117.119 60.5294 119.371 62.9872 121.111 65.7761L126.202 62.6003ZM130.688 74.8096C130.062 70.4318 128.536 66.3247 126.198 62.5948L121.115 65.7815C123.017 68.8156 124.244 72.1288 124.749 75.6591L130.688 74.8096ZM130.908 81.5543C131.082 79.3063 131.009 77.0554 130.689 74.8106L124.749 75.6581C125.008 77.4717 125.066 79.2826 124.926 81.0897L130.908 81.5543ZM129.582 88.3509C130.283 86.1206 130.729 83.8464 130.908 81.5557L124.926 81.0882C124.783 82.9131 124.427 84.7411 123.858 86.5523L129.582 88.3509ZM122.573 100.448C125.826 96.8636 128.183 92.78 129.58 88.3551L123.859 86.5481C122.73 90.1222 120.82 93.4521 118.13 96.416L122.573 100.448ZM110.43 109.16C115.138 107.067 119.237 104.121 122.572 100.449L118.131 96.415C115.374 99.4502 111.964 101.912 107.992 103.678L110.43 109.16ZM94.5856 112.492C100.12 112.484 105.476 111.357 110.427 109.162L107.995 103.677C103.823 105.527 99.2942 106.486 94.5777 106.492L94.5856 112.492ZM78.7352 109.216C83.6893 111.396 89.0462 112.501 94.5866 112.492L94.5767 106.492C89.8492 106.5 85.3209 105.559 81.1518 103.724L78.7352 109.216ZM66.5767 100.534C69.919 104.206 74.0236 107.141 78.7343 109.215L81.1527 103.724C77.1838 101.976 73.7737 99.527 71.0135 96.495L66.5767 100.534ZM59.5637 88.4556C60.9587 92.8846 63.3211 96.9638 66.5783 100.536L71.0119 96.4932C68.3223 93.5436 66.411 90.2229 65.2865 86.653L59.5637 88.4556ZM107.627 86.8105C104.343 90.1359 99.6942 92.0719 94.5756 92.0821L94.5877 98.0821C101.217 98.0688 107.426 95.5526 111.896 91.027L107.627 86.8105ZM111.087 81.4238C110.378 83.3565 109.229 85.1895 107.627 86.8105L111.896 91.0271C114.084 88.8118 115.708 86.25 116.72 83.4883L111.087 81.4238ZM111.87 75.5154C112.045 77.5374 111.777 79.5354 111.086 81.4259L116.721 83.4862C117.713 80.7731 118.099 77.895 117.847 74.997L111.87 75.5154ZM110.151 69.9369C111.106 71.6506 111.694 73.5322 111.87 75.5203L117.847 74.9922C117.596 72.1513 116.752 69.4563 115.393 67.0173L110.151 69.9369ZM106.277 65.3756C107.913 66.7005 109.214 68.2464 110.149 69.9322L115.396 67.022C114.069 64.6293 112.257 62.497 110.053 60.7125L106.277 65.3756ZM94.5772 61.3715C98.9492 61.3656 103.07 62.7895 106.282 65.3794L110.048 60.7087C105.715 57.2144 100.245 55.3639 94.5692 55.3715L94.5772 61.3715ZM82.8745 65.4142C86.0852 62.8143 90.211 61.3774 94.5772 61.3715L94.5692 55.3715C88.8979 55.3791 83.4263 57.2469 79.0986 60.7513L82.8745 65.4142ZM78.9986 69.9859C79.9343 68.2961 81.2371 66.7433 82.8773 65.412L79.0958 60.7536C76.8889 62.5451 75.0761 64.6839 73.7496 67.0793L78.9986 69.9859ZM77.2857 75.5695C77.4535 73.5974 78.0444 71.7079 78.9982 69.9866L73.75 67.0786C72.401 69.5133 71.5492 72.2173 71.3073 75.0608L77.2857 75.5695ZM78.0654 81.4892C77.3748 79.6015 77.1069 77.6017 77.2849 75.5781L71.308 75.0522C71.0526 77.9551 71.4383 80.8382 72.4307 83.5508L78.0654 81.4892ZM81.5228 86.8547C79.9229 85.2421 78.7701 83.4102 78.0646 81.4869L72.4316 83.5531C73.4431 86.3107 75.0739 88.8737 77.2635 91.0806L81.5228 86.8547ZM94.5765 92.0821C89.4492 92.0909 84.8056 90.1724 81.5257 86.8575L77.2607 91.0777C81.7358 95.6004 87.9494 98.0935 94.5868 98.0821L94.5765 92.0821ZM85.0391 75.7396C85.167 73.4727 86.2828 71.4108 88.0864 69.8956L84.2271 65.3015C81.2998 67.7606 79.2797 71.3051 79.0486 75.4017L85.0391 75.7396ZM87.5917 81.9713C85.8353 80.268 84.9106 78.0556 85.0393 75.7368L79.0485 75.4045C78.8148 79.6175 80.5281 83.4792 83.4147 86.2785L87.5917 81.9713ZM95.0057 84.8519C92.0031 84.8519 89.3846 83.7082 87.5906 81.9702L83.4158 86.2796C86.3494 89.1216 90.4734 90.8519 95.0057 90.8519V84.8519ZM102.417 81.9695C100.619 83.7094 98.0065 84.8519 95.0057 84.8519V90.8519C99.5399 90.8519 103.656 89.1204 106.59 86.2803L102.417 81.9695ZM104.97 75.7317C105.098 78.0537 104.17 80.2674 102.414 81.972L106.593 86.2777C109.476 83.4798 111.193 79.6194 110.961 75.4028L104.97 75.7317ZM101.923 69.895C103.725 71.4106 104.842 73.4735 104.971 75.738L110.961 75.3965C110.728 71.3043 108.708 67.7608 105.783 65.3022L101.923 69.895ZM95.0057 67.4539C97.7109 67.4539 100.148 68.4027 101.922 69.8948L105.784 65.3023C102.915 62.8909 99.1074 61.4539 95.0057 61.4539V67.4539ZM88.0882 69.8941C89.8604 68.4031 92.2966 67.4539 95.0057 67.4539V61.4539C90.9012 61.4539 87.0927 62.8905 84.2254 65.303L88.0882 69.8941Z" fill="url(#paint4_linear_201_530)" mask="url(#path-3-inside-2_201_530)"/>
<path d="M61.404 82L64.4036 81.947L64.4036 81.9468L61.404 82ZM62.4251 87.5543L65.2865 86.653L65.2846 86.6471L62.4251 87.5543ZM61.6563 78.6937L64.6302 79.0886L65.6245 71.5997L59.7635 76.3663L61.6563 78.6937ZM42.8375 93.9985L44.7155 96.338L44.7229 96.332L44.7304 96.326L42.8375 93.9985ZM33.0505 93.9834L35.4101 92.1308L35.4084 92.1286L33.0505 93.9834ZM35.3059 84.7881L37.1225 87.1755L37.1418 87.1608L37.1609 87.1458L35.3059 84.7881ZM35.4126 84.7088L37.1703 87.14L37.1707 87.1397L35.4126 84.7088ZM35.438 84.6905L37.2005 87.1181L37.2292 87.0973L37.2574 87.0758L35.438 84.6905ZM69.9194 58.39L71.7388 60.7754L78.8217 55.373L69.9137 55.39L69.9194 58.39ZM50.596 58.4271L47.8388 57.2448L46.0418 61.4358L50.6017 61.4271L50.596 58.4271ZM50.6011 58.4153L53.3583 59.5975L55.1446 55.4316L50.6118 55.4153L50.6011 58.4153ZM45.8007 53.5644L48.7224 54.2452L48.7238 54.2393L45.8007 53.5644ZM52.5805 48.9104V45.9104L52.5773 45.9104L52.5805 48.9104ZM52.6313 48.9104V51.9104L52.6345 51.9104L52.6313 48.9104ZM90.7549 48.87L90.7581 51.87L99.2296 51.861L92.6404 46.5365L90.7549 48.87ZM78.2468 38.7627L76.132 36.6349L73.7591 38.9934L76.3613 41.0961L78.2468 38.7627ZM78.2553 38.7543L80.3701 40.8821L82.7333 38.5333L80.1503 36.4286L78.2553 38.7543ZM78.7464 33.1311L77.034 30.6678L77.0338 30.668L78.7464 33.1311ZM86.1865 33.1227L84.367 35.508L84.4628 35.581L84.5641 35.6462L86.1865 33.1227ZM86.2339 33.1588L84.3159 35.4656L84.316 35.4657L86.2339 33.1588ZM86.2644 33.1832L88.0842 30.7982L88.0706 30.7879L88.0569 30.7777L86.2644 33.1832ZM116.254 56.0647L118.054 58.4644L121.226 56.0848L118.073 53.6796L116.254 56.0647ZM116.247 56.0698L114.446 53.6701L111.291 56.0378L114.416 58.4461L116.247 56.0698ZM123.657 64.1882L121.111 65.7761L121.115 65.7815L123.657 64.1882ZM127.719 75.2344L130.689 74.8106L130.688 74.8096L127.719 75.2344ZM127.917 81.322L130.908 81.5557L130.908 81.5543L127.917 81.322ZM126.72 87.4516L129.58 88.3551L129.582 88.3509L126.72 87.4516ZM120.351 98.4321L122.572 100.449L122.573 100.448L120.351 98.4321ZM109.211 106.419L110.427 109.162L110.43 109.16L109.211 106.419ZM94.5817 109.492L94.5777 106.492L94.5767 106.492L94.5817 109.492ZM79.9435 106.47L78.7343 109.215L78.7352 109.216L79.9435 106.47ZM68.7951 98.5146L71.0135 96.495L71.0119 96.4932L68.7951 98.5146ZM109.762 88.9188L107.627 86.8105L107.627 86.8105L109.762 88.9188ZM94.5817 95.0821L94.5868 98.0821H94.5877L94.5817 95.0821ZM113.903 82.456L116.72 83.4883L116.721 83.4862L113.903 82.456ZM114.858 75.2562L117.847 74.997L117.847 74.9922L114.858 75.2562ZM112.772 68.4771L110.149 69.9322L110.151 69.9369L112.772 68.4771ZM108.165 63.0441L110.053 60.7125L110.048 60.7087L108.165 63.0441ZM94.5732 58.3715L94.5692 55.3715H94.5692L94.5732 58.3715ZM80.9865 63.0828L79.0986 60.7513L79.0958 60.7536L80.9865 63.0828ZM76.3741 68.5326L78.9982 69.9866L78.9986 69.9859L76.3741 68.5326ZM74.2965 75.3151L77.2849 75.5781L77.2857 75.5695L74.2965 75.3151ZM75.2481 82.52L72.4307 83.5508L72.4316 83.5531L75.2481 82.52ZM79.3932 88.9676L81.5257 86.8575L81.5228 86.8547L79.3932 88.9676ZM82.0439 75.5707L79.0486 75.4017L79.0485 75.4045L82.0439 75.5707ZM86.1568 67.5986L88.0864 69.8956L88.0882 69.8941L86.1568 67.5986ZM85.5032 84.1249L83.4147 86.2785L83.4158 86.2796L85.5032 84.1249ZM104.503 84.1249L106.59 86.2803L106.593 86.2777L104.503 84.1249ZM107.966 75.5673L110.961 75.4028L110.961 75.3965L107.966 75.5673ZM103.853 67.5986L101.922 69.8948L101.923 69.895L103.853 67.5986ZM58.4045 82.053C58.4326 83.6415 58.8962 86.3514 59.5655 88.4614L65.2846 86.6471C64.7551 84.978 64.4195 82.8487 64.4036 81.947L58.4045 82.053ZM61.6563 78.6937C58.6824 78.2989 58.6824 78.2991 58.6824 78.2992C58.6824 78.2993 58.6824 78.2994 58.6823 78.2995C58.6823 78.2998 58.6823 78.3 58.6822 78.3003C58.6822 78.3009 58.6821 78.3017 58.682 78.3025C58.6817 78.3042 58.6814 78.3064 58.6811 78.3091C58.6804 78.3145 58.6794 78.3218 58.6782 78.3311C58.6758 78.3495 58.6725 78.3755 58.6683 78.4082C58.66 78.4737 58.6485 78.5666 58.6349 78.6812C58.6077 78.9097 58.5716 79.228 58.5362 79.5892C58.4691 80.2746 58.3902 81.2479 58.4045 82.0533L64.4036 81.9468C64.3958 81.5121 64.4431 80.8322 64.5076 80.1745C64.538 79.8641 64.5692 79.5883 64.5928 79.3907C64.6045 79.2922 64.6142 79.214 64.6208 79.1617C64.6242 79.1355 64.6267 79.1159 64.6283 79.1034C64.6291 79.0972 64.6297 79.0928 64.63 79.0903C64.6302 79.0891 64.6303 79.0883 64.6303 79.088C64.6303 79.0878 64.6303 79.0878 64.6303 79.0879C64.6303 79.0879 64.6303 79.088 64.6303 79.0881C64.6303 79.0882 64.6303 79.0883 64.6303 79.0883C64.6303 79.0884 64.6302 79.0886 61.6563 78.6937ZM44.7304 96.326L63.5492 81.0212L59.7635 76.3663L40.9446 91.6711L44.7304 96.326ZM30.6909 95.836C34.175 100.274 40.6549 99.5976 44.7155 96.338L40.9595 91.659C38.4469 93.676 36.0847 92.9899 35.4101 92.1308L30.6909 95.836ZM33.4892 82.4006C29.4612 85.4656 27.2211 91.425 30.6926 95.8382L35.4084 92.1286C34.7822 91.3325 34.6451 89.0607 37.1225 87.1755L33.4892 82.4006ZM33.6549 82.2777C33.63 82.2957 33.5407 82.3596 33.4509 82.4303L37.1609 87.1458C37.1518 87.153 37.1452 87.158 37.1419 87.1605C37.1385 87.1631 37.1372 87.164 37.1386 87.163C37.14 87.1619 37.143 87.1597 37.1485 87.1557C37.1544 87.1515 37.1607 87.1469 37.1703 87.14L33.6549 82.2777ZM33.6754 82.2628C33.6698 82.2669 33.6642 82.2709 33.6545 82.278L37.1707 87.1397C37.178 87.1344 37.1893 87.1262 37.2005 87.1181L33.6754 82.2628ZM68.1 56.0047L33.6186 82.3051L37.2574 87.0758L71.7388 60.7754L68.1 56.0047ZM50.6017 61.4271L69.9251 61.39L69.9137 55.39L50.5903 55.4271L50.6017 61.4271ZM47.8438 57.233L47.8388 57.2448L53.3532 59.6093L53.3583 59.5975L47.8438 57.233ZM42.879 52.8836C42.3333 55.2253 43.0271 57.4821 44.604 59.0827C46.1312 60.6329 48.3044 61.407 50.5903 61.4152L50.6118 55.4153C49.6212 55.4117 49.0861 55.0829 48.8782 54.8718C48.7763 54.7685 48.7338 54.6798 48.7145 54.612C48.696 54.5474 48.6786 54.4332 48.7224 54.2452L42.879 52.8836ZM52.5773 45.9104C50.3705 45.9127 48.2407 46.6258 46.5402 47.7888C44.856 48.9405 43.3864 50.6855 42.8776 52.8895L48.7238 54.2393C48.8144 53.847 49.1591 53.2667 49.9272 52.7413C50.6789 52.2272 51.6393 51.9114 52.5837 51.9104L52.5773 45.9104ZM52.6313 45.9104H52.5805V51.9104H52.6313V45.9104ZM90.7517 45.87L52.6281 45.9104L52.6345 51.9104L90.7581 51.87L90.7517 45.87ZM76.3613 41.0961L88.8694 51.2034L92.6404 46.5365L80.1324 36.4293L76.3613 41.0961ZM76.1405 36.6265L76.132 36.6349L80.3617 40.8905L80.3701 40.8821L76.1405 36.6265ZM77.0338 30.668C75.3546 31.8355 74.1503 33.5864 73.9626 35.6458C73.7701 37.7581 74.6952 39.7233 76.3603 41.08L80.1503 36.4286C79.9917 36.2994 79.9482 36.2104 79.9409 36.1941C79.9362 36.1837 79.9366 36.1814 79.9373 36.1856C79.938 36.1898 79.9377 36.1922 79.9379 36.1904C79.938 36.1882 79.9394 36.1753 79.948 36.1508C79.9566 36.126 79.9737 36.0865 80.0069 36.0342C80.0731 35.9297 80.2071 35.7694 80.4589 35.5943L77.0338 30.668ZM88.006 30.7374C86.3948 29.5084 84.3951 28.9977 82.5363 29C80.6685 29.0023 78.6844 29.5206 77.034 30.6678L80.4587 35.5945C80.9723 35.2374 81.7245 35.001 82.5439 35C83.3722 34.999 84.0107 35.2362 84.367 35.508L88.006 30.7374ZM88.1518 30.852C88.1501 30.8505 88.1061 30.8136 88.0543 30.7733C87.9971 30.7287 87.9137 30.6666 87.8089 30.5992L84.5641 35.6462C84.4767 35.59 84.4095 35.5396 84.3678 35.5072C84.3316 35.479 84.3026 35.4545 84.3159 35.4656L88.1518 30.852ZM88.0569 30.7777C88.0922 30.804 88.1194 30.8256 88.1349 30.8382C88.1484 30.8491 88.1591 30.858 88.1517 30.8519L84.316 35.4657C84.3174 35.4669 84.3871 35.5257 84.4718 35.5888L88.0569 30.7777ZM118.073 53.6796L88.0842 30.7982L84.4446 35.5683L114.434 58.4497L118.073 53.6796ZM118.047 58.4694L118.054 58.4644L114.453 53.665L114.446 53.6701L118.047 58.4694ZM126.202 62.6003C124.064 59.1737 121.318 56.1901 118.078 53.6935L114.416 58.4461C117.119 60.5294 119.371 62.9872 121.111 65.7761L126.202 62.6003ZM130.688 74.8096C130.062 70.4318 128.536 66.3247 126.198 62.5948L121.115 65.7815C123.017 68.8156 124.244 72.1288 124.749 75.6591L130.688 74.8096ZM130.908 81.5543C131.082 79.3063 131.009 77.0554 130.689 74.8106L124.749 75.6581C125.008 77.4717 125.066 79.2826 124.926 81.0897L130.908 81.5543ZM129.582 88.3509C130.283 86.1206 130.729 83.8464 130.908 81.5557L124.926 81.0882C124.783 82.9131 124.427 84.7411 123.858 86.5523L129.582 88.3509ZM122.573 100.448C125.826 96.8636 128.183 92.78 129.58 88.3551L123.859 86.5481C122.73 90.1222 120.82 93.4521 118.13 96.416L122.573 100.448ZM110.43 109.16C115.138 107.067 119.237 104.121 122.572 100.449L118.131 96.415C115.374 99.4502 111.964 101.912 107.992 103.678L110.43 109.16ZM94.5856 112.492C100.12 112.484 105.476 111.357 110.427 109.162L107.995 103.677C103.823 105.527 99.2942 106.486 94.5777 106.492L94.5856 112.492ZM78.7352 109.216C83.6893 111.396 89.0462 112.501 94.5866 112.492L94.5767 106.492C89.8492 106.5 85.3209 105.559 81.1518 103.724L78.7352 109.216ZM66.5767 100.534C69.919 104.206 74.0236 107.141 78.7343 109.215L81.1527 103.724C77.1838 101.976 73.7737 99.527 71.0135 96.495L66.5767 100.534ZM59.5637 88.4556C60.9587 92.8846 63.3211 96.9638 66.5783 100.536L71.0119 96.4932C68.3223 93.5436 66.411 90.2229 65.2865 86.653L59.5637 88.4556ZM107.627 86.8105C104.343 90.1359 99.6942 92.0719 94.5756 92.0821L94.5877 98.0821C101.217 98.0688 107.426 95.5526 111.896 91.027L107.627 86.8105ZM111.087 81.4238C110.378 83.3565 109.229 85.1895 107.627 86.8105L111.896 91.0271C114.084 88.8118 115.708 86.25 116.72 83.4883L111.087 81.4238ZM111.87 75.5154C112.045 77.5374 111.777 79.5354 111.086 81.4259L116.721 83.4862C117.713 80.7731 118.099 77.895 117.847 74.997L111.87 75.5154ZM110.151 69.9369C111.106 71.6506 111.694 73.5322 111.87 75.5203L117.847 74.9922C117.596 72.1513 116.752 69.4563 115.393 67.0173L110.151 69.9369ZM106.277 65.3756C107.913 66.7005 109.214 68.2464 110.149 69.9322L115.396 67.022C114.069 64.6293 112.257 62.497 110.053 60.7125L106.277 65.3756ZM94.5772 61.3715C98.9492 61.3656 103.07 62.7895 106.282 65.3794L110.048 60.7087C105.715 57.2144 100.245 55.3639 94.5692 55.3715L94.5772 61.3715ZM82.8745 65.4142C86.0852 62.8143 90.211 61.3774 94.5772 61.3715L94.5692 55.3715C88.8979 55.3791 83.4263 57.2469 79.0986 60.7513L82.8745 65.4142ZM78.9986 69.9859C79.9343 68.2961 81.2371 66.7433 82.8773 65.412L79.0958 60.7536C76.8889 62.5451 75.0761 64.6839 73.7496 67.0793L78.9986 69.9859ZM77.2857 75.5695C77.4535 73.5974 78.0444 71.7079 78.9982 69.9866L73.75 67.0786C72.401 69.5133 71.5492 72.2173 71.3073 75.0608L77.2857 75.5695ZM78.0654 81.4892C77.3748 79.6015 77.1069 77.6017 77.2849 75.5781L71.308 75.0522C71.0526 77.9551 71.4383 80.8382 72.4307 83.5508L78.0654 81.4892ZM81.5228 86.8547C79.9229 85.2421 78.7701 83.4102 78.0646 81.4869L72.4316 83.5531C73.4431 86.3107 75.0739 88.8737 77.2635 91.0806L81.5228 86.8547ZM94.5765 92.0821C89.4492 92.0909 84.8056 90.1724 81.5257 86.8575L77.2607 91.0777C81.7358 95.6004 87.9494 98.0935 94.5868 98.0821L94.5765 92.0821ZM85.0391 75.7396C85.167 73.4727 86.2828 71.4108 88.0864 69.8956L84.2271 65.3015C81.2998 67.7606 79.2797 71.3051 79.0486 75.4017L85.0391 75.7396ZM87.5917 81.9713C85.8353 80.268 84.9106 78.0556 85.0393 75.7368L79.0485 75.4045C78.8148 79.6175 80.5281 83.4792 83.4147 86.2785L87.5917 81.9713ZM95.0057 84.8519C92.0031 84.8519 89.3846 83.7082 87.5906 81.9702L83.4158 86.2796C86.3494 89.1216 90.4734 90.8519 95.0057 90.8519V84.8519ZM102.417 81.9695C100.619 83.7094 98.0065 84.8519 95.0057 84.8519V90.8519C99.5399 90.8519 103.656 89.1204 106.59 86.2803L102.417 81.9695ZM104.97 75.7317C105.098 78.0537 104.17 80.2674 102.414 81.972L106.593 86.2777C109.476 83.4798 111.193 79.6194 110.961 75.4028L104.97 75.7317ZM101.923 69.895C103.725 71.4106 104.842 73.4735 104.971 75.738L110.961 75.3965C110.728 71.3043 108.708 67.7608 105.783 65.3022L101.923 69.895ZM95.0057 67.4539C97.7109 67.4539 100.148 68.4027 101.922 69.8948L105.784 65.3023C102.915 62.8909 99.1074 61.4539 95.0057 61.4539V67.4539ZM88.0882 69.8941C89.8604 68.4031 92.2966 67.4539 95.0057 67.4539V61.4539C90.9012 61.4539 87.0927 62.8905 84.2254 65.303L88.0882 69.8941Z" fill="url(#paint5_linear_201_530)" mask="url(#path-3-inside-2_201_530)"/>
</g>
<g style="mix-blend-mode:plus-lighter" opacity="0.2" filter="url(#filter1_f_201_530)">
<mask id="path-5-inside-3_201_530" fill="white">
<path fill-rule="evenodd" clip-rule="evenodd" d="M62.4251 87.5543C61.8256 85.6647 61.426 83.2451 61.404 82C61.382 80.7599 61.6563 78.6937 61.6563 78.6937L42.8375 93.9985C39.5509 96.6368 35.1298 96.6318 33.0505 93.9834C31.0017 91.3787 32.0531 87.2631 35.3059 84.7881C35.3388 84.7622 35.3762 84.7352 35.4126 84.7088C35.4211 84.7027 35.4296 84.6965 35.438 84.6905L69.9194 58.39L50.596 58.4271L50.6011 58.4153C47.3246 58.4035 45.1844 56.2094 45.8007 53.5644C46.4001 50.9682 49.4293 48.9137 52.5805 48.9104H52.6313L90.7549 48.87L78.2468 38.7627L78.2553 38.7543C76.3081 37.1676 76.5587 34.6522 78.7464 33.1311C80.9103 31.6269 84.219 31.6218 86.1865 33.1227C86.2039 33.1339 86.2188 33.1463 86.2339 33.1588C86.2437 33.167 86.2537 33.1752 86.2644 33.1832L116.254 56.0647L116.247 56.0698C119.219 58.3598 121.718 61.0805 123.657 64.1882C125.776 67.5702 127.153 71.2803 127.719 75.2344C128.008 77.2635 128.074 79.2944 127.917 81.322C127.756 83.3798 127.355 85.4308 126.72 87.4516C125.456 91.4511 123.323 95.1578 120.351 98.4321C117.305 101.786 113.551 104.489 109.211 106.419C104.65 108.442 99.7071 109.485 94.5817 109.492C89.4477 109.5 84.5051 108.477 79.9435 106.47C75.6037 104.558 71.8463 101.866 68.7951 98.5146C65.8217 95.2537 63.6848 91.5538 62.4251 87.5543ZM94.5817 95.0821C100.456 95.0704 105.884 92.8442 109.762 88.9188C111.656 87.0006 113.043 84.8032 113.903 82.456C114.745 80.1543 115.072 77.7162 114.858 75.2562C114.645 72.8417 113.929 70.5534 112.772 68.4771C111.641 66.4378 110.085 64.5988 108.165 63.0441C104.392 60.0019 99.5971 58.3648 94.5732 58.3715C89.5544 58.3782 84.7557 60.0306 80.9865 63.0828C79.063 64.6442 77.5052 66.49 76.3741 68.5326C75.2227 70.6106 74.5014 72.9073 74.2965 75.3151C74.0797 77.7784 74.4065 80.2199 75.2481 82.52C76.1066 84.8604 77.4984 87.0579 79.3932 88.9676C83.2707 92.8864 88.6993 95.0922 94.5817 95.0821ZM86.1568 67.5986C83.7913 69.5857 82.2234 72.3889 82.0439 75.5707C81.8627 78.8366 83.1817 81.8736 85.5032 84.1249C87.867 86.4149 91.2382 87.8519 95.0057 87.8519C98.7732 87.8519 102.138 86.4149 104.503 84.1249C106.823 81.8736 108.145 78.8365 107.966 75.5673C107.785 72.3889 106.217 69.5857 103.853 67.5986C101.532 65.6468 98.4092 64.4539 95.0057 64.4539C91.5989 64.4539 88.4765 65.6468 86.1568 67.5986Z"/>
</mask>
<path fill-rule="evenodd" clip-rule="evenodd" d="M62.4251 87.5543C61.8256 85.6647 61.426 83.2451 61.404 82C61.382 80.7599 61.6563 78.6937 61.6563 78.6937L42.8375 93.9985C39.5509 96.6368 35.1298 96.6318 33.0505 93.9834C31.0017 91.3787 32.0531 87.2631 35.3059 84.7881C35.3388 84.7622 35.3762 84.7352 35.4126 84.7088C35.4211 84.7027 35.4296 84.6965 35.438 84.6905L69.9194 58.39L50.596 58.4271L50.6011 58.4153C47.3246 58.4035 45.1844 56.2094 45.8007 53.5644C46.4001 50.9682 49.4293 48.9137 52.5805 48.9104H52.6313L90.7549 48.87L78.2468 38.7627L78.2553 38.7543C76.3081 37.1676 76.5587 34.6522 78.7464 33.1311C80.9103 31.6269 84.219 31.6218 86.1865 33.1227C86.2039 33.1339 86.2188 33.1463 86.2339 33.1588C86.2437 33.167 86.2537 33.1752 86.2644 33.1832L116.254 56.0647L116.247 56.0698C119.219 58.3598 121.718 61.0805 123.657 64.1882C125.776 67.5702 127.153 71.2803 127.719 75.2344C128.008 77.2635 128.074 79.2944 127.917 81.322C127.756 83.3798 127.355 85.4308 126.72 87.4516C125.456 91.4511 123.323 95.1578 120.351 98.4321C117.305 101.786 113.551 104.489 109.211 106.419C104.65 108.442 99.7071 109.485 94.5817 109.492C89.4477 109.5 84.5051 108.477 79.9435 106.47C75.6037 104.558 71.8463 101.866 68.7951 98.5146C65.8217 95.2537 63.6848 91.5538 62.4251 87.5543ZM94.5817 95.0821C100.456 95.0704 105.884 92.8442 109.762 88.9188C111.656 87.0006 113.043 84.8032 113.903 82.456C114.745 80.1543 115.072 77.7162 114.858 75.2562C114.645 72.8417 113.929 70.5534 112.772 68.4771C111.641 66.4378 110.085 64.5988 108.165 63.0441C104.392 60.0019 99.5971 58.3648 94.5732 58.3715C89.5544 58.3782 84.7557 60.0306 80.9865 63.0828C79.063 64.6442 77.5052 66.49 76.3741 68.5326C75.2227 70.6106 74.5014 72.9073 74.2965 75.3151C74.0797 77.7784 74.4065 80.2199 75.2481 82.52C76.1066 84.8604 77.4984 87.0579 79.3932 88.9676C83.2707 92.8864 88.6993 95.0922 94.5817 95.0821ZM86.1568 67.5986C83.7913 69.5857 82.2234 72.3889 82.0439 75.5707C81.8627 78.8366 83.1817 81.8736 85.5032 84.1249C87.867 86.4149 91.2382 87.8519 95.0057 87.8519C98.7732 87.8519 102.138 86.4149 104.503 84.1249C106.823 81.8736 108.145 78.8365 107.966 75.5673C107.785 72.3889 106.217 69.5857 103.853 67.5986C101.532 65.6468 98.4092 64.4539 95.0057 64.4539C91.5989 64.4539 88.4765 65.6468 86.1568 67.5986Z" fill="url(#paint6_linear_201_530)"/>
<path d="M61.404 82L64.4036 81.947L64.4036 81.9468L61.404 82ZM62.4251 87.5543L65.2865 86.653L65.2846 86.6471L62.4251 87.5543ZM61.6563 78.6937L64.6302 79.0886L65.6245 71.5997L59.7635 76.3663L61.6563 78.6937ZM42.8375 93.9985L44.7155 96.338L44.7229 96.332L44.7304 96.326L42.8375 93.9985ZM33.0505 93.9834L35.4101 92.1308L35.4084 92.1286L33.0505 93.9834ZM35.3059 84.7881L37.1225 87.1755L37.1418 87.1608L37.1609 87.1458L35.3059 84.7881ZM35.4126 84.7088L37.1703 87.14L37.1707 87.1397L35.4126 84.7088ZM35.438 84.6905L37.2005 87.1181L37.2292 87.0973L37.2574 87.0758L35.438 84.6905ZM69.9194 58.39L71.7388 60.7754L78.8217 55.373L69.9137 55.39L69.9194 58.39ZM50.596 58.4271L47.8388 57.2448L46.0418 61.4358L50.6017 61.4271L50.596 58.4271ZM50.6011 58.4153L53.3583 59.5975L55.1446 55.4316L50.6118 55.4153L50.6011 58.4153ZM45.8007 53.5644L48.7224 54.2452L48.7238 54.2393L45.8007 53.5644ZM52.5805 48.9104V45.9104L52.5773 45.9104L52.5805 48.9104ZM52.6313 48.9104V51.9104L52.6345 51.9104L52.6313 48.9104ZM90.7549 48.87L90.7581 51.87L99.2296 51.861L92.6404 46.5365L90.7549 48.87ZM78.2468 38.7627L76.132 36.6349L73.7591 38.9934L76.3613 41.0961L78.2468 38.7627ZM78.2553 38.7543L80.3701 40.8821L82.7333 38.5333L80.1503 36.4286L78.2553 38.7543ZM78.7464 33.1311L77.034 30.6678L77.0338 30.668L78.7464 33.1311ZM86.1865 33.1227L84.367 35.508L84.4628 35.581L84.5641 35.6462L86.1865 33.1227ZM86.2339 33.1588L84.3159 35.4656L84.316 35.4657L86.2339 33.1588ZM86.2644 33.1832L88.0842 30.7982L88.0706 30.7879L88.0569 30.7777L86.2644 33.1832ZM116.254 56.0647L118.054 58.4644L121.226 56.0848L118.073 53.6796L116.254 56.0647ZM116.247 56.0698L114.446 53.6701L111.291 56.0378L114.416 58.4461L116.247 56.0698ZM123.657 64.1882L121.111 65.7761L121.115 65.7815L123.657 64.1882ZM127.719 75.2344L130.689 74.8106L130.688 74.8096L127.719 75.2344ZM127.917 81.322L130.908 81.5557L130.908 81.5543L127.917 81.322ZM126.72 87.4516L129.58 88.3551L129.582 88.3509L126.72 87.4516ZM120.351 98.4321L122.572 100.449L122.573 100.448L120.351 98.4321ZM109.211 106.419L110.427 109.162L110.43 109.16L109.211 106.419ZM94.5817 109.492L94.5777 106.492L94.5767 106.492L94.5817 109.492ZM79.9435 106.47L78.7343 109.215L78.7352 109.216L79.9435 106.47ZM68.7951 98.5146L71.0135 96.495L71.0119 96.4932L68.7951 98.5146ZM109.762 88.9188L107.627 86.8105L107.627 86.8105L109.762 88.9188ZM94.5817 95.0821L94.5868 98.0821H94.5877L94.5817 95.0821ZM113.903 82.456L116.72 83.4883L116.721 83.4862L113.903 82.456ZM114.858 75.2562L117.847 74.997L117.847 74.9922L114.858 75.2562ZM112.772 68.4771L110.149 69.9322L110.151 69.9369L112.772 68.4771ZM108.165 63.0441L110.053 60.7125L110.048 60.7087L108.165 63.0441ZM94.5732 58.3715L94.5692 55.3715H94.5692L94.5732 58.3715ZM80.9865 63.0828L79.0986 60.7513L79.0958 60.7536L80.9865 63.0828ZM76.3741 68.5326L78.9982 69.9866L78.9986 69.9859L76.3741 68.5326ZM74.2965 75.3151L77.2849 75.5781L77.2857 75.5695L74.2965 75.3151ZM75.2481 82.52L72.4307 83.5508L72.4316 83.5531L75.2481 82.52ZM79.3932 88.9676L81.5257 86.8575L81.5228 86.8547L79.3932 88.9676ZM82.0439 75.5707L79.0486 75.4017L79.0485 75.4045L82.0439 75.5707ZM86.1568 67.5986L88.0864 69.8956L88.0882 69.8941L86.1568 67.5986ZM85.5032 84.1249L83.4147 86.2785L83.4158 86.2796L85.5032 84.1249ZM104.503 84.1249L106.59 86.2803L106.593 86.2777L104.503 84.1249ZM107.966 75.5673L110.961 75.4028L110.961 75.3965L107.966 75.5673ZM103.853 67.5986L101.922 69.8948L101.923 69.895L103.853 67.5986ZM58.4045 82.053C58.4326 83.6415 58.8962 86.3514 59.5655 88.4614L65.2846 86.6471C64.7551 84.978 64.4195 82.8487 64.4036 81.947L58.4045 82.053ZM61.6563 78.6937C58.6824 78.2989 58.6824 78.2991 58.6824 78.2992C58.6824 78.2993 58.6824 78.2994 58.6823 78.2995C58.6823 78.2998 58.6823 78.3 58.6822 78.3003C58.6822 78.3009 58.6821 78.3017 58.682 78.3025C58.6817 78.3042 58.6814 78.3064 58.6811 78.3091C58.6804 78.3145 58.6794 78.3218 58.6782 78.3311C58.6758 78.3495 58.6725 78.3755 58.6683 78.4082C58.66 78.4737 58.6485 78.5666 58.6349 78.6812C58.6077 78.9097 58.5716 79.228 58.5362 79.5892C58.4691 80.2746 58.3902 81.2479 58.4045 82.0533L64.4036 81.9468C64.3958 81.5121 64.4431 80.8322 64.5076 80.1745C64.538 79.8641 64.5692 79.5883 64.5928 79.3907C64.6045 79.2922 64.6142 79.214 64.6208 79.1617C64.6242 79.1355 64.6267 79.1159 64.6283 79.1034C64.6291 79.0972 64.6297 79.0928 64.63 79.0903C64.6302 79.0891 64.6303 79.0883 64.6303 79.088C64.6303 79.0878 64.6303 79.0878 64.6303 79.0879C64.6303 79.0879 64.6303 79.088 64.6303 79.0881C64.6303 79.0882 64.6303 79.0883 64.6303 79.0883C64.6303 79.0884 64.6302 79.0886 61.6563 78.6937ZM44.7304 96.326L63.5492 81.0212L59.7635 76.3663L40.9446 91.6711L44.7304 96.326ZM30.6909 95.836C34.175 100.274 40.6549 99.5976 44.7155 96.338L40.9595 91.659C38.4469 93.676 36.0847 92.9899 35.4101 92.1308L30.6909 95.836ZM33.4892 82.4006C29.4612 85.4656 27.2211 91.425 30.6926 95.8382L35.4084 92.1286C34.7822 91.3325 34.6451 89.0607 37.1225 87.1755L33.4892 82.4006ZM33.6549 82.2777C33.63 82.2957 33.5407 82.3596 33.4509 82.4303L37.1609 87.1458C37.1518 87.153 37.1452 87.158 37.1419 87.1605C37.1385 87.1631 37.1372 87.164 37.1386 87.163C37.14 87.1619 37.143 87.1597 37.1485 87.1557C37.1544 87.1515 37.1607 87.1469 37.1703 87.14L33.6549 82.2777ZM33.6754 82.2628C33.6698 82.2669 33.6642 82.2709 33.6545 82.278L37.1707 87.1397C37.178 87.1344 37.1893 87.1262 37.2005 87.1181L33.6754 82.2628ZM68.1 56.0047L33.6186 82.3051L37.2574 87.0758L71.7388 60.7754L68.1 56.0047ZM50.6017 61.4271L69.9251 61.39L69.9137 55.39L50.5903 55.4271L50.6017 61.4271ZM47.8438 57.233L47.8388 57.2448L53.3532 59.6093L53.3583 59.5975L47.8438 57.233ZM42.879 52.8836C42.3333 55.2253 43.0271 57.4821 44.604 59.0827C46.1312 60.6329 48.3044 61.407 50.5903 61.4152L50.6118 55.4153C49.6212 55.4117 49.0861 55.0829 48.8782 54.8718C48.7763 54.7685 48.7338 54.6798 48.7145 54.612C48.696 54.5474 48.6786 54.4332 48.7224 54.2452L42.879 52.8836ZM52.5773 45.9104C50.3705 45.9127 48.2407 46.6258 46.5402 47.7888C44.856 48.9405 43.3864 50.6855 42.8776 52.8895L48.7238 54.2393C48.8144 53.847 49.1591 53.2667 49.9272 52.7413C50.6789 52.2272 51.6393 51.9114 52.5837 51.9104L52.5773 45.9104ZM52.6313 45.9104H52.5805V51.9104H52.6313V45.9104ZM90.7517 45.87L52.6281 45.9104L52.6345 51.9104L90.7581 51.87L90.7517 45.87ZM76.3613 41.0961L88.8694 51.2034L92.6404 46.5365L80.1324 36.4293L76.3613 41.0961ZM76.1405 36.6265L76.132 36.6349L80.3617 40.8905L80.3701 40.8821L76.1405 36.6265ZM77.0338 30.668C75.3546 31.8355 74.1503 33.5864 73.9626 35.6458C73.7701 37.7581 74.6952 39.7233 76.3603 41.08L80.1503 36.4286C79.9917 36.2994 79.9482 36.2104 79.9409 36.1941C79.9362 36.1837 79.9366 36.1814 79.9373 36.1856C79.938 36.1898 79.9377 36.1922 79.9379 36.1904C79.938 36.1882 79.9394 36.1753 79.948 36.1508C79.9566 36.126 79.9737 36.0865 80.0069 36.0342C80.0731 35.9297 80.2071 35.7694 80.4589 35.5943L77.0338 30.668ZM88.006 30.7374C86.3948 29.5084 84.3951 28.9977 82.5363 29C80.6685 29.0023 78.6844 29.5206 77.034 30.6678L80.4587 35.5945C80.9723 35.2374 81.7245 35.001 82.5439 35C83.3722 34.999 84.0107 35.2362 84.367 35.508L88.006 30.7374ZM88.1518 30.852C88.1501 30.8505 88.1061 30.8136 88.0543 30.7733C87.9971 30.7287 87.9137 30.6666 87.8089 30.5992L84.5641 35.6462C84.4767 35.59 84.4095 35.5396 84.3678 35.5072C84.3316 35.479 84.3026 35.4545 84.3159 35.4656L88.1518 30.852ZM88.0569 30.7777C88.0922 30.804 88.1194 30.8256 88.1349 30.8382C88.1484 30.8491 88.1591 30.858 88.1517 30.8519L84.316 35.4657C84.3174 35.4669 84.3871 35.5257 84.4718 35.5888L88.0569 30.7777ZM118.073 53.6796L88.0842 30.7982L84.4446 35.5683L114.434 58.4497L118.073 53.6796ZM118.047 58.4694L118.054 58.4644L114.453 53.665L114.446 53.6701L118.047 58.4694ZM126.202 62.6003C124.064 59.1737 121.318 56.1901 118.078 53.6935L114.416 58.4461C117.119 60.5294 119.371 62.9872 121.111 65.7761L126.202 62.6003ZM130.688 74.8096C130.062 70.4318 128.536 66.3247 126.198 62.5948L121.115 65.7815C123.017 68.8156 124.244 72.1288 124.749 75.6591L130.688 74.8096ZM130.908 81.5543C131.082 79.3063 131.009 77.0554 130.689 74.8106L124.749 75.6581C125.008 77.4717 125.066 79.2826 124.926 81.0897L130.908 81.5543ZM129.582 88.3509C130.283 86.1206 130.729 83.8464 130.908 81.5557L124.926 81.0882C124.783 82.9131 124.427 84.7411 123.858 86.5523L129.582 88.3509ZM122.573 100.448C125.826 96.8636 128.183 92.78 129.58 88.3551L123.859 86.5481C122.73 90.1222 120.82 93.4521 118.13 96.416L122.573 100.448ZM110.43 109.16C115.138 107.067 119.237 104.121 122.572 100.449L118.131 96.415C115.374 99.4502 111.964 101.912 107.992 103.678L110.43 109.16ZM94.5856 112.492C100.12 112.484 105.476 111.357 110.427 109.162L107.995 103.677C103.823 105.527 99.2942 106.486 94.5777 106.492L94.5856 112.492ZM78.7352 109.216C83.6893 111.396 89.0462 112.501 94.5866 112.492L94.5767 106.492C89.8492 106.5 85.3209 105.559 81.1518 103.724L78.7352 109.216ZM66.5767 100.534C69.919 104.206 74.0236 107.141 78.7343 109.215L81.1527 103.724C77.1838 101.976 73.7737 99.527 71.0135 96.495L66.5767 100.534ZM59.5637 88.4556C60.9587 92.8846 63.3211 96.9638 66.5783 100.536L71.0119 96.4932C68.3223 93.5436 66.411 90.2229 65.2865 86.653L59.5637 88.4556ZM107.627 86.8105C104.343 90.1359 99.6942 92.0719 94.5756 92.0821L94.5877 98.0821C101.217 98.0688 107.426 95.5526 111.896 91.027L107.627 86.8105ZM111.087 81.4238C110.378 83.3565 109.229 85.1895 107.627 86.8105L111.896 91.0271C114.084 88.8118 115.708 86.25 116.72 83.4883L111.087 81.4238ZM111.87 75.5154C112.045 77.5374 111.777 79.5354 111.086 81.4259L116.721 83.4862C117.713 80.7731 118.099 77.895 117.847 74.997L111.87 75.5154ZM110.151 69.9369C111.106 71.6506 111.694 73.5322 111.87 75.5203L117.847 74.9922C117.596 72.1513 116.752 69.4563 115.393 67.0173L110.151 69.9369ZM106.277 65.3756C107.913 66.7005 109.214 68.2464 110.149 69.9322L115.396 67.022C114.069 64.6293 112.257 62.497 110.053 60.7125L106.277 65.3756ZM94.5772 61.3715C98.9492 61.3656 103.07 62.7895 106.282 65.3794L110.048 60.7087C105.715 57.2144 100.245 55.3639 94.5692 55.3715L94.5772 61.3715ZM82.8745 65.4142C86.0852 62.8143 90.211 61.3774 94.5772 61.3715L94.5692 55.3715C88.8979 55.3791 83.4263 57.2469 79.0986 60.7513L82.8745 65.4142ZM78.9986 69.9859C79.9343 68.2961 81.2371 66.7433 82.8773 65.412L79.0958 60.7536C76.8889 62.5451 75.0761 64.6839 73.7496 67.0793L78.9986 69.9859ZM77.2857 75.5695C77.4535 73.5974 78.0444 71.7079 78.9982 69.9866L73.75 67.0786C72.401 69.5133 71.5492 72.2173 71.3073 75.0608L77.2857 75.5695ZM78.0654 81.4892C77.3748 79.6015 77.1069 77.6017 77.2849 75.5781L71.308 75.0522C71.0526 77.9551 71.4383 80.8382 72.4307 83.5508L78.0654 81.4892ZM81.5228 86.8547C79.9229 85.2421 78.7701 83.4102 78.0646 81.4869L72.4316 83.5531C73.4431 86.3107 75.0739 88.8737 77.2635 91.0806L81.5228 86.8547ZM94.5765 92.0821C89.4492 92.0909 84.8056 90.1724 81.5257 86.8575L77.2607 91.0777C81.7358 95.6004 87.9494 98.0935 94.5868 98.0821L94.5765 92.0821ZM85.0391 75.7396C85.167 73.4727 86.2828 71.4108 88.0864 69.8956L84.2271 65.3015C81.2998 67.7606 79.2797 71.3051 79.0486 75.4017L85.0391 75.7396ZM87.5917 81.9713C85.8353 80.268 84.9106 78.0556 85.0393 75.7368L79.0485 75.4045C78.8148 79.6175 80.5281 83.4792 83.4147 86.2785L87.5917 81.9713ZM95.0057 84.8519C92.0031 84.8519 89.3846 83.7082 87.5906 81.9702L83.4158 86.2796C86.3494 89.1216 90.4734 90.8519 95.0057 90.8519V84.8519ZM102.417 81.9695C100.619 83.7094 98.0065 84.8519 95.0057 84.8519V90.8519C99.5399 90.8519 103.656 89.1204 106.59 86.2803L102.417 81.9695ZM104.97 75.7317C105.098 78.0537 104.17 80.2674 102.414 81.972L106.593 86.2777C109.476 83.4798 111.193 79.6194 110.961 75.4028L104.97 75.7317ZM101.923 69.895C103.725 71.4106 104.842 73.4735 104.971 75.738L110.961 75.3965C110.728 71.3043 108.708 67.7608 105.783 65.3022L101.923 69.895ZM95.0057 67.4539C97.7109 67.4539 100.148 68.4027 101.922 69.8948L105.784 65.3023C102.915 62.8909 99.1074 61.4539 95.0057 61.4539V67.4539ZM88.0882 69.8941C89.8604 68.4031 92.2966 67.4539 95.0057 67.4539V61.4539C90.9012 61.4539 87.0927 62.8905 84.2254 65.303L88.0882 69.8941Z" fill="url(#paint7_linear_201_530)" mask="url(#path-5-inside-3_201_530)"/>
<path d="M61.404 82L64.4036 81.947L64.4036 81.9468L61.404 82ZM62.4251 87.5543L65.2865 86.653L65.2846 86.6471L62.4251 87.5543ZM61.6563 78.6937L64.6302 79.0886L65.6245 71.5997L59.7635 76.3663L61.6563 78.6937ZM42.8375 93.9985L44.7155 96.338L44.7229 96.332L44.7304 96.326L42.8375 93.9985ZM33.0505 93.9834L35.4101 92.1308L35.4084 92.1286L33.0505 93.9834ZM35.3059 84.7881L37.1225 87.1755L37.1418 87.1608L37.1609 87.1458L35.3059 84.7881ZM35.4126 84.7088L37.1703 87.14L37.1707 87.1397L35.4126 84.7088ZM35.438 84.6905L37.2005 87.1181L37.2292 87.0973L37.2574 87.0758L35.438 84.6905ZM69.9194 58.39L71.7388 60.7754L78.8217 55.373L69.9137 55.39L69.9194 58.39ZM50.596 58.4271L47.8388 57.2448L46.0418 61.4358L50.6017 61.4271L50.596 58.4271ZM50.6011 58.4153L53.3583 59.5975L55.1446 55.4316L50.6118 55.4153L50.6011 58.4153ZM45.8007 53.5644L48.7224 54.2452L48.7238 54.2393L45.8007 53.5644ZM52.5805 48.9104V45.9104L52.5773 45.9104L52.5805 48.9104ZM52.6313 48.9104V51.9104L52.6345 51.9104L52.6313 48.9104ZM90.7549 48.87L90.7581 51.87L99.2296 51.861L92.6404 46.5365L90.7549 48.87ZM78.2468 38.7627L76.132 36.6349L73.7591 38.9934L76.3613 41.0961L78.2468 38.7627ZM78.2553 38.7543L80.3701 40.8821L82.7333 38.5333L80.1503 36.4286L78.2553 38.7543ZM78.7464 33.1311L77.034 30.6678L77.0338 30.668L78.7464 33.1311ZM86.1865 33.1227L84.367 35.508L84.4628 35.581L84.5641 35.6462L86.1865 33.1227ZM86.2339 33.1588L84.3159 35.4656L84.316 35.4657L86.2339 33.1588ZM86.2644 33.1832L88.0842 30.7982L88.0706 30.7879L88.0569 30.7777L86.2644 33.1832ZM116.254 56.0647L118.054 58.4644L121.226 56.0848L118.073 53.6796L116.254 56.0647ZM116.247 56.0698L114.446 53.6701L111.291 56.0378L114.416 58.4461L116.247 56.0698ZM123.657 64.1882L121.111 65.7761L121.115 65.7815L123.657 64.1882ZM127.719 75.2344L130.689 74.8106L130.688 74.8096L127.719 75.2344ZM127.917 81.322L130.908 81.5557L130.908 81.5543L127.917 81.322ZM126.72 87.4516L129.58 88.3551L129.582 88.3509L126.72 87.4516ZM120.351 98.4321L122.572 100.449L122.573 100.448L120.351 98.4321ZM109.211 106.419L110.427 109.162L110.43 109.16L109.211 106.419ZM94.5817 109.492L94.5777 106.492L94.5767 106.492L94.5817 109.492ZM79.9435 106.47L78.7343 109.215L78.7352 109.216L79.9435 106.47ZM68.7951 98.5146L71.0135 96.495L71.0119 96.4932L68.7951 98.5146ZM109.762 88.9188L107.627 86.8105L107.627 86.8105L109.762 88.9188ZM94.5817 95.0821L94.5868 98.0821H94.5877L94.5817 95.0821ZM113.903 82.456L116.72 83.4883L116.721 83.4862L113.903 82.456ZM114.858 75.2562L117.847 74.997L117.847 74.9922L114.858 75.2562ZM112.772 68.4771L110.149 69.9322L110.151 69.9369L112.772 68.4771ZM108.165 63.0441L110.053 60.7125L110.048 60.7087L108.165 63.0441ZM94.5732 58.3715L94.5692 55.3715H94.5692L94.5732 58.3715ZM80.9865 63.0828L79.0986 60.7513L79.0958 60.7536L80.9865 63.0828ZM76.3741 68.5326L78.9982 69.9866L78.9986 69.9859L76.3741 68.5326ZM74.2965 75.3151L77.2849 75.5781L77.2857 75.5695L74.2965 75.3151ZM75.2481 82.52L72.4307 83.5508L72.4316 83.5531L75.2481 82.52ZM79.3932 88.9676L81.5257 86.8575L81.5228 86.8547L79.3932 88.9676ZM82.0439 75.5707L79.0486 75.4017L79.0485 75.4045L82.0439 75.5707ZM86.1568 67.5986L88.0864 69.8956L88.0882 69.8941L86.1568 67.5986ZM85.5032 84.1249L83.4147 86.2785L83.4158 86.2796L85.5032 84.1249ZM104.503 84.1249L106.59 86.2803L106.593 86.2777L104.503 84.1249ZM107.966 75.5673L110.961 75.4028L110.961 75.3965L107.966 75.5673ZM103.853 67.5986L101.922 69.8948L101.923 69.895L103.853 67.5986ZM58.4045 82.053C58.4326 83.6415 58.8962 86.3514 59.5655 88.4614L65.2846 86.6471C64.7551 84.978 64.4195 82.8487 64.4036 81.947L58.4045 82.053ZM61.6563 78.6937C58.6824 78.2989 58.6824 78.2991 58.6824 78.2992C58.6824 78.2993 58.6824 78.2994 58.6823 78.2995C58.6823 78.2998 58.6823 78.3 58.6822 78.3003C58.6822 78.3009 58.6821 78.3017 58.682 78.3025C58.6817 78.3042 58.6814 78.3064 58.6811 78.3091C58.6804 78.3145 58.6794 78.3218 58.6782 78.3311C58.6758 78.3495 58.6725 78.3755 58.6683 78.4082C58.66 78.4737 58.6485 78.5666 58.6349 78.6812C58.6077 78.9097 58.5716 79.228 58.5362 79.5892C58.4691 80.2746 58.3902 81.2479 58.4045 82.0533L64.4036 81.9468C64.3958 81.5121 64.4431 80.8322 64.5076 80.1745C64.538 79.8641 64.5692 79.5883 64.5928 79.3907C64.6045 79.2922 64.6142 79.214 64.6208 79.1617C64.6242 79.1355 64.6267 79.1159 64.6283 79.1034C64.6291 79.0972 64.6297 79.0928 64.63 79.0903C64.6302 79.0891 64.6303 79.0883 64.6303 79.088C64.6303 79.0878 64.6303 79.0878 64.6303 79.0879C64.6303 79.0879 64.6303 79.088 64.6303 79.0881C64.6303 79.0882 64.6303 79.0883 64.6303 79.0883C64.6303 79.0884 64.6302 79.0886 61.6563 78.6937ZM44.7304 96.326L63.5492 81.0212L59.7635 76.3663L40.9446 91.6711L44.7304 96.326ZM30.6909 95.836C34.175 100.274 40.6549 99.5976 44.7155 96.338L40.9595 91.659C38.4469 93.676 36.0847 92.9899 35.4101 92.1308L30.6909 95.836ZM33.4892 82.4006C29.4612 85.4656 27.2211 91.425 30.6926 95.8382L35.4084 92.1286C34.7822 91.3325 34.6451 89.0607 37.1225 87.1755L33.4892 82.4006ZM33.6549 82.2777C33.63 82.2957 33.5407 82.3596 33.4509 82.4303L37.1609 87.1458C37.1518 87.153 37.1452 87.158 37.1419 87.1605C37.1385 87.1631 37.1372 87.164 37.1386 87.163C37.14 87.1619 37.143 87.1597 37.1485 87.1557C37.1544 87.1515 37.1607 87.1469 37.1703 87.14L33.6549 82.2777ZM33.6754 82.2628C33.6698 82.2669 33.6642 82.2709 33.6545 82.278L37.1707 87.1397C37.178 87.1344 37.1893 87.1262 37.2005 87.1181L33.6754 82.2628ZM68.1 56.0047L33.6186 82.3051L37.2574 87.0758L71.7388 60.7754L68.1 56.0047ZM50.6017 61.4271L69.9251 61.39L69.9137 55.39L50.5903 55.4271L50.6017 61.4271ZM47.8438 57.233L47.8388 57.2448L53.3532 59.6093L53.3583 59.5975L47.8438 57.233ZM42.879 52.8836C42.3333 55.2253 43.0271 57.4821 44.604 59.0827C46.1312 60.6329 48.3044 61.407 50.5903 61.4152L50.6118 55.4153C49.6212 55.4117 49.0861 55.0829 48.8782 54.8718C48.7763 54.7685 48.7338 54.6798 48.7145 54.612C48.696 54.5474 48.6786 54.4332 48.7224 54.2452L42.879 52.8836ZM52.5773 45.9104C50.3705 45.9127 48.2407 46.6258 46.5402 47.7888C44.856 48.9405 43.3864 50.6855 42.8776 52.8895L48.7238 54.2393C48.8144 53.847 49.1591 53.2667 49.9272 52.7413C50.6789 52.2272 51.6393 51.9114 52.5837 51.9104L52.5773 45.9104ZM52.6313 45.9104H52.5805V51.9104H52.6313V45.9104ZM90.7517 45.87L52.6281 45.9104L52.6345 51.9104L90.7581 51.87L90.7517 45.87ZM76.3613 41.0961L88.8694 51.2034L92.6404 46.5365L80.1324 36.4293L76.3613 41.0961ZM76.1405 36.6265L76.132 36.6349L80.3617 40.8905L80.3701 40.8821L76.1405 36.6265ZM77.0338 30.668C75.3546 31.8355 74.1503 33.5864 73.9626 35.6458C73.7701 37.7581 74.6952 39.7233 76.3603 41.08L80.1503 36.4286C79.9917 36.2994 79.9482 36.2104 79.9409 36.1941C79.9362 36.1837 79.9366 36.1814 79.9373 36.1856C79.938 36.1898 79.9377 36.1922 79.9379 36.1904C79.938 36.1882 79.9394 36.1753 79.948 36.1508C79.9566 36.126 79.9737 36.0865 80.0069 36.0342C80.0731 35.9297 80.2071 35.7694 80.4589 35.5943L77.0338 30.668ZM88.006 30.7374C86.3948 29.5084 84.3951 28.9977 82.5363 29C80.6685 29.0023 78.6844 29.5206 77.034 30.6678L80.4587 35.5945C80.9723 35.2374 81.7245 35.001 82.5439 35C83.3722 34.999 84.0107 35.2362 84.367 35.508L88.006 30.7374ZM88.1518 30.852C88.1501 30.8505 88.1061 30.8136 88.0543 30.7733C87.9971 30.7287 87.9137 30.6666 87.8089 30.5992L84.5641 35.6462C84.4767 35.59 84.4095 35.5396 84.3678 35.5072C84.3316 35.479 84.3026 35.4545 84.3159 35.4656L88.1518 30.852ZM88.0569 30.7777C88.0922 30.804 88.1194 30.8256 88.1349 30.8382C88.1484 30.8491 88.1591 30.858 88.1517 30.8519L84.316 35.4657C84.3174 35.4669 84.3871 35.5257 84.4718 35.5888L88.0569 30.7777ZM118.073 53.6796L88.0842 30.7982L84.4446 35.5683L114.434 58.4497L118.073 53.6796ZM118.047 58.4694L118.054 58.4644L114.453 53.665L114.446 53.6701L118.047 58.4694ZM126.202 62.6003C124.064 59.1737 121.318 56.1901 118.078 53.6935L114.416 58.4461C117.119 60.5294 119.371 62.9872 121.111 65.7761L126.202 62.6003ZM130.688 74.8096C130.062 70.4318 128.536 66.3247 126.198 62.5948L121.115 65.7815C123.017 68.8156 124.244 72.1288 124.749 75.6591L130.688 74.8096ZM130.908 81.5543C131.082 79.3063 131.009 77.0554 130.689 74.8106L124.749 75.6581C125.008 77.4717 125.066 79.2826 124.926 81.0897L130.908 81.5543ZM129.582 88.3509C130.283 86.1206 130.729 83.8464 130.908 81.5557L124.926 81.0882C124.783 82.9131 124.427 84.7411 123.858 86.5523L129.582 88.3509ZM122.573 100.448C125.826 96.8636 128.183 92.78 129.58 88.3551L123.859 86.5481C122.73 90.1222 120.82 93.4521 118.13 96.416L122.573 100.448ZM110.43 109.16C115.138 107.067 119.237 104.121 122.572 100.449L118.131 96.415C115.374 99.4502 111.964 101.912 107.992 103.678L110.43 109.16ZM94.5856 112.492C100.12 112.484 105.476 111.357 110.427 109.162L107.995 103.677C103.823 105.527 99.2942 106.486 94.5777 106.492L94.5856 112.492ZM78.7352 109.216C83.6893 111.396 89.0462 112.501 94.5866 112.492L94.5767 106.492C89.8492 106.5 85.3209 105.559 81.1518 103.724L78.7352 109.216ZM66.5767 100.534C69.919 104.206 74.0236 107.141 78.7343 109.215L81.1527 103.724C77.1838 101.976 73.7737 99.527 71.0135 96.495L66.5767 100.534ZM59.5637 88.4556C60.9587 92.8846 63.3211 96.9638 66.5783 100.536L71.0119 96.4932C68.3223 93.5436 66.411 90.2229 65.2865 86.653L59.5637 88.4556ZM107.627 86.8105C104.343 90.1359 99.6942 92.0719 94.5756 92.0821L94.5877 98.0821C101.217 98.0688 107.426 95.5526 111.896 91.027L107.627 86.8105ZM111.087 81.4238C110.378 83.3565 109.229 85.1895 107.627 86.8105L111.896 91.0271C114.084 88.8118 115.708 86.25 116.72 83.4883L111.087 81.4238ZM111.87 75.5154C112.045 77.5374 111.777 79.5354 111.086 81.4259L116.721 83.4862C117.713 80.7731 118.099 77.895 117.847 74.997L111.87 75.5154ZM110.151 69.9369C111.106 71.6506 111.694 73.5322 111.87 75.5203L117.847 74.9922C117.596 72.1513 116.752 69.4563 115.393 67.0173L110.151 69.9369ZM106.277 65.3756C107.913 66.7005 109.214 68.2464 110.149 69.9322L115.396 67.022C114.069 64.6293 112.257 62.497 110.053 60.7125L106.277 65.3756ZM94.5772 61.3715C98.9492 61.3656 103.07 62.7895 106.282 65.3794L110.048 60.7087C105.715 57.2144 100.245 55.3639 94.5692 55.3715L94.5772 61.3715ZM82.8745 65.4142C86.0852 62.8143 90.211 61.3774 94.5772 61.3715L94.5692 55.3715C88.8979 55.3791 83.4263 57.2469 79.0986 60.7513L82.8745 65.4142ZM78.9986 69.9859C79.9343 68.2961 81.2371 66.7433 82.8773 65.412L79.0958 60.7536C76.8889 62.5451 75.0761 64.6839 73.7496 67.0793L78.9986 69.9859ZM77.2857 75.5695C77.4535 73.5974 78.0444 71.7079 78.9982 69.9866L73.75 67.0786C72.401 69.5133 71.5492 72.2173 71.3073 75.0608L77.2857 75.5695ZM78.0654 81.4892C77.3748 79.6015 77.1069 77.6017 77.2849 75.5781L71.308 75.0522C71.0526 77.9551 71.4383 80.8382 72.4307 83.5508L78.0654 81.4892ZM81.5228 86.8547C79.9229 85.2421 78.7701 83.4102 78.0646 81.4869L72.4316 83.5531C73.4431 86.3107 75.0739 88.8737 77.2635 91.0806L81.5228 86.8547ZM94.5765 92.0821C89.4492 92.0909 84.8056 90.1724 81.5257 86.8575L77.2607 91.0777C81.7358 95.6004 87.9494 98.0935 94.5868 98.0821L94.5765 92.0821ZM85.0391 75.7396C85.167 73.4727 86.2828 71.4108 88.0864 69.8956L84.2271 65.3015C81.2998 67.7606 79.2797 71.3051 79.0486 75.4017L85.0391 75.7396ZM87.5917 81.9713C85.8353 80.268 84.9106 78.0556 85.0393 75.7368L79.0485 75.4045C78.8148 79.6175 80.5281 83.4792 83.4147 86.2785L87.5917 81.9713ZM95.0057 84.8519C92.0031 84.8519 89.3846 83.7082 87.5906 81.9702L83.4158 86.2796C86.3494 89.1216 90.4734 90.8519 95.0057 90.8519V84.8519ZM102.417 81.9695C100.619 83.7094 98.0065 84.8519 95.0057 84.8519V90.8519C99.5399 90.8519 103.656 89.1204 106.59 86.2803L102.417 81.9695ZM104.97 75.7317C105.098 78.0537 104.17 80.2674 102.414 81.972L106.593 86.2777C109.476 83.4798 111.193 79.6194 110.961 75.4028L104.97 75.7317ZM101.923 69.895C103.725 71.4106 104.842 73.4735 104.971 75.738L110.961 75.3965C110.728 71.3043 108.708 67.7608 105.783 65.3022L101.923 69.895ZM95.0057 67.4539C97.7109 67.4539 100.148 68.4027 101.922 69.8948L105.784 65.3023C102.915 62.8909 99.1074 61.4539 95.0057 61.4539V67.4539ZM88.0882 69.8941C89.8604 68.4031 92.2966 67.4539 95.0057 67.4539V61.4539C90.9012 61.4539 87.0927 62.8905 84.2254 65.303L88.0882 69.8941Z" fill="url(#paint8_linear_201_530)" mask="url(#path-5-inside-3_201_530)"/>
</g>
<defs>
<filter id="filter0_f_201_530" x="16" y="16" width="128" height="109.492" filterUnits="userSpaceOnUse" color-interpolation-filters="sRGB">
<feFlood flood-opacity="0" result="BackgroundImageFix"/>
<feBlend mode="normal" in="SourceGraphic" in2="BackgroundImageFix" result="shape"/>
<feGaussianBlur stdDeviation="8" result="effect1_foregroundBlur_201_530"/>
</filter>
<filter id="filter1_f_201_530" x="0" y="0" width="160" height="141.492" filterUnits="userSpaceOnUse" color-interpolation-filters="sRGB">
<feFlood flood-opacity="0" result="BackgroundImageFix"/>
<feBlend mode="normal" in="SourceGraphic" in2="BackgroundImageFix" result="shape"/>
<feGaussianBlur stdDeviation="16" result="effect1_foregroundBlur_201_530"/>
</filter>
<linearGradient id="paint0_linear_201_530" x1="100.491" y1="21.1304" x2="48.0087" y2="113.37" gradientUnits="userSpaceOnUse">
<stop offset="0.25" stop-color="#8880E3"/>
<stop offset="0.5" stop-color="#CED7FF"/>
<stop offset="0.75" stop-color="#8880E3"/>
</linearGradient>
<linearGradient id="paint1_linear_201_530" x1="122" y1="87" x2="131" y2="103.5" gradientUnits="userSpaceOnUse">
<stop stop-opacity="0"/>
<stop offset="1" stop-opacity="0.25"/>
</linearGradient>
<linearGradient id="paint2_linear_201_530" x1="77.5" y1="52" x2="62.5" y2="32" gradientUnits="userSpaceOnUse">
<stop stop-color="white" stop-opacity="0"/>
<stop offset="1" stop-color="white" stop-opacity="0.45"/>
</linearGradient>
<linearGradient id="paint3_linear_201_530" x1="100.491" y1="21.1304" x2="48.0087" y2="113.37" gradientUnits="userSpaceOnUse">
<stop offset="0.25" stop-color="#8880E3"/>
<stop offset="0.5" stop-color="#CED7FF"/>
<stop offset="0.75" stop-color="#8880E3"/>
</linearGradient>
<linearGradient id="paint4_linear_201_530" x1="122" y1="87" x2="131" y2="103.5" gradientUnits="userSpaceOnUse">
<stop stop-opacity="0"/>
<stop offset="1" stop-opacity="0.25"/>
</linearGradient>
<linearGradient id="paint5_linear_201_530" x1="77.5" y1="52" x2="62.5" y2="32" gradientUnits="userSpaceOnUse">
<stop stop-color="white" stop-opacity="0"/>
<stop offset="1" stop-color="white" stop-opacity="0.45"/>
</linearGradient>
<linearGradient id="paint6_linear_201_530" x1="100.491" y1="21.1304" x2="48.0087" y2="113.37" gradientUnits="userSpaceOnUse">
<stop offset="0.25" stop-color="#8880E3"/>
<stop offset="0.5" stop-color="#CED7FF"/>
<stop offset="0.75" stop-color="#8880E3"/>
</linearGradient>
<linearGradient id="paint7_linear_201_530" x1="122" y1="87" x2="131" y2="103.5" gradientUnits="userSpaceOnUse">
<stop stop-opacity="0"/>
<stop offset="1" stop-opacity="0.25"/>
</linearGradient>
<linearGradient id="paint8_linear_201_530" x1="77.5" y1="52" x2="62.5" y2="32" gradientUnits="userSpaceOnUse">
<stop stop-color="white" stop-opacity="0"/>
<stop offset="1" stop-color="white" stop-opacity="0.45"/>
</linearGradient>
</defs>
</svg>
