<svg width="76" height="76" viewBox="0 0 76 76" fill="none" xmlns="http://www.w3.org/2000/svg">
<path d="M23.8412 21.0314L23.8411 21.0314C20.4131 21.534 18 24.5478 18 27.982V40.018C18 43.4522 20.4131 46.466 23.8411 46.9686L23.8414 46.9686C25.5853 47.225 27.3358 47.4335 29.0911 47.5942L30 47.6773V48.59V56.4991C30.0001 56.5979 30.0295 56.6945 30.0844 56.7767C30.1394 56.8588 30.2174 56.9228 30.3087 56.9607C30.4 56.9985 30.5005 57.0084 30.5974 56.9891C30.6942 56.9699 30.7831 56.9225 30.853 56.8528L23.8412 21.0314ZM23.8412 21.0314C28.5293 20.3433 33.2614 19.9986 37.9997 20H38C42.8108 20 47.5361 20.3524 52.1584 21.0293C55.5877 21.5358 58 24.5468 58 27.98V40.02C58 43.4532 55.5877 46.4641 52.1585 46.9706C48.3188 47.5327 44.4077 47.8712 40.4371 47.9703C39.9832 47.98 39.5501 48.1628 39.2265 48.4814L39.2264 48.4814L39.221 48.4868L30.8533 56.8525L23.8412 21.0314Z" fill="url(#paint0_linear_337_5583)"/>
<path d="M23.8412 21.0314L23.8411 21.0314C20.4131 21.534 18 24.5478 18 27.982V40.018C18 43.4522 20.4131 46.466 23.8411 46.9686L23.8414 46.9686C25.5853 47.225 27.3358 47.4335 29.0911 47.5942L30 47.6773V48.59V56.4991C30.0001 56.5979 30.0295 56.6945 30.0844 56.7767C30.1394 56.8588 30.2174 56.9228 30.3087 56.9607C30.4 56.9985 30.5005 57.0084 30.5974 56.9891C30.6942 56.9699 30.7831 56.9225 30.853 56.8528L23.8412 21.0314ZM23.8412 21.0314C28.5293 20.3433 33.2614 19.9986 37.9997 20H38C42.8108 20 47.5361 20.3524 52.1584 21.0293C55.5877 21.5358 58 24.5468 58 27.98V40.02C58 43.4532 55.5877 46.4641 52.1585 46.9706C48.3188 47.5327 44.4077 47.8712 40.4371 47.9703C39.9832 47.98 39.5501 48.1628 39.2265 48.4814L39.2264 48.4814L39.221 48.4868L30.8533 56.8525L23.8412 21.0314Z" stroke="url(#paint1_linear_337_5583)" stroke-width="2"/>
<path d="M23.8412 21.0314L23.8411 21.0314C20.4131 21.534 18 24.5478 18 27.982V40.018C18 43.4522 20.4131 46.466 23.8411 46.9686L23.8414 46.9686C25.5853 47.225 27.3358 47.4335 29.0911 47.5942L30 47.6773V48.59V56.4991C30.0001 56.5979 30.0295 56.6945 30.0844 56.7767C30.1394 56.8588 30.2174 56.9228 30.3087 56.9607C30.4 56.9985 30.5005 57.0084 30.5974 56.9891C30.6942 56.9699 30.7831 56.9225 30.853 56.8528L23.8412 21.0314ZM23.8412 21.0314C28.5293 20.3433 33.2614 19.9986 37.9997 20H38C42.8108 20 47.5361 20.3524 52.1584 21.0293C55.5877 21.5358 58 24.5468 58 27.98V40.02C58 43.4532 55.5877 46.4641 52.1585 46.9706C48.3188 47.5327 44.4077 47.8712 40.4371 47.9703C39.9832 47.98 39.5501 48.1628 39.2265 48.4814L39.2264 48.4814L39.221 48.4868L30.8533 56.8525L23.8412 21.0314Z" stroke="url(#paint2_linear_337_5583)" stroke-width="2"/>
<g style="mix-blend-mode:plus-lighter" opacity="0.1" filter="url(#filter0_f_337_5583)">
<path fill-rule="evenodd" clip-rule="evenodd" d="M23.696 20.042C28.4323 19.3468 33.213 18.9985 38 19C42.86 19 47.634 19.356 52.304 20.04C56.26 20.624 59 24.088 59 27.98V40.02C59 43.912 56.26 47.376 52.304 47.96C48.424 48.528 44.472 48.87 40.46 48.97C40.2605 48.9739 40.0702 49.0541 39.928 49.194L31.56 57.56C31.3502 57.7695 31.0831 57.9122 30.7923 57.9699C30.5015 58.0277 30.2001 57.998 29.9262 57.8846C29.6522 57.7712 29.4181 57.5791 29.2532 57.3327C29.0884 57.0862 29.0003 56.7965 29 56.5V48.59C27.2266 48.4277 25.4579 48.217 23.696 47.958C19.74 47.378 17 43.91 17 40.018V27.982C17 24.09 19.74 20.622 23.696 20.042Z" fill="url(#paint3_linear_337_5583)"/>
<path d="M23.8412 21.0314L23.8411 21.0314C20.4131 21.534 18 24.5478 18 27.982V40.018C18 43.4522 20.4131 46.466 23.8411 46.9686L23.8414 46.9686C25.5853 47.225 27.3358 47.4335 29.0911 47.5942L30 47.6773V48.59V56.4991C30.0001 56.5979 30.0295 56.6945 30.0844 56.7767C30.1394 56.8588 30.2174 56.9228 30.3087 56.9607C30.4 56.9985 30.5005 57.0084 30.5974 56.9891C30.6942 56.9699 30.7831 56.9225 30.853 56.8528L23.8412 21.0314ZM23.8412 21.0314C28.5293 20.3433 33.2614 19.9986 37.9997 20H38C42.8108 20 47.5361 20.3524 52.1584 21.0293C55.5877 21.5358 58 24.5468 58 27.98V40.02C58 43.4532 55.5877 46.4641 52.1585 46.9706C48.3188 47.5327 44.4077 47.8712 40.4371 47.9703C39.9832 47.98 39.5501 48.1628 39.2265 48.4814L39.2264 48.4814L39.221 48.4868L30.8533 56.8525L23.8412 21.0314Z" stroke="url(#paint4_linear_337_5583)" stroke-width="2"/>
<path d="M23.8412 21.0314L23.8411 21.0314C20.4131 21.534 18 24.5478 18 27.982V40.018C18 43.4522 20.4131 46.466 23.8411 46.9686L23.8414 46.9686C25.5853 47.225 27.3358 47.4335 29.0911 47.5942L30 47.6773V48.59V56.4991C30.0001 56.5979 30.0295 56.6945 30.0844 56.7767C30.1394 56.8588 30.2174 56.9228 30.3087 56.9607C30.4 56.9985 30.5005 57.0084 30.5974 56.9891C30.6942 56.9699 30.7831 56.9225 30.853 56.8528L23.8412 21.0314ZM23.8412 21.0314C28.5293 20.3433 33.2614 19.9986 37.9997 20H38C42.8108 20 47.5361 20.3524 52.1584 21.0293C55.5877 21.5358 58 24.5468 58 27.98V40.02C58 43.4532 55.5877 46.4641 52.1585 46.9706C48.3188 47.5327 44.4077 47.8712 40.4371 47.9703C39.9832 47.98 39.5501 48.1628 39.2265 48.4814L39.2264 48.4814L39.221 48.4868L30.8533 56.8525L23.8412 21.0314Z" stroke="url(#paint5_linear_337_5583)" stroke-width="2"/>
</g>
<g style="mix-blend-mode:plus-lighter" opacity="0.2" filter="url(#filter1_f_337_5583)">
<path fill-rule="evenodd" clip-rule="evenodd" d="M23.696 20.042C28.4323 19.3468 33.213 18.9985 38 19C42.86 19 47.634 19.356 52.304 20.04C56.26 20.624 59 24.088 59 27.98V40.02C59 43.912 56.26 47.376 52.304 47.96C48.424 48.528 44.472 48.87 40.46 48.97C40.2605 48.9739 40.0702 49.0541 39.928 49.194L31.56 57.56C31.3502 57.7695 31.0831 57.9122 30.7923 57.9699C30.5015 58.0277 30.2001 57.998 29.9262 57.8846C29.6522 57.7712 29.4181 57.5791 29.2532 57.3327C29.0884 57.0862 29.0003 56.7965 29 56.5V48.59C27.2266 48.4277 25.4579 48.217 23.696 47.958C19.74 47.378 17 43.91 17 40.018V27.982C17 24.09 19.74 20.622 23.696 20.042Z" fill="url(#paint6_linear_337_5583)"/>
<path d="M23.8412 21.0314L23.8411 21.0314C20.4131 21.534 18 24.5478 18 27.982V40.018C18 43.4522 20.4131 46.466 23.8411 46.9686L23.8414 46.9686C25.5853 47.225 27.3358 47.4335 29.0911 47.5942L30 47.6773V48.59V56.4991C30.0001 56.5979 30.0295 56.6945 30.0844 56.7767C30.1394 56.8588 30.2174 56.9228 30.3087 56.9607C30.4 56.9985 30.5005 57.0084 30.5974 56.9891C30.6942 56.9699 30.7831 56.9225 30.853 56.8528L23.8412 21.0314ZM23.8412 21.0314C28.5293 20.3433 33.2614 19.9986 37.9997 20H38C42.8108 20 47.5361 20.3524 52.1584 21.0293C55.5877 21.5358 58 24.5468 58 27.98V40.02C58 43.4532 55.5877 46.4641 52.1585 46.9706C48.3188 47.5327 44.4077 47.8712 40.4371 47.9703C39.9832 47.98 39.5501 48.1628 39.2265 48.4814L39.2264 48.4814L39.221 48.4868L30.8533 56.8525L23.8412 21.0314Z" stroke="url(#paint7_linear_337_5583)" stroke-width="2"/>
<path d="M23.8412 21.0314L23.8411 21.0314C20.4131 21.534 18 24.5478 18 27.982V40.018C18 43.4522 20.4131 46.466 23.8411 46.9686L23.8414 46.9686C25.5853 47.225 27.3358 47.4335 29.0911 47.5942L30 47.6773V48.59V56.4991C30.0001 56.5979 30.0295 56.6945 30.0844 56.7767C30.1394 56.8588 30.2174 56.9228 30.3087 56.9607C30.4 56.9985 30.5005 57.0084 30.5974 56.9891C30.6942 56.9699 30.7831 56.9225 30.853 56.8528L23.8412 21.0314ZM23.8412 21.0314C28.5293 20.3433 33.2614 19.9986 37.9997 20H38C42.8108 20 47.5361 20.3524 52.1584 21.0293C55.5877 21.5358 58 24.5468 58 27.98V40.02C58 43.4532 55.5877 46.4641 52.1585 46.9706C48.3188 47.5327 44.4077 47.8712 40.4371 47.9703C39.9832 47.98 39.5501 48.1628 39.2265 48.4814L39.2264 48.4814L39.221 48.4868L30.8533 56.8525L23.8412 21.0314Z" stroke="url(#paint8_linear_337_5583)" stroke-width="2"/>
</g>
<defs>
<filter id="filter0_f_337_5583" x="9" y="11" width="58" height="54.9987" filterUnits="userSpaceOnUse" color-interpolation-filters="sRGB">
<feFlood flood-opacity="0" result="BackgroundImageFix"/>
<feBlend mode="normal" in="SourceGraphic" in2="BackgroundImageFix" result="shape"/>
<feGaussianBlur stdDeviation="4" result="effect1_foregroundBlur_337_5583"/>
</filter>
<filter id="filter1_f_337_5583" x="1" y="3" width="74" height="70.9987" filterUnits="userSpaceOnUse" color-interpolation-filters="sRGB">
<feFlood flood-opacity="0" result="BackgroundImageFix"/>
<feBlend mode="normal" in="SourceGraphic" in2="BackgroundImageFix" result="shape"/>
<feGaussianBlur stdDeviation="8" result="effect1_foregroundBlur_337_5583"/>
</filter>
<linearGradient id="paint0_linear_337_5583" x1="26.775" y1="19" x2="49.225" y2="57.9987" gradientUnits="userSpaceOnUse">
<stop offset="0.15" stop-color="#8880E3"/>
<stop offset="0.495" stop-color="#CED7FF"/>
<stop offset="0.85" stop-color="#8880E3"/>
</linearGradient>
<linearGradient id="paint1_linear_337_5583" x1="45.2542" y1="39.4693" x2="55.5" y2="53" gradientUnits="userSpaceOnUse">
<stop stop-opacity="0"/>
<stop offset="1" stop-opacity="0.25"/>
</linearGradient>
<linearGradient id="paint2_linear_337_5583" x1="30.5" y1="31.5" x2="21.5" y2="16" gradientUnits="userSpaceOnUse">
<stop stop-color="white" stop-opacity="0"/>
<stop offset="1" stop-color="white" stop-opacity="0.35"/>
</linearGradient>
<linearGradient id="paint3_linear_337_5583" x1="26.775" y1="19" x2="49.225" y2="57.9987" gradientUnits="userSpaceOnUse">
<stop offset="0.15" stop-color="#8880E3"/>
<stop offset="0.495" stop-color="#CED7FF"/>
<stop offset="0.85" stop-color="#8880E3"/>
</linearGradient>
<linearGradient id="paint4_linear_337_5583" x1="45.2542" y1="39.4693" x2="55.5" y2="53" gradientUnits="userSpaceOnUse">
<stop stop-opacity="0"/>
<stop offset="1" stop-opacity="0.25"/>
</linearGradient>
<linearGradient id="paint5_linear_337_5583" x1="30.5" y1="31.5" x2="21.5" y2="16" gradientUnits="userSpaceOnUse">
<stop stop-color="white" stop-opacity="0"/>
<stop offset="1" stop-color="white" stop-opacity="0.35"/>
</linearGradient>
<linearGradient id="paint6_linear_337_5583" x1="26.775" y1="19" x2="49.225" y2="57.9987" gradientUnits="userSpaceOnUse">
<stop offset="0.15" stop-color="#8880E3"/>
<stop offset="0.495" stop-color="#CED7FF"/>
<stop offset="0.85" stop-color="#8880E3"/>
</linearGradient>
<linearGradient id="paint7_linear_337_5583" x1="45.2542" y1="39.4693" x2="55.5" y2="53" gradientUnits="userSpaceOnUse">
<stop stop-opacity="0"/>
<stop offset="1" stop-opacity="0.25"/>
</linearGradient>
<linearGradient id="paint8_linear_337_5583" x1="30.5" y1="31.5" x2="21.5" y2="16" gradientUnits="userSpaceOnUse">
<stop stop-color="white" stop-opacity="0"/>
<stop offset="1" stop-color="white" stop-opacity="0.35"/>
</linearGradient>
</defs>
</svg>
