<svg width="82" height="96" viewBox="0 0 82 96" fill="none" xmlns="http://www.w3.org/2000/svg">
<path d="M38.4322 16.5H48.7283V63.6903C43.4544 64.6879 39.5718 65.0804 35.3712 65.0804C22.796 65.0673 16.25 59.4492 16.25 48.6594C16.25 38.2634 23.1935 31.5165 33.9534 31.5165C35.623 31.5165 36.8951 31.6477 38.4322 32.0415V16.5ZM38.7931 40.5456C37.5872 40.1519 36.5934 40.0206 35.3213 40.0206C30.1136 40.0206 27.1057 43.1971 27.1057 48.764C27.1057 54.1838 29.9811 57.1766 35.255 57.1766C36.3946 57.1766 37.3222 57.1123 38.7931 56.9154V40.5456Z" fill="#CED7FF"/>
<path d="M65.5661 32.7834V56.4108C65.5661 64.5477 64.9565 68.4607 63.1676 71.8341C61.498 75.0777 59.2983 77.1227 54.7532 79.3818L45.1992 74.8794C49.7443 72.7674 51.944 70.9009 53.3486 68.0525C54.8195 65.1397 55.2833 61.7663 55.2833 52.8929V32.7834H65.5661Z" fill="#8880E3"/>
<path d="M54.2441 16.5H64.5402V26.9616H54.2441V16.5Z" fill="#8880E3"/>
<g style="mix-blend-mode:plus-lighter" opacity="0.3" filter="url(#filter0_f_407_1600)">
<path d="M38.4322 16.5H48.7283V63.6903C43.4544 64.6879 39.5718 65.0804 35.3712 65.0804C22.796 65.0673 16.25 59.4492 16.25 48.6594C16.25 38.2634 23.1935 31.5165 33.9534 31.5165C35.623 31.5165 36.8951 31.6477 38.4322 32.0415V16.5ZM38.7931 40.5456C37.5872 40.1519 36.5934 40.0206 35.3213 40.0206C30.1136 40.0206 27.1057 43.1971 27.1057 48.764C27.1057 54.1838 29.9811 57.1766 35.255 57.1766C36.3946 57.1766 37.3222 57.1123 38.7931 56.9154V40.5456Z" fill="#CED7FF"/>
<path d="M65.5661 32.7834V56.4108C65.5661 64.5477 64.9565 68.4607 63.1676 71.8341C61.498 75.0777 59.2983 77.1227 54.7532 79.3818L45.1992 74.8794C49.7443 72.7674 51.944 70.9009 53.3486 68.0525C54.8195 65.1397 55.2833 61.7663 55.2833 52.8929V32.7834H65.5661Z" fill="#8880E3"/>
<path d="M54.2441 16.5H64.5402V26.9616H54.2441V16.5Z" fill="#8880E3"/>
</g>
<defs>
<filter id="filter0_f_407_1600" x="0.25" y="0.5" width="81.3164" height="94.8818" filterUnits="userSpaceOnUse" color-interpolation-filters="sRGB">
<feFlood flood-opacity="0" result="BackgroundImageFix"/>
<feBlend mode="normal" in="SourceGraphic" in2="BackgroundImageFix" result="shape"/>
<feGaussianBlur stdDeviation="8" result="effect1_foregroundBlur_407_1600"/>
</filter>
</defs>
</svg>
