<svg width="78" height="76" viewBox="0 0 78 76" fill="none" xmlns="http://www.w3.org/2000/svg">
<path fill-rule="evenodd" clip-rule="evenodd" d="M38.3999 19.2137C38.5891 19.1311 38.7934 19.0885 38.9999 19.0885C39.2064 19.0885 39.4106 19.1311 39.5999 19.2137C46.996 22.4465 54.051 26.4095 60.6599 31.0437C60.8928 31.2071 61.0744 31.4333 61.1837 31.6959C61.2929 31.9586 61.3252 32.2469 61.2767 32.5272C61.2283 32.8075 61.1012 33.0683 60.9101 33.2791C60.7191 33.4899 60.4721 33.642 60.1979 33.7177C53.3367 35.6127 46.6976 38.2356 40.3939 41.5417L40.3879 41.5457L40.2569 41.6146C40.0732 41.7111 39.8905 41.8071 39.7079 41.9057C39.4904 42.022 39.2475 42.0828 39.0009 42.0828C38.7542 42.0828 38.5114 42.022 38.2939 41.9057C35.5902 40.4628 32.8227 39.1428 29.9999 37.9497V37.5017C29.9999 37.2397 30.1339 37.0057 30.3439 36.8797C33.3626 35.0504 36.4683 33.3684 39.6499 31.8397C40.0084 31.6673 40.2839 31.3596 40.4155 30.9841C40.5472 30.6087 40.5243 30.1963 40.3519 29.8377C40.1795 29.4792 39.8717 29.2038 39.4963 29.0721C39.1208 28.9404 38.7085 28.9633 38.3499 29.1357C35.0814 30.7063 31.891 32.4343 28.7899 34.3137C28.3487 34.5814 27.9681 34.938 27.6723 35.3608C27.3765 35.7837 27.172 36.2635 27.0719 36.7697C24.0343 35.6009 20.9413 34.5817 17.8039 33.7157C17.5297 33.64 17.2826 33.4879 17.0916 33.2771C16.9006 33.0663 16.7735 32.8055 16.725 32.5252C16.6766 32.2449 16.7089 31.9566 16.8181 31.6939C16.9273 31.4313 17.109 31.2051 17.3419 31.0417C23.9503 26.4084 31.0045 22.4461 38.3999 19.2137ZM41.1195 44.5495C46.0321 41.925 51.1617 39.7288 56.4515 37.9855C56.7195 40.8135 56.8915 43.6715 56.9615 46.5535C56.9693 46.8556 56.8856 47.153 56.7214 47.4068C56.5573 47.6605 56.3203 47.8588 56.0415 47.9755C50.3721 50.3434 44.9437 53.2514 39.8315 56.6595C39.5851 56.8238 39.2957 56.9114 38.9995 56.9114C38.7034 56.9114 38.4139 56.8238 38.1675 56.6595C35.0933 54.6098 31.9046 52.741 28.618 51.0617C27.9636 52.3909 27.0946 53.6031 26.046 54.6497C25.7617 54.9146 25.3856 55.0589 24.997 55.052C24.6084 55.0452 24.2376 54.8877 23.9628 54.6129C23.688 54.3381 23.5305 53.9673 23.5237 53.5787C23.5168 53.1901 23.6611 52.814 23.926 52.5297L23.924 52.5277C24.7639 51.6898 25.4299 50.7479 25.9239 49.738C24.6164 49.1209 23.2947 48.5332 21.9595 47.9755C21.6807 47.8592 21.4436 47.6614 21.279 47.408C21.1145 47.1547 21.0304 46.8575 21.0375 46.5555C21.1075 43.6715 21.2795 40.8155 21.5475 37.9835C23.3895 38.5915 25.2075 39.2515 26.9995 39.9635V42.5035C26.5674 42.7525 26.2042 43.1053 25.9427 43.5299C25.6812 43.9546 25.5297 44.4378 25.5019 44.9357C25.4741 45.4337 25.5709 45.9307 25.7835 46.3818C25.9961 46.833 26.3178 47.224 26.7195 47.5195C26.5396 48.2792 26.2758 49.0249 25.926 49.7386C26.2326 49.8834 26.5382 50.0299 26.8429 50.1778C27.0613 50.2837 27.2792 50.3905 27.4967 50.498C27.4114 50.4559 27.326 50.4139 27.2405 50.372C27.6788 50.5872 28.115 50.8055 28.5494 51.0267C28.1996 50.8483 27.8487 50.6721 27.4967 50.498C27.8716 50.6832 28.2453 50.8705 28.6175 51.0595C29.1192 50.0391 29.4895 48.9591 29.7195 47.8455C30.2253 47.6206 30.659 47.2602 30.9726 46.8041C31.2863 46.3481 31.4676 45.8141 31.4966 45.2614C31.5256 44.7086 31.4011 44.1586 31.1369 43.6722C30.8726 43.1859 30.479 42.7821 29.9995 42.5055V41.2155C32.3357 42.2361 34.6309 43.3483 36.8795 44.5495C37.5319 44.8979 38.26 45.0802 38.9995 45.0802C39.7391 45.0802 40.4672 44.8979 41.1195 44.5495Z" fill="url(#paint0_linear_337_5581)"/>
<path d="M59.9317 32.7538L59.9317 32.7538C60.0231 32.7286 60.1055 32.6779 60.1691 32.6076C60.2328 32.5373 60.2752 32.4504 60.2913 32.357C60.3075 32.2635 60.2967 32.1674 60.2603 32.0799C60.2239 31.9923 60.1634 31.9169 60.0858 31.8625C53.5313 27.2665 46.5345 23.3362 39.1994 20.13L39.5999 19.2137L39.1999 20.1302C39.1368 20.1027 39.0687 20.0885 38.9999 20.0885C38.9312 20.0885 38.8633 20.1026 38.8004 20.13C31.466 23.3357 24.4699 27.2653 17.916 31.8605C17.8384 31.9149 17.7779 31.9903 17.7414 32.0779C17.705 32.1654 17.6943 32.2615 17.7104 32.355C17.7266 32.4484 17.769 32.5353 17.8326 32.6056C17.8963 32.6758 17.9786 32.7265 18.0699 32.7518L59.9317 32.7538ZM59.9317 32.7538C53.0017 34.6678 46.2962 37.3169 39.9294 40.6561L39.883 40.6805M59.9317 32.7538L39.883 40.6805M26.4573 35.4676C26.5697 35.2309 26.7019 35.0034 26.8529 34.7876C27.2282 34.251 27.7113 33.7984 28.2712 33.4588L28.2716 33.4585C31.4003 31.5624 34.6191 29.819 37.9166 28.2345L26.4573 35.4676ZM26.4573 35.4676C23.7027 34.4402 20.9043 33.5341 18.07 32.7518L26.4573 35.4676ZM39.883 40.6805L39.8764 40.6849M39.883 40.6805L39.8764 40.6849M39.8764 40.6849C39.849 40.6993 39.8215 40.7137 39.7938 40.7283C39.6105 40.8246 39.4225 40.9234 39.2352 41.0245C39.1631 41.0628 39.0826 41.0828 39.0009 41.0828C38.9187 41.0828 38.8377 41.0625 38.7652 41.0238L38.7647 41.0235C36.3421 39.7306 33.8687 38.5354 31.3505 37.4407C34.1879 35.7416 37.1018 34.1734 40.0829 32.7411L40.0832 32.741C40.6808 32.4537 41.1398 31.9407 41.3592 31.315C41.5786 30.6893 41.5404 30.002 41.2531 29.4044C40.9658 28.8068 40.4529 28.3478 39.8272 28.1284C39.2015 27.909 38.5143 27.9472 37.9168 28.2344L39.8764 40.6849Z" stroke="url(#paint1_linear_337_5581)" stroke-width="2"/>
<path d="M41.5908 45.4315L41.5906 45.4316C40.7934 45.8574 39.9034 46.0802 38.9995 46.0802C38.0957 46.0802 37.2057 45.8574 36.4084 45.4316L36.4084 45.4316C34.9706 44.6635 33.5136 43.9322 32.0389 43.2384C32.3752 43.8761 32.533 44.5932 32.4952 45.3137C32.4566 46.0507 32.2148 46.7627 31.7966 47.3708C31.479 47.8326 31.0691 48.2208 30.5949 48.5122C30.4225 49.2272 30.1958 49.9277 29.917 50.6077C32.9404 52.1901 35.8797 53.9323 38.7223 55.8275M41.5908 45.4315L38.1675 56.6595M41.5908 45.4315C46.0815 43.0323 50.7556 40.9948 55.5687 39.3381M41.5908 45.4315L55.4778 38.3122C55.5095 38.6537 55.5398 38.9957 55.5687 39.3381M38.7223 55.8275L38.1675 56.6595M38.7223 55.8275C38.7222 55.8275 38.7222 55.8275 38.7222 55.8274L38.1675 56.6595M38.7223 55.8275C38.8044 55.8822 38.9009 55.9114 38.9995 55.9114C39.0982 55.9114 39.1947 55.8822 39.2769 55.8274M38.1675 56.6595C38.4139 56.8238 38.7034 56.9114 38.9995 56.9114C39.2957 56.9114 39.5851 56.8238 39.8315 56.6595M39.2769 55.8274C39.2769 55.8275 39.2768 55.8275 39.2768 55.8275L39.8315 56.6595M39.2769 55.8274C44.4424 52.3838 49.9275 49.4453 55.6562 47.0528L56.0415 47.9755M39.2769 55.8274L39.8315 56.6595M39.8315 56.6595L56.0415 47.9755M56.0415 47.9755L55.6552 47.0532C55.7481 47.0142 55.8271 46.9482 55.8818 46.8636C55.9366 46.779 55.9644 46.6799 55.9619 46.5792L55.9618 46.5778C55.9028 44.1462 55.7705 41.7318 55.5687 39.3381M56.0415 47.9755C56.3203 47.8588 56.5573 47.6605 56.7214 47.4068C56.8856 47.153 56.9693 46.8556 56.9615 46.5535C56.9 44.0185 56.7595 41.502 56.5441 39.0082C56.2184 39.1164 55.8932 39.2264 55.5687 39.3381M25.4131 48.3973C24.3986 47.9316 23.3757 47.4833 22.345 47.0528L22.3446 47.0526C22.2517 47.0139 22.1726 46.9479 22.1178 46.8635C22.0629 46.779 22.0349 46.68 22.0373 46.5793C22.0963 44.1459 22.2286 41.7325 22.4305 39.3366C23.6311 39.7501 24.821 40.1862 25.9995 40.6448V41.9786C25.6411 42.2652 25.3334 42.6123 25.0911 43.0056C24.7425 43.5718 24.5405 44.2161 24.5034 44.88C24.4664 45.5439 24.5954 46.2066 24.8789 46.8081C25.0608 47.1942 25.3027 47.5473 25.5943 47.8549C25.5394 48.0371 25.479 48.218 25.4131 48.3973Z" stroke="url(#paint2_linear_337_5581)" stroke-width="2"/>
<g style="mix-blend-mode:plus-lighter" opacity="0.1" filter="url(#filter0_f_337_5581)">
<path fill-rule="evenodd" clip-rule="evenodd" d="M38.3999 19.2137C38.5891 19.1311 38.7934 19.0885 38.9999 19.0885C39.2064 19.0885 39.4106 19.1311 39.5999 19.2137C46.996 22.4465 54.051 26.4095 60.6599 31.0437C60.8928 31.2071 61.0744 31.4333 61.1837 31.6959C61.2929 31.9586 61.3252 32.2469 61.2767 32.5272C61.2283 32.8075 61.1012 33.0683 60.9101 33.2791C60.7191 33.4899 60.4721 33.642 60.1979 33.7177C53.3367 35.6127 46.6976 38.2356 40.3939 41.5417L40.3879 41.5457L40.2569 41.6146C40.0732 41.7111 39.8905 41.8071 39.7079 41.9057C39.4904 42.022 39.2475 42.0828 39.0009 42.0828C38.7542 42.0828 38.5114 42.022 38.2939 41.9057C35.5902 40.4628 32.8227 39.1428 29.9999 37.9497V37.5017C29.9999 37.2397 30.1339 37.0057 30.3439 36.8797C33.3626 35.0504 36.4683 33.3684 39.6499 31.8397C40.0084 31.6673 40.2839 31.3596 40.4155 30.9841C40.5472 30.6087 40.5243 30.1963 40.3519 29.8377C40.1795 29.4792 39.8717 29.2038 39.4963 29.0721C39.1208 28.9404 38.7085 28.9633 38.3499 29.1357C35.0814 30.7063 31.891 32.4343 28.7899 34.3137C28.3487 34.5814 27.9681 34.938 27.6723 35.3608C27.3765 35.7837 27.172 36.2635 27.0719 36.7697C24.0343 35.6009 20.9413 34.5817 17.8039 33.7157C17.5297 33.64 17.2826 33.4879 17.0916 33.2771C16.9006 33.0663 16.7735 32.8055 16.725 32.5252C16.6766 32.2449 16.7089 31.9566 16.8181 31.6939C16.9273 31.4313 17.109 31.2051 17.3419 31.0417C23.9503 26.4084 31.0045 22.4461 38.3999 19.2137ZM41.1195 44.5495C46.0321 41.925 51.1617 39.7288 56.4515 37.9855C56.7195 40.8135 56.8915 43.6715 56.9615 46.5535C56.9693 46.8556 56.8856 47.153 56.7214 47.4068C56.5573 47.6605 56.3203 47.8588 56.0415 47.9755C50.3721 50.3434 44.9437 53.2514 39.8315 56.6595C39.5851 56.8238 39.2957 56.9114 38.9995 56.9114C38.7034 56.9114 38.4139 56.8238 38.1675 56.6595C35.0933 54.6098 31.9046 52.741 28.618 51.0617C27.9636 52.3909 27.0946 53.6031 26.046 54.6497C25.7617 54.9146 25.3856 55.0589 24.997 55.052C24.6084 55.0452 24.2376 54.8877 23.9628 54.6129C23.688 54.3381 23.5305 53.9673 23.5237 53.5787C23.5168 53.1901 23.6611 52.814 23.926 52.5297L23.924 52.5277C24.7639 51.6898 25.4299 50.7479 25.9239 49.738C24.6164 49.1209 23.2947 48.5332 21.9595 47.9755C21.6807 47.8592 21.4436 47.6614 21.279 47.408C21.1145 47.1547 21.0304 46.8575 21.0375 46.5555C21.1075 43.6715 21.2795 40.8155 21.5475 37.9835C23.3895 38.5915 25.2075 39.2515 26.9995 39.9635V42.5035C26.5674 42.7525 26.2042 43.1053 25.9427 43.5299C25.6812 43.9546 25.5297 44.4378 25.5019 44.9357C25.4741 45.4337 25.5709 45.9307 25.7835 46.3818C25.9961 46.833 26.3178 47.224 26.7195 47.5195C26.5396 48.2792 26.2758 49.0249 25.926 49.7386C26.2326 49.8834 26.5382 50.0299 26.8429 50.1778C27.0613 50.2837 27.2792 50.3905 27.4967 50.498C27.4114 50.4559 27.326 50.4139 27.2405 50.372C27.6788 50.5872 28.115 50.8055 28.5494 51.0267C28.1996 50.8483 27.8487 50.6721 27.4967 50.498C27.8716 50.6832 28.2453 50.8705 28.6175 51.0595C29.1192 50.0391 29.4895 48.9591 29.7195 47.8455C30.2253 47.6206 30.659 47.2602 30.9726 46.8041C31.2863 46.3481 31.4676 45.8141 31.4966 45.2614C31.5256 44.7086 31.4011 44.1586 31.1369 43.6722C30.8726 43.1859 30.479 42.7821 29.9995 42.5055V41.2155C32.3357 42.2361 34.6309 43.3483 36.8795 44.5495C37.5319 44.8979 38.26 45.0802 38.9995 45.0802C39.7391 45.0802 40.4672 44.8979 41.1195 44.5495Z" fill="url(#paint3_linear_337_5581)"/>
<path d="M59.9317 32.7538L59.9317 32.7538C60.0231 32.7286 60.1055 32.6779 60.1691 32.6076C60.2328 32.5373 60.2752 32.4504 60.2913 32.357C60.3075 32.2635 60.2967 32.1674 60.2603 32.0799C60.2239 31.9923 60.1634 31.9169 60.0858 31.8625C53.5313 27.2665 46.5345 23.3362 39.1994 20.13L39.5999 19.2137L39.1999 20.1302C39.1368 20.1027 39.0687 20.0885 38.9999 20.0885C38.9312 20.0885 38.8633 20.1026 38.8004 20.13C31.466 23.3357 24.4699 27.2653 17.916 31.8605C17.8384 31.9149 17.7779 31.9903 17.7414 32.0779C17.705 32.1654 17.6943 32.2615 17.7104 32.355C17.7266 32.4484 17.769 32.5353 17.8326 32.6056C17.8963 32.6758 17.9786 32.7265 18.0699 32.7518L59.9317 32.7538ZM59.9317 32.7538C53.0017 34.6678 46.2962 37.3169 39.9294 40.6561L39.883 40.6805M59.9317 32.7538L39.883 40.6805M26.4573 35.4676C26.5697 35.2309 26.7019 35.0034 26.8529 34.7876C27.2282 34.251 27.7113 33.7984 28.2712 33.4588L28.2716 33.4585C31.4003 31.5624 34.6191 29.819 37.9166 28.2345L26.4573 35.4676ZM26.4573 35.4676C23.7027 34.4402 20.9043 33.5341 18.07 32.7518L26.4573 35.4676ZM39.883 40.6805L39.8764 40.6849M39.883 40.6805L39.8764 40.6849M39.8764 40.6849C39.849 40.6993 39.8215 40.7137 39.7938 40.7283C39.6105 40.8246 39.4225 40.9234 39.2352 41.0245C39.1631 41.0628 39.0826 41.0828 39.0009 41.0828C38.9187 41.0828 38.8377 41.0625 38.7652 41.0238L38.7647 41.0235C36.3421 39.7306 33.8687 38.5354 31.3505 37.4407C34.1879 35.7416 37.1018 34.1734 40.0829 32.7411L40.0832 32.741C40.6808 32.4537 41.1398 31.9407 41.3592 31.315C41.5786 30.6893 41.5404 30.002 41.2531 29.4044C40.9658 28.8068 40.4529 28.3478 39.8272 28.1284C39.2015 27.909 38.5143 27.9472 37.9168 28.2344L39.8764 40.6849Z" stroke="url(#paint4_linear_337_5581)" stroke-width="2"/>
<path d="M41.5908 45.4315L41.5906 45.4316C40.7934 45.8574 39.9034 46.0802 38.9995 46.0802C38.0957 46.0802 37.2057 45.8574 36.4084 45.4316L36.4084 45.4316C34.9706 44.6635 33.5136 43.9322 32.0389 43.2384C32.3752 43.8761 32.533 44.5932 32.4952 45.3137C32.4566 46.0507 32.2148 46.7627 31.7966 47.3708C31.479 47.8326 31.0691 48.2208 30.5949 48.5122C30.4225 49.2272 30.1958 49.9277 29.917 50.6077C32.9404 52.1901 35.8797 53.9323 38.7223 55.8275M41.5908 45.4315L38.1675 56.6595M41.5908 45.4315C46.0815 43.0323 50.7556 40.9948 55.5687 39.3381M41.5908 45.4315L55.4778 38.3122C55.5095 38.6537 55.5398 38.9957 55.5687 39.3381M38.7223 55.8275L38.1675 56.6595M38.7223 55.8275C38.7222 55.8275 38.7222 55.8275 38.7222 55.8274L38.1675 56.6595M38.7223 55.8275C38.8044 55.8822 38.9009 55.9114 38.9995 55.9114C39.0982 55.9114 39.1947 55.8822 39.2769 55.8274M38.1675 56.6595C38.4139 56.8238 38.7034 56.9114 38.9995 56.9114C39.2957 56.9114 39.5851 56.8238 39.8315 56.6595M39.2769 55.8274C39.2769 55.8275 39.2768 55.8275 39.2768 55.8275L39.8315 56.6595M39.2769 55.8274C44.4424 52.3838 49.9275 49.4453 55.6562 47.0528L56.0415 47.9755M39.2769 55.8274L39.8315 56.6595M39.8315 56.6595L56.0415 47.9755M56.0415 47.9755L55.6552 47.0532C55.7481 47.0142 55.8271 46.9482 55.8818 46.8636C55.9366 46.779 55.9644 46.6799 55.9619 46.5792L55.9618 46.5778C55.9028 44.1462 55.7705 41.7318 55.5687 39.3381M56.0415 47.9755C56.3203 47.8588 56.5573 47.6605 56.7214 47.4068C56.8856 47.153 56.9693 46.8556 56.9615 46.5535C56.9 44.0185 56.7595 41.502 56.5441 39.0082C56.2184 39.1164 55.8932 39.2264 55.5687 39.3381M25.4131 48.3973C24.3986 47.9316 23.3757 47.4833 22.345 47.0528L22.3446 47.0526C22.2517 47.0139 22.1726 46.9479 22.1178 46.8635C22.0629 46.779 22.0349 46.68 22.0373 46.5793C22.0963 44.1459 22.2286 41.7325 22.4305 39.3366C23.6311 39.7501 24.821 40.1862 25.9995 40.6448V41.9786C25.6411 42.2652 25.3334 42.6123 25.0911 43.0056C24.7425 43.5718 24.5405 44.2161 24.5034 44.88C24.4664 45.5439 24.5954 46.2066 24.8789 46.8081C25.0608 47.1942 25.3027 47.5473 25.5943 47.8549C25.5394 48.0371 25.479 48.218 25.4131 48.3973Z" stroke="url(#paint5_linear_337_5581)" stroke-width="2"/>
</g>
<g style="mix-blend-mode:plus-lighter" opacity="0.2" filter="url(#filter1_f_337_5581)">
<path fill-rule="evenodd" clip-rule="evenodd" d="M38.3999 19.2137C38.5891 19.1311 38.7934 19.0885 38.9999 19.0885C39.2064 19.0885 39.4106 19.1311 39.5999 19.2137C46.996 22.4465 54.051 26.4095 60.6599 31.0437C60.8928 31.2071 61.0744 31.4333 61.1837 31.6959C61.2929 31.9586 61.3252 32.2469 61.2767 32.5272C61.2283 32.8075 61.1012 33.0683 60.9101 33.2791C60.7191 33.4899 60.4721 33.642 60.1979 33.7177C53.3367 35.6127 46.6976 38.2356 40.3939 41.5417L40.3879 41.5457L40.2569 41.6146C40.0732 41.7111 39.8905 41.8071 39.7079 41.9057C39.4904 42.022 39.2475 42.0828 39.0009 42.0828C38.7542 42.0828 38.5114 42.022 38.2939 41.9057C35.5902 40.4628 32.8227 39.1428 29.9999 37.9497V37.5017C29.9999 37.2397 30.1339 37.0057 30.3439 36.8797C33.3626 35.0504 36.4683 33.3684 39.6499 31.8397C40.0084 31.6673 40.2839 31.3596 40.4155 30.9841C40.5472 30.6087 40.5243 30.1963 40.3519 29.8377C40.1795 29.4792 39.8717 29.2038 39.4963 29.0721C39.1208 28.9404 38.7085 28.9633 38.3499 29.1357C35.0814 30.7063 31.891 32.4343 28.7899 34.3137C28.3487 34.5814 27.9681 34.938 27.6723 35.3608C27.3765 35.7837 27.172 36.2635 27.0719 36.7697C24.0343 35.6009 20.9413 34.5817 17.8039 33.7157C17.5297 33.64 17.2826 33.4879 17.0916 33.2771C16.9006 33.0663 16.7735 32.8055 16.725 32.5252C16.6766 32.2449 16.7089 31.9566 16.8181 31.6939C16.9273 31.4313 17.109 31.2051 17.3419 31.0417C23.9503 26.4084 31.0045 22.4461 38.3999 19.2137ZM41.1195 44.5495C46.0321 41.925 51.1617 39.7288 56.4515 37.9855C56.7195 40.8135 56.8915 43.6715 56.9615 46.5535C56.9693 46.8556 56.8856 47.153 56.7214 47.4068C56.5573 47.6605 56.3203 47.8588 56.0415 47.9755C50.3721 50.3434 44.9437 53.2514 39.8315 56.6595C39.5851 56.8238 39.2957 56.9114 38.9995 56.9114C38.7034 56.9114 38.4139 56.8238 38.1675 56.6595C35.0933 54.6098 31.9046 52.741 28.618 51.0617C27.9636 52.3909 27.0946 53.6031 26.046 54.6497C25.7617 54.9146 25.3856 55.0589 24.997 55.052C24.6084 55.0452 24.2376 54.8877 23.9628 54.6129C23.688 54.3381 23.5305 53.9673 23.5237 53.5787C23.5168 53.1901 23.6611 52.814 23.926 52.5297L23.924 52.5277C24.7639 51.6898 25.4299 50.7479 25.9239 49.738C24.6164 49.1209 23.2947 48.5332 21.9595 47.9755C21.6807 47.8592 21.4436 47.6614 21.279 47.408C21.1145 47.1547 21.0304 46.8575 21.0375 46.5555C21.1075 43.6715 21.2795 40.8155 21.5475 37.9835C23.3895 38.5915 25.2075 39.2515 26.9995 39.9635V42.5035C26.5674 42.7525 26.2042 43.1053 25.9427 43.5299C25.6812 43.9546 25.5297 44.4378 25.5019 44.9357C25.4741 45.4337 25.5709 45.9307 25.7835 46.3818C25.9961 46.833 26.3178 47.224 26.7195 47.5195C26.5396 48.2792 26.2758 49.0249 25.926 49.7386C26.2326 49.8834 26.5382 50.0299 26.8429 50.1778C27.0613 50.2837 27.2792 50.3905 27.4967 50.498C27.4114 50.4559 27.326 50.4139 27.2405 50.372C27.6788 50.5872 28.115 50.8055 28.5494 51.0267C28.1996 50.8483 27.8487 50.6721 27.4967 50.498C27.8716 50.6832 28.2453 50.8705 28.6175 51.0595C29.1192 50.0391 29.4895 48.9591 29.7195 47.8455C30.2253 47.6206 30.659 47.2602 30.9726 46.8041C31.2863 46.3481 31.4676 45.8141 31.4966 45.2614C31.5256 44.7086 31.4011 44.1586 31.1369 43.6722C30.8726 43.1859 30.479 42.7821 29.9995 42.5055V41.2155C32.3357 42.2361 34.6309 43.3483 36.8795 44.5495C37.5319 44.8979 38.26 45.0802 38.9995 45.0802C39.7391 45.0802 40.4672 44.8979 41.1195 44.5495Z" fill="url(#paint6_linear_337_5581)"/>
<path d="M59.9317 32.7538L59.9317 32.7538C60.0231 32.7286 60.1055 32.6779 60.1691 32.6076C60.2328 32.5373 60.2752 32.4504 60.2913 32.357C60.3075 32.2635 60.2967 32.1674 60.2603 32.0799C60.2239 31.9923 60.1634 31.9169 60.0858 31.8625C53.5313 27.2665 46.5345 23.3362 39.1994 20.13L39.5999 19.2137L39.1999 20.1302C39.1368 20.1027 39.0687 20.0885 38.9999 20.0885C38.9312 20.0885 38.8633 20.1026 38.8004 20.13C31.466 23.3357 24.4699 27.2653 17.916 31.8605C17.8384 31.9149 17.7779 31.9903 17.7414 32.0779C17.705 32.1654 17.6943 32.2615 17.7104 32.355C17.7266 32.4484 17.769 32.5353 17.8326 32.6056C17.8963 32.6758 17.9786 32.7265 18.0699 32.7518L59.9317 32.7538ZM59.9317 32.7538C53.0017 34.6678 46.2962 37.3169 39.9294 40.6561L39.883 40.6805M59.9317 32.7538L39.883 40.6805M26.4573 35.4676C26.5697 35.2309 26.7019 35.0034 26.8529 34.7876C27.2282 34.251 27.7113 33.7984 28.2712 33.4588L28.2716 33.4585C31.4003 31.5624 34.6191 29.819 37.9166 28.2345L26.4573 35.4676ZM26.4573 35.4676C23.7027 34.4402 20.9043 33.5341 18.07 32.7518L26.4573 35.4676ZM39.883 40.6805L39.8764 40.6849M39.883 40.6805L39.8764 40.6849M39.8764 40.6849C39.849 40.6993 39.8215 40.7137 39.7938 40.7283C39.6105 40.8246 39.4225 40.9234 39.2352 41.0245C39.1631 41.0628 39.0826 41.0828 39.0009 41.0828C38.9187 41.0828 38.8377 41.0625 38.7652 41.0238L38.7647 41.0235C36.3421 39.7306 33.8687 38.5354 31.3505 37.4407C34.1879 35.7416 37.1018 34.1734 40.0829 32.7411L40.0832 32.741C40.6808 32.4537 41.1398 31.9407 41.3592 31.315C41.5786 30.6893 41.5404 30.002 41.2531 29.4044C40.9658 28.8068 40.4529 28.3478 39.8272 28.1284C39.2015 27.909 38.5143 27.9472 37.9168 28.2344L39.8764 40.6849Z" stroke="url(#paint7_linear_337_5581)" stroke-width="2"/>
<path d="M41.5908 45.4315L41.5906 45.4316C40.7934 45.8574 39.9034 46.0802 38.9995 46.0802C38.0957 46.0802 37.2057 45.8574 36.4084 45.4316L36.4084 45.4316C34.9706 44.6635 33.5136 43.9322 32.0389 43.2384C32.3752 43.8761 32.533 44.5932 32.4952 45.3137C32.4566 46.0507 32.2148 46.7627 31.7966 47.3708C31.479 47.8326 31.0691 48.2208 30.5949 48.5122C30.4225 49.2272 30.1958 49.9277 29.917 50.6077C32.9404 52.1901 35.8797 53.9323 38.7223 55.8275M41.5908 45.4315L38.1675 56.6595M41.5908 45.4315C46.0815 43.0323 50.7556 40.9948 55.5687 39.3381M41.5908 45.4315L55.4778 38.3122C55.5095 38.6537 55.5398 38.9957 55.5687 39.3381M38.7223 55.8275L38.1675 56.6595M38.7223 55.8275C38.7222 55.8275 38.7222 55.8275 38.7222 55.8274L38.1675 56.6595M38.7223 55.8275C38.8044 55.8822 38.9009 55.9114 38.9995 55.9114C39.0982 55.9114 39.1947 55.8822 39.2769 55.8274M38.1675 56.6595C38.4139 56.8238 38.7034 56.9114 38.9995 56.9114C39.2957 56.9114 39.5851 56.8238 39.8315 56.6595M39.2769 55.8274C39.2769 55.8275 39.2768 55.8275 39.2768 55.8275L39.8315 56.6595M39.2769 55.8274C44.4424 52.3838 49.9275 49.4453 55.6562 47.0528L56.0415 47.9755M39.2769 55.8274L39.8315 56.6595M39.8315 56.6595L56.0415 47.9755M56.0415 47.9755L55.6552 47.0532C55.7481 47.0142 55.8271 46.9482 55.8818 46.8636C55.9366 46.779 55.9644 46.6799 55.9619 46.5792L55.9618 46.5778C55.9028 44.1462 55.7705 41.7318 55.5687 39.3381M56.0415 47.9755C56.3203 47.8588 56.5573 47.6605 56.7214 47.4068C56.8856 47.153 56.9693 46.8556 56.9615 46.5535C56.9 44.0185 56.7595 41.502 56.5441 39.0082C56.2184 39.1164 55.8932 39.2264 55.5687 39.3381M25.4131 48.3973C24.3986 47.9316 23.3757 47.4833 22.345 47.0528L22.3446 47.0526C22.2517 47.0139 22.1726 46.9479 22.1178 46.8635C22.0629 46.779 22.0349 46.68 22.0373 46.5793C22.0963 44.1459 22.2286 41.7325 22.4305 39.3366C23.6311 39.7501 24.821 40.1862 25.9995 40.6448V41.9786C25.6411 42.2652 25.3334 42.6123 25.0911 43.0056C24.7425 43.5718 24.5405 44.2161 24.5034 44.88C24.4664 45.5439 24.5954 46.2066 24.8789 46.8081C25.0608 47.1942 25.3027 47.5473 25.5943 47.8549C25.5394 48.0371 25.479 48.218 25.4131 48.3973Z" stroke="url(#paint8_linear_337_5581)" stroke-width="2"/>
</g>
<defs>
<filter id="filter0_f_337_5581" x="8.70312" y="11.0885" width="60.5957" height="53.8229" filterUnits="userSpaceOnUse" color-interpolation-filters="sRGB">
<feFlood flood-opacity="0" result="BackgroundImageFix"/>
<feBlend mode="normal" in="SourceGraphic" in2="BackgroundImageFix" result="shape"/>
<feGaussianBlur stdDeviation="4" result="effect1_foregroundBlur_337_5581"/>
</filter>
<filter id="filter1_f_337_5581" x="0.703125" y="3.0885" width="76.5957" height="69.8229" filterUnits="userSpaceOnUse" color-interpolation-filters="sRGB">
<feFlood flood-opacity="0" result="BackgroundImageFix"/>
<feBlend mode="normal" in="SourceGraphic" in2="BackgroundImageFix" result="shape"/>
<feGaussianBlur stdDeviation="8" result="effect1_foregroundBlur_337_5581"/>
</filter>
<linearGradient id="paint0_linear_337_5581" x1="27.9494" y1="19.0885" x2="50.0523" y2="56.9114" gradientUnits="userSpaceOnUse">
<stop offset="0.15" stop-color="#8880E3"/>
<stop offset="0.5" stop-color="#CED7FF"/>
<stop offset="0.86" stop-color="#8880E3"/>
</linearGradient>
<linearGradient id="paint1_linear_337_5581" x1="30.5" y1="19.1036" x2="35" y2="27.6036" gradientUnits="userSpaceOnUse">
<stop stop-color="white" stop-opacity="0.35"/>
<stop offset="1" stop-color="white" stop-opacity="0"/>
</linearGradient>
<linearGradient id="paint2_linear_337_5581" x1="47.5" y1="45.1036" x2="54.5" y2="58.1036" gradientUnits="userSpaceOnUse">
<stop stop-opacity="0"/>
<stop offset="1" stop-opacity="0.45"/>
</linearGradient>
<linearGradient id="paint3_linear_337_5581" x1="27.9494" y1="19.0885" x2="50.0523" y2="56.9114" gradientUnits="userSpaceOnUse">
<stop offset="0.15" stop-color="#8880E3"/>
<stop offset="0.5" stop-color="#CED7FF"/>
<stop offset="0.86" stop-color="#8880E3"/>
</linearGradient>
<linearGradient id="paint4_linear_337_5581" x1="30.5" y1="19.1036" x2="35" y2="27.6036" gradientUnits="userSpaceOnUse">
<stop stop-color="white" stop-opacity="0.35"/>
<stop offset="1" stop-color="white" stop-opacity="0"/>
</linearGradient>
<linearGradient id="paint5_linear_337_5581" x1="47.5" y1="45.1036" x2="54.5" y2="58.1036" gradientUnits="userSpaceOnUse">
<stop stop-opacity="0"/>
<stop offset="1" stop-opacity="0.45"/>
</linearGradient>
<linearGradient id="paint6_linear_337_5581" x1="27.9494" y1="19.0885" x2="50.0523" y2="56.9114" gradientUnits="userSpaceOnUse">
<stop offset="0.15" stop-color="#8880E3"/>
<stop offset="0.5" stop-color="#CED7FF"/>
<stop offset="0.86" stop-color="#8880E3"/>
</linearGradient>
<linearGradient id="paint7_linear_337_5581" x1="30.5" y1="19.1036" x2="35" y2="27.6036" gradientUnits="userSpaceOnUse">
<stop stop-color="white" stop-opacity="0.35"/>
<stop offset="1" stop-color="white" stop-opacity="0"/>
</linearGradient>
<linearGradient id="paint8_linear_337_5581" x1="47.5" y1="45.1036" x2="54.5" y2="58.1036" gradientUnits="userSpaceOnUse">
<stop stop-opacity="0"/>
<stop offset="1" stop-opacity="0.45"/>
</linearGradient>
</defs>
</svg>
