<svg width="128" height="160" viewBox="0 0 128 160" fill="none" xmlns="http://www.w3.org/2000/svg">
<mask id="path-1-inside-1_204_1592" fill="white">
<path fill-rule="evenodd" clip-rule="evenodd" d="M64 32H80C84.2435 32 88.3131 33.6857 91.3137 36.6863C94.3143 39.6869 96 43.7565 96 48C96 52.2435 94.3143 56.3131 91.3137 59.3137C88.3131 62.3143 84.2435 64 80 64H64V80V96V112C64 116.243 62.3143 120.313 59.3137 123.314C56.3131 126.314 52.2435 128 48 128C43.7565 128 39.6869 126.314 36.6863 123.314C33.6857 120.313 32 116.243 32 112C32 107.757 33.6857 103.687 36.6863 100.686C39.6869 97.6857 43.7565 96 48 96C43.7565 96 39.6869 94.3143 36.6863 91.3137C33.6857 88.3131 32 84.2435 32 80C32 75.7565 33.6857 71.6869 36.6863 68.6863C39.6869 65.6857 43.7565 64 48 64C43.7565 64 39.6869 62.3143 36.6863 59.3137C33.6857 56.3131 32 52.2435 32 48C32 43.7565 33.6857 39.6869 36.6863 36.6863C39.6869 33.6857 43.7565 32 48 32H64ZM64 80C64 75.7565 65.6857 71.6869 68.6863 68.6863C71.6869 65.6857 75.7565 64 80 64C84.2435 64 88.3131 65.6857 91.3137 68.6863C94.3143 71.6869 96 75.7565 96 80C96 84.2435 94.3143 88.3131 91.3137 91.3137C88.3131 94.3143 84.2435 96 80 96C75.7565 96 71.6869 94.3143 68.6863 91.3137C65.6857 88.3131 64 84.2435 64 80Z"/>
</mask>
<path fill-rule="evenodd" clip-rule="evenodd" d="M64 32H80C84.2435 32 88.3131 33.6857 91.3137 36.6863C94.3143 39.6869 96 43.7565 96 48C96 52.2435 94.3143 56.3131 91.3137 59.3137C88.3131 62.3143 84.2435 64 80 64H64V80V96V112C64 116.243 62.3143 120.313 59.3137 123.314C56.3131 126.314 52.2435 128 48 128C43.7565 128 39.6869 126.314 36.6863 123.314C33.6857 120.313 32 116.243 32 112C32 107.757 33.6857 103.687 36.6863 100.686C39.6869 97.6857 43.7565 96 48 96C43.7565 96 39.6869 94.3143 36.6863 91.3137C33.6857 88.3131 32 84.2435 32 80C32 75.7565 33.6857 71.6869 36.6863 68.6863C39.6869 65.6857 43.7565 64 48 64C43.7565 64 39.6869 62.3143 36.6863 59.3137C33.6857 56.3131 32 52.2435 32 48C32 43.7565 33.6857 39.6869 36.6863 36.6863C39.6869 33.6857 43.7565 32 48 32H64ZM64 80C64 75.7565 65.6857 71.6869 68.6863 68.6863C71.6869 65.6857 75.7565 64 80 64C84.2435 64 88.3131 65.6857 91.3137 68.6863C94.3143 71.6869 96 75.7565 96 80C96 84.2435 94.3143 88.3131 91.3137 91.3137C88.3131 94.3143 84.2435 96 80 96C75.7565 96 71.6869 94.3143 68.6863 91.3137C65.6857 88.3131 64 84.2435 64 80Z" fill="url(#paint0_linear_204_1592)"/>
<path d="M91.3137 36.6863L93.435 34.565L93.435 34.565L91.3137 36.6863ZM91.3137 59.3137L93.435 61.435L93.435 61.435L91.3137 59.3137ZM64 64V61H61V64H64ZM59.3137 123.314L57.1924 121.192L57.1924 121.192L59.3137 123.314ZM36.6863 123.314L38.8076 121.192L38.8076 121.192L36.6863 123.314ZM36.6863 100.686L38.8076 102.808L38.8076 102.808L36.6863 100.686ZM36.6863 91.3137L34.565 93.435L34.565 93.435L36.6863 91.3137ZM36.6863 68.6863L34.565 66.565L34.565 66.565L36.6863 68.6863ZM36.6863 59.3137L38.8076 57.1924L38.8076 57.1924L36.6863 59.3137ZM36.6863 36.6863L34.565 34.565L34.565 34.565L36.6863 36.6863ZM68.6863 68.6863L66.565 66.565L66.565 66.565L68.6863 68.6863ZM91.3137 68.6863L93.435 66.565L93.435 66.565L91.3137 68.6863ZM91.3137 91.3137L93.435 93.435L93.435 93.435L91.3137 91.3137ZM68.6863 91.3137L66.565 93.435L66.565 93.435L68.6863 91.3137ZM80 29H64V35H80V29ZM93.435 34.565C89.8718 31.0018 85.0391 29 80 29V35C83.4478 35 86.7544 36.3696 89.1924 38.8076L93.435 34.565ZM99 48C99 42.9609 96.9982 38.1282 93.435 34.565L89.1924 38.8076C91.6304 41.2456 93 44.5522 93 48H99ZM93.435 61.435C96.9982 57.8718 99 53.0391 99 48H93C93 51.4478 91.6304 54.7544 89.1924 57.1924L93.435 61.435ZM80 67C85.0391 67 89.8718 64.9982 93.435 61.435L89.1924 57.1924C86.7544 59.6304 83.4478 61 80 61V67ZM64 67H80V61H64V67ZM67 80V64H61V80H67ZM67 96V80H61V96H67ZM67 112V96H61V112H67ZM61.435 125.435C64.9982 121.872 67 117.039 67 112H61C61 115.448 59.6304 118.754 57.1924 121.192L61.435 125.435ZM48 131C53.0391 131 57.8718 128.998 61.435 125.435L57.1924 121.192C54.7544 123.63 51.4478 125 48 125V131ZM34.565 125.435C38.1282 128.998 42.9609 131 48 131V125C44.5522 125 41.2456 123.63 38.8076 121.192L34.565 125.435ZM29 112C29 117.039 31.0018 121.872 34.565 125.435L38.8076 121.192C36.3696 118.754 35 115.448 35 112H29ZM34.565 98.565C31.0018 102.128 29 106.961 29 112H35C35 108.552 36.3696 105.246 38.8076 102.808L34.565 98.565ZM48 93C42.9609 93 38.1282 95.0018 34.565 98.565L38.8076 102.808C41.2456 100.37 44.5522 99 48 99V93ZM34.565 93.435C38.1282 96.9982 42.9609 99 48 99V93C44.5522 93 41.2456 91.6304 38.8076 89.1924L34.565 93.435ZM29 80C29 85.0391 31.0018 89.8718 34.565 93.435L38.8076 89.1924C36.3696 86.7544 35 83.4478 35 80H29ZM34.565 66.565C31.0018 70.1282 29 74.9609 29 80H35C35 76.5522 36.3696 73.2456 38.8076 70.8076L34.565 66.565ZM48 61C42.9609 61 38.1282 63.0018 34.565 66.565L38.8076 70.8076C41.2456 68.3696 44.5522 67 48 67V61ZM34.565 61.435C38.1282 64.9982 42.9609 67 48 67V61C44.5522 61 41.2456 59.6304 38.8076 57.1924L34.565 61.435ZM29 48C29 53.0391 31.0018 57.8718 34.565 61.435L38.8076 57.1924C36.3696 54.7544 35 51.4478 35 48H29ZM34.565 34.565C31.0018 38.1282 29 42.9609 29 48H35C35 44.5522 36.3696 41.2456 38.8076 38.8076L34.565 34.565ZM48 29C42.9609 29 38.1282 31.0018 34.565 34.565L38.8076 38.8076C41.2456 36.3696 44.5522 35 48 35V29ZM64 29H48V35H64V29ZM66.565 66.565C63.0018 70.1282 61 74.9609 61 80H67C67 76.5522 68.3696 73.2456 70.8076 70.8076L66.565 66.565ZM80 61C74.9609 61 70.1282 63.0018 66.565 66.565L70.8076 70.8076C73.2456 68.3696 76.5522 67 80 67V61ZM93.435 66.565C89.8718 63.0018 85.0391 61 80 61V67C83.4478 67 86.7544 68.3696 89.1924 70.8076L93.435 66.565ZM99 80C99 74.9609 96.9982 70.1282 93.435 66.565L89.1924 70.8076C91.6304 73.2456 93 76.5522 93 80H99ZM93.435 93.435C96.9982 89.8718 99 85.0391 99 80H93C93 83.4478 91.6304 86.7544 89.1924 89.1924L93.435 93.435ZM80 99C85.0391 99 89.8718 96.9982 93.435 93.435L89.1924 89.1924C86.7544 91.6304 83.4478 93 80 93V99ZM66.565 93.435C70.1282 96.9982 74.9609 99 80 99V93C76.5522 93 73.2456 91.6304 70.8076 89.1924L66.565 93.435ZM61 80C61 85.0391 63.0018 89.8718 66.565 93.435L70.8076 89.1924C68.3696 86.7544 67 83.4478 67 80H61Z" fill="url(#paint1_linear_204_1592)" mask="url(#path-1-inside-1_204_1592)"/>
<path d="M91.3137 36.6863L93.435 34.565L93.435 34.565L91.3137 36.6863ZM91.3137 59.3137L93.435 61.435L93.435 61.435L91.3137 59.3137ZM64 64V61H61V64H64ZM59.3137 123.314L57.1924 121.192L57.1924 121.192L59.3137 123.314ZM36.6863 123.314L38.8076 121.192L38.8076 121.192L36.6863 123.314ZM36.6863 100.686L38.8076 102.808L38.8076 102.808L36.6863 100.686ZM36.6863 91.3137L34.565 93.435L34.565 93.435L36.6863 91.3137ZM36.6863 68.6863L34.565 66.565L34.565 66.565L36.6863 68.6863ZM36.6863 59.3137L38.8076 57.1924L38.8076 57.1924L36.6863 59.3137ZM36.6863 36.6863L34.565 34.565L34.565 34.565L36.6863 36.6863ZM68.6863 68.6863L66.565 66.565L66.565 66.565L68.6863 68.6863ZM91.3137 68.6863L93.435 66.565L93.435 66.565L91.3137 68.6863ZM91.3137 91.3137L93.435 93.435L93.435 93.435L91.3137 91.3137ZM68.6863 91.3137L66.565 93.435L66.565 93.435L68.6863 91.3137ZM80 29H64V35H80V29ZM93.435 34.565C89.8718 31.0018 85.0391 29 80 29V35C83.4478 35 86.7544 36.3696 89.1924 38.8076L93.435 34.565ZM99 48C99 42.9609 96.9982 38.1282 93.435 34.565L89.1924 38.8076C91.6304 41.2456 93 44.5522 93 48H99ZM93.435 61.435C96.9982 57.8718 99 53.0391 99 48H93C93 51.4478 91.6304 54.7544 89.1924 57.1924L93.435 61.435ZM80 67C85.0391 67 89.8718 64.9982 93.435 61.435L89.1924 57.1924C86.7544 59.6304 83.4478 61 80 61V67ZM64 67H80V61H64V67ZM67 80V64H61V80H67ZM67 96V80H61V96H67ZM67 112V96H61V112H67ZM61.435 125.435C64.9982 121.872 67 117.039 67 112H61C61 115.448 59.6304 118.754 57.1924 121.192L61.435 125.435ZM48 131C53.0391 131 57.8718 128.998 61.435 125.435L57.1924 121.192C54.7544 123.63 51.4478 125 48 125V131ZM34.565 125.435C38.1282 128.998 42.9609 131 48 131V125C44.5522 125 41.2456 123.63 38.8076 121.192L34.565 125.435ZM29 112C29 117.039 31.0018 121.872 34.565 125.435L38.8076 121.192C36.3696 118.754 35 115.448 35 112H29ZM34.565 98.565C31.0018 102.128 29 106.961 29 112H35C35 108.552 36.3696 105.246 38.8076 102.808L34.565 98.565ZM48 93C42.9609 93 38.1282 95.0018 34.565 98.565L38.8076 102.808C41.2456 100.37 44.5522 99 48 99V93ZM34.565 93.435C38.1282 96.9982 42.9609 99 48 99V93C44.5522 93 41.2456 91.6304 38.8076 89.1924L34.565 93.435ZM29 80C29 85.0391 31.0018 89.8718 34.565 93.435L38.8076 89.1924C36.3696 86.7544 35 83.4478 35 80H29ZM34.565 66.565C31.0018 70.1282 29 74.9609 29 80H35C35 76.5522 36.3696 73.2456 38.8076 70.8076L34.565 66.565ZM48 61C42.9609 61 38.1282 63.0018 34.565 66.565L38.8076 70.8076C41.2456 68.3696 44.5522 67 48 67V61ZM34.565 61.435C38.1282 64.9982 42.9609 67 48 67V61C44.5522 61 41.2456 59.6304 38.8076 57.1924L34.565 61.435ZM29 48C29 53.0391 31.0018 57.8718 34.565 61.435L38.8076 57.1924C36.3696 54.7544 35 51.4478 35 48H29ZM34.565 34.565C31.0018 38.1282 29 42.9609 29 48H35C35 44.5522 36.3696 41.2456 38.8076 38.8076L34.565 34.565ZM48 29C42.9609 29 38.1282 31.0018 34.565 34.565L38.8076 38.8076C41.2456 36.3696 44.5522 35 48 35V29ZM64 29H48V35H64V29ZM66.565 66.565C63.0018 70.1282 61 74.9609 61 80H67C67 76.5522 68.3696 73.2456 70.8076 70.8076L66.565 66.565ZM80 61C74.9609 61 70.1282 63.0018 66.565 66.565L70.8076 70.8076C73.2456 68.3696 76.5522 67 80 67V61ZM93.435 66.565C89.8718 63.0018 85.0391 61 80 61V67C83.4478 67 86.7544 68.3696 89.1924 70.8076L93.435 66.565ZM99 80C99 74.9609 96.9982 70.1282 93.435 66.565L89.1924 70.8076C91.6304 73.2456 93 76.5522 93 80H99ZM93.435 93.435C96.9982 89.8718 99 85.0391 99 80H93C93 83.4478 91.6304 86.7544 89.1924 89.1924L93.435 93.435ZM80 99C85.0391 99 89.8718 96.9982 93.435 93.435L89.1924 89.1924C86.7544 91.6304 83.4478 93 80 93V99ZM66.565 93.435C70.1282 96.9982 74.9609 99 80 99V93C76.5522 93 73.2456 91.6304 70.8076 89.1924L66.565 93.435ZM61 80C61 85.0391 63.0018 89.8718 66.565 93.435L70.8076 89.1924C68.3696 86.7544 67 83.4478 67 80H61Z" fill="url(#paint2_linear_204_1592)" mask="url(#path-1-inside-1_204_1592)"/>
<g style="mix-blend-mode:plus-lighter" opacity="0.1" filter="url(#filter0_f_204_1592)">
<mask id="path-3-inside-2_204_1592" fill="white">
<path fill-rule="evenodd" clip-rule="evenodd" d="M64 32H80C84.2435 32 88.3131 33.6857 91.3137 36.6863C94.3143 39.6869 96 43.7565 96 48C96 52.2435 94.3143 56.3131 91.3137 59.3137C88.3131 62.3143 84.2435 64 80 64H64V80V96V112C64 116.243 62.3143 120.313 59.3137 123.314C56.3131 126.314 52.2435 128 48 128C43.7565 128 39.6869 126.314 36.6863 123.314C33.6857 120.313 32 116.243 32 112C32 107.757 33.6857 103.687 36.6863 100.686C39.6869 97.6857 43.7565 96 48 96C43.7565 96 39.6869 94.3143 36.6863 91.3137C33.6857 88.3131 32 84.2435 32 80C32 75.7565 33.6857 71.6869 36.6863 68.6863C39.6869 65.6857 43.7565 64 48 64C43.7565 64 39.6869 62.3143 36.6863 59.3137C33.6857 56.3131 32 52.2435 32 48C32 43.7565 33.6857 39.6869 36.6863 36.6863C39.6869 33.6857 43.7565 32 48 32H64ZM64 80C64 75.7565 65.6857 71.6869 68.6863 68.6863C71.6869 65.6857 75.7565 64 80 64C84.2435 64 88.3131 65.6857 91.3137 68.6863C94.3143 71.6869 96 75.7565 96 80C96 84.2435 94.3143 88.3131 91.3137 91.3137C88.3131 94.3143 84.2435 96 80 96C75.7565 96 71.6869 94.3143 68.6863 91.3137C65.6857 88.3131 64 84.2435 64 80Z"/>
</mask>
<path fill-rule="evenodd" clip-rule="evenodd" d="M64 32H80C84.2435 32 88.3131 33.6857 91.3137 36.6863C94.3143 39.6869 96 43.7565 96 48C96 52.2435 94.3143 56.3131 91.3137 59.3137C88.3131 62.3143 84.2435 64 80 64H64V80V96V112C64 116.243 62.3143 120.313 59.3137 123.314C56.3131 126.314 52.2435 128 48 128C43.7565 128 39.6869 126.314 36.6863 123.314C33.6857 120.313 32 116.243 32 112C32 107.757 33.6857 103.687 36.6863 100.686C39.6869 97.6857 43.7565 96 48 96C43.7565 96 39.6869 94.3143 36.6863 91.3137C33.6857 88.3131 32 84.2435 32 80C32 75.7565 33.6857 71.6869 36.6863 68.6863C39.6869 65.6857 43.7565 64 48 64C43.7565 64 39.6869 62.3143 36.6863 59.3137C33.6857 56.3131 32 52.2435 32 48C32 43.7565 33.6857 39.6869 36.6863 36.6863C39.6869 33.6857 43.7565 32 48 32H64ZM64 80C64 75.7565 65.6857 71.6869 68.6863 68.6863C71.6869 65.6857 75.7565 64 80 64C84.2435 64 88.3131 65.6857 91.3137 68.6863C94.3143 71.6869 96 75.7565 96 80C96 84.2435 94.3143 88.3131 91.3137 91.3137C88.3131 94.3143 84.2435 96 80 96C75.7565 96 71.6869 94.3143 68.6863 91.3137C65.6857 88.3131 64 84.2435 64 80Z" fill="url(#paint3_linear_204_1592)"/>
<path d="M91.3137 36.6863L93.435 34.565L93.435 34.565L91.3137 36.6863ZM91.3137 59.3137L93.435 61.435L93.435 61.435L91.3137 59.3137ZM64 64V61H61V64H64ZM59.3137 123.314L57.1924 121.192L57.1924 121.192L59.3137 123.314ZM36.6863 123.314L38.8076 121.192L38.8076 121.192L36.6863 123.314ZM36.6863 100.686L38.8076 102.808L38.8076 102.808L36.6863 100.686ZM36.6863 91.3137L34.565 93.435L34.565 93.435L36.6863 91.3137ZM36.6863 68.6863L34.565 66.565L34.565 66.565L36.6863 68.6863ZM36.6863 59.3137L38.8076 57.1924L38.8076 57.1924L36.6863 59.3137ZM36.6863 36.6863L34.565 34.565L34.565 34.565L36.6863 36.6863ZM68.6863 68.6863L66.565 66.565L66.565 66.565L68.6863 68.6863ZM91.3137 68.6863L93.435 66.565L93.435 66.565L91.3137 68.6863ZM91.3137 91.3137L93.435 93.435L93.435 93.435L91.3137 91.3137ZM68.6863 91.3137L66.565 93.435L66.565 93.435L68.6863 91.3137ZM80 29H64V35H80V29ZM93.435 34.565C89.8718 31.0018 85.0391 29 80 29V35C83.4478 35 86.7544 36.3696 89.1924 38.8076L93.435 34.565ZM99 48C99 42.9609 96.9982 38.1282 93.435 34.565L89.1924 38.8076C91.6304 41.2456 93 44.5522 93 48H99ZM93.435 61.435C96.9982 57.8718 99 53.0391 99 48H93C93 51.4478 91.6304 54.7544 89.1924 57.1924L93.435 61.435ZM80 67C85.0391 67 89.8718 64.9982 93.435 61.435L89.1924 57.1924C86.7544 59.6304 83.4478 61 80 61V67ZM64 67H80V61H64V67ZM67 80V64H61V80H67ZM67 96V80H61V96H67ZM67 112V96H61V112H67ZM61.435 125.435C64.9982 121.872 67 117.039 67 112H61C61 115.448 59.6304 118.754 57.1924 121.192L61.435 125.435ZM48 131C53.0391 131 57.8718 128.998 61.435 125.435L57.1924 121.192C54.7544 123.63 51.4478 125 48 125V131ZM34.565 125.435C38.1282 128.998 42.9609 131 48 131V125C44.5522 125 41.2456 123.63 38.8076 121.192L34.565 125.435ZM29 112C29 117.039 31.0018 121.872 34.565 125.435L38.8076 121.192C36.3696 118.754 35 115.448 35 112H29ZM34.565 98.565C31.0018 102.128 29 106.961 29 112H35C35 108.552 36.3696 105.246 38.8076 102.808L34.565 98.565ZM48 93C42.9609 93 38.1282 95.0018 34.565 98.565L38.8076 102.808C41.2456 100.37 44.5522 99 48 99V93ZM34.565 93.435C38.1282 96.9982 42.9609 99 48 99V93C44.5522 93 41.2456 91.6304 38.8076 89.1924L34.565 93.435ZM29 80C29 85.0391 31.0018 89.8718 34.565 93.435L38.8076 89.1924C36.3696 86.7544 35 83.4478 35 80H29ZM34.565 66.565C31.0018 70.1282 29 74.9609 29 80H35C35 76.5522 36.3696 73.2456 38.8076 70.8076L34.565 66.565ZM48 61C42.9609 61 38.1282 63.0018 34.565 66.565L38.8076 70.8076C41.2456 68.3696 44.5522 67 48 67V61ZM34.565 61.435C38.1282 64.9982 42.9609 67 48 67V61C44.5522 61 41.2456 59.6304 38.8076 57.1924L34.565 61.435ZM29 48C29 53.0391 31.0018 57.8718 34.565 61.435L38.8076 57.1924C36.3696 54.7544 35 51.4478 35 48H29ZM34.565 34.565C31.0018 38.1282 29 42.9609 29 48H35C35 44.5522 36.3696 41.2456 38.8076 38.8076L34.565 34.565ZM48 29C42.9609 29 38.1282 31.0018 34.565 34.565L38.8076 38.8076C41.2456 36.3696 44.5522 35 48 35V29ZM64 29H48V35H64V29ZM66.565 66.565C63.0018 70.1282 61 74.9609 61 80H67C67 76.5522 68.3696 73.2456 70.8076 70.8076L66.565 66.565ZM80 61C74.9609 61 70.1282 63.0018 66.565 66.565L70.8076 70.8076C73.2456 68.3696 76.5522 67 80 67V61ZM93.435 66.565C89.8718 63.0018 85.0391 61 80 61V67C83.4478 67 86.7544 68.3696 89.1924 70.8076L93.435 66.565ZM99 80C99 74.9609 96.9982 70.1282 93.435 66.565L89.1924 70.8076C91.6304 73.2456 93 76.5522 93 80H99ZM93.435 93.435C96.9982 89.8718 99 85.0391 99 80H93C93 83.4478 91.6304 86.7544 89.1924 89.1924L93.435 93.435ZM80 99C85.0391 99 89.8718 96.9982 93.435 93.435L89.1924 89.1924C86.7544 91.6304 83.4478 93 80 93V99ZM66.565 93.435C70.1282 96.9982 74.9609 99 80 99V93C76.5522 93 73.2456 91.6304 70.8076 89.1924L66.565 93.435ZM61 80C61 85.0391 63.0018 89.8718 66.565 93.435L70.8076 89.1924C68.3696 86.7544 67 83.4478 67 80H61Z" fill="url(#paint4_linear_204_1592)" mask="url(#path-3-inside-2_204_1592)"/>
<path d="M91.3137 36.6863L93.435 34.565L93.435 34.565L91.3137 36.6863ZM91.3137 59.3137L93.435 61.435L93.435 61.435L91.3137 59.3137ZM64 64V61H61V64H64ZM59.3137 123.314L57.1924 121.192L57.1924 121.192L59.3137 123.314ZM36.6863 123.314L38.8076 121.192L38.8076 121.192L36.6863 123.314ZM36.6863 100.686L38.8076 102.808L38.8076 102.808L36.6863 100.686ZM36.6863 91.3137L34.565 93.435L34.565 93.435L36.6863 91.3137ZM36.6863 68.6863L34.565 66.565L34.565 66.565L36.6863 68.6863ZM36.6863 59.3137L38.8076 57.1924L38.8076 57.1924L36.6863 59.3137ZM36.6863 36.6863L34.565 34.565L34.565 34.565L36.6863 36.6863ZM68.6863 68.6863L66.565 66.565L66.565 66.565L68.6863 68.6863ZM91.3137 68.6863L93.435 66.565L93.435 66.565L91.3137 68.6863ZM91.3137 91.3137L93.435 93.435L93.435 93.435L91.3137 91.3137ZM68.6863 91.3137L66.565 93.435L66.565 93.435L68.6863 91.3137ZM80 29H64V35H80V29ZM93.435 34.565C89.8718 31.0018 85.0391 29 80 29V35C83.4478 35 86.7544 36.3696 89.1924 38.8076L93.435 34.565ZM99 48C99 42.9609 96.9982 38.1282 93.435 34.565L89.1924 38.8076C91.6304 41.2456 93 44.5522 93 48H99ZM93.435 61.435C96.9982 57.8718 99 53.0391 99 48H93C93 51.4478 91.6304 54.7544 89.1924 57.1924L93.435 61.435ZM80 67C85.0391 67 89.8718 64.9982 93.435 61.435L89.1924 57.1924C86.7544 59.6304 83.4478 61 80 61V67ZM64 67H80V61H64V67ZM67 80V64H61V80H67ZM67 96V80H61V96H67ZM67 112V96H61V112H67ZM61.435 125.435C64.9982 121.872 67 117.039 67 112H61C61 115.448 59.6304 118.754 57.1924 121.192L61.435 125.435ZM48 131C53.0391 131 57.8718 128.998 61.435 125.435L57.1924 121.192C54.7544 123.63 51.4478 125 48 125V131ZM34.565 125.435C38.1282 128.998 42.9609 131 48 131V125C44.5522 125 41.2456 123.63 38.8076 121.192L34.565 125.435ZM29 112C29 117.039 31.0018 121.872 34.565 125.435L38.8076 121.192C36.3696 118.754 35 115.448 35 112H29ZM34.565 98.565C31.0018 102.128 29 106.961 29 112H35C35 108.552 36.3696 105.246 38.8076 102.808L34.565 98.565ZM48 93C42.9609 93 38.1282 95.0018 34.565 98.565L38.8076 102.808C41.2456 100.37 44.5522 99 48 99V93ZM34.565 93.435C38.1282 96.9982 42.9609 99 48 99V93C44.5522 93 41.2456 91.6304 38.8076 89.1924L34.565 93.435ZM29 80C29 85.0391 31.0018 89.8718 34.565 93.435L38.8076 89.1924C36.3696 86.7544 35 83.4478 35 80H29ZM34.565 66.565C31.0018 70.1282 29 74.9609 29 80H35C35 76.5522 36.3696 73.2456 38.8076 70.8076L34.565 66.565ZM48 61C42.9609 61 38.1282 63.0018 34.565 66.565L38.8076 70.8076C41.2456 68.3696 44.5522 67 48 67V61ZM34.565 61.435C38.1282 64.9982 42.9609 67 48 67V61C44.5522 61 41.2456 59.6304 38.8076 57.1924L34.565 61.435ZM29 48C29 53.0391 31.0018 57.8718 34.565 61.435L38.8076 57.1924C36.3696 54.7544 35 51.4478 35 48H29ZM34.565 34.565C31.0018 38.1282 29 42.9609 29 48H35C35 44.5522 36.3696 41.2456 38.8076 38.8076L34.565 34.565ZM48 29C42.9609 29 38.1282 31.0018 34.565 34.565L38.8076 38.8076C41.2456 36.3696 44.5522 35 48 35V29ZM64 29H48V35H64V29ZM66.565 66.565C63.0018 70.1282 61 74.9609 61 80H67C67 76.5522 68.3696 73.2456 70.8076 70.8076L66.565 66.565ZM80 61C74.9609 61 70.1282 63.0018 66.565 66.565L70.8076 70.8076C73.2456 68.3696 76.5522 67 80 67V61ZM93.435 66.565C89.8718 63.0018 85.0391 61 80 61V67C83.4478 67 86.7544 68.3696 89.1924 70.8076L93.435 66.565ZM99 80C99 74.9609 96.9982 70.1282 93.435 66.565L89.1924 70.8076C91.6304 73.2456 93 76.5522 93 80H99ZM93.435 93.435C96.9982 89.8718 99 85.0391 99 80H93C93 83.4478 91.6304 86.7544 89.1924 89.1924L93.435 93.435ZM80 99C85.0391 99 89.8718 96.9982 93.435 93.435L89.1924 89.1924C86.7544 91.6304 83.4478 93 80 93V99ZM66.565 93.435C70.1282 96.9982 74.9609 99 80 99V93C76.5522 93 73.2456 91.6304 70.8076 89.1924L66.565 93.435ZM61 80C61 85.0391 63.0018 89.8718 66.565 93.435L70.8076 89.1924C68.3696 86.7544 67 83.4478 67 80H61Z" fill="url(#paint5_linear_204_1592)" mask="url(#path-3-inside-2_204_1592)"/>
</g>
<g style="mix-blend-mode:plus-lighter" opacity="0.2" filter="url(#filter1_f_204_1592)">
<mask id="path-5-inside-3_204_1592" fill="white">
<path fill-rule="evenodd" clip-rule="evenodd" d="M64 32H80C84.2435 32 88.3131 33.6857 91.3137 36.6863C94.3143 39.6869 96 43.7565 96 48C96 52.2435 94.3143 56.3131 91.3137 59.3137C88.3131 62.3143 84.2435 64 80 64H64V80V96V112C64 116.243 62.3143 120.313 59.3137 123.314C56.3131 126.314 52.2435 128 48 128C43.7565 128 39.6869 126.314 36.6863 123.314C33.6857 120.313 32 116.243 32 112C32 107.757 33.6857 103.687 36.6863 100.686C39.6869 97.6857 43.7565 96 48 96C43.7565 96 39.6869 94.3143 36.6863 91.3137C33.6857 88.3131 32 84.2435 32 80C32 75.7565 33.6857 71.6869 36.6863 68.6863C39.6869 65.6857 43.7565 64 48 64C43.7565 64 39.6869 62.3143 36.6863 59.3137C33.6857 56.3131 32 52.2435 32 48C32 43.7565 33.6857 39.6869 36.6863 36.6863C39.6869 33.6857 43.7565 32 48 32H64ZM64 80C64 75.7565 65.6857 71.6869 68.6863 68.6863C71.6869 65.6857 75.7565 64 80 64C84.2435 64 88.3131 65.6857 91.3137 68.6863C94.3143 71.6869 96 75.7565 96 80C96 84.2435 94.3143 88.3131 91.3137 91.3137C88.3131 94.3143 84.2435 96 80 96C75.7565 96 71.6869 94.3143 68.6863 91.3137C65.6857 88.3131 64 84.2435 64 80Z"/>
</mask>
<path fill-rule="evenodd" clip-rule="evenodd" d="M64 32H80C84.2435 32 88.3131 33.6857 91.3137 36.6863C94.3143 39.6869 96 43.7565 96 48C96 52.2435 94.3143 56.3131 91.3137 59.3137C88.3131 62.3143 84.2435 64 80 64H64V80V96V112C64 116.243 62.3143 120.313 59.3137 123.314C56.3131 126.314 52.2435 128 48 128C43.7565 128 39.6869 126.314 36.6863 123.314C33.6857 120.313 32 116.243 32 112C32 107.757 33.6857 103.687 36.6863 100.686C39.6869 97.6857 43.7565 96 48 96C43.7565 96 39.6869 94.3143 36.6863 91.3137C33.6857 88.3131 32 84.2435 32 80C32 75.7565 33.6857 71.6869 36.6863 68.6863C39.6869 65.6857 43.7565 64 48 64C43.7565 64 39.6869 62.3143 36.6863 59.3137C33.6857 56.3131 32 52.2435 32 48C32 43.7565 33.6857 39.6869 36.6863 36.6863C39.6869 33.6857 43.7565 32 48 32H64ZM64 80C64 75.7565 65.6857 71.6869 68.6863 68.6863C71.6869 65.6857 75.7565 64 80 64C84.2435 64 88.3131 65.6857 91.3137 68.6863C94.3143 71.6869 96 75.7565 96 80C96 84.2435 94.3143 88.3131 91.3137 91.3137C88.3131 94.3143 84.2435 96 80 96C75.7565 96 71.6869 94.3143 68.6863 91.3137C65.6857 88.3131 64 84.2435 64 80Z" fill="url(#paint6_linear_204_1592)"/>
<path d="M91.3137 36.6863L93.435 34.565L93.435 34.565L91.3137 36.6863ZM91.3137 59.3137L93.435 61.435L93.435 61.435L91.3137 59.3137ZM64 64V61H61V64H64ZM59.3137 123.314L57.1924 121.192L57.1924 121.192L59.3137 123.314ZM36.6863 123.314L38.8076 121.192L38.8076 121.192L36.6863 123.314ZM36.6863 100.686L38.8076 102.808L38.8076 102.808L36.6863 100.686ZM36.6863 91.3137L34.565 93.435L34.565 93.435L36.6863 91.3137ZM36.6863 68.6863L34.565 66.565L34.565 66.565L36.6863 68.6863ZM36.6863 59.3137L38.8076 57.1924L38.8076 57.1924L36.6863 59.3137ZM36.6863 36.6863L34.565 34.565L34.565 34.565L36.6863 36.6863ZM68.6863 68.6863L66.565 66.565L66.565 66.565L68.6863 68.6863ZM91.3137 68.6863L93.435 66.565L93.435 66.565L91.3137 68.6863ZM91.3137 91.3137L93.435 93.435L93.435 93.435L91.3137 91.3137ZM68.6863 91.3137L66.565 93.435L66.565 93.435L68.6863 91.3137ZM80 29H64V35H80V29ZM93.435 34.565C89.8718 31.0018 85.0391 29 80 29V35C83.4478 35 86.7544 36.3696 89.1924 38.8076L93.435 34.565ZM99 48C99 42.9609 96.9982 38.1282 93.435 34.565L89.1924 38.8076C91.6304 41.2456 93 44.5522 93 48H99ZM93.435 61.435C96.9982 57.8718 99 53.0391 99 48H93C93 51.4478 91.6304 54.7544 89.1924 57.1924L93.435 61.435ZM80 67C85.0391 67 89.8718 64.9982 93.435 61.435L89.1924 57.1924C86.7544 59.6304 83.4478 61 80 61V67ZM64 67H80V61H64V67ZM67 80V64H61V80H67ZM67 96V80H61V96H67ZM67 112V96H61V112H67ZM61.435 125.435C64.9982 121.872 67 117.039 67 112H61C61 115.448 59.6304 118.754 57.1924 121.192L61.435 125.435ZM48 131C53.0391 131 57.8718 128.998 61.435 125.435L57.1924 121.192C54.7544 123.63 51.4478 125 48 125V131ZM34.565 125.435C38.1282 128.998 42.9609 131 48 131V125C44.5522 125 41.2456 123.63 38.8076 121.192L34.565 125.435ZM29 112C29 117.039 31.0018 121.872 34.565 125.435L38.8076 121.192C36.3696 118.754 35 115.448 35 112H29ZM34.565 98.565C31.0018 102.128 29 106.961 29 112H35C35 108.552 36.3696 105.246 38.8076 102.808L34.565 98.565ZM48 93C42.9609 93 38.1282 95.0018 34.565 98.565L38.8076 102.808C41.2456 100.37 44.5522 99 48 99V93ZM34.565 93.435C38.1282 96.9982 42.9609 99 48 99V93C44.5522 93 41.2456 91.6304 38.8076 89.1924L34.565 93.435ZM29 80C29 85.0391 31.0018 89.8718 34.565 93.435L38.8076 89.1924C36.3696 86.7544 35 83.4478 35 80H29ZM34.565 66.565C31.0018 70.1282 29 74.9609 29 80H35C35 76.5522 36.3696 73.2456 38.8076 70.8076L34.565 66.565ZM48 61C42.9609 61 38.1282 63.0018 34.565 66.565L38.8076 70.8076C41.2456 68.3696 44.5522 67 48 67V61ZM34.565 61.435C38.1282 64.9982 42.9609 67 48 67V61C44.5522 61 41.2456 59.6304 38.8076 57.1924L34.565 61.435ZM29 48C29 53.0391 31.0018 57.8718 34.565 61.435L38.8076 57.1924C36.3696 54.7544 35 51.4478 35 48H29ZM34.565 34.565C31.0018 38.1282 29 42.9609 29 48H35C35 44.5522 36.3696 41.2456 38.8076 38.8076L34.565 34.565ZM48 29C42.9609 29 38.1282 31.0018 34.565 34.565L38.8076 38.8076C41.2456 36.3696 44.5522 35 48 35V29ZM64 29H48V35H64V29ZM66.565 66.565C63.0018 70.1282 61 74.9609 61 80H67C67 76.5522 68.3696 73.2456 70.8076 70.8076L66.565 66.565ZM80 61C74.9609 61 70.1282 63.0018 66.565 66.565L70.8076 70.8076C73.2456 68.3696 76.5522 67 80 67V61ZM93.435 66.565C89.8718 63.0018 85.0391 61 80 61V67C83.4478 67 86.7544 68.3696 89.1924 70.8076L93.435 66.565ZM99 80C99 74.9609 96.9982 70.1282 93.435 66.565L89.1924 70.8076C91.6304 73.2456 93 76.5522 93 80H99ZM93.435 93.435C96.9982 89.8718 99 85.0391 99 80H93C93 83.4478 91.6304 86.7544 89.1924 89.1924L93.435 93.435ZM80 99C85.0391 99 89.8718 96.9982 93.435 93.435L89.1924 89.1924C86.7544 91.6304 83.4478 93 80 93V99ZM66.565 93.435C70.1282 96.9982 74.9609 99 80 99V93C76.5522 93 73.2456 91.6304 70.8076 89.1924L66.565 93.435ZM61 80C61 85.0391 63.0018 89.8718 66.565 93.435L70.8076 89.1924C68.3696 86.7544 67 83.4478 67 80H61Z" fill="url(#paint7_linear_204_1592)" mask="url(#path-5-inside-3_204_1592)"/>
<path d="M91.3137 36.6863L93.435 34.565L93.435 34.565L91.3137 36.6863ZM91.3137 59.3137L93.435 61.435L93.435 61.435L91.3137 59.3137ZM64 64V61H61V64H64ZM59.3137 123.314L57.1924 121.192L57.1924 121.192L59.3137 123.314ZM36.6863 123.314L38.8076 121.192L38.8076 121.192L36.6863 123.314ZM36.6863 100.686L38.8076 102.808L38.8076 102.808L36.6863 100.686ZM36.6863 91.3137L34.565 93.435L34.565 93.435L36.6863 91.3137ZM36.6863 68.6863L34.565 66.565L34.565 66.565L36.6863 68.6863ZM36.6863 59.3137L38.8076 57.1924L38.8076 57.1924L36.6863 59.3137ZM36.6863 36.6863L34.565 34.565L34.565 34.565L36.6863 36.6863ZM68.6863 68.6863L66.565 66.565L66.565 66.565L68.6863 68.6863ZM91.3137 68.6863L93.435 66.565L93.435 66.565L91.3137 68.6863ZM91.3137 91.3137L93.435 93.435L93.435 93.435L91.3137 91.3137ZM68.6863 91.3137L66.565 93.435L66.565 93.435L68.6863 91.3137ZM80 29H64V35H80V29ZM93.435 34.565C89.8718 31.0018 85.0391 29 80 29V35C83.4478 35 86.7544 36.3696 89.1924 38.8076L93.435 34.565ZM99 48C99 42.9609 96.9982 38.1282 93.435 34.565L89.1924 38.8076C91.6304 41.2456 93 44.5522 93 48H99ZM93.435 61.435C96.9982 57.8718 99 53.0391 99 48H93C93 51.4478 91.6304 54.7544 89.1924 57.1924L93.435 61.435ZM80 67C85.0391 67 89.8718 64.9982 93.435 61.435L89.1924 57.1924C86.7544 59.6304 83.4478 61 80 61V67ZM64 67H80V61H64V67ZM67 80V64H61V80H67ZM67 96V80H61V96H67ZM67 112V96H61V112H67ZM61.435 125.435C64.9982 121.872 67 117.039 67 112H61C61 115.448 59.6304 118.754 57.1924 121.192L61.435 125.435ZM48 131C53.0391 131 57.8718 128.998 61.435 125.435L57.1924 121.192C54.7544 123.63 51.4478 125 48 125V131ZM34.565 125.435C38.1282 128.998 42.9609 131 48 131V125C44.5522 125 41.2456 123.63 38.8076 121.192L34.565 125.435ZM29 112C29 117.039 31.0018 121.872 34.565 125.435L38.8076 121.192C36.3696 118.754 35 115.448 35 112H29ZM34.565 98.565C31.0018 102.128 29 106.961 29 112H35C35 108.552 36.3696 105.246 38.8076 102.808L34.565 98.565ZM48 93C42.9609 93 38.1282 95.0018 34.565 98.565L38.8076 102.808C41.2456 100.37 44.5522 99 48 99V93ZM34.565 93.435C38.1282 96.9982 42.9609 99 48 99V93C44.5522 93 41.2456 91.6304 38.8076 89.1924L34.565 93.435ZM29 80C29 85.0391 31.0018 89.8718 34.565 93.435L38.8076 89.1924C36.3696 86.7544 35 83.4478 35 80H29ZM34.565 66.565C31.0018 70.1282 29 74.9609 29 80H35C35 76.5522 36.3696 73.2456 38.8076 70.8076L34.565 66.565ZM48 61C42.9609 61 38.1282 63.0018 34.565 66.565L38.8076 70.8076C41.2456 68.3696 44.5522 67 48 67V61ZM34.565 61.435C38.1282 64.9982 42.9609 67 48 67V61C44.5522 61 41.2456 59.6304 38.8076 57.1924L34.565 61.435ZM29 48C29 53.0391 31.0018 57.8718 34.565 61.435L38.8076 57.1924C36.3696 54.7544 35 51.4478 35 48H29ZM34.565 34.565C31.0018 38.1282 29 42.9609 29 48H35C35 44.5522 36.3696 41.2456 38.8076 38.8076L34.565 34.565ZM48 29C42.9609 29 38.1282 31.0018 34.565 34.565L38.8076 38.8076C41.2456 36.3696 44.5522 35 48 35V29ZM64 29H48V35H64V29ZM66.565 66.565C63.0018 70.1282 61 74.9609 61 80H67C67 76.5522 68.3696 73.2456 70.8076 70.8076L66.565 66.565ZM80 61C74.9609 61 70.1282 63.0018 66.565 66.565L70.8076 70.8076C73.2456 68.3696 76.5522 67 80 67V61ZM93.435 66.565C89.8718 63.0018 85.0391 61 80 61V67C83.4478 67 86.7544 68.3696 89.1924 70.8076L93.435 66.565ZM99 80C99 74.9609 96.9982 70.1282 93.435 66.565L89.1924 70.8076C91.6304 73.2456 93 76.5522 93 80H99ZM93.435 93.435C96.9982 89.8718 99 85.0391 99 80H93C93 83.4478 91.6304 86.7544 89.1924 89.1924L93.435 93.435ZM80 99C85.0391 99 89.8718 96.9982 93.435 93.435L89.1924 89.1924C86.7544 91.6304 83.4478 93 80 93V99ZM66.565 93.435C70.1282 96.9982 74.9609 99 80 99V93C76.5522 93 73.2456 91.6304 70.8076 89.1924L66.565 93.435ZM61 80C61 85.0391 63.0018 89.8718 66.565 93.435L70.8076 89.1924C68.3696 86.7544 67 83.4478 67 80H61Z" fill="url(#paint8_linear_204_1592)" mask="url(#path-5-inside-3_204_1592)"/>
</g>
<g style="mix-blend-mode:plus-lighter" opacity="0.8" filter="url(#filter2_f_204_1592)">
<mask id="path-7-inside-4_204_1592" fill="white">
<path fill-rule="evenodd" clip-rule="evenodd" d="M64 32H80C84.2435 32 88.3131 33.6857 91.3137 36.6863C94.3143 39.6869 96 43.7565 96 48C96 52.2435 94.3143 56.3131 91.3137 59.3137C88.3131 62.3143 84.2435 64 80 64H64V80V96V112C64 116.243 62.3143 120.313 59.3137 123.314C56.3131 126.314 52.2435 128 48 128C43.7565 128 39.6869 126.314 36.6863 123.314C33.6857 120.313 32 116.243 32 112C32 107.757 33.6857 103.687 36.6863 100.686C39.6869 97.6857 43.7565 96 48 96C43.7565 96 39.6869 94.3143 36.6863 91.3137C33.6857 88.3131 32 84.2435 32 80C32 75.7565 33.6857 71.6869 36.6863 68.6863C39.6869 65.6857 43.7565 64 48 64C43.7565 64 39.6869 62.3143 36.6863 59.3137C33.6857 56.3131 32 52.2435 32 48C32 43.7565 33.6857 39.6869 36.6863 36.6863C39.6869 33.6857 43.7565 32 48 32H64ZM64 80C64 75.7565 65.6857 71.6869 68.6863 68.6863C71.6869 65.6857 75.7565 64 80 64C84.2435 64 88.3131 65.6857 91.3137 68.6863C94.3143 71.6869 96 75.7565 96 80C96 84.2435 94.3143 88.3131 91.3137 91.3137C88.3131 94.3143 84.2435 96 80 96C75.7565 96 71.6869 94.3143 68.6863 91.3137C65.6857 88.3131 64 84.2435 64 80Z"/>
</mask>
<path d="M91.3137 36.6863L93.435 34.565L93.435 34.565L91.3137 36.6863ZM91.3137 59.3137L93.435 61.435L93.435 61.435L91.3137 59.3137ZM64 64V61H61V64H64ZM59.3137 123.314L57.1924 121.192L57.1924 121.192L59.3137 123.314ZM36.6863 123.314L38.8076 121.192L38.8076 121.192L36.6863 123.314ZM36.6863 100.686L38.8076 102.808L38.8076 102.808L36.6863 100.686ZM36.6863 91.3137L34.565 93.435L34.565 93.435L36.6863 91.3137ZM36.6863 68.6863L34.565 66.565L34.565 66.565L36.6863 68.6863ZM36.6863 59.3137L38.8076 57.1924L38.8076 57.1924L36.6863 59.3137ZM36.6863 36.6863L34.565 34.565L34.565 34.565L36.6863 36.6863ZM68.6863 68.6863L66.565 66.565L66.565 66.565L68.6863 68.6863ZM91.3137 68.6863L93.435 66.565L93.435 66.565L91.3137 68.6863ZM91.3137 91.3137L93.435 93.435L93.435 93.435L91.3137 91.3137ZM68.6863 91.3137L66.565 93.435L66.565 93.435L68.6863 91.3137ZM80 29H64V35H80V29ZM93.435 34.565C89.8718 31.0018 85.0391 29 80 29V35C83.4478 35 86.7544 36.3696 89.1924 38.8076L93.435 34.565ZM99 48C99 42.9609 96.9982 38.1282 93.435 34.565L89.1924 38.8076C91.6304 41.2456 93 44.5522 93 48H99ZM93.435 61.435C96.9982 57.8718 99 53.0391 99 48H93C93 51.4478 91.6304 54.7544 89.1924 57.1924L93.435 61.435ZM80 67C85.0391 67 89.8718 64.9982 93.435 61.435L89.1924 57.1924C86.7544 59.6304 83.4478 61 80 61V67ZM64 67H80V61H64V67ZM67 80V64H61V80H67ZM67 96V80H61V96H67ZM67 112V96H61V112H67ZM61.435 125.435C64.9982 121.872 67 117.039 67 112H61C61 115.448 59.6304 118.754 57.1924 121.192L61.435 125.435ZM48 131C53.0391 131 57.8718 128.998 61.435 125.435L57.1924 121.192C54.7544 123.63 51.4478 125 48 125V131ZM34.565 125.435C38.1282 128.998 42.9609 131 48 131V125C44.5522 125 41.2456 123.63 38.8076 121.192L34.565 125.435ZM29 112C29 117.039 31.0018 121.872 34.565 125.435L38.8076 121.192C36.3696 118.754 35 115.448 35 112H29ZM34.565 98.565C31.0018 102.128 29 106.961 29 112H35C35 108.552 36.3696 105.246 38.8076 102.808L34.565 98.565ZM48 93C42.9609 93 38.1282 95.0018 34.565 98.565L38.8076 102.808C41.2456 100.37 44.5522 99 48 99V93ZM34.565 93.435C38.1282 96.9982 42.9609 99 48 99V93C44.5522 93 41.2456 91.6304 38.8076 89.1924L34.565 93.435ZM29 80C29 85.0391 31.0018 89.8718 34.565 93.435L38.8076 89.1924C36.3696 86.7544 35 83.4478 35 80H29ZM34.565 66.565C31.0018 70.1282 29 74.9609 29 80H35C35 76.5522 36.3696 73.2456 38.8076 70.8076L34.565 66.565ZM48 61C42.9609 61 38.1282 63.0018 34.565 66.565L38.8076 70.8076C41.2456 68.3696 44.5522 67 48 67V61ZM34.565 61.435C38.1282 64.9982 42.9609 67 48 67V61C44.5522 61 41.2456 59.6304 38.8076 57.1924L34.565 61.435ZM29 48C29 53.0391 31.0018 57.8718 34.565 61.435L38.8076 57.1924C36.3696 54.7544 35 51.4478 35 48H29ZM34.565 34.565C31.0018 38.1282 29 42.9609 29 48H35C35 44.5522 36.3696 41.2456 38.8076 38.8076L34.565 34.565ZM48 29C42.9609 29 38.1282 31.0018 34.565 34.565L38.8076 38.8076C41.2456 36.3696 44.5522 35 48 35V29ZM64 29H48V35H64V29ZM66.565 66.565C63.0018 70.1282 61 74.9609 61 80H67C67 76.5522 68.3696 73.2456 70.8076 70.8076L66.565 66.565ZM80 61C74.9609 61 70.1282 63.0018 66.565 66.565L70.8076 70.8076C73.2456 68.3696 76.5522 67 80 67V61ZM93.435 66.565C89.8718 63.0018 85.0391 61 80 61V67C83.4478 67 86.7544 68.3696 89.1924 70.8076L93.435 66.565ZM99 80C99 74.9609 96.9982 70.1282 93.435 66.565L89.1924 70.8076C91.6304 73.2456 93 76.5522 93 80H99ZM93.435 93.435C96.9982 89.8718 99 85.0391 99 80H93C93 83.4478 91.6304 86.7544 89.1924 89.1924L93.435 93.435ZM80 99C85.0391 99 89.8718 96.9982 93.435 93.435L89.1924 89.1924C86.7544 91.6304 83.4478 93 80 93V99ZM66.565 93.435C70.1282 96.9982 74.9609 99 80 99V93C76.5522 93 73.2456 91.6304 70.8076 89.1924L66.565 93.435ZM61 80C61 85.0391 63.0018 89.8718 66.565 93.435L70.8076 89.1924C68.3696 86.7544 67 83.4478 67 80H61Z" fill="url(#paint9_linear_204_1592)" mask="url(#path-7-inside-4_204_1592)"/>
<path d="M91.3137 36.6863L93.435 34.565L93.435 34.565L91.3137 36.6863ZM91.3137 59.3137L93.435 61.435L93.435 61.435L91.3137 59.3137ZM64 64V61H61V64H64ZM59.3137 123.314L57.1924 121.192L57.1924 121.192L59.3137 123.314ZM36.6863 123.314L38.8076 121.192L38.8076 121.192L36.6863 123.314ZM36.6863 100.686L38.8076 102.808L38.8076 102.808L36.6863 100.686ZM36.6863 91.3137L34.565 93.435L34.565 93.435L36.6863 91.3137ZM36.6863 68.6863L34.565 66.565L34.565 66.565L36.6863 68.6863ZM36.6863 59.3137L38.8076 57.1924L38.8076 57.1924L36.6863 59.3137ZM36.6863 36.6863L34.565 34.565L34.565 34.565L36.6863 36.6863ZM68.6863 68.6863L66.565 66.565L66.565 66.565L68.6863 68.6863ZM91.3137 68.6863L93.435 66.565L93.435 66.565L91.3137 68.6863ZM91.3137 91.3137L93.435 93.435L93.435 93.435L91.3137 91.3137ZM68.6863 91.3137L66.565 93.435L66.565 93.435L68.6863 91.3137ZM80 29H64V35H80V29ZM93.435 34.565C89.8718 31.0018 85.0391 29 80 29V35C83.4478 35 86.7544 36.3696 89.1924 38.8076L93.435 34.565ZM99 48C99 42.9609 96.9982 38.1282 93.435 34.565L89.1924 38.8076C91.6304 41.2456 93 44.5522 93 48H99ZM93.435 61.435C96.9982 57.8718 99 53.0391 99 48H93C93 51.4478 91.6304 54.7544 89.1924 57.1924L93.435 61.435ZM80 67C85.0391 67 89.8718 64.9982 93.435 61.435L89.1924 57.1924C86.7544 59.6304 83.4478 61 80 61V67ZM64 67H80V61H64V67ZM67 80V64H61V80H67ZM67 96V80H61V96H67ZM67 112V96H61V112H67ZM61.435 125.435C64.9982 121.872 67 117.039 67 112H61C61 115.448 59.6304 118.754 57.1924 121.192L61.435 125.435ZM48 131C53.0391 131 57.8718 128.998 61.435 125.435L57.1924 121.192C54.7544 123.63 51.4478 125 48 125V131ZM34.565 125.435C38.1282 128.998 42.9609 131 48 131V125C44.5522 125 41.2456 123.63 38.8076 121.192L34.565 125.435ZM29 112C29 117.039 31.0018 121.872 34.565 125.435L38.8076 121.192C36.3696 118.754 35 115.448 35 112H29ZM34.565 98.565C31.0018 102.128 29 106.961 29 112H35C35 108.552 36.3696 105.246 38.8076 102.808L34.565 98.565ZM48 93C42.9609 93 38.1282 95.0018 34.565 98.565L38.8076 102.808C41.2456 100.37 44.5522 99 48 99V93ZM34.565 93.435C38.1282 96.9982 42.9609 99 48 99V93C44.5522 93 41.2456 91.6304 38.8076 89.1924L34.565 93.435ZM29 80C29 85.0391 31.0018 89.8718 34.565 93.435L38.8076 89.1924C36.3696 86.7544 35 83.4478 35 80H29ZM34.565 66.565C31.0018 70.1282 29 74.9609 29 80H35C35 76.5522 36.3696 73.2456 38.8076 70.8076L34.565 66.565ZM48 61C42.9609 61 38.1282 63.0018 34.565 66.565L38.8076 70.8076C41.2456 68.3696 44.5522 67 48 67V61ZM34.565 61.435C38.1282 64.9982 42.9609 67 48 67V61C44.5522 61 41.2456 59.6304 38.8076 57.1924L34.565 61.435ZM29 48C29 53.0391 31.0018 57.8718 34.565 61.435L38.8076 57.1924C36.3696 54.7544 35 51.4478 35 48H29ZM34.565 34.565C31.0018 38.1282 29 42.9609 29 48H35C35 44.5522 36.3696 41.2456 38.8076 38.8076L34.565 34.565ZM48 29C42.9609 29 38.1282 31.0018 34.565 34.565L38.8076 38.8076C41.2456 36.3696 44.5522 35 48 35V29ZM64 29H48V35H64V29ZM66.565 66.565C63.0018 70.1282 61 74.9609 61 80H67C67 76.5522 68.3696 73.2456 70.8076 70.8076L66.565 66.565ZM80 61C74.9609 61 70.1282 63.0018 66.565 66.565L70.8076 70.8076C73.2456 68.3696 76.5522 67 80 67V61ZM93.435 66.565C89.8718 63.0018 85.0391 61 80 61V67C83.4478 67 86.7544 68.3696 89.1924 70.8076L93.435 66.565ZM99 80C99 74.9609 96.9982 70.1282 93.435 66.565L89.1924 70.8076C91.6304 73.2456 93 76.5522 93 80H99ZM93.435 93.435C96.9982 89.8718 99 85.0391 99 80H93C93 83.4478 91.6304 86.7544 89.1924 89.1924L93.435 93.435ZM80 99C85.0391 99 89.8718 96.9982 93.435 93.435L89.1924 89.1924C86.7544 91.6304 83.4478 93 80 93V99ZM66.565 93.435C70.1282 96.9982 74.9609 99 80 99V93C76.5522 93 73.2456 91.6304 70.8076 89.1924L66.565 93.435ZM61 80C61 85.0391 63.0018 89.8718 66.565 93.435L70.8076 89.1924C68.3696 86.7544 67 83.4478 67 80H61Z" fill="url(#paint10_linear_204_1592)" mask="url(#path-7-inside-4_204_1592)"/>
</g>
<defs>
<filter id="filter0_f_204_1592" x="16" y="16" width="96" height="128" filterUnits="userSpaceOnUse" color-interpolation-filters="sRGB">
<feFlood flood-opacity="0" result="BackgroundImageFix"/>
<feBlend mode="normal" in="SourceGraphic" in2="BackgroundImageFix" result="shape"/>
<feGaussianBlur stdDeviation="8" result="effect1_foregroundBlur_204_1592"/>
</filter>
<filter id="filter1_f_204_1592" x="0" y="0" width="128" height="160" filterUnits="userSpaceOnUse" color-interpolation-filters="sRGB">
<feFlood flood-opacity="0" result="BackgroundImageFix"/>
<feBlend mode="normal" in="SourceGraphic" in2="BackgroundImageFix" result="shape"/>
<feGaussianBlur stdDeviation="16" result="effect1_foregroundBlur_204_1592"/>
</filter>
<filter id="filter2_f_204_1592" x="16" y="16" width="96" height="128" filterUnits="userSpaceOnUse" color-interpolation-filters="sRGB">
<feFlood flood-opacity="0" result="BackgroundImageFix"/>
<feBlend mode="normal" in="SourceGraphic" in2="BackgroundImageFix" result="shape"/>
<feGaussianBlur stdDeviation="8" result="effect1_foregroundBlur_204_1592"/>
</filter>
<linearGradient id="paint0_linear_204_1592" x1="96" y1="32" x2="32" y2="128" gradientUnits="userSpaceOnUse">
<stop stop-color="#8880E3"/>
<stop offset="0.25" stop-color="#8880E3"/>
<stop offset="0.5" stop-color="#C9C5FF"/>
<stop offset="0.75" stop-color="#8880E3"/>
<stop offset="1" stop-color="#8880E3"/>
</linearGradient>
<linearGradient id="paint1_linear_204_1592" x1="54" y1="88.3333" x2="80" y2="128" gradientUnits="userSpaceOnUse">
<stop stop-opacity="0"/>
<stop offset="1" stop-opacity="0.4"/>
</linearGradient>
<linearGradient id="paint2_linear_204_1592" x1="72.3333" y1="61.3333" x2="39" y2="27.3333" gradientUnits="userSpaceOnUse">
<stop stop-color="white" stop-opacity="0"/>
<stop offset="1" stop-color="white" stop-opacity="0.45"/>
</linearGradient>
<linearGradient id="paint3_linear_204_1592" x1="96" y1="32" x2="32" y2="128" gradientUnits="userSpaceOnUse">
<stop stop-color="#8880E3"/>
<stop offset="0.25" stop-color="#8880E3"/>
<stop offset="0.5" stop-color="#C9C5FF"/>
<stop offset="0.75" stop-color="#8880E3"/>
<stop offset="1" stop-color="#8880E3"/>
</linearGradient>
<linearGradient id="paint4_linear_204_1592" x1="54" y1="88.3333" x2="80" y2="128" gradientUnits="userSpaceOnUse">
<stop stop-opacity="0"/>
<stop offset="1" stop-opacity="0.3"/>
</linearGradient>
<linearGradient id="paint5_linear_204_1592" x1="72.3333" y1="61.3333" x2="39" y2="27.3333" gradientUnits="userSpaceOnUse">
<stop stop-color="white" stop-opacity="0"/>
<stop offset="1" stop-color="white" stop-opacity="0.25"/>
</linearGradient>
<linearGradient id="paint6_linear_204_1592" x1="96" y1="32" x2="32" y2="128" gradientUnits="userSpaceOnUse">
<stop stop-color="#8880E3"/>
<stop offset="0.25" stop-color="#8880E3"/>
<stop offset="0.5" stop-color="#C9C5FF"/>
<stop offset="0.75" stop-color="#8880E3"/>
<stop offset="1" stop-color="#8880E3"/>
</linearGradient>
<linearGradient id="paint7_linear_204_1592" x1="54" y1="88.3333" x2="80" y2="128" gradientUnits="userSpaceOnUse">
<stop stop-opacity="0"/>
<stop offset="1" stop-opacity="0.3"/>
</linearGradient>
<linearGradient id="paint8_linear_204_1592" x1="72.3333" y1="61.3333" x2="39" y2="27.3333" gradientUnits="userSpaceOnUse">
<stop stop-color="white" stop-opacity="0"/>
<stop offset="1" stop-color="white" stop-opacity="0.25"/>
</linearGradient>
<linearGradient id="paint9_linear_204_1592" x1="54" y1="88.3333" x2="80" y2="128" gradientUnits="userSpaceOnUse">
<stop stop-opacity="0"/>
<stop offset="1" stop-opacity="0.3"/>
</linearGradient>
<linearGradient id="paint10_linear_204_1592" x1="72.3333" y1="61.3333" x2="39" y2="27.3333" gradientUnits="userSpaceOnUse">
<stop stop-color="white" stop-opacity="0"/>
<stop offset="1" stop-color="white" stop-opacity="0.25"/>
</linearGradient>
</defs>
</svg>
