<svg width="96" height="83" viewBox="0 0 96 83" fill="none" xmlns="http://www.w3.org/2000/svg">
<path d="M23.6579 42.0662C23.4936 42.1338 23.3002 42.0662 23.2132 41.9115C19.4676 35.2467 18.24 32.8979 17.95 32.1971C17.9162 32.1101 17.6456 31.4528 17.2734 30.5877C17.1188 30.23 16.8094 29.5147 16.8094 29.5147C16.7756 29.4567 16.7321 29.3698 16.6983 29.2586C16.6983 29.2586 16.592 28.9348 16.6355 28.5916C16.6983 28.1083 17.2396 27.7265 17.5102 27.5429C18.7717 26.6826 19.5111 26.3829 19.5111 26.3829C20.5599 25.9576 21.57 25.4356 22.6139 24.9958C24.2282 24.3144 23.9769 24.353 26.1711 23.3864C27.2827 22.8983 28.4861 22.3957 30.893 21.3952C33.3385 20.3803 33.4303 20.3561 34.6627 19.8293C35.2137 19.5925 34.9431 19.7085 37.9637 18.3891C38.8723 17.9927 40.2981 17.3741 41.371 16.9295C41.9123 16.7072 42.8451 16.3253 43.0868 16.2287C43.0868 16.2287 43.2801 16.1514 43.4057 16.103C43.4057 16.103 43.6426 16.0402 43.7441 16.016C43.9809 15.9725 44.2129 16.0257 44.3385 16.0789C44.7155 16.2383 44.8702 16.712 44.933 16.9053C45.5178 18.8192 46.1316 29.0266 46.1799 29.6452C46.1799 29.6839 46.2379 30.3605 46.2862 30.9792C46.2911 31.0565 46.3297 31.5495 46.3297 31.5495C46.3394 31.6268 46.3442 31.7331 46.3297 31.8588C46.3297 31.8588 46.3152 32.0183 46.2572 32.1681C46.1896 32.3324 46.0639 32.4677 45.8464 32.6031C45.5275 32.8061 44.7832 33.1589 43.7682 33.5407L23.6579 42.0662Z" fill="#CED7FF"/>
<path d="M25.4418 45.0288C25.1904 45.1448 25.0889 45.4445 25.2243 45.6861C25.5239 46.2322 25.8671 46.8509 26.2489 47.5275C27.4233 49.625 27.6988 50.089 28.1096 50.6158C28.7427 51.4229 28.994 51.7951 29.3372 52.1721C29.4484 52.2929 29.5015 52.4041 29.719 52.52C29.8737 52.6022 30.0283 52.607 30.1443 52.607C30.7388 52.5877 31.2849 52.2929 31.2849 52.2929C32.3917 51.7178 33.3583 51.1958 34.4457 50.6593C35.2335 50.2678 35.016 50.3838 36.5336 49.6879C36.9396 49.4994 37.6404 49.1756 40.5982 47.6145C40.9655 47.4212 41.6712 47.0442 43.5609 46.0486C44.6048 45.4976 45.3636 45.0965 46.2287 44.6953C47.1567 44.2604 47.6255 44.0429 47.7125 44.0187C47.7946 43.9945 48.1136 43.9027 48.4761 43.6804C48.6598 43.5692 48.7999 43.4774 48.9014 43.3421C49.1431 43.0038 49.0077 42.5156 48.9014 42.158C48.5679 41.0609 48.2489 40.3987 48.0121 39.7849C47.7173 39.0117 47.5433 38.3544 47.3065 37.4796C47.2437 37.2379 47.0213 36.3196 47.0213 36.3196C47.0213 36.3196 46.9923 36.107 46.944 35.9088C46.8957 35.7203 46.8715 35.6285 46.8184 35.5754C46.6975 35.4642 46.5042 35.4932 46.422 35.5125L25.4514 45.0385L25.4418 45.0288Z" fill="#8880E3"/>
<path d="M32.8705 56.0531C33.8903 57.0922 35.2242 58.3247 36.8916 59.5861C39.3033 61.4082 41.3332 62.4763 41.889 62.7614C43.0972 63.3849 45.3833 64.5448 48.5972 65.3229C51.5599 66.0382 53.8749 66.0866 55.8807 66.1252C57.1807 66.1494 58.9448 66.1784 61.255 65.8691C63.3187 65.5936 64.8846 65.1731 66.8662 64.6415C67.0692 64.5883 67.886 64.3273 69.5099 63.815C69.5099 63.815 70.4958 63.5009 71.0129 63.2206C71.1579 63.1384 71.3078 63.0659 71.4576 62.9886C71.7137 62.8532 71.7766 62.8146 71.9022 62.7759C72.0472 62.7324 72.1874 62.6841 72.3662 62.7131C72.6272 62.7518 72.7963 62.9112 72.8543 62.9692C73.0525 63.1626 73.0187 63.2931 73.1492 63.4139C73.328 63.5782 73.618 63.5492 74.0384 63.4574C75.034 63.2351 75.5463 63.1191 76.0683 62.6309C76.4163 62.3023 76.6869 62.0171 76.7691 61.6353C76.7836 61.558 76.8078 61.3937 76.9383 61.2777C77.0929 61.1327 77.3007 61.1375 77.4457 61.1278C77.4457 61.1278 77.929 61.1085 78.5477 60.8717C78.6347 60.8379 79.2098 60.6155 79.4805 60.1081C79.7656 59.5764 79.5723 58.9965 79.3935 58.4552C79.2871 58.1265 78.9633 57.1599 78.0595 56.3576C77.7019 56.0435 77.4167 55.797 77.0011 55.7632C76.6966 55.739 76.4985 55.8453 75.8605 56.0821C75.2177 56.319 74.889 56.4253 74.7199 56.4639C73.8983 56.6379 73.6953 56.4108 72.9413 56.6524C72.458 56.8119 72.2695 56.9956 72.1777 57.0971C72.1197 57.1647 71.8974 57.4354 71.8394 57.8172C71.8201 57.9574 71.7959 58.2618 71.7959 58.2618C71.7959 58.2618 70.694 58.3247 70.6553 58.3247C70.0222 58.3585 68.3644 58.3923 66.929 58.2618C64.6478 58.0492 62.8306 57.4402 61.8688 57.0777C59.9163 56.3335 58.5775 55.4683 58.2295 55.2364C56.6443 54.1876 55.6342 53.1436 54.8222 52.293C54.1552 51.5971 53.3965 50.6063 51.8789 48.6296C51.5647 48.2188 51.0476 47.5373 50.4821 46.5755C50.4483 46.5224 50.4193 46.4644 50.3903 46.416C50.2115 46.1067 49.82 45.9907 49.501 46.1599L32.711 54.84C32.421 54.9899 32.3388 55.3668 32.5418 55.623L32.8705 56.0386V56.0531Z" fill="#CED7FF"/>
<g style="mix-blend-mode:plus-lighter" opacity="0.3" filter="url(#filter0_f_407_1591)">
<path d="M23.6579 42.0662C23.4936 42.1338 23.3002 42.0662 23.2132 41.9115C19.4676 35.2467 18.24 32.8979 17.95 32.1971C17.9162 32.1101 17.6456 31.4528 17.2734 30.5877C17.1188 30.23 16.8094 29.5147 16.8094 29.5147C16.7756 29.4567 16.7321 29.3698 16.6983 29.2586C16.6983 29.2586 16.592 28.9348 16.6355 28.5916C16.6983 28.1083 17.2396 27.7265 17.5102 27.5429C18.7717 26.6826 19.5111 26.3829 19.5111 26.3829C20.5599 25.9576 21.57 25.4356 22.6139 24.9958C24.2282 24.3144 23.9769 24.353 26.1711 23.3864C27.2827 22.8983 28.4861 22.3957 30.893 21.3952C33.3385 20.3803 33.4303 20.3561 34.6627 19.8293C35.2137 19.5925 34.9431 19.7085 37.9637 18.3891C38.8723 17.9927 40.2981 17.3741 41.371 16.9295C41.9123 16.7072 42.8451 16.3253 43.0868 16.2287C43.0868 16.2287 43.2801 16.1514 43.4057 16.103C43.4057 16.103 43.6426 16.0402 43.7441 16.016C43.9809 15.9725 44.2129 16.0257 44.3385 16.0789C44.7155 16.2383 44.8702 16.712 44.933 16.9053C45.5178 18.8192 46.1316 29.0266 46.1799 29.6452C46.1799 29.6839 46.2379 30.3605 46.2862 30.9792C46.2911 31.0565 46.3297 31.5495 46.3297 31.5495C46.3394 31.6268 46.3442 31.7331 46.3297 31.8588C46.3297 31.8588 46.3152 32.0183 46.2572 32.1681C46.1896 32.3324 46.0639 32.4677 45.8464 32.6031C45.5275 32.8061 44.7832 33.1589 43.7682 33.5407L23.6579 42.0662Z" fill="#CED7FF"/>
<path d="M25.4418 45.0288C25.1904 45.1448 25.0889 45.4445 25.2243 45.6861C25.5239 46.2322 25.8671 46.8509 26.2489 47.5275C27.4233 49.625 27.6988 50.089 28.1096 50.6158C28.7427 51.4229 28.994 51.7951 29.3372 52.1721C29.4484 52.2929 29.5015 52.4041 29.719 52.52C29.8737 52.6022 30.0283 52.607 30.1443 52.607C30.7388 52.5877 31.2849 52.2929 31.2849 52.2929C32.3917 51.7178 33.3583 51.1958 34.4457 50.6593C35.2335 50.2678 35.016 50.3838 36.5336 49.6879C36.9396 49.4994 37.6404 49.1756 40.5982 47.6145C40.9655 47.4212 41.6712 47.0442 43.5609 46.0486C44.6048 45.4976 45.3636 45.0965 46.2287 44.6953C47.1567 44.2604 47.6255 44.0429 47.7125 44.0187C47.7946 43.9945 48.1136 43.9027 48.4761 43.6804C48.6598 43.5692 48.7999 43.4774 48.9014 43.3421C49.1431 43.0038 49.0077 42.5156 48.9014 42.158C48.5679 41.0609 48.2489 40.3987 48.0121 39.7849C47.7173 39.0117 47.5433 38.3544 47.3065 37.4796C47.2437 37.2379 47.0213 36.3196 47.0213 36.3196C47.0213 36.3196 46.9923 36.107 46.944 35.9088C46.8957 35.7203 46.8715 35.6285 46.8184 35.5754C46.6975 35.4642 46.5042 35.4932 46.422 35.5125L25.4514 45.0385L25.4418 45.0288Z" fill="#8880E3"/>
<path d="M32.8705 56.0531C33.8903 57.0922 35.2242 58.3247 36.8916 59.5861C39.3033 61.4082 41.3332 62.4763 41.889 62.7614C43.0972 63.3849 45.3833 64.5448 48.5972 65.3229C51.5599 66.0382 53.8749 66.0866 55.8807 66.1252C57.1807 66.1494 58.9448 66.1784 61.255 65.8691C63.3187 65.5936 64.8846 65.1731 66.8662 64.6415C67.0692 64.5883 67.886 64.3273 69.5099 63.815C69.5099 63.815 70.4958 63.5009 71.0129 63.2206C71.1579 63.1384 71.3078 63.0659 71.4576 62.9886C71.7137 62.8532 71.7766 62.8146 71.9022 62.7759C72.0472 62.7324 72.1874 62.6841 72.3662 62.7131C72.6272 62.7518 72.7963 62.9112 72.8543 62.9692C73.0525 63.1626 73.0187 63.2931 73.1492 63.4139C73.328 63.5782 73.618 63.5492 74.0384 63.4574C75.034 63.2351 75.5463 63.1191 76.0683 62.6309C76.4163 62.3023 76.6869 62.0171 76.7691 61.6353C76.7836 61.558 76.8078 61.3937 76.9383 61.2777C77.0929 61.1327 77.3007 61.1375 77.4457 61.1278C77.4457 61.1278 77.929 61.1085 78.5477 60.8717C78.6347 60.8379 79.2098 60.6155 79.4805 60.1081C79.7656 59.5764 79.5723 58.9965 79.3935 58.4552C79.2871 58.1265 78.9633 57.1599 78.0595 56.3576C77.7019 56.0435 77.4167 55.797 77.0011 55.7632C76.6966 55.739 76.4985 55.8453 75.8605 56.0821C75.2177 56.319 74.889 56.4253 74.7199 56.4639C73.8983 56.6379 73.6953 56.4108 72.9413 56.6524C72.458 56.8119 72.2695 56.9956 72.1777 57.0971C72.1197 57.1647 71.8974 57.4354 71.8394 57.8172C71.8201 57.9574 71.7959 58.2618 71.7959 58.2618C71.7959 58.2618 70.694 58.3247 70.6553 58.3247C70.0222 58.3585 68.3644 58.3923 66.929 58.2618C64.6478 58.0492 62.8306 57.4402 61.8688 57.0777C59.9163 56.3335 58.5775 55.4683 58.2295 55.2364C56.6443 54.1876 55.6342 53.1436 54.8222 52.293C54.1552 51.5971 53.3965 50.6063 51.8789 48.6296C51.5647 48.2188 51.0476 47.5373 50.4821 46.5755C50.4483 46.5224 50.4193 46.4644 50.3903 46.416C50.2115 46.1067 49.82 45.9907 49.501 46.1599L32.711 54.84C32.421 54.9899 32.3388 55.3668 32.5418 55.623L32.8705 56.0386V56.0531Z" fill="#CED7FF"/>
</g>
<defs>
<filter id="filter0_f_407_1591" x="0.625" y="0" width="95" height="82.1392" filterUnits="userSpaceOnUse" color-interpolation-filters="sRGB">
<feFlood flood-opacity="0" result="BackgroundImageFix"/>
<feBlend mode="normal" in="SourceGraphic" in2="BackgroundImageFix" result="shape"/>
<feGaussianBlur stdDeviation="8" result="effect1_foregroundBlur_407_1591"/>
</filter>
</defs>
</svg>
