<svg width="123" height="115" viewBox="0 0 123 115" fill="none" xmlns="http://www.w3.org/2000/svg">
<g filter="url(#filter0_iiii_308_4309)">
<path d="M53.3832 93.855C56.8473 99.855 65.5076 99.855 68.9717 93.855L105.065 31.3388C108.529 25.3388 104.199 17.8388 97.2711 17.8388H25.0837C18.1555 17.8388 13.8254 25.3388 17.2895 31.3388L53.3832 93.855Z" fill="#111111"/>
</g>
<path opacity="0.6" d="M105.498 31.5888L69.4047 94.105C65.7481 100.438 56.6067 100.438 52.9502 94.105L16.8565 31.5888C13.1999 25.2555 17.7706 17.3388 25.0837 17.3388H97.2711C104.584 17.3388 109.155 25.2555 105.498 31.5888Z" stroke="#454545"/>
<g opacity="0.6">
<path d="M105.498 31.5888L69.4047 94.105C65.7481 100.438 56.6067 100.438 52.9502 94.105L16.8565 31.5888C13.1999 25.2555 17.7706 17.3388 25.0837 17.3388H97.2711C104.584 17.3388 109.155 25.2555 105.498 31.5888Z" stroke="url(#paint0_linear_308_4309)"/>
<path d="M105.498 31.5888L69.4047 94.105C65.7481 100.438 56.6067 100.438 52.9502 94.105L16.8565 31.5888C13.1999 25.2555 17.7706 17.3388 25.0837 17.3388H97.2711C104.584 17.3388 109.155 25.2555 105.498 31.5888Z" stroke="url(#paint1_linear_308_4309)" stroke-opacity="0.6" style="mix-blend-mode:plus-lighter"/>
</g>
<g filter="url(#filter1_i_308_4309)">
<path d="M60.3117 87.0527C60.6966 87.7194 61.6588 87.7194 62.0437 87.0527L95.7104 28.7403C96.0953 28.0736 95.6142 27.2403 94.8444 27.2403H27.511C26.7412 27.2403 26.2601 28.0736 26.645 28.7403L60.3117 87.0527Z" stroke="#362CAC" stroke-width="5"/>
<path d="M60.3117 87.0527C60.6966 87.7194 61.6588 87.7194 62.0437 87.0527L95.7104 28.7403C96.0953 28.0736 95.6142 27.2403 94.8444 27.2403H27.511C26.7412 27.2403 26.2601 28.0736 26.645 28.7403L60.3117 87.0527Z" stroke="url(#paint2_linear_308_4309)" stroke-width="5"/>
<path d="M60.3117 87.0527C60.6966 87.7194 61.6588 87.7194 62.0437 87.0527L95.7104 28.7403C96.0953 28.0736 95.6142 27.2403 94.8444 27.2403H27.511C26.7412 27.2403 26.2601 28.0736 26.645 28.7403L60.3117 87.0527Z" stroke="url(#paint3_linear_308_4309)" stroke-width="5" style="mix-blend-mode:plus-lighter"/>
<path d="M60.3117 87.0527C60.6966 87.7194 61.6588 87.7194 62.0437 87.0527L95.7104 28.7403C96.0953 28.0736 95.6142 27.2403 94.8444 27.2403H27.511C26.7412 27.2403 26.2601 28.0736 26.645 28.7403L60.3117 87.0527Z" stroke="url(#paint4_linear_308_4309)" stroke-width="5"/>
<path d="M60.3117 87.0527C60.6966 87.7194 61.6588 87.7194 62.0437 87.0527L95.7104 28.7403C96.0953 28.0736 95.6142 27.2403 94.8444 27.2403H27.511C26.7412 27.2403 26.2601 28.0736 26.645 28.7403L60.3117 87.0527Z" stroke="url(#paint5_linear_308_4309)" stroke-width="5" style="mix-blend-mode:plus-lighter"/>
</g>
<g opacity="0.7">
<g filter="url(#filter2_f_308_4309)">
<path d="M60.3117 87.0527C60.6966 87.7194 61.6588 87.7194 62.0437 87.0527L95.7104 28.7403C96.0953 28.0736 95.6142 27.2403 94.8444 27.2403H27.511C26.7412 27.2403 26.2601 28.0736 26.645 28.7403L60.3117 87.0527Z" stroke="#362CAC" stroke-width="5"/>
<path d="M60.3117 87.0527C60.6966 87.7194 61.6588 87.7194 62.0437 87.0527L95.7104 28.7403C96.0953 28.0736 95.6142 27.2403 94.8444 27.2403H27.511C26.7412 27.2403 26.2601 28.0736 26.645 28.7403L60.3117 87.0527Z" stroke="url(#paint6_linear_308_4309)" stroke-width="5"/>
<path d="M60.3117 87.0527C60.6966 87.7194 61.6588 87.7194 62.0437 87.0527L95.7104 28.7403C96.0953 28.0736 95.6142 27.2403 94.8444 27.2403H27.511C26.7412 27.2403 26.2601 28.0736 26.645 28.7403L60.3117 87.0527Z" stroke="url(#paint7_linear_308_4309)" stroke-width="5"/>
</g>
<g style="mix-blend-mode:plus-lighter" filter="url(#filter3_f_308_4309)">
<path d="M60.3117 87.0527C60.6966 87.7194 61.6588 87.7194 62.0437 87.0527L95.7104 28.7403C96.0953 28.0736 95.6142 27.2403 94.8444 27.2403H27.511C26.7412 27.2403 26.2601 28.0736 26.645 28.7403L60.3117 87.0527Z" stroke="#362CAC" stroke-width="5"/>
<path d="M60.3117 87.0527C60.6966 87.7194 61.6588 87.7194 62.0437 87.0527L95.7104 28.7403C96.0953 28.0736 95.6142 27.2403 94.8444 27.2403H27.511C26.7412 27.2403 26.2601 28.0736 26.645 28.7403L60.3117 87.0527Z" stroke="url(#paint8_linear_308_4309)" stroke-width="5" style="mix-blend-mode:plus-lighter"/>
<path d="M60.3117 87.0527C60.6966 87.7194 61.6588 87.7194 62.0437 87.0527L95.7104 28.7403C96.0953 28.0736 95.6142 27.2403 94.8444 27.2403H27.511C26.7412 27.2403 26.2601 28.0736 26.645 28.7403L60.3117 87.0527Z" stroke="url(#paint9_linear_308_4309)" stroke-width="5" style="mix-blend-mode:plus-lighter"/>
</g>
<g style="mix-blend-mode:plus-lighter" filter="url(#filter4_f_308_4309)">
<path d="M60.3117 87.0527C60.6966 87.7194 61.6588 87.7194 62.0437 87.0527L95.7104 28.7403C96.0953 28.0736 95.6142 27.2403 94.8444 27.2403H27.511C26.7412 27.2403 26.2601 28.0736 26.645 28.7403L60.3117 87.0527Z" stroke="#362CAC" stroke-width="5"/>
<path d="M60.3117 87.0527C60.6966 87.7194 61.6588 87.7194 62.0437 87.0527L95.7104 28.7403C96.0953 28.0736 95.6142 27.2403 94.8444 27.2403H27.511C26.7412 27.2403 26.2601 28.0736 26.645 28.7403L60.3117 87.0527Z" stroke="url(#paint10_linear_308_4309)" stroke-width="5" style="mix-blend-mode:plus-lighter"/>
<path d="M60.3117 87.0527C60.6966 87.7194 61.6588 87.7194 62.0437 87.0527L95.7104 28.7403C96.0953 28.0736 95.6142 27.2403 94.8444 27.2403H27.511C26.7412 27.2403 26.2601 28.0736 26.645 28.7403L60.3117 87.0527Z" stroke="url(#paint11_linear_308_4309)" stroke-width="5" style="mix-blend-mode:plus-lighter"/>
</g>
</g>
<g style="mix-blend-mode:plus-lighter" opacity="0.3" filter="url(#filter5_f_308_4309)">
<path d="M60.3117 87.0527C60.6966 87.7194 61.6588 87.7194 62.0437 87.0527L95.7104 28.7403C96.0953 28.0736 95.6142 27.2403 94.8444 27.2403H27.511C26.7412 27.2403 26.2601 28.0736 26.645 28.7403L60.3117 87.0527Z" stroke="#362CAC" stroke-width="5"/>
<path d="M60.3117 87.0527C60.6966 87.7194 61.6588 87.7194 62.0437 87.0527L95.7104 28.7403C96.0953 28.0736 95.6142 27.2403 94.8444 27.2403H27.511C26.7412 27.2403 26.2601 28.0736 26.645 28.7403L60.3117 87.0527Z" stroke="url(#paint12_linear_308_4309)" stroke-width="5" style="mix-blend-mode:plus-lighter"/>
<path d="M60.3117 87.0527C60.6966 87.7194 61.6588 87.7194 62.0437 87.0527L95.7104 28.7403C96.0953 28.0736 95.6142 27.2403 94.8444 27.2403H27.511C26.7412 27.2403 26.2601 28.0736 26.645 28.7403L60.3117 87.0527Z" stroke="url(#paint13_linear_308_4309)" stroke-width="5" style="mix-blend-mode:plus-lighter"/>
</g>
<g filter="url(#filter6_d_308_4309)">
<mask id="path-9-inside-1_308_4309" fill="white">
<path d="M73.2576 40.3197C73.8099 40.3197 74.2616 40.7681 74.2194 41.3188C73.9818 44.4224 72.643 47.3523 70.4266 49.5687C67.9736 52.0216 64.6467 53.3997 61.1776 53.3997C57.7086 53.3997 54.3817 52.0216 51.9287 49.5687C49.7123 47.3523 48.3735 44.4224 48.1358 41.3188C48.0937 40.7681 48.5454 40.3197 49.0977 40.3197L61.1776 40.3197H73.2576Z"/>
</mask>
<path d="M73.2576 40.3197C73.8099 40.3197 74.2616 40.7681 74.2194 41.3188C73.9818 44.4224 72.643 47.3523 70.4266 49.5687C67.9736 52.0216 64.6467 53.3997 61.1776 53.3997C57.7086 53.3997 54.3817 52.0216 51.9287 49.5687C49.7123 47.3523 48.3735 44.4224 48.1358 41.3188C48.0937 40.7681 48.5454 40.3197 49.0977 40.3197L61.1776 40.3197H73.2576Z" fill="#222222"/>
<path d="M73.2576 40.3197C73.8099 40.3197 74.2616 40.7681 74.2194 41.3188C73.9818 44.4224 72.643 47.3523 70.4266 49.5687C67.9736 52.0216 64.6467 53.3997 61.1776 53.3997C57.7086 53.3997 54.3817 52.0216 51.9287 49.5687C49.7123 47.3523 48.3735 44.4224 48.1358 41.3188C48.0937 40.7681 48.5454 40.3197 49.0977 40.3197L61.1776 40.3197H73.2576Z" stroke="url(#paint14_linear_308_4309)" stroke-width="2" mask="url(#path-9-inside-1_308_4309)"/>
<path d="M73.2576 40.3197C73.8099 40.3197 74.2616 40.7681 74.2194 41.3188C73.9818 44.4224 72.643 47.3523 70.4266 49.5687C67.9736 52.0216 64.6467 53.3997 61.1776 53.3997C57.7086 53.3997 54.3817 52.0216 51.9287 49.5687C49.7123 47.3523 48.3735 44.4224 48.1358 41.3188C48.0937 40.7681 48.5454 40.3197 49.0977 40.3197L61.1776 40.3197H73.2576Z" stroke="url(#paint15_linear_308_4309)" stroke-width="2" style="mix-blend-mode:plus-lighter" mask="url(#path-9-inside-1_308_4309)"/>
</g>
<g opacity="0.8" filter="url(#filter7_d_308_4309)">
<mask id="path-10-inside-2_308_4309" fill="white">
<path d="M73.2576 40.3197C73.8099 40.3197 74.2616 40.7681 74.2194 41.3188C73.9818 44.4224 72.643 47.3523 70.4266 49.5687C67.9736 52.0216 64.6467 53.3997 61.1776 53.3997C57.7086 53.3997 54.3817 52.0216 51.9287 49.5687C49.7123 47.3523 48.3735 44.4224 48.1358 41.3188C48.0937 40.7681 48.5454 40.3197 49.0977 40.3197L61.1776 40.3197H73.2576Z"/>
</mask>
<path d="M73.2576 40.3197C73.8099 40.3197 74.2616 40.7681 74.2194 41.3188C73.9818 44.4224 72.643 47.3523 70.4266 49.5687C67.9736 52.0216 64.6467 53.3997 61.1776 53.3997C57.7086 53.3997 54.3817 52.0216 51.9287 49.5687C49.7123 47.3523 48.3735 44.4224 48.1358 41.3188C48.0937 40.7681 48.5454 40.3197 49.0977 40.3197L61.1776 40.3197H73.2576Z" stroke="url(#paint16_linear_308_4309)" stroke-width="2" shape-rendering="crispEdges" mask="url(#path-10-inside-2_308_4309)"/>
<path d="M73.2576 40.3197C73.8099 40.3197 74.2616 40.7681 74.2194 41.3188C73.9818 44.4224 72.643 47.3523 70.4266 49.5687C67.9736 52.0216 64.6467 53.3997 61.1776 53.3997C57.7086 53.3997 54.3817 52.0216 51.9287 49.5687C49.7123 47.3523 48.3735 44.4224 48.1358 41.3188C48.0937 40.7681 48.5454 40.3197 49.0977 40.3197L61.1776 40.3197H73.2576Z" stroke="url(#paint17_linear_308_4309)" stroke-width="2" style="mix-blend-mode:plus-lighter" shape-rendering="crispEdges" mask="url(#path-10-inside-2_308_4309)"/>
</g>
<g opacity="0.4" filter="url(#filter8_d_308_4309)">
<mask id="path-11-inside-3_308_4309" fill="white">
<path d="M73.2576 40.3197C73.8099 40.3197 74.2616 40.7681 74.2194 41.3188C73.9818 44.4224 72.643 47.3523 70.4266 49.5687C67.9736 52.0216 64.6467 53.3997 61.1776 53.3997C57.7086 53.3997 54.3817 52.0216 51.9287 49.5687C49.7123 47.3523 48.3735 44.4224 48.1358 41.3188C48.0937 40.7681 48.5454 40.3197 49.0977 40.3197L61.1776 40.3197H73.2576Z"/>
</mask>
<path d="M73.2576 40.3197C73.8099 40.3197 74.2616 40.7681 74.2194 41.3188C73.9818 44.4224 72.643 47.3523 70.4266 49.5687C67.9736 52.0216 64.6467 53.3997 61.1776 53.3997C57.7086 53.3997 54.3817 52.0216 51.9287 49.5687C49.7123 47.3523 48.3735 44.4224 48.1358 41.3188C48.0937 40.7681 48.5454 40.3197 49.0977 40.3197L61.1776 40.3197H73.2576Z" stroke="url(#paint18_linear_308_4309)" stroke-width="2" shape-rendering="crispEdges" mask="url(#path-11-inside-3_308_4309)"/>
<path d="M73.2576 40.3197C73.8099 40.3197 74.2616 40.7681 74.2194 41.3188C73.9818 44.4224 72.643 47.3523 70.4266 49.5687C67.9736 52.0216 64.6467 53.3997 61.1776 53.3997C57.7086 53.3997 54.3817 52.0216 51.9287 49.5687C49.7123 47.3523 48.3735 44.4224 48.1358 41.3188C48.0937 40.7681 48.5454 40.3197 49.0977 40.3197L61.1776 40.3197H73.2576Z" stroke="url(#paint19_linear_308_4309)" stroke-width="2" style="mix-blend-mode:plus-lighter" shape-rendering="crispEdges" mask="url(#path-11-inside-3_308_4309)"/>
</g>
<g opacity="0.7">
<path d="M25.8457 46.5703L58.1138 102.454" stroke="url(#paint20_linear_308_4309)"/>
<path d="M25.8457 46.5703L58.1138 102.454" stroke="url(#paint21_linear_308_4309)" style="mix-blend-mode:plus-lighter"/>
</g>
<g opacity="0.6">
<path d="M108.74 25.415L67.1491 97.4245" stroke="url(#paint22_linear_308_4309)"/>
<path d="M108.74 25.415L67.1491 97.4245" stroke="url(#paint23_linear_308_4309)" stroke-opacity="0.6" style="mix-blend-mode:plus-lighter"/>
</g>
<g opacity="0.7">
<path d="M46.7188 17.6255L106.867 17.6255" stroke="url(#paint24_linear_308_4309)"/>
<path d="M46.7188 17.6255L106.867 17.6255" stroke="url(#paint25_linear_308_4309)" style="mix-blend-mode:plus-lighter"/>
</g>
<defs>
<filter id="filter0_iiii_308_4309" x="16.0703" y="17.8389" width="121.215" height="111.516" filterUnits="userSpaceOnUse" color-interpolation-filters="sRGB">
<feFlood flood-opacity="0" result="BackgroundImageFix"/>
<feBlend mode="normal" in="SourceGraphic" in2="BackgroundImageFix" result="shape"/>
<feColorMatrix in="SourceAlpha" type="matrix" values="0 0 0 0 0 0 0 0 0 0 0 0 0 0 0 0 0 0 127 0" result="hardAlpha"/>
<feOffset dx="3" dy="3"/>
<feGaussianBlur stdDeviation="5"/>
<feComposite in2="hardAlpha" operator="arithmetic" k2="-1" k3="1"/>
<feColorMatrix type="matrix" values="0 0 0 0 0 0 0 0 0 0 0 0 0 0 0 0 0 0 0.18 0"/>
<feBlend mode="normal" in2="shape" result="effect1_innerShadow_308_4309"/>
<feColorMatrix in="SourceAlpha" type="matrix" values="0 0 0 0 0 0 0 0 0 0 0 0 0 0 0 0 0 0 127 0" result="hardAlpha"/>
<feOffset dx="14" dy="13"/>
<feGaussianBlur stdDeviation="9.5"/>
<feComposite in2="hardAlpha" operator="arithmetic" k2="-1" k3="1"/>
<feColorMatrix type="matrix" values="0 0 0 0 0 0 0 0 0 0 0 0 0 0 0 0 0 0 0.15 0"/>
<feBlend mode="normal" in2="effect1_innerShadow_308_4309" result="effect2_innerShadow_308_4309"/>
<feColorMatrix in="SourceAlpha" type="matrix" values="0 0 0 0 0 0 0 0 0 0 0 0 0 0 0 0 0 0 127 0" result="hardAlpha"/>
<feOffset dx="30" dy="30"/>
<feGaussianBlur stdDeviation="13"/>
<feComposite in2="hardAlpha" operator="arithmetic" k2="-1" k3="1"/>
<feColorMatrix type="matrix" values="0 0 0 0 0 0 0 0 0 0 0 0 0 0 0 0 0 0 0.09 0"/>
<feBlend mode="normal" in2="effect2_innerShadow_308_4309" result="effect3_innerShadow_308_4309"/>
<feColorMatrix in="SourceAlpha" type="matrix" values="0 0 0 0 0 0 0 0 0 0 0 0 0 0 0 0 0 0 127 0" result="hardAlpha"/>
<feOffset dx="54" dy="54"/>
<feGaussianBlur stdDeviation="15.5"/>
<feComposite in2="hardAlpha" operator="arithmetic" k2="-1" k3="1"/>
<feColorMatrix type="matrix" values="0 0 0 0 0 0 0 0 0 0 0 0 0 0 0 0 0 0 0.03 0"/>
<feBlend mode="normal" in2="effect3_innerShadow_308_4309" result="effect4_innerShadow_308_4309"/>
</filter>
<filter id="filter1_i_308_4309" x="24.0059" y="24.7402" width="74.3438" height="65.3125" filterUnits="userSpaceOnUse" color-interpolation-filters="sRGB">
<feFlood flood-opacity="0" result="BackgroundImageFix"/>
<feBlend mode="normal" in="SourceGraphic" in2="BackgroundImageFix" result="shape"/>
<feColorMatrix in="SourceAlpha" type="matrix" values="0 0 0 0 0 0 0 0 0 0 0 0 0 0 0 0 0 0 127 0" result="hardAlpha"/>
<feOffset/>
<feGaussianBlur stdDeviation="3"/>
<feComposite in2="hardAlpha" operator="arithmetic" k2="-1" k3="1"/>
<feColorMatrix type="matrix" values="0 0 0 0 1 0 0 0 0 1 0 0 0 0 1 0 0 0 0.75 0"/>
<feBlend mode="plus-lighter" in2="shape" result="effect1_innerShadow_308_4309"/>
</filter>
<filter id="filter2_f_308_4309" x="18.0059" y="18.7402" width="86.3438" height="77.3125" filterUnits="userSpaceOnUse" color-interpolation-filters="sRGB">
<feFlood flood-opacity="0" result="BackgroundImageFix"/>
<feBlend mode="normal" in="SourceGraphic" in2="BackgroundImageFix" result="shape"/>
<feGaussianBlur stdDeviation="3" result="effect1_foregroundBlur_308_4309"/>
</filter>
<filter id="filter3_f_308_4309" x="12.0059" y="12.7402" width="98.3438" height="89.3125" filterUnits="userSpaceOnUse" color-interpolation-filters="sRGB">
<feFlood flood-opacity="0" result="BackgroundImageFix"/>
<feBlend mode="normal" in="SourceGraphic" in2="BackgroundImageFix" result="shape"/>
<feGaussianBlur stdDeviation="6" result="effect1_foregroundBlur_308_4309"/>
</filter>
<filter id="filter4_f_308_4309" x="0.00585938" y="0.740234" width="122.344" height="113.312" filterUnits="userSpaceOnUse" color-interpolation-filters="sRGB">
<feFlood flood-opacity="0" result="BackgroundImageFix"/>
<feBlend mode="normal" in="SourceGraphic" in2="BackgroundImageFix" result="shape"/>
<feGaussianBlur stdDeviation="12" result="effect1_foregroundBlur_308_4309"/>
</filter>
<filter id="filter5_f_308_4309" x="12.0059" y="12.7402" width="98.3438" height="89.3125" filterUnits="userSpaceOnUse" color-interpolation-filters="sRGB">
<feFlood flood-opacity="0" result="BackgroundImageFix"/>
<feBlend mode="normal" in="SourceGraphic" in2="BackgroundImageFix" result="shape"/>
<feGaussianBlur stdDeviation="6" result="effect1_foregroundBlur_308_4309"/>
</filter>
<filter id="filter6_d_308_4309" x="32.1328" y="24.3198" width="58.0898" height="45.0801" filterUnits="userSpaceOnUse" color-interpolation-filters="sRGB">
<feFlood flood-opacity="0" result="BackgroundImageFix"/>
<feColorMatrix in="SourceAlpha" type="matrix" values="0 0 0 0 0 0 0 0 0 0 0 0 0 0 0 0 0 0 127 0" result="hardAlpha"/>
<feOffset/>
<feGaussianBlur stdDeviation="8"/>
<feComposite in2="hardAlpha" operator="out"/>
<feColorMatrix type="matrix" values="0 0 0 0 0 0 0 0 0 0 0 0 0 0 0 0 0 0 0.55 0"/>
<feBlend mode="normal" in2="BackgroundImageFix" result="effect1_dropShadow_308_4309"/>
<feBlend mode="normal" in="SourceGraphic" in2="effect1_dropShadow_308_4309" result="shape"/>
</filter>
<filter id="filter7_d_308_4309" x="40.1328" y="32.3198" width="42.0898" height="29.0801" filterUnits="userSpaceOnUse" color-interpolation-filters="sRGB">
<feFlood flood-opacity="0" result="BackgroundImageFix"/>
<feColorMatrix in="SourceAlpha" type="matrix" values="0 0 0 0 0 0 0 0 0 0 0 0 0 0 0 0 0 0 127 0" result="hardAlpha"/>
<feOffset/>
<feGaussianBlur stdDeviation="4"/>
<feComposite in2="hardAlpha" operator="out"/>
<feColorMatrix type="matrix" values="0 0 0 0 0 0 0 0 0 0 0 0 0 0 0 0 0 0 0.55 0"/>
<feBlend mode="normal" in2="BackgroundImageFix" result="effect1_dropShadow_308_4309"/>
<feBlend mode="normal" in="SourceGraphic" in2="effect1_dropShadow_308_4309" result="shape"/>
</filter>
<filter id="filter8_d_308_4309" x="40.1328" y="32.3198" width="42.0898" height="29.0801" filterUnits="userSpaceOnUse" color-interpolation-filters="sRGB">
<feFlood flood-opacity="0" result="BackgroundImageFix"/>
<feColorMatrix in="SourceAlpha" type="matrix" values="0 0 0 0 0 0 0 0 0 0 0 0 0 0 0 0 0 0 127 0" result="hardAlpha"/>
<feOffset/>
<feGaussianBlur stdDeviation="4"/>
<feComposite in2="hardAlpha" operator="out"/>
<feColorMatrix type="matrix" values="0 0 0 0 0 0 0 0 0 0 0 0 0 0 0 0 0 0 0.55 0"/>
<feBlend mode="normal" in2="BackgroundImageFix" result="effect1_dropShadow_308_4309"/>
<feBlend mode="normal" in="SourceGraphic" in2="effect1_dropShadow_308_4309" result="shape"/>
</filter>
<linearGradient id="paint0_linear_308_4309" x1="30.6747" y1="31.119" x2="22.1877" y2="16.4632" gradientUnits="userSpaceOnUse">
<stop stop-opacity="0"/>
<stop offset="1" stop-color="#C5CCFF"/>
</linearGradient>
<linearGradient id="paint1_linear_308_4309" x1="30.6747" y1="31.119" x2="22.1877" y2="16.4632" gradientUnits="userSpaceOnUse">
<stop stop-opacity="0"/>
<stop offset="1" stop-color="#C5CCFF"/>
</linearGradient>
<linearGradient id="paint2_linear_308_4309" x1="105.731" y1="12.1166" x2="56.6814" y2="96.319" gradientUnits="userSpaceOnUse">
<stop stop-color="#584DD9" stop-opacity="0"/>
<stop offset="0.5" stop-color="#584DD9"/>
<stop offset="1" stop-color="#584DD9" stop-opacity="0"/>
</linearGradient>
<linearGradient id="paint3_linear_308_4309" x1="105.731" y1="12.1166" x2="56.6814" y2="96.319" gradientUnits="userSpaceOnUse">
<stop stop-color="#584DD9" stop-opacity="0"/>
<stop offset="0.5" stop-color="#584DD9"/>
<stop offset="1" stop-color="#584DD9" stop-opacity="0"/>
</linearGradient>
<linearGradient id="paint4_linear_308_4309" x1="73.8489" y1="72.2028" x2="37.4702" y2="47.6778" gradientUnits="userSpaceOnUse">
<stop stop-opacity="0"/>
<stop offset="0.5" stop-color="#7469EE"/>
<stop offset="1" stop-opacity="0"/>
</linearGradient>
<linearGradient id="paint5_linear_308_4309" x1="73.8489" y1="72.2028" x2="37.4702" y2="47.6778" gradientUnits="userSpaceOnUse">
<stop stop-opacity="0"/>
<stop offset="0.5" stop-color="#7469EE"/>
<stop offset="1" stop-opacity="0"/>
</linearGradient>
<linearGradient id="paint6_linear_308_4309" x1="93.8776" y1="32.554" x2="66.9002" y2="78.7427" gradientUnits="userSpaceOnUse">
<stop stop-opacity="0"/>
<stop offset="0.5" stop-color="#584DD9"/>
<stop offset="1" stop-opacity="0"/>
</linearGradient>
<linearGradient id="paint7_linear_308_4309" x1="73.8489" y1="72.2028" x2="37.4702" y2="47.6778" gradientUnits="userSpaceOnUse">
<stop stop-opacity="0"/>
<stop offset="0.5" stop-color="#7469EE"/>
<stop offset="1" stop-opacity="0"/>
</linearGradient>
<linearGradient id="paint8_linear_308_4309" x1="93.8776" y1="32.554" x2="66.9002" y2="78.7427" gradientUnits="userSpaceOnUse">
<stop stop-opacity="0"/>
<stop offset="0.5" stop-color="#584DD9"/>
<stop offset="1" stop-opacity="0"/>
</linearGradient>
<linearGradient id="paint9_linear_308_4309" x1="73.8489" y1="72.2028" x2="37.4702" y2="47.6778" gradientUnits="userSpaceOnUse">
<stop stop-opacity="0"/>
<stop offset="0.5" stop-color="#7469EE"/>
<stop offset="1" stop-opacity="0"/>
</linearGradient>
<linearGradient id="paint10_linear_308_4309" x1="93.8776" y1="32.554" x2="66.9002" y2="78.7427" gradientUnits="userSpaceOnUse">
<stop stop-opacity="0"/>
<stop offset="0.5" stop-color="#584DD9"/>
<stop offset="1" stop-opacity="0"/>
</linearGradient>
<linearGradient id="paint11_linear_308_4309" x1="73.8489" y1="72.2028" x2="37.4702" y2="47.6778" gradientUnits="userSpaceOnUse">
<stop stop-opacity="0"/>
<stop offset="0.5" stop-color="#7469EE"/>
<stop offset="1" stop-opacity="0"/>
</linearGradient>
<linearGradient id="paint12_linear_308_4309" x1="93.8776" y1="32.554" x2="66.9002" y2="78.7427" gradientUnits="userSpaceOnUse">
<stop stop-opacity="0"/>
<stop offset="0.5" stop-color="#584DD9"/>
<stop offset="1" stop-opacity="0"/>
</linearGradient>
<linearGradient id="paint13_linear_308_4309" x1="73.8489" y1="72.2028" x2="37.4702" y2="47.6778" gradientUnits="userSpaceOnUse">
<stop stop-opacity="0"/>
<stop offset="0.5" stop-color="#362CAC"/>
<stop offset="1" stop-opacity="0"/>
</linearGradient>
<linearGradient id="paint14_linear_308_4309" x1="44.4189" y1="36.2322" x2="54.6376" y2="43.9985" gradientUnits="userSpaceOnUse">
<stop stop-color="#AAB8FA"/>
<stop offset="1" stop-color="#666666" stop-opacity="0"/>
</linearGradient>
<linearGradient id="paint15_linear_308_4309" x1="44.4189" y1="36.2322" x2="54.6376" y2="43.9985" gradientUnits="userSpaceOnUse">
<stop stop-color="#AAB8FA"/>
<stop offset="1" stop-color="#666666" stop-opacity="0"/>
</linearGradient>
<linearGradient id="paint16_linear_308_4309" x1="66.4914" y1="37.8672" x2="65.2651" y2="42.3635" gradientUnits="userSpaceOnUse">
<stop stop-color="#CF64F8"/>
<stop offset="1" stop-color="#666666" stop-opacity="0"/>
</linearGradient>
<linearGradient id="paint17_linear_308_4309" x1="66.4914" y1="37.8672" x2="65.2651" y2="42.3635" gradientUnits="userSpaceOnUse">
<stop stop-color="#CF64F8"/>
<stop offset="1" stop-color="#666666" stop-opacity="0"/>
</linearGradient>
<linearGradient id="paint18_linear_308_4309" x1="58.7251" y1="54.2172" x2="59.5426" y2="52.1735" gradientUnits="userSpaceOnUse">
<stop stop-color="#CF64F8"/>
<stop offset="1" stop-color="#666666" stop-opacity="0"/>
</linearGradient>
<linearGradient id="paint19_linear_308_4309" x1="58.7251" y1="54.2172" x2="59.5426" y2="52.1735" gradientUnits="userSpaceOnUse">
<stop stop-color="#CF64F8"/>
<stop offset="1" stop-color="#666666" stop-opacity="0"/>
</linearGradient>
<linearGradient id="paint20_linear_308_4309" x1="25.8457" y1="46.5703" x2="58.1138" y2="102.454" gradientUnits="userSpaceOnUse">
<stop offset="0.15" stop-opacity="0"/>
<stop offset="0.5" stop-color="#7469EE"/>
<stop offset="0.85" stop-opacity="0"/>
</linearGradient>
<linearGradient id="paint21_linear_308_4309" x1="25.8457" y1="46.5703" x2="58.1138" y2="102.454" gradientUnits="userSpaceOnUse">
<stop offset="0.15" stop-opacity="0"/>
<stop offset="0.5" stop-color="#7469EE"/>
<stop offset="0.85" stop-opacity="0"/>
</linearGradient>
<linearGradient id="paint22_linear_308_4309" x1="110.346" y1="25.8665" x2="67.3371" y2="97.5113" gradientUnits="userSpaceOnUse">
<stop offset="0.15" stop-opacity="0"/>
<stop offset="0.5" stop-color="#C5CCFF"/>
<stop offset="0.85" stop-opacity="0"/>
</linearGradient>
<linearGradient id="paint23_linear_308_4309" x1="110.346" y1="25.8665" x2="67.3371" y2="97.5113" gradientUnits="userSpaceOnUse">
<stop offset="0.15" stop-opacity="0"/>
<stop offset="0.5" stop-color="#C5CCFF"/>
<stop offset="0.85" stop-opacity="0"/>
</linearGradient>
<linearGradient id="paint24_linear_308_4309" x1="46.6134" y1="17.0676" x2="106.883" y2="17.991" gradientUnits="userSpaceOnUse">
<stop offset="0.15" stop-opacity="0"/>
<stop offset="0.5" stop-color="#7469EE"/>
<stop offset="0.85" stop-opacity="0"/>
</linearGradient>
<linearGradient id="paint25_linear_308_4309" x1="46.6134" y1="17.0676" x2="106.883" y2="17.991" gradientUnits="userSpaceOnUse">
<stop offset="0.15" stop-opacity="0"/>
<stop offset="0.5" stop-color="#7469EE"/>
<stop offset="0.85" stop-opacity="0"/>
</linearGradient>
</defs>
</svg>
