<svg width="169" height="156" viewBox="0 0 169 156" fill="none" xmlns="http://www.w3.org/2000/svg">
<g filter="url(#filter0_iiii_318_5292)">
<path d="M74.5291 129.843C79.1479 137.843 90.6949 137.843 95.3137 129.843L147.207 39.9607C151.826 31.9607 146.052 21.9607 136.815 21.9607H33.0279C23.7903 21.9607 18.0168 31.9607 22.6356 39.9607L74.5291 129.843Z" fill="#111111"/>
</g>
<path opacity="0.6" d="M147.64 40.2107L95.7467 130.093C90.9355 138.426 78.9073 138.426 74.0961 130.093L22.2026 40.2107C17.3914 31.8774 23.4054 21.4607 33.0279 21.4607H136.815C146.437 21.4607 152.451 31.8774 147.64 40.2107Z" stroke="#454545"/>
<g opacity="0.6">
<path d="M147.64 40.2107L95.7467 130.093C90.9355 138.426 78.9073 138.426 74.0961 130.093L22.2026 40.2107C17.3914 31.8774 23.4054 21.4607 33.0279 21.4607H136.815C146.437 21.4607 152.451 31.8774 147.64 40.2107Z" stroke="url(#paint0_linear_318_5292)"/>
<path d="M147.64 40.2107L95.7467 130.093C90.9355 138.426 78.9073 138.426 74.0961 130.093L22.2026 40.2107C17.3914 31.8774 23.4054 21.4607 33.0279 21.4607H136.815C146.437 21.4607 152.451 31.8774 147.64 40.2107Z" stroke="url(#paint1_linear_318_5292)" stroke-opacity="0.6" style="mix-blend-mode:plus-lighter"/>
</g>
<g filter="url(#filter1_i_318_5292)">
<path d="M84.0538 119.902C84.4387 120.569 85.401 120.569 85.7859 119.902L133.833 36.6813C134.218 36.0146 133.737 35.1813 132.967 35.1813H36.8724C36.1026 35.1813 35.6215 36.0146 36.0064 36.6813L84.0538 119.902Z" stroke="#362CAC" stroke-width="6"/>
<path d="M84.0538 119.902C84.4387 120.569 85.401 120.569 85.7859 119.902L133.833 36.6813C134.218 36.0146 133.737 35.1813 132.967 35.1813H36.8724C36.1026 35.1813 35.6215 36.0146 36.0064 36.6813L84.0538 119.902Z" stroke="url(#paint2_linear_318_5292)" stroke-width="6"/>
<path d="M84.0538 119.902C84.4387 120.569 85.401 120.569 85.7859 119.902L133.833 36.6813C134.218 36.0146 133.737 35.1813 132.967 35.1813H36.8724C36.1026 35.1813 35.6215 36.0146 36.0064 36.6813L84.0538 119.902Z" stroke="url(#paint3_linear_318_5292)" stroke-width="6" style="mix-blend-mode:plus-lighter"/>
<path d="M84.0538 119.902C84.4387 120.569 85.401 120.569 85.7859 119.902L133.833 36.6813C134.218 36.0146 133.737 35.1813 132.967 35.1813H36.8724C36.1026 35.1813 35.6215 36.0146 36.0064 36.6813L84.0538 119.902Z" stroke="url(#paint4_linear_318_5292)" stroke-width="6"/>
<path d="M84.0538 119.902C84.4387 120.569 85.401 120.569 85.7859 119.902L133.833 36.6813C134.218 36.0146 133.737 35.1813 132.967 35.1813H36.8724C36.1026 35.1813 35.6215 36.0146 36.0064 36.6813L84.0538 119.902Z" stroke="url(#paint5_linear_318_5292)" stroke-width="6" style="mix-blend-mode:plus-lighter"/>
</g>
<g opacity="0.7">
<g filter="url(#filter2_f_318_5292)">
<path d="M84.0538 119.902C84.4387 120.569 85.401 120.569 85.7859 119.902L133.833 36.6813C134.218 36.0146 133.737 35.1813 132.967 35.1813H36.8724C36.1026 35.1813 35.6215 36.0146 36.0064 36.6813L84.0538 119.902Z" stroke="#362CAC" stroke-width="6"/>
<path d="M84.0538 119.902C84.4387 120.569 85.401 120.569 85.7859 119.902L133.833 36.6813C134.218 36.0146 133.737 35.1813 132.967 35.1813H36.8724C36.1026 35.1813 35.6215 36.0146 36.0064 36.6813L84.0538 119.902Z" stroke="url(#paint6_linear_318_5292)" stroke-width="6"/>
<path d="M84.0538 119.902C84.4387 120.569 85.401 120.569 85.7859 119.902L133.833 36.6813C134.218 36.0146 133.737 35.1813 132.967 35.1813H36.8724C36.1026 35.1813 35.6215 36.0146 36.0064 36.6813L84.0538 119.902Z" stroke="url(#paint7_linear_318_5292)" stroke-width="6"/>
</g>
<g style="mix-blend-mode:plus-lighter" filter="url(#filter3_f_318_5292)">
<path d="M84.0538 119.902C84.4387 120.569 85.401 120.569 85.7859 119.902L133.833 36.6813C134.218 36.0146 133.737 35.1813 132.967 35.1813H36.8724C36.1026 35.1813 35.6215 36.0146 36.0064 36.6813L84.0538 119.902Z" stroke="#362CAC" stroke-width="6"/>
<path d="M84.0538 119.902C84.4387 120.569 85.401 120.569 85.7859 119.902L133.833 36.6813C134.218 36.0146 133.737 35.1813 132.967 35.1813H36.8724C36.1026 35.1813 35.6215 36.0146 36.0064 36.6813L84.0538 119.902Z" stroke="url(#paint8_linear_318_5292)" stroke-width="6" style="mix-blend-mode:plus-lighter"/>
<path d="M84.0538 119.902C84.4387 120.569 85.401 120.569 85.7859 119.902L133.833 36.6813C134.218 36.0146 133.737 35.1813 132.967 35.1813H36.8724C36.1026 35.1813 35.6215 36.0146 36.0064 36.6813L84.0538 119.902Z" stroke="url(#paint9_linear_318_5292)" stroke-width="6" style="mix-blend-mode:plus-lighter"/>
</g>
<g style="mix-blend-mode:plus-lighter" filter="url(#filter4_f_318_5292)">
<path d="M84.0538 119.902C84.4387 120.569 85.401 120.569 85.7859 119.902L133.833 36.6813C134.218 36.0146 133.737 35.1813 132.967 35.1813H36.8724C36.1026 35.1813 35.6215 36.0146 36.0064 36.6813L84.0538 119.902Z" stroke="#362CAC" stroke-width="6"/>
<path d="M84.0538 119.902C84.4387 120.569 85.401 120.569 85.7859 119.902L133.833 36.6813C134.218 36.0146 133.737 35.1813 132.967 35.1813H36.8724C36.1026 35.1813 35.6215 36.0146 36.0064 36.6813L84.0538 119.902Z" stroke="url(#paint10_linear_318_5292)" stroke-width="6" style="mix-blend-mode:plus-lighter"/>
<path d="M84.0538 119.902C84.4387 120.569 85.401 120.569 85.7859 119.902L133.833 36.6813C134.218 36.0146 133.737 35.1813 132.967 35.1813H36.8724C36.1026 35.1813 35.6215 36.0146 36.0064 36.6813L84.0538 119.902Z" stroke="url(#paint11_linear_318_5292)" stroke-width="6" style="mix-blend-mode:plus-lighter"/>
</g>
</g>
<g opacity="0.8" filter="url(#filter5_f_318_5292)">
<path d="M84.0538 119.902C84.4387 120.569 85.401 120.569 85.7859 119.902L133.833 36.6813C134.218 36.0146 133.737 35.1813 132.967 35.1813H36.8724C36.1026 35.1813 35.6215 36.0146 36.0064 36.6813L84.0538 119.902Z" stroke="#362CAC" stroke-width="6"/>
<path d="M84.0538 119.902C84.4387 120.569 85.401 120.569 85.7859 119.902L133.833 36.6813C134.218 36.0146 133.737 35.1813 132.967 35.1813H36.8724C36.1026 35.1813 35.6215 36.0146 36.0064 36.6813L84.0538 119.902Z" stroke="url(#paint12_linear_318_5292)" stroke-width="6" style="mix-blend-mode:plus-lighter"/>
<path d="M84.0538 119.902C84.4387 120.569 85.401 120.569 85.7859 119.902L133.833 36.6813C134.218 36.0146 133.737 35.1813 132.967 35.1813H36.8724C36.1026 35.1813 35.6215 36.0146 36.0064 36.6813L84.0538 119.902Z" stroke="url(#paint13_linear_318_5292)" stroke-width="6" style="mix-blend-mode:plus-lighter"/>
</g>
<g filter="url(#filter6_d_318_5292)">
<mask id="path-9-inside-1_318_5292" fill="white">
<path d="M102.315 53.5749C102.867 53.5749 103.318 54.023 103.288 54.5745C103.042 59.0886 101.141 63.3681 97.9274 66.5812C94.4779 70.0307 89.7994 71.9686 84.9211 71.9686C80.0428 71.9686 75.3642 70.0307 71.9147 66.5812C68.7016 63.3681 66.8 59.0886 66.5545 54.5745C66.5245 54.023 66.9751 53.5749 67.5273 53.5749L84.9211 53.5749H102.315Z"/>
</mask>
<path d="M102.315 53.5749C102.867 53.5749 103.318 54.023 103.288 54.5745C103.042 59.0886 101.141 63.3681 97.9274 66.5812C94.4779 70.0307 89.7994 71.9686 84.9211 71.9686C80.0428 71.9686 75.3642 70.0307 71.9147 66.5812C68.7016 63.3681 66.8 59.0886 66.5545 54.5745C66.5245 54.023 66.9751 53.5749 67.5273 53.5749L84.9211 53.5749H102.315Z" fill="#222222"/>
<path d="M102.315 53.5749C102.867 53.5749 103.318 54.023 103.288 54.5745C103.042 59.0886 101.141 63.3681 97.9274 66.5812C94.4779 70.0307 89.7994 71.9686 84.9211 71.9686C80.0428 71.9686 75.3642 70.0307 71.9147 66.5812C68.7016 63.3681 66.8 59.0886 66.5545 54.5745C66.5245 54.023 66.9751 53.5749 67.5273 53.5749L84.9211 53.5749H102.315Z" stroke="url(#paint14_linear_318_5292)" stroke-width="2" mask="url(#path-9-inside-1_318_5292)"/>
<path d="M102.315 53.5749C102.867 53.5749 103.318 54.023 103.288 54.5745C103.042 59.0886 101.141 63.3681 97.9274 66.5812C94.4779 70.0307 89.7994 71.9686 84.9211 71.9686C80.0428 71.9686 75.3642 70.0307 71.9147 66.5812C68.7016 63.3681 66.8 59.0886 66.5545 54.5745C66.5245 54.023 66.9751 53.5749 67.5273 53.5749L84.9211 53.5749H102.315Z" stroke="url(#paint15_linear_318_5292)" stroke-width="2" style="mix-blend-mode:plus-lighter" mask="url(#path-9-inside-1_318_5292)"/>
</g>
<g opacity="0.8" filter="url(#filter7_d_318_5292)">
<mask id="path-10-inside-2_318_5292" fill="white">
<path d="M102.315 53.5749C102.867 53.5749 103.318 54.023 103.288 54.5745C103.042 59.0886 101.141 63.3681 97.9274 66.5812C94.4779 70.0307 89.7994 71.9686 84.9211 71.9686C80.0428 71.9686 75.3642 70.0307 71.9147 66.5812C68.7016 63.3681 66.8 59.0886 66.5545 54.5745C66.5245 54.023 66.9751 53.5749 67.5273 53.5749L84.9211 53.5749H102.315Z"/>
</mask>
<path d="M102.315 53.5749C102.867 53.5749 103.318 54.023 103.288 54.5745C103.042 59.0886 101.141 63.3681 97.9274 66.5812C94.4779 70.0307 89.7994 71.9686 84.9211 71.9686C80.0428 71.9686 75.3642 70.0307 71.9147 66.5812C68.7016 63.3681 66.8 59.0886 66.5545 54.5745C66.5245 54.023 66.9751 53.5749 67.5273 53.5749L84.9211 53.5749H102.315Z" stroke="url(#paint16_linear_318_5292)" stroke-width="2" shape-rendering="crispEdges" mask="url(#path-10-inside-2_318_5292)"/>
<path d="M102.315 53.5749C102.867 53.5749 103.318 54.023 103.288 54.5745C103.042 59.0886 101.141 63.3681 97.9274 66.5812C94.4779 70.0307 89.7994 71.9686 84.9211 71.9686C80.0428 71.9686 75.3642 70.0307 71.9147 66.5812C68.7016 63.3681 66.8 59.0886 66.5545 54.5745C66.5245 54.023 66.9751 53.5749 67.5273 53.5749L84.9211 53.5749H102.315Z" stroke="url(#paint17_linear_318_5292)" stroke-width="2" style="mix-blend-mode:plus-lighter" shape-rendering="crispEdges" mask="url(#path-10-inside-2_318_5292)"/>
</g>
<g opacity="0.4" filter="url(#filter8_d_318_5292)">
<mask id="path-11-inside-3_318_5292" fill="white">
<path d="M102.315 53.5749C102.867 53.5749 103.318 54.023 103.288 54.5745C103.042 59.0886 101.141 63.3681 97.9274 66.5812C94.4779 70.0307 89.7994 71.9686 84.9211 71.9686C80.0428 71.9686 75.3642 70.0307 71.9147 66.5812C68.7016 63.3681 66.8 59.0886 66.5545 54.5745C66.5245 54.023 66.9751 53.5749 67.5273 53.5749L84.9211 53.5749H102.315Z"/>
</mask>
<path d="M102.315 53.5749C102.867 53.5749 103.318 54.023 103.288 54.5745C103.042 59.0886 101.141 63.3681 97.9274 66.5812C94.4779 70.0307 89.7994 71.9686 84.9211 71.9686C80.0428 71.9686 75.3642 70.0307 71.9147 66.5812C68.7016 63.3681 66.8 59.0886 66.5545 54.5745C66.5245 54.023 66.9751 53.5749 67.5273 53.5749L84.9211 53.5749H102.315Z" stroke="url(#paint18_linear_318_5292)" stroke-width="2" shape-rendering="crispEdges" mask="url(#path-11-inside-3_318_5292)"/>
<path d="M102.315 53.5749C102.867 53.5749 103.318 54.023 103.288 54.5745C103.042 59.0886 101.141 63.3681 97.9274 66.5812C94.4779 70.0307 89.7994 71.9686 84.9211 71.9686C80.0428 71.9686 75.3642 70.0307 71.9147 66.5812C68.7016 63.3681 66.8 59.0886 66.5545 54.5745C66.5245 54.023 66.9751 53.5749 67.5273 53.5749L84.9211 53.5749H102.315Z" stroke="url(#paint19_linear_318_5292)" stroke-width="2" style="mix-blend-mode:plus-lighter" shape-rendering="crispEdges" mask="url(#path-11-inside-3_318_5292)"/>
</g>
<g opacity="0.7">
<path d="M35.2363 62.3643L80.6134 140.95" stroke="url(#paint20_linear_318_5292)"/>
<path d="M35.2363 62.3643L80.6134 140.95" stroke="url(#paint21_linear_318_5292)" style="mix-blend-mode:plus-lighter"/>
</g>
<g opacity="0.6">
<path d="M151.807 32.6147L93.3191 133.878" stroke="url(#paint22_linear_318_5292)"/>
<path d="M151.807 32.6147L93.3191 133.878" stroke="url(#paint23_linear_318_5292)" stroke-opacity="0.6" style="mix-blend-mode:plus-lighter"/>
</g>
<g opacity="0.7">
<path d="M64.5898 21.6611L149.173 21.6611" stroke="url(#paint24_linear_318_5292)"/>
<path d="M64.5898 21.6611L149.173 21.6611" stroke="url(#paint25_linear_318_5292)" style="mix-blend-mode:plus-lighter"/>
</g>
<defs>
<filter id="filter0_iiii_318_5292" x="21.0098" y="21.9609" width="158.822" height="144.882" filterUnits="userSpaceOnUse" color-interpolation-filters="sRGB">
<feFlood flood-opacity="0" result="BackgroundImageFix"/>
<feBlend mode="normal" in="SourceGraphic" in2="BackgroundImageFix" result="shape"/>
<feColorMatrix in="SourceAlpha" type="matrix" values="0 0 0 0 0 0 0 0 0 0 0 0 0 0 0 0 0 0 127 0" result="hardAlpha"/>
<feOffset dx="3" dy="3"/>
<feGaussianBlur stdDeviation="5"/>
<feComposite in2="hardAlpha" operator="arithmetic" k2="-1" k3="1"/>
<feColorMatrix type="matrix" values="0 0 0 0 0 0 0 0 0 0 0 0 0 0 0 0 0 0 0.18 0"/>
<feBlend mode="normal" in2="shape" result="effect1_innerShadow_318_5292"/>
<feColorMatrix in="SourceAlpha" type="matrix" values="0 0 0 0 0 0 0 0 0 0 0 0 0 0 0 0 0 0 127 0" result="hardAlpha"/>
<feOffset dx="14" dy="13"/>
<feGaussianBlur stdDeviation="9.5"/>
<feComposite in2="hardAlpha" operator="arithmetic" k2="-1" k3="1"/>
<feColorMatrix type="matrix" values="0 0 0 0 0 0 0 0 0 0 0 0 0 0 0 0 0 0 0.15 0"/>
<feBlend mode="normal" in2="effect1_innerShadow_318_5292" result="effect2_innerShadow_318_5292"/>
<feColorMatrix in="SourceAlpha" type="matrix" values="0 0 0 0 0 0 0 0 0 0 0 0 0 0 0 0 0 0 127 0" result="hardAlpha"/>
<feOffset dx="30" dy="30"/>
<feGaussianBlur stdDeviation="13"/>
<feComposite in2="hardAlpha" operator="arithmetic" k2="-1" k3="1"/>
<feColorMatrix type="matrix" values="0 0 0 0 0 0 0 0 0 0 0 0 0 0 0 0 0 0 0.09 0"/>
<feBlend mode="normal" in2="effect2_innerShadow_318_5292" result="effect3_innerShadow_318_5292"/>
<feColorMatrix in="SourceAlpha" type="matrix" values="0 0 0 0 0 0 0 0 0 0 0 0 0 0 0 0 0 0 127 0" result="hardAlpha"/>
<feOffset dx="54" dy="54"/>
<feGaussianBlur stdDeviation="15.5"/>
<feComposite in2="hardAlpha" operator="arithmetic" k2="-1" k3="1"/>
<feColorMatrix type="matrix" values="0 0 0 0 0 0 0 0 0 0 0 0 0 0 0 0 0 0 0.03 0"/>
<feBlend mode="normal" in2="effect3_innerShadow_318_5292" result="effect4_innerShadow_318_5292"/>
</filter>
<filter id="filter1_i_318_5292" x="32.8672" y="32.1812" width="104.105" height="91.2207" filterUnits="userSpaceOnUse" color-interpolation-filters="sRGB">
<feFlood flood-opacity="0" result="BackgroundImageFix"/>
<feBlend mode="normal" in="SourceGraphic" in2="BackgroundImageFix" result="shape"/>
<feColorMatrix in="SourceAlpha" type="matrix" values="0 0 0 0 0 0 0 0 0 0 0 0 0 0 0 0 0 0 127 0" result="hardAlpha"/>
<feOffset/>
<feGaussianBlur stdDeviation="3"/>
<feComposite in2="hardAlpha" operator="arithmetic" k2="-1" k3="1"/>
<feColorMatrix type="matrix" values="0 0 0 0 1 0 0 0 0 1 0 0 0 0 1 0 0 0 0.75 0"/>
<feBlend mode="plus-lighter" in2="shape" result="effect1_innerShadow_318_5292"/>
</filter>
<filter id="filter2_f_318_5292" x="26.8672" y="26.1812" width="116.105" height="103.221" filterUnits="userSpaceOnUse" color-interpolation-filters="sRGB">
<feFlood flood-opacity="0" result="BackgroundImageFix"/>
<feBlend mode="normal" in="SourceGraphic" in2="BackgroundImageFix" result="shape"/>
<feGaussianBlur stdDeviation="3" result="effect1_foregroundBlur_318_5292"/>
</filter>
<filter id="filter3_f_318_5292" x="20.8672" y="20.1812" width="128.105" height="115.221" filterUnits="userSpaceOnUse" color-interpolation-filters="sRGB">
<feFlood flood-opacity="0" result="BackgroundImageFix"/>
<feBlend mode="normal" in="SourceGraphic" in2="BackgroundImageFix" result="shape"/>
<feGaussianBlur stdDeviation="6" result="effect1_foregroundBlur_318_5292"/>
</filter>
<filter id="filter4_f_318_5292" x="8.86719" y="8.18115" width="152.105" height="139.221" filterUnits="userSpaceOnUse" color-interpolation-filters="sRGB">
<feFlood flood-opacity="0" result="BackgroundImageFix"/>
<feBlend mode="normal" in="SourceGraphic" in2="BackgroundImageFix" result="shape"/>
<feGaussianBlur stdDeviation="12" result="effect1_foregroundBlur_318_5292"/>
</filter>
<filter id="filter5_f_318_5292" x="0.867188" y="0.181152" width="168.105" height="155.221" filterUnits="userSpaceOnUse" color-interpolation-filters="sRGB">
<feFlood flood-opacity="0" result="BackgroundImageFix"/>
<feBlend mode="normal" in="SourceGraphic" in2="BackgroundImageFix" result="shape"/>
<feGaussianBlur stdDeviation="16" result="effect1_foregroundBlur_318_5292"/>
</filter>
<filter id="filter6_d_318_5292" x="50.5527" y="37.5747" width="68.7363" height="50.394" filterUnits="userSpaceOnUse" color-interpolation-filters="sRGB">
<feFlood flood-opacity="0" result="BackgroundImageFix"/>
<feColorMatrix in="SourceAlpha" type="matrix" values="0 0 0 0 0 0 0 0 0 0 0 0 0 0 0 0 0 0 127 0" result="hardAlpha"/>
<feOffset/>
<feGaussianBlur stdDeviation="8"/>
<feComposite in2="hardAlpha" operator="out"/>
<feColorMatrix type="matrix" values="0 0 0 0 0 0 0 0 0 0 0 0 0 0 0 0 0 0 0.55 0"/>
<feBlend mode="normal" in2="BackgroundImageFix" result="effect1_dropShadow_318_5292"/>
<feBlend mode="normal" in="SourceGraphic" in2="effect1_dropShadow_318_5292" result="shape"/>
</filter>
<filter id="filter7_d_318_5292" x="58.5527" y="45.5747" width="52.7363" height="34.394" filterUnits="userSpaceOnUse" color-interpolation-filters="sRGB">
<feFlood flood-opacity="0" result="BackgroundImageFix"/>
<feColorMatrix in="SourceAlpha" type="matrix" values="0 0 0 0 0 0 0 0 0 0 0 0 0 0 0 0 0 0 127 0" result="hardAlpha"/>
<feOffset/>
<feGaussianBlur stdDeviation="4"/>
<feComposite in2="hardAlpha" operator="out"/>
<feColorMatrix type="matrix" values="0 0 0 0 0 0 0 0 0 0 0 0 0 0 0 0 0 0 0.55 0"/>
<feBlend mode="normal" in2="BackgroundImageFix" result="effect1_dropShadow_318_5292"/>
<feBlend mode="normal" in="SourceGraphic" in2="effect1_dropShadow_318_5292" result="shape"/>
</filter>
<filter id="filter8_d_318_5292" x="58.5527" y="45.5747" width="52.7363" height="34.394" filterUnits="userSpaceOnUse" color-interpolation-filters="sRGB">
<feFlood flood-opacity="0" result="BackgroundImageFix"/>
<feColorMatrix in="SourceAlpha" type="matrix" values="0 0 0 0 0 0 0 0 0 0 0 0 0 0 0 0 0 0 127 0" result="hardAlpha"/>
<feOffset/>
<feGaussianBlur stdDeviation="4"/>
<feComposite in2="hardAlpha" operator="out"/>
<feColorMatrix type="matrix" values="0 0 0 0 0 0 0 0 0 0 0 0 0 0 0 0 0 0 0.55 0"/>
<feBlend mode="normal" in2="BackgroundImageFix" result="effect1_dropShadow_318_5292"/>
<feBlend mode="normal" in="SourceGraphic" in2="effect1_dropShadow_318_5292" result="shape"/>
</filter>
<linearGradient id="paint0_linear_318_5292" x1="42.0269" y1="40.6359" x2="30.0921" y2="20.0262" gradientUnits="userSpaceOnUse">
<stop stop-opacity="0"/>
<stop offset="1" stop-color="#C5CCFF"/>
</linearGradient>
<linearGradient id="paint1_linear_318_5292" x1="42.0269" y1="40.6359" x2="30.0921" y2="20.0262" gradientUnits="userSpaceOnUse">
<stop stop-opacity="0"/>
<stop offset="1" stop-color="#C5CCFF"/>
</linearGradient>
<linearGradient id="paint2_linear_318_5292" x1="147.573" y1="13.9135" x2="78.597" y2="132.323" gradientUnits="userSpaceOnUse">
<stop stop-color="#584DD9" stop-opacity="0"/>
<stop offset="0.5" stop-color="#584DD9"/>
<stop offset="1" stop-color="#584DD9" stop-opacity="0"/>
</linearGradient>
<linearGradient id="paint3_linear_318_5292" x1="147.573" y1="13.9135" x2="78.597" y2="132.323" gradientUnits="userSpaceOnUse">
<stop stop-color="#584DD9" stop-opacity="0"/>
<stop offset="0.5" stop-color="#584DD9"/>
<stop offset="1" stop-color="#584DD9" stop-opacity="0"/>
</linearGradient>
<linearGradient id="paint4_linear_318_5292" x1="102.739" y1="98.4097" x2="51.5812" y2="63.9215" gradientUnits="userSpaceOnUse">
<stop stop-opacity="0"/>
<stop offset="0.5" stop-color="#7469EE"/>
<stop offset="1" stop-opacity="0"/>
</linearGradient>
<linearGradient id="paint5_linear_318_5292" x1="102.739" y1="98.4097" x2="51.5812" y2="63.9215" gradientUnits="userSpaceOnUse">
<stop stop-opacity="0"/>
<stop offset="0.5" stop-color="#7469EE"/>
<stop offset="1" stop-opacity="0"/>
</linearGradient>
<linearGradient id="paint6_linear_318_5292" x1="130.904" y1="42.6537" x2="92.9671" y2="107.607" gradientUnits="userSpaceOnUse">
<stop stop-opacity="0"/>
<stop offset="0.5" stop-color="#584DD9"/>
<stop offset="1" stop-opacity="0"/>
</linearGradient>
<linearGradient id="paint7_linear_318_5292" x1="102.739" y1="98.4097" x2="51.5812" y2="63.9215" gradientUnits="userSpaceOnUse">
<stop stop-opacity="0"/>
<stop offset="0.5" stop-color="#7469EE"/>
<stop offset="1" stop-opacity="0"/>
</linearGradient>
<linearGradient id="paint8_linear_318_5292" x1="130.904" y1="42.6537" x2="92.9671" y2="107.607" gradientUnits="userSpaceOnUse">
<stop stop-opacity="0"/>
<stop offset="0.5" stop-color="#584DD9"/>
<stop offset="1" stop-opacity="0"/>
</linearGradient>
<linearGradient id="paint9_linear_318_5292" x1="102.739" y1="98.4097" x2="51.5812" y2="63.9215" gradientUnits="userSpaceOnUse">
<stop stop-opacity="0"/>
<stop offset="0.5" stop-color="#7469EE"/>
<stop offset="1" stop-opacity="0"/>
</linearGradient>
<linearGradient id="paint10_linear_318_5292" x1="130.904" y1="42.6537" x2="92.9671" y2="107.607" gradientUnits="userSpaceOnUse">
<stop stop-opacity="0"/>
<stop offset="0.5" stop-color="#584DD9"/>
<stop offset="1" stop-opacity="0"/>
</linearGradient>
<linearGradient id="paint11_linear_318_5292" x1="102.739" y1="98.4097" x2="51.5812" y2="63.9215" gradientUnits="userSpaceOnUse">
<stop stop-opacity="0"/>
<stop offset="0.5" stop-color="#7469EE"/>
<stop offset="1" stop-opacity="0"/>
</linearGradient>
<linearGradient id="paint12_linear_318_5292" x1="130.904" y1="42.6537" x2="92.9671" y2="107.607" gradientUnits="userSpaceOnUse">
<stop stop-opacity="0"/>
<stop offset="0.5" stop-color="#584DD9"/>
<stop offset="1" stop-opacity="0"/>
</linearGradient>
<linearGradient id="paint13_linear_318_5292" x1="102.739" y1="98.4097" x2="51.5812" y2="63.9215" gradientUnits="userSpaceOnUse">
<stop stop-opacity="0"/>
<stop offset="0.5" stop-color="#362CAC"/>
<stop offset="1" stop-opacity="0"/>
</linearGradient>
<linearGradient id="paint14_linear_318_5292" x1="61.3541" y1="47.8268" x2="75.7242" y2="58.7481" gradientUnits="userSpaceOnUse">
<stop stop-color="#AAB8FA"/>
<stop offset="1" stop-color="#666666" stop-opacity="0"/>
</linearGradient>
<linearGradient id="paint15_linear_318_5292" x1="61.3541" y1="47.8268" x2="75.7242" y2="58.7481" gradientUnits="userSpaceOnUse">
<stop stop-color="#AAB8FA"/>
<stop offset="1" stop-color="#666666" stop-opacity="0"/>
</linearGradient>
<linearGradient id="paint16_linear_318_5292" x1="92.3935" y1="50.1261" x2="90.6691" y2="56.4489" gradientUnits="userSpaceOnUse">
<stop stop-color="#CF64F8"/>
<stop offset="1" stop-color="#666666" stop-opacity="0"/>
</linearGradient>
<linearGradient id="paint17_linear_318_5292" x1="92.3935" y1="50.1261" x2="90.6691" y2="56.4489" gradientUnits="userSpaceOnUse">
<stop stop-color="#CF64F8"/>
<stop offset="1" stop-color="#666666" stop-opacity="0"/>
</linearGradient>
<linearGradient id="paint18_linear_318_5292" x1="81.4722" y1="73.1182" x2="82.6219" y2="70.2442" gradientUnits="userSpaceOnUse">
<stop stop-color="#CF64F8"/>
<stop offset="1" stop-color="#666666" stop-opacity="0"/>
</linearGradient>
<linearGradient id="paint19_linear_318_5292" x1="81.4722" y1="73.1182" x2="82.6219" y2="70.2442" gradientUnits="userSpaceOnUse">
<stop stop-color="#CF64F8"/>
<stop offset="1" stop-color="#666666" stop-opacity="0"/>
</linearGradient>
<linearGradient id="paint20_linear_318_5292" x1="35.2363" y1="62.3643" x2="80.6134" y2="140.95" gradientUnits="userSpaceOnUse">
<stop offset="0.15" stop-opacity="0"/>
<stop offset="0.5" stop-color="#7469EE"/>
<stop offset="0.85" stop-opacity="0"/>
</linearGradient>
<linearGradient id="paint21_linear_318_5292" x1="35.2363" y1="62.3643" x2="80.6134" y2="140.95" gradientUnits="userSpaceOnUse">
<stop offset="0.15" stop-opacity="0"/>
<stop offset="0.5" stop-color="#7469EE"/>
<stop offset="0.85" stop-opacity="0"/>
</linearGradient>
<linearGradient id="paint22_linear_318_5292" x1="154.065" y1="33.2496" x2="93.5834" y2="134" gradientUnits="userSpaceOnUse">
<stop offset="0.15" stop-opacity="0"/>
<stop offset="0.5" stop-color="#C5CCFF"/>
<stop offset="0.85" stop-opacity="0"/>
</linearGradient>
<linearGradient id="paint23_linear_318_5292" x1="154.065" y1="33.2496" x2="93.5834" y2="134" gradientUnits="userSpaceOnUse">
<stop offset="0.15" stop-opacity="0"/>
<stop offset="0.5" stop-color="#C5CCFF"/>
<stop offset="0.85" stop-opacity="0"/>
</linearGradient>
<linearGradient id="paint24_linear_318_5292" x1="64.4417" y1="20.8766" x2="149.195" y2="22.1751" gradientUnits="userSpaceOnUse">
<stop offset="0.15" stop-opacity="0"/>
<stop offset="0.5" stop-color="#7469EE"/>
<stop offset="0.85" stop-opacity="0"/>
</linearGradient>
<linearGradient id="paint25_linear_318_5292" x1="64.4417" y1="20.8766" x2="149.195" y2="22.1751" gradientUnits="userSpaceOnUse">
<stop offset="0.15" stop-opacity="0"/>
<stop offset="0.5" stop-color="#7469EE"/>
<stop offset="0.85" stop-opacity="0"/>
</linearGradient>
</defs>
</svg>
