<svg width="32" height="32" viewBox="0 0 32 32" fill="none" xmlns="http://www.w3.org/2000/svg">
<path d="M15.9993 2.6665C14.2484 2.6665 12.5146 3.01138 10.8969 3.68144C9.27923 4.35151 7.80937 5.33363 6.57126 6.57175C4.07077 9.07223 2.66602 12.4636 2.66602 15.9998C2.66602 21.8932 6.49268 26.8932 11.786 28.6665C12.4527 28.7732 12.666 28.3598 12.666 27.9998V25.7465C8.97268 26.5465 8.18602 23.9598 8.18602 23.9598C7.57268 22.4132 6.70602 21.9998 6.70602 21.9998C5.49268 21.1732 6.79935 21.1998 6.79935 21.1998C8.13268 21.2932 8.83935 22.5732 8.83935 22.5732C9.99935 24.5998 11.9593 23.9998 12.7193 23.6798C12.8393 22.8132 13.186 22.2265 13.5593 21.8932C10.5993 21.5598 7.49268 20.4132 7.49268 15.3332C7.49268 13.8532 7.99935 12.6665 8.86602 11.7198C8.73268 11.3865 8.26602 9.99984 8.99935 8.19984C8.99935 8.19984 10.1193 7.83984 12.666 9.55984C13.7193 9.2665 14.866 9.11984 15.9993 9.11984C17.1327 9.11984 18.2793 9.2665 19.3327 9.55984C21.8793 7.83984 22.9993 8.19984 22.9993 8.19984C23.7327 9.99984 23.266 11.3865 23.1327 11.7198C23.9993 12.6665 24.506 13.8532 24.506 15.3332C24.506 20.4265 21.386 21.5465 18.4127 21.8798C18.8927 22.2932 19.3327 23.1065 19.3327 24.3465V27.9998C19.3327 28.3598 19.546 28.7865 20.226 28.6665C25.5193 26.8798 29.3327 21.8932 29.3327 15.9998C29.3327 14.2489 28.9878 12.5151 28.3177 10.8974C27.6477 9.27972 26.6656 7.80986 25.4274 6.57175C24.1893 5.33363 22.7195 4.35151 21.1018 3.68144C19.4841 3.01138 17.7503 2.6665 15.9993 2.6665Z" fill="#EDF0FF"/>
</svg>
