<svg width="390" height="411" viewBox="0 0 390 411" fill="none" xmlns="http://www.w3.org/2000/svg">
<g filter="url(#filter0_iiii_263_3638)">
<path d="M180.575 268.694C187.504 280.694 204.824 280.694 211.752 268.694L297.482 120.206C304.41 108.206 295.75 93.2059 281.893 93.2059H110.434C96.5779 93.2059 87.9176 108.206 94.8458 120.206L180.575 268.694Z" fill="#111111"/>
</g>
<path opacity="0.6" d="M297.915 120.456L212.185 268.944C205.065 281.277 187.263 281.277 180.142 268.944L94.4128 120.456C87.2922 108.123 96.193 92.7059 110.434 92.7059H281.893C296.135 92.7059 305.036 108.123 297.915 120.456Z" stroke="#454545"/>
<g opacity="0.6">
<path d="M297.915 120.456L212.185 268.944C205.065 281.277 187.263 281.277 180.142 268.944L94.4128 120.456C87.2922 108.123 96.193 92.7059 110.434 92.7059H281.893C296.135 92.7059 305.036 108.123 297.915 120.456Z" stroke="url(#paint0_linear_263_3638)"/>
<path d="M297.915 120.456L212.185 268.944C205.065 281.277 187.263 281.277 180.142 268.944L94.4128 120.456C87.2922 108.123 96.193 92.7059 110.434 92.7059H281.893C296.135 92.7059 305.036 108.123 297.915 120.456Z" stroke="url(#paint1_linear_263_3638)" stroke-opacity="0.6" style="mix-blend-mode:plus-lighter"/>
</g>
<g filter="url(#filter1_i_263_3638)">
<path d="M194.429 250.162C195.199 251.495 197.124 251.495 197.893 250.162L274.502 117.472C275.272 116.138 274.31 114.472 272.77 114.472H119.553C118.013 114.472 117.051 116.138 117.821 117.472L194.429 250.162Z" stroke="#362CAC" stroke-width="10"/>
<path d="M194.429 250.162C195.199 251.495 197.124 251.495 197.893 250.162L274.502 117.472C275.272 116.138 274.31 114.472 272.77 114.472H119.553C118.013 114.472 117.051 116.138 117.821 117.472L194.429 250.162Z" stroke="url(#paint2_linear_263_3638)" stroke-width="10"/>
<path d="M194.429 250.162C195.199 251.495 197.124 251.495 197.893 250.162L274.502 117.472C275.272 116.138 274.31 114.472 272.77 114.472H119.553C118.013 114.472 117.051 116.138 117.821 117.472L194.429 250.162Z" stroke="url(#paint3_linear_263_3638)" stroke-width="10" style="mix-blend-mode:plus-lighter"/>
<path d="M194.429 250.162C195.199 251.495 197.124 251.495 197.893 250.162L274.502 117.472C275.272 116.138 274.31 114.472 272.77 114.472H119.553C118.013 114.472 117.051 116.138 117.821 117.472L194.429 250.162Z" stroke="url(#paint4_linear_263_3638)" stroke-width="10"/>
<path d="M194.429 250.162C195.199 251.495 197.124 251.495 197.893 250.162L274.502 117.472C275.272 116.138 274.31 114.472 272.77 114.472H119.553C118.013 114.472 117.051 116.138 117.821 117.472L194.429 250.162Z" stroke="url(#paint5_linear_263_3638)" stroke-width="10" style="mix-blend-mode:plus-lighter"/>
</g>
<g opacity="0.7">
<g filter="url(#filter2_f_263_3638)">
<path d="M194.429 250.162C195.199 251.495 197.124 251.495 197.893 250.162L274.502 117.472C275.272 116.138 274.31 114.472 272.77 114.472H119.553C118.013 114.472 117.051 116.138 117.821 117.472L194.429 250.162Z" stroke="#362CAC" stroke-width="10"/>
<path d="M194.429 250.162C195.199 251.495 197.124 251.495 197.893 250.162L274.502 117.472C275.272 116.138 274.31 114.472 272.77 114.472H119.553C118.013 114.472 117.051 116.138 117.821 117.472L194.429 250.162Z" stroke="url(#paint6_linear_263_3638)" stroke-width="10"/>
<path d="M194.429 250.162C195.199 251.495 197.124 251.495 197.893 250.162L274.502 117.472C275.272 116.138 274.31 114.472 272.77 114.472H119.553C118.013 114.472 117.051 116.138 117.821 117.472L194.429 250.162Z" stroke="url(#paint7_linear_263_3638)" stroke-width="10"/>
</g>
<g style="mix-blend-mode:plus-lighter" filter="url(#filter3_f_263_3638)">
<path d="M194.429 250.162C195.199 251.495 197.124 251.495 197.893 250.162L274.502 117.472C275.272 116.138 274.31 114.472 272.77 114.472H119.553C118.013 114.472 117.051 116.138 117.821 117.472L194.429 250.162Z" stroke="#362CAC" stroke-width="10"/>
<path d="M194.429 250.162C195.199 251.495 197.124 251.495 197.893 250.162L274.502 117.472C275.272 116.138 274.31 114.472 272.77 114.472H119.553C118.013 114.472 117.051 116.138 117.821 117.472L194.429 250.162Z" stroke="url(#paint8_linear_263_3638)" stroke-width="10" style="mix-blend-mode:plus-lighter"/>
<path d="M194.429 250.162C195.199 251.495 197.124 251.495 197.893 250.162L274.502 117.472C275.272 116.138 274.31 114.472 272.77 114.472H119.553C118.013 114.472 117.051 116.138 117.821 117.472L194.429 250.162Z" stroke="url(#paint9_linear_263_3638)" stroke-width="10" style="mix-blend-mode:plus-lighter"/>
</g>
<g style="mix-blend-mode:plus-lighter" filter="url(#filter4_f_263_3638)">
<path d="M194.429 250.162C195.199 251.495 197.124 251.495 197.893 250.162L274.502 117.472C275.272 116.138 274.31 114.472 272.77 114.472H119.553C118.013 114.472 117.051 116.138 117.821 117.472L194.429 250.162Z" stroke="#362CAC" stroke-width="10"/>
<path d="M194.429 250.162C195.199 251.495 197.124 251.495 197.893 250.162L274.502 117.472C275.272 116.138 274.31 114.472 272.77 114.472H119.553C118.013 114.472 117.051 116.138 117.821 117.472L194.429 250.162Z" stroke="url(#paint10_linear_263_3638)" stroke-width="10" style="mix-blend-mode:plus-lighter"/>
<path d="M194.429 250.162C195.199 251.495 197.124 251.495 197.893 250.162L274.502 117.472C275.272 116.138 274.31 114.472 272.77 114.472H119.553C118.013 114.472 117.051 116.138 117.821 117.472L194.429 250.162Z" stroke="url(#paint11_linear_263_3638)" stroke-width="10" style="mix-blend-mode:plus-lighter"/>
</g>
</g>
<g style="mix-blend-mode:plus-lighter" opacity="0.8" filter="url(#filter5_f_263_3638)">
<path d="M194.429 250.162C195.199 251.495 197.124 251.495 197.893 250.162L274.502 117.472C275.272 116.138 274.31 114.472 272.77 114.472H119.553C118.013 114.472 117.051 116.138 117.821 117.472L194.429 250.162Z" stroke="#362CAC" stroke-width="10"/>
<path d="M194.429 250.162C195.199 251.495 197.124 251.495 197.893 250.162L274.502 117.472C275.272 116.138 274.31 114.472 272.77 114.472H119.553C118.013 114.472 117.051 116.138 117.821 117.472L194.429 250.162Z" stroke="url(#paint12_linear_263_3638)" stroke-width="10" style="mix-blend-mode:plus-lighter"/>
<path d="M194.429 250.162C195.199 251.495 197.124 251.495 197.893 250.162L274.502 117.472C275.272 116.138 274.31 114.472 272.77 114.472H119.553C118.013 114.472 117.051 116.138 117.821 117.472L194.429 250.162Z" stroke="url(#paint13_linear_263_3638)" stroke-width="10" style="mix-blend-mode:plus-lighter"/>
</g>
<g filter="url(#filter6_d_263_3638)">
<mask id="path-9-inside-1_263_3638" fill="white">
<path d="M224.751 144.059C225.303 144.059 225.752 144.507 225.734 145.059C225.481 152.543 222.397 159.668 217.085 164.981C211.536 170.529 204.01 173.646 196.163 173.646C188.316 173.646 180.791 170.529 175.242 164.981C169.93 159.668 166.846 152.543 166.593 145.059C166.574 144.507 167.024 144.059 167.576 144.059L196.163 144.059H224.751Z"/>
</mask>
<path d="M224.751 144.059C225.303 144.059 225.752 144.507 225.734 145.059C225.481 152.543 222.397 159.668 217.085 164.981C211.536 170.529 204.01 173.646 196.163 173.646C188.316 173.646 180.791 170.529 175.242 164.981C169.93 159.668 166.846 152.543 166.593 145.059C166.574 144.507 167.024 144.059 167.576 144.059L196.163 144.059H224.751Z" fill="#222222"/>
<path d="M224.751 144.059C225.303 144.059 225.752 144.507 225.734 145.059C225.481 152.543 222.397 159.668 217.085 164.981C211.536 170.529 204.01 173.646 196.163 173.646C188.316 173.646 180.791 170.529 175.242 164.981C169.93 159.668 166.846 152.543 166.593 145.059C166.574 144.507 167.024 144.059 167.576 144.059L196.163 144.059H224.751Z" stroke="url(#paint14_linear_263_3638)" stroke-width="2" mask="url(#path-9-inside-1_263_3638)"/>
<path d="M224.751 144.059C225.303 144.059 225.752 144.507 225.734 145.059C225.481 152.543 222.397 159.668 217.085 164.981C211.536 170.529 204.01 173.646 196.163 173.646C188.316 173.646 180.791 170.529 175.242 164.981C169.93 159.668 166.846 152.543 166.593 145.059C166.574 144.507 167.024 144.059 167.576 144.059L196.163 144.059H224.751Z" stroke="url(#paint15_linear_263_3638)" stroke-width="2" style="mix-blend-mode:plus-lighter" mask="url(#path-9-inside-1_263_3638)"/>
</g>
<g opacity="0.8" filter="url(#filter7_d_263_3638)">
<mask id="path-10-inside-2_263_3638" fill="white">
<path d="M224.751 144.059C225.303 144.059 225.752 144.507 225.734 145.059C225.481 152.543 222.397 159.668 217.085 164.981C211.536 170.529 204.01 173.646 196.163 173.646C188.316 173.646 180.791 170.529 175.242 164.981C169.93 159.668 166.846 152.543 166.593 145.059C166.574 144.507 167.024 144.059 167.576 144.059L196.163 144.059H224.751Z"/>
</mask>
<path d="M224.751 144.059C225.303 144.059 225.752 144.507 225.734 145.059C225.481 152.543 222.397 159.668 217.085 164.981C211.536 170.529 204.01 173.646 196.163 173.646C188.316 173.646 180.791 170.529 175.242 164.981C169.93 159.668 166.846 152.543 166.593 145.059C166.574 144.507 167.024 144.059 167.576 144.059L196.163 144.059H224.751Z" stroke="url(#paint16_linear_263_3638)" stroke-width="2" shape-rendering="crispEdges" mask="url(#path-10-inside-2_263_3638)"/>
<path d="M224.751 144.059C225.303 144.059 225.752 144.507 225.734 145.059C225.481 152.543 222.397 159.668 217.085 164.981C211.536 170.529 204.01 173.646 196.163 173.646C188.316 173.646 180.791 170.529 175.242 164.981C169.93 159.668 166.846 152.543 166.593 145.059C166.574 144.507 167.024 144.059 167.576 144.059L196.163 144.059H224.751Z" stroke="url(#paint17_linear_263_3638)" stroke-width="2" style="mix-blend-mode:plus-lighter" shape-rendering="crispEdges" mask="url(#path-10-inside-2_263_3638)"/>
</g>
<g opacity="0.4" filter="url(#filter8_d_263_3638)">
<mask id="path-11-inside-3_263_3638" fill="white">
<path d="M224.751 144.059C225.303 144.059 225.752 144.507 225.734 145.059C225.481 152.543 222.397 159.668 217.085 164.981C211.536 170.529 204.01 173.646 196.163 173.646C188.316 173.646 180.791 170.529 175.242 164.981C169.93 159.668 166.846 152.543 166.593 145.059C166.574 144.507 167.024 144.059 167.576 144.059L196.163 144.059H224.751Z"/>
</mask>
<path d="M224.751 144.059C225.303 144.059 225.752 144.507 225.734 145.059C225.481 152.543 222.397 159.668 217.085 164.981C211.536 170.529 204.01 173.646 196.163 173.646C188.316 173.646 180.791 170.529 175.242 164.981C169.93 159.668 166.846 152.543 166.593 145.059C166.574 144.507 167.024 144.059 167.576 144.059L196.163 144.059H224.751Z" stroke="url(#paint18_linear_263_3638)" stroke-width="2" shape-rendering="crispEdges" mask="url(#path-11-inside-3_263_3638)"/>
<path d="M224.751 144.059C225.303 144.059 225.752 144.507 225.734 145.059C225.481 152.543 222.397 159.668 217.085 164.981C211.536 170.529 204.01 173.646 196.163 173.646C188.316 173.646 180.791 170.529 175.242 164.981C169.93 159.668 166.846 152.543 166.593 145.059C166.574 144.507 167.024 144.059 167.576 144.059L196.163 144.059H224.751Z" stroke="url(#paint19_linear_263_3638)" stroke-width="2" style="mix-blend-mode:plus-lighter" shape-rendering="crispEdges" mask="url(#path-11-inside-3_263_3638)"/>
</g>
<g opacity="0.7">
<path d="M116.242 158.198L189.234 284.607" stroke="url(#paint20_linear_263_3638)"/>
<path d="M116.242 158.198L189.234 284.607" stroke="url(#paint21_linear_263_3638)" style="mix-blend-mode:plus-lighter"/>
</g>
<g opacity="0.6">
<path d="M303.754 110.343L209.674 273.231" stroke="url(#paint22_linear_263_3638)"/>
<path d="M303.754 110.343L209.674 273.231" stroke="url(#paint23_linear_263_3638)" stroke-opacity="0.6" style="mix-blend-mode:plus-lighter"/>
</g>
<g opacity="0.7">
<path d="M163.461 92.7241L299.518 92.7241" stroke="url(#paint24_linear_263_3638)"/>
<path d="M163.461 92.7241L299.518 92.7241" stroke="url(#paint25_linear_263_3638)" style="mix-blend-mode:plus-lighter"/>
</g>
<g opacity="0.5">
<path opacity="0.6" d="M247.942 261.522C262.664 270.022 280.16 272.325 296.58 267.925C313 263.526 326.999 252.783 335.499 238.061C343.999 223.34 346.302 205.844 341.902 189.424C337.502 173.004 326.76 159.004 312.038 150.505L279.99 206.013L247.942 261.522Z" fill="url(#paint26_radial_263_3638)"/>
<path opacity="0.6" d="M259.602 65.0958C259.602 48.0966 252.849 31.7935 240.829 19.7732C228.808 7.75294 212.505 1 195.506 1C178.507 0.999999 162.204 7.75293 150.183 19.7732C138.163 31.7935 131.41 48.0966 131.41 65.0958L195.506 65.0958L259.602 65.0958Z" fill="url(#paint27_radial_263_3638)"/>
<path opacity="0.6" d="M79.0183 150.505C64.2965 159.004 53.5541 173.004 49.1544 189.424C44.7546 205.844 47.0579 223.339 55.5575 238.061C64.0572 252.783 78.0569 263.525 94.4769 267.925C110.897 272.325 128.392 270.022 143.114 261.522L111.066 206.013L79.0183 150.505Z" fill="url(#paint28_radial_263_3638)"/>
</g>
<g opacity="0.8">
<path d="M242.777 269.698L314.885 144.804" stroke="url(#paint29_linear_263_3638)" stroke-linecap="round"/>
<g style="mix-blend-mode:plus-lighter" filter="url(#filter9_f_263_3638)">
<path d="M242.777 269.698L314.885 144.804" stroke="url(#paint30_linear_263_3638)" stroke-linecap="round"/>
</g>
<g style="mix-blend-mode:plus-lighter" filter="url(#filter10_f_263_3638)">
<path d="M242.777 269.698L314.885 144.804" stroke="url(#paint31_linear_263_3638)" stroke-linecap="round"/>
</g>
</g>
<g opacity="0.8">
<path d="M76.127 144.804L148.235 269.698" stroke="url(#paint32_linear_263_3638)" stroke-linecap="round"/>
<g style="mix-blend-mode:plus-lighter" filter="url(#filter11_f_263_3638)">
<path d="M76.127 144.804L148.235 269.698" stroke="url(#paint33_linear_263_3638)" stroke-linecap="round"/>
</g>
<g style="mix-blend-mode:plus-lighter" filter="url(#filter12_f_263_3638)">
<path d="M76.127 144.804L148.235 269.698" stroke="url(#paint34_linear_263_3638)" stroke-linecap="round"/>
</g>
</g>
<g opacity="0.8">
<path d="M123.396 65.4851H267.612" stroke="url(#paint35_linear_263_3638)" stroke-linecap="round"/>
<g style="mix-blend-mode:plus-lighter" filter="url(#filter13_f_263_3638)">
<path d="M123.396 65.4851H267.612" stroke="url(#paint36_linear_263_3638)" stroke-linecap="round"/>
</g>
<g style="mix-blend-mode:plus-lighter" filter="url(#filter14_f_263_3638)">
<path d="M123.396 65.4851H267.612" stroke="url(#paint37_linear_263_3638)" stroke-linecap="round"/>
</g>
</g>
<g opacity="0.7">
<g filter="url(#filter15_f_263_3638)">
<path d="M45 290.5H130L87.5 217L45 290.5Z" fill="url(#paint38_radial_263_3638)"/>
</g>
<g style="mix-blend-mode:plus-lighter" filter="url(#filter16_f_263_3638)">
<path d="M45 290.5H130L87.5 217L45 290.5Z" fill="url(#paint39_radial_263_3638)"/>
</g>
<g style="mix-blend-mode:plus-lighter" filter="url(#filter17_f_263_3638)">
<path d="M45 290.5H130L87.5 217L45 290.5Z" fill="url(#paint40_radial_263_3638)"/>
</g>
<g style="mix-blend-mode:lighten" filter="url(#filter18_f_263_3638)">
<path d="M45 290.5H130L87.5 217L45 290.5Z" fill="url(#paint41_radial_263_3638)"/>
</g>
</g>
<g style="mix-blend-mode:lighten">
<path d="M51.9335 290.5H123.067C126.147 290.5 128.071 287.164 126.529 284.498L90.9628 222.989C89.4226 220.325 85.5774 220.325 84.0372 222.989L48.4707 284.498C46.9288 287.164 48.8531 290.5 51.9335 290.5Z" fill="url(#paint42_radial_263_3638)"/>
</g>
<path style="mix-blend-mode:plus-lighter" d="M51.9335 290.5H123.067C126.147 290.5 128.071 287.164 126.529 284.498L90.9628 222.989C89.4226 220.325 85.5774 220.325 84.0372 222.989L48.4707 284.498C46.9288 287.164 48.8531 290.5 51.9335 290.5Z" stroke="url(#paint43_linear_263_3638)" stroke-opacity="0.4"/>
<g style="mix-blend-mode:plus-lighter" filter="url(#filter19_f_263_3638)">
<path d="M51.9335 290.5H123.067C126.147 290.5 128.071 287.164 126.529 284.498L90.9628 222.989C89.4226 220.325 85.5774 220.325 84.0372 222.989L48.4707 284.498C46.9288 287.164 48.8531 290.5 51.9335 290.5Z" stroke="url(#paint44_linear_263_3638)" stroke-opacity="0.4" style="mix-blend-mode:plus-lighter"/>
</g>
<g style="mix-blend-mode:plus-lighter" filter="url(#filter20_f_263_3638)">
<path d="M51.9335 290.5H123.067C126.147 290.5 128.071 287.164 126.529 284.498L90.9628 222.989C89.4226 220.325 85.5774 220.325 84.0372 222.989L48.4707 284.498C46.9288 287.164 48.8531 290.5 51.9335 290.5Z" stroke="url(#paint45_linear_263_3638)" stroke-opacity="0.4" style="mix-blend-mode:plus-lighter"/>
</g>
<g style="mix-blend-mode:plus-lighter" filter="url(#filter21_f_263_3638)">
<path d="M51.9335 290.5H123.067C126.147 290.5 128.071 287.164 126.529 284.498L90.9628 222.989C89.4226 220.325 85.5774 220.325 84.0372 222.989L48.4707 284.498C46.9288 287.164 48.8531 290.5 51.9335 290.5Z" stroke="url(#paint46_linear_263_3638)" stroke-opacity="0.4" style="mix-blend-mode:plus-lighter"/>
</g>
<g opacity="0.7">
<g filter="url(#filter22_f_263_3638)">
<path d="M345 290.5H260L302.5 217L345 290.5Z" fill="url(#paint47_radial_263_3638)"/>
</g>
<g style="mix-blend-mode:plus-lighter" filter="url(#filter23_f_263_3638)">
<path d="M345 290.5H260L302.5 217L345 290.5Z" fill="url(#paint48_radial_263_3638)"/>
</g>
<g style="mix-blend-mode:plus-lighter" filter="url(#filter24_f_263_3638)">
<path d="M345 290.5H260L302.5 217L345 290.5Z" fill="url(#paint49_radial_263_3638)"/>
</g>
<g style="mix-blend-mode:lighten" filter="url(#filter25_f_263_3638)">
<path d="M345 290.5H260L302.5 217L345 290.5Z" fill="url(#paint50_radial_263_3638)"/>
</g>
</g>
<g style="mix-blend-mode:lighten">
<path d="M338.067 290.5H266.933C263.853 290.5 261.929 287.164 263.471 284.498L299.037 222.989C300.577 220.325 304.423 220.325 305.963 222.989L341.529 284.498C343.071 287.164 341.147 290.5 338.067 290.5Z" fill="url(#paint51_radial_263_3638)"/>
</g>
<path style="mix-blend-mode:plus-lighter" d="M338.067 290.5H266.933C263.853 290.5 261.929 287.164 263.471 284.498L299.037 222.989C300.577 220.325 304.423 220.325 305.963 222.989L341.529 284.498C343.071 287.164 341.147 290.5 338.067 290.5Z" stroke="url(#paint52_linear_263_3638)" stroke-opacity="0.4"/>
<g style="mix-blend-mode:plus-lighter" filter="url(#filter26_f_263_3638)">
<path d="M338.067 290.5H266.933C263.853 290.5 261.929 287.164 263.471 284.498L299.037 222.989C300.577 220.325 304.423 220.325 305.963 222.989L341.529 284.498C343.071 287.164 341.147 290.5 338.067 290.5Z" stroke="url(#paint53_linear_263_3638)" stroke-opacity="0.4" style="mix-blend-mode:plus-lighter"/>
</g>
<g style="mix-blend-mode:plus-lighter" filter="url(#filter27_f_263_3638)">
<path d="M338.067 290.5H266.933C263.853 290.5 261.929 287.164 263.471 284.498L299.037 222.989C300.577 220.325 304.423 220.325 305.963 222.989L341.529 284.498C343.071 287.164 341.147 290.5 338.067 290.5Z" stroke="url(#paint54_linear_263_3638)" stroke-opacity="0.4" style="mix-blend-mode:plus-lighter"/>
</g>
<g style="mix-blend-mode:plus-lighter" filter="url(#filter28_f_263_3638)">
<path d="M338.067 290.5H266.933C263.853 290.5 261.929 287.164 263.471 284.498L299.037 222.989C300.577 220.325 304.423 220.325 305.963 222.989L341.529 284.498C343.071 287.164 341.147 290.5 338.067 290.5Z" stroke="url(#paint55_linear_263_3638)" stroke-opacity="0.4" style="mix-blend-mode:plus-lighter"/>
</g>
<path d="M97.4 46V24.656H105.432C108.973 24.656 111.587 25.552 113.272 27.344C114.979 29.136 115.832 31.792 115.832 35.312C115.832 38.832 114.979 41.4987 113.272 43.312C111.587 45.104 108.973 46 105.432 46H97.4ZM101.752 42.512H104.952C107.107 42.512 108.717 41.9467 109.784 40.816C110.851 39.664 111.384 37.8293 111.384 35.312C111.384 32.816 110.851 30.992 109.784 29.84C108.717 28.688 107.107 28.112 104.952 28.112H101.752V42.512ZM129.888 46.48C128.288 46.48 126.89 46.16 125.696 45.52C124.501 44.8587 123.573 43.8987 122.912 42.64C122.25 41.3813 121.92 39.8667 121.92 38.096C121.92 35.28 122.592 33.136 123.936 31.664C125.301 30.1707 127.21 29.424 129.664 29.424C131.434 29.424 132.853 29.808 133.92 30.576C135.008 31.344 135.797 32.4427 136.288 33.872C136.8 35.28 137.045 36.9653 137.024 38.928H124.544L124.224 36.176H133.792L133.024 37.328C132.981 35.6427 132.682 34.4373 132.128 33.712C131.594 32.9653 130.73 32.592 129.536 32.592C128.81 32.592 128.17 32.7627 127.616 33.104C127.082 33.424 126.666 33.968 126.368 34.736C126.09 35.504 125.952 36.56 125.952 37.904C125.952 39.568 126.346 40.848 127.136 41.744C127.925 42.6187 129.13 43.056 130.752 43.056C131.413 43.056 132.042 42.992 132.64 42.864C133.258 42.7147 133.824 42.544 134.336 42.352C134.869 42.16 135.317 41.9787 135.68 41.808V45.392C134.933 45.712 134.08 45.968 133.12 46.16C132.181 46.3733 131.104 46.48 129.888 46.48ZM148.173 46L141.421 29.872H145.773L150.989 42.8L149.997 42.864L154.765 29.872H158.989L152.237 46H148.173ZM165.5 46V24.656H173.532C177.073 24.656 179.687 25.552 181.372 27.344C183.079 29.136 183.932 31.792 183.932 35.312C183.932 38.832 183.079 41.4987 181.372 43.312C179.687 45.104 177.073 46 173.532 46H165.5ZM169.852 42.512H173.052C175.207 42.512 176.817 41.9467 177.884 40.816C178.951 39.664 179.484 37.8293 179.484 35.312C179.484 32.816 178.951 30.992 177.884 29.84C176.817 28.688 175.207 28.112 173.052 28.112H169.852V42.512ZM190.884 46V31.44C191.182 31.248 191.705 30.992 192.452 30.672C193.22 30.352 194.105 30.0747 195.108 29.84C196.11 29.584 197.124 29.456 198.148 29.456C198.916 29.456 199.524 29.52 199.972 29.648C200.441 29.7547 200.804 29.8933 201.06 30.064V33.136C200.633 33.072 200.142 33.0187 199.588 32.976C199.054 32.9333 198.5 32.9227 197.924 32.944C197.369 32.944 196.825 32.9653 196.292 33.008C195.78 33.0507 195.332 33.104 194.948 33.168V46H190.884ZM213.688 46.48C212.088 46.48 210.69 46.16 209.496 45.52C208.301 44.8587 207.373 43.8987 206.712 42.64C206.05 41.3813 205.72 39.8667 205.72 38.096C205.72 35.28 206.392 33.136 207.736 31.664C209.101 30.1707 211.01 29.424 213.464 29.424C215.234 29.424 216.653 29.808 217.72 30.576C218.808 31.344 219.597 32.4427 220.088 33.872C220.6 35.28 220.845 36.9653 220.824 38.928H208.344L208.024 36.176H217.592L216.824 37.328C216.781 35.6427 216.482 34.4373 215.928 33.712C215.394 32.9653 214.53 32.592 213.336 32.592C212.61 32.592 211.97 32.7627 211.416 33.104C210.882 33.424 210.466 33.968 210.168 34.736C209.89 35.504 209.752 36.56 209.752 37.904C209.752 39.568 210.146 40.848 210.936 41.744C211.725 42.6187 212.93 43.056 214.552 43.056C215.213 43.056 215.842 42.992 216.44 42.864C217.058 42.7147 217.624 42.544 218.136 42.352C218.669 42.16 219.117 41.9787 219.48 41.808V45.392C218.733 45.712 217.88 45.968 216.92 46.16C215.981 46.3733 214.904 46.48 213.688 46.48ZM233.612 46.48C232.716 46.48 231.863 46.3947 231.052 46.224C230.242 46.0533 229.516 45.776 228.876 45.392C228.236 44.9867 227.724 44.4427 227.34 43.76C226.978 43.056 226.796 42.1813 226.796 41.136C226.796 40.048 227.02 39.1307 227.468 38.384C227.916 37.616 228.567 37.04 229.42 36.656C230.295 36.2507 231.362 36.048 232.62 36.048C233.388 36.048 234.103 36.1227 234.764 36.272C235.426 36.4 236.023 36.5813 236.556 36.816C237.09 37.0507 237.527 37.3067 237.868 37.584L238.156 39.856C237.708 39.5573 237.132 39.3227 236.428 39.152C235.746 38.96 234.999 38.864 234.188 38.864C233.058 38.864 232.215 39.0453 231.66 39.408C231.106 39.7707 230.828 40.336 230.828 41.104C230.828 41.6373 230.978 42.0853 231.276 42.448C231.575 42.7893 231.959 43.056 232.428 43.248C232.898 43.4187 233.388 43.504 233.9 43.504C235.074 43.504 235.916 43.4293 236.428 43.28C236.962 43.1093 237.228 42.7573 237.228 42.224V35.856C237.228 34.8107 236.898 34.0533 236.236 33.584C235.575 33.0933 234.647 32.848 233.452 32.848C232.535 32.848 231.596 33.008 230.636 33.328C229.676 33.6267 228.898 34.0213 228.3 34.512V30.832C228.876 30.4693 229.74 30.1493 230.892 29.872C232.044 29.5947 233.282 29.456 234.604 29.456C235.159 29.456 235.746 29.5093 236.364 29.616C236.983 29.7227 237.57 29.8933 238.124 30.128C238.7 30.3627 239.223 30.6933 239.692 31.12C240.162 31.5253 240.535 32.048 240.812 32.688C241.09 33.3067 241.228 34.064 241.228 34.96V42.608C241.228 43.6107 240.908 44.4 240.268 44.976C239.628 45.5307 238.743 45.9147 237.612 46.128C236.482 46.3627 235.148 46.48 233.612 46.48ZM263.385 35.248V46H259.353V35.952C259.353 35.5467 259.3 35.1627 259.193 34.8C259.087 34.416 258.905 34.0853 258.649 33.808C258.393 33.5093 258.041 33.2853 257.593 33.136C257.145 32.9653 256.569 32.88 255.865 32.88C255.332 32.88 254.809 32.9333 254.297 33.04C253.807 33.1467 253.369 33.2853 252.985 33.456V46H248.921V31.216C249.369 31.0027 249.903 30.7893 250.521 30.576C251.14 30.3627 251.812 30.1813 252.537 30.032C253.263 29.8613 253.988 29.7333 254.713 29.648C255.46 29.5413 256.164 29.488 256.825 29.488C258.319 29.488 259.545 29.6907 260.505 30.096C261.465 30.48 262.18 31.0987 262.649 31.952C263.14 32.784 263.385 33.8827 263.385 35.248ZM259.033 32.176C259.716 31.6 260.495 31.12 261.369 30.736C262.244 30.3307 263.161 30.0213 264.121 29.808C265.081 29.5947 265.999 29.488 266.873 29.488C268.367 29.488 269.593 29.6907 270.553 30.096C271.513 30.48 272.228 31.0987 272.697 31.952C273.188 32.784 273.433 33.8827 273.433 35.248V46H269.401V35.952C269.401 35.5467 269.348 35.1627 269.241 34.8C269.135 34.416 268.953 34.0853 268.697 33.808C268.441 33.5093 268.089 33.2853 267.641 33.136C267.193 32.9653 266.617 32.88 265.913 32.88C265.38 32.88 264.857 32.9547 264.345 33.104C263.855 33.2533 263.417 33.4773 263.033 33.776L259.033 32.176ZM285.857 46.48C284.705 46.48 283.724 46.352 282.913 46.096C282.103 45.8613 281.324 45.5733 280.577 45.232V41.584C281.068 41.904 281.58 42.2133 282.113 42.512C282.668 42.7893 283.255 43.0133 283.873 43.184C284.513 43.3547 285.196 43.44 285.921 43.44C286.775 43.44 287.404 43.28 287.809 42.96C288.236 42.6187 288.449 42.2133 288.449 41.744C288.449 41.296 288.289 40.9547 287.969 40.72C287.649 40.464 287.233 40.2507 286.721 40.08C286.209 39.9093 285.665 39.7387 285.089 39.568C284.556 39.44 284.012 39.2693 283.457 39.056C282.924 38.8427 282.433 38.5547 281.985 38.192C281.537 37.8293 281.175 37.3707 280.897 36.816C280.641 36.24 280.513 35.5467 280.513 34.736C280.513 33.776 280.705 32.9653 281.089 32.304C281.473 31.6427 281.975 31.1093 282.593 30.704C283.212 30.2987 283.895 30.0107 284.641 29.84C285.388 29.648 286.113 29.552 286.817 29.552C288.033 29.5947 289.015 29.744 289.761 30C290.508 30.2347 291.212 30.544 291.873 30.928L291.905 34.224C291.159 33.8187 290.433 33.456 289.729 33.136C289.025 32.7947 288.225 32.624 287.329 32.624C286.497 32.624 285.847 32.7733 285.377 33.072C284.929 33.3493 284.705 33.744 284.705 34.256C284.705 34.704 284.844 35.0667 285.121 35.344C285.399 35.6213 285.761 35.8347 286.209 35.984C286.657 36.1333 287.148 36.2827 287.681 36.432C288.215 36.5813 288.769 36.752 289.345 36.944C289.921 37.1147 290.455 37.3707 290.945 37.712C291.436 38.0533 291.831 38.512 292.129 39.088C292.449 39.6427 292.609 40.3893 292.609 41.328C292.588 42.5653 292.257 43.568 291.617 44.336C290.977 45.0827 290.135 45.6267 289.089 45.968C288.065 46.3093 286.988 46.48 285.857 46.48Z" fill="url(#paint56_linear_263_3638)"/>
<g style="mix-blend-mode:plus-lighter" opacity="0.5">
<path d="M97.4 46V24.656H105.432C108.973 24.656 111.587 25.552 113.272 27.344C114.979 29.136 115.832 31.792 115.832 35.312C115.832 38.832 114.979 41.4987 113.272 43.312C111.587 45.104 108.973 46 105.432 46H97.4ZM101.752 42.512H104.952C107.107 42.512 108.717 41.9467 109.784 40.816C110.851 39.664 111.384 37.8293 111.384 35.312C111.384 32.816 110.851 30.992 109.784 29.84C108.717 28.688 107.107 28.112 104.952 28.112H101.752V42.512ZM129.888 46.48C128.288 46.48 126.89 46.16 125.696 45.52C124.501 44.8587 123.573 43.8987 122.912 42.64C122.25 41.3813 121.92 39.8667 121.92 38.096C121.92 35.28 122.592 33.136 123.936 31.664C125.301 30.1707 127.21 29.424 129.664 29.424C131.434 29.424 132.853 29.808 133.92 30.576C135.008 31.344 135.797 32.4427 136.288 33.872C136.8 35.28 137.045 36.9653 137.024 38.928H124.544L124.224 36.176H133.792L133.024 37.328C132.981 35.6427 132.682 34.4373 132.128 33.712C131.594 32.9653 130.73 32.592 129.536 32.592C128.81 32.592 128.17 32.7627 127.616 33.104C127.082 33.424 126.666 33.968 126.368 34.736C126.09 35.504 125.952 36.56 125.952 37.904C125.952 39.568 126.346 40.848 127.136 41.744C127.925 42.6187 129.13 43.056 130.752 43.056C131.413 43.056 132.042 42.992 132.64 42.864C133.258 42.7147 133.824 42.544 134.336 42.352C134.869 42.16 135.317 41.9787 135.68 41.808V45.392C134.933 45.712 134.08 45.968 133.12 46.16C132.181 46.3733 131.104 46.48 129.888 46.48ZM148.173 46L141.421 29.872H145.773L150.989 42.8L149.997 42.864L154.765 29.872H158.989L152.237 46H148.173ZM165.5 46V24.656H173.532C177.073 24.656 179.687 25.552 181.372 27.344C183.079 29.136 183.932 31.792 183.932 35.312C183.932 38.832 183.079 41.4987 181.372 43.312C179.687 45.104 177.073 46 173.532 46H165.5ZM169.852 42.512H173.052C175.207 42.512 176.817 41.9467 177.884 40.816C178.951 39.664 179.484 37.8293 179.484 35.312C179.484 32.816 178.951 30.992 177.884 29.84C176.817 28.688 175.207 28.112 173.052 28.112H169.852V42.512ZM190.884 46V31.44C191.182 31.248 191.705 30.992 192.452 30.672C193.22 30.352 194.105 30.0747 195.108 29.84C196.11 29.584 197.124 29.456 198.148 29.456C198.916 29.456 199.524 29.52 199.972 29.648C200.441 29.7547 200.804 29.8933 201.06 30.064V33.136C200.633 33.072 200.142 33.0187 199.588 32.976C199.054 32.9333 198.5 32.9227 197.924 32.944C197.369 32.944 196.825 32.9653 196.292 33.008C195.78 33.0507 195.332 33.104 194.948 33.168V46H190.884ZM213.688 46.48C212.088 46.48 210.69 46.16 209.496 45.52C208.301 44.8587 207.373 43.8987 206.712 42.64C206.05 41.3813 205.72 39.8667 205.72 38.096C205.72 35.28 206.392 33.136 207.736 31.664C209.101 30.1707 211.01 29.424 213.464 29.424C215.234 29.424 216.653 29.808 217.72 30.576C218.808 31.344 219.597 32.4427 220.088 33.872C220.6 35.28 220.845 36.9653 220.824 38.928H208.344L208.024 36.176H217.592L216.824 37.328C216.781 35.6427 216.482 34.4373 215.928 33.712C215.394 32.9653 214.53 32.592 213.336 32.592C212.61 32.592 211.97 32.7627 211.416 33.104C210.882 33.424 210.466 33.968 210.168 34.736C209.89 35.504 209.752 36.56 209.752 37.904C209.752 39.568 210.146 40.848 210.936 41.744C211.725 42.6187 212.93 43.056 214.552 43.056C215.213 43.056 215.842 42.992 216.44 42.864C217.058 42.7147 217.624 42.544 218.136 42.352C218.669 42.16 219.117 41.9787 219.48 41.808V45.392C218.733 45.712 217.88 45.968 216.92 46.16C215.981 46.3733 214.904 46.48 213.688 46.48ZM233.612 46.48C232.716 46.48 231.863 46.3947 231.052 46.224C230.242 46.0533 229.516 45.776 228.876 45.392C228.236 44.9867 227.724 44.4427 227.34 43.76C226.978 43.056 226.796 42.1813 226.796 41.136C226.796 40.048 227.02 39.1307 227.468 38.384C227.916 37.616 228.567 37.04 229.42 36.656C230.295 36.2507 231.362 36.048 232.62 36.048C233.388 36.048 234.103 36.1227 234.764 36.272C235.426 36.4 236.023 36.5813 236.556 36.816C237.09 37.0507 237.527 37.3067 237.868 37.584L238.156 39.856C237.708 39.5573 237.132 39.3227 236.428 39.152C235.746 38.96 234.999 38.864 234.188 38.864C233.058 38.864 232.215 39.0453 231.66 39.408C231.106 39.7707 230.828 40.336 230.828 41.104C230.828 41.6373 230.978 42.0853 231.276 42.448C231.575 42.7893 231.959 43.056 232.428 43.248C232.898 43.4187 233.388 43.504 233.9 43.504C235.074 43.504 235.916 43.4293 236.428 43.28C236.962 43.1093 237.228 42.7573 237.228 42.224V35.856C237.228 34.8107 236.898 34.0533 236.236 33.584C235.575 33.0933 234.647 32.848 233.452 32.848C232.535 32.848 231.596 33.008 230.636 33.328C229.676 33.6267 228.898 34.0213 228.3 34.512V30.832C228.876 30.4693 229.74 30.1493 230.892 29.872C232.044 29.5947 233.282 29.456 234.604 29.456C235.159 29.456 235.746 29.5093 236.364 29.616C236.983 29.7227 237.57 29.8933 238.124 30.128C238.7 30.3627 239.223 30.6933 239.692 31.12C240.162 31.5253 240.535 32.048 240.812 32.688C241.09 33.3067 241.228 34.064 241.228 34.96V42.608C241.228 43.6107 240.908 44.4 240.268 44.976C239.628 45.5307 238.743 45.9147 237.612 46.128C236.482 46.3627 235.148 46.48 233.612 46.48ZM263.385 35.248V46H259.353V35.952C259.353 35.5467 259.3 35.1627 259.193 34.8C259.087 34.416 258.905 34.0853 258.649 33.808C258.393 33.5093 258.041 33.2853 257.593 33.136C257.145 32.9653 256.569 32.88 255.865 32.88C255.332 32.88 254.809 32.9333 254.297 33.04C253.807 33.1467 253.369 33.2853 252.985 33.456V46H248.921V31.216C249.369 31.0027 249.903 30.7893 250.521 30.576C251.14 30.3627 251.812 30.1813 252.537 30.032C253.263 29.8613 253.988 29.7333 254.713 29.648C255.46 29.5413 256.164 29.488 256.825 29.488C258.319 29.488 259.545 29.6907 260.505 30.096C261.465 30.48 262.18 31.0987 262.649 31.952C263.14 32.784 263.385 33.8827 263.385 35.248ZM259.033 32.176C259.716 31.6 260.495 31.12 261.369 30.736C262.244 30.3307 263.161 30.0213 264.121 29.808C265.081 29.5947 265.999 29.488 266.873 29.488C268.367 29.488 269.593 29.6907 270.553 30.096C271.513 30.48 272.228 31.0987 272.697 31.952C273.188 32.784 273.433 33.8827 273.433 35.248V46H269.401V35.952C269.401 35.5467 269.348 35.1627 269.241 34.8C269.135 34.416 268.953 34.0853 268.697 33.808C268.441 33.5093 268.089 33.2853 267.641 33.136C267.193 32.9653 266.617 32.88 265.913 32.88C265.38 32.88 264.857 32.9547 264.345 33.104C263.855 33.2533 263.417 33.4773 263.033 33.776L259.033 32.176ZM285.857 46.48C284.705 46.48 283.724 46.352 282.913 46.096C282.103 45.8613 281.324 45.5733 280.577 45.232V41.584C281.068 41.904 281.58 42.2133 282.113 42.512C282.668 42.7893 283.255 43.0133 283.873 43.184C284.513 43.3547 285.196 43.44 285.921 43.44C286.775 43.44 287.404 43.28 287.809 42.96C288.236 42.6187 288.449 42.2133 288.449 41.744C288.449 41.296 288.289 40.9547 287.969 40.72C287.649 40.464 287.233 40.2507 286.721 40.08C286.209 39.9093 285.665 39.7387 285.089 39.568C284.556 39.44 284.012 39.2693 283.457 39.056C282.924 38.8427 282.433 38.5547 281.985 38.192C281.537 37.8293 281.175 37.3707 280.897 36.816C280.641 36.24 280.513 35.5467 280.513 34.736C280.513 33.776 280.705 32.9653 281.089 32.304C281.473 31.6427 281.975 31.1093 282.593 30.704C283.212 30.2987 283.895 30.0107 284.641 29.84C285.388 29.648 286.113 29.552 286.817 29.552C288.033 29.5947 289.015 29.744 289.761 30C290.508 30.2347 291.212 30.544 291.873 30.928L291.905 34.224C291.159 33.8187 290.433 33.456 289.729 33.136C289.025 32.7947 288.225 32.624 287.329 32.624C286.497 32.624 285.847 32.7733 285.377 33.072C284.929 33.3493 284.705 33.744 284.705 34.256C284.705 34.704 284.844 35.0667 285.121 35.344C285.399 35.6213 285.761 35.8347 286.209 35.984C286.657 36.1333 287.148 36.2827 287.681 36.432C288.215 36.5813 288.769 36.752 289.345 36.944C289.921 37.1147 290.455 37.3707 290.945 37.712C291.436 38.0533 291.831 38.512 292.129 39.088C292.449 39.6427 292.609 40.3893 292.609 41.328C292.588 42.5653 292.257 43.568 291.617 44.336C290.977 45.0827 290.135 45.6267 289.089 45.968C288.065 46.3093 286.988 46.48 285.857 46.48Z" fill="url(#paint57_linear_263_3638)"/>
</g>
<g style="mix-blend-mode:plus-lighter" opacity="0.5" filter="url(#filter29_f_263_3638)">
<path d="M97.4 46V24.656H105.432C108.973 24.656 111.587 25.552 113.272 27.344C114.979 29.136 115.832 31.792 115.832 35.312C115.832 38.832 114.979 41.4987 113.272 43.312C111.587 45.104 108.973 46 105.432 46H97.4ZM101.752 42.512H104.952C107.107 42.512 108.717 41.9467 109.784 40.816C110.851 39.664 111.384 37.8293 111.384 35.312C111.384 32.816 110.851 30.992 109.784 29.84C108.717 28.688 107.107 28.112 104.952 28.112H101.752V42.512ZM129.888 46.48C128.288 46.48 126.89 46.16 125.696 45.52C124.501 44.8587 123.573 43.8987 122.912 42.64C122.25 41.3813 121.92 39.8667 121.92 38.096C121.92 35.28 122.592 33.136 123.936 31.664C125.301 30.1707 127.21 29.424 129.664 29.424C131.434 29.424 132.853 29.808 133.92 30.576C135.008 31.344 135.797 32.4427 136.288 33.872C136.8 35.28 137.045 36.9653 137.024 38.928H124.544L124.224 36.176H133.792L133.024 37.328C132.981 35.6427 132.682 34.4373 132.128 33.712C131.594 32.9653 130.73 32.592 129.536 32.592C128.81 32.592 128.17 32.7627 127.616 33.104C127.082 33.424 126.666 33.968 126.368 34.736C126.09 35.504 125.952 36.56 125.952 37.904C125.952 39.568 126.346 40.848 127.136 41.744C127.925 42.6187 129.13 43.056 130.752 43.056C131.413 43.056 132.042 42.992 132.64 42.864C133.258 42.7147 133.824 42.544 134.336 42.352C134.869 42.16 135.317 41.9787 135.68 41.808V45.392C134.933 45.712 134.08 45.968 133.12 46.16C132.181 46.3733 131.104 46.48 129.888 46.48ZM148.173 46L141.421 29.872H145.773L150.989 42.8L149.997 42.864L154.765 29.872H158.989L152.237 46H148.173ZM165.5 46V24.656H173.532C177.073 24.656 179.687 25.552 181.372 27.344C183.079 29.136 183.932 31.792 183.932 35.312C183.932 38.832 183.079 41.4987 181.372 43.312C179.687 45.104 177.073 46 173.532 46H165.5ZM169.852 42.512H173.052C175.207 42.512 176.817 41.9467 177.884 40.816C178.951 39.664 179.484 37.8293 179.484 35.312C179.484 32.816 178.951 30.992 177.884 29.84C176.817 28.688 175.207 28.112 173.052 28.112H169.852V42.512ZM190.884 46V31.44C191.182 31.248 191.705 30.992 192.452 30.672C193.22 30.352 194.105 30.0747 195.108 29.84C196.11 29.584 197.124 29.456 198.148 29.456C198.916 29.456 199.524 29.52 199.972 29.648C200.441 29.7547 200.804 29.8933 201.06 30.064V33.136C200.633 33.072 200.142 33.0187 199.588 32.976C199.054 32.9333 198.5 32.9227 197.924 32.944C197.369 32.944 196.825 32.9653 196.292 33.008C195.78 33.0507 195.332 33.104 194.948 33.168V46H190.884ZM213.688 46.48C212.088 46.48 210.69 46.16 209.496 45.52C208.301 44.8587 207.373 43.8987 206.712 42.64C206.05 41.3813 205.72 39.8667 205.72 38.096C205.72 35.28 206.392 33.136 207.736 31.664C209.101 30.1707 211.01 29.424 213.464 29.424C215.234 29.424 216.653 29.808 217.72 30.576C218.808 31.344 219.597 32.4427 220.088 33.872C220.6 35.28 220.845 36.9653 220.824 38.928H208.344L208.024 36.176H217.592L216.824 37.328C216.781 35.6427 216.482 34.4373 215.928 33.712C215.394 32.9653 214.53 32.592 213.336 32.592C212.61 32.592 211.97 32.7627 211.416 33.104C210.882 33.424 210.466 33.968 210.168 34.736C209.89 35.504 209.752 36.56 209.752 37.904C209.752 39.568 210.146 40.848 210.936 41.744C211.725 42.6187 212.93 43.056 214.552 43.056C215.213 43.056 215.842 42.992 216.44 42.864C217.058 42.7147 217.624 42.544 218.136 42.352C218.669 42.16 219.117 41.9787 219.48 41.808V45.392C218.733 45.712 217.88 45.968 216.92 46.16C215.981 46.3733 214.904 46.48 213.688 46.48ZM233.612 46.48C232.716 46.48 231.863 46.3947 231.052 46.224C230.242 46.0533 229.516 45.776 228.876 45.392C228.236 44.9867 227.724 44.4427 227.34 43.76C226.978 43.056 226.796 42.1813 226.796 41.136C226.796 40.048 227.02 39.1307 227.468 38.384C227.916 37.616 228.567 37.04 229.42 36.656C230.295 36.2507 231.362 36.048 232.62 36.048C233.388 36.048 234.103 36.1227 234.764 36.272C235.426 36.4 236.023 36.5813 236.556 36.816C237.09 37.0507 237.527 37.3067 237.868 37.584L238.156 39.856C237.708 39.5573 237.132 39.3227 236.428 39.152C235.746 38.96 234.999 38.864 234.188 38.864C233.058 38.864 232.215 39.0453 231.66 39.408C231.106 39.7707 230.828 40.336 230.828 41.104C230.828 41.6373 230.978 42.0853 231.276 42.448C231.575 42.7893 231.959 43.056 232.428 43.248C232.898 43.4187 233.388 43.504 233.9 43.504C235.074 43.504 235.916 43.4293 236.428 43.28C236.962 43.1093 237.228 42.7573 237.228 42.224V35.856C237.228 34.8107 236.898 34.0533 236.236 33.584C235.575 33.0933 234.647 32.848 233.452 32.848C232.535 32.848 231.596 33.008 230.636 33.328C229.676 33.6267 228.898 34.0213 228.3 34.512V30.832C228.876 30.4693 229.74 30.1493 230.892 29.872C232.044 29.5947 233.282 29.456 234.604 29.456C235.159 29.456 235.746 29.5093 236.364 29.616C236.983 29.7227 237.57 29.8933 238.124 30.128C238.7 30.3627 239.223 30.6933 239.692 31.12C240.162 31.5253 240.535 32.048 240.812 32.688C241.09 33.3067 241.228 34.064 241.228 34.96V42.608C241.228 43.6107 240.908 44.4 240.268 44.976C239.628 45.5307 238.743 45.9147 237.612 46.128C236.482 46.3627 235.148 46.48 233.612 46.48ZM263.385 35.248V46H259.353V35.952C259.353 35.5467 259.3 35.1627 259.193 34.8C259.087 34.416 258.905 34.0853 258.649 33.808C258.393 33.5093 258.041 33.2853 257.593 33.136C257.145 32.9653 256.569 32.88 255.865 32.88C255.332 32.88 254.809 32.9333 254.297 33.04C253.807 33.1467 253.369 33.2853 252.985 33.456V46H248.921V31.216C249.369 31.0027 249.903 30.7893 250.521 30.576C251.14 30.3627 251.812 30.1813 252.537 30.032C253.263 29.8613 253.988 29.7333 254.713 29.648C255.46 29.5413 256.164 29.488 256.825 29.488C258.319 29.488 259.545 29.6907 260.505 30.096C261.465 30.48 262.18 31.0987 262.649 31.952C263.14 32.784 263.385 33.8827 263.385 35.248ZM259.033 32.176C259.716 31.6 260.495 31.12 261.369 30.736C262.244 30.3307 263.161 30.0213 264.121 29.808C265.081 29.5947 265.999 29.488 266.873 29.488C268.367 29.488 269.593 29.6907 270.553 30.096C271.513 30.48 272.228 31.0987 272.697 31.952C273.188 32.784 273.433 33.8827 273.433 35.248V46H269.401V35.952C269.401 35.5467 269.348 35.1627 269.241 34.8C269.135 34.416 268.953 34.0853 268.697 33.808C268.441 33.5093 268.089 33.2853 267.641 33.136C267.193 32.9653 266.617 32.88 265.913 32.88C265.38 32.88 264.857 32.9547 264.345 33.104C263.855 33.2533 263.417 33.4773 263.033 33.776L259.033 32.176ZM285.857 46.48C284.705 46.48 283.724 46.352 282.913 46.096C282.103 45.8613 281.324 45.5733 280.577 45.232V41.584C281.068 41.904 281.58 42.2133 282.113 42.512C282.668 42.7893 283.255 43.0133 283.873 43.184C284.513 43.3547 285.196 43.44 285.921 43.44C286.775 43.44 287.404 43.28 287.809 42.96C288.236 42.6187 288.449 42.2133 288.449 41.744C288.449 41.296 288.289 40.9547 287.969 40.72C287.649 40.464 287.233 40.2507 286.721 40.08C286.209 39.9093 285.665 39.7387 285.089 39.568C284.556 39.44 284.012 39.2693 283.457 39.056C282.924 38.8427 282.433 38.5547 281.985 38.192C281.537 37.8293 281.175 37.3707 280.897 36.816C280.641 36.24 280.513 35.5467 280.513 34.736C280.513 33.776 280.705 32.9653 281.089 32.304C281.473 31.6427 281.975 31.1093 282.593 30.704C283.212 30.2987 283.895 30.0107 284.641 29.84C285.388 29.648 286.113 29.552 286.817 29.552C288.033 29.5947 289.015 29.744 289.761 30C290.508 30.2347 291.212 30.544 291.873 30.928L291.905 34.224C291.159 33.8187 290.433 33.456 289.729 33.136C289.025 32.7947 288.225 32.624 287.329 32.624C286.497 32.624 285.847 32.7733 285.377 33.072C284.929 33.3493 284.705 33.744 284.705 34.256C284.705 34.704 284.844 35.0667 285.121 35.344C285.399 35.6213 285.761 35.8347 286.209 35.984C286.657 36.1333 287.148 36.2827 287.681 36.432C288.215 36.5813 288.769 36.752 289.345 36.944C289.921 37.1147 290.455 37.3707 290.945 37.712C291.436 38.0533 291.831 38.512 292.129 39.088C292.449 39.6427 292.609 40.3893 292.609 41.328C292.588 42.5653 292.257 43.568 291.617 44.336C290.977 45.0827 290.135 45.6267 289.089 45.968C288.065 46.3093 286.988 46.48 285.857 46.48Z" fill="url(#paint58_linear_263_3638)" style="mix-blend-mode:plus-lighter"/>
</g>
<defs>
<filter id="filter0_iiii_263_3638" x="92.4082" y="93.2058" width="238.512" height="215.488" filterUnits="userSpaceOnUse" color-interpolation-filters="sRGB">
<feFlood flood-opacity="0" result="BackgroundImageFix"/>
<feBlend mode="normal" in="SourceGraphic" in2="BackgroundImageFix" result="shape"/>
<feColorMatrix in="SourceAlpha" type="matrix" values="0 0 0 0 0 0 0 0 0 0 0 0 0 0 0 0 0 0 127 0" result="hardAlpha"/>
<feOffset dx="3" dy="3"/>
<feGaussianBlur stdDeviation="5"/>
<feComposite in2="hardAlpha" operator="arithmetic" k2="-1" k3="1"/>
<feColorMatrix type="matrix" values="0 0 0 0 0 0 0 0 0 0 0 0 0 0 0 0 0 0 0.18 0"/>
<feBlend mode="normal" in2="shape" result="effect1_innerShadow_263_3638"/>
<feColorMatrix in="SourceAlpha" type="matrix" values="0 0 0 0 0 0 0 0 0 0 0 0 0 0 0 0 0 0 127 0" result="hardAlpha"/>
<feOffset dx="14" dy="13"/>
<feGaussianBlur stdDeviation="9.5"/>
<feComposite in2="hardAlpha" operator="arithmetic" k2="-1" k3="1"/>
<feColorMatrix type="matrix" values="0 0 0 0 0 0 0 0 0 0 0 0 0 0 0 0 0 0 0.15 0"/>
<feBlend mode="normal" in2="effect1_innerShadow_263_3638" result="effect2_innerShadow_263_3638"/>
<feColorMatrix in="SourceAlpha" type="matrix" values="0 0 0 0 0 0 0 0 0 0 0 0 0 0 0 0 0 0 127 0" result="hardAlpha"/>
<feOffset dx="30" dy="30"/>
<feGaussianBlur stdDeviation="13"/>
<feComposite in2="hardAlpha" operator="arithmetic" k2="-1" k3="1"/>
<feColorMatrix type="matrix" values="0 0 0 0 0 0 0 0 0 0 0 0 0 0 0 0 0 0 0.09 0"/>
<feBlend mode="normal" in2="effect2_innerShadow_263_3638" result="effect3_innerShadow_263_3638"/>
<feColorMatrix in="SourceAlpha" type="matrix" values="0 0 0 0 0 0 0 0 0 0 0 0 0 0 0 0 0 0 127 0" result="hardAlpha"/>
<feOffset dx="54" dy="54"/>
<feGaussianBlur stdDeviation="15.5"/>
<feComposite in2="hardAlpha" operator="arithmetic" k2="-1" k3="1"/>
<feColorMatrix type="matrix" values="0 0 0 0 0 0 0 0 0 0 0 0 0 0 0 0 0 0 0.03 0"/>
<feBlend mode="normal" in2="effect3_innerShadow_263_3638" result="effect4_innerShadow_263_3638"/>
</filter>
<filter id="filter1_i_263_3638" x="112.543" y="109.472" width="167.238" height="146.69" filterUnits="userSpaceOnUse" color-interpolation-filters="sRGB">
<feFlood flood-opacity="0" result="BackgroundImageFix"/>
<feBlend mode="normal" in="SourceGraphic" in2="BackgroundImageFix" result="shape"/>
<feColorMatrix in="SourceAlpha" type="matrix" values="0 0 0 0 0 0 0 0 0 0 0 0 0 0 0 0 0 0 127 0" result="hardAlpha"/>
<feOffset/>
<feGaussianBlur stdDeviation="3"/>
<feComposite in2="hardAlpha" operator="arithmetic" k2="-1" k3="1"/>
<feColorMatrix type="matrix" values="0 0 0 0 1 0 0 0 0 1 0 0 0 0 1 0 0 0 0.75 0"/>
<feBlend mode="plus-lighter" in2="shape" result="effect1_innerShadow_263_3638"/>
</filter>
<filter id="filter2_f_263_3638" x="106.543" y="103.472" width="179.238" height="158.69" filterUnits="userSpaceOnUse" color-interpolation-filters="sRGB">
<feFlood flood-opacity="0" result="BackgroundImageFix"/>
<feBlend mode="normal" in="SourceGraphic" in2="BackgroundImageFix" result="shape"/>
<feGaussianBlur stdDeviation="3" result="effect1_foregroundBlur_263_3638"/>
</filter>
<filter id="filter3_f_263_3638" x="100.543" y="97.4717" width="191.238" height="170.69" filterUnits="userSpaceOnUse" color-interpolation-filters="sRGB">
<feFlood flood-opacity="0" result="BackgroundImageFix"/>
<feBlend mode="normal" in="SourceGraphic" in2="BackgroundImageFix" result="shape"/>
<feGaussianBlur stdDeviation="6" result="effect1_foregroundBlur_263_3638"/>
</filter>
<filter id="filter4_f_263_3638" x="88.543" y="85.4717" width="215.238" height="194.69" filterUnits="userSpaceOnUse" color-interpolation-filters="sRGB">
<feFlood flood-opacity="0" result="BackgroundImageFix"/>
<feBlend mode="normal" in="SourceGraphic" in2="BackgroundImageFix" result="shape"/>
<feGaussianBlur stdDeviation="12" result="effect1_foregroundBlur_263_3638"/>
</filter>
<filter id="filter5_f_263_3638" x="88.543" y="85.4717" width="215.238" height="194.69" filterUnits="userSpaceOnUse" color-interpolation-filters="sRGB">
<feFlood flood-opacity="0" result="BackgroundImageFix"/>
<feBlend mode="normal" in="SourceGraphic" in2="BackgroundImageFix" result="shape"/>
<feGaussianBlur stdDeviation="12" result="effect1_foregroundBlur_263_3638"/>
</filter>
<filter id="filter6_d_263_3638" x="150.592" y="128.059" width="91.1426" height="61.5872" filterUnits="userSpaceOnUse" color-interpolation-filters="sRGB">
<feFlood flood-opacity="0" result="BackgroundImageFix"/>
<feColorMatrix in="SourceAlpha" type="matrix" values="0 0 0 0 0 0 0 0 0 0 0 0 0 0 0 0 0 0 127 0" result="hardAlpha"/>
<feOffset/>
<feGaussianBlur stdDeviation="8"/>
<feComposite in2="hardAlpha" operator="out"/>
<feColorMatrix type="matrix" values="0 0 0 0 0 0 0 0 0 0 0 0 0 0 0 0 0 0 0.55 0"/>
<feBlend mode="normal" in2="BackgroundImageFix" result="effect1_dropShadow_263_3638"/>
<feBlend mode="normal" in="SourceGraphic" in2="effect1_dropShadow_263_3638" result="shape"/>
</filter>
<filter id="filter7_d_263_3638" x="158.592" y="136.059" width="75.1426" height="45.5872" filterUnits="userSpaceOnUse" color-interpolation-filters="sRGB">
<feFlood flood-opacity="0" result="BackgroundImageFix"/>
<feColorMatrix in="SourceAlpha" type="matrix" values="0 0 0 0 0 0 0 0 0 0 0 0 0 0 0 0 0 0 127 0" result="hardAlpha"/>
<feOffset/>
<feGaussianBlur stdDeviation="4"/>
<feComposite in2="hardAlpha" operator="out"/>
<feColorMatrix type="matrix" values="0 0 0 0 0 0 0 0 0 0 0 0 0 0 0 0 0 0 0.55 0"/>
<feBlend mode="normal" in2="BackgroundImageFix" result="effect1_dropShadow_263_3638"/>
<feBlend mode="normal" in="SourceGraphic" in2="effect1_dropShadow_263_3638" result="shape"/>
</filter>
<filter id="filter8_d_263_3638" x="158.592" y="136.059" width="75.1426" height="45.5872" filterUnits="userSpaceOnUse" color-interpolation-filters="sRGB">
<feFlood flood-opacity="0" result="BackgroundImageFix"/>
<feColorMatrix in="SourceAlpha" type="matrix" values="0 0 0 0 0 0 0 0 0 0 0 0 0 0 0 0 0 0 127 0" result="hardAlpha"/>
<feOffset/>
<feGaussianBlur stdDeviation="4"/>
<feComposite in2="hardAlpha" operator="out"/>
<feColorMatrix type="matrix" values="0 0 0 0 0 0 0 0 0 0 0 0 0 0 0 0 0 0 0.55 0"/>
<feBlend mode="normal" in2="BackgroundImageFix" result="effect1_dropShadow_263_3638"/>
<feBlend mode="normal" in="SourceGraphic" in2="effect1_dropShadow_263_3638" result="shape"/>
</filter>
<filter id="filter9_f_263_3638" x="238.277" y="140.303" width="81.1074" height="133.895" filterUnits="userSpaceOnUse" color-interpolation-filters="sRGB">
<feFlood flood-opacity="0" result="BackgroundImageFix"/>
<feBlend mode="normal" in="SourceGraphic" in2="BackgroundImageFix" result="shape"/>
<feGaussianBlur stdDeviation="2" result="effect1_foregroundBlur_263_3638"/>
</filter>
<filter id="filter10_f_263_3638" x="234.277" y="136.303" width="89.1074" height="141.895" filterUnits="userSpaceOnUse" color-interpolation-filters="sRGB">
<feFlood flood-opacity="0" result="BackgroundImageFix"/>
<feBlend mode="normal" in="SourceGraphic" in2="BackgroundImageFix" result="shape"/>
<feGaussianBlur stdDeviation="4" result="effect1_foregroundBlur_263_3638"/>
</filter>
<filter id="filter11_f_263_3638" x="71.627" y="140.304" width="81.1074" height="133.895" filterUnits="userSpaceOnUse" color-interpolation-filters="sRGB">
<feFlood flood-opacity="0" result="BackgroundImageFix"/>
<feBlend mode="normal" in="SourceGraphic" in2="BackgroundImageFix" result="shape"/>
<feGaussianBlur stdDeviation="2" result="effect1_foregroundBlur_263_3638"/>
</filter>
<filter id="filter12_f_263_3638" x="67.627" y="136.304" width="89.1074" height="141.895" filterUnits="userSpaceOnUse" color-interpolation-filters="sRGB">
<feFlood flood-opacity="0" result="BackgroundImageFix"/>
<feBlend mode="normal" in="SourceGraphic" in2="BackgroundImageFix" result="shape"/>
<feGaussianBlur stdDeviation="4" result="effect1_foregroundBlur_263_3638"/>
</filter>
<filter id="filter13_f_263_3638" x="118.896" y="60.9851" width="153.215" height="9" filterUnits="userSpaceOnUse" color-interpolation-filters="sRGB">
<feFlood flood-opacity="0" result="BackgroundImageFix"/>
<feBlend mode="normal" in="SourceGraphic" in2="BackgroundImageFix" result="shape"/>
<feGaussianBlur stdDeviation="2" result="effect1_foregroundBlur_263_3638"/>
</filter>
<filter id="filter14_f_263_3638" x="114.896" y="56.9851" width="161.215" height="17" filterUnits="userSpaceOnUse" color-interpolation-filters="sRGB">
<feFlood flood-opacity="0" result="BackgroundImageFix"/>
<feBlend mode="normal" in="SourceGraphic" in2="BackgroundImageFix" result="shape"/>
<feGaussianBlur stdDeviation="4" result="effect1_foregroundBlur_263_3638"/>
</filter>
<filter id="filter15_f_263_3638" x="-75" y="97" width="325" height="313.5" filterUnits="userSpaceOnUse" color-interpolation-filters="sRGB">
<feFlood flood-opacity="0" result="BackgroundImageFix"/>
<feBlend mode="normal" in="SourceGraphic" in2="BackgroundImageFix" result="shape"/>
<feGaussianBlur stdDeviation="60" result="effect1_foregroundBlur_263_3638"/>
</filter>
<filter id="filter16_f_263_3638" x="-35" y="137" width="245" height="233.5" filterUnits="userSpaceOnUse" color-interpolation-filters="sRGB">
<feFlood flood-opacity="0" result="BackgroundImageFix"/>
<feBlend mode="normal" in="SourceGraphic" in2="BackgroundImageFix" result="shape"/>
<feGaussianBlur stdDeviation="40" result="effect1_foregroundBlur_263_3638"/>
</filter>
<filter id="filter17_f_263_3638" x="5" y="177" width="165" height="153.5" filterUnits="userSpaceOnUse" color-interpolation-filters="sRGB">
<feFlood flood-opacity="0" result="BackgroundImageFix"/>
<feBlend mode="normal" in="SourceGraphic" in2="BackgroundImageFix" result="shape"/>
<feGaussianBlur stdDeviation="20" result="effect1_foregroundBlur_263_3638"/>
</filter>
<filter id="filter18_f_263_3638" x="25" y="197" width="125" height="113.5" filterUnits="userSpaceOnUse" color-interpolation-filters="sRGB">
<feFlood flood-opacity="0" result="BackgroundImageFix"/>
<feBlend mode="normal" in="SourceGraphic" in2="BackgroundImageFix" result="shape"/>
<feGaussianBlur stdDeviation="10" result="effect1_foregroundBlur_263_3638"/>
</filter>
<filter id="filter19_f_263_3638" x="43.4277" y="216.491" width="88.1445" height="78.509" filterUnits="userSpaceOnUse" color-interpolation-filters="sRGB">
<feFlood flood-opacity="0" result="BackgroundImageFix"/>
<feBlend mode="normal" in="SourceGraphic" in2="BackgroundImageFix" result="shape"/>
<feGaussianBlur stdDeviation="2" result="effect1_foregroundBlur_263_3638"/>
</filter>
<filter id="filter20_f_263_3638" x="39.4277" y="212.491" width="96.1445" height="86.509" filterUnits="userSpaceOnUse" color-interpolation-filters="sRGB">
<feFlood flood-opacity="0" result="BackgroundImageFix"/>
<feBlend mode="normal" in="SourceGraphic" in2="BackgroundImageFix" result="shape"/>
<feGaussianBlur stdDeviation="4" result="effect1_foregroundBlur_263_3638"/>
</filter>
<filter id="filter21_f_263_3638" x="31.4277" y="204.491" width="112.145" height="102.509" filterUnits="userSpaceOnUse" color-interpolation-filters="sRGB">
<feFlood flood-opacity="0" result="BackgroundImageFix"/>
<feBlend mode="normal" in="SourceGraphic" in2="BackgroundImageFix" result="shape"/>
<feGaussianBlur stdDeviation="8" result="effect1_foregroundBlur_263_3638"/>
</filter>
<filter id="filter22_f_263_3638" x="140" y="97" width="325" height="313.5" filterUnits="userSpaceOnUse" color-interpolation-filters="sRGB">
<feFlood flood-opacity="0" result="BackgroundImageFix"/>
<feBlend mode="normal" in="SourceGraphic" in2="BackgroundImageFix" result="shape"/>
<feGaussianBlur stdDeviation="60" result="effect1_foregroundBlur_263_3638"/>
</filter>
<filter id="filter23_f_263_3638" x="180" y="137" width="245" height="233.5" filterUnits="userSpaceOnUse" color-interpolation-filters="sRGB">
<feFlood flood-opacity="0" result="BackgroundImageFix"/>
<feBlend mode="normal" in="SourceGraphic" in2="BackgroundImageFix" result="shape"/>
<feGaussianBlur stdDeviation="40" result="effect1_foregroundBlur_263_3638"/>
</filter>
<filter id="filter24_f_263_3638" x="220" y="177" width="165" height="153.5" filterUnits="userSpaceOnUse" color-interpolation-filters="sRGB">
<feFlood flood-opacity="0" result="BackgroundImageFix"/>
<feBlend mode="normal" in="SourceGraphic" in2="BackgroundImageFix" result="shape"/>
<feGaussianBlur stdDeviation="20" result="effect1_foregroundBlur_263_3638"/>
</filter>
<filter id="filter25_f_263_3638" x="240" y="197" width="125" height="113.5" filterUnits="userSpaceOnUse" color-interpolation-filters="sRGB">
<feFlood flood-opacity="0" result="BackgroundImageFix"/>
<feBlend mode="normal" in="SourceGraphic" in2="BackgroundImageFix" result="shape"/>
<feGaussianBlur stdDeviation="10" result="effect1_foregroundBlur_263_3638"/>
</filter>
<filter id="filter26_f_263_3638" x="258.428" y="216.491" width="88.1445" height="78.509" filterUnits="userSpaceOnUse" color-interpolation-filters="sRGB">
<feFlood flood-opacity="0" result="BackgroundImageFix"/>
<feBlend mode="normal" in="SourceGraphic" in2="BackgroundImageFix" result="shape"/>
<feGaussianBlur stdDeviation="2" result="effect1_foregroundBlur_263_3638"/>
</filter>
<filter id="filter27_f_263_3638" x="254.428" y="212.491" width="96.1445" height="86.509" filterUnits="userSpaceOnUse" color-interpolation-filters="sRGB">
<feFlood flood-opacity="0" result="BackgroundImageFix"/>
<feBlend mode="normal" in="SourceGraphic" in2="BackgroundImageFix" result="shape"/>
<feGaussianBlur stdDeviation="4" result="effect1_foregroundBlur_263_3638"/>
</filter>
<filter id="filter28_f_263_3638" x="246.428" y="204.491" width="112.145" height="102.509" filterUnits="userSpaceOnUse" color-interpolation-filters="sRGB">
<feFlood flood-opacity="0" result="BackgroundImageFix"/>
<feBlend mode="normal" in="SourceGraphic" in2="BackgroundImageFix" result="shape"/>
<feGaussianBlur stdDeviation="8" result="effect1_foregroundBlur_263_3638"/>
</filter>
<filter id="filter29_f_263_3638" x="73.4004" y="0.656006" width="243.209" height="69.824" filterUnits="userSpaceOnUse" color-interpolation-filters="sRGB">
<feFlood flood-opacity="0" result="BackgroundImageFix"/>
<feBlend mode="normal" in="SourceGraphic" in2="BackgroundImageFix" result="shape"/>
<feGaussianBlur stdDeviation="12" result="effect1_foregroundBlur_263_3638"/>
</filter>
<linearGradient id="paint0_linear_263_3638" x1="127.166" y1="123.246" x2="107.968" y2="90.0941" gradientUnits="userSpaceOnUse">
<stop stop-opacity="0"/>
<stop offset="1" stop-color="#C5CCFF"/>
</linearGradient>
<linearGradient id="paint1_linear_263_3638" x1="127.166" y1="123.246" x2="107.968" y2="90.0941" gradientUnits="userSpaceOnUse">
<stop stop-opacity="0"/>
<stop offset="1" stop-color="#C5CCFF"/>
</linearGradient>
<linearGradient id="paint2_linear_263_3638" x1="296.943" y1="80.2614" x2="185.991" y2="270.73" gradientUnits="userSpaceOnUse">
<stop stop-color="#584DD9" stop-opacity="0"/>
<stop offset="0.5" stop-color="#584DD9"/>
<stop offset="1" stop-color="#584DD9" stop-opacity="0"/>
</linearGradient>
<linearGradient id="paint3_linear_263_3638" x1="296.943" y1="80.2614" x2="185.991" y2="270.73" gradientUnits="userSpaceOnUse">
<stop stop-color="#584DD9" stop-opacity="0"/>
<stop offset="0.5" stop-color="#584DD9"/>
<stop offset="1" stop-color="#584DD9" stop-opacity="0"/>
</linearGradient>
<linearGradient id="paint4_linear_263_3638" x1="224.824" y1="216.178" x2="142.534" y2="160.702" gradientUnits="userSpaceOnUse">
<stop stop-opacity="0"/>
<stop offset="0.5" stop-color="#7469EE"/>
<stop offset="1" stop-opacity="0"/>
</linearGradient>
<linearGradient id="paint5_linear_263_3638" x1="224.824" y1="216.178" x2="142.534" y2="160.702" gradientUnits="userSpaceOnUse">
<stop stop-opacity="0"/>
<stop offset="0.5" stop-color="#7469EE"/>
<stop offset="1" stop-opacity="0"/>
</linearGradient>
<linearGradient id="paint6_linear_263_3638" x1="270.13" y1="126.492" x2="209.106" y2="230.972" gradientUnits="userSpaceOnUse">
<stop stop-opacity="0"/>
<stop offset="0.5" stop-color="#584DD9"/>
<stop offset="1" stop-opacity="0"/>
</linearGradient>
<linearGradient id="paint7_linear_263_3638" x1="224.824" y1="216.178" x2="142.534" y2="160.702" gradientUnits="userSpaceOnUse">
<stop stop-opacity="0"/>
<stop offset="0.5" stop-color="#7469EE"/>
<stop offset="1" stop-opacity="0"/>
</linearGradient>
<linearGradient id="paint8_linear_263_3638" x1="270.13" y1="126.492" x2="209.106" y2="230.972" gradientUnits="userSpaceOnUse">
<stop stop-opacity="0"/>
<stop offset="0.5" stop-color="#584DD9"/>
<stop offset="1" stop-opacity="0"/>
</linearGradient>
<linearGradient id="paint9_linear_263_3638" x1="224.824" y1="216.178" x2="142.534" y2="160.702" gradientUnits="userSpaceOnUse">
<stop stop-opacity="0"/>
<stop offset="0.5" stop-color="#7469EE"/>
<stop offset="1" stop-opacity="0"/>
</linearGradient>
<linearGradient id="paint10_linear_263_3638" x1="270.13" y1="126.492" x2="209.106" y2="230.972" gradientUnits="userSpaceOnUse">
<stop stop-opacity="0"/>
<stop offset="0.5" stop-color="#584DD9"/>
<stop offset="1" stop-opacity="0"/>
</linearGradient>
<linearGradient id="paint11_linear_263_3638" x1="224.824" y1="216.178" x2="142.534" y2="160.702" gradientUnits="userSpaceOnUse">
<stop stop-opacity="0"/>
<stop offset="0.5" stop-color="#7469EE"/>
<stop offset="1" stop-opacity="0"/>
</linearGradient>
<linearGradient id="paint12_linear_263_3638" x1="270.13" y1="126.492" x2="209.106" y2="230.972" gradientUnits="userSpaceOnUse">
<stop stop-opacity="0"/>
<stop offset="0.5" stop-color="#584DD9"/>
<stop offset="1" stop-opacity="0"/>
</linearGradient>
<linearGradient id="paint13_linear_263_3638" x1="224.824" y1="216.178" x2="142.534" y2="160.702" gradientUnits="userSpaceOnUse">
<stop stop-opacity="0"/>
<stop offset="0.5" stop-color="#362CAC"/>
<stop offset="1" stop-opacity="0"/>
</linearGradient>
<linearGradient id="paint14_linear_263_3638" x1="158.255" y1="134.813" x2="181.37" y2="152.381" gradientUnits="userSpaceOnUse">
<stop stop-color="#AAB8FA"/>
<stop offset="1" stop-color="#666666" stop-opacity="0"/>
</linearGradient>
<linearGradient id="paint15_linear_263_3638" x1="158.255" y1="134.813" x2="181.37" y2="152.381" gradientUnits="userSpaceOnUse">
<stop stop-color="#AAB8FA"/>
<stop offset="1" stop-color="#666666" stop-opacity="0"/>
</linearGradient>
<linearGradient id="paint16_linear_263_3638" x1="208.183" y1="138.512" x2="205.409" y2="148.682" gradientUnits="userSpaceOnUse">
<stop stop-color="#CF64F8"/>
<stop offset="1" stop-color="#666666" stop-opacity="0"/>
</linearGradient>
<linearGradient id="paint17_linear_263_3638" x1="208.183" y1="138.512" x2="205.409" y2="148.682" gradientUnits="userSpaceOnUse">
<stop stop-color="#CF64F8"/>
<stop offset="1" stop-color="#666666" stop-opacity="0"/>
</linearGradient>
<linearGradient id="paint18_linear_263_3638" x1="190.616" y1="175.496" x2="192.465" y2="170.873" gradientUnits="userSpaceOnUse">
<stop stop-color="#CF64F8"/>
<stop offset="1" stop-color="#666666" stop-opacity="0"/>
</linearGradient>
<linearGradient id="paint19_linear_263_3638" x1="190.616" y1="175.496" x2="192.465" y2="170.873" gradientUnits="userSpaceOnUse">
<stop stop-color="#CF64F8"/>
<stop offset="1" stop-color="#666666" stop-opacity="0"/>
</linearGradient>
<linearGradient id="paint20_linear_263_3638" x1="116.242" y1="158.198" x2="189.234" y2="284.607" gradientUnits="userSpaceOnUse">
<stop offset="0.15" stop-opacity="0"/>
<stop offset="0.5" stop-color="#7469EE"/>
<stop offset="0.85" stop-opacity="0"/>
</linearGradient>
<linearGradient id="paint21_linear_263_3638" x1="116.242" y1="158.198" x2="189.234" y2="284.607" gradientUnits="userSpaceOnUse">
<stop offset="0.15" stop-opacity="0"/>
<stop offset="0.5" stop-color="#7469EE"/>
<stop offset="0.85" stop-opacity="0"/>
</linearGradient>
<linearGradient id="paint22_linear_263_3638" x1="307.387" y1="111.364" x2="210.099" y2="273.427" gradientUnits="userSpaceOnUse">
<stop offset="0.15" stop-opacity="0"/>
<stop offset="0.5" stop-color="#C5CCFF"/>
<stop offset="0.85" stop-opacity="0"/>
</linearGradient>
<linearGradient id="paint23_linear_263_3638" x1="307.387" y1="111.364" x2="210.099" y2="273.427" gradientUnits="userSpaceOnUse">
<stop offset="0.15" stop-opacity="0"/>
<stop offset="0.5" stop-color="#C5CCFF"/>
<stop offset="0.85" stop-opacity="0"/>
</linearGradient>
<linearGradient id="paint24_linear_263_3638" x1="163.223" y1="91.4622" x2="299.553" y2="93.5509" gradientUnits="userSpaceOnUse">
<stop offset="0.15" stop-opacity="0"/>
<stop offset="0.5" stop-color="#7469EE"/>
<stop offset="0.85" stop-opacity="0"/>
</linearGradient>
<linearGradient id="paint25_linear_263_3638" x1="163.223" y1="91.4622" x2="299.553" y2="93.5509" gradientUnits="userSpaceOnUse">
<stop offset="0.15" stop-opacity="0"/>
<stop offset="0.5" stop-color="#7469EE"/>
<stop offset="0.85" stop-opacity="0"/>
</linearGradient>
<radialGradient id="paint26_radial_263_3638" cx="0" cy="0" r="1" gradientUnits="userSpaceOnUse" gradientTransform="translate(279.99 206.013) rotate(120) scale(64.0958)">
<stop stop-color="#362CAC"/>
<stop offset="1" stop-color="#101010" stop-opacity="0"/>
</radialGradient>
<radialGradient id="paint27_radial_263_3638" cx="0" cy="0" r="1" gradientUnits="userSpaceOnUse" gradientTransform="translate(195.506 65.0958) scale(64.0958)">
<stop stop-color="#362CAC"/>
<stop offset="1" stop-color="#101010" stop-opacity="0"/>
</radialGradient>
<radialGradient id="paint28_radial_263_3638" cx="0" cy="0" r="1" gradientUnits="userSpaceOnUse" gradientTransform="translate(111.066 206.013) rotate(-120) scale(64.0958)">
<stop stop-color="#362CAC"/>
<stop offset="1" stop-color="#101010" stop-opacity="0"/>
</radialGradient>
<linearGradient id="paint29_linear_263_3638" x1="315.318" y1="145.054" x2="243.21" y2="269.948" gradientUnits="userSpaceOnUse">
<stop stop-color="#6C8CF4" stop-opacity="0"/>
<stop offset="0.505" stop-color="#6C8CF4"/>
<stop offset="1" stop-color="#6C8CF4" stop-opacity="0"/>
</linearGradient>
<linearGradient id="paint30_linear_263_3638" x1="315.318" y1="145.054" x2="243.21" y2="269.948" gradientUnits="userSpaceOnUse">
<stop stop-color="#6C8CF4" stop-opacity="0"/>
<stop offset="0.505" stop-color="#6C8CF4"/>
<stop offset="1" stop-color="#6C8CF4" stop-opacity="0"/>
</linearGradient>
<linearGradient id="paint31_linear_263_3638" x1="315.318" y1="145.054" x2="243.21" y2="269.948" gradientUnits="userSpaceOnUse">
<stop stop-color="#6C8CF4" stop-opacity="0"/>
<stop offset="0.505" stop-color="#6C8CF4"/>
<stop offset="1" stop-color="#6C8CF4" stop-opacity="0"/>
</linearGradient>
<linearGradient id="paint32_linear_263_3638" x1="75.6939" y1="145.054" x2="147.802" y2="269.948" gradientUnits="userSpaceOnUse">
<stop stop-color="#6C8CF4" stop-opacity="0"/>
<stop offset="0.505" stop-color="#6C8CF4"/>
<stop offset="1" stop-color="#6C8CF4" stop-opacity="0"/>
</linearGradient>
<linearGradient id="paint33_linear_263_3638" x1="75.6939" y1="145.054" x2="147.802" y2="269.948" gradientUnits="userSpaceOnUse">
<stop stop-color="#6C8CF4" stop-opacity="0"/>
<stop offset="0.505" stop-color="#6C8CF4"/>
<stop offset="1" stop-color="#6C8CF4" stop-opacity="0"/>
</linearGradient>
<linearGradient id="paint34_linear_263_3638" x1="75.6939" y1="145.054" x2="147.802" y2="269.948" gradientUnits="userSpaceOnUse">
<stop stop-color="#6C8CF4" stop-opacity="0"/>
<stop offset="0.505" stop-color="#6C8CF4"/>
<stop offset="1" stop-color="#6C8CF4" stop-opacity="0"/>
</linearGradient>
<linearGradient id="paint35_linear_263_3638" x1="123.396" y1="65.9851" x2="267.612" y2="65.9851" gradientUnits="userSpaceOnUse">
<stop stop-color="#6C8CF4" stop-opacity="0"/>
<stop offset="0.5" stop-color="#6C8CF4"/>
<stop offset="1" stop-color="#6C8CF4" stop-opacity="0"/>
</linearGradient>
<linearGradient id="paint36_linear_263_3638" x1="123.396" y1="65.9851" x2="267.612" y2="65.9851" gradientUnits="userSpaceOnUse">
<stop stop-color="#6C8CF4" stop-opacity="0"/>
<stop offset="0.5" stop-color="#6C8CF4"/>
<stop offset="1" stop-color="#6C8CF4" stop-opacity="0"/>
</linearGradient>
<linearGradient id="paint37_linear_263_3638" x1="123.396" y1="65.9851" x2="267.612" y2="65.9851" gradientUnits="userSpaceOnUse">
<stop stop-color="#6C8CF4" stop-opacity="0"/>
<stop offset="0.5" stop-color="#6C8CF4"/>
<stop offset="1" stop-color="#6C8CF4" stop-opacity="0"/>
</linearGradient>
<radialGradient id="paint38_radial_263_3638" cx="0" cy="0" r="1" gradientUnits="userSpaceOnUse" gradientTransform="translate(87.5 260.995) rotate(90) scale(45.0985 52.1547)">
<stop stop-color="#584DD9"/>
<stop offset="1" stop-color="#101010" stop-opacity="0"/>
</radialGradient>
<radialGradient id="paint39_radial_263_3638" cx="0" cy="0" r="1" gradientUnits="userSpaceOnUse" gradientTransform="translate(87.5 260.995) rotate(90) scale(45.0985 52.1547)">
<stop stop-color="#584DD9"/>
<stop offset="1" stop-color="#101010" stop-opacity="0"/>
</radialGradient>
<radialGradient id="paint40_radial_263_3638" cx="0" cy="0" r="1" gradientUnits="userSpaceOnUse" gradientTransform="translate(87.5 260.995) rotate(90) scale(45.0985 52.1547)">
<stop stop-color="#584DD9"/>
<stop offset="1" stop-color="#101010" stop-opacity="0"/>
</radialGradient>
<radialGradient id="paint41_radial_263_3638" cx="0" cy="0" r="1" gradientUnits="userSpaceOnUse" gradientTransform="translate(87.5 260.995) rotate(90) scale(45.0985 52.1547)">
<stop stop-color="#584DD9"/>
<stop offset="1" stop-color="#101010" stop-opacity="0"/>
</radialGradient>
<radialGradient id="paint42_radial_263_3638" cx="0" cy="0" r="1" gradientUnits="userSpaceOnUse" gradientTransform="translate(87.5 260.995) rotate(90) scale(45.0985 52.1547)">
<stop stop-color="#584DD9"/>
<stop offset="1" stop-color="#101010" stop-opacity="0"/>
</radialGradient>
<linearGradient id="paint43_linear_263_3638" x1="118.119" y1="270.179" x2="100.472" y2="238.825" gradientUnits="userSpaceOnUse">
<stop stop-color="#584DD9" stop-opacity="0"/>
<stop offset="0.5" stop-color="#584DD9"/>
<stop offset="1" stop-color="#584DD9" stop-opacity="0"/>
</linearGradient>
<linearGradient id="paint44_linear_263_3638" x1="118.119" y1="270.179" x2="100.472" y2="238.825" gradientUnits="userSpaceOnUse">
<stop stop-color="#584DD9" stop-opacity="0"/>
<stop offset="0.5" stop-color="#584DD9"/>
<stop offset="1" stop-color="#584DD9" stop-opacity="0"/>
</linearGradient>
<linearGradient id="paint45_linear_263_3638" x1="118.119" y1="270.179" x2="100.472" y2="238.825" gradientUnits="userSpaceOnUse">
<stop stop-color="#584DD9" stop-opacity="0"/>
<stop offset="0.5" stop-color="#584DD9"/>
<stop offset="1" stop-color="#584DD9" stop-opacity="0"/>
</linearGradient>
<linearGradient id="paint46_linear_263_3638" x1="118.119" y1="270.179" x2="100.472" y2="238.825" gradientUnits="userSpaceOnUse">
<stop stop-color="#584DD9" stop-opacity="0"/>
<stop offset="0.5" stop-color="#584DD9"/>
<stop offset="1" stop-color="#584DD9" stop-opacity="0"/>
</linearGradient>
<radialGradient id="paint47_radial_263_3638" cx="0" cy="0" r="1" gradientUnits="userSpaceOnUse" gradientTransform="translate(302.5 260.995) rotate(90) scale(45.0985 52.1547)">
<stop stop-color="#584DD9"/>
<stop offset="1" stop-color="#101010" stop-opacity="0"/>
</radialGradient>
<radialGradient id="paint48_radial_263_3638" cx="0" cy="0" r="1" gradientUnits="userSpaceOnUse" gradientTransform="translate(302.5 260.995) rotate(90) scale(45.0985 52.1547)">
<stop stop-color="#584DD9"/>
<stop offset="1" stop-color="#101010" stop-opacity="0"/>
</radialGradient>
<radialGradient id="paint49_radial_263_3638" cx="0" cy="0" r="1" gradientUnits="userSpaceOnUse" gradientTransform="translate(302.5 260.995) rotate(90) scale(45.0985 52.1547)">
<stop stop-color="#584DD9"/>
<stop offset="1" stop-color="#101010" stop-opacity="0"/>
</radialGradient>
<radialGradient id="paint50_radial_263_3638" cx="0" cy="0" r="1" gradientUnits="userSpaceOnUse" gradientTransform="translate(302.5 260.995) rotate(90) scale(45.0985 52.1547)">
<stop stop-color="#584DD9"/>
<stop offset="1" stop-color="#101010" stop-opacity="0"/>
</radialGradient>
<radialGradient id="paint51_radial_263_3638" cx="0" cy="0" r="1" gradientUnits="userSpaceOnUse" gradientTransform="translate(302.5 260.995) rotate(90) scale(45.0985 52.1547)">
<stop stop-color="#584DD9"/>
<stop offset="1" stop-color="#101010" stop-opacity="0"/>
</radialGradient>
<linearGradient id="paint52_linear_263_3638" x1="271.881" y1="270.179" x2="289.528" y2="238.825" gradientUnits="userSpaceOnUse">
<stop stop-color="#584DD9" stop-opacity="0"/>
<stop offset="0.5" stop-color="#584DD9"/>
<stop offset="1" stop-color="#584DD9" stop-opacity="0"/>
</linearGradient>
<linearGradient id="paint53_linear_263_3638" x1="271.881" y1="270.179" x2="289.528" y2="238.825" gradientUnits="userSpaceOnUse">
<stop stop-color="#584DD9" stop-opacity="0"/>
<stop offset="0.5" stop-color="#584DD9"/>
<stop offset="1" stop-color="#584DD9" stop-opacity="0"/>
</linearGradient>
<linearGradient id="paint54_linear_263_3638" x1="271.881" y1="270.179" x2="289.528" y2="238.825" gradientUnits="userSpaceOnUse">
<stop stop-color="#584DD9" stop-opacity="0"/>
<stop offset="0.5" stop-color="#584DD9"/>
<stop offset="1" stop-color="#584DD9" stop-opacity="0"/>
</linearGradient>
<linearGradient id="paint55_linear_263_3638" x1="271.881" y1="270.179" x2="289.528" y2="238.825" gradientUnits="userSpaceOnUse">
<stop stop-color="#584DD9" stop-opacity="0"/>
<stop offset="0.5" stop-color="#584DD9"/>
<stop offset="1" stop-color="#584DD9" stop-opacity="0"/>
</linearGradient>
<linearGradient id="paint56_linear_263_3638" x1="95" y1="34" x2="295" y2="34" gradientUnits="userSpaceOnUse">
<stop stop-color="#362CAC"/>
<stop offset="0.5" stop-color="#8880E3"/>
<stop offset="1" stop-color="#362CAC"/>
</linearGradient>
<linearGradient id="paint57_linear_263_3638" x1="95" y1="34" x2="295" y2="34" gradientUnits="userSpaceOnUse">
<stop stop-color="#362CAC"/>
<stop offset="0.5" stop-color="#8880E3"/>
<stop offset="1" stop-color="#362CAC"/>
</linearGradient>
<linearGradient id="paint58_linear_263_3638" x1="95" y1="34" x2="295" y2="34" gradientUnits="userSpaceOnUse">
<stop stop-color="#362CAC"/>
<stop offset="0.5" stop-color="#8880E3"/>
<stop offset="1" stop-color="#362CAC"/>
</linearGradient>
</defs>
</svg>
