<svg width="390" height="336" viewBox="0 0 390 336" fill="none" xmlns="http://www.w3.org/2000/svg">
<line x1="195.5" y1="8" x2="195.5" y2="104" stroke="url(#paint0_linear_275_3652)"/>
<g style="mix-blend-mode:plus-lighter" filter="url(#filter0_f_275_3652)">
<line x1="195.5" y1="8" x2="195.5" y2="104" stroke="url(#paint1_linear_275_3652)"/>
</g>
<g style="mix-blend-mode:plus-lighter" filter="url(#filter1_f_275_3652)">
<line x1="195.5" y1="8" x2="195.5" y2="104" stroke="url(#paint2_linear_275_3652)"/>
</g>
<g opacity="0.4">
<line y1="-0.5" x2="96" y2="-0.5" transform="matrix(1 -1.04167e-06 -1.83432e-09 -1 271 216)" stroke="url(#paint3_linear_275_3652)"/>
<g style="mix-blend-mode:plus-lighter" filter="url(#filter2_f_275_3652)">
<line y1="-0.5" x2="96" y2="-0.5" transform="matrix(1 -1.04167e-06 -1.83432e-09 -1 271 216)" stroke="url(#paint4_linear_275_3652)"/>
</g>
<g style="mix-blend-mode:plus-lighter" filter="url(#filter3_f_275_3652)">
<line y1="-0.5" x2="96" y2="-0.5" transform="matrix(1 -1.04167e-06 -1.83432e-09 -1 271 216)" stroke="url(#paint5_linear_275_3652)"/>
</g>
</g>
<g opacity="0.4">
<line y1="-0.5" x2="96" y2="-0.5" transform="matrix(-1 -1.02041e-06 1.87254e-09 -1 118 216)" stroke="url(#paint6_linear_275_3652)"/>
<g style="mix-blend-mode:plus-lighter" filter="url(#filter4_f_275_3652)">
<line y1="-0.5" x2="96" y2="-0.5" transform="matrix(-1 -1.02041e-06 1.87254e-09 -1 118 216)" stroke="url(#paint7_linear_275_3652)"/>
</g>
<g style="mix-blend-mode:plus-lighter" filter="url(#filter5_f_275_3652)">
<line y1="-0.5" x2="96" y2="-0.5" transform="matrix(-1 -1.02041e-06 1.87254e-09 -1 118 216)" stroke="url(#paint8_linear_275_3652)"/>
</g>
</g>
<g opacity="0.7">
<g filter="url(#filter6_f_275_3652)">
<path d="M142 215.794H247L194.5 125L142 215.794Z" fill="url(#paint9_radial_275_3652)"/>
</g>
<g style="mix-blend-mode:plus-lighter" filter="url(#filter7_f_275_3652)">
<path d="M142 215.794H247L194.5 125L142 215.794Z" fill="url(#paint10_radial_275_3652)"/>
</g>
<g style="mix-blend-mode:plus-lighter" filter="url(#filter8_f_275_3652)">
<path d="M142 215.794H247L194.5 125L142 215.794Z" fill="url(#paint11_radial_275_3652)"/>
</g>
<g style="mix-blend-mode:lighten" filter="url(#filter9_f_275_3652)">
<path d="M142 215.794H247L194.5 125L142 215.794Z" fill="url(#paint12_radial_275_3652)"/>
</g>
</g>
<g style="mix-blend-mode:lighten">
<path d="M150.667 215.794H238.333C242.184 215.794 244.589 211.625 242.662 208.291L198.828 132.486C196.903 129.156 192.097 129.156 190.172 132.486L146.338 208.291C144.411 211.625 146.816 215.794 150.667 215.794Z" fill="url(#paint13_radial_275_3652)"/>
</g>
<path style="mix-blend-mode:plus-lighter" d="M150.667 215.794H238.333C242.184 215.794 244.589 211.625 242.662 208.291L198.828 132.486C196.903 129.156 192.097 129.156 190.172 132.486L146.338 208.291C144.411 211.625 146.816 215.794 150.667 215.794Z" stroke="url(#paint14_linear_275_3652)" stroke-opacity="0.4"/>
<g style="mix-blend-mode:plus-lighter" filter="url(#filter10_f_275_3652)">
<path d="M150.667 215.794H238.333C242.184 215.794 244.589 211.625 242.662 208.291L198.828 132.486C196.903 129.156 192.097 129.156 190.172 132.486L146.338 208.291C144.411 211.625 146.816 215.794 150.667 215.794Z" stroke="url(#paint15_linear_275_3652)" stroke-opacity="0.4" style="mix-blend-mode:plus-lighter"/>
</g>
<g style="mix-blend-mode:plus-lighter" filter="url(#filter11_f_275_3652)">
<path d="M150.667 215.794H238.333C242.184 215.794 244.589 211.625 242.662 208.291L198.828 132.486C196.903 129.156 192.097 129.156 190.172 132.486L146.338 208.291C144.411 211.625 146.816 215.794 150.667 215.794Z" stroke="url(#paint16_linear_275_3652)" stroke-opacity="0.4" style="mix-blend-mode:plus-lighter"/>
</g>
<g style="mix-blend-mode:plus-lighter" filter="url(#filter12_f_275_3652)">
<path d="M150.667 215.794H238.333C242.184 215.794 244.589 211.625 242.662 208.291L198.828 132.486C196.903 129.156 192.097 129.156 190.172 132.486L146.338 208.291C144.411 211.625 146.816 215.794 150.667 215.794Z" stroke="url(#paint17_linear_275_3652)" stroke-opacity="0.4" style="mix-blend-mode:plus-lighter"/>
</g>
<g opacity="0.7">
<g filter="url(#filter13_f_275_3652)">
<path d="M142 215.794H247L194.5 125L142 215.794Z" fill="url(#paint18_radial_275_3652)"/>
</g>
<g style="mix-blend-mode:plus-lighter" filter="url(#filter14_f_275_3652)">
<path d="M142 215.794H247L194.5 125L142 215.794Z" fill="url(#paint19_radial_275_3652)"/>
</g>
<g style="mix-blend-mode:plus-lighter" filter="url(#filter15_f_275_3652)">
<path d="M142 215.794H247L194.5 125L142 215.794Z" fill="url(#paint20_radial_275_3652)"/>
</g>
<g style="mix-blend-mode:lighten" filter="url(#filter16_f_275_3652)">
<path d="M142 215.794H247L194.5 125L142 215.794Z" fill="url(#paint21_radial_275_3652)"/>
</g>
</g>
<g style="mix-blend-mode:lighten">
<path d="M150.667 215.794H238.333C242.184 215.794 244.589 211.625 242.662 208.291L198.828 132.486C196.903 129.156 192.097 129.156 190.172 132.486L146.338 208.291C144.411 211.625 146.816 215.794 150.667 215.794Z" fill="url(#paint22_radial_275_3652)"/>
</g>
<path style="mix-blend-mode:plus-lighter" d="M150.667 215.794H238.333C242.184 215.794 244.589 211.625 242.662 208.291L198.828 132.486C196.903 129.156 192.097 129.156 190.172 132.486L146.338 208.291C144.411 211.625 146.816 215.794 150.667 215.794Z" stroke="url(#paint23_linear_275_3652)" stroke-opacity="0.4"/>
<g style="mix-blend-mode:plus-lighter" filter="url(#filter17_f_275_3652)">
<path d="M150.667 215.794H238.333C242.184 215.794 244.589 211.625 242.662 208.291L198.828 132.486C196.903 129.156 192.097 129.156 190.172 132.486L146.338 208.291C144.411 211.625 146.816 215.794 150.667 215.794Z" stroke="url(#paint24_linear_275_3652)" stroke-opacity="0.4" style="mix-blend-mode:plus-lighter"/>
</g>
<g style="mix-blend-mode:plus-lighter" filter="url(#filter18_f_275_3652)">
<path d="M150.667 215.794H238.333C242.184 215.794 244.589 211.625 242.662 208.291L198.828 132.486C196.903 129.156 192.097 129.156 190.172 132.486L146.338 208.291C144.411 211.625 146.816 215.794 150.667 215.794Z" stroke="url(#paint25_linear_275_3652)" stroke-opacity="0.4" style="mix-blend-mode:plus-lighter"/>
</g>
<g style="mix-blend-mode:plus-lighter" filter="url(#filter19_f_275_3652)">
<path d="M150.667 215.794H238.333C242.184 215.794 244.589 211.625 242.662 208.291L198.828 132.486C196.903 129.156 192.097 129.156 190.172 132.486L146.338 208.291C144.411 211.625 146.816 215.794 150.667 215.794Z" stroke="url(#paint26_linear_275_3652)" stroke-opacity="0.4" style="mix-blend-mode:plus-lighter"/>
</g>
<g opacity="0.4">
<g opacity="0.7">
<g filter="url(#filter20_f_275_3652)">
<path d="M296 142H231L263.5 198.21L296 142Z" fill="url(#paint27_radial_275_3652)"/>
</g>
<g style="mix-blend-mode:plus-lighter" filter="url(#filter21_f_275_3652)">
<path d="M296 142H231L263.5 198.21L296 142Z" fill="url(#paint28_radial_275_3652)"/>
</g>
<g style="mix-blend-mode:plus-lighter" filter="url(#filter22_f_275_3652)">
<path d="M296 142H231L263.5 198.21L296 142Z" fill="url(#paint29_radial_275_3652)"/>
</g>
<g style="mix-blend-mode:lighten" filter="url(#filter23_f_275_3652)">
<path d="M296 142H231L263.5 198.21L296 142Z" fill="url(#paint30_radial_275_3652)"/>
</g>
</g>
<g style="mix-blend-mode:lighten">
<path d="M287.333 142H239.667C235.816 142 233.411 146.169 235.338 149.503L259.171 190.724C261.097 194.053 265.903 194.053 267.829 190.724L291.662 149.503C293.589 146.169 291.184 142 287.333 142Z" fill="url(#paint31_radial_275_3652)"/>
</g>
<path style="mix-blend-mode:plus-lighter" d="M287.333 142H239.667C235.816 142 233.411 146.169 235.338 149.503L259.171 190.724C261.097 194.053 265.903 194.053 267.829 190.724L291.662 149.503C293.589 146.169 291.184 142 287.333 142Z" stroke="url(#paint32_linear_275_3652)" stroke-opacity="0.4"/>
<g style="mix-blend-mode:plus-lighter" filter="url(#filter24_f_275_3652)">
<path d="M287.333 142H239.667C235.816 142 233.411 146.169 235.338 149.503L259.171 190.724C261.097 194.053 265.903 194.053 267.829 190.724L291.662 149.503C293.589 146.169 291.184 142 287.333 142Z" stroke="url(#paint33_linear_275_3652)" stroke-opacity="0.4" style="mix-blend-mode:plus-lighter"/>
</g>
<g style="mix-blend-mode:plus-lighter" filter="url(#filter25_f_275_3652)">
<path d="M287.333 142H239.667C235.816 142 233.411 146.169 235.338 149.503L259.171 190.724C261.097 194.053 265.903 194.053 267.829 190.724L291.662 149.503C293.589 146.169 291.184 142 287.333 142Z" stroke="url(#paint34_linear_275_3652)" stroke-opacity="0.4" style="mix-blend-mode:plus-lighter"/>
</g>
<g style="mix-blend-mode:plus-lighter" filter="url(#filter26_f_275_3652)">
<path d="M287.333 142H239.667C235.816 142 233.411 146.169 235.338 149.503L259.171 190.724C261.097 194.053 265.903 194.053 267.829 190.724L291.662 149.503C293.589 146.169 291.184 142 287.333 142Z" stroke="url(#paint35_linear_275_3652)" stroke-opacity="0.4" style="mix-blend-mode:plus-lighter"/>
</g>
</g>
<g opacity="0.4">
<g opacity="0.7">
<g filter="url(#filter27_f_275_3652)">
<path d="M93 142H158L125.5 198.21L93 142Z" fill="url(#paint36_radial_275_3652)"/>
</g>
<g style="mix-blend-mode:plus-lighter" filter="url(#filter28_f_275_3652)">
<path d="M93 142H158L125.5 198.21L93 142Z" fill="url(#paint37_radial_275_3652)"/>
</g>
<g style="mix-blend-mode:plus-lighter" filter="url(#filter29_f_275_3652)">
<path d="M93 142H158L125.5 198.21L93 142Z" fill="url(#paint38_radial_275_3652)"/>
</g>
<g style="mix-blend-mode:lighten" filter="url(#filter30_f_275_3652)">
<path d="M93 142H158L125.5 198.21L93 142Z" fill="url(#paint39_radial_275_3652)"/>
</g>
</g>
<g style="mix-blend-mode:lighten">
<path d="M101.667 142H149.333C153.184 142 155.589 146.169 153.662 149.503L129.829 190.724C127.903 194.053 123.097 194.053 121.171 190.724L97.338 149.503C95.4107 146.169 97.8161 142 101.667 142Z" fill="url(#paint40_radial_275_3652)"/>
</g>
<path style="mix-blend-mode:plus-lighter" d="M101.667 142H149.333C153.184 142 155.589 146.169 153.662 149.503L129.829 190.724C127.903 194.053 123.097 194.053 121.171 190.724L97.338 149.503C95.4107 146.169 97.8161 142 101.667 142Z" stroke="url(#paint41_linear_275_3652)" stroke-opacity="0.4"/>
<g style="mix-blend-mode:plus-lighter" filter="url(#filter31_f_275_3652)">
<path d="M101.667 142H149.333C153.184 142 155.589 146.169 153.662 149.503L129.829 190.724C127.903 194.053 123.097 194.053 121.171 190.724L97.338 149.503C95.4107 146.169 97.8161 142 101.667 142Z" stroke="url(#paint42_linear_275_3652)" stroke-opacity="0.4" style="mix-blend-mode:plus-lighter"/>
</g>
<g style="mix-blend-mode:plus-lighter" filter="url(#filter32_f_275_3652)">
<path d="M101.667 142H149.333C153.184 142 155.589 146.169 153.662 149.503L129.829 190.724C127.903 194.053 123.097 194.053 121.171 190.724L97.338 149.503C95.4107 146.169 97.8161 142 101.667 142Z" stroke="url(#paint43_linear_275_3652)" stroke-opacity="0.4" style="mix-blend-mode:plus-lighter"/>
</g>
<g style="mix-blend-mode:plus-lighter" filter="url(#filter33_f_275_3652)">
<path d="M101.667 142H149.333C153.184 142 155.589 146.169 153.662 149.503L129.829 190.724C127.903 194.053 123.097 194.053 121.171 190.724L97.338 149.503C95.4107 146.169 97.8161 142 101.667 142Z" stroke="url(#paint44_linear_275_3652)" stroke-opacity="0.4" style="mix-blend-mode:plus-lighter"/>
</g>
</g>
<defs>
<filter id="filter0_f_275_3652" x="191" y="4" width="9" height="104" filterUnits="userSpaceOnUse" color-interpolation-filters="sRGB">
<feFlood flood-opacity="0" result="BackgroundImageFix"/>
<feBlend mode="normal" in="SourceGraphic" in2="BackgroundImageFix" result="shape"/>
<feGaussianBlur stdDeviation="2" result="effect1_foregroundBlur_275_3652"/>
</filter>
<filter id="filter1_f_275_3652" x="187" y="0" width="17" height="112" filterUnits="userSpaceOnUse" color-interpolation-filters="sRGB">
<feFlood flood-opacity="0" result="BackgroundImageFix"/>
<feBlend mode="normal" in="SourceGraphic" in2="BackgroundImageFix" result="shape"/>
<feGaussianBlur stdDeviation="4" result="effect1_foregroundBlur_275_3652"/>
</filter>
<filter id="filter2_f_275_3652" x="267" y="212" width="104" height="9" filterUnits="userSpaceOnUse" color-interpolation-filters="sRGB">
<feFlood flood-opacity="0" result="BackgroundImageFix"/>
<feBlend mode="normal" in="SourceGraphic" in2="BackgroundImageFix" result="shape"/>
<feGaussianBlur stdDeviation="2" result="effect1_foregroundBlur_275_3652"/>
</filter>
<filter id="filter3_f_275_3652" x="263" y="208" width="112" height="17" filterUnits="userSpaceOnUse" color-interpolation-filters="sRGB">
<feFlood flood-opacity="0" result="BackgroundImageFix"/>
<feBlend mode="normal" in="SourceGraphic" in2="BackgroundImageFix" result="shape"/>
<feGaussianBlur stdDeviation="4" result="effect1_foregroundBlur_275_3652"/>
</filter>
<filter id="filter4_f_275_3652" x="18" y="212" width="104" height="9" filterUnits="userSpaceOnUse" color-interpolation-filters="sRGB">
<feFlood flood-opacity="0" result="BackgroundImageFix"/>
<feBlend mode="normal" in="SourceGraphic" in2="BackgroundImageFix" result="shape"/>
<feGaussianBlur stdDeviation="2" result="effect1_foregroundBlur_275_3652"/>
</filter>
<filter id="filter5_f_275_3652" x="14" y="208" width="112" height="17" filterUnits="userSpaceOnUse" color-interpolation-filters="sRGB">
<feFlood flood-opacity="0" result="BackgroundImageFix"/>
<feBlend mode="normal" in="SourceGraphic" in2="BackgroundImageFix" result="shape"/>
<feGaussianBlur stdDeviation="4" result="effect1_foregroundBlur_275_3652"/>
</filter>
<filter id="filter6_f_275_3652" x="22" y="5" width="345" height="330.794" filterUnits="userSpaceOnUse" color-interpolation-filters="sRGB">
<feFlood flood-opacity="0" result="BackgroundImageFix"/>
<feBlend mode="normal" in="SourceGraphic" in2="BackgroundImageFix" result="shape"/>
<feGaussianBlur stdDeviation="60" result="effect1_foregroundBlur_275_3652"/>
</filter>
<filter id="filter7_f_275_3652" x="62" y="45" width="265" height="250.794" filterUnits="userSpaceOnUse" color-interpolation-filters="sRGB">
<feFlood flood-opacity="0" result="BackgroundImageFix"/>
<feBlend mode="normal" in="SourceGraphic" in2="BackgroundImageFix" result="shape"/>
<feGaussianBlur stdDeviation="40" result="effect1_foregroundBlur_275_3652"/>
</filter>
<filter id="filter8_f_275_3652" x="102" y="85" width="185" height="170.794" filterUnits="userSpaceOnUse" color-interpolation-filters="sRGB">
<feFlood flood-opacity="0" result="BackgroundImageFix"/>
<feBlend mode="normal" in="SourceGraphic" in2="BackgroundImageFix" result="shape"/>
<feGaussianBlur stdDeviation="20" result="effect1_foregroundBlur_275_3652"/>
</filter>
<filter id="filter9_f_275_3652" x="122" y="105" width="145" height="130.794" filterUnits="userSpaceOnUse" color-interpolation-filters="sRGB">
<feFlood flood-opacity="0" result="BackgroundImageFix"/>
<feBlend mode="normal" in="SourceGraphic" in2="BackgroundImageFix" result="shape"/>
<feGaussianBlur stdDeviation="10" result="effect1_foregroundBlur_275_3652"/>
</filter>
<filter id="filter10_f_275_3652" x="141.158" y="125.489" width="106.684" height="94.8057" filterUnits="userSpaceOnUse" color-interpolation-filters="sRGB">
<feFlood flood-opacity="0" result="BackgroundImageFix"/>
<feBlend mode="normal" in="SourceGraphic" in2="BackgroundImageFix" result="shape"/>
<feGaussianBlur stdDeviation="2" result="effect1_foregroundBlur_275_3652"/>
</filter>
<filter id="filter11_f_275_3652" x="137.158" y="121.489" width="114.684" height="102.806" filterUnits="userSpaceOnUse" color-interpolation-filters="sRGB">
<feFlood flood-opacity="0" result="BackgroundImageFix"/>
<feBlend mode="normal" in="SourceGraphic" in2="BackgroundImageFix" result="shape"/>
<feGaussianBlur stdDeviation="4" result="effect1_foregroundBlur_275_3652"/>
</filter>
<filter id="filter12_f_275_3652" x="129.158" y="113.489" width="130.684" height="118.806" filterUnits="userSpaceOnUse" color-interpolation-filters="sRGB">
<feFlood flood-opacity="0" result="BackgroundImageFix"/>
<feBlend mode="normal" in="SourceGraphic" in2="BackgroundImageFix" result="shape"/>
<feGaussianBlur stdDeviation="8" result="effect1_foregroundBlur_275_3652"/>
</filter>
<filter id="filter13_f_275_3652" x="22" y="5" width="345" height="330.794" filterUnits="userSpaceOnUse" color-interpolation-filters="sRGB">
<feFlood flood-opacity="0" result="BackgroundImageFix"/>
<feBlend mode="normal" in="SourceGraphic" in2="BackgroundImageFix" result="shape"/>
<feGaussianBlur stdDeviation="60" result="effect1_foregroundBlur_275_3652"/>
</filter>
<filter id="filter14_f_275_3652" x="62" y="45" width="265" height="250.794" filterUnits="userSpaceOnUse" color-interpolation-filters="sRGB">
<feFlood flood-opacity="0" result="BackgroundImageFix"/>
<feBlend mode="normal" in="SourceGraphic" in2="BackgroundImageFix" result="shape"/>
<feGaussianBlur stdDeviation="40" result="effect1_foregroundBlur_275_3652"/>
</filter>
<filter id="filter15_f_275_3652" x="102" y="85" width="185" height="170.794" filterUnits="userSpaceOnUse" color-interpolation-filters="sRGB">
<feFlood flood-opacity="0" result="BackgroundImageFix"/>
<feBlend mode="normal" in="SourceGraphic" in2="BackgroundImageFix" result="shape"/>
<feGaussianBlur stdDeviation="20" result="effect1_foregroundBlur_275_3652"/>
</filter>
<filter id="filter16_f_275_3652" x="122" y="105" width="145" height="130.794" filterUnits="userSpaceOnUse" color-interpolation-filters="sRGB">
<feFlood flood-opacity="0" result="BackgroundImageFix"/>
<feBlend mode="normal" in="SourceGraphic" in2="BackgroundImageFix" result="shape"/>
<feGaussianBlur stdDeviation="10" result="effect1_foregroundBlur_275_3652"/>
</filter>
<filter id="filter17_f_275_3652" x="141.158" y="125.489" width="106.684" height="94.8057" filterUnits="userSpaceOnUse" color-interpolation-filters="sRGB">
<feFlood flood-opacity="0" result="BackgroundImageFix"/>
<feBlend mode="normal" in="SourceGraphic" in2="BackgroundImageFix" result="shape"/>
<feGaussianBlur stdDeviation="2" result="effect1_foregroundBlur_275_3652"/>
</filter>
<filter id="filter18_f_275_3652" x="137.158" y="121.489" width="114.684" height="102.806" filterUnits="userSpaceOnUse" color-interpolation-filters="sRGB">
<feFlood flood-opacity="0" result="BackgroundImageFix"/>
<feBlend mode="normal" in="SourceGraphic" in2="BackgroundImageFix" result="shape"/>
<feGaussianBlur stdDeviation="4" result="effect1_foregroundBlur_275_3652"/>
</filter>
<filter id="filter19_f_275_3652" x="129.158" y="113.489" width="130.684" height="118.806" filterUnits="userSpaceOnUse" color-interpolation-filters="sRGB">
<feFlood flood-opacity="0" result="BackgroundImageFix"/>
<feBlend mode="normal" in="SourceGraphic" in2="BackgroundImageFix" result="shape"/>
<feGaussianBlur stdDeviation="8" result="effect1_foregroundBlur_275_3652"/>
</filter>
<filter id="filter20_f_275_3652" x="111" y="22" width="305" height="296.21" filterUnits="userSpaceOnUse" color-interpolation-filters="sRGB">
<feFlood flood-opacity="0" result="BackgroundImageFix"/>
<feBlend mode="normal" in="SourceGraphic" in2="BackgroundImageFix" result="shape"/>
<feGaussianBlur stdDeviation="60" result="effect1_foregroundBlur_275_3652"/>
</filter>
<filter id="filter21_f_275_3652" x="151" y="62" width="225" height="216.21" filterUnits="userSpaceOnUse" color-interpolation-filters="sRGB">
<feFlood flood-opacity="0" result="BackgroundImageFix"/>
<feBlend mode="normal" in="SourceGraphic" in2="BackgroundImageFix" result="shape"/>
<feGaussianBlur stdDeviation="40" result="effect1_foregroundBlur_275_3652"/>
</filter>
<filter id="filter22_f_275_3652" x="191" y="102" width="145" height="136.21" filterUnits="userSpaceOnUse" color-interpolation-filters="sRGB">
<feFlood flood-opacity="0" result="BackgroundImageFix"/>
<feBlend mode="normal" in="SourceGraphic" in2="BackgroundImageFix" result="shape"/>
<feGaussianBlur stdDeviation="20" result="effect1_foregroundBlur_275_3652"/>
</filter>
<filter id="filter23_f_275_3652" x="211" y="122" width="105" height="96.21" filterUnits="userSpaceOnUse" color-interpolation-filters="sRGB">
<feFlood flood-opacity="0" result="BackgroundImageFix"/>
<feBlend mode="normal" in="SourceGraphic" in2="BackgroundImageFix" result="shape"/>
<feGaussianBlur stdDeviation="10" result="effect1_foregroundBlur_275_3652"/>
</filter>
<filter id="filter24_f_275_3652" x="230.158" y="137.5" width="66.6836" height="60.2209" filterUnits="userSpaceOnUse" color-interpolation-filters="sRGB">
<feFlood flood-opacity="0" result="BackgroundImageFix"/>
<feBlend mode="normal" in="SourceGraphic" in2="BackgroundImageFix" result="shape"/>
<feGaussianBlur stdDeviation="2" result="effect1_foregroundBlur_275_3652"/>
</filter>
<filter id="filter25_f_275_3652" x="226.158" y="133.5" width="74.6836" height="68.2209" filterUnits="userSpaceOnUse" color-interpolation-filters="sRGB">
<feFlood flood-opacity="0" result="BackgroundImageFix"/>
<feBlend mode="normal" in="SourceGraphic" in2="BackgroundImageFix" result="shape"/>
<feGaussianBlur stdDeviation="4" result="effect1_foregroundBlur_275_3652"/>
</filter>
<filter id="filter26_f_275_3652" x="218.158" y="125.5" width="90.6836" height="84.2209" filterUnits="userSpaceOnUse" color-interpolation-filters="sRGB">
<feFlood flood-opacity="0" result="BackgroundImageFix"/>
<feBlend mode="normal" in="SourceGraphic" in2="BackgroundImageFix" result="shape"/>
<feGaussianBlur stdDeviation="8" result="effect1_foregroundBlur_275_3652"/>
</filter>
<filter id="filter27_f_275_3652" x="-27" y="22" width="305" height="296.21" filterUnits="userSpaceOnUse" color-interpolation-filters="sRGB">
<feFlood flood-opacity="0" result="BackgroundImageFix"/>
<feBlend mode="normal" in="SourceGraphic" in2="BackgroundImageFix" result="shape"/>
<feGaussianBlur stdDeviation="60" result="effect1_foregroundBlur_275_3652"/>
</filter>
<filter id="filter28_f_275_3652" x="13" y="62" width="225" height="216.21" filterUnits="userSpaceOnUse" color-interpolation-filters="sRGB">
<feFlood flood-opacity="0" result="BackgroundImageFix"/>
<feBlend mode="normal" in="SourceGraphic" in2="BackgroundImageFix" result="shape"/>
<feGaussianBlur stdDeviation="40" result="effect1_foregroundBlur_275_3652"/>
</filter>
<filter id="filter29_f_275_3652" x="53" y="102" width="145" height="136.21" filterUnits="userSpaceOnUse" color-interpolation-filters="sRGB">
<feFlood flood-opacity="0" result="BackgroundImageFix"/>
<feBlend mode="normal" in="SourceGraphic" in2="BackgroundImageFix" result="shape"/>
<feGaussianBlur stdDeviation="20" result="effect1_foregroundBlur_275_3652"/>
</filter>
<filter id="filter30_f_275_3652" x="73" y="122" width="105" height="96.21" filterUnits="userSpaceOnUse" color-interpolation-filters="sRGB">
<feFlood flood-opacity="0" result="BackgroundImageFix"/>
<feBlend mode="normal" in="SourceGraphic" in2="BackgroundImageFix" result="shape"/>
<feGaussianBlur stdDeviation="10" result="effect1_foregroundBlur_275_3652"/>
</filter>
<filter id="filter31_f_275_3652" x="92.1582" y="137.5" width="66.6836" height="60.2209" filterUnits="userSpaceOnUse" color-interpolation-filters="sRGB">
<feFlood flood-opacity="0" result="BackgroundImageFix"/>
<feBlend mode="normal" in="SourceGraphic" in2="BackgroundImageFix" result="shape"/>
<feGaussianBlur stdDeviation="2" result="effect1_foregroundBlur_275_3652"/>
</filter>
<filter id="filter32_f_275_3652" x="88.1582" y="133.5" width="74.6836" height="68.2209" filterUnits="userSpaceOnUse" color-interpolation-filters="sRGB">
<feFlood flood-opacity="0" result="BackgroundImageFix"/>
<feBlend mode="normal" in="SourceGraphic" in2="BackgroundImageFix" result="shape"/>
<feGaussianBlur stdDeviation="4" result="effect1_foregroundBlur_275_3652"/>
</filter>
<filter id="filter33_f_275_3652" x="80.1582" y="125.5" width="90.6836" height="84.2209" filterUnits="userSpaceOnUse" color-interpolation-filters="sRGB">
<feFlood flood-opacity="0" result="BackgroundImageFix"/>
<feBlend mode="normal" in="SourceGraphic" in2="BackgroundImageFix" result="shape"/>
<feGaussianBlur stdDeviation="8" result="effect1_foregroundBlur_275_3652"/>
</filter>
<linearGradient id="paint0_linear_275_3652" x1="194.5" y1="8" x2="194.5" y2="104" gradientUnits="userSpaceOnUse">
<stop stop-color="#7469EE" stop-opacity="0"/>
<stop offset="0.195" stop-color="#7469EE"/>
<stop offset="1" stop-color="#7469EE" stop-opacity="0"/>
</linearGradient>
<linearGradient id="paint1_linear_275_3652" x1="194.5" y1="8" x2="194.5" y2="104" gradientUnits="userSpaceOnUse">
<stop stop-color="#7469EE" stop-opacity="0"/>
<stop offset="0.195" stop-color="#7469EE"/>
<stop offset="1" stop-color="#7469EE" stop-opacity="0"/>
</linearGradient>
<linearGradient id="paint2_linear_275_3652" x1="194.5" y1="8" x2="194.5" y2="104" gradientUnits="userSpaceOnUse">
<stop stop-color="#7469EE" stop-opacity="0"/>
<stop offset="0.195" stop-color="#7469EE"/>
<stop offset="1" stop-color="#7469EE" stop-opacity="0"/>
</linearGradient>
<linearGradient id="paint3_linear_275_3652" x1="0" y1="0.5" x2="96" y2="0.5" gradientUnits="userSpaceOnUse">
<stop stop-color="#7469EE" stop-opacity="0"/>
<stop offset="0.195" stop-color="#7469EE"/>
<stop offset="1" stop-color="#7469EE" stop-opacity="0"/>
</linearGradient>
<linearGradient id="paint4_linear_275_3652" x1="0" y1="0.5" x2="96" y2="0.5" gradientUnits="userSpaceOnUse">
<stop stop-color="#7469EE" stop-opacity="0"/>
<stop offset="0.195" stop-color="#7469EE"/>
<stop offset="1" stop-color="#7469EE" stop-opacity="0"/>
</linearGradient>
<linearGradient id="paint5_linear_275_3652" x1="0" y1="0.5" x2="96" y2="0.5" gradientUnits="userSpaceOnUse">
<stop stop-color="#7469EE" stop-opacity="0"/>
<stop offset="0.195" stop-color="#7469EE"/>
<stop offset="1" stop-color="#7469EE" stop-opacity="0"/>
</linearGradient>
<linearGradient id="paint6_linear_275_3652" x1="0" y1="0.5" x2="96" y2="0.5" gradientUnits="userSpaceOnUse">
<stop stop-color="#7469EE" stop-opacity="0"/>
<stop offset="0.195" stop-color="#7469EE"/>
<stop offset="1" stop-color="#7469EE" stop-opacity="0"/>
</linearGradient>
<linearGradient id="paint7_linear_275_3652" x1="0" y1="0.5" x2="96" y2="0.5" gradientUnits="userSpaceOnUse">
<stop stop-color="#7469EE" stop-opacity="0"/>
<stop offset="0.195" stop-color="#7469EE"/>
<stop offset="1" stop-color="#7469EE" stop-opacity="0"/>
</linearGradient>
<linearGradient id="paint8_linear_275_3652" x1="0" y1="0.5" x2="96" y2="0.5" gradientUnits="userSpaceOnUse">
<stop stop-color="#7469EE" stop-opacity="0"/>
<stop offset="0.195" stop-color="#7469EE"/>
<stop offset="1" stop-color="#7469EE" stop-opacity="0"/>
</linearGradient>
<radialGradient id="paint9_radial_275_3652" cx="0" cy="0" r="1" gradientUnits="userSpaceOnUse" gradientTransform="translate(194.5 179.347) rotate(90) scale(55.7099 64.4264)">
<stop stop-color="#584DD9"/>
<stop offset="1" stop-color="#101010" stop-opacity="0"/>
</radialGradient>
<radialGradient id="paint10_radial_275_3652" cx="0" cy="0" r="1" gradientUnits="userSpaceOnUse" gradientTransform="translate(194.5 179.347) rotate(90) scale(55.7099 64.4264)">
<stop stop-color="#584DD9"/>
<stop offset="1" stop-color="#101010" stop-opacity="0"/>
</radialGradient>
<radialGradient id="paint11_radial_275_3652" cx="0" cy="0" r="1" gradientUnits="userSpaceOnUse" gradientTransform="translate(194.5 179.347) rotate(90) scale(55.7099 64.4264)">
<stop stop-color="#584DD9"/>
<stop offset="1" stop-color="#101010" stop-opacity="0"/>
</radialGradient>
<radialGradient id="paint12_radial_275_3652" cx="0" cy="0" r="1" gradientUnits="userSpaceOnUse" gradientTransform="translate(194.5 179.347) rotate(90) scale(55.7099 64.4264)">
<stop stop-color="#584DD9"/>
<stop offset="1" stop-color="#101010" stop-opacity="0"/>
</radialGradient>
<radialGradient id="paint13_radial_275_3652" cx="0" cy="0" r="1" gradientUnits="userSpaceOnUse" gradientTransform="translate(194.5 179.347) rotate(90) scale(55.7099 64.4264)">
<stop stop-color="#584DD9"/>
<stop offset="1" stop-color="#101010" stop-opacity="0"/>
</radialGradient>
<linearGradient id="paint14_linear_275_3652" x1="232.323" y1="190.691" x2="210.525" y2="151.96" gradientUnits="userSpaceOnUse">
<stop stop-color="#584DD9" stop-opacity="0"/>
<stop offset="0.5" stop-color="#584DD9"/>
<stop offset="1" stop-color="#584DD9" stop-opacity="0"/>
</linearGradient>
<linearGradient id="paint15_linear_275_3652" x1="232.323" y1="190.691" x2="210.525" y2="151.96" gradientUnits="userSpaceOnUse">
<stop stop-color="#584DD9" stop-opacity="0"/>
<stop offset="0.5" stop-color="#584DD9"/>
<stop offset="1" stop-color="#584DD9" stop-opacity="0"/>
</linearGradient>
<linearGradient id="paint16_linear_275_3652" x1="232.323" y1="190.691" x2="210.525" y2="151.96" gradientUnits="userSpaceOnUse">
<stop stop-color="#584DD9" stop-opacity="0"/>
<stop offset="0.5" stop-color="#584DD9"/>
<stop offset="1" stop-color="#584DD9" stop-opacity="0"/>
</linearGradient>
<linearGradient id="paint17_linear_275_3652" x1="232.323" y1="190.691" x2="210.525" y2="151.96" gradientUnits="userSpaceOnUse">
<stop stop-color="#584DD9" stop-opacity="0"/>
<stop offset="0.5" stop-color="#584DD9"/>
<stop offset="1" stop-color="#584DD9" stop-opacity="0"/>
</linearGradient>
<radialGradient id="paint18_radial_275_3652" cx="0" cy="0" r="1" gradientUnits="userSpaceOnUse" gradientTransform="translate(194.5 179.347) rotate(90) scale(55.7099 64.4264)">
<stop stop-color="#584DD9"/>
<stop offset="1" stop-color="#101010" stop-opacity="0"/>
</radialGradient>
<radialGradient id="paint19_radial_275_3652" cx="0" cy="0" r="1" gradientUnits="userSpaceOnUse" gradientTransform="translate(194.5 179.347) rotate(90) scale(55.7099 64.4264)">
<stop stop-color="#584DD9"/>
<stop offset="1" stop-color="#101010" stop-opacity="0"/>
</radialGradient>
<radialGradient id="paint20_radial_275_3652" cx="0" cy="0" r="1" gradientUnits="userSpaceOnUse" gradientTransform="translate(194.5 179.347) rotate(90) scale(55.7099 64.4264)">
<stop stop-color="#584DD9"/>
<stop offset="1" stop-color="#101010" stop-opacity="0"/>
</radialGradient>
<radialGradient id="paint21_radial_275_3652" cx="0" cy="0" r="1" gradientUnits="userSpaceOnUse" gradientTransform="translate(194.5 179.347) rotate(90) scale(55.7099 64.4264)">
<stop stop-color="#584DD9"/>
<stop offset="1" stop-color="#101010" stop-opacity="0"/>
</radialGradient>
<radialGradient id="paint22_radial_275_3652" cx="0" cy="0" r="1" gradientUnits="userSpaceOnUse" gradientTransform="translate(194.5 179.347) rotate(90) scale(55.7099 64.4264)">
<stop stop-color="#584DD9"/>
<stop offset="1" stop-color="#101010" stop-opacity="0"/>
</radialGradient>
<linearGradient id="paint23_linear_275_3652" x1="232.323" y1="190.691" x2="210.525" y2="151.96" gradientUnits="userSpaceOnUse">
<stop stop-color="#584DD9" stop-opacity="0"/>
<stop offset="0.5" stop-color="#584DD9"/>
<stop offset="1" stop-color="#584DD9" stop-opacity="0"/>
</linearGradient>
<linearGradient id="paint24_linear_275_3652" x1="232.323" y1="190.691" x2="210.525" y2="151.96" gradientUnits="userSpaceOnUse">
<stop stop-color="#584DD9" stop-opacity="0"/>
<stop offset="0.5" stop-color="#584DD9"/>
<stop offset="1" stop-color="#584DD9" stop-opacity="0"/>
</linearGradient>
<linearGradient id="paint25_linear_275_3652" x1="232.323" y1="190.691" x2="210.525" y2="151.96" gradientUnits="userSpaceOnUse">
<stop stop-color="#584DD9" stop-opacity="0"/>
<stop offset="0.5" stop-color="#584DD9"/>
<stop offset="1" stop-color="#584DD9" stop-opacity="0"/>
</linearGradient>
<linearGradient id="paint26_linear_275_3652" x1="232.323" y1="190.691" x2="210.525" y2="151.96" gradientUnits="userSpaceOnUse">
<stop stop-color="#584DD9" stop-opacity="0"/>
<stop offset="0.5" stop-color="#584DD9"/>
<stop offset="1" stop-color="#584DD9" stop-opacity="0"/>
</linearGradient>
<radialGradient id="paint27_radial_275_3652" cx="0" cy="0" r="1" gradientUnits="userSpaceOnUse" gradientTransform="translate(263.5 164.564) rotate(-90) scale(34.4896 39.883)">
<stop stop-color="#7469EE"/>
<stop offset="1" stop-color="#101010" stop-opacity="0"/>
</radialGradient>
<radialGradient id="paint28_radial_275_3652" cx="0" cy="0" r="1" gradientUnits="userSpaceOnUse" gradientTransform="translate(263.5 164.564) rotate(-90) scale(34.4896 39.883)">
<stop stop-color="#7469EE"/>
<stop offset="1" stop-color="#101010" stop-opacity="0"/>
</radialGradient>
<radialGradient id="paint29_radial_275_3652" cx="0" cy="0" r="1" gradientUnits="userSpaceOnUse" gradientTransform="translate(263.5 164.564) rotate(-90) scale(34.4896 39.883)">
<stop stop-color="#7469EE"/>
<stop offset="1" stop-color="#101010" stop-opacity="0"/>
</radialGradient>
<radialGradient id="paint30_radial_275_3652" cx="0" cy="0" r="1" gradientUnits="userSpaceOnUse" gradientTransform="translate(263.5 164.564) rotate(-90) scale(34.4896 39.883)">
<stop stop-color="#7469EE"/>
<stop offset="1" stop-color="#101010" stop-opacity="0"/>
</radialGradient>
<radialGradient id="paint31_radial_275_3652" cx="0" cy="0" r="1" gradientUnits="userSpaceOnUse" gradientTransform="translate(263.5 164.564) rotate(-90) scale(34.4896 39.883)">
<stop stop-color="#7469EE"/>
<stop offset="1" stop-color="#101010" stop-opacity="0"/>
</radialGradient>
<linearGradient id="paint32_linear_275_3652" x1="240.086" y1="157.541" x2="253.582" y2="181.519" gradientUnits="userSpaceOnUse">
<stop stop-color="#7469EE" stop-opacity="0"/>
<stop offset="0.5" stop-color="#7469EE"/>
<stop offset="1" stop-color="#7469EE" stop-opacity="0"/>
</linearGradient>
<linearGradient id="paint33_linear_275_3652" x1="240.086" y1="157.541" x2="253.582" y2="181.519" gradientUnits="userSpaceOnUse">
<stop stop-color="#7469EE" stop-opacity="0"/>
<stop offset="0.5" stop-color="#7469EE"/>
<stop offset="1" stop-color="#7469EE" stop-opacity="0"/>
</linearGradient>
<linearGradient id="paint34_linear_275_3652" x1="240.086" y1="157.541" x2="253.582" y2="181.519" gradientUnits="userSpaceOnUse">
<stop stop-color="#7469EE" stop-opacity="0"/>
<stop offset="0.5" stop-color="#7469EE"/>
<stop offset="1" stop-color="#7469EE" stop-opacity="0"/>
</linearGradient>
<linearGradient id="paint35_linear_275_3652" x1="240.086" y1="157.541" x2="253.582" y2="181.519" gradientUnits="userSpaceOnUse">
<stop stop-color="#7469EE" stop-opacity="0"/>
<stop offset="0.5" stop-color="#7469EE"/>
<stop offset="1" stop-color="#7469EE" stop-opacity="0"/>
</linearGradient>
<radialGradient id="paint36_radial_275_3652" cx="0" cy="0" r="1" gradientUnits="userSpaceOnUse" gradientTransform="translate(125.5 164.564) rotate(-90) scale(34.4896 39.883)">
<stop stop-color="#7469EE"/>
<stop offset="1" stop-color="#101010" stop-opacity="0"/>
</radialGradient>
<radialGradient id="paint37_radial_275_3652" cx="0" cy="0" r="1" gradientUnits="userSpaceOnUse" gradientTransform="translate(125.5 164.564) rotate(-90) scale(34.4896 39.883)">
<stop stop-color="#7469EE"/>
<stop offset="1" stop-color="#101010" stop-opacity="0"/>
</radialGradient>
<radialGradient id="paint38_radial_275_3652" cx="0" cy="0" r="1" gradientUnits="userSpaceOnUse" gradientTransform="translate(125.5 164.564) rotate(-90) scale(34.4896 39.883)">
<stop stop-color="#7469EE"/>
<stop offset="1" stop-color="#101010" stop-opacity="0"/>
</radialGradient>
<radialGradient id="paint39_radial_275_3652" cx="0" cy="0" r="1" gradientUnits="userSpaceOnUse" gradientTransform="translate(125.5 164.564) rotate(-90) scale(34.4896 39.883)">
<stop stop-color="#7469EE"/>
<stop offset="1" stop-color="#101010" stop-opacity="0"/>
</radialGradient>
<radialGradient id="paint40_radial_275_3652" cx="0" cy="0" r="1" gradientUnits="userSpaceOnUse" gradientTransform="translate(125.5 164.564) rotate(-90) scale(34.4896 39.883)">
<stop stop-color="#7469EE"/>
<stop offset="1" stop-color="#101010" stop-opacity="0"/>
</radialGradient>
<linearGradient id="paint41_linear_275_3652" x1="148.914" y1="157.541" x2="135.418" y2="181.519" gradientUnits="userSpaceOnUse">
<stop stop-color="#7469EE" stop-opacity="0"/>
<stop offset="0.5" stop-color="#7469EE"/>
<stop offset="1" stop-color="#7469EE" stop-opacity="0"/>
</linearGradient>
<linearGradient id="paint42_linear_275_3652" x1="148.914" y1="157.541" x2="135.418" y2="181.519" gradientUnits="userSpaceOnUse">
<stop stop-color="#7469EE" stop-opacity="0"/>
<stop offset="0.5" stop-color="#7469EE"/>
<stop offset="1" stop-color="#7469EE" stop-opacity="0"/>
</linearGradient>
<linearGradient id="paint43_linear_275_3652" x1="148.914" y1="157.541" x2="135.418" y2="181.519" gradientUnits="userSpaceOnUse">
<stop stop-color="#7469EE" stop-opacity="0"/>
<stop offset="0.5" stop-color="#7469EE"/>
<stop offset="1" stop-color="#7469EE" stop-opacity="0"/>
</linearGradient>
<linearGradient id="paint44_linear_275_3652" x1="148.914" y1="157.541" x2="135.418" y2="181.519" gradientUnits="userSpaceOnUse">
<stop stop-color="#7469EE" stop-opacity="0"/>
<stop offset="0.5" stop-color="#7469EE"/>
<stop offset="1" stop-color="#7469EE" stop-opacity="0"/>
</linearGradient>
</defs>
</svg>
