<svg width="561" height="336" viewBox="0 0 561 336" fill="none" xmlns="http://www.w3.org/2000/svg">
<line x1="281.5" y1="8" x2="281.5" y2="104" stroke="url(#paint0_linear_275_3652)"/>
<g style="mix-blend-mode:plus-lighter" filter="url(#filter0_f_275_3652)">
<line x1="281.5" y1="8" x2="281.5" y2="104" stroke="url(#paint1_linear_275_3652)"/>
</g>
<g style="mix-blend-mode:plus-lighter" filter="url(#filter1_f_275_3652)">
<line x1="281.5" y1="8" x2="281.5" y2="104" stroke="url(#paint2_linear_275_3652)"/>
</g>
<g opacity="0.4">
<line y1="-0.5" x2="196" y2="-0.5" transform="matrix(1 -5.68182e-07 -3.36292e-09 -1 357 216)" stroke="url(#paint3_linear_275_3652)"/>
<g style="mix-blend-mode:plus-lighter" filter="url(#filter2_f_275_3652)">
<line y1="-0.5" x2="196" y2="-0.5" transform="matrix(1 -5.68182e-07 -3.36292e-09 -1 357 216)" stroke="url(#paint4_linear_275_3652)"/>
</g>
<g style="mix-blend-mode:plus-lighter" filter="url(#filter3_f_275_3652)">
<line y1="-0.5" x2="196" y2="-0.5" transform="matrix(1 -5.68182e-07 -3.36292e-09 -1 357 216)" stroke="url(#paint5_linear_275_3652)"/>
</g>
</g>
<g opacity="0.4">
<line y1="-0.5" x2="196" y2="-0.5" transform="matrix(-1 -1.02041e-06 1.87254e-09 -1 204 216)" stroke="url(#paint6_linear_275_3652)"/>
<g style="mix-blend-mode:plus-lighter" filter="url(#filter4_f_275_3652)">
<line y1="-0.5" x2="196" y2="-0.5" transform="matrix(-1 -1.02041e-06 1.87254e-09 -1 204 216)" stroke="url(#paint7_linear_275_3652)"/>
</g>
<g style="mix-blend-mode:plus-lighter" filter="url(#filter5_f_275_3652)">
<line y1="-0.5" x2="196" y2="-0.5" transform="matrix(-1 -1.02041e-06 1.87254e-09 -1 204 216)" stroke="url(#paint8_linear_275_3652)"/>
</g>
</g>
<g opacity="0.7">
<g filter="url(#filter6_f_275_3652)">
<path d="M228 215.794H333L280.5 125L228 215.794Z" fill="url(#paint9_radial_275_3652)"/>
</g>
<g style="mix-blend-mode:plus-lighter" filter="url(#filter7_f_275_3652)">
<path d="M228 215.794H333L280.5 125L228 215.794Z" fill="url(#paint10_radial_275_3652)"/>
</g>
<g style="mix-blend-mode:plus-lighter" filter="url(#filter8_f_275_3652)">
<path d="M228 215.794H333L280.5 125L228 215.794Z" fill="url(#paint11_radial_275_3652)"/>
</g>
<g style="mix-blend-mode:lighten" filter="url(#filter9_f_275_3652)">
<path d="M228 215.794H333L280.5 125L228 215.794Z" fill="url(#paint12_radial_275_3652)"/>
</g>
</g>
<g style="mix-blend-mode:lighten">
<path d="M236.667 215.794H324.333C328.184 215.794 330.589 211.625 328.662 208.291L284.828 132.486C282.903 129.156 278.097 129.156 276.172 132.486L232.338 208.291C230.411 211.625 232.816 215.794 236.667 215.794Z" fill="url(#paint13_radial_275_3652)"/>
</g>
<path style="mix-blend-mode:plus-lighter" d="M236.667 215.794H324.333C328.184 215.794 330.589 211.625 328.662 208.291L284.828 132.486C282.903 129.156 278.097 129.156 276.172 132.486L232.338 208.291C230.411 211.625 232.816 215.794 236.667 215.794Z" stroke="url(#paint14_linear_275_3652)" stroke-opacity="0.4"/>
<g style="mix-blend-mode:plus-lighter" filter="url(#filter10_f_275_3652)">
<path d="M236.667 215.794H324.333C328.184 215.794 330.589 211.625 328.662 208.291L284.828 132.486C282.903 129.156 278.097 129.156 276.172 132.486L232.338 208.291C230.411 211.625 232.816 215.794 236.667 215.794Z" stroke="url(#paint15_linear_275_3652)" stroke-opacity="0.4" style="mix-blend-mode:plus-lighter"/>
</g>
<g style="mix-blend-mode:plus-lighter" filter="url(#filter11_f_275_3652)">
<path d="M236.667 215.794H324.333C328.184 215.794 330.589 211.625 328.662 208.291L284.828 132.486C282.903 129.156 278.097 129.156 276.172 132.486L232.338 208.291C230.411 211.625 232.816 215.794 236.667 215.794Z" stroke="url(#paint16_linear_275_3652)" stroke-opacity="0.4" style="mix-blend-mode:plus-lighter"/>
</g>
<g style="mix-blend-mode:plus-lighter" filter="url(#filter12_f_275_3652)">
<path d="M236.667 215.794H324.333C328.184 215.794 330.589 211.625 328.662 208.291L284.828 132.486C282.903 129.156 278.097 129.156 276.172 132.486L232.338 208.291C230.411 211.625 232.816 215.794 236.667 215.794Z" stroke="url(#paint17_linear_275_3652)" stroke-opacity="0.4" style="mix-blend-mode:plus-lighter"/>
</g>
<g opacity="0.7">
<g filter="url(#filter13_f_275_3652)">
<path d="M228 215.794H333L280.5 125L228 215.794Z" fill="url(#paint18_radial_275_3652)"/>
</g>
<g style="mix-blend-mode:plus-lighter" filter="url(#filter14_f_275_3652)">
<path d="M228 215.794H333L280.5 125L228 215.794Z" fill="url(#paint19_radial_275_3652)"/>
</g>
<g style="mix-blend-mode:plus-lighter" filter="url(#filter15_f_275_3652)">
<path d="M228 215.794H333L280.5 125L228 215.794Z" fill="url(#paint20_radial_275_3652)"/>
</g>
<g style="mix-blend-mode:lighten" filter="url(#filter16_f_275_3652)">
<path d="M228 215.794H333L280.5 125L228 215.794Z" fill="url(#paint21_radial_275_3652)"/>
</g>
</g>
<g style="mix-blend-mode:lighten">
<path d="M236.667 215.794H324.333C328.184 215.794 330.589 211.625 328.662 208.291L284.828 132.486C282.903 129.156 278.097 129.156 276.172 132.486L232.338 208.291C230.411 211.625 232.816 215.794 236.667 215.794Z" fill="url(#paint22_radial_275_3652)"/>
</g>
<path style="mix-blend-mode:plus-lighter" d="M236.667 215.794H324.333C328.184 215.794 330.589 211.625 328.662 208.291L284.828 132.486C282.903 129.156 278.097 129.156 276.172 132.486L232.338 208.291C230.411 211.625 232.816 215.794 236.667 215.794Z" stroke="url(#paint23_linear_275_3652)" stroke-opacity="0.4"/>
<g style="mix-blend-mode:plus-lighter" filter="url(#filter17_f_275_3652)">
<path d="M236.667 215.794H324.333C328.184 215.794 330.589 211.625 328.662 208.291L284.828 132.486C282.903 129.156 278.097 129.156 276.172 132.486L232.338 208.291C230.411 211.625 232.816 215.794 236.667 215.794Z" stroke="url(#paint24_linear_275_3652)" stroke-opacity="0.4" style="mix-blend-mode:plus-lighter"/>
</g>
<g style="mix-blend-mode:plus-lighter" filter="url(#filter18_f_275_3652)">
<path d="M236.667 215.794H324.333C328.184 215.794 330.589 211.625 328.662 208.291L284.828 132.486C282.903 129.156 278.097 129.156 276.172 132.486L232.338 208.291C230.411 211.625 232.816 215.794 236.667 215.794Z" stroke="url(#paint25_linear_275_3652)" stroke-opacity="0.4" style="mix-blend-mode:plus-lighter"/>
</g>
<g style="mix-blend-mode:plus-lighter" filter="url(#filter19_f_275_3652)">
<path d="M236.667 215.794H324.333C328.184 215.794 330.589 211.625 328.662 208.291L284.828 132.486C282.903 129.156 278.097 129.156 276.172 132.486L232.338 208.291C230.411 211.625 232.816 215.794 236.667 215.794Z" stroke="url(#paint26_linear_275_3652)" stroke-opacity="0.4" style="mix-blend-mode:plus-lighter"/>
</g>
<g opacity="0.4">
<g opacity="0.7">
<g filter="url(#filter20_f_275_3652)">
<path d="M382 142H317L349.5 198.21L382 142Z" fill="url(#paint27_radial_275_3652)"/>
</g>
<g style="mix-blend-mode:plus-lighter" filter="url(#filter21_f_275_3652)">
<path d="M382 142H317L349.5 198.21L382 142Z" fill="url(#paint28_radial_275_3652)"/>
</g>
<g style="mix-blend-mode:plus-lighter" filter="url(#filter22_f_275_3652)">
<path d="M382 142H317L349.5 198.21L382 142Z" fill="url(#paint29_radial_275_3652)"/>
</g>
<g style="mix-blend-mode:lighten" filter="url(#filter23_f_275_3652)">
<path d="M382 142H317L349.5 198.21L382 142Z" fill="url(#paint30_radial_275_3652)"/>
</g>
</g>
<g style="mix-blend-mode:lighten">
<path d="M373.333 142H325.667C321.816 142 319.411 146.169 321.338 149.503L345.171 190.724C347.097 194.053 351.903 194.053 353.829 190.724L377.662 149.503C379.589 146.169 377.184 142 373.333 142Z" fill="url(#paint31_radial_275_3652)"/>
</g>
<path style="mix-blend-mode:plus-lighter" d="M373.333 142H325.667C321.816 142 319.411 146.169 321.338 149.503L345.171 190.724C347.097 194.053 351.903 194.053 353.829 190.724L377.662 149.503C379.589 146.169 377.184 142 373.333 142Z" stroke="url(#paint32_linear_275_3652)" stroke-opacity="0.4"/>
<g style="mix-blend-mode:plus-lighter" filter="url(#filter24_f_275_3652)">
<path d="M373.333 142H325.667C321.816 142 319.411 146.169 321.338 149.503L345.171 190.724C347.097 194.053 351.903 194.053 353.829 190.724L377.662 149.503C379.589 146.169 377.184 142 373.333 142Z" stroke="url(#paint33_linear_275_3652)" stroke-opacity="0.4" style="mix-blend-mode:plus-lighter"/>
</g>
<g style="mix-blend-mode:plus-lighter" filter="url(#filter25_f_275_3652)">
<path d="M373.333 142H325.667C321.816 142 319.411 146.169 321.338 149.503L345.171 190.724C347.097 194.053 351.903 194.053 353.829 190.724L377.662 149.503C379.589 146.169 377.184 142 373.333 142Z" stroke="url(#paint34_linear_275_3652)" stroke-opacity="0.4" style="mix-blend-mode:plus-lighter"/>
</g>
<g style="mix-blend-mode:plus-lighter" filter="url(#filter26_f_275_3652)">
<path d="M373.333 142H325.667C321.816 142 319.411 146.169 321.338 149.503L345.171 190.724C347.097 194.053 351.903 194.053 353.829 190.724L377.662 149.503C379.589 146.169 377.184 142 373.333 142Z" stroke="url(#paint35_linear_275_3652)" stroke-opacity="0.4" style="mix-blend-mode:plus-lighter"/>
</g>
</g>
<g opacity="0.4">
<g opacity="0.7">
<g filter="url(#filter27_f_275_3652)">
<path d="M179 142H244L211.5 198.21L179 142Z" fill="url(#paint36_radial_275_3652)"/>
</g>
<g style="mix-blend-mode:plus-lighter" filter="url(#filter28_f_275_3652)">
<path d="M179 142H244L211.5 198.21L179 142Z" fill="url(#paint37_radial_275_3652)"/>
</g>
<g style="mix-blend-mode:plus-lighter" filter="url(#filter29_f_275_3652)">
<path d="M179 142H244L211.5 198.21L179 142Z" fill="url(#paint38_radial_275_3652)"/>
</g>
<g style="mix-blend-mode:lighten" filter="url(#filter30_f_275_3652)">
<path d="M179 142H244L211.5 198.21L179 142Z" fill="url(#paint39_radial_275_3652)"/>
</g>
</g>
<g style="mix-blend-mode:lighten">
<path d="M187.667 142H235.333C239.184 142 241.589 146.169 239.662 149.503L215.829 190.724C213.903 194.053 209.097 194.053 207.171 190.724L183.338 149.503C181.411 146.169 183.816 142 187.667 142Z" fill="url(#paint40_radial_275_3652)"/>
</g>
<path style="mix-blend-mode:plus-lighter" d="M187.667 142H235.333C239.184 142 241.589 146.169 239.662 149.503L215.829 190.724C213.903 194.053 209.097 194.053 207.171 190.724L183.338 149.503C181.411 146.169 183.816 142 187.667 142Z" stroke="url(#paint41_linear_275_3652)" stroke-opacity="0.4"/>
<g style="mix-blend-mode:plus-lighter" filter="url(#filter31_f_275_3652)">
<path d="M187.667 142H235.333C239.184 142 241.589 146.169 239.662 149.503L215.829 190.724C213.903 194.053 209.097 194.053 207.171 190.724L183.338 149.503C181.411 146.169 183.816 142 187.667 142Z" stroke="url(#paint42_linear_275_3652)" stroke-opacity="0.4" style="mix-blend-mode:plus-lighter"/>
</g>
<g style="mix-blend-mode:plus-lighter" filter="url(#filter32_f_275_3652)">
<path d="M187.667 142H235.333C239.184 142 241.589 146.169 239.662 149.503L215.829 190.724C213.903 194.053 209.097 194.053 207.171 190.724L183.338 149.503C181.411 146.169 183.816 142 187.667 142Z" stroke="url(#paint43_linear_275_3652)" stroke-opacity="0.4" style="mix-blend-mode:plus-lighter"/>
</g>
<g style="mix-blend-mode:plus-lighter" filter="url(#filter33_f_275_3652)">
<path d="M187.667 142H235.333C239.184 142 241.589 146.169 239.662 149.503L215.829 190.724C213.903 194.053 209.097 194.053 207.171 190.724L183.338 149.503C181.411 146.169 183.816 142 187.667 142Z" stroke="url(#paint44_linear_275_3652)" stroke-opacity="0.4" style="mix-blend-mode:plus-lighter"/>
</g>
</g>
<defs>
<filter id="filter0_f_275_3652" x="277" y="4" width="9" height="104" filterUnits="userSpaceOnUse" color-interpolation-filters="sRGB">
<feFlood flood-opacity="0" result="BackgroundImageFix"/>
<feBlend mode="normal" in="SourceGraphic" in2="BackgroundImageFix" result="shape"/>
<feGaussianBlur stdDeviation="2" result="effect1_foregroundBlur_275_3652"/>
</filter>
<filter id="filter1_f_275_3652" x="273" y="0" width="17" height="112" filterUnits="userSpaceOnUse" color-interpolation-filters="sRGB">
<feFlood flood-opacity="0" result="BackgroundImageFix"/>
<feBlend mode="normal" in="SourceGraphic" in2="BackgroundImageFix" result="shape"/>
<feGaussianBlur stdDeviation="4" result="effect1_foregroundBlur_275_3652"/>
</filter>
<filter id="filter2_f_275_3652" x="353" y="212" width="204" height="9" filterUnits="userSpaceOnUse" color-interpolation-filters="sRGB">
<feFlood flood-opacity="0" result="BackgroundImageFix"/>
<feBlend mode="normal" in="SourceGraphic" in2="BackgroundImageFix" result="shape"/>
<feGaussianBlur stdDeviation="2" result="effect1_foregroundBlur_275_3652"/>
</filter>
<filter id="filter3_f_275_3652" x="349" y="208" width="212" height="17" filterUnits="userSpaceOnUse" color-interpolation-filters="sRGB">
<feFlood flood-opacity="0" result="BackgroundImageFix"/>
<feBlend mode="normal" in="SourceGraphic" in2="BackgroundImageFix" result="shape"/>
<feGaussianBlur stdDeviation="4" result="effect1_foregroundBlur_275_3652"/>
</filter>
<filter id="filter4_f_275_3652" x="4" y="212" width="204" height="9" filterUnits="userSpaceOnUse" color-interpolation-filters="sRGB">
<feFlood flood-opacity="0" result="BackgroundImageFix"/>
<feBlend mode="normal" in="SourceGraphic" in2="BackgroundImageFix" result="shape"/>
<feGaussianBlur stdDeviation="2" result="effect1_foregroundBlur_275_3652"/>
</filter>
<filter id="filter5_f_275_3652" x="0" y="208" width="212" height="17" filterUnits="userSpaceOnUse" color-interpolation-filters="sRGB">
<feFlood flood-opacity="0" result="BackgroundImageFix"/>
<feBlend mode="normal" in="SourceGraphic" in2="BackgroundImageFix" result="shape"/>
<feGaussianBlur stdDeviation="4" result="effect1_foregroundBlur_275_3652"/>
</filter>
<filter id="filter6_f_275_3652" x="108" y="5" width="345" height="330.794" filterUnits="userSpaceOnUse" color-interpolation-filters="sRGB">
<feFlood flood-opacity="0" result="BackgroundImageFix"/>
<feBlend mode="normal" in="SourceGraphic" in2="BackgroundImageFix" result="shape"/>
<feGaussianBlur stdDeviation="60" result="effect1_foregroundBlur_275_3652"/>
</filter>
<filter id="filter7_f_275_3652" x="148" y="45" width="265" height="250.794" filterUnits="userSpaceOnUse" color-interpolation-filters="sRGB">
<feFlood flood-opacity="0" result="BackgroundImageFix"/>
<feBlend mode="normal" in="SourceGraphic" in2="BackgroundImageFix" result="shape"/>
<feGaussianBlur stdDeviation="40" result="effect1_foregroundBlur_275_3652"/>
</filter>
<filter id="filter8_f_275_3652" x="188" y="85" width="185" height="170.794" filterUnits="userSpaceOnUse" color-interpolation-filters="sRGB">
<feFlood flood-opacity="0" result="BackgroundImageFix"/>
<feBlend mode="normal" in="SourceGraphic" in2="BackgroundImageFix" result="shape"/>
<feGaussianBlur stdDeviation="20" result="effect1_foregroundBlur_275_3652"/>
</filter>
<filter id="filter9_f_275_3652" x="208" y="105" width="145" height="130.794" filterUnits="userSpaceOnUse" color-interpolation-filters="sRGB">
<feFlood flood-opacity="0" result="BackgroundImageFix"/>
<feBlend mode="normal" in="SourceGraphic" in2="BackgroundImageFix" result="shape"/>
<feGaussianBlur stdDeviation="10" result="effect1_foregroundBlur_275_3652"/>
</filter>
<filter id="filter10_f_275_3652" x="227.158" y="125.489" width="106.684" height="94.8052" filterUnits="userSpaceOnUse" color-interpolation-filters="sRGB">
<feFlood flood-opacity="0" result="BackgroundImageFix"/>
<feBlend mode="normal" in="SourceGraphic" in2="BackgroundImageFix" result="shape"/>
<feGaussianBlur stdDeviation="2" result="effect1_foregroundBlur_275_3652"/>
</filter>
<filter id="filter11_f_275_3652" x="223.158" y="121.489" width="114.684" height="102.805" filterUnits="userSpaceOnUse" color-interpolation-filters="sRGB">
<feFlood flood-opacity="0" result="BackgroundImageFix"/>
<feBlend mode="normal" in="SourceGraphic" in2="BackgroundImageFix" result="shape"/>
<feGaussianBlur stdDeviation="4" result="effect1_foregroundBlur_275_3652"/>
</filter>
<filter id="filter12_f_275_3652" x="215.158" y="113.489" width="130.684" height="118.805" filterUnits="userSpaceOnUse" color-interpolation-filters="sRGB">
<feFlood flood-opacity="0" result="BackgroundImageFix"/>
<feBlend mode="normal" in="SourceGraphic" in2="BackgroundImageFix" result="shape"/>
<feGaussianBlur stdDeviation="8" result="effect1_foregroundBlur_275_3652"/>
</filter>
<filter id="filter13_f_275_3652" x="108" y="5" width="345" height="330.794" filterUnits="userSpaceOnUse" color-interpolation-filters="sRGB">
<feFlood flood-opacity="0" result="BackgroundImageFix"/>
<feBlend mode="normal" in="SourceGraphic" in2="BackgroundImageFix" result="shape"/>
<feGaussianBlur stdDeviation="60" result="effect1_foregroundBlur_275_3652"/>
</filter>
<filter id="filter14_f_275_3652" x="148" y="45" width="265" height="250.794" filterUnits="userSpaceOnUse" color-interpolation-filters="sRGB">
<feFlood flood-opacity="0" result="BackgroundImageFix"/>
<feBlend mode="normal" in="SourceGraphic" in2="BackgroundImageFix" result="shape"/>
<feGaussianBlur stdDeviation="40" result="effect1_foregroundBlur_275_3652"/>
</filter>
<filter id="filter15_f_275_3652" x="188" y="85" width="185" height="170.794" filterUnits="userSpaceOnUse" color-interpolation-filters="sRGB">
<feFlood flood-opacity="0" result="BackgroundImageFix"/>
<feBlend mode="normal" in="SourceGraphic" in2="BackgroundImageFix" result="shape"/>
<feGaussianBlur stdDeviation="20" result="effect1_foregroundBlur_275_3652"/>
</filter>
<filter id="filter16_f_275_3652" x="208" y="105" width="145" height="130.794" filterUnits="userSpaceOnUse" color-interpolation-filters="sRGB">
<feFlood flood-opacity="0" result="BackgroundImageFix"/>
<feBlend mode="normal" in="SourceGraphic" in2="BackgroundImageFix" result="shape"/>
<feGaussianBlur stdDeviation="10" result="effect1_foregroundBlur_275_3652"/>
</filter>
<filter id="filter17_f_275_3652" x="227.158" y="125.489" width="106.684" height="94.8052" filterUnits="userSpaceOnUse" color-interpolation-filters="sRGB">
<feFlood flood-opacity="0" result="BackgroundImageFix"/>
<feBlend mode="normal" in="SourceGraphic" in2="BackgroundImageFix" result="shape"/>
<feGaussianBlur stdDeviation="2" result="effect1_foregroundBlur_275_3652"/>
</filter>
<filter id="filter18_f_275_3652" x="223.158" y="121.489" width="114.684" height="102.805" filterUnits="userSpaceOnUse" color-interpolation-filters="sRGB">
<feFlood flood-opacity="0" result="BackgroundImageFix"/>
<feBlend mode="normal" in="SourceGraphic" in2="BackgroundImageFix" result="shape"/>
<feGaussianBlur stdDeviation="4" result="effect1_foregroundBlur_275_3652"/>
</filter>
<filter id="filter19_f_275_3652" x="215.158" y="113.489" width="130.684" height="118.805" filterUnits="userSpaceOnUse" color-interpolation-filters="sRGB">
<feFlood flood-opacity="0" result="BackgroundImageFix"/>
<feBlend mode="normal" in="SourceGraphic" in2="BackgroundImageFix" result="shape"/>
<feGaussianBlur stdDeviation="8" result="effect1_foregroundBlur_275_3652"/>
</filter>
<filter id="filter20_f_275_3652" x="197" y="22" width="305" height="296.21" filterUnits="userSpaceOnUse" color-interpolation-filters="sRGB">
<feFlood flood-opacity="0" result="BackgroundImageFix"/>
<feBlend mode="normal" in="SourceGraphic" in2="BackgroundImageFix" result="shape"/>
<feGaussianBlur stdDeviation="60" result="effect1_foregroundBlur_275_3652"/>
</filter>
<filter id="filter21_f_275_3652" x="237" y="62" width="225" height="216.21" filterUnits="userSpaceOnUse" color-interpolation-filters="sRGB">
<feFlood flood-opacity="0" result="BackgroundImageFix"/>
<feBlend mode="normal" in="SourceGraphic" in2="BackgroundImageFix" result="shape"/>
<feGaussianBlur stdDeviation="40" result="effect1_foregroundBlur_275_3652"/>
</filter>
<filter id="filter22_f_275_3652" x="277" y="102" width="145" height="136.21" filterUnits="userSpaceOnUse" color-interpolation-filters="sRGB">
<feFlood flood-opacity="0" result="BackgroundImageFix"/>
<feBlend mode="normal" in="SourceGraphic" in2="BackgroundImageFix" result="shape"/>
<feGaussianBlur stdDeviation="20" result="effect1_foregroundBlur_275_3652"/>
</filter>
<filter id="filter23_f_275_3652" x="297" y="122" width="105" height="96.21" filterUnits="userSpaceOnUse" color-interpolation-filters="sRGB">
<feFlood flood-opacity="0" result="BackgroundImageFix"/>
<feBlend mode="normal" in="SourceGraphic" in2="BackgroundImageFix" result="shape"/>
<feGaussianBlur stdDeviation="10" result="effect1_foregroundBlur_275_3652"/>
</filter>
<filter id="filter24_f_275_3652" x="316.158" y="137.5" width="66.6836" height="60.2207" filterUnits="userSpaceOnUse" color-interpolation-filters="sRGB">
<feFlood flood-opacity="0" result="BackgroundImageFix"/>
<feBlend mode="normal" in="SourceGraphic" in2="BackgroundImageFix" result="shape"/>
<feGaussianBlur stdDeviation="2" result="effect1_foregroundBlur_275_3652"/>
</filter>
<filter id="filter25_f_275_3652" x="312.158" y="133.5" width="74.6836" height="68.2207" filterUnits="userSpaceOnUse" color-interpolation-filters="sRGB">
<feFlood flood-opacity="0" result="BackgroundImageFix"/>
<feBlend mode="normal" in="SourceGraphic" in2="BackgroundImageFix" result="shape"/>
<feGaussianBlur stdDeviation="4" result="effect1_foregroundBlur_275_3652"/>
</filter>
<filter id="filter26_f_275_3652" x="304.158" y="125.5" width="90.6836" height="84.2207" filterUnits="userSpaceOnUse" color-interpolation-filters="sRGB">
<feFlood flood-opacity="0" result="BackgroundImageFix"/>
<feBlend mode="normal" in="SourceGraphic" in2="BackgroundImageFix" result="shape"/>
<feGaussianBlur stdDeviation="8" result="effect1_foregroundBlur_275_3652"/>
</filter>
<filter id="filter27_f_275_3652" x="59" y="22" width="305" height="296.21" filterUnits="userSpaceOnUse" color-interpolation-filters="sRGB">
<feFlood flood-opacity="0" result="BackgroundImageFix"/>
<feBlend mode="normal" in="SourceGraphic" in2="BackgroundImageFix" result="shape"/>
<feGaussianBlur stdDeviation="60" result="effect1_foregroundBlur_275_3652"/>
</filter>
<filter id="filter28_f_275_3652" x="99" y="62" width="225" height="216.21" filterUnits="userSpaceOnUse" color-interpolation-filters="sRGB">
<feFlood flood-opacity="0" result="BackgroundImageFix"/>
<feBlend mode="normal" in="SourceGraphic" in2="BackgroundImageFix" result="shape"/>
<feGaussianBlur stdDeviation="40" result="effect1_foregroundBlur_275_3652"/>
</filter>
<filter id="filter29_f_275_3652" x="139" y="102" width="145" height="136.21" filterUnits="userSpaceOnUse" color-interpolation-filters="sRGB">
<feFlood flood-opacity="0" result="BackgroundImageFix"/>
<feBlend mode="normal" in="SourceGraphic" in2="BackgroundImageFix" result="shape"/>
<feGaussianBlur stdDeviation="20" result="effect1_foregroundBlur_275_3652"/>
</filter>
<filter id="filter30_f_275_3652" x="159" y="122" width="105" height="96.21" filterUnits="userSpaceOnUse" color-interpolation-filters="sRGB">
<feFlood flood-opacity="0" result="BackgroundImageFix"/>
<feBlend mode="normal" in="SourceGraphic" in2="BackgroundImageFix" result="shape"/>
<feGaussianBlur stdDeviation="10" result="effect1_foregroundBlur_275_3652"/>
</filter>
<filter id="filter31_f_275_3652" x="178.158" y="137.5" width="66.6836" height="60.2207" filterUnits="userSpaceOnUse" color-interpolation-filters="sRGB">
<feFlood flood-opacity="0" result="BackgroundImageFix"/>
<feBlend mode="normal" in="SourceGraphic" in2="BackgroundImageFix" result="shape"/>
<feGaussianBlur stdDeviation="2" result="effect1_foregroundBlur_275_3652"/>
</filter>
<filter id="filter32_f_275_3652" x="174.158" y="133.5" width="74.6836" height="68.2207" filterUnits="userSpaceOnUse" color-interpolation-filters="sRGB">
<feFlood flood-opacity="0" result="BackgroundImageFix"/>
<feBlend mode="normal" in="SourceGraphic" in2="BackgroundImageFix" result="shape"/>
<feGaussianBlur stdDeviation="4" result="effect1_foregroundBlur_275_3652"/>
</filter>
<filter id="filter33_f_275_3652" x="166.158" y="125.5" width="90.6836" height="84.2207" filterUnits="userSpaceOnUse" color-interpolation-filters="sRGB">
<feFlood flood-opacity="0" result="BackgroundImageFix"/>
<feBlend mode="normal" in="SourceGraphic" in2="BackgroundImageFix" result="shape"/>
<feGaussianBlur stdDeviation="8" result="effect1_foregroundBlur_275_3652"/>
</filter>
<linearGradient id="paint0_linear_275_3652" x1="280.5" y1="8" x2="280.5" y2="104" gradientUnits="userSpaceOnUse">
<stop stop-color="#7469EE" stop-opacity="0"/>
<stop offset="0.195" stop-color="#7469EE"/>
<stop offset="1" stop-color="#7469EE" stop-opacity="0"/>
</linearGradient>
<linearGradient id="paint1_linear_275_3652" x1="280.5" y1="8" x2="280.5" y2="104" gradientUnits="userSpaceOnUse">
<stop stop-color="#7469EE" stop-opacity="0"/>
<stop offset="0.195" stop-color="#7469EE"/>
<stop offset="1" stop-color="#7469EE" stop-opacity="0"/>
</linearGradient>
<linearGradient id="paint2_linear_275_3652" x1="280.5" y1="8" x2="280.5" y2="104" gradientUnits="userSpaceOnUse">
<stop stop-color="#7469EE" stop-opacity="0"/>
<stop offset="0.195" stop-color="#7469EE"/>
<stop offset="1" stop-color="#7469EE" stop-opacity="0"/>
</linearGradient>
<linearGradient id="paint3_linear_275_3652" x1="0" y1="0.5" x2="196" y2="0.5" gradientUnits="userSpaceOnUse">
<stop stop-color="#7469EE" stop-opacity="0"/>
<stop offset="0.195" stop-color="#7469EE"/>
<stop offset="1" stop-color="#7469EE" stop-opacity="0"/>
</linearGradient>
<linearGradient id="paint4_linear_275_3652" x1="0" y1="0.5" x2="196" y2="0.5" gradientUnits="userSpaceOnUse">
<stop stop-color="#7469EE" stop-opacity="0"/>
<stop offset="0.195" stop-color="#7469EE"/>
<stop offset="1" stop-color="#7469EE" stop-opacity="0"/>
</linearGradient>
<linearGradient id="paint5_linear_275_3652" x1="0" y1="0.5" x2="196" y2="0.5" gradientUnits="userSpaceOnUse">
<stop stop-color="#7469EE" stop-opacity="0"/>
<stop offset="0.195" stop-color="#7469EE"/>
<stop offset="1" stop-color="#7469EE" stop-opacity="0"/>
</linearGradient>
<linearGradient id="paint6_linear_275_3652" x1="0" y1="0.5" x2="196" y2="0.5" gradientUnits="userSpaceOnUse">
<stop stop-color="#7469EE" stop-opacity="0"/>
<stop offset="0.195" stop-color="#7469EE"/>
<stop offset="1" stop-color="#7469EE" stop-opacity="0"/>
</linearGradient>
<linearGradient id="paint7_linear_275_3652" x1="0" y1="0.5" x2="196" y2="0.5" gradientUnits="userSpaceOnUse">
<stop stop-color="#7469EE" stop-opacity="0"/>
<stop offset="0.195" stop-color="#7469EE"/>
<stop offset="1" stop-color="#7469EE" stop-opacity="0"/>
</linearGradient>
<linearGradient id="paint8_linear_275_3652" x1="0" y1="0.5" x2="196" y2="0.5" gradientUnits="userSpaceOnUse">
<stop stop-color="#7469EE" stop-opacity="0"/>
<stop offset="0.195" stop-color="#7469EE"/>
<stop offset="1" stop-color="#7469EE" stop-opacity="0"/>
</linearGradient>
<radialGradient id="paint9_radial_275_3652" cx="0" cy="0" r="1" gradientUnits="userSpaceOnUse" gradientTransform="translate(280.5 179.347) rotate(90) scale(55.7099 64.4264)">
<stop stop-color="#584DD9"/>
<stop offset="1" stop-color="#101010" stop-opacity="0"/>
</radialGradient>
<radialGradient id="paint10_radial_275_3652" cx="0" cy="0" r="1" gradientUnits="userSpaceOnUse" gradientTransform="translate(280.5 179.347) rotate(90) scale(55.7099 64.4264)">
<stop stop-color="#584DD9"/>
<stop offset="1" stop-color="#101010" stop-opacity="0"/>
</radialGradient>
<radialGradient id="paint11_radial_275_3652" cx="0" cy="0" r="1" gradientUnits="userSpaceOnUse" gradientTransform="translate(280.5 179.347) rotate(90) scale(55.7099 64.4264)">
<stop stop-color="#584DD9"/>
<stop offset="1" stop-color="#101010" stop-opacity="0"/>
</radialGradient>
<radialGradient id="paint12_radial_275_3652" cx="0" cy="0" r="1" gradientUnits="userSpaceOnUse" gradientTransform="translate(280.5 179.347) rotate(90) scale(55.7099 64.4264)">
<stop stop-color="#584DD9"/>
<stop offset="1" stop-color="#101010" stop-opacity="0"/>
</radialGradient>
<radialGradient id="paint13_radial_275_3652" cx="0" cy="0" r="1" gradientUnits="userSpaceOnUse" gradientTransform="translate(280.5 179.347) rotate(90) scale(55.7099 64.4264)">
<stop stop-color="#584DD9"/>
<stop offset="1" stop-color="#101010" stop-opacity="0"/>
</radialGradient>
<linearGradient id="paint14_linear_275_3652" x1="318.323" y1="190.691" x2="296.525" y2="151.96" gradientUnits="userSpaceOnUse">
<stop stop-color="#584DD9" stop-opacity="0"/>
<stop offset="0.5" stop-color="#584DD9"/>
<stop offset="1" stop-color="#584DD9" stop-opacity="0"/>
</linearGradient>
<linearGradient id="paint15_linear_275_3652" x1="318.323" y1="190.691" x2="296.525" y2="151.96" gradientUnits="userSpaceOnUse">
<stop stop-color="#584DD9" stop-opacity="0"/>
<stop offset="0.5" stop-color="#584DD9"/>
<stop offset="1" stop-color="#584DD9" stop-opacity="0"/>
</linearGradient>
<linearGradient id="paint16_linear_275_3652" x1="318.323" y1="190.691" x2="296.525" y2="151.96" gradientUnits="userSpaceOnUse">
<stop stop-color="#584DD9" stop-opacity="0"/>
<stop offset="0.5" stop-color="#584DD9"/>
<stop offset="1" stop-color="#584DD9" stop-opacity="0"/>
</linearGradient>
<linearGradient id="paint17_linear_275_3652" x1="318.323" y1="190.691" x2="296.525" y2="151.96" gradientUnits="userSpaceOnUse">
<stop stop-color="#584DD9" stop-opacity="0"/>
<stop offset="0.5" stop-color="#584DD9"/>
<stop offset="1" stop-color="#584DD9" stop-opacity="0"/>
</linearGradient>
<radialGradient id="paint18_radial_275_3652" cx="0" cy="0" r="1" gradientUnits="userSpaceOnUse" gradientTransform="translate(280.5 179.347) rotate(90) scale(55.7099 64.4264)">
<stop stop-color="#584DD9"/>
<stop offset="1" stop-color="#101010" stop-opacity="0"/>
</radialGradient>
<radialGradient id="paint19_radial_275_3652" cx="0" cy="0" r="1" gradientUnits="userSpaceOnUse" gradientTransform="translate(280.5 179.347) rotate(90) scale(55.7099 64.4264)">
<stop stop-color="#584DD9"/>
<stop offset="1" stop-color="#101010" stop-opacity="0"/>
</radialGradient>
<radialGradient id="paint20_radial_275_3652" cx="0" cy="0" r="1" gradientUnits="userSpaceOnUse" gradientTransform="translate(280.5 179.347) rotate(90) scale(55.7099 64.4264)">
<stop stop-color="#584DD9"/>
<stop offset="1" stop-color="#101010" stop-opacity="0"/>
</radialGradient>
<radialGradient id="paint21_radial_275_3652" cx="0" cy="0" r="1" gradientUnits="userSpaceOnUse" gradientTransform="translate(280.5 179.347) rotate(90) scale(55.7099 64.4264)">
<stop stop-color="#584DD9"/>
<stop offset="1" stop-color="#101010" stop-opacity="0"/>
</radialGradient>
<radialGradient id="paint22_radial_275_3652" cx="0" cy="0" r="1" gradientUnits="userSpaceOnUse" gradientTransform="translate(280.5 179.347) rotate(90) scale(55.7099 64.4264)">
<stop stop-color="#584DD9"/>
<stop offset="1" stop-color="#101010" stop-opacity="0"/>
</radialGradient>
<linearGradient id="paint23_linear_275_3652" x1="318.323" y1="190.691" x2="296.525" y2="151.96" gradientUnits="userSpaceOnUse">
<stop stop-color="#584DD9" stop-opacity="0"/>
<stop offset="0.5" stop-color="#584DD9"/>
<stop offset="1" stop-color="#584DD9" stop-opacity="0"/>
</linearGradient>
<linearGradient id="paint24_linear_275_3652" x1="318.323" y1="190.691" x2="296.525" y2="151.96" gradientUnits="userSpaceOnUse">
<stop stop-color="#584DD9" stop-opacity="0"/>
<stop offset="0.5" stop-color="#584DD9"/>
<stop offset="1" stop-color="#584DD9" stop-opacity="0"/>
</linearGradient>
<linearGradient id="paint25_linear_275_3652" x1="318.323" y1="190.691" x2="296.525" y2="151.96" gradientUnits="userSpaceOnUse">
<stop stop-color="#584DD9" stop-opacity="0"/>
<stop offset="0.5" stop-color="#584DD9"/>
<stop offset="1" stop-color="#584DD9" stop-opacity="0"/>
</linearGradient>
<linearGradient id="paint26_linear_275_3652" x1="318.323" y1="190.691" x2="296.525" y2="151.96" gradientUnits="userSpaceOnUse">
<stop stop-color="#584DD9" stop-opacity="0"/>
<stop offset="0.5" stop-color="#584DD9"/>
<stop offset="1" stop-color="#584DD9" stop-opacity="0"/>
</linearGradient>
<radialGradient id="paint27_radial_275_3652" cx="0" cy="0" r="1" gradientUnits="userSpaceOnUse" gradientTransform="translate(349.5 164.564) rotate(-90) scale(34.4896 39.883)">
<stop stop-color="#7469EE"/>
<stop offset="1" stop-color="#101010" stop-opacity="0"/>
</radialGradient>
<radialGradient id="paint28_radial_275_3652" cx="0" cy="0" r="1" gradientUnits="userSpaceOnUse" gradientTransform="translate(349.5 164.564) rotate(-90) scale(34.4896 39.883)">
<stop stop-color="#7469EE"/>
<stop offset="1" stop-color="#101010" stop-opacity="0"/>
</radialGradient>
<radialGradient id="paint29_radial_275_3652" cx="0" cy="0" r="1" gradientUnits="userSpaceOnUse" gradientTransform="translate(349.5 164.564) rotate(-90) scale(34.4896 39.883)">
<stop stop-color="#7469EE"/>
<stop offset="1" stop-color="#101010" stop-opacity="0"/>
</radialGradient>
<radialGradient id="paint30_radial_275_3652" cx="0" cy="0" r="1" gradientUnits="userSpaceOnUse" gradientTransform="translate(349.5 164.564) rotate(-90) scale(34.4896 39.883)">
<stop stop-color="#7469EE"/>
<stop offset="1" stop-color="#101010" stop-opacity="0"/>
</radialGradient>
<radialGradient id="paint31_radial_275_3652" cx="0" cy="0" r="1" gradientUnits="userSpaceOnUse" gradientTransform="translate(349.5 164.564) rotate(-90) scale(34.4896 39.883)">
<stop stop-color="#7469EE"/>
<stop offset="1" stop-color="#101010" stop-opacity="0"/>
</radialGradient>
<linearGradient id="paint32_linear_275_3652" x1="326.086" y1="157.541" x2="339.582" y2="181.519" gradientUnits="userSpaceOnUse">
<stop stop-color="#7469EE" stop-opacity="0"/>
<stop offset="0.5" stop-color="#7469EE"/>
<stop offset="1" stop-color="#7469EE" stop-opacity="0"/>
</linearGradient>
<linearGradient id="paint33_linear_275_3652" x1="326.086" y1="157.541" x2="339.582" y2="181.519" gradientUnits="userSpaceOnUse">
<stop stop-color="#7469EE" stop-opacity="0"/>
<stop offset="0.5" stop-color="#7469EE"/>
<stop offset="1" stop-color="#7469EE" stop-opacity="0"/>
</linearGradient>
<linearGradient id="paint34_linear_275_3652" x1="326.086" y1="157.541" x2="339.582" y2="181.519" gradientUnits="userSpaceOnUse">
<stop stop-color="#7469EE" stop-opacity="0"/>
<stop offset="0.5" stop-color="#7469EE"/>
<stop offset="1" stop-color="#7469EE" stop-opacity="0"/>
</linearGradient>
<linearGradient id="paint35_linear_275_3652" x1="326.086" y1="157.541" x2="339.582" y2="181.519" gradientUnits="userSpaceOnUse">
<stop stop-color="#7469EE" stop-opacity="0"/>
<stop offset="0.5" stop-color="#7469EE"/>
<stop offset="1" stop-color="#7469EE" stop-opacity="0"/>
</linearGradient>
<radialGradient id="paint36_radial_275_3652" cx="0" cy="0" r="1" gradientUnits="userSpaceOnUse" gradientTransform="translate(211.5 164.564) rotate(-90) scale(34.4896 39.883)">
<stop stop-color="#7469EE"/>
<stop offset="1" stop-color="#101010" stop-opacity="0"/>
</radialGradient>
<radialGradient id="paint37_radial_275_3652" cx="0" cy="0" r="1" gradientUnits="userSpaceOnUse" gradientTransform="translate(211.5 164.564) rotate(-90) scale(34.4896 39.883)">
<stop stop-color="#7469EE"/>
<stop offset="1" stop-color="#101010" stop-opacity="0"/>
</radialGradient>
<radialGradient id="paint38_radial_275_3652" cx="0" cy="0" r="1" gradientUnits="userSpaceOnUse" gradientTransform="translate(211.5 164.564) rotate(-90) scale(34.4896 39.883)">
<stop stop-color="#7469EE"/>
<stop offset="1" stop-color="#101010" stop-opacity="0"/>
</radialGradient>
<radialGradient id="paint39_radial_275_3652" cx="0" cy="0" r="1" gradientUnits="userSpaceOnUse" gradientTransform="translate(211.5 164.564) rotate(-90) scale(34.4896 39.883)">
<stop stop-color="#7469EE"/>
<stop offset="1" stop-color="#101010" stop-opacity="0"/>
</radialGradient>
<radialGradient id="paint40_radial_275_3652" cx="0" cy="0" r="1" gradientUnits="userSpaceOnUse" gradientTransform="translate(211.5 164.564) rotate(-90) scale(34.4896 39.883)">
<stop stop-color="#7469EE"/>
<stop offset="1" stop-color="#101010" stop-opacity="0"/>
</radialGradient>
<linearGradient id="paint41_linear_275_3652" x1="234.914" y1="157.541" x2="221.418" y2="181.519" gradientUnits="userSpaceOnUse">
<stop stop-color="#7469EE" stop-opacity="0"/>
<stop offset="0.5" stop-color="#7469EE"/>
<stop offset="1" stop-color="#7469EE" stop-opacity="0"/>
</linearGradient>
<linearGradient id="paint42_linear_275_3652" x1="234.914" y1="157.541" x2="221.418" y2="181.519" gradientUnits="userSpaceOnUse">
<stop stop-color="#7469EE" stop-opacity="0"/>
<stop offset="0.5" stop-color="#7469EE"/>
<stop offset="1" stop-color="#7469EE" stop-opacity="0"/>
</linearGradient>
<linearGradient id="paint43_linear_275_3652" x1="234.914" y1="157.541" x2="221.418" y2="181.519" gradientUnits="userSpaceOnUse">
<stop stop-color="#7469EE" stop-opacity="0"/>
<stop offset="0.5" stop-color="#7469EE"/>
<stop offset="1" stop-color="#7469EE" stop-opacity="0"/>
</linearGradient>
<linearGradient id="paint44_linear_275_3652" x1="234.914" y1="157.541" x2="221.418" y2="181.519" gradientUnits="userSpaceOnUse">
<stop stop-color="#7469EE" stop-opacity="0"/>
<stop offset="0.5" stop-color="#7469EE"/>
<stop offset="1" stop-color="#7469EE" stop-opacity="0"/>
</linearGradient>
</defs>
</svg>
