<svg width="912" height="336" viewBox="0 0 912 336" fill="none" xmlns="http://www.w3.org/2000/svg">
<line x1="456.5" y1="8" x2="456.5" y2="104" stroke="url(#paint0_linear_204_1544)"/>
<g style="mix-blend-mode:plus-lighter" filter="url(#filter0_f_204_1544)">
<line x1="456.5" y1="8" x2="456.5" y2="104" stroke="url(#paint1_linear_204_1544)"/>
</g>
<g style="mix-blend-mode:plus-lighter" filter="url(#filter1_f_204_1544)">
<line x1="456.5" y1="8" x2="456.5" y2="104" stroke="url(#paint2_linear_204_1544)"/>
</g>
<g opacity="0.4">
<line y1="-0.5" x2="352" y2="-0.5" transform="matrix(1 -2.84091e-07 -6.72584e-09 -1 552 216)" stroke="url(#paint3_linear_204_1544)"/>
<g style="mix-blend-mode:plus-lighter" filter="url(#filter2_f_204_1544)">
<line y1="-0.5" x2="352" y2="-0.5" transform="matrix(1 -2.84091e-07 -6.72584e-09 -1 552 216)" stroke="url(#paint4_linear_204_1544)"/>
</g>
<g style="mix-blend-mode:plus-lighter" filter="url(#filter3_f_204_1544)">
<line y1="-0.5" x2="352" y2="-0.5" transform="matrix(1 -2.84091e-07 -6.72584e-09 -1 552 216)" stroke="url(#paint5_linear_204_1544)"/>
</g>
</g>
<g opacity="0.4">
<line x1="360" y1="216.5" x2="8" y2="216.5" stroke="url(#paint6_linear_204_1544)"/>
<g style="mix-blend-mode:plus-lighter" filter="url(#filter4_f_204_1544)">
<line x1="360" y1="216.5" x2="8" y2="216.5" stroke="url(#paint7_linear_204_1544)"/>
</g>
<g style="mix-blend-mode:plus-lighter" filter="url(#filter5_f_204_1544)">
<line x1="360" y1="216.5" x2="8" y2="216.5" stroke="url(#paint8_linear_204_1544)"/>
</g>
</g>
<g opacity="0.7">
<g filter="url(#filter6_f_204_1544)">
<path d="M403 215.794H508L455.5 125L403 215.794Z" fill="url(#paint9_radial_204_1544)"/>
</g>
<g style="mix-blend-mode:plus-lighter" filter="url(#filter7_f_204_1544)">
<path d="M403 215.794H508L455.5 125L403 215.794Z" fill="url(#paint10_radial_204_1544)"/>
</g>
<g style="mix-blend-mode:plus-lighter" filter="url(#filter8_f_204_1544)">
<path d="M403 215.794H508L455.5 125L403 215.794Z" fill="url(#paint11_radial_204_1544)"/>
</g>
<g style="mix-blend-mode:lighten" filter="url(#filter9_f_204_1544)">
<path d="M403 215.794H508L455.5 125L403 215.794Z" fill="url(#paint12_radial_204_1544)"/>
</g>
</g>
<g style="mix-blend-mode:lighten">
<path d="M411.667 215.794H499.333C503.184 215.794 505.589 211.625 503.662 208.291L459.828 132.486C457.903 129.156 453.097 129.156 451.172 132.486L407.338 208.291C405.411 211.625 407.816 215.794 411.667 215.794Z" fill="url(#paint13_radial_204_1544)"/>
</g>
<path style="mix-blend-mode:plus-lighter" d="M411.667 215.794H499.333C503.184 215.794 505.589 211.625 503.662 208.291L459.828 132.486C457.903 129.156 453.097 129.156 451.172 132.486L407.338 208.291C405.411 211.625 407.816 215.794 411.667 215.794Z" stroke="url(#paint14_linear_204_1544)" stroke-opacity="0.4"/>
<g style="mix-blend-mode:plus-lighter" filter="url(#filter10_f_204_1544)">
<path d="M411.667 215.794H499.333C503.184 215.794 505.589 211.625 503.662 208.291L459.828 132.486C457.903 129.156 453.097 129.156 451.172 132.486L407.338 208.291C405.411 211.625 407.816 215.794 411.667 215.794Z" stroke="url(#paint15_linear_204_1544)" stroke-opacity="0.4" style="mix-blend-mode:plus-lighter"/>
</g>
<g style="mix-blend-mode:plus-lighter" filter="url(#filter11_f_204_1544)">
<path d="M411.667 215.794H499.333C503.184 215.794 505.589 211.625 503.662 208.291L459.828 132.486C457.903 129.156 453.097 129.156 451.172 132.486L407.338 208.291C405.411 211.625 407.816 215.794 411.667 215.794Z" stroke="url(#paint16_linear_204_1544)" stroke-opacity="0.4" style="mix-blend-mode:plus-lighter"/>
</g>
<g style="mix-blend-mode:plus-lighter" filter="url(#filter12_f_204_1544)">
<path d="M411.667 215.794H499.333C503.184 215.794 505.589 211.625 503.662 208.291L459.828 132.486C457.903 129.156 453.097 129.156 451.172 132.486L407.338 208.291C405.411 211.625 407.816 215.794 411.667 215.794Z" stroke="url(#paint17_linear_204_1544)" stroke-opacity="0.4" style="mix-blend-mode:plus-lighter"/>
</g>
<g opacity="0.7">
<g filter="url(#filter13_f_204_1544)">
<path d="M403 215.794H508L455.5 125L403 215.794Z" fill="url(#paint18_radial_204_1544)"/>
</g>
<g style="mix-blend-mode:plus-lighter" filter="url(#filter14_f_204_1544)">
<path d="M403 215.794H508L455.5 125L403 215.794Z" fill="url(#paint19_radial_204_1544)"/>
</g>
<g style="mix-blend-mode:plus-lighter" filter="url(#filter15_f_204_1544)">
<path d="M403 215.794H508L455.5 125L403 215.794Z" fill="url(#paint20_radial_204_1544)"/>
</g>
<g style="mix-blend-mode:lighten" filter="url(#filter16_f_204_1544)">
<path d="M403 215.794H508L455.5 125L403 215.794Z" fill="url(#paint21_radial_204_1544)"/>
</g>
</g>
<g style="mix-blend-mode:lighten">
<path d="M411.667 215.794H499.333C503.184 215.794 505.589 211.625 503.662 208.291L459.828 132.486C457.903 129.156 453.097 129.156 451.172 132.486L407.338 208.291C405.411 211.625 407.816 215.794 411.667 215.794Z" fill="url(#paint22_radial_204_1544)"/>
</g>
<path style="mix-blend-mode:plus-lighter" d="M411.667 215.794H499.333C503.184 215.794 505.589 211.625 503.662 208.291L459.828 132.486C457.903 129.156 453.097 129.156 451.172 132.486L407.338 208.291C405.411 211.625 407.816 215.794 411.667 215.794Z" stroke="url(#paint23_linear_204_1544)" stroke-opacity="0.4"/>
<g style="mix-blend-mode:plus-lighter" filter="url(#filter17_f_204_1544)">
<path d="M411.667 215.794H499.333C503.184 215.794 505.589 211.625 503.662 208.291L459.828 132.486C457.903 129.156 453.097 129.156 451.172 132.486L407.338 208.291C405.411 211.625 407.816 215.794 411.667 215.794Z" stroke="url(#paint24_linear_204_1544)" stroke-opacity="0.4" style="mix-blend-mode:plus-lighter"/>
</g>
<g style="mix-blend-mode:plus-lighter" filter="url(#filter18_f_204_1544)">
<path d="M411.667 215.794H499.333C503.184 215.794 505.589 211.625 503.662 208.291L459.828 132.486C457.903 129.156 453.097 129.156 451.172 132.486L407.338 208.291C405.411 211.625 407.816 215.794 411.667 215.794Z" stroke="url(#paint25_linear_204_1544)" stroke-opacity="0.4" style="mix-blend-mode:plus-lighter"/>
</g>
<g style="mix-blend-mode:plus-lighter" filter="url(#filter19_f_204_1544)">
<path d="M411.667 215.794H499.333C503.184 215.794 505.589 211.625 503.662 208.291L459.828 132.486C457.903 129.156 453.097 129.156 451.172 132.486L407.338 208.291C405.411 211.625 407.816 215.794 411.667 215.794Z" stroke="url(#paint26_linear_204_1544)" stroke-opacity="0.4" style="mix-blend-mode:plus-lighter"/>
</g>
<g opacity="0.4">
<g opacity="0.7">
<g filter="url(#filter20_f_204_1544)">
<path d="M557 142H492L524.5 198.21L557 142Z" fill="url(#paint27_radial_204_1544)"/>
</g>
<g style="mix-blend-mode:plus-lighter" filter="url(#filter21_f_204_1544)">
<path d="M557 142H492L524.5 198.21L557 142Z" fill="url(#paint28_radial_204_1544)"/>
</g>
<g style="mix-blend-mode:plus-lighter" filter="url(#filter22_f_204_1544)">
<path d="M557 142H492L524.5 198.21L557 142Z" fill="url(#paint29_radial_204_1544)"/>
</g>
<g style="mix-blend-mode:lighten" filter="url(#filter23_f_204_1544)">
<path d="M557 142H492L524.5 198.21L557 142Z" fill="url(#paint30_radial_204_1544)"/>
</g>
</g>
<g style="mix-blend-mode:lighten">
<path d="M548.333 142H500.667C496.816 142 494.411 146.169 496.338 149.503L520.171 190.724C522.097 194.053 526.903 194.053 528.829 190.724L552.662 149.503C554.589 146.169 552.184 142 548.333 142Z" fill="url(#paint31_radial_204_1544)"/>
</g>
<path style="mix-blend-mode:plus-lighter" d="M548.333 142H500.667C496.816 142 494.411 146.169 496.338 149.503L520.171 190.724C522.097 194.053 526.903 194.053 528.829 190.724L552.662 149.503C554.589 146.169 552.184 142 548.333 142Z" stroke="url(#paint32_linear_204_1544)" stroke-opacity="0.4"/>
<g style="mix-blend-mode:plus-lighter" filter="url(#filter24_f_204_1544)">
<path d="M548.333 142H500.667C496.816 142 494.411 146.169 496.338 149.503L520.171 190.724C522.097 194.053 526.903 194.053 528.829 190.724L552.662 149.503C554.589 146.169 552.184 142 548.333 142Z" stroke="url(#paint33_linear_204_1544)" stroke-opacity="0.4" style="mix-blend-mode:plus-lighter"/>
</g>
<g style="mix-blend-mode:plus-lighter" filter="url(#filter25_f_204_1544)">
<path d="M548.333 142H500.667C496.816 142 494.411 146.169 496.338 149.503L520.171 190.724C522.097 194.053 526.903 194.053 528.829 190.724L552.662 149.503C554.589 146.169 552.184 142 548.333 142Z" stroke="url(#paint34_linear_204_1544)" stroke-opacity="0.4" style="mix-blend-mode:plus-lighter"/>
</g>
<g style="mix-blend-mode:plus-lighter" filter="url(#filter26_f_204_1544)">
<path d="M548.333 142H500.667C496.816 142 494.411 146.169 496.338 149.503L520.171 190.724C522.097 194.053 526.903 194.053 528.829 190.724L552.662 149.503C554.589 146.169 552.184 142 548.333 142Z" stroke="url(#paint35_linear_204_1544)" stroke-opacity="0.4" style="mix-blend-mode:plus-lighter"/>
</g>
</g>
<g opacity="0.4">
<g opacity="0.7">
<g filter="url(#filter27_f_204_1544)">
<path d="M354 142H419L386.5 198.21L354 142Z" fill="url(#paint36_radial_204_1544)"/>
</g>
<g style="mix-blend-mode:plus-lighter" filter="url(#filter28_f_204_1544)">
<path d="M354 142H419L386.5 198.21L354 142Z" fill="url(#paint37_radial_204_1544)"/>
</g>
<g style="mix-blend-mode:plus-lighter" filter="url(#filter29_f_204_1544)">
<path d="M354 142H419L386.5 198.21L354 142Z" fill="url(#paint38_radial_204_1544)"/>
</g>
<g style="mix-blend-mode:lighten" filter="url(#filter30_f_204_1544)">
<path d="M354 142H419L386.5 198.21L354 142Z" fill="url(#paint39_radial_204_1544)"/>
</g>
</g>
<g style="mix-blend-mode:lighten">
<path d="M362.667 142H410.333C414.184 142 416.589 146.169 414.662 149.503L390.829 190.724C388.903 194.053 384.097 194.053 382.171 190.724L358.338 149.503C356.411 146.169 358.816 142 362.667 142Z" fill="url(#paint40_radial_204_1544)"/>
</g>
<path style="mix-blend-mode:plus-lighter" d="M362.667 142H410.333C414.184 142 416.589 146.169 414.662 149.503L390.829 190.724C388.903 194.053 384.097 194.053 382.171 190.724L358.338 149.503C356.411 146.169 358.816 142 362.667 142Z" stroke="url(#paint41_linear_204_1544)" stroke-opacity="0.4"/>
<g style="mix-blend-mode:plus-lighter" filter="url(#filter31_f_204_1544)">
<path d="M362.667 142H410.333C414.184 142 416.589 146.169 414.662 149.503L390.829 190.724C388.903 194.053 384.097 194.053 382.171 190.724L358.338 149.503C356.411 146.169 358.816 142 362.667 142Z" stroke="url(#paint42_linear_204_1544)" stroke-opacity="0.4" style="mix-blend-mode:plus-lighter"/>
</g>
<g style="mix-blend-mode:plus-lighter" filter="url(#filter32_f_204_1544)">
<path d="M362.667 142H410.333C414.184 142 416.589 146.169 414.662 149.503L390.829 190.724C388.903 194.053 384.097 194.053 382.171 190.724L358.338 149.503C356.411 146.169 358.816 142 362.667 142Z" stroke="url(#paint43_linear_204_1544)" stroke-opacity="0.4" style="mix-blend-mode:plus-lighter"/>
</g>
<g style="mix-blend-mode:plus-lighter" filter="url(#filter33_f_204_1544)">
<path d="M362.667 142H410.333C414.184 142 416.589 146.169 414.662 149.503L390.829 190.724C388.903 194.053 384.097 194.053 382.171 190.724L358.338 149.503C356.411 146.169 358.816 142 362.667 142Z" stroke="url(#paint44_linear_204_1544)" stroke-opacity="0.4" style="mix-blend-mode:plus-lighter"/>
</g>
</g>
<defs>
<filter id="filter0_f_204_1544" x="452" y="4" width="9" height="104" filterUnits="userSpaceOnUse" color-interpolation-filters="sRGB">
<feFlood flood-opacity="0" result="BackgroundImageFix"/>
<feBlend mode="normal" in="SourceGraphic" in2="BackgroundImageFix" result="shape"/>
<feGaussianBlur stdDeviation="2" result="effect1_foregroundBlur_204_1544"/>
</filter>
<filter id="filter1_f_204_1544" x="448" y="0" width="17" height="112" filterUnits="userSpaceOnUse" color-interpolation-filters="sRGB">
<feFlood flood-opacity="0" result="BackgroundImageFix"/>
<feBlend mode="normal" in="SourceGraphic" in2="BackgroundImageFix" result="shape"/>
<feGaussianBlur stdDeviation="4" result="effect1_foregroundBlur_204_1544"/>
</filter>
<filter id="filter2_f_204_1544" x="548" y="212" width="360" height="9" filterUnits="userSpaceOnUse" color-interpolation-filters="sRGB">
<feFlood flood-opacity="0" result="BackgroundImageFix"/>
<feBlend mode="normal" in="SourceGraphic" in2="BackgroundImageFix" result="shape"/>
<feGaussianBlur stdDeviation="2" result="effect1_foregroundBlur_204_1544"/>
</filter>
<filter id="filter3_f_204_1544" x="544" y="208" width="368" height="17" filterUnits="userSpaceOnUse" color-interpolation-filters="sRGB">
<feFlood flood-opacity="0" result="BackgroundImageFix"/>
<feBlend mode="normal" in="SourceGraphic" in2="BackgroundImageFix" result="shape"/>
<feGaussianBlur stdDeviation="4" result="effect1_foregroundBlur_204_1544"/>
</filter>
<filter id="filter4_f_204_1544" x="4" y="212" width="360" height="9" filterUnits="userSpaceOnUse" color-interpolation-filters="sRGB">
<feFlood flood-opacity="0" result="BackgroundImageFix"/>
<feBlend mode="normal" in="SourceGraphic" in2="BackgroundImageFix" result="shape"/>
<feGaussianBlur stdDeviation="2" result="effect1_foregroundBlur_204_1544"/>
</filter>
<filter id="filter5_f_204_1544" x="0" y="208" width="368" height="17" filterUnits="userSpaceOnUse" color-interpolation-filters="sRGB">
<feFlood flood-opacity="0" result="BackgroundImageFix"/>
<feBlend mode="normal" in="SourceGraphic" in2="BackgroundImageFix" result="shape"/>
<feGaussianBlur stdDeviation="4" result="effect1_foregroundBlur_204_1544"/>
</filter>
<filter id="filter6_f_204_1544" x="283" y="5" width="345" height="330.794" filterUnits="userSpaceOnUse" color-interpolation-filters="sRGB">
<feFlood flood-opacity="0" result="BackgroundImageFix"/>
<feBlend mode="normal" in="SourceGraphic" in2="BackgroundImageFix" result="shape"/>
<feGaussianBlur stdDeviation="60" result="effect1_foregroundBlur_204_1544"/>
</filter>
<filter id="filter7_f_204_1544" x="323" y="45" width="265" height="250.794" filterUnits="userSpaceOnUse" color-interpolation-filters="sRGB">
<feFlood flood-opacity="0" result="BackgroundImageFix"/>
<feBlend mode="normal" in="SourceGraphic" in2="BackgroundImageFix" result="shape"/>
<feGaussianBlur stdDeviation="40" result="effect1_foregroundBlur_204_1544"/>
</filter>
<filter id="filter8_f_204_1544" x="363" y="85" width="185" height="170.794" filterUnits="userSpaceOnUse" color-interpolation-filters="sRGB">
<feFlood flood-opacity="0" result="BackgroundImageFix"/>
<feBlend mode="normal" in="SourceGraphic" in2="BackgroundImageFix" result="shape"/>
<feGaussianBlur stdDeviation="20" result="effect1_foregroundBlur_204_1544"/>
</filter>
<filter id="filter9_f_204_1544" x="383" y="105" width="145" height="130.794" filterUnits="userSpaceOnUse" color-interpolation-filters="sRGB">
<feFlood flood-opacity="0" result="BackgroundImageFix"/>
<feBlend mode="normal" in="SourceGraphic" in2="BackgroundImageFix" result="shape"/>
<feGaussianBlur stdDeviation="10" result="effect1_foregroundBlur_204_1544"/>
</filter>
<filter id="filter10_f_204_1544" x="402.158" y="125.489" width="106.684" height="94.8057" filterUnits="userSpaceOnUse" color-interpolation-filters="sRGB">
<feFlood flood-opacity="0" result="BackgroundImageFix"/>
<feBlend mode="normal" in="SourceGraphic" in2="BackgroundImageFix" result="shape"/>
<feGaussianBlur stdDeviation="2" result="effect1_foregroundBlur_204_1544"/>
</filter>
<filter id="filter11_f_204_1544" x="398.158" y="121.489" width="114.684" height="102.806" filterUnits="userSpaceOnUse" color-interpolation-filters="sRGB">
<feFlood flood-opacity="0" result="BackgroundImageFix"/>
<feBlend mode="normal" in="SourceGraphic" in2="BackgroundImageFix" result="shape"/>
<feGaussianBlur stdDeviation="4" result="effect1_foregroundBlur_204_1544"/>
</filter>
<filter id="filter12_f_204_1544" x="390.158" y="113.489" width="130.684" height="118.806" filterUnits="userSpaceOnUse" color-interpolation-filters="sRGB">
<feFlood flood-opacity="0" result="BackgroundImageFix"/>
<feBlend mode="normal" in="SourceGraphic" in2="BackgroundImageFix" result="shape"/>
<feGaussianBlur stdDeviation="8" result="effect1_foregroundBlur_204_1544"/>
</filter>
<filter id="filter13_f_204_1544" x="283" y="5" width="345" height="330.794" filterUnits="userSpaceOnUse" color-interpolation-filters="sRGB">
<feFlood flood-opacity="0" result="BackgroundImageFix"/>
<feBlend mode="normal" in="SourceGraphic" in2="BackgroundImageFix" result="shape"/>
<feGaussianBlur stdDeviation="60" result="effect1_foregroundBlur_204_1544"/>
</filter>
<filter id="filter14_f_204_1544" x="323" y="45" width="265" height="250.794" filterUnits="userSpaceOnUse" color-interpolation-filters="sRGB">
<feFlood flood-opacity="0" result="BackgroundImageFix"/>
<feBlend mode="normal" in="SourceGraphic" in2="BackgroundImageFix" result="shape"/>
<feGaussianBlur stdDeviation="40" result="effect1_foregroundBlur_204_1544"/>
</filter>
<filter id="filter15_f_204_1544" x="363" y="85" width="185" height="170.794" filterUnits="userSpaceOnUse" color-interpolation-filters="sRGB">
<feFlood flood-opacity="0" result="BackgroundImageFix"/>
<feBlend mode="normal" in="SourceGraphic" in2="BackgroundImageFix" result="shape"/>
<feGaussianBlur stdDeviation="20" result="effect1_foregroundBlur_204_1544"/>
</filter>
<filter id="filter16_f_204_1544" x="383" y="105" width="145" height="130.794" filterUnits="userSpaceOnUse" color-interpolation-filters="sRGB">
<feFlood flood-opacity="0" result="BackgroundImageFix"/>
<feBlend mode="normal" in="SourceGraphic" in2="BackgroundImageFix" result="shape"/>
<feGaussianBlur stdDeviation="10" result="effect1_foregroundBlur_204_1544"/>
</filter>
<filter id="filter17_f_204_1544" x="402.158" y="125.489" width="106.684" height="94.8057" filterUnits="userSpaceOnUse" color-interpolation-filters="sRGB">
<feFlood flood-opacity="0" result="BackgroundImageFix"/>
<feBlend mode="normal" in="SourceGraphic" in2="BackgroundImageFix" result="shape"/>
<feGaussianBlur stdDeviation="2" result="effect1_foregroundBlur_204_1544"/>
</filter>
<filter id="filter18_f_204_1544" x="398.158" y="121.489" width="114.684" height="102.806" filterUnits="userSpaceOnUse" color-interpolation-filters="sRGB">
<feFlood flood-opacity="0" result="BackgroundImageFix"/>
<feBlend mode="normal" in="SourceGraphic" in2="BackgroundImageFix" result="shape"/>
<feGaussianBlur stdDeviation="4" result="effect1_foregroundBlur_204_1544"/>
</filter>
<filter id="filter19_f_204_1544" x="390.158" y="113.489" width="130.684" height="118.806" filterUnits="userSpaceOnUse" color-interpolation-filters="sRGB">
<feFlood flood-opacity="0" result="BackgroundImageFix"/>
<feBlend mode="normal" in="SourceGraphic" in2="BackgroundImageFix" result="shape"/>
<feGaussianBlur stdDeviation="8" result="effect1_foregroundBlur_204_1544"/>
</filter>
<filter id="filter20_f_204_1544" x="372" y="22" width="305" height="296.21" filterUnits="userSpaceOnUse" color-interpolation-filters="sRGB">
<feFlood flood-opacity="0" result="BackgroundImageFix"/>
<feBlend mode="normal" in="SourceGraphic" in2="BackgroundImageFix" result="shape"/>
<feGaussianBlur stdDeviation="60" result="effect1_foregroundBlur_204_1544"/>
</filter>
<filter id="filter21_f_204_1544" x="412" y="62" width="225" height="216.21" filterUnits="userSpaceOnUse" color-interpolation-filters="sRGB">
<feFlood flood-opacity="0" result="BackgroundImageFix"/>
<feBlend mode="normal" in="SourceGraphic" in2="BackgroundImageFix" result="shape"/>
<feGaussianBlur stdDeviation="40" result="effect1_foregroundBlur_204_1544"/>
</filter>
<filter id="filter22_f_204_1544" x="452" y="102" width="145" height="136.21" filterUnits="userSpaceOnUse" color-interpolation-filters="sRGB">
<feFlood flood-opacity="0" result="BackgroundImageFix"/>
<feBlend mode="normal" in="SourceGraphic" in2="BackgroundImageFix" result="shape"/>
<feGaussianBlur stdDeviation="20" result="effect1_foregroundBlur_204_1544"/>
</filter>
<filter id="filter23_f_204_1544" x="472" y="122" width="105" height="96.21" filterUnits="userSpaceOnUse" color-interpolation-filters="sRGB">
<feFlood flood-opacity="0" result="BackgroundImageFix"/>
<feBlend mode="normal" in="SourceGraphic" in2="BackgroundImageFix" result="shape"/>
<feGaussianBlur stdDeviation="10" result="effect1_foregroundBlur_204_1544"/>
</filter>
<filter id="filter24_f_204_1544" x="491.158" y="137.5" width="66.6836" height="60.2209" filterUnits="userSpaceOnUse" color-interpolation-filters="sRGB">
<feFlood flood-opacity="0" result="BackgroundImageFix"/>
<feBlend mode="normal" in="SourceGraphic" in2="BackgroundImageFix" result="shape"/>
<feGaussianBlur stdDeviation="2" result="effect1_foregroundBlur_204_1544"/>
</filter>
<filter id="filter25_f_204_1544" x="487.158" y="133.5" width="74.6836" height="68.2209" filterUnits="userSpaceOnUse" color-interpolation-filters="sRGB">
<feFlood flood-opacity="0" result="BackgroundImageFix"/>
<feBlend mode="normal" in="SourceGraphic" in2="BackgroundImageFix" result="shape"/>
<feGaussianBlur stdDeviation="4" result="effect1_foregroundBlur_204_1544"/>
</filter>
<filter id="filter26_f_204_1544" x="479.158" y="125.5" width="90.6836" height="84.2209" filterUnits="userSpaceOnUse" color-interpolation-filters="sRGB">
<feFlood flood-opacity="0" result="BackgroundImageFix"/>
<feBlend mode="normal" in="SourceGraphic" in2="BackgroundImageFix" result="shape"/>
<feGaussianBlur stdDeviation="8" result="effect1_foregroundBlur_204_1544"/>
</filter>
<filter id="filter27_f_204_1544" x="234" y="22" width="305" height="296.21" filterUnits="userSpaceOnUse" color-interpolation-filters="sRGB">
<feFlood flood-opacity="0" result="BackgroundImageFix"/>
<feBlend mode="normal" in="SourceGraphic" in2="BackgroundImageFix" result="shape"/>
<feGaussianBlur stdDeviation="60" result="effect1_foregroundBlur_204_1544"/>
</filter>
<filter id="filter28_f_204_1544" x="274" y="62" width="225" height="216.21" filterUnits="userSpaceOnUse" color-interpolation-filters="sRGB">
<feFlood flood-opacity="0" result="BackgroundImageFix"/>
<feBlend mode="normal" in="SourceGraphic" in2="BackgroundImageFix" result="shape"/>
<feGaussianBlur stdDeviation="40" result="effect1_foregroundBlur_204_1544"/>
</filter>
<filter id="filter29_f_204_1544" x="314" y="102" width="145" height="136.21" filterUnits="userSpaceOnUse" color-interpolation-filters="sRGB">
<feFlood flood-opacity="0" result="BackgroundImageFix"/>
<feBlend mode="normal" in="SourceGraphic" in2="BackgroundImageFix" result="shape"/>
<feGaussianBlur stdDeviation="20" result="effect1_foregroundBlur_204_1544"/>
</filter>
<filter id="filter30_f_204_1544" x="334" y="122" width="105" height="96.21" filterUnits="userSpaceOnUse" color-interpolation-filters="sRGB">
<feFlood flood-opacity="0" result="BackgroundImageFix"/>
<feBlend mode="normal" in="SourceGraphic" in2="BackgroundImageFix" result="shape"/>
<feGaussianBlur stdDeviation="10" result="effect1_foregroundBlur_204_1544"/>
</filter>
<filter id="filter31_f_204_1544" x="353.158" y="137.5" width="66.6836" height="60.2209" filterUnits="userSpaceOnUse" color-interpolation-filters="sRGB">
<feFlood flood-opacity="0" result="BackgroundImageFix"/>
<feBlend mode="normal" in="SourceGraphic" in2="BackgroundImageFix" result="shape"/>
<feGaussianBlur stdDeviation="2" result="effect1_foregroundBlur_204_1544"/>
</filter>
<filter id="filter32_f_204_1544" x="349.158" y="133.5" width="74.6836" height="68.2209" filterUnits="userSpaceOnUse" color-interpolation-filters="sRGB">
<feFlood flood-opacity="0" result="BackgroundImageFix"/>
<feBlend mode="normal" in="SourceGraphic" in2="BackgroundImageFix" result="shape"/>
<feGaussianBlur stdDeviation="4" result="effect1_foregroundBlur_204_1544"/>
</filter>
<filter id="filter33_f_204_1544" x="341.158" y="125.5" width="90.6836" height="84.2209" filterUnits="userSpaceOnUse" color-interpolation-filters="sRGB">
<feFlood flood-opacity="0" result="BackgroundImageFix"/>
<feBlend mode="normal" in="SourceGraphic" in2="BackgroundImageFix" result="shape"/>
<feGaussianBlur stdDeviation="8" result="effect1_foregroundBlur_204_1544"/>
</filter>
<linearGradient id="paint0_linear_204_1544" x1="455.5" y1="8" x2="455.5" y2="104" gradientUnits="userSpaceOnUse">
<stop stop-color="#7469EE" stop-opacity="0"/>
<stop offset="0.195" stop-color="#7469EE"/>
<stop offset="1" stop-color="#7469EE" stop-opacity="0"/>
</linearGradient>
<linearGradient id="paint1_linear_204_1544" x1="455.5" y1="8" x2="455.5" y2="104" gradientUnits="userSpaceOnUse">
<stop stop-color="#7469EE" stop-opacity="0"/>
<stop offset="0.195" stop-color="#7469EE"/>
<stop offset="1" stop-color="#7469EE" stop-opacity="0"/>
</linearGradient>
<linearGradient id="paint2_linear_204_1544" x1="455.5" y1="8" x2="455.5" y2="104" gradientUnits="userSpaceOnUse">
<stop stop-color="#7469EE" stop-opacity="0"/>
<stop offset="0.195" stop-color="#7469EE"/>
<stop offset="1" stop-color="#7469EE" stop-opacity="0"/>
</linearGradient>
<linearGradient id="paint3_linear_204_1544" x1="0" y1="0.5" x2="352" y2="0.5" gradientUnits="userSpaceOnUse">
<stop stop-color="#7469EE" stop-opacity="0"/>
<stop offset="0.195" stop-color="#7469EE"/>
<stop offset="1" stop-color="#7469EE" stop-opacity="0"/>
</linearGradient>
<linearGradient id="paint4_linear_204_1544" x1="0" y1="0.5" x2="352" y2="0.5" gradientUnits="userSpaceOnUse">
<stop stop-color="#7469EE" stop-opacity="0"/>
<stop offset="0.195" stop-color="#7469EE"/>
<stop offset="1" stop-color="#7469EE" stop-opacity="0"/>
</linearGradient>
<linearGradient id="paint5_linear_204_1544" x1="0" y1="0.5" x2="352" y2="0.5" gradientUnits="userSpaceOnUse">
<stop stop-color="#7469EE" stop-opacity="0"/>
<stop offset="0.195" stop-color="#7469EE"/>
<stop offset="1" stop-color="#7469EE" stop-opacity="0"/>
</linearGradient>
<linearGradient id="paint6_linear_204_1544" x1="360" y1="215.5" x2="8" y2="215.5" gradientUnits="userSpaceOnUse">
<stop stop-color="#7469EE" stop-opacity="0"/>
<stop offset="0.195" stop-color="#7469EE"/>
<stop offset="1" stop-color="#7469EE" stop-opacity="0"/>
</linearGradient>
<linearGradient id="paint7_linear_204_1544" x1="360" y1="215.5" x2="8" y2="215.5" gradientUnits="userSpaceOnUse">
<stop stop-color="#7469EE" stop-opacity="0"/>
<stop offset="0.195" stop-color="#7469EE"/>
<stop offset="1" stop-color="#7469EE" stop-opacity="0"/>
</linearGradient>
<linearGradient id="paint8_linear_204_1544" x1="360" y1="215.5" x2="8" y2="215.5" gradientUnits="userSpaceOnUse">
<stop stop-color="#7469EE" stop-opacity="0"/>
<stop offset="0.195" stop-color="#7469EE"/>
<stop offset="1" stop-color="#7469EE" stop-opacity="0"/>
</linearGradient>
<radialGradient id="paint9_radial_204_1544" cx="0" cy="0" r="1" gradientUnits="userSpaceOnUse" gradientTransform="translate(455.5 179.347) rotate(90) scale(55.7099 64.4264)">
<stop stop-color="#584DD9"/>
<stop offset="1" stop-color="#101010" stop-opacity="0"/>
</radialGradient>
<radialGradient id="paint10_radial_204_1544" cx="0" cy="0" r="1" gradientUnits="userSpaceOnUse" gradientTransform="translate(455.5 179.347) rotate(90) scale(55.7099 64.4264)">
<stop stop-color="#584DD9"/>
<stop offset="1" stop-color="#101010" stop-opacity="0"/>
</radialGradient>
<radialGradient id="paint11_radial_204_1544" cx="0" cy="0" r="1" gradientUnits="userSpaceOnUse" gradientTransform="translate(455.5 179.347) rotate(90) scale(55.7099 64.4264)">
<stop stop-color="#584DD9"/>
<stop offset="1" stop-color="#101010" stop-opacity="0"/>
</radialGradient>
<radialGradient id="paint12_radial_204_1544" cx="0" cy="0" r="1" gradientUnits="userSpaceOnUse" gradientTransform="translate(455.5 179.347) rotate(90) scale(55.7099 64.4264)">
<stop stop-color="#584DD9"/>
<stop offset="1" stop-color="#101010" stop-opacity="0"/>
</radialGradient>
<radialGradient id="paint13_radial_204_1544" cx="0" cy="0" r="1" gradientUnits="userSpaceOnUse" gradientTransform="translate(455.5 179.347) rotate(90) scale(55.7099 64.4264)">
<stop stop-color="#584DD9"/>
<stop offset="1" stop-color="#101010" stop-opacity="0"/>
</radialGradient>
<linearGradient id="paint14_linear_204_1544" x1="493.323" y1="190.691" x2="471.525" y2="151.96" gradientUnits="userSpaceOnUse">
<stop stop-color="#584DD9" stop-opacity="0"/>
<stop offset="0.5" stop-color="#584DD9"/>
<stop offset="1" stop-color="#584DD9" stop-opacity="0"/>
</linearGradient>
<linearGradient id="paint15_linear_204_1544" x1="493.323" y1="190.691" x2="471.525" y2="151.96" gradientUnits="userSpaceOnUse">
<stop stop-color="#584DD9" stop-opacity="0"/>
<stop offset="0.5" stop-color="#584DD9"/>
<stop offset="1" stop-color="#584DD9" stop-opacity="0"/>
</linearGradient>
<linearGradient id="paint16_linear_204_1544" x1="493.323" y1="190.691" x2="471.525" y2="151.96" gradientUnits="userSpaceOnUse">
<stop stop-color="#584DD9" stop-opacity="0"/>
<stop offset="0.5" stop-color="#584DD9"/>
<stop offset="1" stop-color="#584DD9" stop-opacity="0"/>
</linearGradient>
<linearGradient id="paint17_linear_204_1544" x1="493.323" y1="190.691" x2="471.525" y2="151.96" gradientUnits="userSpaceOnUse">
<stop stop-color="#584DD9" stop-opacity="0"/>
<stop offset="0.5" stop-color="#584DD9"/>
<stop offset="1" stop-color="#584DD9" stop-opacity="0"/>
</linearGradient>
<radialGradient id="paint18_radial_204_1544" cx="0" cy="0" r="1" gradientUnits="userSpaceOnUse" gradientTransform="translate(455.5 179.347) rotate(90) scale(55.7099 64.4264)">
<stop stop-color="#584DD9"/>
<stop offset="1" stop-color="#101010" stop-opacity="0"/>
</radialGradient>
<radialGradient id="paint19_radial_204_1544" cx="0" cy="0" r="1" gradientUnits="userSpaceOnUse" gradientTransform="translate(455.5 179.347) rotate(90) scale(55.7099 64.4264)">
<stop stop-color="#584DD9"/>
<stop offset="1" stop-color="#101010" stop-opacity="0"/>
</radialGradient>
<radialGradient id="paint20_radial_204_1544" cx="0" cy="0" r="1" gradientUnits="userSpaceOnUse" gradientTransform="translate(455.5 179.347) rotate(90) scale(55.7099 64.4264)">
<stop stop-color="#584DD9"/>
<stop offset="1" stop-color="#101010" stop-opacity="0"/>
</radialGradient>
<radialGradient id="paint21_radial_204_1544" cx="0" cy="0" r="1" gradientUnits="userSpaceOnUse" gradientTransform="translate(455.5 179.347) rotate(90) scale(55.7099 64.4264)">
<stop stop-color="#584DD9"/>
<stop offset="1" stop-color="#101010" stop-opacity="0"/>
</radialGradient>
<radialGradient id="paint22_radial_204_1544" cx="0" cy="0" r="1" gradientUnits="userSpaceOnUse" gradientTransform="translate(455.5 179.347) rotate(90) scale(55.7099 64.4264)">
<stop stop-color="#584DD9"/>
<stop offset="1" stop-color="#101010" stop-opacity="0"/>
</radialGradient>
<linearGradient id="paint23_linear_204_1544" x1="493.323" y1="190.691" x2="471.525" y2="151.96" gradientUnits="userSpaceOnUse">
<stop stop-color="#584DD9" stop-opacity="0"/>
<stop offset="0.5" stop-color="#584DD9"/>
<stop offset="1" stop-color="#584DD9" stop-opacity="0"/>
</linearGradient>
<linearGradient id="paint24_linear_204_1544" x1="493.323" y1="190.691" x2="471.525" y2="151.96" gradientUnits="userSpaceOnUse">
<stop stop-color="#584DD9" stop-opacity="0"/>
<stop offset="0.5" stop-color="#584DD9"/>
<stop offset="1" stop-color="#584DD9" stop-opacity="0"/>
</linearGradient>
<linearGradient id="paint25_linear_204_1544" x1="493.323" y1="190.691" x2="471.525" y2="151.96" gradientUnits="userSpaceOnUse">
<stop stop-color="#584DD9" stop-opacity="0"/>
<stop offset="0.5" stop-color="#584DD9"/>
<stop offset="1" stop-color="#584DD9" stop-opacity="0"/>
</linearGradient>
<linearGradient id="paint26_linear_204_1544" x1="493.323" y1="190.691" x2="471.525" y2="151.96" gradientUnits="userSpaceOnUse">
<stop stop-color="#584DD9" stop-opacity="0"/>
<stop offset="0.5" stop-color="#584DD9"/>
<stop offset="1" stop-color="#584DD9" stop-opacity="0"/>
</linearGradient>
<radialGradient id="paint27_radial_204_1544" cx="0" cy="0" r="1" gradientUnits="userSpaceOnUse" gradientTransform="translate(524.5 164.564) rotate(-90) scale(34.4896 39.883)">
<stop stop-color="#7469EE"/>
<stop offset="1" stop-color="#101010" stop-opacity="0"/>
</radialGradient>
<radialGradient id="paint28_radial_204_1544" cx="0" cy="0" r="1" gradientUnits="userSpaceOnUse" gradientTransform="translate(524.5 164.564) rotate(-90) scale(34.4896 39.883)">
<stop stop-color="#7469EE"/>
<stop offset="1" stop-color="#101010" stop-opacity="0"/>
</radialGradient>
<radialGradient id="paint29_radial_204_1544" cx="0" cy="0" r="1" gradientUnits="userSpaceOnUse" gradientTransform="translate(524.5 164.564) rotate(-90) scale(34.4896 39.883)">
<stop stop-color="#7469EE"/>
<stop offset="1" stop-color="#101010" stop-opacity="0"/>
</radialGradient>
<radialGradient id="paint30_radial_204_1544" cx="0" cy="0" r="1" gradientUnits="userSpaceOnUse" gradientTransform="translate(524.5 164.564) rotate(-90) scale(34.4896 39.883)">
<stop stop-color="#7469EE"/>
<stop offset="1" stop-color="#101010" stop-opacity="0"/>
</radialGradient>
<radialGradient id="paint31_radial_204_1544" cx="0" cy="0" r="1" gradientUnits="userSpaceOnUse" gradientTransform="translate(524.5 164.564) rotate(-90) scale(34.4896 39.883)">
<stop stop-color="#7469EE"/>
<stop offset="1" stop-color="#101010" stop-opacity="0"/>
</radialGradient>
<linearGradient id="paint32_linear_204_1544" x1="501.086" y1="157.541" x2="514.582" y2="181.519" gradientUnits="userSpaceOnUse">
<stop stop-color="#7469EE" stop-opacity="0"/>
<stop offset="0.5" stop-color="#7469EE"/>
<stop offset="1" stop-color="#7469EE" stop-opacity="0"/>
</linearGradient>
<linearGradient id="paint33_linear_204_1544" x1="501.086" y1="157.541" x2="514.582" y2="181.519" gradientUnits="userSpaceOnUse">
<stop stop-color="#7469EE" stop-opacity="0"/>
<stop offset="0.5" stop-color="#7469EE"/>
<stop offset="1" stop-color="#7469EE" stop-opacity="0"/>
</linearGradient>
<linearGradient id="paint34_linear_204_1544" x1="501.086" y1="157.541" x2="514.582" y2="181.519" gradientUnits="userSpaceOnUse">
<stop stop-color="#7469EE" stop-opacity="0"/>
<stop offset="0.5" stop-color="#7469EE"/>
<stop offset="1" stop-color="#7469EE" stop-opacity="0"/>
</linearGradient>
<linearGradient id="paint35_linear_204_1544" x1="501.086" y1="157.541" x2="514.582" y2="181.519" gradientUnits="userSpaceOnUse">
<stop stop-color="#7469EE" stop-opacity="0"/>
<stop offset="0.5" stop-color="#7469EE"/>
<stop offset="1" stop-color="#7469EE" stop-opacity="0"/>
</linearGradient>
<radialGradient id="paint36_radial_204_1544" cx="0" cy="0" r="1" gradientUnits="userSpaceOnUse" gradientTransform="translate(386.5 164.564) rotate(-90) scale(34.4896 39.883)">
<stop stop-color="#7469EE"/>
<stop offset="1" stop-color="#101010" stop-opacity="0"/>
</radialGradient>
<radialGradient id="paint37_radial_204_1544" cx="0" cy="0" r="1" gradientUnits="userSpaceOnUse" gradientTransform="translate(386.5 164.564) rotate(-90) scale(34.4896 39.883)">
<stop stop-color="#7469EE"/>
<stop offset="1" stop-color="#101010" stop-opacity="0"/>
</radialGradient>
<radialGradient id="paint38_radial_204_1544" cx="0" cy="0" r="1" gradientUnits="userSpaceOnUse" gradientTransform="translate(386.5 164.564) rotate(-90) scale(34.4896 39.883)">
<stop stop-color="#7469EE"/>
<stop offset="1" stop-color="#101010" stop-opacity="0"/>
</radialGradient>
<radialGradient id="paint39_radial_204_1544" cx="0" cy="0" r="1" gradientUnits="userSpaceOnUse" gradientTransform="translate(386.5 164.564) rotate(-90) scale(34.4896 39.883)">
<stop stop-color="#7469EE"/>
<stop offset="1" stop-color="#101010" stop-opacity="0"/>
</radialGradient>
<radialGradient id="paint40_radial_204_1544" cx="0" cy="0" r="1" gradientUnits="userSpaceOnUse" gradientTransform="translate(386.5 164.564) rotate(-90) scale(34.4896 39.883)">
<stop stop-color="#7469EE"/>
<stop offset="1" stop-color="#101010" stop-opacity="0"/>
</radialGradient>
<linearGradient id="paint41_linear_204_1544" x1="409.914" y1="157.541" x2="396.418" y2="181.519" gradientUnits="userSpaceOnUse">
<stop stop-color="#7469EE" stop-opacity="0"/>
<stop offset="0.5" stop-color="#7469EE"/>
<stop offset="1" stop-color="#7469EE" stop-opacity="0"/>
</linearGradient>
<linearGradient id="paint42_linear_204_1544" x1="409.914" y1="157.541" x2="396.418" y2="181.519" gradientUnits="userSpaceOnUse">
<stop stop-color="#7469EE" stop-opacity="0"/>
<stop offset="0.5" stop-color="#7469EE"/>
<stop offset="1" stop-color="#7469EE" stop-opacity="0"/>
</linearGradient>
<linearGradient id="paint43_linear_204_1544" x1="409.914" y1="157.541" x2="396.418" y2="181.519" gradientUnits="userSpaceOnUse">
<stop stop-color="#7469EE" stop-opacity="0"/>
<stop offset="0.5" stop-color="#7469EE"/>
<stop offset="1" stop-color="#7469EE" stop-opacity="0"/>
</linearGradient>
<linearGradient id="paint44_linear_204_1544" x1="409.914" y1="157.541" x2="396.418" y2="181.519" gradientUnits="userSpaceOnUse">
<stop stop-color="#7469EE" stop-opacity="0"/>
<stop offset="0.5" stop-color="#7469EE"/>
<stop offset="1" stop-color="#7469EE" stop-opacity="0"/>
</linearGradient>
</defs>
</svg>
