<svg width="87" height="96" viewBox="0 0 87 96" fill="none" xmlns="http://www.w3.org/2000/svg">
<path d="M20.597 73.1507L16 16.8552L70.9 16.9684L66.0391 73.1507L43.6572 79.6448L20.597 73.1507Z" fill="#8880E3"/>
<path d="M43.6562 74.2078V22.2166L66.2644 22.292L62.2328 68.8083L43.6562 74.2078Z" fill="#8880E3"/>
<path d="M41.2363 28.3899H35.2592V62.994L30.6104 62.1067V57.4484L25.0762 56.5612V66.9867L41.2363 71.2013V28.3899ZM45.7199 28.3899H62.2665L61.1596 35.0223H52.0365V45.9062H61.1596L60.0528 67.874L45.7199 71.2013V64.3249L55.404 60.9976L55.9632 51.9029L45.7199 53.3891V28.3899Z" fill="#CED7FF"/>
<g style="mix-blend-mode:plus-lighter" opacity="0.3" filter="url(#filter0_f_407_1550)">
<path d="M20.597 73.1507L16 16.8552L70.9 16.9684L66.0391 73.1507L43.6572 79.6448L20.597 73.1507Z" fill="#8880E3"/>
<path d="M43.6562 74.2078V22.2166L66.2644 22.292L62.2328 68.8083L43.6562 74.2078Z" fill="#8880E3"/>
<path d="M41.2363 28.3899H35.2592V62.994L30.6104 62.1067V57.4484L25.0762 56.5612V66.9867L41.2363 71.2013V28.3899ZM45.7199 28.3899H62.2665L61.1596 35.0223H52.0365V45.9062H61.1596L60.0528 67.874L45.7199 71.2013V64.3249L55.404 60.9976L55.9632 51.9029L45.7199 53.3891V28.3899Z" fill="#CED7FF"/>
</g>
<defs>
<filter id="filter0_f_407_1550" x="0" y="0.855225" width="86.9004" height="94.7896" filterUnits="userSpaceOnUse" color-interpolation-filters="sRGB">
<feFlood flood-opacity="0" result="BackgroundImageFix"/>
<feBlend mode="normal" in="SourceGraphic" in2="BackgroundImageFix" result="shape"/>
<feGaussianBlur stdDeviation="8" result="effect1_foregroundBlur_407_1550"/>
</filter>
</defs>
</svg>
