<svg width="43" height="42" viewBox="0 0 43 42" fill="none" xmlns="http://www.w3.org/2000/svg">
<g filter="url(#filter0_iiii_175_41)">
<path d="M18.4506 35.5322C19.6053 37.5322 22.4921 37.5322 23.6468 35.5322L36.4206 13.4074C37.5753 11.4074 36.1319 8.90741 33.8225 8.90741H8.27494C5.96554 8.90741 4.52216 11.4074 5.67686 13.4074L18.4506 35.5322Z" fill="#111111"/>
</g>
<path opacity="0.6" d="M36.8536 13.6574L24.0798 35.7822C22.7326 38.1156 19.3648 38.1156 18.0176 35.7822L5.24385 13.6574C3.8967 11.3241 5.58064 8.40741 8.27494 8.40741H33.8225C36.5168 8.40741 38.2007 11.3241 36.8536 13.6574Z" stroke="#454545"/>
<g opacity="0.6">
<path d="M36.8536 13.6574L24.0798 35.7822C22.7326 38.1156 19.3648 38.1156 18.0176 35.7822L5.24385 13.6574C3.8967 11.3241 5.58064 8.40741 8.27494 8.40741H33.8225C36.5168 8.40741 38.2007 11.3241 36.8536 13.6574Z" stroke="url(#paint0_linear_175_41)"/>
<path d="M36.8536 13.6574L24.0798 35.7822C22.7326 38.1156 19.3648 38.1156 18.0176 35.7822L5.24385 13.6574C3.8967 11.3241 5.58064 8.40741 8.27494 8.40741H33.8225C36.5168 8.40741 38.2007 11.3241 36.8536 13.6574Z" stroke="url(#paint1_linear_175_41)" stroke-opacity="0.6" style="mix-blend-mode:plus-lighter"/>
</g>
<g filter="url(#filter1_i_175_41)">
<path d="M20.6171 32.7441C20.8096 33.0775 21.2907 33.0775 21.4831 32.7441L32.9253 12.9258C33.1177 12.5924 32.8772 12.1758 32.4923 12.1758H9.608C9.2231 12.1758 8.98253 12.5924 9.17498 12.9258L20.6171 32.7441Z" stroke="#362CAC" stroke-width="2"/>
<path d="M20.6171 32.7441C20.8096 33.0775 21.2907 33.0775 21.4831 32.7441L32.9253 12.9258C33.1177 12.5924 32.8772 12.1758 32.4923 12.1758H9.608C9.2231 12.1758 8.98253 12.5924 9.17498 12.9258L20.6171 32.7441Z" stroke="url(#paint2_linear_175_41)" stroke-width="2"/>
<path d="M20.6171 32.7441C20.8096 33.0775 21.2907 33.0775 21.4831 32.7441L32.9253 12.9258C33.1177 12.5924 32.8772 12.1758 32.4923 12.1758H9.608C9.2231 12.1758 8.98253 12.5924 9.17498 12.9258L20.6171 32.7441Z" stroke="url(#paint3_linear_175_41)" stroke-width="2" style="mix-blend-mode:plus-lighter"/>
<path d="M20.6171 32.7441C20.8096 33.0775 21.2907 33.0775 21.4831 32.7441L32.9253 12.9258C33.1177 12.5924 32.8772 12.1758 32.4923 12.1758H9.608C9.2231 12.1758 8.98253 12.5924 9.17498 12.9258L20.6171 32.7441Z" stroke="url(#paint4_linear_175_41)" stroke-width="2"/>
<path d="M20.6171 32.7441C20.8096 33.0775 21.2907 33.0775 21.4831 32.7441L32.9253 12.9258C33.1177 12.5924 32.8772 12.1758 32.4923 12.1758H9.608C9.2231 12.1758 8.98253 12.5924 9.17498 12.9258L20.6171 32.7441Z" stroke="url(#paint5_linear_175_41)" stroke-width="2" style="mix-blend-mode:plus-lighter"/>
</g>
<g opacity="0.7">
<g filter="url(#filter2_f_175_41)">
<path d="M20.6171 32.7437C20.8096 33.077 21.2907 33.077 21.4831 32.7437L32.9253 12.9253C33.1177 12.592 32.8772 12.1753 32.4923 12.1753H9.608C9.2231 12.1753 8.98253 12.592 9.17498 12.9253L20.6171 32.7437Z" stroke="#362CAC" stroke-width="2"/>
<path d="M20.6171 32.7437C20.8096 33.077 21.2907 33.077 21.4831 32.7437L32.9253 12.9253C33.1177 12.592 32.8772 12.1753 32.4923 12.1753H9.608C9.2231 12.1753 8.98253 12.592 9.17498 12.9253L20.6171 32.7437Z" stroke="url(#paint6_linear_175_41)" stroke-width="2"/>
<path d="M20.6171 32.7437C20.8096 33.077 21.2907 33.077 21.4831 32.7437L32.9253 12.9253C33.1177 12.592 32.8772 12.1753 32.4923 12.1753H9.608C9.2231 12.1753 8.98253 12.592 9.17498 12.9253L20.6171 32.7437Z" stroke="url(#paint7_linear_175_41)" stroke-width="2"/>
</g>
<g style="mix-blend-mode:plus-lighter" filter="url(#filter3_f_175_41)">
<path d="M20.6171 32.7437C20.8096 33.077 21.2907 33.077 21.4831 32.7437L32.9253 12.9253C33.1177 12.592 32.8772 12.1753 32.4923 12.1753H9.608C9.2231 12.1753 8.98253 12.592 9.17498 12.9253L20.6171 32.7437Z" stroke="#362CAC" stroke-width="2"/>
<path d="M20.6171 32.7437C20.8096 33.077 21.2907 33.077 21.4831 32.7437L32.9253 12.9253C33.1177 12.592 32.8772 12.1753 32.4923 12.1753H9.608C9.2231 12.1753 8.98253 12.592 9.17498 12.9253L20.6171 32.7437Z" stroke="url(#paint8_linear_175_41)" stroke-width="2" style="mix-blend-mode:plus-lighter"/>
<path d="M20.6171 32.7437C20.8096 33.077 21.2907 33.077 21.4831 32.7437L32.9253 12.9253C33.1177 12.592 32.8772 12.1753 32.4923 12.1753H9.608C9.2231 12.1753 8.98253 12.592 9.17498 12.9253L20.6171 32.7437Z" stroke="url(#paint9_linear_175_41)" stroke-width="2" style="mix-blend-mode:plus-lighter"/>
</g>
<g style="mix-blend-mode:plus-lighter" filter="url(#filter4_f_175_41)">
<path d="M20.6171 32.7437C20.8096 33.077 21.2907 33.077 21.4831 32.7437L32.9253 12.9253C33.1177 12.592 32.8772 12.1753 32.4923 12.1753H9.608C9.2231 12.1753 8.98253 12.592 9.17498 12.9253L20.6171 32.7437Z" stroke="#362CAC" stroke-width="2"/>
<path d="M20.6171 32.7437C20.8096 33.077 21.2907 33.077 21.4831 32.7437L32.9253 12.9253C33.1177 12.592 32.8772 12.1753 32.4923 12.1753H9.608C9.2231 12.1753 8.98253 12.592 9.17498 12.9253L20.6171 32.7437Z" stroke="url(#paint10_linear_175_41)" stroke-width="2" style="mix-blend-mode:plus-lighter"/>
<path d="M20.6171 32.7437C20.8096 33.077 21.2907 33.077 21.4831 32.7437L32.9253 12.9253C33.1177 12.592 32.8772 12.1753 32.4923 12.1753H9.608C9.2231 12.1753 8.98253 12.592 9.17498 12.9253L20.6171 32.7437Z" stroke="url(#paint11_linear_175_41)" stroke-width="2" style="mix-blend-mode:plus-lighter"/>
</g>
</g>
<g style="mix-blend-mode:plus-lighter" opacity="0.8" filter="url(#filter5_f_175_41)">
<path d="M20.6171 32.7441C20.8096 33.0775 21.2907 33.0775 21.4831 32.7441L32.9253 12.9258C33.1177 12.5924 32.8772 12.1758 32.4923 12.1758H9.608C9.2231 12.1758 8.98253 12.5924 9.17498 12.9258L20.6171 32.7441Z" stroke="#362CAC" stroke-width="2"/>
<path d="M20.6171 32.7441C20.8096 33.0775 21.2907 33.0775 21.4831 32.7441L32.9253 12.9258C33.1177 12.5924 32.8772 12.1758 32.4923 12.1758H9.608C9.2231 12.1758 8.98253 12.5924 9.17498 12.9258L20.6171 32.7441Z" stroke="url(#paint12_linear_175_41)" stroke-width="2" style="mix-blend-mode:plus-lighter"/>
<path d="M20.6171 32.7441C20.8096 33.0775 21.2907 33.0775 21.4831 32.7441L32.9253 12.9258C33.1177 12.5924 32.8772 12.1758 32.4923 12.1758H9.608C9.2231 12.1758 8.98253 12.5924 9.17498 12.9258L20.6171 32.7441Z" stroke="url(#paint13_linear_175_41)" stroke-width="2" style="mix-blend-mode:plus-lighter"/>
</g>
<g filter="url(#filter6_d_175_41)">
<mask id="path-9-inside-1_175_41" fill="white">
<path d="M25.5919 16.7242C25.8681 16.7242 26.0948 16.9487 26.0645 17.2232C25.9516 18.2458 25.4943 19.2056 24.7599 19.9401C23.907 20.793 22.7502 21.2721 21.544 21.2721C20.3378 21.2721 19.181 20.793 18.3281 19.9401C17.5937 19.2056 17.1364 18.2458 17.0235 17.2232C16.9932 16.9487 17.22 16.7242 17.4961 16.7242L21.544 16.7242H25.5919Z"/>
</mask>
<path d="M25.5919 16.7242C25.8681 16.7242 26.0948 16.9487 26.0645 17.2232C25.9516 18.2458 25.4943 19.2056 24.7599 19.9401C23.907 20.793 22.7502 21.2721 21.544 21.2721C20.3378 21.2721 19.181 20.793 18.3281 19.9401C17.5937 19.2056 17.1364 18.2458 17.0235 17.2232C16.9932 16.9487 17.22 16.7242 17.4961 16.7242L21.544 16.7242H25.5919Z" fill="#222222"/>
<path d="M25.5919 16.7242C25.8681 16.7242 26.0948 16.9487 26.0645 17.2232C25.9516 18.2458 25.4943 19.2056 24.7599 19.9401C23.907 20.793 22.7502 21.2721 21.544 21.2721C20.3378 21.2721 19.181 20.793 18.3281 19.9401C17.5937 19.2056 17.1364 18.2458 17.0235 17.2232C16.9932 16.9487 17.22 16.7242 17.4961 16.7242L21.544 16.7242H25.5919Z" stroke="url(#paint14_linear_175_41)" stroke-width="0.6" mask="url(#path-9-inside-1_175_41)"/>
<path d="M25.5919 16.7242C25.8681 16.7242 26.0948 16.9487 26.0645 17.2232C25.9516 18.2458 25.4943 19.2056 24.7599 19.9401C23.907 20.793 22.7502 21.2721 21.544 21.2721C20.3378 21.2721 19.181 20.793 18.3281 19.9401C17.5937 19.2056 17.1364 18.2458 17.0235 17.2232C16.9932 16.9487 17.22 16.7242 17.4961 16.7242L21.544 16.7242H25.5919Z" stroke="url(#paint15_linear_175_41)" stroke-width="0.6" style="mix-blend-mode:plus-lighter" mask="url(#path-9-inside-1_175_41)"/>
</g>
<g opacity="0.8" filter="url(#filter7_d_175_41)">
<mask id="path-10-inside-2_175_41" fill="white">
<path d="M25.5919 16.7242C25.8681 16.7242 26.0948 16.9487 26.0645 17.2232C25.9516 18.2458 25.4943 19.2056 24.7599 19.9401C23.907 20.793 22.7502 21.2721 21.544 21.2721C20.3378 21.2721 19.181 20.793 18.3281 19.9401C17.5937 19.2056 17.1364 18.2458 17.0235 17.2232C16.9932 16.9487 17.22 16.7242 17.4961 16.7242L21.544 16.7242H25.5919Z"/>
</mask>
<path d="M25.5919 16.7242C25.8681 16.7242 26.0948 16.9487 26.0645 17.2232C25.9516 18.2458 25.4943 19.2056 24.7599 19.9401C23.907 20.793 22.7502 21.2721 21.544 21.2721C20.3378 21.2721 19.181 20.793 18.3281 19.9401C17.5937 19.2056 17.1364 18.2458 17.0235 17.2232C16.9932 16.9487 17.22 16.7242 17.4961 16.7242L21.544 16.7242H25.5919Z" stroke="url(#paint16_linear_175_41)" stroke-width="0.6" shape-rendering="crispEdges" mask="url(#path-10-inside-2_175_41)"/>
<path d="M25.5919 16.7242C25.8681 16.7242 26.0948 16.9487 26.0645 17.2232C25.9516 18.2458 25.4943 19.2056 24.7599 19.9401C23.907 20.793 22.7502 21.2721 21.544 21.2721C20.3378 21.2721 19.181 20.793 18.3281 19.9401C17.5937 19.2056 17.1364 18.2458 17.0235 17.2232C16.9932 16.9487 17.22 16.7242 17.4961 16.7242L21.544 16.7242H25.5919Z" stroke="url(#paint17_linear_175_41)" stroke-width="0.6" style="mix-blend-mode:plus-lighter" shape-rendering="crispEdges" mask="url(#path-10-inside-2_175_41)"/>
</g>
<g opacity="0.4" filter="url(#filter8_d_175_41)">
<mask id="path-11-inside-3_175_41" fill="white">
<path d="M25.5919 16.7242C25.8681 16.7242 26.0948 16.9487 26.0645 17.2232C25.9516 18.2458 25.4943 19.2056 24.7599 19.9401C23.907 20.793 22.7502 21.2721 21.544 21.2721C20.3378 21.2721 19.181 20.793 18.3281 19.9401C17.5937 19.2056 17.1364 18.2458 17.0235 17.2232C16.9932 16.9487 17.22 16.7242 17.4961 16.7242L21.544 16.7242H25.5919Z"/>
</mask>
<path d="M25.5919 16.7242C25.8681 16.7242 26.0948 16.9487 26.0645 17.2232C25.9516 18.2458 25.4943 19.2056 24.7599 19.9401C23.907 20.793 22.7502 21.2721 21.544 21.2721C20.3378 21.2721 19.181 20.793 18.3281 19.9401C17.5937 19.2056 17.1364 18.2458 17.0235 17.2232C16.9932 16.9487 17.22 16.7242 17.4961 16.7242L21.544 16.7242H25.5919Z" stroke="url(#paint18_linear_175_41)" stroke-width="0.6" shape-rendering="crispEdges" mask="url(#path-11-inside-3_175_41)"/>
<path d="M25.5919 16.7242C25.8681 16.7242 26.0948 16.9487 26.0645 17.2232C25.9516 18.2458 25.4943 19.2056 24.7599 19.9401C23.907 20.793 22.7502 21.2721 21.544 21.2721C20.3378 21.2721 19.181 20.793 18.3281 19.9401C17.5937 19.2056 17.1364 18.2458 17.0235 17.2232C16.9932 16.9487 17.22 16.7242 17.4961 16.7242L21.544 16.7242H25.5919Z" stroke="url(#paint19_linear_175_41)" stroke-width="0.6" style="mix-blend-mode:plus-lighter" shape-rendering="crispEdges" mask="url(#path-11-inside-3_175_41)"/>
</g>
<g opacity="0.7">
<path d="M8.46289 19.2373L19.6825 38.668" stroke="url(#paint20_linear_175_41)"/>
<path d="M8.46289 19.2373L19.6825 38.668" stroke="url(#paint21_linear_175_41)" style="mix-blend-mode:plus-lighter"/>
</g>
<g opacity="0.6">
<path d="M38.0801 11.5415L23.6188 36.5793" stroke="url(#paint22_linear_175_41)"/>
<path d="M38.0801 11.5415L23.6188 36.5793" stroke="url(#paint23_linear_175_41)" stroke-opacity="0.6" style="mix-blend-mode:plus-lighter"/>
</g>
<g opacity="0.7">
<path d="M16.5156 8.39942L37.4292 8.39941" stroke="url(#paint24_linear_175_41)"/>
<path d="M16.5156 8.39942L37.4292 8.39941" stroke="url(#paint25_linear_175_41)" style="mix-blend-mode:plus-lighter"/>
</g>
<defs>
<filter id="filter0_iiii_175_41" x="5.26953" y="8.90723" width="62.5566" height="59.125" filterUnits="userSpaceOnUse" color-interpolation-filters="sRGB">
<feFlood flood-opacity="0" result="BackgroundImageFix"/>
<feBlend mode="normal" in="SourceGraphic" in2="BackgroundImageFix" result="shape"/>
<feColorMatrix in="SourceAlpha" type="matrix" values="0 0 0 0 0 0 0 0 0 0 0 0 0 0 0 0 0 0 127 0" result="hardAlpha"/>
<feOffset dx="3" dy="3"/>
<feGaussianBlur stdDeviation="5"/>
<feComposite in2="hardAlpha" operator="arithmetic" k2="-1" k3="1"/>
<feColorMatrix type="matrix" values="0 0 0 0 0 0 0 0 0 0 0 0 0 0 0 0 0 0 0.18 0"/>
<feBlend mode="normal" in2="shape" result="effect1_innerShadow_175_41"/>
<feColorMatrix in="SourceAlpha" type="matrix" values="0 0 0 0 0 0 0 0 0 0 0 0 0 0 0 0 0 0 127 0" result="hardAlpha"/>
<feOffset dx="14" dy="13"/>
<feGaussianBlur stdDeviation="9.5"/>
<feComposite in2="hardAlpha" operator="arithmetic" k2="-1" k3="1"/>
<feColorMatrix type="matrix" values="0 0 0 0 0 0 0 0 0 0 0 0 0 0 0 0 0 0 0.15 0"/>
<feBlend mode="normal" in2="effect1_innerShadow_175_41" result="effect2_innerShadow_175_41"/>
<feColorMatrix in="SourceAlpha" type="matrix" values="0 0 0 0 0 0 0 0 0 0 0 0 0 0 0 0 0 0 127 0" result="hardAlpha"/>
<feOffset dx="30" dy="30"/>
<feGaussianBlur stdDeviation="13"/>
<feComposite in2="hardAlpha" operator="arithmetic" k2="-1" k3="1"/>
<feColorMatrix type="matrix" values="0 0 0 0 0 0 0 0 0 0 0 0 0 0 0 0 0 0 0.09 0"/>
<feBlend mode="normal" in2="effect2_innerShadow_175_41" result="effect3_innerShadow_175_41"/>
<feColorMatrix in="SourceAlpha" type="matrix" values="0 0 0 0 0 0 0 0 0 0 0 0 0 0 0 0 0 0 127 0" result="hardAlpha"/>
<feOffset dx="54" dy="54"/>
<feGaussianBlur stdDeviation="15.5"/>
<feComposite in2="hardAlpha" operator="arithmetic" k2="-1" k3="1"/>
<feColorMatrix type="matrix" values="0 0 0 0 0 0 0 0 0 0 0 0 0 0 0 0 0 0 0.03 0"/>
<feBlend mode="normal" in2="effect3_innerShadow_175_41" result="effect4_innerShadow_175_41"/>
</filter>
<filter id="filter1_i_175_41" x="8.10547" y="11.1758" width="25.8887" height="22.8184" filterUnits="userSpaceOnUse" color-interpolation-filters="sRGB">
<feFlood flood-opacity="0" result="BackgroundImageFix"/>
<feBlend mode="normal" in="SourceGraphic" in2="BackgroundImageFix" result="shape"/>
<feColorMatrix in="SourceAlpha" type="matrix" values="0 0 0 0 0 0 0 0 0 0 0 0 0 0 0 0 0 0 127 0" result="hardAlpha"/>
<feOffset/>
<feGaussianBlur stdDeviation="0.5"/>
<feComposite in2="hardAlpha" operator="arithmetic" k2="-1" k3="1"/>
<feColorMatrix type="matrix" values="0 0 0 0 1 0 0 0 0 1 0 0 0 0 1 0 0 0 0.75 0"/>
<feBlend mode="plus-lighter" in2="shape" result="effect1_innerShadow_175_41"/>
</filter>
<filter id="filter2_f_175_41" x="6.10547" y="9.17529" width="29.8887" height="26.8184" filterUnits="userSpaceOnUse" color-interpolation-filters="sRGB">
<feFlood flood-opacity="0" result="BackgroundImageFix"/>
<feBlend mode="normal" in="SourceGraphic" in2="BackgroundImageFix" result="shape"/>
<feGaussianBlur stdDeviation="1" result="effect1_foregroundBlur_175_41"/>
</filter>
<filter id="filter3_f_175_41" x="4.10547" y="7.17529" width="33.8887" height="30.8184" filterUnits="userSpaceOnUse" color-interpolation-filters="sRGB">
<feFlood flood-opacity="0" result="BackgroundImageFix"/>
<feBlend mode="normal" in="SourceGraphic" in2="BackgroundImageFix" result="shape"/>
<feGaussianBlur stdDeviation="2" result="effect1_foregroundBlur_175_41"/>
</filter>
<filter id="filter4_f_175_41" x="0.105469" y="3.17529" width="41.8887" height="38.8184" filterUnits="userSpaceOnUse" color-interpolation-filters="sRGB">
<feFlood flood-opacity="0" result="BackgroundImageFix"/>
<feBlend mode="normal" in="SourceGraphic" in2="BackgroundImageFix" result="shape"/>
<feGaussianBlur stdDeviation="4" result="effect1_foregroundBlur_175_41"/>
</filter>
<filter id="filter5_f_175_41" x="5.10547" y="8.17578" width="31.8887" height="28.8184" filterUnits="userSpaceOnUse" color-interpolation-filters="sRGB">
<feFlood flood-opacity="0" result="BackgroundImageFix"/>
<feBlend mode="normal" in="SourceGraphic" in2="BackgroundImageFix" result="shape"/>
<feGaussianBlur stdDeviation="1.5" result="effect1_foregroundBlur_175_41"/>
</filter>
<filter id="filter6_d_175_41" x="1.02148" y="0.724121" width="41.0449" height="36.5479" filterUnits="userSpaceOnUse" color-interpolation-filters="sRGB">
<feFlood flood-opacity="0" result="BackgroundImageFix"/>
<feColorMatrix in="SourceAlpha" type="matrix" values="0 0 0 0 0 0 0 0 0 0 0 0 0 0 0 0 0 0 127 0" result="hardAlpha"/>
<feOffset/>
<feGaussianBlur stdDeviation="8"/>
<feComposite in2="hardAlpha" operator="out"/>
<feColorMatrix type="matrix" values="0 0 0 0 0 0 0 0 0 0 0 0 0 0 0 0 0 0 0.55 0"/>
<feBlend mode="normal" in2="BackgroundImageFix" result="effect1_dropShadow_175_41"/>
<feBlend mode="normal" in="SourceGraphic" in2="effect1_dropShadow_175_41" result="shape"/>
</filter>
<filter id="filter7_d_175_41" x="9.02148" y="8.72412" width="25.0449" height="20.5479" filterUnits="userSpaceOnUse" color-interpolation-filters="sRGB">
<feFlood flood-opacity="0" result="BackgroundImageFix"/>
<feColorMatrix in="SourceAlpha" type="matrix" values="0 0 0 0 0 0 0 0 0 0 0 0 0 0 0 0 0 0 127 0" result="hardAlpha"/>
<feOffset/>
<feGaussianBlur stdDeviation="4"/>
<feComposite in2="hardAlpha" operator="out"/>
<feColorMatrix type="matrix" values="0 0 0 0 0 0 0 0 0 0 0 0 0 0 0 0 0 0 0.55 0"/>
<feBlend mode="normal" in2="BackgroundImageFix" result="effect1_dropShadow_175_41"/>
<feBlend mode="normal" in="SourceGraphic" in2="effect1_dropShadow_175_41" result="shape"/>
</filter>
<filter id="filter8_d_175_41" x="9.02148" y="8.72412" width="25.0449" height="20.5479" filterUnits="userSpaceOnUse" color-interpolation-filters="sRGB">
<feFlood flood-opacity="0" result="BackgroundImageFix"/>
<feColorMatrix in="SourceAlpha" type="matrix" values="0 0 0 0 0 0 0 0 0 0 0 0 0 0 0 0 0 0 127 0" result="hardAlpha"/>
<feOffset/>
<feGaussianBlur stdDeviation="4"/>
<feComposite in2="hardAlpha" operator="out"/>
<feColorMatrix type="matrix" values="0 0 0 0 0 0 0 0 0 0 0 0 0 0 0 0 0 0 0.55 0"/>
<feBlend mode="normal" in2="BackgroundImageFix" result="effect1_dropShadow_175_41"/>
<feBlend mode="normal" in="SourceGraphic" in2="effect1_dropShadow_175_41" result="shape"/>
</filter>
<linearGradient id="paint0_linear_175_41" x1="10.4429" y1="13.5249" x2="7.49197" y2="8.4291" gradientUnits="userSpaceOnUse">
<stop stop-opacity="0"/>
<stop offset="1" stop-color="#C5CCFF"/>
</linearGradient>
<linearGradient id="paint1_linear_175_41" x1="10.4429" y1="13.5249" x2="7.49197" y2="8.4291" gradientUnits="userSpaceOnUse">
<stop stop-opacity="0"/>
<stop offset="1" stop-color="#C5CCFF"/>
</linearGradient>
<linearGradient id="paint2_linear_175_41" x1="36.5415" y1="6.91724" x2="19.4868" y2="36.1945" gradientUnits="userSpaceOnUse">
<stop stop-color="#584DD9" stop-opacity="0"/>
<stop offset="0.5" stop-color="#584DD9"/>
<stop offset="1" stop-color="#584DD9" stop-opacity="0"/>
</linearGradient>
<linearGradient id="paint3_linear_175_41" x1="36.5415" y1="6.91724" x2="19.4868" y2="36.1945" gradientUnits="userSpaceOnUse">
<stop stop-color="#584DD9" stop-opacity="0"/>
<stop offset="0.5" stop-color="#584DD9"/>
<stop offset="1" stop-color="#584DD9" stop-opacity="0"/>
</linearGradient>
<linearGradient id="paint4_linear_175_41" x1="25.4559" y1="27.8092" x2="12.807" y2="19.2819" gradientUnits="userSpaceOnUse">
<stop stop-opacity="0"/>
<stop offset="0.5" stop-color="#7469EE"/>
<stop offset="1" stop-opacity="0"/>
</linearGradient>
<linearGradient id="paint5_linear_175_41" x1="25.4559" y1="27.8092" x2="12.807" y2="19.2819" gradientUnits="userSpaceOnUse">
<stop stop-opacity="0"/>
<stop offset="0.5" stop-color="#7469EE"/>
<stop offset="1" stop-opacity="0"/>
</linearGradient>
<linearGradient id="paint6_linear_175_41" x1="32.4199" y1="14.0229" x2="23.0399" y2="30.0827" gradientUnits="userSpaceOnUse">
<stop stop-opacity="0"/>
<stop offset="0.5" stop-color="#584DD9"/>
<stop offset="1" stop-opacity="0"/>
</linearGradient>
<linearGradient id="paint7_linear_175_41" x1="25.4559" y1="27.8088" x2="12.807" y2="19.2814" gradientUnits="userSpaceOnUse">
<stop stop-opacity="0"/>
<stop offset="0.5" stop-color="#7469EE"/>
<stop offset="1" stop-opacity="0"/>
</linearGradient>
<linearGradient id="paint8_linear_175_41" x1="32.4199" y1="14.0229" x2="23.0399" y2="30.0827" gradientUnits="userSpaceOnUse">
<stop stop-opacity="0"/>
<stop offset="0.5" stop-color="#584DD9"/>
<stop offset="1" stop-opacity="0"/>
</linearGradient>
<linearGradient id="paint9_linear_175_41" x1="25.4559" y1="27.8088" x2="12.807" y2="19.2814" gradientUnits="userSpaceOnUse">
<stop stop-opacity="0"/>
<stop offset="0.5" stop-color="#7469EE"/>
<stop offset="1" stop-opacity="0"/>
</linearGradient>
<linearGradient id="paint10_linear_175_41" x1="32.4199" y1="14.0229" x2="23.0399" y2="30.0827" gradientUnits="userSpaceOnUse">
<stop stop-opacity="0"/>
<stop offset="0.5" stop-color="#584DD9"/>
<stop offset="1" stop-opacity="0"/>
</linearGradient>
<linearGradient id="paint11_linear_175_41" x1="25.4559" y1="27.8088" x2="12.807" y2="19.2814" gradientUnits="userSpaceOnUse">
<stop stop-opacity="0"/>
<stop offset="0.5" stop-color="#7469EE"/>
<stop offset="1" stop-opacity="0"/>
</linearGradient>
<linearGradient id="paint12_linear_175_41" x1="32.4199" y1="14.0234" x2="23.0399" y2="30.0832" gradientUnits="userSpaceOnUse">
<stop stop-opacity="0"/>
<stop offset="0.5" stop-color="#584DD9"/>
<stop offset="1" stop-opacity="0"/>
</linearGradient>
<linearGradient id="paint13_linear_175_41" x1="25.4559" y1="27.8092" x2="12.807" y2="19.2819" gradientUnits="userSpaceOnUse">
<stop stop-opacity="0"/>
<stop offset="0.5" stop-color="#362CAC"/>
<stop offset="1" stop-opacity="0"/>
</linearGradient>
<linearGradient id="paint14_linear_175_41" x1="15.717" y1="15.303" x2="19.2701" y2="18.0033" gradientUnits="userSpaceOnUse">
<stop stop-color="#AAB8FA"/>
<stop offset="1" stop-color="#666666" stop-opacity="0"/>
</linearGradient>
<linearGradient id="paint15_linear_175_41" x1="15.717" y1="15.303" x2="19.2701" y2="18.0033" gradientUnits="userSpaceOnUse">
<stop stop-color="#AAB8FA"/>
<stop offset="1" stop-color="#666666" stop-opacity="0"/>
</linearGradient>
<linearGradient id="paint16_linear_175_41" x1="23.3916" y1="15.8715" x2="22.9652" y2="17.4348" gradientUnits="userSpaceOnUse">
<stop stop-color="#CF64F8"/>
<stop offset="1" stop-color="#666666" stop-opacity="0"/>
</linearGradient>
<linearGradient id="paint17_linear_175_41" x1="23.3916" y1="15.8715" x2="22.9652" y2="17.4348" gradientUnits="userSpaceOnUse">
<stop stop-color="#CF64F8"/>
<stop offset="1" stop-color="#666666" stop-opacity="0"/>
</linearGradient>
<linearGradient id="paint18_linear_175_41" x1="20.6913" y1="21.5564" x2="20.9755" y2="20.8457" gradientUnits="userSpaceOnUse">
<stop stop-color="#CF64F8"/>
<stop offset="1" stop-color="#666666" stop-opacity="0"/>
</linearGradient>
<linearGradient id="paint19_linear_175_41" x1="20.6913" y1="21.5564" x2="20.9755" y2="20.8457" gradientUnits="userSpaceOnUse">
<stop stop-color="#CF64F8"/>
<stop offset="1" stop-color="#666666" stop-opacity="0"/>
</linearGradient>
<linearGradient id="paint20_linear_175_41" x1="8.46289" y1="19.2373" x2="19.6825" y2="38.668" gradientUnits="userSpaceOnUse">
<stop offset="0.15" stop-opacity="0"/>
<stop offset="0.5" stop-color="#7469EE"/>
<stop offset="0.85" stop-opacity="0"/>
</linearGradient>
<linearGradient id="paint21_linear_175_41" x1="8.46289" y1="19.2373" x2="19.6825" y2="38.668" gradientUnits="userSpaceOnUse">
<stop offset="0.15" stop-opacity="0"/>
<stop offset="0.5" stop-color="#7469EE"/>
<stop offset="0.85" stop-opacity="0"/>
</linearGradient>
<linearGradient id="paint22_linear_175_41" x1="38.6385" y1="11.6985" x2="23.6842" y2="36.6094" gradientUnits="userSpaceOnUse">
<stop offset="0.15" stop-opacity="0"/>
<stop offset="0.5" stop-color="#C5CCFF"/>
<stop offset="0.85" stop-opacity="0"/>
</linearGradient>
<linearGradient id="paint23_linear_175_41" x1="38.6385" y1="11.6985" x2="23.6842" y2="36.6094" gradientUnits="userSpaceOnUse">
<stop offset="0.15" stop-opacity="0"/>
<stop offset="0.5" stop-color="#C5CCFF"/>
<stop offset="0.85" stop-opacity="0"/>
</linearGradient>
<linearGradient id="paint24_linear_175_41" x1="16.479" y1="8.20544" x2="37.4347" y2="8.52651" gradientUnits="userSpaceOnUse">
<stop offset="0.15" stop-opacity="0"/>
<stop offset="0.5" stop-color="#7469EE"/>
<stop offset="0.85" stop-opacity="0"/>
</linearGradient>
<linearGradient id="paint25_linear_175_41" x1="16.479" y1="8.20544" x2="37.4347" y2="8.52651" gradientUnits="userSpaceOnUse">
<stop offset="0.15" stop-opacity="0"/>
<stop offset="0.5" stop-color="#7469EE"/>
<stop offset="0.85" stop-opacity="0"/>
</linearGradient>
</defs>
</svg>
