<svg width="952" height="552" viewBox="0 0 952 552" fill="none" xmlns="http://www.w3.org/2000/svg">
<g opacity="0.45">
<path d="M952 264C952 409.803 738.888 528 476 528C213.112 528 0 409.803 0 264C0 118.197 213.112 0 476 0C738.888 0 952 118.197 952 264Z" fill="url(#paint0_radial_318_5186)"/>
</g>
<g filter="url(#filter0_ddddd_318_5186)">
<circle cx="480" cy="240" r="120" fill="url(#paint1_linear_318_5186)"/>
<circle cx="480" cy="240" r="119.5" stroke="#362CAC"/>
</g>
<path fill-rule="evenodd" clip-rule="evenodd" d="M522 219V219.632L483.144 243.544C482.198 244.126 481.11 244.434 480 244.434C478.89 244.434 477.802 244.126 476.856 243.544L438 219.632V219C438 215.817 439.264 212.765 441.515 210.515C443.765 208.264 446.817 207 450 207H510C513.183 207 516.235 208.264 518.485 210.515C520.736 212.765 522 215.817 522 219ZM438 261V226.68L473.712 248.652C475.603 249.816 477.78 250.432 480 250.432C482.22 250.432 484.397 249.816 486.288 248.652L522 226.68V261C522 264.183 520.736 267.235 518.485 269.485C516.235 271.736 513.183 273 510 273H450C446.817 273 443.765 271.736 441.515 269.485C439.264 267.235 438 264.183 438 261Z" fill="url(#paint2_linear_318_5186)"/>
<g style="mix-blend-mode:plus-lighter" opacity="0.1" filter="url(#filter1_f_318_5186)">
<path fill-rule="evenodd" clip-rule="evenodd" d="M522 219V219.632L483.144 243.544C482.198 244.126 481.11 244.434 480 244.434C478.89 244.434 477.802 244.126 476.856 243.544L438 219.632V219C438 215.817 439.264 212.765 441.515 210.515C443.765 208.264 446.817 207 450 207H510C513.183 207 516.235 208.264 518.485 210.515C520.736 212.765 522 215.817 522 219ZM438 261V226.68L473.712 248.652C475.603 249.816 477.78 250.432 480 250.432C482.22 250.432 484.397 249.816 486.288 248.652L522 226.68V261C522 264.183 520.736 267.235 518.485 269.485C516.235 271.736 513.183 273 510 273H450C446.817 273 443.765 271.736 441.515 269.485C439.264 267.235 438 264.183 438 261Z" fill="url(#paint3_linear_318_5186)"/>
</g>
<g style="mix-blend-mode:plus-lighter" opacity="0.2" filter="url(#filter2_f_318_5186)">
<path fill-rule="evenodd" clip-rule="evenodd" d="M522 219V219.632L483.144 243.544C482.198 244.126 481.11 244.434 480 244.434C478.89 244.434 477.802 244.126 476.856 243.544L438 219.632V219C438 215.817 439.264 212.765 441.515 210.515C443.765 208.264 446.817 207 450 207H510C513.183 207 516.235 208.264 518.485 210.515C520.736 212.765 522 215.817 522 219ZM438 261V226.68L473.712 248.652C475.603 249.816 477.78 250.432 480 250.432C482.22 250.432 484.397 249.816 486.288 248.652L522 226.68V261C522 264.183 520.736 267.235 518.485 269.485C516.235 271.736 513.183 273 510 273H450C446.817 273 443.765 271.736 441.515 269.485C439.264 267.235 438 264.183 438 261Z" fill="url(#paint4_linear_318_5186)"/>
</g>
<path d="M473.188 249.504L473.712 248.652L473.188 249.504C475.237 250.764 477.595 251.432 480 251.432C482.405 251.432 484.763 250.764 486.812 249.504L486.288 248.652L486.812 249.504L521 228.47V261C521 263.918 519.841 266.715 517.778 268.778C515.715 270.841 512.917 272 510 272H450C447.083 272 444.285 270.841 442.222 268.778C440.159 266.715 439 263.918 439 261V228.47L473.188 249.504Z" stroke="url(#paint5_linear_318_5186)" stroke-width="2"/>
<path d="M521 219V219.073L482.62 242.692C482.62 242.692 482.62 242.692 482.62 242.692C481.832 243.177 480.925 243.434 480 243.434C479.075 243.434 478.168 243.177 477.38 242.692C477.38 242.692 477.38 242.692 477.38 242.692L439 219.073V219C439 216.083 440.159 213.285 442.222 211.222C444.285 209.159 447.083 208 450 208H510C512.917 208 515.715 209.159 517.778 211.222C519.841 213.285 521 216.083 521 219Z" stroke="url(#paint6_linear_318_5186)" stroke-width="2"/>
<g style="mix-blend-mode:plus-lighter" filter="url(#filter3_f_318_5186)">
<circle cx="480" cy="240" r="119.5" stroke="#362CAC"/>
</g>
<g style="mix-blend-mode:plus-lighter" filter="url(#filter4_f_318_5186)">
<circle cx="480" cy="240" r="119.5" stroke="#362CAC"/>
</g>
<g opacity="0.1">
<line x1="600" y1="238" x2="840" y2="238" stroke="url(#paint7_linear_318_5186)" stroke-width="4"/>
<line x1="600" y1="238" x2="840" y2="238" stroke="url(#paint8_linear_318_5186)" stroke-width="4" style="mix-blend-mode:plus-lighter"/>
</g>
<g opacity="0.1">
<path d="M565 155L608 112H760" stroke="url(#paint9_linear_318_5186)" stroke-width="4"/>
<path d="M565 155L608 112H760" stroke="url(#paint10_linear_318_5186)" stroke-width="4" style="mix-blend-mode:plus-lighter"/>
</g>
<g opacity="0.1">
<path d="M565 323L608 366H760" stroke="url(#paint11_linear_318_5186)" stroke-width="4"/>
<path d="M565 323L608 366H760" stroke="url(#paint12_linear_318_5186)" stroke-width="4" style="mix-blend-mode:plus-lighter"/>
</g>
<g filter="url(#filter5_dddd_318_5186)">
<circle cx="800" cy="112" r="40" fill="url(#paint13_linear_318_5186)"/>
<circle cx="800" cy="112" r="40" fill="url(#paint14_linear_318_5186)" fill-opacity="0.25"/>
<circle cx="800" cy="112" r="39.5" stroke="#454547"/>
<circle cx="800" cy="112" r="39.5" stroke="url(#paint15_linear_318_5186)" stroke-opacity="0.4"/>
<circle cx="800" cy="112" r="39.5" stroke="url(#paint16_linear_318_5186)" stroke-opacity="0.4" style="mix-blend-mode:plus-lighter"/>
</g>
<g opacity="0.7">
<path d="M799.866 98C792.775 98 793.217 101.075 793.217 101.075L793.225 104.261H799.992V105.217H790.538C790.538 105.217 786 104.703 786 111.858C786 119.013 789.96 118.759 789.96 118.759H792.324V115.439C792.324 115.439 792.197 111.478 796.221 111.478H802.933C802.933 111.478 806.704 111.539 806.704 107.834V101.708C806.704 101.708 807.276 98 799.866 98ZM796.134 100.142C796.808 100.142 797.352 100.686 797.352 101.36C797.352 102.033 796.808 102.577 796.134 102.577C795.461 102.577 794.917 102.033 794.917 101.36C794.917 100.686 795.461 100.142 796.134 100.142Z" fill="#CED7FF"/>
<path d="M800.067 125.787C807.158 125.787 806.715 122.712 806.715 122.712L806.707 119.526H799.94V118.57H809.395C809.395 118.57 813.933 119.085 813.933 111.93C813.933 104.775 809.972 105.028 809.972 105.028H807.608V108.349C807.608 108.349 807.736 112.309 803.711 112.309H797C797 112.309 793.229 112.248 793.229 115.953V122.08C793.229 122.08 792.656 125.787 800.067 125.787ZM803.798 123.645C803.125 123.645 802.581 123.101 802.581 122.428C802.581 121.754 803.125 121.21 803.798 121.21C804.471 121.21 805.016 121.754 805.016 122.428C805.016 123.101 804.471 123.645 803.798 123.645Z" fill="#5914B5"/>
<g style="mix-blend-mode:plus-lighter" filter="url(#filter6_f_318_5186)">
<path d="M799.866 98C792.775 98 793.217 101.075 793.217 101.075L793.225 104.261H799.992V105.217H790.538C790.538 105.217 786 104.703 786 111.858C786 119.013 789.96 118.759 789.96 118.759H792.324V115.439C792.324 115.439 792.197 111.478 796.221 111.478H802.933C802.933 111.478 806.704 111.539 806.704 107.834V101.708C806.704 101.708 807.276 98 799.866 98ZM796.134 100.142C796.808 100.142 797.352 100.686 797.352 101.36C797.352 102.033 796.808 102.577 796.134 102.577C795.461 102.577 794.917 102.033 794.917 101.36C794.917 100.686 795.461 100.142 796.134 100.142Z" fill="#CED7FF"/>
<path d="M800.067 125.787C807.158 125.787 806.715 122.712 806.715 122.712L806.707 119.526H799.94V118.57H809.395C809.395 118.57 813.933 119.085 813.933 111.93C813.933 104.775 809.972 105.028 809.972 105.028H807.608V108.349C807.608 108.349 807.736 112.309 803.711 112.309H797C797 112.309 793.229 112.248 793.229 115.953V122.08C793.229 122.08 792.656 125.787 800.067 125.787ZM803.798 123.645C803.125 123.645 802.581 123.101 802.581 122.428C802.581 121.754 803.125 121.21 803.798 121.21C804.471 121.21 805.016 121.754 805.016 122.428C805.016 123.101 804.471 123.645 803.798 123.645Z" fill="#5914B5"/>
</g>
</g>
<g filter="url(#filter7_dddd_318_5186)">
<circle cx="40" cy="40" r="40" transform="matrix(1 0 0 -1 760 408)" fill="url(#paint17_linear_318_5186)"/>
<circle cx="40" cy="40" r="40" transform="matrix(1 0 0 -1 760 408)" fill="url(#paint18_linear_318_5186)" fill-opacity="0.25"/>
<circle cx="40" cy="40" r="39.5" transform="matrix(1 0 0 -1 760 408)" stroke="#454547"/>
<circle cx="40" cy="40" r="39.5" transform="matrix(1 0 0 -1 760 408)" stroke="url(#paint19_linear_318_5186)" stroke-opacity="0.4"/>
<circle cx="40" cy="40" r="39.5" transform="matrix(1 0 0 -1 760 408)" stroke="url(#paint20_linear_318_5186)" stroke-opacity="0.4" style="mix-blend-mode:plus-lighter"/>
</g>
<g opacity="0.7">
<path d="M814.401 384.128L793.87 357.679H790V376.067H793.095V361.609L811.973 386C812.824 385.429 813.636 384.804 814.401 384.128Z" fill="url(#paint21_linear_318_5186)"/>
<path d="M808.653 357.679H805.586V376.075H808.653V357.679Z" fill="url(#paint22_linear_318_5186)"/>
<g style="mix-blend-mode:plus-lighter" filter="url(#filter8_f_318_5186)">
<path d="M814.401 384.128L793.87 357.679H790V376.067H793.095V361.609L811.973 386C812.824 385.429 813.636 384.804 814.401 384.128Z" fill="url(#paint23_linear_318_5186)"/>
<path d="M808.653 357.679H805.586V376.075H808.653V357.679Z" fill="url(#paint24_linear_318_5186)"/>
</g>
</g>
<g filter="url(#filter9_dddd_318_5186)">
<circle cx="880" cy="240" r="40" fill="url(#paint25_linear_318_5186)"/>
<circle cx="880" cy="240" r="40" fill="url(#paint26_linear_318_5186)" fill-opacity="0.25"/>
<circle cx="880" cy="240" r="39.5" stroke="#454547"/>
<circle cx="880" cy="240" r="39.5" stroke="url(#paint27_linear_318_5186)" stroke-opacity="0.4"/>
<circle cx="880" cy="240" r="39.5" stroke="url(#paint28_linear_318_5186)" stroke-opacity="0.4" style="mix-blend-mode:plus-lighter"/>
</g>
<g opacity="0.5">
<path d="M894 240.469C894 238.614 891.677 236.856 888.116 235.766C888.938 232.137 888.572 229.25 886.963 228.325C886.592 228.108 886.158 228.006 885.684 228.006V229.278C885.947 229.278 886.158 229.33 886.335 229.427C887.111 229.872 887.448 231.567 887.185 233.746C887.123 234.283 887.02 234.848 886.894 235.424C885.776 235.15 884.554 234.939 883.27 234.802C882.5 233.746 881.701 232.788 880.896 231.949C882.757 230.22 884.503 229.273 885.69 229.273V228C884.121 228 882.066 229.118 879.989 231.059C877.911 229.13 875.857 228.023 874.287 228.023V229.295C875.468 229.295 877.221 230.237 879.081 231.955C878.282 232.793 877.483 233.746 876.724 234.802C875.434 234.939 874.213 235.15 873.094 235.43C872.963 234.859 872.866 234.306 872.797 233.775C872.529 231.595 872.86 229.9 873.631 229.449C873.802 229.347 874.024 229.301 874.287 229.301V228.029C873.808 228.029 873.374 228.131 872.997 228.348C871.393 229.273 871.034 232.154 871.861 235.772C868.311 236.868 866 238.62 866 240.469C866 242.323 868.323 244.081 871.884 245.171C871.062 248.8 871.428 251.688 873.037 252.612C873.408 252.829 873.842 252.932 874.321 252.932C875.891 252.932 877.945 251.813 880.023 249.873C882.1 251.802 884.155 252.909 885.724 252.909C886.204 252.909 886.638 252.806 887.014 252.589C888.618 251.665 888.978 248.783 888.15 245.165C891.689 244.075 894 242.317 894 240.469ZM886.569 236.662C886.358 237.399 886.095 238.157 885.799 238.916C885.565 238.46 885.319 238.003 885.051 237.547C884.788 237.09 884.509 236.645 884.229 236.212C885.04 236.331 885.821 236.48 886.569 236.662ZM883.955 242.74C883.51 243.51 883.053 244.241 882.58 244.92C881.729 244.994 880.868 245.034 880 245.034C879.138 245.034 878.276 244.994 877.432 244.925C876.958 244.246 876.496 243.522 876.051 242.757C875.617 242.009 875.223 241.25 874.863 240.486C875.217 239.721 875.617 238.956 876.045 238.209C876.49 237.438 876.947 236.708 877.42 236.029C878.271 235.955 879.132 235.915 880 235.915C880.862 235.915 881.724 235.955 882.568 236.023C883.042 236.702 883.504 237.427 883.949 238.192C884.383 238.939 884.777 239.698 885.137 240.463C884.777 241.228 884.383 241.992 883.955 242.74ZM885.799 241.998C886.107 242.763 886.369 243.527 886.586 244.269C885.839 244.452 885.051 244.606 884.235 244.726C884.514 244.286 884.794 243.835 885.057 243.373C885.319 242.917 885.565 242.454 885.799 241.998ZM880.011 248.087C879.481 247.539 878.95 246.928 878.425 246.261C878.938 246.283 879.464 246.301 879.994 246.301C880.531 246.301 881.062 246.289 881.581 246.261C881.067 246.928 880.536 247.539 880.011 248.087ZM875.765 244.726C874.955 244.606 874.173 244.457 873.425 244.275C873.636 243.539 873.899 242.78 874.196 242.021C874.43 242.477 874.675 242.934 874.943 243.39C875.212 243.847 875.486 244.292 875.765 244.726ZM879.983 232.85C880.514 233.398 881.044 234.009 881.57 234.677C881.056 234.654 880.531 234.637 880 234.637C879.464 234.637 878.933 234.648 878.413 234.677C878.927 234.009 879.458 233.398 879.983 232.85ZM875.759 236.212C875.48 236.651 875.2 237.102 874.938 237.564C874.675 238.021 874.43 238.477 874.196 238.934C873.887 238.169 873.625 237.404 873.408 236.662C874.156 236.486 874.943 236.331 875.759 236.212ZM870.594 243.356C868.574 242.494 867.267 241.365 867.267 240.469C867.267 239.573 868.574 238.437 870.594 237.581C871.085 237.37 871.622 237.182 872.175 237.005C872.501 238.123 872.929 239.287 873.459 240.48C872.934 241.667 872.512 242.825 872.192 243.938C871.627 243.761 871.091 243.567 870.594 243.356ZM873.665 251.511C872.889 251.065 872.552 249.371 872.815 247.191C872.877 246.654 872.98 246.089 873.106 245.513C874.224 245.787 875.446 245.998 876.73 246.135C877.5 247.191 878.299 248.149 879.104 248.988C877.243 250.717 875.497 251.665 874.31 251.665C874.053 251.659 873.836 251.608 873.665 251.511ZM887.203 247.162C887.471 249.342 887.14 251.037 886.369 251.488C886.198 251.59 885.976 251.636 885.713 251.636C884.532 251.636 882.779 250.695 880.919 248.977C881.718 248.138 882.517 247.185 883.276 246.129C884.566 245.992 885.787 245.781 886.906 245.502C887.037 246.078 887.14 246.632 887.203 247.162ZM889.4 243.356C888.909 243.567 888.373 243.756 887.819 243.932C887.494 242.814 887.066 241.65 886.535 240.457C887.06 239.27 887.482 238.112 887.802 236.999C888.367 237.176 888.903 237.37 889.406 237.581C891.426 238.443 892.733 239.573 892.733 240.469C892.727 241.365 891.42 242.5 889.4 243.356Z" fill="#CED7FF"/>
<path d="M879.995 243.077C881.435 243.077 882.603 241.909 882.603 240.469C882.603 239.028 881.435 237.861 879.995 237.861C878.554 237.861 877.387 239.028 877.387 240.469C877.387 241.909 878.554 243.077 879.995 243.077Z" fill="#362CAC"/>
<g style="mix-blend-mode:plus-lighter" filter="url(#filter10_f_318_5186)">
<path d="M894 240.469C894 238.614 891.677 236.856 888.116 235.766C888.938 232.137 888.572 229.25 886.963 228.325C886.592 228.108 886.158 228.006 885.684 228.006V229.278C885.947 229.278 886.158 229.33 886.335 229.427C887.111 229.872 887.448 231.567 887.185 233.746C887.123 234.283 887.02 234.848 886.894 235.424C885.776 235.15 884.554 234.939 883.27 234.802C882.5 233.746 881.701 232.788 880.896 231.949C882.757 230.22 884.503 229.273 885.69 229.273V228C884.121 228 882.066 229.118 879.989 231.059C877.911 229.13 875.857 228.023 874.287 228.023V229.295C875.468 229.295 877.221 230.237 879.081 231.955C878.282 232.793 877.483 233.746 876.724 234.802C875.434 234.939 874.213 235.15 873.094 235.43C872.963 234.859 872.866 234.306 872.797 233.775C872.529 231.595 872.86 229.9 873.631 229.449C873.802 229.347 874.024 229.301 874.287 229.301V228.029C873.808 228.029 873.374 228.131 872.997 228.348C871.393 229.273 871.034 232.154 871.861 235.772C868.311 236.868 866 238.62 866 240.469C866 242.323 868.323 244.081 871.884 245.171C871.062 248.8 871.428 251.688 873.037 252.612C873.408 252.829 873.842 252.932 874.321 252.932C875.891 252.932 877.945 251.813 880.023 249.873C882.1 251.802 884.155 252.909 885.724 252.909C886.204 252.909 886.638 252.806 887.014 252.589C888.618 251.665 888.978 248.783 888.15 245.165C891.689 244.075 894 242.317 894 240.469ZM886.569 236.662C886.358 237.399 886.095 238.157 885.799 238.916C885.565 238.46 885.319 238.003 885.051 237.547C884.788 237.09 884.509 236.645 884.229 236.212C885.04 236.331 885.821 236.48 886.569 236.662ZM883.955 242.74C883.51 243.51 883.053 244.241 882.58 244.92C881.729 244.994 880.868 245.034 880 245.034C879.138 245.034 878.276 244.994 877.432 244.925C876.958 244.246 876.496 243.522 876.051 242.757C875.617 242.009 875.223 241.25 874.863 240.486C875.217 239.721 875.617 238.956 876.045 238.209C876.49 237.438 876.947 236.708 877.42 236.029C878.271 235.955 879.132 235.915 880 235.915C880.862 235.915 881.724 235.955 882.568 236.023C883.042 236.702 883.504 237.427 883.949 238.192C884.383 238.939 884.777 239.698 885.137 240.463C884.777 241.228 884.383 241.992 883.955 242.74ZM885.799 241.998C886.107 242.763 886.369 243.527 886.586 244.269C885.839 244.452 885.051 244.606 884.235 244.726C884.514 244.286 884.794 243.835 885.057 243.373C885.319 242.917 885.565 242.454 885.799 241.998ZM880.011 248.087C879.481 247.539 878.95 246.928 878.425 246.261C878.938 246.283 879.464 246.301 879.994 246.301C880.531 246.301 881.062 246.289 881.581 246.261C881.067 246.928 880.536 247.539 880.011 248.087ZM875.765 244.726C874.955 244.606 874.173 244.457 873.425 244.275C873.636 243.539 873.899 242.78 874.196 242.021C874.43 242.477 874.675 242.934 874.943 243.39C875.212 243.847 875.486 244.292 875.765 244.726ZM879.983 232.85C880.514 233.398 881.044 234.009 881.57 234.677C881.056 234.654 880.531 234.637 880 234.637C879.464 234.637 878.933 234.648 878.413 234.677C878.927 234.009 879.458 233.398 879.983 232.85ZM875.759 236.212C875.48 236.651 875.2 237.102 874.938 237.564C874.675 238.021 874.43 238.477 874.196 238.934C873.887 238.169 873.625 237.404 873.408 236.662C874.156 236.486 874.943 236.331 875.759 236.212ZM870.594 243.356C868.574 242.494 867.267 241.365 867.267 240.469C867.267 239.573 868.574 238.437 870.594 237.581C871.085 237.37 871.622 237.182 872.175 237.005C872.501 238.123 872.929 239.287 873.459 240.48C872.934 241.667 872.512 242.825 872.192 243.938C871.627 243.761 871.091 243.567 870.594 243.356ZM873.665 251.511C872.889 251.065 872.552 249.371 872.815 247.191C872.877 246.654 872.98 246.089 873.106 245.513C874.224 245.787 875.446 245.998 876.73 246.135C877.5 247.191 878.299 248.149 879.104 248.988C877.243 250.717 875.497 251.665 874.31 251.665C874.053 251.659 873.836 251.608 873.665 251.511ZM887.203 247.162C887.471 249.342 887.14 251.037 886.369 251.488C886.198 251.59 885.976 251.636 885.713 251.636C884.532 251.636 882.779 250.695 880.919 248.977C881.718 248.138 882.517 247.185 883.276 246.129C884.566 245.992 885.787 245.781 886.906 245.502C887.037 246.078 887.14 246.632 887.203 247.162ZM889.4 243.356C888.909 243.567 888.373 243.756 887.819 243.932C887.494 242.814 887.066 241.65 886.535 240.457C887.06 239.27 887.482 238.112 887.802 236.999C888.367 237.176 888.903 237.37 889.406 237.581C891.426 238.443 892.733 239.573 892.733 240.469C892.727 241.365 891.42 242.5 889.4 243.356Z" fill="#CED7FF"/>
<path d="M879.995 243.077C881.435 243.077 882.603 241.909 882.603 240.469C882.603 239.028 881.435 237.861 879.995 237.861C878.554 237.861 877.387 239.028 877.387 240.469C877.387 241.909 878.554 243.077 879.995 243.077Z" fill="#362CAC"/>
</g>
</g>
<g opacity="0.1">
<line y1="-2" x2="240" y2="-2" transform="matrix(-1 0 0 1 360 240)" stroke="url(#paint29_linear_318_5186)" stroke-width="4"/>
<line y1="-2" x2="240" y2="-2" transform="matrix(-1 0 0 1 360 240)" stroke="url(#paint30_linear_318_5186)" stroke-width="4" style="mix-blend-mode:plus-lighter"/>
</g>
<g opacity="0.1">
<path d="M395 155L352 112H200" stroke="url(#paint31_linear_318_5186)" stroke-width="4"/>
<path d="M395 155L352 112H200" stroke="url(#paint32_linear_318_5186)" stroke-width="4" style="mix-blend-mode:plus-lighter"/>
</g>
<g opacity="0.1">
<path d="M395 323L352 366H200" stroke="url(#paint33_linear_318_5186)" stroke-width="4"/>
<path d="M395 323L352 366H200" stroke="url(#paint34_linear_318_5186)" stroke-width="4" style="mix-blend-mode:plus-lighter"/>
</g>
<g filter="url(#filter11_dddd_318_5186)">
<circle cx="40" cy="40" r="40" transform="matrix(-1 0 0 1 200 72)" fill="url(#paint35_linear_318_5186)"/>
<circle cx="40" cy="40" r="40" transform="matrix(-1 0 0 1 200 72)" fill="url(#paint36_linear_318_5186)" fill-opacity="0.25"/>
<circle cx="40" cy="40" r="39.5" transform="matrix(-1 0 0 1 200 72)" stroke="#454547"/>
<circle cx="40" cy="40" r="39.5" transform="matrix(-1 0 0 1 200 72)" stroke="url(#paint37_linear_318_5186)" stroke-opacity="0.4"/>
<circle cx="40" cy="40" r="39.5" transform="matrix(-1 0 0 1 200 72)" stroke="url(#paint38_linear_318_5186)" stroke-opacity="0.4" style="mix-blend-mode:plus-lighter"/>
</g>
<g opacity="0.7">
<path d="M157.859 99H162.435V119.973C160.091 120.417 158.365 120.591 156.498 120.591C150.909 120.585 148 118.089 148 113.293C148 108.673 151.086 105.674 155.868 105.674C156.61 105.674 157.176 105.732 157.859 105.907V99ZM158.019 109.687C157.483 109.512 157.042 109.454 156.476 109.454C154.162 109.454 152.825 110.865 152.825 113.34C152.825 115.748 154.103 117.079 156.447 117.079C156.953 117.079 157.365 117.05 158.019 116.962V109.687Z" fill="#CED7FF"/>
<path d="M169.917 106.237V116.738C169.917 120.355 169.646 122.094 168.851 123.593C168.109 125.035 167.132 125.944 165.111 126.948L160.865 124.947C162.885 124.008 163.863 123.178 164.487 121.912C165.141 120.618 165.347 119.119 165.347 115.175V106.237H169.917Z" fill="#5914B5"/>
<path d="M164.887 99H169.463V103.65H164.887V99Z" fill="#5914B5"/>
<g style="mix-blend-mode:plus-lighter" filter="url(#filter12_f_318_5186)">
<path d="M157.859 99H162.435V119.973C160.091 120.417 158.365 120.591 156.498 120.591C150.909 120.585 148 118.089 148 113.293C148 108.673 151.086 105.674 155.868 105.674C156.61 105.674 157.176 105.732 157.859 105.907V99ZM158.019 109.687C157.483 109.512 157.042 109.454 156.476 109.454C154.162 109.454 152.825 110.865 152.825 113.34C152.825 115.748 154.103 117.079 156.447 117.079C156.953 117.079 157.365 117.05 158.019 116.962V109.687Z" fill="#CED7FF"/>
<path d="M169.917 106.237V116.738C169.917 120.355 169.646 122.094 168.851 123.593C168.109 125.035 167.132 125.944 165.111 126.948L160.865 124.947C162.885 124.008 163.863 123.178 164.487 121.912C165.141 120.618 165.347 119.119 165.347 115.175V106.237H169.917Z" fill="#5914B5"/>
<path d="M164.887 99H169.463V103.65H164.887V99Z" fill="#5914B5"/>
</g>
</g>
<g filter="url(#filter13_dddd_318_5186)">
<circle cx="160" cy="368" r="40" transform="rotate(180 160 368)" fill="url(#paint39_linear_318_5186)"/>
<circle cx="160" cy="368" r="40" transform="rotate(180 160 368)" fill="url(#paint40_linear_318_5186)" fill-opacity="0.25"/>
<circle cx="160" cy="368" r="39.5" transform="rotate(180 160 368)" stroke="#454547"/>
<circle cx="160" cy="368" r="39.5" transform="rotate(180 160 368)" stroke="url(#paint41_linear_318_5186)" stroke-opacity="0.4"/>
<circle cx="160" cy="368" r="39.5" transform="rotate(180 160 368)" stroke="url(#paint42_linear_318_5186)" stroke-opacity="0.4" style="mix-blend-mode:plus-lighter"/>
</g>
<g opacity="0.7">
<path d="M159.597 368.708C159.649 367.78 160.106 366.963 160.796 366.383C161.473 365.814 162.384 365.466 163.377 365.466C164.37 365.466 165.281 365.814 165.958 366.383C166.647 366.963 167.104 367.78 167.157 368.707C167.21 369.661 166.824 370.547 166.147 371.203C165.457 371.871 164.476 372.29 163.377 372.29C162.278 372.29 161.295 371.871 160.606 371.203C159.928 370.547 159.544 369.661 159.597 368.708Z" fill="#362CAC"/>
<path d="M153.576 370.583C153.583 370.946 153.699 371.652 153.874 372.203C154.241 373.37 154.865 374.449 155.732 375.4C156.622 376.378 157.718 377.163 158.984 377.72C160.314 378.306 161.756 378.604 163.253 378.602C164.748 378.6 166.19 378.296 167.52 377.706C168.786 377.143 169.881 376.354 170.769 375.376C171.636 374.421 172.258 373.34 172.627 372.173C172.812 371.584 172.929 370.986 172.976 370.386C173.022 369.794 173.002 369.202 172.918 368.61C172.753 367.457 172.351 366.375 171.733 365.388C171.168 364.482 170.439 363.688 169.572 363.02L169.574 363.019L160.827 356.345C160.819 356.339 160.813 356.333 160.804 356.327C160.231 355.89 159.266 355.891 158.634 356.33C157.996 356.774 157.923 357.507 158.491 357.97L158.489 357.972L162.137 360.92L151.017 360.932H151.003C150.084 360.933 149.2 361.532 149.025 362.29C148.845 363.061 149.47 363.701 150.425 363.704L150.424 363.708L156.06 363.697L146.003 371.368C145.99 371.377 145.976 371.387 145.964 371.397C145.015 372.118 144.709 373.319 145.306 374.078C145.913 374.851 147.202 374.852 148.161 374.083L153.65 369.619C153.65 369.619 153.57 370.222 153.576 370.583ZM167.68 372.601C166.55 373.746 164.966 374.396 163.253 374.399C161.537 374.402 159.954 373.759 158.823 372.616C158.27 372.059 157.864 371.418 157.614 370.735C157.369 370.064 157.273 369.352 157.336 368.634C157.396 367.931 157.607 367.261 157.942 366.655C158.272 366.06 158.727 365.521 159.288 365.066C160.387 364.176 161.787 363.694 163.251 363.692C164.716 363.69 166.114 364.167 167.215 365.055C167.775 365.508 168.229 366.044 168.559 366.639C168.896 367.245 169.105 367.912 169.167 368.616C169.229 369.334 169.134 370.045 168.888 370.716C168.638 371.401 168.233 372.042 167.68 372.601Z" fill="#CED7FF"/>
<g style="mix-blend-mode:plus-lighter" filter="url(#filter14_f_318_5186)">
<path d="M159.597 368.708C159.649 367.78 160.106 366.963 160.796 366.383C161.473 365.814 162.384 365.466 163.377 365.466C164.37 365.466 165.281 365.814 165.958 366.383C166.647 366.963 167.104 367.78 167.157 368.707C167.21 369.661 166.824 370.547 166.147 371.203C165.457 371.871 164.476 372.29 163.377 372.29C162.278 372.29 161.295 371.871 160.606 371.203C159.928 370.547 159.544 369.661 159.597 368.708Z" fill="#362CAC"/>
<path d="M153.576 370.583C153.583 370.946 153.699 371.652 153.874 372.203C154.241 373.37 154.865 374.449 155.732 375.4C156.622 376.378 157.718 377.163 158.984 377.72C160.314 378.306 161.756 378.604 163.253 378.602C164.748 378.6 166.19 378.296 167.52 377.706C168.786 377.143 169.881 376.354 170.769 375.376C171.636 374.421 172.258 373.34 172.627 372.173C172.812 371.584 172.929 370.986 172.976 370.386C173.022 369.794 173.002 369.202 172.918 368.61C172.753 367.457 172.351 366.375 171.733 365.388C171.168 364.482 170.439 363.688 169.572 363.02L169.574 363.019L160.827 356.345C160.819 356.339 160.813 356.333 160.804 356.327C160.231 355.89 159.266 355.891 158.634 356.33C157.996 356.774 157.923 357.507 158.491 357.97L158.489 357.972L162.137 360.92L151.017 360.932H151.003C150.084 360.933 149.2 361.532 149.025 362.29C148.845 363.061 149.47 363.701 150.425 363.704L150.424 363.708L156.06 363.697L146.003 371.368C145.99 371.377 145.976 371.387 145.964 371.397C145.015 372.118 144.709 373.319 145.306 374.078C145.913 374.851 147.202 374.852 148.161 374.083L153.65 369.619C153.65 369.619 153.57 370.222 153.576 370.583ZM167.68 372.601C166.55 373.746 164.966 374.396 163.253 374.399C161.537 374.402 159.954 373.759 158.823 372.616C158.27 372.059 157.864 371.418 157.614 370.735C157.369 370.064 157.273 369.352 157.336 368.634C157.396 367.931 157.607 367.261 157.942 366.655C158.272 366.06 158.727 365.521 159.288 365.066C160.387 364.176 161.787 363.694 163.251 363.692C164.716 363.69 166.114 364.167 167.215 365.055C167.775 365.508 168.229 366.044 168.559 366.639C168.896 367.245 169.105 367.912 169.167 368.616C169.229 369.334 169.134 370.045 168.888 370.716C168.638 371.401 168.233 372.042 167.68 372.601Z" fill="#CED7FF"/>
</g>
</g>
<g filter="url(#filter15_dddd_318_5186)">
<circle cx="40" cy="40" r="40" transform="matrix(-1 0 0 1 120 200)" fill="url(#paint43_linear_318_5186)"/>
<circle cx="40" cy="40" r="40" transform="matrix(-1 0 0 1 120 200)" fill="url(#paint44_linear_318_5186)" fill-opacity="0.25"/>
<circle cx="40" cy="40" r="39.5" transform="matrix(-1 0 0 1 120 200)" stroke="#454547"/>
<circle cx="40" cy="40" r="39.5" transform="matrix(-1 0 0 1 120 200)" stroke="url(#paint45_linear_318_5186)" stroke-opacity="0.4"/>
<circle cx="40" cy="40" r="39.5" transform="matrix(-1 0 0 1 120 200)" stroke="url(#paint46_linear_318_5186)" stroke-opacity="0.4" style="mix-blend-mode:plus-lighter"/>
</g>
<g opacity="0.5">
<path fill-rule="evenodd" clip-rule="evenodd" d="M74.9165 255L68 227L95.7263 234.983L74.9165 255Z" stroke="#CED7FF" stroke-miterlimit="10" stroke-linejoin="round"/>
<path fill-rule="evenodd" clip-rule="evenodd" d="M81.8587 230.992L85.3145 244.996L71.459 241.004L81.8587 230.992Z" stroke="#CED7FF" stroke-miterlimit="10" stroke-linejoin="round"/>
<path fill-rule="evenodd" clip-rule="evenodd" d="M78.4196 242.903L76.7031 235.946L83.5868 237.922L78.4196 242.903Z" stroke="#CED7FF" stroke-miterlimit="10" stroke-linejoin="round"/>
<path fill-rule="evenodd" clip-rule="evenodd" d="M74.9875 228.998L76.704 235.955L69.8203 233.979L74.9875 228.998Z" stroke="#CED7FF" stroke-miterlimit="10" stroke-linejoin="round"/>
<path fill-rule="evenodd" clip-rule="evenodd" d="M88.7531 232.964L90.4696 239.921L83.5859 237.945L88.7531 232.964Z" stroke="#CED7FF" stroke-miterlimit="10" stroke-linejoin="round"/>
<path fill-rule="evenodd" clip-rule="evenodd" d="M78.4211 242.908L80.1375 249.864L73.2539 247.888L78.4211 242.908Z" stroke="#CED7FF" stroke-miterlimit="10" stroke-linejoin="round"/>
<g style="mix-blend-mode:plus-lighter" filter="url(#filter16_f_318_5186)">
<path fill-rule="evenodd" clip-rule="evenodd" d="M74.9165 255L68 227L95.7263 234.983L74.9165 255Z" stroke="#CED7FF" stroke-miterlimit="10" stroke-linejoin="round"/>
<path fill-rule="evenodd" clip-rule="evenodd" d="M81.8587 230.992L85.3145 244.996L71.459 241.004L81.8587 230.992Z" stroke="#CED7FF" stroke-miterlimit="10" stroke-linejoin="round"/>
<path fill-rule="evenodd" clip-rule="evenodd" d="M78.4196 242.903L76.7031 235.946L83.5868 237.922L78.4196 242.903Z" stroke="#CED7FF" stroke-miterlimit="10" stroke-linejoin="round"/>
<path fill-rule="evenodd" clip-rule="evenodd" d="M74.9875 228.998L76.704 235.955L69.8203 233.979L74.9875 228.998Z" stroke="#CED7FF" stroke-miterlimit="10" stroke-linejoin="round"/>
<path fill-rule="evenodd" clip-rule="evenodd" d="M88.7531 232.964L90.4696 239.921L83.5859 237.945L88.7531 232.964Z" stroke="#CED7FF" stroke-miterlimit="10" stroke-linejoin="round"/>
<path fill-rule="evenodd" clip-rule="evenodd" d="M78.4211 242.908L80.1375 249.864L73.2539 247.888L78.4211 242.908Z" stroke="#CED7FF" stroke-miterlimit="10" stroke-linejoin="round"/>
</g>
</g>
<circle cx="480" cy="240" r="2" fill="#D9D9D9"/>
<g opacity="0.8">
<path d="M478 528C478 529.105 478.895 530 480 530C481.105 530 482 529.105 482 528L478 528ZM482 528L482 360L478 360L478 528L482 528Z" fill="url(#paint47_linear_318_5186)"/>
<path d="M478 528C478 529.105 478.895 530 480 530C481.105 530 482 529.105 482 528L478 528ZM482 528L482 360L478 360L478 528L482 528Z" fill="url(#paint48_linear_318_5186)" style="mix-blend-mode:plus-lighter"/>
</g>
<g style="mix-blend-mode:plus-lighter" opacity="0.4" filter="url(#filter17_f_318_5186)">
<path d="M478 528C478 529.105 478.895 530 480 530C481.105 530 482 529.105 482 528L478 528ZM482 528L482 360L478 360L478 528L482 528Z" fill="url(#paint49_linear_318_5186)"/>
<path d="M478 528C478 529.105 478.895 530 480 530C481.105 530 482 529.105 482 528L478 528ZM482 528L482 360L478 360L478 528L482 528Z" fill="url(#paint50_linear_318_5186)" style="mix-blend-mode:plus-lighter"/>
</g>
<g style="mix-blend-mode:plus-lighter" opacity="0.4" filter="url(#filter18_f_318_5186)">
<path d="M478 528C478 529.105 478.895 530 480 530C481.105 530 482 529.105 482 528L478 528ZM482 528L482 360L478 360L478 528L482 528Z" fill="url(#paint51_linear_318_5186)"/>
<path d="M478 528C478 529.105 478.895 530 480 530C481.105 530 482 529.105 482 528L478 528ZM482 528L482 360L478 360L478 528L482 528Z" fill="url(#paint52_linear_318_5186)" style="mix-blend-mode:plus-lighter"/>
</g>
<defs>
<filter id="filter0_ddddd_318_5186" x="318" y="113" width="324" height="439" filterUnits="userSpaceOnUse" color-interpolation-filters="sRGB">
<feFlood flood-opacity="0" result="BackgroundImageFix"/>
<feColorMatrix in="SourceAlpha" type="matrix" values="0 0 0 0 0 0 0 0 0 0 0 0 0 0 0 0 0 0 127 0" result="hardAlpha"/>
<feOffset dy="6"/>
<feGaussianBlur stdDeviation="6.5"/>
<feColorMatrix type="matrix" values="0 0 0 0 0 0 0 0 0 0 0 0 0 0 0 0 0 0 0.34 0"/>
<feBlend mode="normal" in2="BackgroundImageFix" result="effect1_dropShadow_318_5186"/>
<feColorMatrix in="SourceAlpha" type="matrix" values="0 0 0 0 0 0 0 0 0 0 0 0 0 0 0 0 0 0 127 0" result="hardAlpha"/>
<feOffset dy="24"/>
<feGaussianBlur stdDeviation="12"/>
<feColorMatrix type="matrix" values="0 0 0 0 0 0 0 0 0 0 0 0 0 0 0 0 0 0 0.3 0"/>
<feBlend mode="normal" in2="effect1_dropShadow_318_5186" result="effect2_dropShadow_318_5186"/>
<feColorMatrix in="SourceAlpha" type="matrix" values="0 0 0 0 0 0 0 0 0 0 0 0 0 0 0 0 0 0 127 0" result="hardAlpha"/>
<feOffset dy="54"/>
<feGaussianBlur stdDeviation="16"/>
<feColorMatrix type="matrix" values="0 0 0 0 0 0 0 0 0 0 0 0 0 0 0 0 0 0 0.18 0"/>
<feBlend mode="normal" in2="effect2_dropShadow_318_5186" result="effect3_dropShadow_318_5186"/>
<feColorMatrix in="SourceAlpha" type="matrix" values="0 0 0 0 0 0 0 0 0 0 0 0 0 0 0 0 0 0 127 0" result="hardAlpha"/>
<feOffset dy="96"/>
<feGaussianBlur stdDeviation="19"/>
<feColorMatrix type="matrix" values="0 0 0 0 0 0 0 0 0 0 0 0 0 0 0 0 0 0 0.05 0"/>
<feBlend mode="normal" in2="effect3_dropShadow_318_5186" result="effect4_dropShadow_318_5186"/>
<feColorMatrix in="SourceAlpha" type="matrix" values="0 0 0 0 0 0 0 0 0 0 0 0 0 0 0 0 0 0 127 0" result="hardAlpha"/>
<feOffset dy="150"/>
<feGaussianBlur stdDeviation="21"/>
<feColorMatrix type="matrix" values="0 0 0 0 0 0 0 0 0 0 0 0 0 0 0 0 0 0 0.01 0"/>
<feBlend mode="normal" in2="effect4_dropShadow_318_5186" result="effect5_dropShadow_318_5186"/>
<feBlend mode="normal" in="SourceGraphic" in2="effect5_dropShadow_318_5186" result="shape"/>
</filter>
<filter id="filter1_f_318_5186" x="422" y="191" width="116" height="98" filterUnits="userSpaceOnUse" color-interpolation-filters="sRGB">
<feFlood flood-opacity="0" result="BackgroundImageFix"/>
<feBlend mode="normal" in="SourceGraphic" in2="BackgroundImageFix" result="shape"/>
<feGaussianBlur stdDeviation="8" result="effect1_foregroundBlur_318_5186"/>
</filter>
<filter id="filter2_f_318_5186" x="406" y="175" width="148" height="130" filterUnits="userSpaceOnUse" color-interpolation-filters="sRGB">
<feFlood flood-opacity="0" result="BackgroundImageFix"/>
<feBlend mode="normal" in="SourceGraphic" in2="BackgroundImageFix" result="shape"/>
<feGaussianBlur stdDeviation="16" result="effect1_foregroundBlur_318_5186"/>
</filter>
<filter id="filter3_f_318_5186" x="356" y="116" width="248" height="248" filterUnits="userSpaceOnUse" color-interpolation-filters="sRGB">
<feFlood flood-opacity="0" result="BackgroundImageFix"/>
<feBlend mode="normal" in="SourceGraphic" in2="BackgroundImageFix" result="shape"/>
<feGaussianBlur stdDeviation="2" result="effect1_foregroundBlur_318_5186"/>
</filter>
<filter id="filter4_f_318_5186" x="352" y="112" width="256" height="256" filterUnits="userSpaceOnUse" color-interpolation-filters="sRGB">
<feFlood flood-opacity="0" result="BackgroundImageFix"/>
<feBlend mode="normal" in="SourceGraphic" in2="BackgroundImageFix" result="shape"/>
<feGaussianBlur stdDeviation="4" result="effect1_foregroundBlur_318_5186"/>
</filter>
<filter id="filter5_dddd_318_5186" x="747" y="70" width="106" height="127" filterUnits="userSpaceOnUse" color-interpolation-filters="sRGB">
<feFlood flood-opacity="0" result="BackgroundImageFix"/>
<feColorMatrix in="SourceAlpha" type="matrix" values="0 0 0 0 0 0 0 0 0 0 0 0 0 0 0 0 0 0 127 0" result="hardAlpha"/>
<feOffset dy="2"/>
<feGaussianBlur stdDeviation="2"/>
<feColorMatrix type="matrix" values="0 0 0 0 0 0 0 0 0 0 0 0 0 0 0 0 0 0 0.25 0"/>
<feBlend mode="normal" in2="BackgroundImageFix" result="effect1_dropShadow_318_5186"/>
<feColorMatrix in="SourceAlpha" type="matrix" values="0 0 0 0 0 0 0 0 0 0 0 0 0 0 0 0 0 0 127 0" result="hardAlpha"/>
<feOffset dy="8"/>
<feGaussianBlur stdDeviation="4"/>
<feColorMatrix type="matrix" values="0 0 0 0 0 0 0 0 0 0 0 0 0 0 0 0 0 0 0.21 0"/>
<feBlend mode="normal" in2="effect1_dropShadow_318_5186" result="effect2_dropShadow_318_5186"/>
<feColorMatrix in="SourceAlpha" type="matrix" values="0 0 0 0 0 0 0 0 0 0 0 0 0 0 0 0 0 0 127 0" result="hardAlpha"/>
<feOffset dy="18"/>
<feGaussianBlur stdDeviation="5.5"/>
<feColorMatrix type="matrix" values="0 0 0 0 0 0 0 0 0 0 0 0 0 0 0 0 0 0 0.13 0"/>
<feBlend mode="normal" in2="effect2_dropShadow_318_5186" result="effect3_dropShadow_318_5186"/>
<feColorMatrix in="SourceAlpha" type="matrix" values="0 0 0 0 0 0 0 0 0 0 0 0 0 0 0 0 0 0 127 0" result="hardAlpha"/>
<feOffset dy="32"/>
<feGaussianBlur stdDeviation="6.5"/>
<feColorMatrix type="matrix" values="0 0 0 0 0 0 0 0 0 0 0 0 0 0 0 0 0 0 0.04 0"/>
<feBlend mode="normal" in2="effect3_dropShadow_318_5186" result="effect4_dropShadow_318_5186"/>
<feBlend mode="normal" in="SourceGraphic" in2="effect4_dropShadow_318_5186" result="shape"/>
</filter>
<filter id="filter6_f_318_5186" x="778" y="90" width="43.9316" height="43.7871" filterUnits="userSpaceOnUse" color-interpolation-filters="sRGB">
<feFlood flood-opacity="0" result="BackgroundImageFix"/>
<feBlend mode="normal" in="SourceGraphic" in2="BackgroundImageFix" result="shape"/>
<feGaussianBlur stdDeviation="4" result="effect1_foregroundBlur_318_5186"/>
</filter>
<filter id="filter7_dddd_318_5186" x="747" y="326" width="106" height="127" filterUnits="userSpaceOnUse" color-interpolation-filters="sRGB">
<feFlood flood-opacity="0" result="BackgroundImageFix"/>
<feColorMatrix in="SourceAlpha" type="matrix" values="0 0 0 0 0 0 0 0 0 0 0 0 0 0 0 0 0 0 127 0" result="hardAlpha"/>
<feOffset dy="2"/>
<feGaussianBlur stdDeviation="2"/>
<feColorMatrix type="matrix" values="0 0 0 0 0 0 0 0 0 0 0 0 0 0 0 0 0 0 0.25 0"/>
<feBlend mode="normal" in2="BackgroundImageFix" result="effect1_dropShadow_318_5186"/>
<feColorMatrix in="SourceAlpha" type="matrix" values="0 0 0 0 0 0 0 0 0 0 0 0 0 0 0 0 0 0 127 0" result="hardAlpha"/>
<feOffset dy="8"/>
<feGaussianBlur stdDeviation="4"/>
<feColorMatrix type="matrix" values="0 0 0 0 0 0 0 0 0 0 0 0 0 0 0 0 0 0 0.21 0"/>
<feBlend mode="normal" in2="effect1_dropShadow_318_5186" result="effect2_dropShadow_318_5186"/>
<feColorMatrix in="SourceAlpha" type="matrix" values="0 0 0 0 0 0 0 0 0 0 0 0 0 0 0 0 0 0 127 0" result="hardAlpha"/>
<feOffset dy="18"/>
<feGaussianBlur stdDeviation="5.5"/>
<feColorMatrix type="matrix" values="0 0 0 0 0 0 0 0 0 0 0 0 0 0 0 0 0 0 0.13 0"/>
<feBlend mode="normal" in2="effect2_dropShadow_318_5186" result="effect3_dropShadow_318_5186"/>
<feColorMatrix in="SourceAlpha" type="matrix" values="0 0 0 0 0 0 0 0 0 0 0 0 0 0 0 0 0 0 127 0" result="hardAlpha"/>
<feOffset dy="32"/>
<feGaussianBlur stdDeviation="6.5"/>
<feColorMatrix type="matrix" values="0 0 0 0 0 0 0 0 0 0 0 0 0 0 0 0 0 0 0.04 0"/>
<feBlend mode="normal" in2="effect3_dropShadow_318_5186" result="effect4_dropShadow_318_5186"/>
<feBlend mode="normal" in="SourceGraphic" in2="effect4_dropShadow_318_5186" result="shape"/>
</filter>
<filter id="filter8_f_318_5186" x="782" y="349.679" width="40.4023" height="44.3213" filterUnits="userSpaceOnUse" color-interpolation-filters="sRGB">
<feFlood flood-opacity="0" result="BackgroundImageFix"/>
<feBlend mode="normal" in="SourceGraphic" in2="BackgroundImageFix" result="shape"/>
<feGaussianBlur stdDeviation="4" result="effect1_foregroundBlur_318_5186"/>
</filter>
<filter id="filter9_dddd_318_5186" x="827" y="198" width="106" height="127" filterUnits="userSpaceOnUse" color-interpolation-filters="sRGB">
<feFlood flood-opacity="0" result="BackgroundImageFix"/>
<feColorMatrix in="SourceAlpha" type="matrix" values="0 0 0 0 0 0 0 0 0 0 0 0 0 0 0 0 0 0 127 0" result="hardAlpha"/>
<feOffset dy="2"/>
<feGaussianBlur stdDeviation="2"/>
<feColorMatrix type="matrix" values="0 0 0 0 0 0 0 0 0 0 0 0 0 0 0 0 0 0 0.25 0"/>
<feBlend mode="normal" in2="BackgroundImageFix" result="effect1_dropShadow_318_5186"/>
<feColorMatrix in="SourceAlpha" type="matrix" values="0 0 0 0 0 0 0 0 0 0 0 0 0 0 0 0 0 0 127 0" result="hardAlpha"/>
<feOffset dy="8"/>
<feGaussianBlur stdDeviation="4"/>
<feColorMatrix type="matrix" values="0 0 0 0 0 0 0 0 0 0 0 0 0 0 0 0 0 0 0.21 0"/>
<feBlend mode="normal" in2="effect1_dropShadow_318_5186" result="effect2_dropShadow_318_5186"/>
<feColorMatrix in="SourceAlpha" type="matrix" values="0 0 0 0 0 0 0 0 0 0 0 0 0 0 0 0 0 0 127 0" result="hardAlpha"/>
<feOffset dy="18"/>
<feGaussianBlur stdDeviation="5.5"/>
<feColorMatrix type="matrix" values="0 0 0 0 0 0 0 0 0 0 0 0 0 0 0 0 0 0 0.13 0"/>
<feBlend mode="normal" in2="effect2_dropShadow_318_5186" result="effect3_dropShadow_318_5186"/>
<feColorMatrix in="SourceAlpha" type="matrix" values="0 0 0 0 0 0 0 0 0 0 0 0 0 0 0 0 0 0 127 0" result="hardAlpha"/>
<feOffset dy="32"/>
<feGaussianBlur stdDeviation="6.5"/>
<feColorMatrix type="matrix" values="0 0 0 0 0 0 0 0 0 0 0 0 0 0 0 0 0 0 0.04 0"/>
<feBlend mode="normal" in2="effect3_dropShadow_318_5186" result="effect4_dropShadow_318_5186"/>
<feBlend mode="normal" in="SourceGraphic" in2="effect4_dropShadow_318_5186" result="shape"/>
</filter>
<filter id="filter10_f_318_5186" x="858" y="220" width="44" height="40.9316" filterUnits="userSpaceOnUse" color-interpolation-filters="sRGB">
<feFlood flood-opacity="0" result="BackgroundImageFix"/>
<feBlend mode="normal" in="SourceGraphic" in2="BackgroundImageFix" result="shape"/>
<feGaussianBlur stdDeviation="4" result="effect1_foregroundBlur_318_5186"/>
</filter>
<filter id="filter11_dddd_318_5186" x="107" y="70" width="106" height="127" filterUnits="userSpaceOnUse" color-interpolation-filters="sRGB">
<feFlood flood-opacity="0" result="BackgroundImageFix"/>
<feColorMatrix in="SourceAlpha" type="matrix" values="0 0 0 0 0 0 0 0 0 0 0 0 0 0 0 0 0 0 127 0" result="hardAlpha"/>
<feOffset dy="2"/>
<feGaussianBlur stdDeviation="2"/>
<feColorMatrix type="matrix" values="0 0 0 0 0 0 0 0 0 0 0 0 0 0 0 0 0 0 0.25 0"/>
<feBlend mode="normal" in2="BackgroundImageFix" result="effect1_dropShadow_318_5186"/>
<feColorMatrix in="SourceAlpha" type="matrix" values="0 0 0 0 0 0 0 0 0 0 0 0 0 0 0 0 0 0 127 0" result="hardAlpha"/>
<feOffset dy="8"/>
<feGaussianBlur stdDeviation="4"/>
<feColorMatrix type="matrix" values="0 0 0 0 0 0 0 0 0 0 0 0 0 0 0 0 0 0 0.21 0"/>
<feBlend mode="normal" in2="effect1_dropShadow_318_5186" result="effect2_dropShadow_318_5186"/>
<feColorMatrix in="SourceAlpha" type="matrix" values="0 0 0 0 0 0 0 0 0 0 0 0 0 0 0 0 0 0 127 0" result="hardAlpha"/>
<feOffset dy="18"/>
<feGaussianBlur stdDeviation="5.5"/>
<feColorMatrix type="matrix" values="0 0 0 0 0 0 0 0 0 0 0 0 0 0 0 0 0 0 0.13 0"/>
<feBlend mode="normal" in2="effect2_dropShadow_318_5186" result="effect3_dropShadow_318_5186"/>
<feColorMatrix in="SourceAlpha" type="matrix" values="0 0 0 0 0 0 0 0 0 0 0 0 0 0 0 0 0 0 127 0" result="hardAlpha"/>
<feOffset dy="32"/>
<feGaussianBlur stdDeviation="6.5"/>
<feColorMatrix type="matrix" values="0 0 0 0 0 0 0 0 0 0 0 0 0 0 0 0 0 0 0.04 0"/>
<feBlend mode="normal" in2="effect3_dropShadow_318_5186" result="effect4_dropShadow_318_5186"/>
<feBlend mode="normal" in="SourceGraphic" in2="effect4_dropShadow_318_5186" result="shape"/>
</filter>
<filter id="filter12_f_318_5186" x="140" y="91" width="37.918" height="43.9478" filterUnits="userSpaceOnUse" color-interpolation-filters="sRGB">
<feFlood flood-opacity="0" result="BackgroundImageFix"/>
<feBlend mode="normal" in="SourceGraphic" in2="BackgroundImageFix" result="shape"/>
<feGaussianBlur stdDeviation="4" result="effect1_foregroundBlur_318_5186"/>
</filter>
<filter id="filter13_dddd_318_5186" x="107" y="326" width="106" height="127" filterUnits="userSpaceOnUse" color-interpolation-filters="sRGB">
<feFlood flood-opacity="0" result="BackgroundImageFix"/>
<feColorMatrix in="SourceAlpha" type="matrix" values="0 0 0 0 0 0 0 0 0 0 0 0 0 0 0 0 0 0 127 0" result="hardAlpha"/>
<feOffset dy="2"/>
<feGaussianBlur stdDeviation="2"/>
<feColorMatrix type="matrix" values="0 0 0 0 0 0 0 0 0 0 0 0 0 0 0 0 0 0 0.25 0"/>
<feBlend mode="normal" in2="BackgroundImageFix" result="effect1_dropShadow_318_5186"/>
<feColorMatrix in="SourceAlpha" type="matrix" values="0 0 0 0 0 0 0 0 0 0 0 0 0 0 0 0 0 0 127 0" result="hardAlpha"/>
<feOffset dy="8"/>
<feGaussianBlur stdDeviation="4"/>
<feColorMatrix type="matrix" values="0 0 0 0 0 0 0 0 0 0 0 0 0 0 0 0 0 0 0.21 0"/>
<feBlend mode="normal" in2="effect1_dropShadow_318_5186" result="effect2_dropShadow_318_5186"/>
<feColorMatrix in="SourceAlpha" type="matrix" values="0 0 0 0 0 0 0 0 0 0 0 0 0 0 0 0 0 0 127 0" result="hardAlpha"/>
<feOffset dy="18"/>
<feGaussianBlur stdDeviation="5.5"/>
<feColorMatrix type="matrix" values="0 0 0 0 0 0 0 0 0 0 0 0 0 0 0 0 0 0 0.13 0"/>
<feBlend mode="normal" in2="effect2_dropShadow_318_5186" result="effect3_dropShadow_318_5186"/>
<feColorMatrix in="SourceAlpha" type="matrix" values="0 0 0 0 0 0 0 0 0 0 0 0 0 0 0 0 0 0 127 0" result="hardAlpha"/>
<feOffset dy="32"/>
<feGaussianBlur stdDeviation="6.5"/>
<feColorMatrix type="matrix" values="0 0 0 0 0 0 0 0 0 0 0 0 0 0 0 0 0 0 0.04 0"/>
<feBlend mode="normal" in2="effect3_dropShadow_318_5186" result="effect4_dropShadow_318_5186"/>
<feBlend mode="normal" in="SourceGraphic" in2="effect4_dropShadow_318_5186" result="shape"/>
</filter>
<filter id="filter14_f_318_5186" x="137" y="348" width="44" height="38.6016" filterUnits="userSpaceOnUse" color-interpolation-filters="sRGB">
<feFlood flood-opacity="0" result="BackgroundImageFix"/>
<feBlend mode="normal" in="SourceGraphic" in2="BackgroundImageFix" result="shape"/>
<feGaussianBlur stdDeviation="4" result="effect1_foregroundBlur_318_5186"/>
</filter>
<filter id="filter15_dddd_318_5186" x="27" y="198" width="106" height="127" filterUnits="userSpaceOnUse" color-interpolation-filters="sRGB">
<feFlood flood-opacity="0" result="BackgroundImageFix"/>
<feColorMatrix in="SourceAlpha" type="matrix" values="0 0 0 0 0 0 0 0 0 0 0 0 0 0 0 0 0 0 127 0" result="hardAlpha"/>
<feOffset dy="2"/>
<feGaussianBlur stdDeviation="2"/>
<feColorMatrix type="matrix" values="0 0 0 0 0 0 0 0 0 0 0 0 0 0 0 0 0 0 0.25 0"/>
<feBlend mode="normal" in2="BackgroundImageFix" result="effect1_dropShadow_318_5186"/>
<feColorMatrix in="SourceAlpha" type="matrix" values="0 0 0 0 0 0 0 0 0 0 0 0 0 0 0 0 0 0 127 0" result="hardAlpha"/>
<feOffset dy="8"/>
<feGaussianBlur stdDeviation="4"/>
<feColorMatrix type="matrix" values="0 0 0 0 0 0 0 0 0 0 0 0 0 0 0 0 0 0 0.21 0"/>
<feBlend mode="normal" in2="effect1_dropShadow_318_5186" result="effect2_dropShadow_318_5186"/>
<feColorMatrix in="SourceAlpha" type="matrix" values="0 0 0 0 0 0 0 0 0 0 0 0 0 0 0 0 0 0 127 0" result="hardAlpha"/>
<feOffset dy="18"/>
<feGaussianBlur stdDeviation="5.5"/>
<feColorMatrix type="matrix" values="0 0 0 0 0 0 0 0 0 0 0 0 0 0 0 0 0 0 0.13 0"/>
<feBlend mode="normal" in2="effect2_dropShadow_318_5186" result="effect3_dropShadow_318_5186"/>
<feColorMatrix in="SourceAlpha" type="matrix" values="0 0 0 0 0 0 0 0 0 0 0 0 0 0 0 0 0 0 127 0" result="hardAlpha"/>
<feOffset dy="32"/>
<feGaussianBlur stdDeviation="6.5"/>
<feColorMatrix type="matrix" values="0 0 0 0 0 0 0 0 0 0 0 0 0 0 0 0 0 0 0.04 0"/>
<feBlend mode="normal" in2="effect3_dropShadow_318_5186" result="effect4_dropShadow_318_5186"/>
<feBlend mode="normal" in="SourceGraphic" in2="effect4_dropShadow_318_5186" result="shape"/>
</filter>
<filter id="filter16_f_318_5186" x="59.5" y="218.5" width="44.7266" height="45" filterUnits="userSpaceOnUse" color-interpolation-filters="sRGB">
<feFlood flood-opacity="0" result="BackgroundImageFix"/>
<feBlend mode="normal" in="SourceGraphic" in2="BackgroundImageFix" result="shape"/>
<feGaussianBlur stdDeviation="4" result="effect1_foregroundBlur_318_5186"/>
</filter>
<filter id="filter17_f_318_5186" x="474" y="356" width="12" height="178" filterUnits="userSpaceOnUse" color-interpolation-filters="sRGB">
<feFlood flood-opacity="0" result="BackgroundImageFix"/>
<feBlend mode="normal" in="SourceGraphic" in2="BackgroundImageFix" result="shape"/>
<feGaussianBlur stdDeviation="2" result="effect1_foregroundBlur_318_5186"/>
</filter>
<filter id="filter18_f_318_5186" x="470" y="352" width="20" height="186" filterUnits="userSpaceOnUse" color-interpolation-filters="sRGB">
<feFlood flood-opacity="0" result="BackgroundImageFix"/>
<feBlend mode="normal" in="SourceGraphic" in2="BackgroundImageFix" result="shape"/>
<feGaussianBlur stdDeviation="4" result="effect1_foregroundBlur_318_5186"/>
</filter>
<radialGradient id="paint0_radial_318_5186" cx="0" cy="0" r="1" gradientUnits="userSpaceOnUse" gradientTransform="translate(476 264) rotate(90) scale(228.525 460.831)">
<stop stop-color="#362CAC"/>
<stop offset="1" stop-color="#101010" stop-opacity="0"/>
</radialGradient>
<linearGradient id="paint1_linear_318_5186" x1="480" y1="120" x2="480" y2="360" gradientUnits="userSpaceOnUse">
<stop stop-color="#202020"/>
<stop offset="1" stop-color="#131313"/>
</linearGradient>
<linearGradient id="paint2_linear_318_5186" x1="508.299" y1="207" x2="482.343" y2="286.355" gradientUnits="userSpaceOnUse">
<stop offset="0.2" stop-color="#8880E3"/>
<stop offset="0.5" stop-color="#CED7FF"/>
<stop offset="0.8" stop-color="#8880E3"/>
</linearGradient>
<linearGradient id="paint3_linear_318_5186" x1="508.299" y1="207" x2="482.343" y2="286.355" gradientUnits="userSpaceOnUse">
<stop offset="0.2" stop-color="#8880E3"/>
<stop offset="0.5" stop-color="#CED7FF"/>
<stop offset="0.8" stop-color="#8880E3"/>
</linearGradient>
<linearGradient id="paint4_linear_318_5186" x1="508.299" y1="207" x2="482.343" y2="286.355" gradientUnits="userSpaceOnUse">
<stop offset="0.2" stop-color="#8880E3"/>
<stop offset="0.5" stop-color="#CED7FF"/>
<stop offset="0.8" stop-color="#8880E3"/>
</linearGradient>
<linearGradient id="paint5_linear_318_5186" x1="506.5" y1="240.5" x2="519.5" y2="273" gradientUnits="userSpaceOnUse">
<stop stop-opacity="0"/>
<stop offset="1" stop-opacity="0.25"/>
</linearGradient>
<linearGradient id="paint6_linear_318_5186" x1="461" y1="207" x2="476" y2="232.5" gradientUnits="userSpaceOnUse">
<stop stop-color="white" stop-opacity="0.3"/>
<stop offset="1" stop-color="white" stop-opacity="0"/>
</linearGradient>
<linearGradient id="paint7_linear_318_5186" x1="600" y1="240.5" x2="840" y2="240.5" gradientUnits="userSpaceOnUse">
<stop stop-color="#362CAC" stop-opacity="0"/>
<stop offset="1" stop-color="#362CAC"/>
</linearGradient>
<linearGradient id="paint8_linear_318_5186" x1="600" y1="240.5" x2="840" y2="240.5" gradientUnits="userSpaceOnUse">
<stop stop-color="#362CAC" stop-opacity="0"/>
<stop offset="1" stop-color="#362CAC"/>
</linearGradient>
<linearGradient id="paint9_linear_318_5186" x1="565" y1="155" x2="760" y2="112" gradientUnits="userSpaceOnUse">
<stop stop-color="#362CAC" stop-opacity="0"/>
<stop offset="1" stop-color="#362CAC"/>
</linearGradient>
<linearGradient id="paint10_linear_318_5186" x1="565" y1="155" x2="760" y2="112" gradientUnits="userSpaceOnUse">
<stop stop-color="#362CAC" stop-opacity="0"/>
<stop offset="1" stop-color="#362CAC"/>
</linearGradient>
<linearGradient id="paint11_linear_318_5186" x1="565" y1="323" x2="760" y2="366" gradientUnits="userSpaceOnUse">
<stop stop-color="#362CAC" stop-opacity="0"/>
<stop offset="1" stop-color="#362CAC"/>
</linearGradient>
<linearGradient id="paint12_linear_318_5186" x1="565" y1="323" x2="760" y2="366" gradientUnits="userSpaceOnUse">
<stop stop-color="#362CAC" stop-opacity="0"/>
<stop offset="1" stop-color="#362CAC"/>
</linearGradient>
<linearGradient id="paint13_linear_318_5186" x1="800" y1="72" x2="800" y2="152" gradientUnits="userSpaceOnUse">
<stop stop-color="#1C1C1C"/>
<stop offset="1" stop-color="#131313"/>
</linearGradient>
<linearGradient id="paint14_linear_318_5186" x1="823.5" y1="72" x2="769.5" y2="132.5" gradientUnits="userSpaceOnUse">
<stop stop-opacity="0"/>
<stop offset="1" stop-color="#362CAC"/>
</linearGradient>
<linearGradient id="paint15_linear_318_5186" x1="803.5" y1="105.5" x2="765.5" y2="131.5" gradientUnits="userSpaceOnUse">
<stop stop-color="#362CAC" stop-opacity="0"/>
<stop offset="1" stop-color="#362CAC"/>
</linearGradient>
<linearGradient id="paint16_linear_318_5186" x1="803.5" y1="105.5" x2="765.5" y2="131.5" gradientUnits="userSpaceOnUse">
<stop stop-color="#362CAC" stop-opacity="0"/>
<stop offset="1" stop-color="#362CAC"/>
</linearGradient>
<linearGradient id="paint17_linear_318_5186" x1="40" y1="0" x2="40" y2="80" gradientUnits="userSpaceOnUse">
<stop stop-color="#1C1C1C"/>
<stop offset="1" stop-color="#131313"/>
</linearGradient>
<linearGradient id="paint18_linear_318_5186" x1="63.5" y1="4.66779e-07" x2="9.5" y2="60.5" gradientUnits="userSpaceOnUse">
<stop stop-opacity="0"/>
<stop offset="1" stop-color="#362CAC"/>
</linearGradient>
<linearGradient id="paint19_linear_318_5186" x1="43.5" y1="33.5" x2="5.5" y2="59.5" gradientUnits="userSpaceOnUse">
<stop stop-color="#362CAC" stop-opacity="0"/>
<stop offset="1" stop-color="#362CAC"/>
</linearGradient>
<linearGradient id="paint20_linear_318_5186" x1="43.5" y1="33.5" x2="5.5" y2="59.5" gradientUnits="userSpaceOnUse">
<stop stop-color="#362CAC" stop-opacity="0"/>
<stop offset="1" stop-color="#362CAC"/>
</linearGradient>
<linearGradient id="paint21_linear_318_5186" x1="800.044" y1="376.499" x2="808.194" y2="386.6" gradientUnits="userSpaceOnUse">
<stop stop-color="#CED7FF"/>
<stop offset="1" stop-color="#CED7FF" stop-opacity="0"/>
</linearGradient>
<linearGradient id="paint22_linear_318_5186" x1="807.117" y1="357.674" x2="807.062" y2="371.183" gradientUnits="userSpaceOnUse">
<stop stop-color="#362CAC"/>
<stop offset="1" stop-color="#362CAC" stop-opacity="0"/>
</linearGradient>
<linearGradient id="paint23_linear_318_5186" x1="800.044" y1="376.499" x2="808.194" y2="386.6" gradientUnits="userSpaceOnUse">
<stop stop-color="#CED7FF"/>
<stop offset="1" stop-color="#CED7FF" stop-opacity="0"/>
</linearGradient>
<linearGradient id="paint24_linear_318_5186" x1="807.117" y1="357.674" x2="807.062" y2="371.183" gradientUnits="userSpaceOnUse">
<stop stop-color="#362CAC"/>
<stop offset="1" stop-color="#362CAC" stop-opacity="0"/>
</linearGradient>
<linearGradient id="paint25_linear_318_5186" x1="880" y1="200" x2="880" y2="280" gradientUnits="userSpaceOnUse">
<stop stop-color="#1C1C1C"/>
<stop offset="1" stop-color="#131313"/>
</linearGradient>
<linearGradient id="paint26_linear_318_5186" x1="909.5" y1="240" x2="840" y2="240" gradientUnits="userSpaceOnUse">
<stop stop-opacity="0"/>
<stop offset="1" stop-color="#362CAC"/>
</linearGradient>
<linearGradient id="paint27_linear_318_5186" x1="880" y1="240" x2="841" y2="240" gradientUnits="userSpaceOnUse">
<stop stop-color="#362CAC" stop-opacity="0"/>
<stop offset="1" stop-color="#362CAC"/>
</linearGradient>
<linearGradient id="paint28_linear_318_5186" x1="880" y1="240" x2="841" y2="240" gradientUnits="userSpaceOnUse">
<stop stop-color="#362CAC" stop-opacity="0"/>
<stop offset="1" stop-color="#362CAC"/>
</linearGradient>
<linearGradient id="paint29_linear_318_5186" x1="0" y1="0.5" x2="240" y2="0.5" gradientUnits="userSpaceOnUse">
<stop stop-color="#362CAC" stop-opacity="0"/>
<stop offset="1" stop-color="#362CAC"/>
</linearGradient>
<linearGradient id="paint30_linear_318_5186" x1="0" y1="0.5" x2="240" y2="0.5" gradientUnits="userSpaceOnUse">
<stop stop-color="#362CAC" stop-opacity="0"/>
<stop offset="1" stop-color="#362CAC"/>
</linearGradient>
<linearGradient id="paint31_linear_318_5186" x1="395" y1="155" x2="200" y2="112" gradientUnits="userSpaceOnUse">
<stop stop-color="#362CAC" stop-opacity="0"/>
<stop offset="1" stop-color="#362CAC"/>
</linearGradient>
<linearGradient id="paint32_linear_318_5186" x1="395" y1="155" x2="200" y2="112" gradientUnits="userSpaceOnUse">
<stop stop-color="#362CAC" stop-opacity="0"/>
<stop offset="1" stop-color="#362CAC"/>
</linearGradient>
<linearGradient id="paint33_linear_318_5186" x1="395" y1="323" x2="200" y2="366" gradientUnits="userSpaceOnUse">
<stop stop-color="#362CAC" stop-opacity="0"/>
<stop offset="1" stop-color="#362CAC"/>
</linearGradient>
<linearGradient id="paint34_linear_318_5186" x1="395" y1="323" x2="200" y2="366" gradientUnits="userSpaceOnUse">
<stop stop-color="#362CAC" stop-opacity="0"/>
<stop offset="1" stop-color="#362CAC"/>
</linearGradient>
<linearGradient id="paint35_linear_318_5186" x1="40" y1="0" x2="40" y2="80" gradientUnits="userSpaceOnUse">
<stop stop-color="#1C1C1C"/>
<stop offset="1" stop-color="#131313"/>
</linearGradient>
<linearGradient id="paint36_linear_318_5186" x1="63.5" y1="4.66779e-07" x2="9.5" y2="60.5" gradientUnits="userSpaceOnUse">
<stop stop-opacity="0"/>
<stop offset="1" stop-color="#362CAC"/>
</linearGradient>
<linearGradient id="paint37_linear_318_5186" x1="43.5" y1="33.5" x2="5.5" y2="59.5" gradientUnits="userSpaceOnUse">
<stop stop-color="#362CAC" stop-opacity="0"/>
<stop offset="1" stop-color="#362CAC"/>
</linearGradient>
<linearGradient id="paint38_linear_318_5186" x1="43.5" y1="33.5" x2="5.5" y2="59.5" gradientUnits="userSpaceOnUse">
<stop stop-color="#362CAC" stop-opacity="0"/>
<stop offset="1" stop-color="#362CAC"/>
</linearGradient>
<linearGradient id="paint39_linear_318_5186" x1="160" y1="328" x2="160" y2="408" gradientUnits="userSpaceOnUse">
<stop stop-color="#1C1C1C"/>
<stop offset="1" stop-color="#131313"/>
</linearGradient>
<linearGradient id="paint40_linear_318_5186" x1="183.5" y1="328" x2="129.5" y2="388.5" gradientUnits="userSpaceOnUse">
<stop stop-opacity="0"/>
<stop offset="1" stop-color="#362CAC"/>
</linearGradient>
<linearGradient id="paint41_linear_318_5186" x1="163.5" y1="361.5" x2="125.5" y2="387.5" gradientUnits="userSpaceOnUse">
<stop stop-color="#362CAC" stop-opacity="0"/>
<stop offset="1" stop-color="#362CAC"/>
</linearGradient>
<linearGradient id="paint42_linear_318_5186" x1="163.5" y1="361.5" x2="125.5" y2="387.5" gradientUnits="userSpaceOnUse">
<stop stop-color="#362CAC" stop-opacity="0"/>
<stop offset="1" stop-color="#362CAC"/>
</linearGradient>
<linearGradient id="paint43_linear_318_5186" x1="40" y1="0" x2="40" y2="80" gradientUnits="userSpaceOnUse">
<stop stop-color="#1C1C1C"/>
<stop offset="1" stop-color="#131313"/>
</linearGradient>
<linearGradient id="paint44_linear_318_5186" x1="69.5" y1="40" x2="-1.08918e-06" y2="40" gradientUnits="userSpaceOnUse">
<stop stop-opacity="0"/>
<stop offset="1" stop-color="#362CAC"/>
</linearGradient>
<linearGradient id="paint45_linear_318_5186" x1="40" y1="40" x2="1" y2="40" gradientUnits="userSpaceOnUse">
<stop stop-color="#362CAC" stop-opacity="0"/>
<stop offset="1" stop-color="#362CAC"/>
</linearGradient>
<linearGradient id="paint46_linear_318_5186" x1="40" y1="40" x2="1" y2="40" gradientUnits="userSpaceOnUse">
<stop stop-color="#362CAC" stop-opacity="0"/>
<stop offset="1" stop-color="#362CAC"/>
</linearGradient>
<linearGradient id="paint47_linear_318_5186" x1="480.5" y1="360" x2="480.5" y2="528" gradientUnits="userSpaceOnUse">
<stop stop-color="#362CAC" stop-opacity="0"/>
<stop offset="1" stop-color="#362CAC"/>
</linearGradient>
<linearGradient id="paint48_linear_318_5186" x1="480.5" y1="360" x2="480.5" y2="528" gradientUnits="userSpaceOnUse">
<stop stop-color="#362CAC" stop-opacity="0"/>
<stop offset="1" stop-color="#362CAC"/>
</linearGradient>
<linearGradient id="paint49_linear_318_5186" x1="480.5" y1="360" x2="480.5" y2="528" gradientUnits="userSpaceOnUse">
<stop stop-color="#362CAC" stop-opacity="0"/>
<stop offset="1" stop-color="#362CAC"/>
</linearGradient>
<linearGradient id="paint50_linear_318_5186" x1="480.5" y1="360" x2="480.5" y2="528" gradientUnits="userSpaceOnUse">
<stop stop-color="#362CAC" stop-opacity="0"/>
<stop offset="1" stop-color="#362CAC"/>
</linearGradient>
<linearGradient id="paint51_linear_318_5186" x1="480.5" y1="360" x2="480.5" y2="528" gradientUnits="userSpaceOnUse">
<stop stop-color="#362CAC" stop-opacity="0"/>
<stop offset="1" stop-color="#362CAC"/>
</linearGradient>
<linearGradient id="paint52_linear_318_5186" x1="480.5" y1="360" x2="480.5" y2="528" gradientUnits="userSpaceOnUse">
<stop stop-color="#362CAC" stop-opacity="0"/>
<stop offset="1" stop-color="#362CAC"/>
</linearGradient>
</defs>
</svg>
