<svg width="720" height="432" viewBox="0 0 720 432" fill="none" xmlns="http://www.w3.org/2000/svg">
<g opacity="0.75">
<path d="M630 160C630 248.366 509.117 320 360 320C210.883 320 90 248.366 90 160C90 71.6344 210.883 0 360 0C509.117 0 630 71.6344 630 160Z" fill="url(#paint0_radial_313_4597)"/>
</g>
<g opacity="0.25">
<path d="M457 74V87L427.5 116.5" stroke="url(#paint1_linear_313_4597)" stroke-linejoin="round"/>
<path d="M457 74V87L427.5 116.5" stroke="url(#paint2_linear_313_4597)" stroke-linejoin="round" style="mix-blend-mode:plus-lighter"/>
</g>
<g opacity="0.25">
<path d="M263 74V87.1529L292.5 117" stroke="url(#paint3_linear_313_4597)" stroke-linejoin="round"/>
<path d="M263 74V87.1529L292.5 117" stroke="url(#paint4_linear_313_4597)" stroke-linejoin="round" style="mix-blend-mode:plus-lighter"/>
</g>
<g opacity="0.5">
<path d="M552 144H438" stroke="url(#paint5_linear_313_4597)" stroke-width="1.5"/>
<path d="M552 144H438" stroke="url(#paint6_linear_313_4597)" stroke-width="1.5" style="mix-blend-mode:plus-lighter"/>
</g>
<g opacity="0.5">
<path d="M168 144L282 144" stroke="url(#paint7_linear_313_4597)" stroke-width="1.5"/>
<path d="M168 144L282 144" stroke="url(#paint8_linear_313_4597)" stroke-width="1.5" style="mix-blend-mode:plus-lighter"/>
</g>
<g opacity="0.75">
<path d="M491 229L467.5 205.5H425.5" stroke="url(#paint9_linear_313_4597)" stroke-width="2" stroke-linejoin="round"/>
<path d="M491 229L467.5 205.5H425.5" stroke="url(#paint10_linear_313_4597)" stroke-width="2" stroke-linejoin="round" style="mix-blend-mode:plus-lighter"/>
</g>
<g opacity="0.75">
<path d="M229 229L252.5 206H294.5" stroke="url(#paint11_linear_313_4597)" stroke-width="2" stroke-linejoin="round"/>
<path d="M229 229L252.5 206H294.5" stroke="url(#paint12_linear_313_4597)" stroke-width="2" stroke-linejoin="round" style="mix-blend-mode:plus-lighter"/>
</g>
<g filter="url(#filter0_ddddd_313_4597)">
<circle cx="360" cy="160" r="80" fill="url(#paint13_linear_313_4597)"/>
<circle cx="360" cy="160" r="79.5" stroke="#362CAC"/>
</g>
<path fill-rule="evenodd" clip-rule="evenodd" d="M388 146V146.421L362.096 162.363C361.466 162.75 360.74 162.956 360 162.956C359.26 162.956 358.534 162.75 357.904 162.363L332 146.421V146C332 143.878 332.843 141.843 334.343 140.343C335.843 138.843 337.878 138 340 138H380C382.122 138 384.157 138.843 385.657 140.343C387.157 141.843 388 143.878 388 146ZM332 174V151.12L355.808 165.768C357.069 166.544 358.52 166.954 360 166.954C361.48 166.954 362.931 166.544 364.192 165.768L388 151.12V174C388 176.122 387.157 178.157 385.657 179.657C384.157 181.157 382.122 182 380 182H340C337.878 182 335.843 181.157 334.343 179.657C332.843 178.157 332 176.122 332 174Z" fill="url(#paint14_linear_313_4597)"/>
<g style="mix-blend-mode:plus-lighter" opacity="0.1" filter="url(#filter1_f_313_4597)">
<path fill-rule="evenodd" clip-rule="evenodd" d="M388 146V146.421L362.096 162.363C361.466 162.75 360.74 162.956 360 162.956C359.26 162.956 358.534 162.75 357.904 162.363L332 146.421V146C332 143.878 332.843 141.843 334.343 140.343C335.843 138.843 337.878 138 340 138H380C382.122 138 384.157 138.843 385.657 140.343C387.157 141.843 388 143.878 388 146ZM332 174V151.12L355.808 165.768C357.069 166.544 358.52 166.954 360 166.954C361.48 166.954 362.931 166.544 364.192 165.768L388 151.12V174C388 176.122 387.157 178.157 385.657 179.657C384.157 181.157 382.122 182 380 182H340C337.878 182 335.843 181.157 334.343 179.657C332.843 178.157 332 176.122 332 174Z" fill="url(#paint15_linear_313_4597)"/>
</g>
<g style="mix-blend-mode:plus-lighter" opacity="0.2" filter="url(#filter2_f_313_4597)">
<path fill-rule="evenodd" clip-rule="evenodd" d="M388 146V146.421L362.096 162.363C361.466 162.75 360.74 162.956 360 162.956C359.26 162.956 358.534 162.75 357.904 162.363L332 146.421V146C332 143.878 332.843 141.843 334.343 140.343C335.843 138.843 337.878 138 340 138H380C382.122 138 384.157 138.843 385.657 140.343C387.157 141.843 388 143.878 388 146ZM332 174V151.12L355.808 165.768C357.069 166.544 358.52 166.954 360 166.954C361.48 166.954 362.931 166.544 364.192 165.768L388 151.12V174C388 176.122 387.157 178.157 385.657 179.657C384.157 181.157 382.122 182 380 182H340C337.878 182 335.843 181.157 334.343 179.657C332.843 178.157 332 176.122 332 174Z" fill="url(#paint16_linear_313_4597)"/>
</g>
<path d="M355.284 166.62L355.284 166.62C356.702 167.492 358.335 167.954 360 167.954C361.665 167.954 363.298 167.492 364.716 166.62L364.211 165.799L364.716 166.62L387 152.909V174C387 175.857 386.263 177.637 384.95 178.95C383.637 180.263 381.857 181 380 181H340C338.143 181 336.363 180.263 335.05 178.95C333.737 177.637 333 175.857 333 174V152.909L355.284 166.62Z" stroke="url(#paint17_linear_313_4597)" stroke-width="2"/>
<path d="M386.999 145.863L361.572 161.511C361.572 161.511 361.572 161.511 361.572 161.511C361.099 161.802 360.555 161.956 360 161.956C359.445 161.956 358.901 161.802 358.428 161.511C358.428 161.511 358.428 161.511 358.428 161.511L333.001 145.863C333.037 144.056 333.77 142.331 335.05 141.05C336.363 139.737 338.143 139 340 139H380C381.857 139 383.637 139.737 384.95 141.05C386.23 142.331 386.963 144.056 386.999 145.863Z" stroke="url(#paint18_linear_313_4597)" stroke-width="2"/>
<g style="mix-blend-mode:plus-lighter" filter="url(#filter3_f_313_4597)">
<circle cx="360" cy="160" r="79.5" stroke="#362CAC"/>
</g>
<g style="mix-blend-mode:plus-lighter" filter="url(#filter4_f_313_4597)">
<circle cx="360" cy="160" r="79.5" stroke="#362CAC"/>
</g>
<g filter="url(#filter5_dddd_313_4597)">
<circle cx="25" cy="25" r="25" transform="matrix(-1 0 0 1 288 24)" fill="url(#paint19_linear_313_4597)"/>
<circle cx="25" cy="25" r="25" transform="matrix(-1 0 0 1 288 24)" fill="url(#paint20_linear_313_4597)" fill-opacity="0.25"/>
<circle cx="25" cy="25" r="24.5" transform="matrix(-1 0 0 1 288 24)" stroke="#454547"/>
<circle cx="25" cy="25" r="24.5" transform="matrix(-1 0 0 1 288 24)" stroke="url(#paint21_linear_313_4597)" stroke-opacity="0.4"/>
<circle cx="25" cy="25" r="24.5" transform="matrix(-1 0 0 1 288 24)" stroke="url(#paint22_linear_313_4597)" stroke-opacity="0.4" style="mix-blend-mode:plus-lighter"/>
</g>
<g opacity="0.7">
<path d="M261.662 40.875H264.522V53.9834C263.057 54.2605 261.978 54.3696 260.811 54.3696C257.318 54.3659 255.5 52.8053 255.5 49.8082C255.5 46.9204 257.429 45.0462 260.418 45.0462C260.881 45.0462 261.235 45.0827 261.662 45.1921V40.875ZM261.762 47.5543C261.427 47.445 261.151 47.4085 260.798 47.4085C259.351 47.4085 258.515 48.2909 258.515 49.8372C258.515 51.3427 259.314 52.1741 260.779 52.1741C261.096 52.1741 261.353 52.1562 261.762 52.1015V47.5543Z" fill="#CED7FF"/>
<path d="M269.198 45.3979V51.9611C269.198 54.2214 269.029 55.3083 268.532 56.2454C268.068 57.1463 267.457 57.7144 266.195 58.3419L263.541 57.0913C264.804 56.5046 265.415 55.9861 265.805 55.1949C266.213 54.3858 266.342 53.4487 266.342 50.9839V45.3979H269.198Z" fill="#5914B5"/>
<path d="M266.055 40.875H268.915V43.781H266.055V40.875Z" fill="#5914B5"/>
<g style="mix-blend-mode:plus-lighter" filter="url(#filter6_f_313_4597)">
<path d="M261.662 40.875H264.522V53.9834C263.057 54.2605 261.978 54.3696 260.811 54.3696C257.318 54.3659 255.5 52.8053 255.5 49.8082C255.5 46.9204 257.429 45.0462 260.418 45.0462C260.881 45.0462 261.235 45.0827 261.662 45.1921V40.875ZM261.762 47.5543C261.427 47.445 261.151 47.4085 260.798 47.4085C259.351 47.4085 258.515 48.2909 258.515 49.8372C258.515 51.3427 259.314 52.1741 260.779 52.1741C261.096 52.1741 261.353 52.1562 261.762 52.1015V47.5543Z" fill="#CED7FF"/>
<path d="M269.198 45.3979V51.9611C269.198 54.2214 269.029 55.3083 268.532 56.2454C268.068 57.1463 267.457 57.7144 266.195 58.3419L263.541 57.0913C264.804 56.5046 265.415 55.9861 265.805 55.1949C266.213 54.3858 266.342 53.4487 266.342 50.9839V45.3979H269.198Z" fill="#5914B5"/>
<path d="M266.055 40.875H268.915V43.781H266.055V40.875Z" fill="#5914B5"/>
</g>
</g>
<g filter="url(#filter7_dddd_313_4597)">
<circle cx="457" cy="49" r="25" fill="url(#paint23_linear_313_4597)"/>
<circle cx="457" cy="49" r="25" fill="url(#paint24_linear_313_4597)" fill-opacity="0.25"/>
<circle cx="457" cy="49" r="24.5" stroke="#454547"/>
<circle cx="457" cy="49" r="24.5" stroke="url(#paint25_linear_313_4597)" stroke-opacity="0.4"/>
<circle cx="457" cy="49" r="24.5" stroke="url(#paint26_linear_313_4597)" stroke-opacity="0.4" style="mix-blend-mode:plus-lighter"/>
</g>
<g opacity="0.7">
<path d="M456.916 40.25C452.484 40.25 452.761 42.1719 452.761 42.1719L452.766 44.163H456.995V44.7609H451.086C451.086 44.7609 448.25 44.4392 448.25 48.9111C448.25 53.3829 450.725 53.2243 450.725 53.2243H452.203V51.1492C452.203 51.1492 452.123 48.6739 454.638 48.6739H458.833C458.833 48.6739 461.19 48.712 461.19 46.3962V42.5672C461.19 42.5672 461.548 40.25 456.916 40.25ZM454.584 41.5889C455.005 41.5889 455.345 41.929 455.345 42.3498C455.345 42.7706 455.005 43.1107 454.584 43.1107C454.163 43.1107 453.823 42.7706 453.823 42.3498C453.823 41.929 454.163 41.5889 454.584 41.5889Z" fill="#CED7FF"/>
<path d="M457.042 57.6171C461.474 57.6171 461.197 55.6952 461.197 55.6952L461.192 53.7041H456.963V53.1062H462.872C462.872 53.1062 465.708 53.4278 465.708 48.956C465.708 44.4842 463.233 44.6428 463.233 44.6428H461.755V46.7179C461.755 46.7179 461.835 49.1932 459.32 49.1932H455.125C455.125 49.1932 452.768 49.1551 452.768 51.4708V55.2999C452.768 55.2999 452.41 57.6171 457.042 57.6171ZM459.374 56.2782C458.953 56.2782 458.613 55.9381 458.613 55.5173C458.613 55.0965 458.953 54.7564 459.374 54.7564C459.795 54.7564 460.135 55.0965 460.135 55.5173C460.135 55.9381 459.795 56.2782 459.374 56.2782Z" fill="#5914B5"/>
<g style="mix-blend-mode:plus-lighter" filter="url(#filter8_f_313_4597)">
<path d="M456.916 40.25C452.484 40.25 452.761 42.1719 452.761 42.1719L452.766 44.163H456.995V44.7609H451.086C451.086 44.7609 448.25 44.4392 448.25 48.9111C448.25 53.3829 450.725 53.2243 450.725 53.2243H452.203V51.1492C452.203 51.1492 452.123 48.6739 454.638 48.6739H458.833C458.833 48.6739 461.19 48.712 461.19 46.3962V42.5672C461.19 42.5672 461.548 40.25 456.916 40.25ZM454.584 41.5889C455.005 41.5889 455.345 41.929 455.345 42.3498C455.345 42.7706 455.005 43.1107 454.584 43.1107C454.163 43.1107 453.823 42.7706 453.823 42.3498C453.823 41.929 454.163 41.5889 454.584 41.5889Z" fill="#CED7FF"/>
<path d="M457.042 57.6171C461.474 57.6171 461.197 55.6952 461.197 55.6952L461.192 53.7041H456.963V53.1062H462.872C462.872 53.1062 465.708 53.4278 465.708 48.956C465.708 44.4842 463.233 44.6428 463.233 44.6428H461.755V46.7179C461.755 46.7179 461.835 49.1932 459.32 49.1932H455.125C455.125 49.1932 452.768 49.1551 452.768 51.4708V55.2999C452.768 55.2999 452.41 57.6171 457.042 57.6171ZM459.374 56.2782C458.953 56.2782 458.613 55.9381 458.613 55.5173C458.613 55.0965 458.953 54.7564 459.374 54.7564C459.795 54.7564 460.135 55.0965 460.135 55.5173C460.135 55.9381 459.795 56.2782 459.374 56.2782Z" fill="#5914B5"/>
</g>
</g>
<g filter="url(#filter9_dddd_313_4597)">
<circle cx="200" cy="256" r="40" transform="rotate(180 200 256)" fill="url(#paint27_linear_313_4597)"/>
<circle cx="200" cy="256" r="40" transform="rotate(180 200 256)" fill="url(#paint28_linear_313_4597)" fill-opacity="0.25"/>
<circle cx="200" cy="256" r="39.5" transform="rotate(180 200 256)" stroke="#454547"/>
<circle cx="200" cy="256" r="39.5" transform="rotate(180 200 256)" stroke="url(#paint29_linear_313_4597)" stroke-opacity="0.4"/>
<circle cx="200" cy="256" r="39.5" transform="rotate(180 200 256)" stroke="url(#paint30_linear_313_4597)" stroke-opacity="0.4" style="mix-blend-mode:plus-lighter"/>
</g>
<g opacity="0.7">
<path d="M199.597 256.708C199.649 255.78 200.106 254.963 200.796 254.383C201.473 253.814 202.384 253.466 203.377 253.466C204.37 253.466 205.281 253.814 205.958 254.383C206.647 254.963 207.104 255.78 207.157 256.707C207.21 257.661 206.824 258.547 206.147 259.203C205.457 259.871 204.476 260.29 203.377 260.29C202.278 260.29 201.295 259.871 200.606 259.203C199.928 258.547 199.544 257.661 199.597 256.708Z" fill="#362CAC"/>
<path d="M193.576 258.583C193.583 258.946 193.699 259.652 193.874 260.203C194.241 261.37 194.865 262.449 195.732 263.4C196.622 264.378 197.718 265.163 198.984 265.72C200.314 266.306 201.756 266.604 203.253 266.602C204.748 266.6 206.19 266.296 207.52 265.706C208.786 265.143 209.881 264.354 210.769 263.376C211.636 262.421 212.258 261.34 212.627 260.173C212.812 259.584 212.929 258.986 212.976 258.386C213.022 257.794 213.002 257.202 212.918 256.61C212.753 255.457 212.351 254.375 211.733 253.388C211.168 252.482 210.439 251.688 209.572 251.02L209.574 251.019L200.827 244.345C200.819 244.339 200.813 244.333 200.804 244.327C200.231 243.89 199.266 243.891 198.634 244.33C197.996 244.774 197.923 245.507 198.491 245.97L198.489 245.972L202.137 248.92L191.017 248.932H191.003C190.084 248.933 189.2 249.532 189.025 250.29C188.845 251.061 189.47 251.701 190.425 251.704L190.424 251.708L196.06 251.697L186.003 259.368C185.99 259.377 185.976 259.387 185.964 259.397C185.015 260.118 184.709 261.319 185.306 262.078C185.913 262.851 187.202 262.852 188.161 262.083L193.65 257.619C193.65 257.619 193.57 258.222 193.576 258.583ZM207.68 260.601C206.55 261.746 204.966 262.396 203.253 262.399C201.537 262.402 199.954 261.759 198.823 260.616C198.27 260.059 197.864 259.418 197.614 258.735C197.369 258.064 197.273 257.352 197.336 256.634C197.396 255.931 197.607 255.261 197.942 254.655C198.272 254.06 198.727 253.521 199.288 253.066C200.387 252.176 201.787 251.694 203.251 251.692C204.716 251.69 206.114 252.167 207.215 253.055C207.775 253.508 208.229 254.044 208.559 254.639C208.896 255.245 209.105 255.912 209.167 256.616C209.229 257.334 209.134 258.045 208.888 258.716C208.638 259.401 208.233 260.042 207.68 260.601Z" fill="#CED7FF"/>
<g style="mix-blend-mode:plus-lighter" filter="url(#filter10_f_313_4597)">
<path d="M199.597 256.708C199.649 255.78 200.106 254.963 200.796 254.383C201.473 253.814 202.384 253.466 203.377 253.466C204.37 253.466 205.281 253.814 205.958 254.383C206.647 254.963 207.104 255.78 207.157 256.707C207.21 257.661 206.824 258.547 206.147 259.203C205.457 259.871 204.476 260.29 203.377 260.29C202.278 260.29 201.295 259.871 200.606 259.203C199.928 258.547 199.544 257.661 199.597 256.708Z" fill="#362CAC"/>
<path d="M193.576 258.583C193.583 258.946 193.699 259.652 193.874 260.203C194.241 261.37 194.865 262.449 195.732 263.4C196.622 264.378 197.718 265.163 198.984 265.72C200.314 266.306 201.756 266.604 203.253 266.602C204.748 266.6 206.19 266.296 207.52 265.706C208.786 265.143 209.881 264.354 210.769 263.376C211.636 262.421 212.258 261.34 212.627 260.173C212.812 259.584 212.929 258.986 212.976 258.386C213.022 257.794 213.002 257.202 212.918 256.61C212.753 255.457 212.351 254.375 211.733 253.388C211.168 252.482 210.439 251.688 209.572 251.02L209.574 251.019L200.827 244.345C200.819 244.339 200.813 244.333 200.804 244.327C200.231 243.89 199.266 243.891 198.634 244.33C197.996 244.774 197.923 245.507 198.491 245.97L198.489 245.972L202.137 248.92L191.017 248.932H191.003C190.084 248.933 189.2 249.532 189.025 250.29C188.845 251.061 189.47 251.701 190.425 251.704L190.424 251.708L196.06 251.697L186.003 259.368C185.99 259.377 185.976 259.387 185.964 259.397C185.015 260.118 184.709 261.319 185.306 262.078C185.913 262.851 187.202 262.852 188.161 262.083L193.65 257.619C193.65 257.619 193.57 258.222 193.576 258.583ZM207.68 260.601C206.55 261.746 204.966 262.396 203.253 262.399C201.537 262.402 199.954 261.759 198.823 260.616C198.27 260.059 197.864 259.418 197.614 258.735C197.369 258.064 197.273 257.352 197.336 256.634C197.396 255.931 197.607 255.261 197.942 254.655C198.272 254.06 198.727 253.521 199.288 253.066C200.387 252.176 201.787 251.694 203.251 251.692C204.716 251.69 206.114 252.167 207.215 253.055C207.775 253.508 208.229 254.044 208.559 254.639C208.896 255.245 209.105 255.912 209.167 256.616C209.229 257.334 209.134 258.045 208.888 258.716C208.638 259.401 208.233 260.042 207.68 260.601Z" fill="#CED7FF"/>
</g>
</g>
<g filter="url(#filter11_dddd_313_4597)">
<circle cx="40" cy="40" r="40" transform="matrix(1 0 0 -1 480 296)" fill="url(#paint31_linear_313_4597)"/>
<circle cx="40" cy="40" r="40" transform="matrix(1 0 0 -1 480 296)" fill="url(#paint32_linear_313_4597)" fill-opacity="0.25"/>
<circle cx="40" cy="40" r="39.5" transform="matrix(1 0 0 -1 480 296)" stroke="#454547"/>
<circle cx="40" cy="40" r="39.5" transform="matrix(1 0 0 -1 480 296)" stroke="url(#paint33_linear_313_4597)" stroke-opacity="0.4"/>
<circle cx="40" cy="40" r="39.5" transform="matrix(1 0 0 -1 480 296)" stroke="url(#paint34_linear_313_4597)" stroke-opacity="0.4" style="mix-blend-mode:plus-lighter"/>
</g>
<g opacity="0.7">
<path d="M534.401 272.128L513.87 245.679H510V264.067H513.095V249.609L531.973 274C532.824 273.429 533.636 272.804 534.401 272.128Z" fill="url(#paint35_linear_313_4597)"/>
<path d="M528.653 245.679H525.586V264.075H528.653V245.679Z" fill="url(#paint36_linear_313_4597)"/>
<g style="mix-blend-mode:plus-lighter" filter="url(#filter12_f_313_4597)">
<path d="M534.401 272.128L513.87 245.679H510V264.067H513.095V249.609L531.973 274C532.824 273.429 533.636 272.804 534.401 272.128Z" fill="url(#paint37_linear_313_4597)"/>
<path d="M528.653 245.679H525.586V264.075H528.653V245.679Z" fill="url(#paint38_linear_313_4597)"/>
</g>
</g>
<g opacity="0.75">
<g filter="url(#filter13_dddd_313_4597)">
<circle cx="30" cy="30" r="30" transform="matrix(-1 0 0 1 168 114)" fill="url(#paint39_linear_313_4597)"/>
<circle cx="30" cy="30" r="30" transform="matrix(-1 0 0 1 168 114)" fill="url(#paint40_linear_313_4597)" fill-opacity="0.25"/>
<circle cx="30" cy="30" r="29.5" transform="matrix(-1 0 0 1 168 114)" stroke="#454547"/>
<circle cx="30" cy="30" r="29.5" transform="matrix(-1 0 0 1 168 114)" stroke="url(#paint41_linear_313_4597)" stroke-opacity="0.4"/>
<circle cx="30" cy="30" r="29.5" transform="matrix(-1 0 0 1 168 114)" stroke="url(#paint42_linear_313_4597)" stroke-opacity="0.4" style="mix-blend-mode:plus-lighter"/>
</g>
<g opacity="0.5">
<path fill-rule="evenodd" clip-rule="evenodd" d="M134.187 155.25L129 134.25L149.795 140.237L134.187 155.25Z" stroke="#CED7FF" stroke-miterlimit="10" stroke-linejoin="round"/>
<path fill-rule="evenodd" clip-rule="evenodd" d="M139.394 137.244L141.985 147.747L131.594 144.753L139.394 137.244Z" stroke="#CED7FF" stroke-miterlimit="10" stroke-linejoin="round"/>
<path fill-rule="evenodd" clip-rule="evenodd" d="M136.815 146.177L135.527 140.959L140.69 142.442L136.815 146.177Z" stroke="#CED7FF" stroke-miterlimit="10" stroke-linejoin="round"/>
<path fill-rule="evenodd" clip-rule="evenodd" d="M134.241 135.749L135.528 140.966L130.365 139.484L134.241 135.749Z" stroke="#CED7FF" stroke-miterlimit="10" stroke-linejoin="round"/>
<path fill-rule="evenodd" clip-rule="evenodd" d="M144.565 138.723L145.852 143.94L140.689 142.458L144.565 138.723Z" stroke="#CED7FF" stroke-miterlimit="10" stroke-linejoin="round"/>
<path fill-rule="evenodd" clip-rule="evenodd" d="M136.815 146.181L138.102 151.398L132.939 149.916L136.815 146.181Z" stroke="#CED7FF" stroke-miterlimit="10" stroke-linejoin="round"/>
<g style="mix-blend-mode:plus-lighter" filter="url(#filter14_f_313_4597)">
<path fill-rule="evenodd" clip-rule="evenodd" d="M134.187 155.25L129 134.25L149.795 140.237L134.187 155.25Z" stroke="#CED7FF" stroke-miterlimit="10" stroke-linejoin="round"/>
<path fill-rule="evenodd" clip-rule="evenodd" d="M139.394 137.244L141.985 147.747L131.594 144.753L139.394 137.244Z" stroke="#CED7FF" stroke-miterlimit="10" stroke-linejoin="round"/>
<path fill-rule="evenodd" clip-rule="evenodd" d="M136.815 146.177L135.527 140.959L140.69 142.442L136.815 146.177Z" stroke="#CED7FF" stroke-miterlimit="10" stroke-linejoin="round"/>
<path fill-rule="evenodd" clip-rule="evenodd" d="M134.241 135.749L135.528 140.966L130.365 139.484L134.241 135.749Z" stroke="#CED7FF" stroke-miterlimit="10" stroke-linejoin="round"/>
<path fill-rule="evenodd" clip-rule="evenodd" d="M144.565 138.723L145.852 143.94L140.689 142.458L144.565 138.723Z" stroke="#CED7FF" stroke-miterlimit="10" stroke-linejoin="round"/>
<path fill-rule="evenodd" clip-rule="evenodd" d="M136.815 146.181L138.102 151.398L132.939 149.916L136.815 146.181Z" stroke="#CED7FF" stroke-miterlimit="10" stroke-linejoin="round"/>
</g>
</g>
</g>
<g opacity="0.75">
<g filter="url(#filter15_dddd_313_4597)">
<circle cx="582" cy="144" r="30" fill="url(#paint43_linear_313_4597)"/>
<circle cx="582" cy="144" r="30" fill="url(#paint44_linear_313_4597)" fill-opacity="0.25"/>
<circle cx="582" cy="144" r="29.5" stroke="#454547"/>
<circle cx="582" cy="144" r="29.5" stroke="url(#paint45_linear_313_4597)" stroke-opacity="0.4"/>
<circle cx="582" cy="144" r="29.5" stroke="url(#paint46_linear_313_4597)" stroke-opacity="0.4" style="mix-blend-mode:plus-lighter"/>
</g>
<g opacity="0.5">
<path d="M592.5 144.351C592.5 142.961 590.758 141.642 588.087 140.825C588.703 138.103 588.429 135.937 587.222 135.244C586.944 135.081 586.619 135.004 586.263 135.004V135.959C586.46 135.959 586.619 135.997 586.751 136.07C587.333 136.404 587.586 137.675 587.389 139.31C587.342 139.712 587.265 140.136 587.171 140.568C586.332 140.363 585.416 140.204 584.453 140.102C583.875 139.31 583.276 138.591 582.672 137.962C584.067 136.665 585.377 135.954 586.268 135.954V135C585.091 135 583.55 135.839 581.991 137.294C580.433 135.847 578.892 135.017 577.715 135.017V135.972C578.601 135.972 579.915 136.678 581.311 137.966C580.712 138.595 580.112 139.31 579.543 140.102C578.576 140.204 577.66 140.363 576.821 140.572C576.722 140.144 576.649 139.729 576.598 139.331C576.397 137.696 576.645 136.425 577.223 136.087C577.351 136.01 577.518 135.976 577.715 135.976V135.021C577.356 135.021 577.03 135.098 576.748 135.261C575.545 135.954 575.275 138.116 575.896 140.829C573.234 141.651 571.5 142.965 571.5 144.351C571.5 145.742 573.242 147.061 575.913 147.878C575.297 150.6 575.571 152.766 576.778 153.459C577.056 153.622 577.381 153.699 577.741 153.699C578.918 153.699 580.459 152.86 582.017 151.405C583.575 152.851 585.116 153.682 586.293 153.682C586.653 153.682 586.978 153.604 587.261 153.442C588.464 152.749 588.733 150.587 588.113 147.874C590.766 147.056 592.5 145.738 592.5 144.351ZM586.927 141.497C586.768 142.049 586.572 142.618 586.349 143.187C586.173 142.845 585.989 142.503 585.788 142.16C585.591 141.818 585.382 141.484 585.172 141.159C585.78 141.249 586.366 141.36 586.927 141.497ZM584.966 146.055C584.632 146.633 584.29 147.18 583.935 147.69C583.297 147.745 582.651 147.775 582 147.775C581.354 147.775 580.707 147.745 580.074 147.694C579.719 147.185 579.372 146.641 579.038 146.068C578.713 145.507 578.417 144.938 578.148 144.364C578.413 143.791 578.713 143.217 579.034 142.657C579.368 142.079 579.71 141.531 580.065 141.022C580.703 140.966 581.349 140.936 582 140.936C582.646 140.936 583.293 140.966 583.926 141.017C584.281 141.527 584.628 142.07 584.962 142.644C585.287 143.204 585.583 143.774 585.852 144.347C585.583 144.921 585.287 145.494 584.966 146.055ZM586.349 145.498C586.58 146.072 586.777 146.645 586.94 147.202C586.379 147.339 585.788 147.454 585.176 147.544C585.386 147.215 585.596 146.877 585.793 146.53C585.989 146.188 586.173 145.841 586.349 145.498ZM582.009 150.065C581.61 149.654 581.212 149.196 580.819 148.695C581.204 148.713 581.598 148.725 581.996 148.725C582.398 148.725 582.796 148.717 583.186 148.695C582.8 149.196 582.402 149.654 582.009 150.065ZM578.824 147.544C578.216 147.454 577.63 147.343 577.069 147.206C577.227 146.654 577.424 146.085 577.647 145.516C577.822 145.858 578.006 146.2 578.208 146.543C578.409 146.885 578.614 147.219 578.824 147.544ZM581.987 138.638C582.385 139.049 582.783 139.507 583.177 140.007C582.792 139.99 582.398 139.977 582 139.977C581.598 139.977 581.2 139.986 580.81 140.007C581.195 139.507 581.593 139.049 581.987 138.638ZM578.82 141.159C578.61 141.488 578.4 141.826 578.203 142.173C578.006 142.515 577.822 142.858 577.647 143.2C577.416 142.627 577.219 142.053 577.056 141.497C577.617 141.364 578.208 141.249 578.82 141.159ZM574.946 146.517C573.43 145.871 572.45 145.023 572.45 144.351C572.45 143.68 573.43 142.828 574.946 142.186C575.314 142.028 575.716 141.886 576.131 141.754C576.375 142.592 576.696 143.466 577.095 144.36C576.701 145.25 576.384 146.119 576.144 146.954C575.721 146.821 575.318 146.675 574.946 146.517ZM577.249 152.633C576.667 152.299 576.414 151.028 576.611 149.393C576.658 148.991 576.735 148.567 576.829 148.135C577.668 148.34 578.584 148.499 579.547 148.601C580.125 149.393 580.724 150.112 581.328 150.741C579.933 152.038 578.623 152.749 577.732 152.749C577.54 152.744 577.377 152.706 577.249 152.633ZM587.402 149.372C587.603 151.007 587.355 152.278 586.777 152.616C586.649 152.693 586.482 152.727 586.285 152.727C585.399 152.727 584.085 152.021 582.689 150.733C583.288 150.104 583.888 149.389 584.457 148.597C585.424 148.494 586.34 148.336 587.179 148.126C587.278 148.559 587.355 148.974 587.402 149.372ZM589.05 146.517C588.682 146.675 588.279 146.817 587.864 146.949C587.62 146.11 587.299 145.237 586.901 144.343C587.295 143.453 587.612 142.584 587.851 141.749C588.275 141.882 588.678 142.028 589.054 142.186C590.57 142.832 591.55 143.68 591.55 144.351C591.545 145.023 590.565 145.875 589.05 146.517Z" fill="#CED7FF"/>
<path d="M581.995 146.307C583.076 146.307 583.951 145.432 583.951 144.351C583.951 143.271 583.076 142.396 581.995 142.396C580.915 142.396 580.039 143.271 580.039 144.351C580.039 145.432 580.915 146.307 581.995 146.307Z" fill="#362CAC"/>
<g style="mix-blend-mode:plus-lighter" filter="url(#filter16_f_313_4597)">
<path d="M592.5 144.351C592.5 142.961 590.758 141.642 588.087 140.825C588.703 138.103 588.429 135.937 587.222 135.244C586.944 135.081 586.619 135.004 586.263 135.004V135.959C586.46 135.959 586.619 135.997 586.751 136.07C587.333 136.404 587.586 137.675 587.389 139.31C587.342 139.712 587.265 140.136 587.171 140.568C586.332 140.363 585.416 140.204 584.453 140.102C583.875 139.31 583.276 138.591 582.672 137.962C584.067 136.665 585.377 135.954 586.268 135.954V135C585.091 135 583.55 135.839 581.991 137.294C580.433 135.847 578.892 135.017 577.715 135.017V135.972C578.601 135.972 579.915 136.678 581.311 137.966C580.712 138.595 580.112 139.31 579.543 140.102C578.576 140.204 577.66 140.363 576.821 140.572C576.722 140.144 576.649 139.729 576.598 139.331C576.397 137.696 576.645 136.425 577.223 136.087C577.351 136.01 577.518 135.976 577.715 135.976V135.021C577.356 135.021 577.03 135.098 576.748 135.261C575.545 135.954 575.275 138.116 575.896 140.829C573.234 141.651 571.5 142.965 571.5 144.351C571.5 145.742 573.242 147.061 575.913 147.878C575.297 150.6 575.571 152.766 576.778 153.459C577.056 153.622 577.381 153.699 577.741 153.699C578.918 153.699 580.459 152.86 582.017 151.405C583.575 152.851 585.116 153.682 586.293 153.682C586.653 153.682 586.978 153.604 587.261 153.442C588.464 152.749 588.733 150.587 588.113 147.874C590.766 147.056 592.5 145.738 592.5 144.351ZM586.927 141.497C586.768 142.049 586.572 142.618 586.349 143.187C586.173 142.845 585.989 142.503 585.788 142.16C585.591 141.818 585.382 141.484 585.172 141.159C585.78 141.249 586.366 141.36 586.927 141.497ZM584.966 146.055C584.632 146.633 584.29 147.18 583.935 147.69C583.297 147.745 582.651 147.775 582 147.775C581.354 147.775 580.707 147.745 580.074 147.694C579.719 147.185 579.372 146.641 579.038 146.068C578.713 145.507 578.417 144.938 578.148 144.364C578.413 143.791 578.713 143.217 579.034 142.657C579.368 142.079 579.71 141.531 580.065 141.022C580.703 140.966 581.349 140.936 582 140.936C582.646 140.936 583.293 140.966 583.926 141.017C584.281 141.527 584.628 142.07 584.962 142.644C585.287 143.204 585.583 143.774 585.852 144.347C585.583 144.921 585.287 145.494 584.966 146.055ZM586.349 145.498C586.58 146.072 586.777 146.645 586.94 147.202C586.379 147.339 585.788 147.454 585.176 147.544C585.386 147.215 585.596 146.877 585.793 146.53C585.989 146.188 586.173 145.841 586.349 145.498ZM582.009 150.065C581.61 149.654 581.212 149.196 580.819 148.695C581.204 148.713 581.598 148.725 581.996 148.725C582.398 148.725 582.796 148.717 583.186 148.695C582.8 149.196 582.402 149.654 582.009 150.065ZM578.824 147.544C578.216 147.454 577.63 147.343 577.069 147.206C577.227 146.654 577.424 146.085 577.647 145.516C577.822 145.858 578.006 146.2 578.208 146.543C578.409 146.885 578.614 147.219 578.824 147.544ZM581.987 138.638C582.385 139.049 582.783 139.507 583.177 140.007C582.792 139.99 582.398 139.977 582 139.977C581.598 139.977 581.2 139.986 580.81 140.007C581.195 139.507 581.593 139.049 581.987 138.638ZM578.82 141.159C578.61 141.488 578.4 141.826 578.203 142.173C578.006 142.515 577.822 142.858 577.647 143.2C577.416 142.627 577.219 142.053 577.056 141.497C577.617 141.364 578.208 141.249 578.82 141.159ZM574.946 146.517C573.43 145.871 572.45 145.023 572.45 144.351C572.45 143.68 573.43 142.828 574.946 142.186C575.314 142.028 575.716 141.886 576.131 141.754C576.375 142.592 576.696 143.466 577.095 144.36C576.701 145.25 576.384 146.119 576.144 146.954C575.721 146.821 575.318 146.675 574.946 146.517ZM577.249 152.633C576.667 152.299 576.414 151.028 576.611 149.393C576.658 148.991 576.735 148.567 576.829 148.135C577.668 148.34 578.584 148.499 579.547 148.601C580.125 149.393 580.724 150.112 581.328 150.741C579.933 152.038 578.623 152.749 577.732 152.749C577.54 152.744 577.377 152.706 577.249 152.633ZM587.402 149.372C587.603 151.007 587.355 152.278 586.777 152.616C586.649 152.693 586.482 152.727 586.285 152.727C585.399 152.727 584.085 152.021 582.689 150.733C583.288 150.104 583.888 149.389 584.457 148.597C585.424 148.494 586.34 148.336 587.179 148.126C587.278 148.559 587.355 148.974 587.402 149.372ZM589.05 146.517C588.682 146.675 588.279 146.817 587.864 146.949C587.62 146.11 587.299 145.237 586.901 144.343C587.295 143.453 587.612 142.584 587.851 141.749C588.275 141.882 588.678 142.028 589.054 142.186C590.57 142.832 591.55 143.68 591.55 144.351C591.545 145.023 590.565 145.875 589.05 146.517Z" fill="#CED7FF"/>
<path d="M581.995 146.307C583.076 146.307 583.951 145.432 583.951 144.351C583.951 143.271 583.076 142.396 581.995 142.396C580.915 142.396 580.039 143.271 580.039 144.351C580.039 145.432 580.915 146.307 581.995 146.307Z" fill="#362CAC"/>
</g>
</g>
</g>
<g opacity="0.8">
<path d="M361.5 386C361.5 386.828 360.828 387.5 360 387.5C359.172 387.5 358.5 386.828 358.5 386L361.5 386ZM358.5 386L358.5 242L361.5 242L361.5 386L358.5 386Z" fill="url(#paint47_linear_313_4597)"/>
<path d="M361.5 386C361.5 386.828 360.828 387.5 360 387.5C359.172 387.5 358.5 386.828 358.5 386L361.5 386ZM358.5 386L358.5 242L361.5 242L361.5 386L358.5 386Z" fill="url(#paint48_linear_313_4597)" style="mix-blend-mode:plus-lighter"/>
</g>
<g style="mix-blend-mode:plus-lighter" opacity="0.4" filter="url(#filter17_f_313_4597)">
<path d="M361.5 386C361.5 386.828 360.828 387.5 360 387.5C359.172 387.5 358.5 386.828 358.5 386L361.5 386ZM358.5 386L358.5 242L361.5 242L361.5 386L358.5 386Z" fill="url(#paint49_linear_313_4597)"/>
<path d="M361.5 386C361.5 386.828 360.828 387.5 360 387.5C359.172 387.5 358.5 386.828 358.5 386L361.5 386ZM358.5 386L358.5 242L361.5 242L361.5 386L358.5 386Z" fill="url(#paint50_linear_313_4597)" style="mix-blend-mode:plus-lighter"/>
</g>
<g style="mix-blend-mode:plus-lighter" opacity="0.4" filter="url(#filter18_f_313_4597)">
<path d="M361.5 386C361.5 386.828 360.828 387.5 360 387.5C359.172 387.5 358.5 386.828 358.5 386L361.5 386ZM358.5 386L358.5 242L361.5 242L361.5 386L358.5 386Z" fill="url(#paint51_linear_313_4597)"/>
<path d="M361.5 386C361.5 386.828 360.828 387.5 360 387.5C359.172 387.5 358.5 386.828 358.5 386L361.5 386ZM358.5 386L358.5 242L361.5 242L361.5 386L358.5 386Z" fill="url(#paint52_linear_313_4597)" style="mix-blend-mode:plus-lighter"/>
</g>
<defs>
<filter id="filter0_ddddd_313_4597" x="238" y="73" width="244" height="359" filterUnits="userSpaceOnUse" color-interpolation-filters="sRGB">
<feFlood flood-opacity="0" result="BackgroundImageFix"/>
<feColorMatrix in="SourceAlpha" type="matrix" values="0 0 0 0 0 0 0 0 0 0 0 0 0 0 0 0 0 0 127 0" result="hardAlpha"/>
<feOffset dy="6"/>
<feGaussianBlur stdDeviation="6.5"/>
<feColorMatrix type="matrix" values="0 0 0 0 0 0 0 0 0 0 0 0 0 0 0 0 0 0 0.34 0"/>
<feBlend mode="normal" in2="BackgroundImageFix" result="effect1_dropShadow_313_4597"/>
<feColorMatrix in="SourceAlpha" type="matrix" values="0 0 0 0 0 0 0 0 0 0 0 0 0 0 0 0 0 0 127 0" result="hardAlpha"/>
<feOffset dy="24"/>
<feGaussianBlur stdDeviation="12"/>
<feColorMatrix type="matrix" values="0 0 0 0 0 0 0 0 0 0 0 0 0 0 0 0 0 0 0.3 0"/>
<feBlend mode="normal" in2="effect1_dropShadow_313_4597" result="effect2_dropShadow_313_4597"/>
<feColorMatrix in="SourceAlpha" type="matrix" values="0 0 0 0 0 0 0 0 0 0 0 0 0 0 0 0 0 0 127 0" result="hardAlpha"/>
<feOffset dy="54"/>
<feGaussianBlur stdDeviation="16"/>
<feColorMatrix type="matrix" values="0 0 0 0 0 0 0 0 0 0 0 0 0 0 0 0 0 0 0.18 0"/>
<feBlend mode="normal" in2="effect2_dropShadow_313_4597" result="effect3_dropShadow_313_4597"/>
<feColorMatrix in="SourceAlpha" type="matrix" values="0 0 0 0 0 0 0 0 0 0 0 0 0 0 0 0 0 0 127 0" result="hardAlpha"/>
<feOffset dy="96"/>
<feGaussianBlur stdDeviation="19"/>
<feColorMatrix type="matrix" values="0 0 0 0 0 0 0 0 0 0 0 0 0 0 0 0 0 0 0.05 0"/>
<feBlend mode="normal" in2="effect3_dropShadow_313_4597" result="effect4_dropShadow_313_4597"/>
<feColorMatrix in="SourceAlpha" type="matrix" values="0 0 0 0 0 0 0 0 0 0 0 0 0 0 0 0 0 0 127 0" result="hardAlpha"/>
<feOffset dy="150"/>
<feGaussianBlur stdDeviation="21"/>
<feColorMatrix type="matrix" values="0 0 0 0 0 0 0 0 0 0 0 0 0 0 0 0 0 0 0.01 0"/>
<feBlend mode="normal" in2="effect4_dropShadow_313_4597" result="effect5_dropShadow_313_4597"/>
<feBlend mode="normal" in="SourceGraphic" in2="effect5_dropShadow_313_4597" result="shape"/>
</filter>
<filter id="filter1_f_313_4597" x="316" y="122" width="88" height="76" filterUnits="userSpaceOnUse" color-interpolation-filters="sRGB">
<feFlood flood-opacity="0" result="BackgroundImageFix"/>
<feBlend mode="normal" in="SourceGraphic" in2="BackgroundImageFix" result="shape"/>
<feGaussianBlur stdDeviation="8" result="effect1_foregroundBlur_313_4597"/>
</filter>
<filter id="filter2_f_313_4597" x="300" y="106" width="120" height="108" filterUnits="userSpaceOnUse" color-interpolation-filters="sRGB">
<feFlood flood-opacity="0" result="BackgroundImageFix"/>
<feBlend mode="normal" in="SourceGraphic" in2="BackgroundImageFix" result="shape"/>
<feGaussianBlur stdDeviation="16" result="effect1_foregroundBlur_313_4597"/>
</filter>
<filter id="filter3_f_313_4597" x="276" y="76" width="168" height="168" filterUnits="userSpaceOnUse" color-interpolation-filters="sRGB">
<feFlood flood-opacity="0" result="BackgroundImageFix"/>
<feBlend mode="normal" in="SourceGraphic" in2="BackgroundImageFix" result="shape"/>
<feGaussianBlur stdDeviation="2" result="effect1_foregroundBlur_313_4597"/>
</filter>
<filter id="filter4_f_313_4597" x="272" y="72" width="176" height="176" filterUnits="userSpaceOnUse" color-interpolation-filters="sRGB">
<feFlood flood-opacity="0" result="BackgroundImageFix"/>
<feBlend mode="normal" in="SourceGraphic" in2="BackgroundImageFix" result="shape"/>
<feGaussianBlur stdDeviation="4" result="effect1_foregroundBlur_313_4597"/>
</filter>
<filter id="filter5_dddd_313_4597" x="225" y="22" width="76" height="97" filterUnits="userSpaceOnUse" color-interpolation-filters="sRGB">
<feFlood flood-opacity="0" result="BackgroundImageFix"/>
<feColorMatrix in="SourceAlpha" type="matrix" values="0 0 0 0 0 0 0 0 0 0 0 0 0 0 0 0 0 0 127 0" result="hardAlpha"/>
<feOffset dy="2"/>
<feGaussianBlur stdDeviation="2"/>
<feColorMatrix type="matrix" values="0 0 0 0 0 0 0 0 0 0 0 0 0 0 0 0 0 0 0.25 0"/>
<feBlend mode="normal" in2="BackgroundImageFix" result="effect1_dropShadow_313_4597"/>
<feColorMatrix in="SourceAlpha" type="matrix" values="0 0 0 0 0 0 0 0 0 0 0 0 0 0 0 0 0 0 127 0" result="hardAlpha"/>
<feOffset dy="8"/>
<feGaussianBlur stdDeviation="4"/>
<feColorMatrix type="matrix" values="0 0 0 0 0 0 0 0 0 0 0 0 0 0 0 0 0 0 0.21 0"/>
<feBlend mode="normal" in2="effect1_dropShadow_313_4597" result="effect2_dropShadow_313_4597"/>
<feColorMatrix in="SourceAlpha" type="matrix" values="0 0 0 0 0 0 0 0 0 0 0 0 0 0 0 0 0 0 127 0" result="hardAlpha"/>
<feOffset dy="18"/>
<feGaussianBlur stdDeviation="5.5"/>
<feColorMatrix type="matrix" values="0 0 0 0 0 0 0 0 0 0 0 0 0 0 0 0 0 0 0.13 0"/>
<feBlend mode="normal" in2="effect2_dropShadow_313_4597" result="effect3_dropShadow_313_4597"/>
<feColorMatrix in="SourceAlpha" type="matrix" values="0 0 0 0 0 0 0 0 0 0 0 0 0 0 0 0 0 0 127 0" result="hardAlpha"/>
<feOffset dy="32"/>
<feGaussianBlur stdDeviation="6.5"/>
<feColorMatrix type="matrix" values="0 0 0 0 0 0 0 0 0 0 0 0 0 0 0 0 0 0 0.04 0"/>
<feBlend mode="normal" in2="effect3_dropShadow_313_4597" result="effect4_dropShadow_313_4597"/>
<feBlend mode="normal" in="SourceGraphic" in2="effect4_dropShadow_313_4597" result="shape"/>
</filter>
<filter id="filter6_f_313_4597" x="247.5" y="32.875" width="29.6992" height="33.4668" filterUnits="userSpaceOnUse" color-interpolation-filters="sRGB">
<feFlood flood-opacity="0" result="BackgroundImageFix"/>
<feBlend mode="normal" in="SourceGraphic" in2="BackgroundImageFix" result="shape"/>
<feGaussianBlur stdDeviation="4" result="effect1_foregroundBlur_313_4597"/>
</filter>
<filter id="filter7_dddd_313_4597" x="419" y="22" width="76" height="97" filterUnits="userSpaceOnUse" color-interpolation-filters="sRGB">
<feFlood flood-opacity="0" result="BackgroundImageFix"/>
<feColorMatrix in="SourceAlpha" type="matrix" values="0 0 0 0 0 0 0 0 0 0 0 0 0 0 0 0 0 0 127 0" result="hardAlpha"/>
<feOffset dy="2"/>
<feGaussianBlur stdDeviation="2"/>
<feColorMatrix type="matrix" values="0 0 0 0 0 0 0 0 0 0 0 0 0 0 0 0 0 0 0.25 0"/>
<feBlend mode="normal" in2="BackgroundImageFix" result="effect1_dropShadow_313_4597"/>
<feColorMatrix in="SourceAlpha" type="matrix" values="0 0 0 0 0 0 0 0 0 0 0 0 0 0 0 0 0 0 127 0" result="hardAlpha"/>
<feOffset dy="8"/>
<feGaussianBlur stdDeviation="4"/>
<feColorMatrix type="matrix" values="0 0 0 0 0 0 0 0 0 0 0 0 0 0 0 0 0 0 0.21 0"/>
<feBlend mode="normal" in2="effect1_dropShadow_313_4597" result="effect2_dropShadow_313_4597"/>
<feColorMatrix in="SourceAlpha" type="matrix" values="0 0 0 0 0 0 0 0 0 0 0 0 0 0 0 0 0 0 127 0" result="hardAlpha"/>
<feOffset dy="18"/>
<feGaussianBlur stdDeviation="5.5"/>
<feColorMatrix type="matrix" values="0 0 0 0 0 0 0 0 0 0 0 0 0 0 0 0 0 0 0.13 0"/>
<feBlend mode="normal" in2="effect2_dropShadow_313_4597" result="effect3_dropShadow_313_4597"/>
<feColorMatrix in="SourceAlpha" type="matrix" values="0 0 0 0 0 0 0 0 0 0 0 0 0 0 0 0 0 0 127 0" result="hardAlpha"/>
<feOffset dy="32"/>
<feGaussianBlur stdDeviation="6.5"/>
<feColorMatrix type="matrix" values="0 0 0 0 0 0 0 0 0 0 0 0 0 0 0 0 0 0 0.04 0"/>
<feBlend mode="normal" in2="effect3_dropShadow_313_4597" result="effect4_dropShadow_313_4597"/>
<feBlend mode="normal" in="SourceGraphic" in2="effect4_dropShadow_313_4597" result="shape"/>
</filter>
<filter id="filter8_f_313_4597" x="440.25" y="32.25" width="33.457" height="33.3672" filterUnits="userSpaceOnUse" color-interpolation-filters="sRGB">
<feFlood flood-opacity="0" result="BackgroundImageFix"/>
<feBlend mode="normal" in="SourceGraphic" in2="BackgroundImageFix" result="shape"/>
<feGaussianBlur stdDeviation="4" result="effect1_foregroundBlur_313_4597"/>
</filter>
<filter id="filter9_dddd_313_4597" x="147" y="214" width="106" height="127" filterUnits="userSpaceOnUse" color-interpolation-filters="sRGB">
<feFlood flood-opacity="0" result="BackgroundImageFix"/>
<feColorMatrix in="SourceAlpha" type="matrix" values="0 0 0 0 0 0 0 0 0 0 0 0 0 0 0 0 0 0 127 0" result="hardAlpha"/>
<feOffset dy="2"/>
<feGaussianBlur stdDeviation="2"/>
<feColorMatrix type="matrix" values="0 0 0 0 0 0 0 0 0 0 0 0 0 0 0 0 0 0 0.25 0"/>
<feBlend mode="normal" in2="BackgroundImageFix" result="effect1_dropShadow_313_4597"/>
<feColorMatrix in="SourceAlpha" type="matrix" values="0 0 0 0 0 0 0 0 0 0 0 0 0 0 0 0 0 0 127 0" result="hardAlpha"/>
<feOffset dy="8"/>
<feGaussianBlur stdDeviation="4"/>
<feColorMatrix type="matrix" values="0 0 0 0 0 0 0 0 0 0 0 0 0 0 0 0 0 0 0.21 0"/>
<feBlend mode="normal" in2="effect1_dropShadow_313_4597" result="effect2_dropShadow_313_4597"/>
<feColorMatrix in="SourceAlpha" type="matrix" values="0 0 0 0 0 0 0 0 0 0 0 0 0 0 0 0 0 0 127 0" result="hardAlpha"/>
<feOffset dy="18"/>
<feGaussianBlur stdDeviation="5.5"/>
<feColorMatrix type="matrix" values="0 0 0 0 0 0 0 0 0 0 0 0 0 0 0 0 0 0 0.13 0"/>
<feBlend mode="normal" in2="effect2_dropShadow_313_4597" result="effect3_dropShadow_313_4597"/>
<feColorMatrix in="SourceAlpha" type="matrix" values="0 0 0 0 0 0 0 0 0 0 0 0 0 0 0 0 0 0 127 0" result="hardAlpha"/>
<feOffset dy="32"/>
<feGaussianBlur stdDeviation="6.5"/>
<feColorMatrix type="matrix" values="0 0 0 0 0 0 0 0 0 0 0 0 0 0 0 0 0 0 0.04 0"/>
<feBlend mode="normal" in2="effect3_dropShadow_313_4597" result="effect4_dropShadow_313_4597"/>
<feBlend mode="normal" in="SourceGraphic" in2="effect4_dropShadow_313_4597" result="shape"/>
</filter>
<filter id="filter10_f_313_4597" x="177" y="236" width="44" height="38.6016" filterUnits="userSpaceOnUse" color-interpolation-filters="sRGB">
<feFlood flood-opacity="0" result="BackgroundImageFix"/>
<feBlend mode="normal" in="SourceGraphic" in2="BackgroundImageFix" result="shape"/>
<feGaussianBlur stdDeviation="4" result="effect1_foregroundBlur_313_4597"/>
</filter>
<filter id="filter11_dddd_313_4597" x="467" y="214" width="106" height="127" filterUnits="userSpaceOnUse" color-interpolation-filters="sRGB">
<feFlood flood-opacity="0" result="BackgroundImageFix"/>
<feColorMatrix in="SourceAlpha" type="matrix" values="0 0 0 0 0 0 0 0 0 0 0 0 0 0 0 0 0 0 127 0" result="hardAlpha"/>
<feOffset dy="2"/>
<feGaussianBlur stdDeviation="2"/>
<feColorMatrix type="matrix" values="0 0 0 0 0 0 0 0 0 0 0 0 0 0 0 0 0 0 0.25 0"/>
<feBlend mode="normal" in2="BackgroundImageFix" result="effect1_dropShadow_313_4597"/>
<feColorMatrix in="SourceAlpha" type="matrix" values="0 0 0 0 0 0 0 0 0 0 0 0 0 0 0 0 0 0 127 0" result="hardAlpha"/>
<feOffset dy="8"/>
<feGaussianBlur stdDeviation="4"/>
<feColorMatrix type="matrix" values="0 0 0 0 0 0 0 0 0 0 0 0 0 0 0 0 0 0 0.21 0"/>
<feBlend mode="normal" in2="effect1_dropShadow_313_4597" result="effect2_dropShadow_313_4597"/>
<feColorMatrix in="SourceAlpha" type="matrix" values="0 0 0 0 0 0 0 0 0 0 0 0 0 0 0 0 0 0 127 0" result="hardAlpha"/>
<feOffset dy="18"/>
<feGaussianBlur stdDeviation="5.5"/>
<feColorMatrix type="matrix" values="0 0 0 0 0 0 0 0 0 0 0 0 0 0 0 0 0 0 0.13 0"/>
<feBlend mode="normal" in2="effect2_dropShadow_313_4597" result="effect3_dropShadow_313_4597"/>
<feColorMatrix in="SourceAlpha" type="matrix" values="0 0 0 0 0 0 0 0 0 0 0 0 0 0 0 0 0 0 127 0" result="hardAlpha"/>
<feOffset dy="32"/>
<feGaussianBlur stdDeviation="6.5"/>
<feColorMatrix type="matrix" values="0 0 0 0 0 0 0 0 0 0 0 0 0 0 0 0 0 0 0.04 0"/>
<feBlend mode="normal" in2="effect3_dropShadow_313_4597" result="effect4_dropShadow_313_4597"/>
<feBlend mode="normal" in="SourceGraphic" in2="effect4_dropShadow_313_4597" result="shape"/>
</filter>
<filter id="filter12_f_313_4597" x="502" y="237.679" width="40.4023" height="44.3213" filterUnits="userSpaceOnUse" color-interpolation-filters="sRGB">
<feFlood flood-opacity="0" result="BackgroundImageFix"/>
<feBlend mode="normal" in="SourceGraphic" in2="BackgroundImageFix" result="shape"/>
<feGaussianBlur stdDeviation="4" result="effect1_foregroundBlur_313_4597"/>
</filter>
<filter id="filter13_dddd_313_4597" x="95" y="112" width="86" height="107" filterUnits="userSpaceOnUse" color-interpolation-filters="sRGB">
<feFlood flood-opacity="0" result="BackgroundImageFix"/>
<feColorMatrix in="SourceAlpha" type="matrix" values="0 0 0 0 0 0 0 0 0 0 0 0 0 0 0 0 0 0 127 0" result="hardAlpha"/>
<feOffset dy="2"/>
<feGaussianBlur stdDeviation="2"/>
<feColorMatrix type="matrix" values="0 0 0 0 0 0 0 0 0 0 0 0 0 0 0 0 0 0 0.25 0"/>
<feBlend mode="normal" in2="BackgroundImageFix" result="effect1_dropShadow_313_4597"/>
<feColorMatrix in="SourceAlpha" type="matrix" values="0 0 0 0 0 0 0 0 0 0 0 0 0 0 0 0 0 0 127 0" result="hardAlpha"/>
<feOffset dy="8"/>
<feGaussianBlur stdDeviation="4"/>
<feColorMatrix type="matrix" values="0 0 0 0 0 0 0 0 0 0 0 0 0 0 0 0 0 0 0.21 0"/>
<feBlend mode="normal" in2="effect1_dropShadow_313_4597" result="effect2_dropShadow_313_4597"/>
<feColorMatrix in="SourceAlpha" type="matrix" values="0 0 0 0 0 0 0 0 0 0 0 0 0 0 0 0 0 0 127 0" result="hardAlpha"/>
<feOffset dy="18"/>
<feGaussianBlur stdDeviation="5.5"/>
<feColorMatrix type="matrix" values="0 0 0 0 0 0 0 0 0 0 0 0 0 0 0 0 0 0 0.13 0"/>
<feBlend mode="normal" in2="effect2_dropShadow_313_4597" result="effect3_dropShadow_313_4597"/>
<feColorMatrix in="SourceAlpha" type="matrix" values="0 0 0 0 0 0 0 0 0 0 0 0 0 0 0 0 0 0 127 0" result="hardAlpha"/>
<feOffset dy="32"/>
<feGaussianBlur stdDeviation="6.5"/>
<feColorMatrix type="matrix" values="0 0 0 0 0 0 0 0 0 0 0 0 0 0 0 0 0 0 0.04 0"/>
<feBlend mode="normal" in2="effect3_dropShadow_313_4597" result="effect4_dropShadow_313_4597"/>
<feBlend mode="normal" in="SourceGraphic" in2="effect4_dropShadow_313_4597" result="shape"/>
</filter>
<filter id="filter14_f_313_4597" x="120.5" y="125.75" width="37.7949" height="38" filterUnits="userSpaceOnUse" color-interpolation-filters="sRGB">
<feFlood flood-opacity="0" result="BackgroundImageFix"/>
<feBlend mode="normal" in="SourceGraphic" in2="BackgroundImageFix" result="shape"/>
<feGaussianBlur stdDeviation="4" result="effect1_foregroundBlur_313_4597"/>
</filter>
<filter id="filter15_dddd_313_4597" x="539" y="112" width="86" height="107" filterUnits="userSpaceOnUse" color-interpolation-filters="sRGB">
<feFlood flood-opacity="0" result="BackgroundImageFix"/>
<feColorMatrix in="SourceAlpha" type="matrix" values="0 0 0 0 0 0 0 0 0 0 0 0 0 0 0 0 0 0 127 0" result="hardAlpha"/>
<feOffset dy="2"/>
<feGaussianBlur stdDeviation="2"/>
<feColorMatrix type="matrix" values="0 0 0 0 0 0 0 0 0 0 0 0 0 0 0 0 0 0 0.25 0"/>
<feBlend mode="normal" in2="BackgroundImageFix" result="effect1_dropShadow_313_4597"/>
<feColorMatrix in="SourceAlpha" type="matrix" values="0 0 0 0 0 0 0 0 0 0 0 0 0 0 0 0 0 0 127 0" result="hardAlpha"/>
<feOffset dy="8"/>
<feGaussianBlur stdDeviation="4"/>
<feColorMatrix type="matrix" values="0 0 0 0 0 0 0 0 0 0 0 0 0 0 0 0 0 0 0.21 0"/>
<feBlend mode="normal" in2="effect1_dropShadow_313_4597" result="effect2_dropShadow_313_4597"/>
<feColorMatrix in="SourceAlpha" type="matrix" values="0 0 0 0 0 0 0 0 0 0 0 0 0 0 0 0 0 0 127 0" result="hardAlpha"/>
<feOffset dy="18"/>
<feGaussianBlur stdDeviation="5.5"/>
<feColorMatrix type="matrix" values="0 0 0 0 0 0 0 0 0 0 0 0 0 0 0 0 0 0 0.13 0"/>
<feBlend mode="normal" in2="effect2_dropShadow_313_4597" result="effect3_dropShadow_313_4597"/>
<feColorMatrix in="SourceAlpha" type="matrix" values="0 0 0 0 0 0 0 0 0 0 0 0 0 0 0 0 0 0 127 0" result="hardAlpha"/>
<feOffset dy="32"/>
<feGaussianBlur stdDeviation="6.5"/>
<feColorMatrix type="matrix" values="0 0 0 0 0 0 0 0 0 0 0 0 0 0 0 0 0 0 0.04 0"/>
<feBlend mode="normal" in2="effect3_dropShadow_313_4597" result="effect4_dropShadow_313_4597"/>
<feBlend mode="normal" in="SourceGraphic" in2="effect4_dropShadow_313_4597" result="shape"/>
</filter>
<filter id="filter16_f_313_4597" x="563.5" y="127" width="37" height="34.6987" filterUnits="userSpaceOnUse" color-interpolation-filters="sRGB">
<feFlood flood-opacity="0" result="BackgroundImageFix"/>
<feBlend mode="normal" in="SourceGraphic" in2="BackgroundImageFix" result="shape"/>
<feGaussianBlur stdDeviation="4" result="effect1_foregroundBlur_313_4597"/>
</filter>
<filter id="filter17_f_313_4597" x="354.5" y="238" width="11" height="153.5" filterUnits="userSpaceOnUse" color-interpolation-filters="sRGB">
<feFlood flood-opacity="0" result="BackgroundImageFix"/>
<feBlend mode="normal" in="SourceGraphic" in2="BackgroundImageFix" result="shape"/>
<feGaussianBlur stdDeviation="2" result="effect1_foregroundBlur_313_4597"/>
</filter>
<filter id="filter18_f_313_4597" x="350.5" y="234" width="19" height="161.5" filterUnits="userSpaceOnUse" color-interpolation-filters="sRGB">
<feFlood flood-opacity="0" result="BackgroundImageFix"/>
<feBlend mode="normal" in="SourceGraphic" in2="BackgroundImageFix" result="shape"/>
<feGaussianBlur stdDeviation="4" result="effect1_foregroundBlur_313_4597"/>
</filter>
<radialGradient id="paint0_radial_313_4597" cx="0" cy="0" r="1" gradientUnits="userSpaceOnUse" gradientTransform="translate(359.1 176) rotate(90) scale(139 262.339)">
<stop stop-color="#362CAC"/>
<stop offset="1" stop-color="#101010" stop-opacity="0"/>
</radialGradient>
<linearGradient id="paint1_linear_313_4597" x1="457" y1="116.5" x2="435.126" y2="120.117" gradientUnits="userSpaceOnUse">
<stop stop-color="#362CAC"/>
<stop offset="1" stop-color="#362CAC" stop-opacity="0"/>
</linearGradient>
<linearGradient id="paint2_linear_313_4597" x1="457" y1="116.5" x2="435.126" y2="120.117" gradientUnits="userSpaceOnUse">
<stop stop-color="#362CAC"/>
<stop offset="1" stop-color="#362CAC" stop-opacity="0"/>
</linearGradient>
<linearGradient id="paint3_linear_313_4597" x1="263" y1="117" x2="284.888" y2="120.577" gradientUnits="userSpaceOnUse">
<stop stop-color="#362CAC"/>
<stop offset="1" stop-color="#362CAC" stop-opacity="0"/>
</linearGradient>
<linearGradient id="paint4_linear_313_4597" x1="263" y1="117" x2="284.888" y2="120.577" gradientUnits="userSpaceOnUse">
<stop stop-color="#362CAC"/>
<stop offset="1" stop-color="#362CAC" stop-opacity="0"/>
</linearGradient>
<linearGradient id="paint5_linear_313_4597" x1="552" y1="145" x2="551.882" y2="148.193" gradientUnits="userSpaceOnUse">
<stop stop-color="#362CAC"/>
<stop offset="1" stop-color="#362CAC" stop-opacity="0"/>
</linearGradient>
<linearGradient id="paint6_linear_313_4597" x1="552" y1="145" x2="551.882" y2="148.193" gradientUnits="userSpaceOnUse">
<stop stop-color="#362CAC"/>
<stop offset="1" stop-color="#362CAC" stop-opacity="0"/>
</linearGradient>
<linearGradient id="paint7_linear_313_4597" x1="168" y1="143" x2="168.118" y2="139.807" gradientUnits="userSpaceOnUse">
<stop stop-color="#362CAC"/>
<stop offset="1" stop-color="#362CAC" stop-opacity="0"/>
</linearGradient>
<linearGradient id="paint8_linear_313_4597" x1="168" y1="143" x2="168.118" y2="139.807" gradientUnits="userSpaceOnUse">
<stop stop-color="#362CAC"/>
<stop offset="1" stop-color="#362CAC" stop-opacity="0"/>
</linearGradient>
<linearGradient id="paint9_linear_313_4597" x1="491" y1="229" x2="456.37" y2="251.993" gradientUnits="userSpaceOnUse">
<stop stop-color="#362CAC"/>
<stop offset="1" stop-color="#362CAC" stop-opacity="0"/>
</linearGradient>
<linearGradient id="paint10_linear_313_4597" x1="491" y1="229" x2="456.37" y2="251.993" gradientUnits="userSpaceOnUse">
<stop stop-color="#362CAC"/>
<stop offset="1" stop-color="#362CAC" stop-opacity="0"/>
</linearGradient>
<linearGradient id="paint11_linear_313_4597" x1="229" y1="229" x2="263.17" y2="252.181" gradientUnits="userSpaceOnUse">
<stop stop-color="#362CAC"/>
<stop offset="1" stop-color="#362CAC" stop-opacity="0"/>
</linearGradient>
<linearGradient id="paint12_linear_313_4597" x1="229" y1="229" x2="263.17" y2="252.181" gradientUnits="userSpaceOnUse">
<stop stop-color="#362CAC"/>
<stop offset="1" stop-color="#362CAC" stop-opacity="0"/>
</linearGradient>
<linearGradient id="paint13_linear_313_4597" x1="360" y1="80" x2="360" y2="240" gradientUnits="userSpaceOnUse">
<stop stop-color="#202020"/>
<stop offset="1" stop-color="#131313"/>
</linearGradient>
<linearGradient id="paint14_linear_313_4597" x1="378.866" y1="138" x2="361.562" y2="190.904" gradientUnits="userSpaceOnUse">
<stop offset="0.2" stop-color="#8880E3"/>
<stop offset="0.5" stop-color="#CED7FF"/>
<stop offset="0.8" stop-color="#8880E3"/>
</linearGradient>
<linearGradient id="paint15_linear_313_4597" x1="378.866" y1="138" x2="361.562" y2="190.904" gradientUnits="userSpaceOnUse">
<stop offset="0.2" stop-color="#8880E3"/>
<stop offset="0.5" stop-color="#CED7FF"/>
<stop offset="0.8" stop-color="#8880E3"/>
</linearGradient>
<linearGradient id="paint16_linear_313_4597" x1="378.866" y1="138" x2="361.562" y2="190.904" gradientUnits="userSpaceOnUse">
<stop offset="0.2" stop-color="#8880E3"/>
<stop offset="0.5" stop-color="#CED7FF"/>
<stop offset="0.8" stop-color="#8880E3"/>
</linearGradient>
<linearGradient id="paint17_linear_313_4597" x1="377.667" y1="160.333" x2="386.333" y2="182" gradientUnits="userSpaceOnUse">
<stop stop-opacity="0"/>
<stop offset="1" stop-opacity="0.25"/>
</linearGradient>
<linearGradient id="paint18_linear_313_4597" x1="347.333" y1="138" x2="357.333" y2="155" gradientUnits="userSpaceOnUse">
<stop stop-color="white" stop-opacity="0.3"/>
<stop offset="1" stop-color="white" stop-opacity="0"/>
</linearGradient>
<linearGradient id="paint19_linear_313_4597" x1="25" y1="0" x2="25" y2="50" gradientUnits="userSpaceOnUse">
<stop stop-color="#1C1C1C"/>
<stop offset="1" stop-color="#131313"/>
</linearGradient>
<linearGradient id="paint20_linear_313_4597" x1="39.6875" y1="2.91737e-07" x2="5.9375" y2="37.8125" gradientUnits="userSpaceOnUse">
<stop stop-opacity="0"/>
<stop offset="1" stop-color="#362CAC"/>
</linearGradient>
<linearGradient id="paint21_linear_313_4597" x1="27.1875" y1="20.9375" x2="3.4375" y2="37.1875" gradientUnits="userSpaceOnUse">
<stop stop-color="#362CAC" stop-opacity="0"/>
<stop offset="1" stop-color="#362CAC"/>
</linearGradient>
<linearGradient id="paint22_linear_313_4597" x1="27.1875" y1="20.9375" x2="3.4375" y2="37.1875" gradientUnits="userSpaceOnUse">
<stop stop-color="#362CAC" stop-opacity="0"/>
<stop offset="1" stop-color="#362CAC"/>
</linearGradient>
<linearGradient id="paint23_linear_313_4597" x1="457" y1="24" x2="457" y2="74" gradientUnits="userSpaceOnUse">
<stop stop-color="#1C1C1C"/>
<stop offset="1" stop-color="#131313"/>
</linearGradient>
<linearGradient id="paint24_linear_313_4597" x1="471.688" y1="24" x2="437.937" y2="61.8125" gradientUnits="userSpaceOnUse">
<stop stop-opacity="0"/>
<stop offset="1" stop-color="#362CAC"/>
</linearGradient>
<linearGradient id="paint25_linear_313_4597" x1="459.188" y1="44.9375" x2="435.438" y2="61.1875" gradientUnits="userSpaceOnUse">
<stop stop-color="#362CAC" stop-opacity="0"/>
<stop offset="1" stop-color="#362CAC"/>
</linearGradient>
<linearGradient id="paint26_linear_313_4597" x1="459.188" y1="44.9375" x2="435.438" y2="61.1875" gradientUnits="userSpaceOnUse">
<stop stop-color="#362CAC" stop-opacity="0"/>
<stop offset="1" stop-color="#362CAC"/>
</linearGradient>
<linearGradient id="paint27_linear_313_4597" x1="200" y1="216" x2="200" y2="296" gradientUnits="userSpaceOnUse">
<stop stop-color="#1C1C1C"/>
<stop offset="1" stop-color="#131313"/>
</linearGradient>
<linearGradient id="paint28_linear_313_4597" x1="223.5" y1="216" x2="169.5" y2="276.5" gradientUnits="userSpaceOnUse">
<stop stop-opacity="0"/>
<stop offset="1" stop-color="#362CAC"/>
</linearGradient>
<linearGradient id="paint29_linear_313_4597" x1="203.5" y1="249.5" x2="165.5" y2="275.5" gradientUnits="userSpaceOnUse">
<stop stop-color="#362CAC" stop-opacity="0"/>
<stop offset="1" stop-color="#362CAC"/>
</linearGradient>
<linearGradient id="paint30_linear_313_4597" x1="203.5" y1="249.5" x2="165.5" y2="275.5" gradientUnits="userSpaceOnUse">
<stop stop-color="#362CAC" stop-opacity="0"/>
<stop offset="1" stop-color="#362CAC"/>
</linearGradient>
<linearGradient id="paint31_linear_313_4597" x1="40" y1="0" x2="40" y2="80" gradientUnits="userSpaceOnUse">
<stop stop-color="#1C1C1C"/>
<stop offset="1" stop-color="#131313"/>
</linearGradient>
<linearGradient id="paint32_linear_313_4597" x1="63.5" y1="4.66779e-07" x2="9.5" y2="60.5" gradientUnits="userSpaceOnUse">
<stop stop-opacity="0"/>
<stop offset="1" stop-color="#362CAC"/>
</linearGradient>
<linearGradient id="paint33_linear_313_4597" x1="43.5" y1="33.5" x2="5.5" y2="59.5" gradientUnits="userSpaceOnUse">
<stop stop-color="#362CAC" stop-opacity="0"/>
<stop offset="1" stop-color="#362CAC"/>
</linearGradient>
<linearGradient id="paint34_linear_313_4597" x1="43.5" y1="33.5" x2="5.5" y2="59.5" gradientUnits="userSpaceOnUse">
<stop stop-color="#362CAC" stop-opacity="0"/>
<stop offset="1" stop-color="#362CAC"/>
</linearGradient>
<linearGradient id="paint35_linear_313_4597" x1="520.044" y1="264.499" x2="528.194" y2="274.6" gradientUnits="userSpaceOnUse">
<stop stop-color="#CED7FF"/>
<stop offset="1" stop-color="#CED7FF" stop-opacity="0"/>
</linearGradient>
<linearGradient id="paint36_linear_313_4597" x1="527.117" y1="245.674" x2="527.062" y2="259.183" gradientUnits="userSpaceOnUse">
<stop stop-color="#362CAC"/>
<stop offset="1" stop-color="#362CAC" stop-opacity="0"/>
</linearGradient>
<linearGradient id="paint37_linear_313_4597" x1="520.044" y1="264.499" x2="528.194" y2="274.6" gradientUnits="userSpaceOnUse">
<stop stop-color="#CED7FF"/>
<stop offset="1" stop-color="#CED7FF" stop-opacity="0"/>
</linearGradient>
<linearGradient id="paint38_linear_313_4597" x1="527.117" y1="245.674" x2="527.062" y2="259.183" gradientUnits="userSpaceOnUse">
<stop stop-color="#362CAC"/>
<stop offset="1" stop-color="#362CAC" stop-opacity="0"/>
</linearGradient>
<linearGradient id="paint39_linear_313_4597" x1="30" y1="0" x2="30" y2="60" gradientUnits="userSpaceOnUse">
<stop stop-color="#1C1C1C"/>
<stop offset="1" stop-color="#131313"/>
</linearGradient>
<linearGradient id="paint40_linear_313_4597" x1="52.125" y1="30" x2="-8.16885e-07" y2="30" gradientUnits="userSpaceOnUse">
<stop stop-opacity="0"/>
<stop offset="1" stop-color="#362CAC"/>
</linearGradient>
<linearGradient id="paint41_linear_313_4597" x1="30" y1="30" x2="0.75" y2="30" gradientUnits="userSpaceOnUse">
<stop stop-color="#362CAC" stop-opacity="0"/>
<stop offset="1" stop-color="#362CAC"/>
</linearGradient>
<linearGradient id="paint42_linear_313_4597" x1="30" y1="30" x2="0.75" y2="30" gradientUnits="userSpaceOnUse">
<stop stop-color="#362CAC" stop-opacity="0"/>
<stop offset="1" stop-color="#362CAC"/>
</linearGradient>
<linearGradient id="paint43_linear_313_4597" x1="582" y1="114" x2="582" y2="174" gradientUnits="userSpaceOnUse">
<stop stop-color="#1C1C1C"/>
<stop offset="1" stop-color="#131313"/>
</linearGradient>
<linearGradient id="paint44_linear_313_4597" x1="604.125" y1="144" x2="552" y2="144" gradientUnits="userSpaceOnUse">
<stop stop-opacity="0"/>
<stop offset="1" stop-color="#362CAC"/>
</linearGradient>
<linearGradient id="paint45_linear_313_4597" x1="582" y1="144" x2="552.75" y2="144" gradientUnits="userSpaceOnUse">
<stop stop-color="#362CAC" stop-opacity="0"/>
<stop offset="1" stop-color="#362CAC"/>
</linearGradient>
<linearGradient id="paint46_linear_313_4597" x1="582" y1="144" x2="552.75" y2="144" gradientUnits="userSpaceOnUse">
<stop stop-color="#362CAC" stop-opacity="0"/>
<stop offset="1" stop-color="#362CAC"/>
</linearGradient>
<linearGradient id="paint47_linear_313_4597" x1="359.5" y1="242" x2="359.5" y2="386" gradientUnits="userSpaceOnUse">
<stop stop-color="#362CAC" stop-opacity="0"/>
<stop offset="1" stop-color="#362CAC"/>
</linearGradient>
<linearGradient id="paint48_linear_313_4597" x1="359.5" y1="242" x2="359.5" y2="386" gradientUnits="userSpaceOnUse">
<stop stop-color="#362CAC" stop-opacity="0"/>
<stop offset="1" stop-color="#362CAC"/>
</linearGradient>
<linearGradient id="paint49_linear_313_4597" x1="359.5" y1="242" x2="359.5" y2="386" gradientUnits="userSpaceOnUse">
<stop stop-color="#362CAC" stop-opacity="0"/>
<stop offset="1" stop-color="#362CAC"/>
</linearGradient>
<linearGradient id="paint50_linear_313_4597" x1="359.5" y1="242" x2="359.5" y2="386" gradientUnits="userSpaceOnUse">
<stop stop-color="#362CAC" stop-opacity="0"/>
<stop offset="1" stop-color="#362CAC"/>
</linearGradient>
<linearGradient id="paint51_linear_313_4597" x1="359.5" y1="242" x2="359.5" y2="386" gradientUnits="userSpaceOnUse">
<stop stop-color="#362CAC" stop-opacity="0"/>
<stop offset="1" stop-color="#362CAC"/>
</linearGradient>
<linearGradient id="paint52_linear_313_4597" x1="359.5" y1="242" x2="359.5" y2="386" gradientUnits="userSpaceOnUse">
<stop stop-color="#362CAC" stop-opacity="0"/>
<stop offset="1" stop-color="#362CAC"/>
</linearGradient>
</defs>
</svg>
