<svg width="255" height="80" viewBox="0 0 255 80" fill="none" xmlns="http://www.w3.org/2000/svg">
<path d="M37.9432 32.125C37.8371 31.1326 37.3902 30.3598 36.6023 29.8068C35.822 29.2538 34.8068 28.9773 33.5568 28.9773C32.678 28.9773 31.9242 29.1098 31.2955 29.375C30.6667 29.6402 30.1856 30 29.8523 30.4545C29.5189 30.9091 29.3485 31.428 29.3409 32.0114C29.3409 32.4962 29.4508 32.9167 29.6705 33.2727C29.8977 33.6288 30.2045 33.9318 30.5909 34.1818C30.9773 34.4242 31.4053 34.6288 31.875 34.7955C32.3447 34.9621 32.8182 35.1023 33.2955 35.2159L35.4773 35.7614C36.3561 35.9659 37.2008 36.2424 38.0114 36.5909C38.8295 36.9394 39.5606 37.3788 40.2045 37.9091C40.8561 38.4394 41.3712 39.0795 41.75 39.8295C42.1288 40.5795 42.3182 41.4583 42.3182 42.4659C42.3182 43.8295 41.9697 45.0303 41.2727 46.0682C40.5758 47.0985 39.5682 47.9053 38.25 48.4886C36.9394 49.0644 35.3523 49.3523 33.4886 49.3523C31.678 49.3523 30.1061 49.072 28.7727 48.5114C27.447 47.9508 26.4091 47.1326 25.6591 46.0568C24.9167 44.9811 24.5152 43.6705 24.4545 42.125H28.6023C28.6629 42.9356 28.9129 43.6098 29.3523 44.1477C29.7917 44.6856 30.3636 45.0871 31.0682 45.3523C31.7803 45.6174 32.5758 45.75 33.4545 45.75C34.3712 45.75 35.1742 45.6136 35.8636 45.3409C36.5606 45.0606 37.1061 44.6742 37.5 44.1818C37.8939 43.6818 38.0947 43.0985 38.1023 42.4318C38.0947 41.8258 37.9167 41.3258 37.5682 40.9318C37.2197 40.5303 36.7311 40.197 36.1023 39.9318C35.4811 39.6591 34.7538 39.4167 33.9205 39.2045L31.2727 38.5227C29.3561 38.0303 27.8409 37.2841 26.7273 36.2841C25.6212 35.2765 25.0682 33.9394 25.0682 32.2727C25.0682 30.9015 25.4394 29.7008 26.1818 28.6705C26.9318 27.6402 27.9508 26.8409 29.2386 26.2727C30.5265 25.697 31.9848 25.4091 33.6136 25.4091C35.2652 25.4091 36.7121 25.697 37.9545 26.2727C39.2045 26.8409 40.1856 27.6326 40.8977 28.6477C41.6098 29.6553 41.9773 30.8144 42 32.125H37.9432ZM55.2508 31.5455V34.7273H45.2167V31.5455H55.2508ZM47.694 27.3636H51.8076V43.75C51.8076 44.303 51.8909 44.7273 52.0576 45.0227C52.2319 45.3106 52.4591 45.5076 52.7394 45.6136C53.0197 45.7197 53.3303 45.7727 53.6712 45.7727C53.9288 45.7727 54.1637 45.7538 54.3758 45.7159C54.5955 45.678 54.7622 45.6439 54.8758 45.6136L55.569 48.8295C55.3493 48.9053 55.0349 48.9886 54.6258 49.0795C54.2243 49.1705 53.7319 49.2235 53.1485 49.2386C52.1182 49.2689 51.1902 49.1136 50.3644 48.7727C49.5387 48.4242 48.8834 47.8864 48.3985 47.1591C47.9212 46.4318 47.6864 45.5227 47.694 44.4318V27.3636ZM64.3539 49.3523C63.2478 49.3523 62.2516 49.1553 61.3652 48.7614C60.4864 48.3598 59.7895 47.7689 59.2743 46.9886C58.7667 46.2083 58.513 45.2462 58.513 44.1023C58.513 43.1174 58.6948 42.303 59.0584 41.6591C59.422 41.0152 59.9183 40.5 60.547 40.1136C61.1758 39.7273 61.8842 39.4356 62.672 39.2386C63.4675 39.0341 64.2895 38.8864 65.138 38.7955C66.1607 38.6894 66.9902 38.5947 67.6266 38.5114C68.263 38.4205 68.7251 38.2841 69.013 38.1023C69.3084 37.9129 69.4561 37.6212 69.4561 37.2273V37.1591C69.4561 36.303 69.2023 35.6402 68.6948 35.1705C68.1872 34.7008 67.4561 34.4659 66.5016 34.4659C65.494 34.4659 64.6948 34.6856 64.1039 35.125C63.5205 35.5644 63.1266 36.0833 62.922 36.6818L59.0811 36.1364C59.3842 35.0758 59.8842 34.1894 60.5811 33.4773C61.2781 32.7576 62.1304 32.2197 63.138 31.8636C64.1455 31.5 65.2592 31.3182 66.4789 31.3182C67.3198 31.3182 68.1569 31.4167 68.9902 31.6136C69.8236 31.8106 70.5849 32.1364 71.2743 32.5909C71.9637 33.0379 72.5167 33.6477 72.9334 34.4205C73.3577 35.1932 73.5698 36.1591 73.5698 37.3182V49H69.6152V46.6023H69.4789C69.2289 47.0871 68.8766 47.5417 68.422 47.9659C67.9751 48.3826 67.4107 48.7197 66.7289 48.9773C66.0546 49.2273 65.263 49.3523 64.3539 49.3523ZM65.422 46.3295C66.2478 46.3295 66.9637 46.1667 67.5698 45.8409C68.1758 45.5076 68.6417 45.0682 68.9675 44.5227C69.3008 43.9773 69.4675 43.3826 69.4675 42.7386V40.6818C69.3387 40.7879 69.119 40.8864 68.8084 40.9773C68.5054 41.0682 68.1645 41.1477 67.7857 41.2159C67.4069 41.2841 67.0319 41.3447 66.6607 41.3977C66.2895 41.4508 65.9675 41.4962 65.6948 41.5341C65.0811 41.6174 64.5319 41.7538 64.047 41.9432C63.5622 42.1326 63.1796 42.3977 62.8993 42.7386C62.619 43.072 62.4789 43.5038 62.4789 44.0341C62.4789 44.7917 62.7554 45.3636 63.3084 45.75C63.8614 46.1364 64.566 46.3295 65.422 46.3295ZM80.278 55.5455C79.7173 55.5455 79.1984 55.5 78.7211 55.4091C78.2514 55.3258 77.8764 55.2273 77.5961 55.1136L78.5507 51.9091C79.1492 52.0833 79.6833 52.1667 80.153 52.1591C80.6226 52.1515 81.0355 52.0038 81.3916 51.7159C81.7552 51.4356 82.062 50.9659 82.312 50.3068L82.6643 49.3636L76.3348 31.5455H80.6984L84.7211 44.7273H84.903L88.937 31.5455H93.312L86.3234 51.1136C85.9976 52.0379 85.5658 52.8295 85.028 53.4886C84.4901 54.1553 83.831 54.6629 83.0507 55.0114C82.278 55.3674 81.3537 55.5455 80.278 55.5455ZM105.376 49V31.5455H109.49V49H105.376ZM107.444 29.0682C106.793 29.0682 106.232 28.8523 105.762 28.4205C105.293 27.9811 105.058 27.4545 105.058 26.8409C105.058 26.2197 105.293 25.6932 105.762 25.2614C106.232 24.822 106.793 24.6023 107.444 24.6023C108.103 24.6023 108.664 24.822 109.126 25.2614C109.596 25.6932 109.831 26.2197 109.831 26.8409C109.831 27.4545 109.596 27.9811 109.126 28.4205C108.664 28.8523 108.103 29.0682 107.444 29.0682ZM118.474 38.7727V49H114.36V31.5455H118.292V34.5114H118.496C118.898 33.5341 119.538 32.7576 120.417 32.1818C121.303 31.6061 122.398 31.3182 123.701 31.3182C124.905 31.3182 125.955 31.5758 126.849 32.0909C127.75 32.6061 128.447 33.3523 128.939 34.3295C129.439 35.3068 129.686 36.4924 129.678 37.8864V49H125.564V38.5227C125.564 37.3561 125.261 36.4432 124.655 35.7841C124.057 35.125 123.227 34.7955 122.167 34.7955C121.447 34.7955 120.807 34.9545 120.246 35.2727C119.693 35.5833 119.258 36.0341 118.939 36.625C118.629 37.2159 118.474 37.9318 118.474 38.7727ZM151.793 31.5455V34.7273H141.759V31.5455H151.793ZM144.236 27.3636H148.35V43.75C148.35 44.303 148.433 44.7273 148.6 45.0227C148.774 45.3106 149.002 45.5076 149.282 45.6136C149.562 45.7197 149.873 45.7727 150.214 45.7727C150.471 45.7727 150.706 45.7538 150.918 45.7159C151.138 45.678 151.305 45.6439 151.418 45.6136L152.111 48.8295C151.892 48.9053 151.577 48.9886 151.168 49.0795C150.767 49.1705 150.274 49.2235 149.691 49.2386C148.661 49.2689 147.733 49.1136 146.907 48.7727C146.081 48.4242 145.426 47.8864 144.941 47.1591C144.464 46.4318 144.229 45.5227 144.236 44.4318V27.3636ZM163.3 49.3409C161.595 49.3409 160.118 48.9659 158.868 48.2159C157.618 47.4659 156.648 46.4167 155.959 45.0682C155.277 43.7197 154.936 42.1439 154.936 40.3409C154.936 38.5379 155.277 36.9583 155.959 35.6023C156.648 34.2462 157.618 33.1932 158.868 32.4432C160.118 31.6932 161.595 31.3182 163.3 31.3182C165.004 31.3182 166.482 31.6932 167.732 32.4432C168.982 33.1932 169.947 34.2462 170.629 35.6023C171.319 36.9583 171.663 38.5379 171.663 40.3409C171.663 42.1439 171.319 43.7197 170.629 45.0682C169.947 46.4167 168.982 47.4659 167.732 48.2159C166.482 48.9659 165.004 49.3409 163.3 49.3409ZM163.322 46.0455C164.247 46.0455 165.019 45.7917 165.641 45.2841C166.262 44.7689 166.724 44.0795 167.027 43.2159C167.338 42.3523 167.493 41.3902 167.493 40.3295C167.493 39.2614 167.338 38.2955 167.027 37.4318C166.724 36.5606 166.262 35.8674 165.641 35.3523C165.019 34.8371 164.247 34.5795 163.322 34.5795C162.376 34.5795 161.588 34.8371 160.959 35.3523C160.338 35.8674 159.872 36.5606 159.561 37.4318C159.258 38.2955 159.107 39.2614 159.107 40.3295C159.107 41.3902 159.258 42.3523 159.561 43.2159C159.872 44.0795 160.338 44.7689 160.959 45.2841C161.588 45.7917 162.376 46.0455 163.322 46.0455ZM186.92 41.6591V31.5455H191.034V49H187.045V45.8977H186.863C186.469 46.875 185.821 47.6742 184.92 48.2955C184.026 48.9167 182.924 49.2273 181.613 49.2273C180.469 49.2273 179.458 48.9735 178.579 48.4659C177.708 47.9508 177.026 47.2045 176.534 46.2273C176.041 45.2424 175.795 44.053 175.795 42.6591V31.5455H179.909V42.0227C179.909 43.1288 180.212 44.0076 180.818 44.6591C181.424 45.3106 182.219 45.6364 183.204 45.6364C183.81 45.6364 184.397 45.4886 184.965 45.1932C185.534 44.8977 185.999 44.4583 186.363 43.875C186.734 43.2841 186.92 42.5455 186.92 41.6591ZM203.517 49.3409C201.775 49.3409 200.279 48.9583 199.029 48.1932C197.786 47.428 196.828 46.3712 196.154 45.0227C195.487 43.6667 195.154 42.1061 195.154 40.3409C195.154 38.5682 195.495 37.0038 196.176 35.6477C196.858 34.2841 197.82 33.2235 199.063 32.4659C200.313 31.7008 201.79 31.3182 203.495 31.3182C204.911 31.3182 206.165 31.5795 207.256 32.1023C208.354 32.6174 209.229 33.3485 209.881 34.2955C210.532 35.2348 210.904 36.3333 210.995 37.5909H207.063C206.904 36.75 206.525 36.0492 205.926 35.4886C205.335 34.9205 204.544 34.6364 203.551 34.6364C202.71 34.6364 201.972 34.8636 201.335 35.3182C200.699 35.7652 200.203 36.4091 199.847 37.25C199.498 38.0909 199.324 39.0985 199.324 40.2727C199.324 41.4621 199.498 42.4848 199.847 43.3409C200.195 44.1894 200.684 44.8447 201.313 45.3068C201.949 45.7614 202.695 45.9886 203.551 45.9886C204.157 45.9886 204.699 45.875 205.176 45.6477C205.661 45.4129 206.067 45.0758 206.392 44.6364C206.718 44.197 206.942 43.6629 207.063 43.0341H210.995C210.896 44.2689 210.532 45.3636 209.904 46.3182C209.275 47.2652 208.419 48.0076 207.335 48.5455C206.252 49.0758 204.979 49.3409 203.517 49.3409ZM219.126 38.7727V49H215.012V25.7273H219.035V34.5114H219.24C219.649 33.5265 220.281 32.75 221.137 32.1818C222.001 31.6061 223.1 31.3182 224.433 31.3182C225.645 31.3182 226.702 31.572 227.603 32.0795C228.505 32.5871 229.202 33.3295 229.694 34.3068C230.194 35.2841 230.444 36.4773 230.444 37.8864V49H226.331V38.5227C226.331 37.3485 226.028 36.4356 225.421 35.7841C224.823 35.125 223.982 34.7955 222.899 34.7955C222.171 34.7955 221.52 34.9545 220.944 35.2727C220.376 35.5833 219.929 36.0341 219.603 36.625C219.285 37.2159 219.126 37.9318 219.126 38.7727Z" fill="url(#paint0_linear_303_4172)"/>
<g style="mix-blend-mode:plus-lighter" opacity="0.5">
<path d="M37.9432 32.125C37.8371 31.1326 37.3902 30.3598 36.6023 29.8068C35.822 29.2538 34.8068 28.9773 33.5568 28.9773C32.678 28.9773 31.9242 29.1098 31.2955 29.375C30.6667 29.6402 30.1856 30 29.8523 30.4545C29.5189 30.9091 29.3485 31.428 29.3409 32.0114C29.3409 32.4962 29.4508 32.9167 29.6705 33.2727C29.8977 33.6288 30.2045 33.9318 30.5909 34.1818C30.9773 34.4242 31.4053 34.6288 31.875 34.7955C32.3447 34.9621 32.8182 35.1023 33.2955 35.2159L35.4773 35.7614C36.3561 35.9659 37.2008 36.2424 38.0114 36.5909C38.8295 36.9394 39.5606 37.3788 40.2045 37.9091C40.8561 38.4394 41.3712 39.0795 41.75 39.8295C42.1288 40.5795 42.3182 41.4583 42.3182 42.4659C42.3182 43.8295 41.9697 45.0303 41.2727 46.0682C40.5758 47.0985 39.5682 47.9053 38.25 48.4886C36.9394 49.0644 35.3523 49.3523 33.4886 49.3523C31.678 49.3523 30.1061 49.072 28.7727 48.5114C27.447 47.9508 26.4091 47.1326 25.6591 46.0568C24.9167 44.9811 24.5152 43.6705 24.4545 42.125H28.6023C28.6629 42.9356 28.9129 43.6098 29.3523 44.1477C29.7917 44.6856 30.3636 45.0871 31.0682 45.3523C31.7803 45.6174 32.5758 45.75 33.4545 45.75C34.3712 45.75 35.1742 45.6136 35.8636 45.3409C36.5606 45.0606 37.1061 44.6742 37.5 44.1818C37.8939 43.6818 38.0947 43.0985 38.1023 42.4318C38.0947 41.8258 37.9167 41.3258 37.5682 40.9318C37.2197 40.5303 36.7311 40.197 36.1023 39.9318C35.4811 39.6591 34.7538 39.4167 33.9205 39.2045L31.2727 38.5227C29.3561 38.0303 27.8409 37.2841 26.7273 36.2841C25.6212 35.2765 25.0682 33.9394 25.0682 32.2727C25.0682 30.9015 25.4394 29.7008 26.1818 28.6705C26.9318 27.6402 27.9508 26.8409 29.2386 26.2727C30.5265 25.697 31.9848 25.4091 33.6136 25.4091C35.2652 25.4091 36.7121 25.697 37.9545 26.2727C39.2045 26.8409 40.1856 27.6326 40.8977 28.6477C41.6098 29.6553 41.9773 30.8144 42 32.125H37.9432ZM55.2508 31.5455V34.7273H45.2167V31.5455H55.2508ZM47.694 27.3636H51.8076V43.75C51.8076 44.303 51.8909 44.7273 52.0576 45.0227C52.2319 45.3106 52.4591 45.5076 52.7394 45.6136C53.0197 45.7197 53.3303 45.7727 53.6712 45.7727C53.9288 45.7727 54.1637 45.7538 54.3758 45.7159C54.5955 45.678 54.7622 45.6439 54.8758 45.6136L55.569 48.8295C55.3493 48.9053 55.0349 48.9886 54.6258 49.0795C54.2243 49.1705 53.7319 49.2235 53.1485 49.2386C52.1182 49.2689 51.1902 49.1136 50.3644 48.7727C49.5387 48.4242 48.8834 47.8864 48.3985 47.1591C47.9212 46.4318 47.6864 45.5227 47.694 44.4318V27.3636ZM64.3539 49.3523C63.2478 49.3523 62.2516 49.1553 61.3652 48.7614C60.4864 48.3598 59.7895 47.7689 59.2743 46.9886C58.7667 46.2083 58.513 45.2462 58.513 44.1023C58.513 43.1174 58.6948 42.303 59.0584 41.6591C59.422 41.0152 59.9183 40.5 60.547 40.1136C61.1758 39.7273 61.8842 39.4356 62.672 39.2386C63.4675 39.0341 64.2895 38.8864 65.138 38.7955C66.1607 38.6894 66.9902 38.5947 67.6266 38.5114C68.263 38.4205 68.7251 38.2841 69.013 38.1023C69.3084 37.9129 69.4561 37.6212 69.4561 37.2273V37.1591C69.4561 36.303 69.2023 35.6402 68.6948 35.1705C68.1872 34.7008 67.4561 34.4659 66.5016 34.4659C65.494 34.4659 64.6948 34.6856 64.1039 35.125C63.5205 35.5644 63.1266 36.0833 62.922 36.6818L59.0811 36.1364C59.3842 35.0758 59.8842 34.1894 60.5811 33.4773C61.2781 32.7576 62.1304 32.2197 63.138 31.8636C64.1455 31.5 65.2592 31.3182 66.4789 31.3182C67.3198 31.3182 68.1569 31.4167 68.9902 31.6136C69.8236 31.8106 70.5849 32.1364 71.2743 32.5909C71.9637 33.0379 72.5167 33.6477 72.9334 34.4205C73.3577 35.1932 73.5698 36.1591 73.5698 37.3182V49H69.6152V46.6023H69.4789C69.2289 47.0871 68.8766 47.5417 68.422 47.9659C67.9751 48.3826 67.4107 48.7197 66.7289 48.9773C66.0546 49.2273 65.263 49.3523 64.3539 49.3523ZM65.422 46.3295C66.2478 46.3295 66.9637 46.1667 67.5698 45.8409C68.1758 45.5076 68.6417 45.0682 68.9675 44.5227C69.3008 43.9773 69.4675 43.3826 69.4675 42.7386V40.6818C69.3387 40.7879 69.119 40.8864 68.8084 40.9773C68.5054 41.0682 68.1645 41.1477 67.7857 41.2159C67.4069 41.2841 67.0319 41.3447 66.6607 41.3977C66.2895 41.4508 65.9675 41.4962 65.6948 41.5341C65.0811 41.6174 64.5319 41.7538 64.047 41.9432C63.5622 42.1326 63.1796 42.3977 62.8993 42.7386C62.619 43.072 62.4789 43.5038 62.4789 44.0341C62.4789 44.7917 62.7554 45.3636 63.3084 45.75C63.8614 46.1364 64.566 46.3295 65.422 46.3295ZM80.278 55.5455C79.7173 55.5455 79.1984 55.5 78.7211 55.4091C78.2514 55.3258 77.8764 55.2273 77.5961 55.1136L78.5507 51.9091C79.1492 52.0833 79.6833 52.1667 80.153 52.1591C80.6226 52.1515 81.0355 52.0038 81.3916 51.7159C81.7552 51.4356 82.062 50.9659 82.312 50.3068L82.6643 49.3636L76.3348 31.5455H80.6984L84.7211 44.7273H84.903L88.937 31.5455H93.312L86.3234 51.1136C85.9976 52.0379 85.5658 52.8295 85.028 53.4886C84.4901 54.1553 83.831 54.6629 83.0507 55.0114C82.278 55.3674 81.3537 55.5455 80.278 55.5455ZM105.376 49V31.5455H109.49V49H105.376ZM107.444 29.0682C106.793 29.0682 106.232 28.8523 105.762 28.4205C105.293 27.9811 105.058 27.4545 105.058 26.8409C105.058 26.2197 105.293 25.6932 105.762 25.2614C106.232 24.822 106.793 24.6023 107.444 24.6023C108.103 24.6023 108.664 24.822 109.126 25.2614C109.596 25.6932 109.831 26.2197 109.831 26.8409C109.831 27.4545 109.596 27.9811 109.126 28.4205C108.664 28.8523 108.103 29.0682 107.444 29.0682ZM118.474 38.7727V49H114.36V31.5455H118.292V34.5114H118.496C118.898 33.5341 119.538 32.7576 120.417 32.1818C121.303 31.6061 122.398 31.3182 123.701 31.3182C124.905 31.3182 125.955 31.5758 126.849 32.0909C127.75 32.6061 128.447 33.3523 128.939 34.3295C129.439 35.3068 129.686 36.4924 129.678 37.8864V49H125.564V38.5227C125.564 37.3561 125.261 36.4432 124.655 35.7841C124.057 35.125 123.227 34.7955 122.167 34.7955C121.447 34.7955 120.807 34.9545 120.246 35.2727C119.693 35.5833 119.258 36.0341 118.939 36.625C118.629 37.2159 118.474 37.9318 118.474 38.7727ZM151.793 31.5455V34.7273H141.759V31.5455H151.793ZM144.236 27.3636H148.35V43.75C148.35 44.303 148.433 44.7273 148.6 45.0227C148.774 45.3106 149.002 45.5076 149.282 45.6136C149.562 45.7197 149.873 45.7727 150.214 45.7727C150.471 45.7727 150.706 45.7538 150.918 45.7159C151.138 45.678 151.305 45.6439 151.418 45.6136L152.111 48.8295C151.892 48.9053 151.577 48.9886 151.168 49.0795C150.767 49.1705 150.274 49.2235 149.691 49.2386C148.661 49.2689 147.733 49.1136 146.907 48.7727C146.081 48.4242 145.426 47.8864 144.941 47.1591C144.464 46.4318 144.229 45.5227 144.236 44.4318V27.3636ZM163.3 49.3409C161.595 49.3409 160.118 48.9659 158.868 48.2159C157.618 47.4659 156.648 46.4167 155.959 45.0682C155.277 43.7197 154.936 42.1439 154.936 40.3409C154.936 38.5379 155.277 36.9583 155.959 35.6023C156.648 34.2462 157.618 33.1932 158.868 32.4432C160.118 31.6932 161.595 31.3182 163.3 31.3182C165.004 31.3182 166.482 31.6932 167.732 32.4432C168.982 33.1932 169.947 34.2462 170.629 35.6023C171.319 36.9583 171.663 38.5379 171.663 40.3409C171.663 42.1439 171.319 43.7197 170.629 45.0682C169.947 46.4167 168.982 47.4659 167.732 48.2159C166.482 48.9659 165.004 49.3409 163.3 49.3409ZM163.322 46.0455C164.247 46.0455 165.019 45.7917 165.641 45.2841C166.262 44.7689 166.724 44.0795 167.027 43.2159C167.338 42.3523 167.493 41.3902 167.493 40.3295C167.493 39.2614 167.338 38.2955 167.027 37.4318C166.724 36.5606 166.262 35.8674 165.641 35.3523C165.019 34.8371 164.247 34.5795 163.322 34.5795C162.376 34.5795 161.588 34.8371 160.959 35.3523C160.338 35.8674 159.872 36.5606 159.561 37.4318C159.258 38.2955 159.107 39.2614 159.107 40.3295C159.107 41.3902 159.258 42.3523 159.561 43.2159C159.872 44.0795 160.338 44.7689 160.959 45.2841C161.588 45.7917 162.376 46.0455 163.322 46.0455ZM186.92 41.6591V31.5455H191.034V49H187.045V45.8977H186.863C186.469 46.875 185.821 47.6742 184.92 48.2955C184.026 48.9167 182.924 49.2273 181.613 49.2273C180.469 49.2273 179.458 48.9735 178.579 48.4659C177.708 47.9508 177.026 47.2045 176.534 46.2273C176.041 45.2424 175.795 44.053 175.795 42.6591V31.5455H179.909V42.0227C179.909 43.1288 180.212 44.0076 180.818 44.6591C181.424 45.3106 182.219 45.6364 183.204 45.6364C183.81 45.6364 184.397 45.4886 184.965 45.1932C185.534 44.8977 185.999 44.4583 186.363 43.875C186.734 43.2841 186.92 42.5455 186.92 41.6591ZM203.517 49.3409C201.775 49.3409 200.279 48.9583 199.029 48.1932C197.786 47.428 196.828 46.3712 196.154 45.0227C195.487 43.6667 195.154 42.1061 195.154 40.3409C195.154 38.5682 195.495 37.0038 196.176 35.6477C196.858 34.2841 197.82 33.2235 199.063 32.4659C200.313 31.7008 201.79 31.3182 203.495 31.3182C204.911 31.3182 206.165 31.5795 207.256 32.1023C208.354 32.6174 209.229 33.3485 209.881 34.2955C210.532 35.2348 210.904 36.3333 210.995 37.5909H207.063C206.904 36.75 206.525 36.0492 205.926 35.4886C205.335 34.9205 204.544 34.6364 203.551 34.6364C202.71 34.6364 201.972 34.8636 201.335 35.3182C200.699 35.7652 200.203 36.4091 199.847 37.25C199.498 38.0909 199.324 39.0985 199.324 40.2727C199.324 41.4621 199.498 42.4848 199.847 43.3409C200.195 44.1894 200.684 44.8447 201.313 45.3068C201.949 45.7614 202.695 45.9886 203.551 45.9886C204.157 45.9886 204.699 45.875 205.176 45.6477C205.661 45.4129 206.067 45.0758 206.392 44.6364C206.718 44.197 206.942 43.6629 207.063 43.0341H210.995C210.896 44.2689 210.532 45.3636 209.904 46.3182C209.275 47.2652 208.419 48.0076 207.335 48.5455C206.252 49.0758 204.979 49.3409 203.517 49.3409ZM219.126 38.7727V49H215.012V25.7273H219.035V34.5114H219.24C219.649 33.5265 220.281 32.75 221.137 32.1818C222.001 31.6061 223.1 31.3182 224.433 31.3182C225.645 31.3182 226.702 31.572 227.603 32.0795C228.505 32.5871 229.202 33.3295 229.694 34.3068C230.194 35.2841 230.444 36.4773 230.444 37.8864V49H226.331V38.5227C226.331 37.3485 226.028 36.4356 225.421 35.7841C224.823 35.125 223.982 34.7955 222.899 34.7955C222.171 34.7955 221.52 34.9545 220.944 35.2727C220.376 35.5833 219.929 36.0341 219.603 36.625C219.285 37.2159 219.126 37.9318 219.126 38.7727Z" fill="url(#paint1_linear_303_4172)"/>
</g>
<g style="mix-blend-mode:plus-lighter" opacity="0.5" filter="url(#filter0_f_303_4172)">
<path d="M37.9432 32.125C37.8371 31.1326 37.3902 30.3598 36.6023 29.8068C35.822 29.2538 34.8068 28.9773 33.5568 28.9773C32.678 28.9773 31.9242 29.1098 31.2955 29.375C30.6667 29.6402 30.1856 30 29.8523 30.4545C29.5189 30.9091 29.3485 31.428 29.3409 32.0114C29.3409 32.4962 29.4508 32.9167 29.6705 33.2727C29.8977 33.6288 30.2045 33.9318 30.5909 34.1818C30.9773 34.4242 31.4053 34.6288 31.875 34.7955C32.3447 34.9621 32.8182 35.1023 33.2955 35.2159L35.4773 35.7614C36.3561 35.9659 37.2008 36.2424 38.0114 36.5909C38.8295 36.9394 39.5606 37.3788 40.2045 37.9091C40.8561 38.4394 41.3712 39.0795 41.75 39.8295C42.1288 40.5795 42.3182 41.4583 42.3182 42.4659C42.3182 43.8295 41.9697 45.0303 41.2727 46.0682C40.5758 47.0985 39.5682 47.9053 38.25 48.4886C36.9394 49.0644 35.3523 49.3523 33.4886 49.3523C31.678 49.3523 30.1061 49.072 28.7727 48.5114C27.447 47.9508 26.4091 47.1326 25.6591 46.0568C24.9167 44.9811 24.5152 43.6705 24.4545 42.125H28.6023C28.6629 42.9356 28.9129 43.6098 29.3523 44.1477C29.7917 44.6856 30.3636 45.0871 31.0682 45.3523C31.7803 45.6174 32.5758 45.75 33.4545 45.75C34.3712 45.75 35.1742 45.6136 35.8636 45.3409C36.5606 45.0606 37.1061 44.6742 37.5 44.1818C37.8939 43.6818 38.0947 43.0985 38.1023 42.4318C38.0947 41.8258 37.9167 41.3258 37.5682 40.9318C37.2197 40.5303 36.7311 40.197 36.1023 39.9318C35.4811 39.6591 34.7538 39.4167 33.9205 39.2045L31.2727 38.5227C29.3561 38.0303 27.8409 37.2841 26.7273 36.2841C25.6212 35.2765 25.0682 33.9394 25.0682 32.2727C25.0682 30.9015 25.4394 29.7008 26.1818 28.6705C26.9318 27.6402 27.9508 26.8409 29.2386 26.2727C30.5265 25.697 31.9848 25.4091 33.6136 25.4091C35.2652 25.4091 36.7121 25.697 37.9545 26.2727C39.2045 26.8409 40.1856 27.6326 40.8977 28.6477C41.6098 29.6553 41.9773 30.8144 42 32.125H37.9432ZM55.2508 31.5455V34.7273H45.2167V31.5455H55.2508ZM47.694 27.3636H51.8076V43.75C51.8076 44.303 51.8909 44.7273 52.0576 45.0227C52.2319 45.3106 52.4591 45.5076 52.7394 45.6136C53.0197 45.7197 53.3303 45.7727 53.6712 45.7727C53.9288 45.7727 54.1637 45.7538 54.3758 45.7159C54.5955 45.678 54.7622 45.6439 54.8758 45.6136L55.569 48.8295C55.3493 48.9053 55.0349 48.9886 54.6258 49.0795C54.2243 49.1705 53.7319 49.2235 53.1485 49.2386C52.1182 49.2689 51.1902 49.1136 50.3644 48.7727C49.5387 48.4242 48.8834 47.8864 48.3985 47.1591C47.9212 46.4318 47.6864 45.5227 47.694 44.4318V27.3636ZM64.3539 49.3523C63.2478 49.3523 62.2516 49.1553 61.3652 48.7614C60.4864 48.3598 59.7895 47.7689 59.2743 46.9886C58.7667 46.2083 58.513 45.2462 58.513 44.1023C58.513 43.1174 58.6948 42.303 59.0584 41.6591C59.422 41.0152 59.9183 40.5 60.547 40.1136C61.1758 39.7273 61.8842 39.4356 62.672 39.2386C63.4675 39.0341 64.2895 38.8864 65.138 38.7955C66.1607 38.6894 66.9902 38.5947 67.6266 38.5114C68.263 38.4205 68.7251 38.2841 69.013 38.1023C69.3084 37.9129 69.4561 37.6212 69.4561 37.2273V37.1591C69.4561 36.303 69.2023 35.6402 68.6948 35.1705C68.1872 34.7008 67.4561 34.4659 66.5016 34.4659C65.494 34.4659 64.6948 34.6856 64.1039 35.125C63.5205 35.5644 63.1266 36.0833 62.922 36.6818L59.0811 36.1364C59.3842 35.0758 59.8842 34.1894 60.5811 33.4773C61.2781 32.7576 62.1304 32.2197 63.138 31.8636C64.1455 31.5 65.2592 31.3182 66.4789 31.3182C67.3198 31.3182 68.1569 31.4167 68.9902 31.6136C69.8236 31.8106 70.5849 32.1364 71.2743 32.5909C71.9637 33.0379 72.5167 33.6477 72.9334 34.4205C73.3577 35.1932 73.5698 36.1591 73.5698 37.3182V49H69.6152V46.6023H69.4789C69.2289 47.0871 68.8766 47.5417 68.422 47.9659C67.9751 48.3826 67.4107 48.7197 66.7289 48.9773C66.0546 49.2273 65.263 49.3523 64.3539 49.3523ZM65.422 46.3295C66.2478 46.3295 66.9637 46.1667 67.5698 45.8409C68.1758 45.5076 68.6417 45.0682 68.9675 44.5227C69.3008 43.9773 69.4675 43.3826 69.4675 42.7386V40.6818C69.3387 40.7879 69.119 40.8864 68.8084 40.9773C68.5054 41.0682 68.1645 41.1477 67.7857 41.2159C67.4069 41.2841 67.0319 41.3447 66.6607 41.3977C66.2895 41.4508 65.9675 41.4962 65.6948 41.5341C65.0811 41.6174 64.5319 41.7538 64.047 41.9432C63.5622 42.1326 63.1796 42.3977 62.8993 42.7386C62.619 43.072 62.4789 43.5038 62.4789 44.0341C62.4789 44.7917 62.7554 45.3636 63.3084 45.75C63.8614 46.1364 64.566 46.3295 65.422 46.3295ZM80.278 55.5455C79.7173 55.5455 79.1984 55.5 78.7211 55.4091C78.2514 55.3258 77.8764 55.2273 77.5961 55.1136L78.5507 51.9091C79.1492 52.0833 79.6833 52.1667 80.153 52.1591C80.6226 52.1515 81.0355 52.0038 81.3916 51.7159C81.7552 51.4356 82.062 50.9659 82.312 50.3068L82.6643 49.3636L76.3348 31.5455H80.6984L84.7211 44.7273H84.903L88.937 31.5455H93.312L86.3234 51.1136C85.9976 52.0379 85.5658 52.8295 85.028 53.4886C84.4901 54.1553 83.831 54.6629 83.0507 55.0114C82.278 55.3674 81.3537 55.5455 80.278 55.5455ZM105.376 49V31.5455H109.49V49H105.376ZM107.444 29.0682C106.793 29.0682 106.232 28.8523 105.762 28.4205C105.293 27.9811 105.058 27.4545 105.058 26.8409C105.058 26.2197 105.293 25.6932 105.762 25.2614C106.232 24.822 106.793 24.6023 107.444 24.6023C108.103 24.6023 108.664 24.822 109.126 25.2614C109.596 25.6932 109.831 26.2197 109.831 26.8409C109.831 27.4545 109.596 27.9811 109.126 28.4205C108.664 28.8523 108.103 29.0682 107.444 29.0682ZM118.474 38.7727V49H114.36V31.5455H118.292V34.5114H118.496C118.898 33.5341 119.538 32.7576 120.417 32.1818C121.303 31.6061 122.398 31.3182 123.701 31.3182C124.905 31.3182 125.955 31.5758 126.849 32.0909C127.75 32.6061 128.447 33.3523 128.939 34.3295C129.439 35.3068 129.686 36.4924 129.678 37.8864V49H125.564V38.5227C125.564 37.3561 125.261 36.4432 124.655 35.7841C124.057 35.125 123.227 34.7955 122.167 34.7955C121.447 34.7955 120.807 34.9545 120.246 35.2727C119.693 35.5833 119.258 36.0341 118.939 36.625C118.629 37.2159 118.474 37.9318 118.474 38.7727ZM151.793 31.5455V34.7273H141.759V31.5455H151.793ZM144.236 27.3636H148.35V43.75C148.35 44.303 148.433 44.7273 148.6 45.0227C148.774 45.3106 149.002 45.5076 149.282 45.6136C149.562 45.7197 149.873 45.7727 150.214 45.7727C150.471 45.7727 150.706 45.7538 150.918 45.7159C151.138 45.678 151.305 45.6439 151.418 45.6136L152.111 48.8295C151.892 48.9053 151.577 48.9886 151.168 49.0795C150.767 49.1705 150.274 49.2235 149.691 49.2386C148.661 49.2689 147.733 49.1136 146.907 48.7727C146.081 48.4242 145.426 47.8864 144.941 47.1591C144.464 46.4318 144.229 45.5227 144.236 44.4318V27.3636ZM163.3 49.3409C161.595 49.3409 160.118 48.9659 158.868 48.2159C157.618 47.4659 156.648 46.4167 155.959 45.0682C155.277 43.7197 154.936 42.1439 154.936 40.3409C154.936 38.5379 155.277 36.9583 155.959 35.6023C156.648 34.2462 157.618 33.1932 158.868 32.4432C160.118 31.6932 161.595 31.3182 163.3 31.3182C165.004 31.3182 166.482 31.6932 167.732 32.4432C168.982 33.1932 169.947 34.2462 170.629 35.6023C171.319 36.9583 171.663 38.5379 171.663 40.3409C171.663 42.1439 171.319 43.7197 170.629 45.0682C169.947 46.4167 168.982 47.4659 167.732 48.2159C166.482 48.9659 165.004 49.3409 163.3 49.3409ZM163.322 46.0455C164.247 46.0455 165.019 45.7917 165.641 45.2841C166.262 44.7689 166.724 44.0795 167.027 43.2159C167.338 42.3523 167.493 41.3902 167.493 40.3295C167.493 39.2614 167.338 38.2955 167.027 37.4318C166.724 36.5606 166.262 35.8674 165.641 35.3523C165.019 34.8371 164.247 34.5795 163.322 34.5795C162.376 34.5795 161.588 34.8371 160.959 35.3523C160.338 35.8674 159.872 36.5606 159.561 37.4318C159.258 38.2955 159.107 39.2614 159.107 40.3295C159.107 41.3902 159.258 42.3523 159.561 43.2159C159.872 44.0795 160.338 44.7689 160.959 45.2841C161.588 45.7917 162.376 46.0455 163.322 46.0455ZM186.92 41.6591V31.5455H191.034V49H187.045V45.8977H186.863C186.469 46.875 185.821 47.6742 184.92 48.2955C184.026 48.9167 182.924 49.2273 181.613 49.2273C180.469 49.2273 179.458 48.9735 178.579 48.4659C177.708 47.9508 177.026 47.2045 176.534 46.2273C176.041 45.2424 175.795 44.053 175.795 42.6591V31.5455H179.909V42.0227C179.909 43.1288 180.212 44.0076 180.818 44.6591C181.424 45.3106 182.219 45.6364 183.204 45.6364C183.81 45.6364 184.397 45.4886 184.965 45.1932C185.534 44.8977 185.999 44.4583 186.363 43.875C186.734 43.2841 186.92 42.5455 186.92 41.6591ZM203.517 49.3409C201.775 49.3409 200.279 48.9583 199.029 48.1932C197.786 47.428 196.828 46.3712 196.154 45.0227C195.487 43.6667 195.154 42.1061 195.154 40.3409C195.154 38.5682 195.495 37.0038 196.176 35.6477C196.858 34.2841 197.82 33.2235 199.063 32.4659C200.313 31.7008 201.79 31.3182 203.495 31.3182C204.911 31.3182 206.165 31.5795 207.256 32.1023C208.354 32.6174 209.229 33.3485 209.881 34.2955C210.532 35.2348 210.904 36.3333 210.995 37.5909H207.063C206.904 36.75 206.525 36.0492 205.926 35.4886C205.335 34.9205 204.544 34.6364 203.551 34.6364C202.71 34.6364 201.972 34.8636 201.335 35.3182C200.699 35.7652 200.203 36.4091 199.847 37.25C199.498 38.0909 199.324 39.0985 199.324 40.2727C199.324 41.4621 199.498 42.4848 199.847 43.3409C200.195 44.1894 200.684 44.8447 201.313 45.3068C201.949 45.7614 202.695 45.9886 203.551 45.9886C204.157 45.9886 204.699 45.875 205.176 45.6477C205.661 45.4129 206.067 45.0758 206.392 44.6364C206.718 44.197 206.942 43.6629 207.063 43.0341H210.995C210.896 44.2689 210.532 45.3636 209.904 46.3182C209.275 47.2652 208.419 48.0076 207.335 48.5455C206.252 49.0758 204.979 49.3409 203.517 49.3409ZM219.126 38.7727V49H215.012V25.7273H219.035V34.5114H219.24C219.649 33.5265 220.281 32.75 221.137 32.1818C222.001 31.6061 223.1 31.3182 224.433 31.3182C225.645 31.3182 226.702 31.572 227.603 32.0795C228.505 32.5871 229.202 33.3295 229.694 34.3068C230.194 35.2841 230.444 36.4773 230.444 37.8864V49H226.331V38.5227C226.331 37.3485 226.028 36.4356 225.421 35.7841C224.823 35.125 223.982 34.7955 222.899 34.7955C222.171 34.7955 221.52 34.9545 220.944 35.2727C220.376 35.5833 219.929 36.0341 219.603 36.625C219.285 37.2159 219.126 37.9318 219.126 38.7727Z" fill="url(#paint2_linear_303_4172)"/>
</g>
<defs>
<filter id="filter0_f_303_4172" x="0.455078" y="0.602051" width="253.988" height="78.9434" filterUnits="userSpaceOnUse" color-interpolation-filters="sRGB">
<feFlood flood-opacity="0" result="BackgroundImageFix"/>
<feBlend mode="normal" in="SourceGraphic" in2="BackgroundImageFix" result="shape"/>
<feGaussianBlur stdDeviation="12" result="effect1_foregroundBlur_303_4172"/>
</filter>
<linearGradient id="paint0_linear_303_4172" x1="23" y1="37.5" x2="233" y2="37.5" gradientUnits="userSpaceOnUse">
<stop stop-color="#362CAC"/>
<stop offset="0.5" stop-color="#8880E3"/>
<stop offset="1" stop-color="#362CAC"/>
</linearGradient>
<linearGradient id="paint1_linear_303_4172" x1="23" y1="37.5" x2="233" y2="37.5" gradientUnits="userSpaceOnUse">
<stop stop-color="#362CAC"/>
<stop offset="0.5" stop-color="#8880E3"/>
<stop offset="1" stop-color="#362CAC"/>
</linearGradient>
<linearGradient id="paint2_linear_303_4172" x1="23" y1="37.5" x2="233" y2="37.5" gradientUnits="userSpaceOnUse">
<stop stop-color="#362CAC"/>
<stop offset="0.5" stop-color="#8880E3"/>
<stop offset="1" stop-color="#362CAC"/>
</linearGradient>
</defs>
</svg>
