<svg width="308" height="416" viewBox="0 0 308 416" fill="none" xmlns="http://www.w3.org/2000/svg">
<g opacity="0.75">
<path d="M304 160C304 248.366 236.843 320 154 320C71.1573 320 4 248.366 4 160C4 71.6344 71.1573 0 154 0C236.843 0 304 71.6344 304 160Z" fill="url(#paint0_radial_306_4304)"/>
</g>
<g opacity="0.2">
<path d="M198 77V95L182 111" stroke="url(#paint1_linear_306_4304)" stroke-linejoin="round"/>
<path d="M198 77V95L182 111" stroke="url(#paint2_linear_306_4304)" stroke-linejoin="round" style="mix-blend-mode:plus-lighter"/>
</g>
<g opacity="0.2">
<path d="M110 77V95L126 111" stroke="url(#paint3_linear_306_4304)" stroke-linejoin="round"/>
<path d="M110 77V95L126 111" stroke="url(#paint4_linear_306_4304)" stroke-linejoin="round" style="mix-blend-mode:plus-lighter"/>
</g>
<g opacity="0.3">
<path d="M245 137H219L211 145" stroke="url(#paint5_linear_306_4304)" stroke-linejoin="round"/>
<path d="M245 137H219L211 145" stroke="url(#paint6_linear_306_4304)" stroke-linejoin="round" style="mix-blend-mode:plus-lighter"/>
</g>
<g opacity="0.3">
<path d="M63 137H89L97 145" stroke="url(#paint7_linear_306_4304)" stroke-linejoin="round"/>
<path d="M63 137H89L97 145" stroke="url(#paint8_linear_306_4304)" stroke-linejoin="round" style="mix-blend-mode:plus-lighter"/>
</g>
<g opacity="0.5">
<path d="M227 232L206 211H191" stroke="url(#paint9_linear_306_4304)"/>
<path d="M227 232L206 211H191" stroke="url(#paint10_linear_306_4304)" style="mix-blend-mode:plus-lighter"/>
</g>
<g opacity="0.5">
<path d="M81 232L102 211H117" stroke="url(#paint11_linear_306_4304)"/>
<path d="M81 232L102 211H117" stroke="url(#paint12_linear_306_4304)" style="mix-blend-mode:plus-lighter"/>
</g>
<g filter="url(#filter0_ddddd_306_4304)">
<circle cx="154" cy="164" r="60" fill="url(#paint13_linear_306_4304)"/>
<circle cx="154" cy="164" r="59.5" stroke="#362CAC"/>
</g>
<path fill-rule="evenodd" clip-rule="evenodd" d="M175 153.5V153.816L155.572 165.772C155.099 166.063 154.555 166.217 154 166.217C153.445 166.217 152.901 166.063 152.428 165.772L133 153.816V153.5C133 151.909 133.632 150.383 134.757 149.257C135.883 148.132 137.409 147.5 139 147.5H169C170.591 147.5 172.117 148.132 173.243 149.257C174.368 150.383 175 151.909 175 153.5ZM133 174.5V157.34L150.856 168.326C151.802 168.908 152.89 169.216 154 169.216C155.11 169.216 156.198 168.908 157.144 168.326L175 157.34V174.5C175 176.091 174.368 177.618 173.243 178.743C172.117 179.868 170.591 180.5 169 180.5H139C137.409 180.5 135.883 179.868 134.757 178.743C133.632 177.618 133 176.091 133 174.5Z" fill="url(#paint14_linear_306_4304)"/>
<g style="mix-blend-mode:plus-lighter" opacity="0.1" filter="url(#filter1_f_306_4304)">
<path fill-rule="evenodd" clip-rule="evenodd" d="M175 153.5V153.816L155.572 165.772C155.099 166.063 154.555 166.217 154 166.217C153.445 166.217 152.901 166.063 152.428 165.772L133 153.816V153.5C133 151.909 133.632 150.383 134.757 149.257C135.883 148.132 137.409 147.5 139 147.5H169C170.591 147.5 172.117 148.132 173.243 149.257C174.368 150.383 175 151.909 175 153.5ZM133 174.5V157.34L150.856 168.326C151.802 168.908 152.89 169.216 154 169.216C155.11 169.216 156.198 168.908 157.144 168.326L175 157.34V174.5C175 176.091 174.368 177.618 173.243 178.743C172.117 179.868 170.591 180.5 169 180.5H139C137.409 180.5 135.883 179.868 134.757 178.743C133.632 177.618 133 176.091 133 174.5Z" fill="url(#paint15_linear_306_4304)"/>
</g>
<g style="mix-blend-mode:plus-lighter" opacity="0.2" filter="url(#filter2_f_306_4304)">
<path fill-rule="evenodd" clip-rule="evenodd" d="M175 153.5V153.816L155.572 165.772C155.099 166.063 154.555 166.217 154 166.217C153.445 166.217 152.901 166.063 152.428 165.772L133 153.816V153.5C133 151.909 133.632 150.383 134.757 149.257C135.883 148.132 137.409 147.5 139 147.5H169C170.591 147.5 172.117 148.132 173.243 149.257C174.368 150.383 175 151.909 175 153.5ZM133 174.5V157.34L150.856 168.326C151.802 168.908 152.89 169.216 154 169.216C155.11 169.216 156.198 168.908 157.144 168.326L175 157.34V174.5C175 176.091 174.368 177.618 173.243 178.743C172.117 179.868 170.591 180.5 169 180.5H139C137.409 180.5 135.883 179.868 134.757 178.743C133.632 177.618 133 176.091 133 174.5Z" fill="url(#paint16_linear_306_4304)"/>
</g>
<path d="M174 159.129V174.5C174 175.826 173.473 177.098 172.536 178.035C171.598 178.973 170.326 179.5 169 179.5H139C137.674 179.5 136.402 178.973 135.464 178.035C134.527 177.098 134 175.826 134 174.5V159.129L150.332 169.178L150.332 169.178C151.435 169.856 152.705 170.216 154 170.216C155.295 170.216 156.565 169.856 157.668 169.178L157.668 169.178L174 159.129Z" stroke="url(#paint17_linear_306_4304)" stroke-width="2"/>
<path d="M173.994 153.261L155.048 164.92C154.733 165.114 154.37 165.217 154 165.217C153.63 165.217 153.267 165.114 152.952 164.92L134.006 153.261C134.065 152.022 134.583 150.846 135.464 149.964C136.402 149.027 137.674 148.5 139 148.5H169C170.326 148.5 171.598 149.027 172.536 149.964C173.417 150.846 173.935 152.022 173.994 153.261Z" stroke="url(#paint18_linear_306_4304)" stroke-width="2"/>
<g style="mix-blend-mode:plus-lighter" filter="url(#filter3_f_306_4304)">
<circle cx="154" cy="164" r="59.5" stroke="#362CAC"/>
</g>
<g style="mix-blend-mode:plus-lighter" filter="url(#filter4_f_306_4304)">
<circle cx="154" cy="164" r="59.5" stroke="#362CAC"/>
</g>
<g filter="url(#filter5_dddd_306_4304)">
<circle cx="60" cy="253" r="30" transform="rotate(180 60 253)" fill="url(#paint19_linear_306_4304)"/>
<circle cx="60" cy="253" r="30" transform="rotate(180 60 253)" fill="url(#paint20_linear_306_4304)" fill-opacity="0.25"/>
<circle cx="60" cy="253" r="29.5" transform="rotate(180 60 253)" stroke="#454547"/>
<circle cx="60" cy="253" r="29.5" transform="rotate(180 60 253)" stroke="url(#paint21_linear_306_4304)" stroke-opacity="0.4"/>
<circle cx="60" cy="253" r="29.5" transform="rotate(180 60 253)" stroke="url(#paint22_linear_306_4304)" stroke-opacity="0.4" style="mix-blend-mode:plus-lighter"/>
</g>
<g opacity="0.7">
<path d="M59.697 253.531C59.7362 252.835 60.0792 252.222 60.5967 251.787C61.1041 251.36 61.7871 251.099 62.5324 251.099C63.2769 251.099 63.9599 251.36 64.4677 251.787C64.9848 252.222 65.3278 252.835 65.3674 253.53C65.4067 254.245 65.1174 254.91 64.61 255.402C64.0925 255.903 63.3565 256.217 62.5324 256.217C61.7082 256.217 60.9708 255.903 60.4537 255.402C59.9459 254.91 59.6573 254.245 59.697 253.531Z" fill="#362CAC"/>
<path d="M55.1821 254.938C55.1869 255.21 55.2744 255.739 55.4055 256.152C55.6811 257.027 56.1485 257.837 56.7989 258.55C57.4664 259.283 58.2883 259.872 59.2376 260.29C60.2355 260.729 61.3167 260.953 62.4397 260.951C63.5609 260.95 64.6421 260.722 65.64 260.279C66.5893 259.857 67.4105 259.266 68.0768 258.532C68.7269 257.816 69.1936 257.005 69.4699 256.13C69.6088 255.688 69.6966 255.239 69.7318 254.789C69.7662 254.346 69.7518 253.901 69.6885 253.458C69.5647 252.593 69.2636 251.781 68.7999 251.041C68.3758 250.361 67.8291 249.766 67.179 249.265L67.1805 249.264L60.6203 244.259C60.6144 244.254 60.6096 244.25 60.6033 244.246C60.1729 243.917 59.4491 243.918 58.9758 244.247C58.4972 244.58 58.4424 245.13 58.8683 245.477L58.8665 245.479L61.6026 247.69L53.2631 247.699H53.252C52.5627 247.7 51.9 248.149 51.7689 248.717C51.6341 249.296 52.1023 249.776 52.819 249.778L52.8179 249.781L57.0449 249.773L49.5021 255.526C49.4924 255.533 49.4821 255.54 49.4732 255.547C48.7616 256.089 48.5316 256.989 48.9798 257.559C49.4346 258.138 50.4018 258.139 51.1207 257.562L55.2373 254.214C55.2373 254.214 55.1773 254.666 55.1821 254.938ZM65.7604 256.451C64.9122 257.31 63.7247 257.797 62.4397 257.799C61.153 257.801 59.9655 257.319 59.1173 256.462C58.7028 256.044 58.3983 255.563 58.2105 255.051C58.0264 254.548 57.9549 254.014 58.0024 253.475C58.0472 252.948 58.205 252.446 58.4568 251.992C58.7043 251.545 59.045 251.141 59.4658 250.799C60.2903 250.132 61.34 249.77 62.4379 249.769C63.5369 249.767 64.5858 250.125 65.4111 250.791C65.8311 251.131 66.1715 251.533 66.4189 251.979C66.6719 252.434 66.8286 252.934 66.8753 253.462C66.9219 254 66.8505 254.534 66.6664 255.037C66.4782 255.551 66.1748 256.031 65.7604 256.451Z" fill="#CED7FF"/>
<g style="mix-blend-mode:plus-lighter" filter="url(#filter6_f_306_4304)">
<path d="M59.697 253.531C59.7362 252.835 60.0792 252.222 60.5967 251.787C61.1041 251.36 61.7871 251.099 62.5324 251.099C63.2769 251.099 63.9599 251.36 64.4677 251.787C64.9848 252.222 65.3278 252.835 65.3674 253.53C65.4067 254.245 65.1174 254.91 64.61 255.402C64.0925 255.903 63.3565 256.217 62.5324 256.217C61.7082 256.217 60.9708 255.903 60.4537 255.402C59.9459 254.91 59.6573 254.245 59.697 253.531Z" fill="#362CAC"/>
<path d="M55.1821 254.938C55.1869 255.21 55.2744 255.739 55.4055 256.152C55.6811 257.027 56.1485 257.837 56.7989 258.55C57.4664 259.283 58.2883 259.872 59.2376 260.29C60.2355 260.729 61.3167 260.953 62.4397 260.951C63.5609 260.95 64.6421 260.722 65.64 260.279C66.5893 259.857 67.4105 259.266 68.0768 258.532C68.7269 257.816 69.1936 257.005 69.4699 256.13C69.6088 255.688 69.6966 255.239 69.7318 254.789C69.7662 254.346 69.7518 253.901 69.6885 253.458C69.5647 252.593 69.2636 251.781 68.7999 251.041C68.3758 250.361 67.8291 249.766 67.179 249.265L67.1805 249.264L60.6203 244.259C60.6144 244.254 60.6096 244.25 60.6033 244.246C60.1729 243.917 59.4491 243.918 58.9758 244.247C58.4972 244.58 58.4424 245.13 58.8683 245.477L58.8665 245.479L61.6026 247.69L53.2631 247.699H53.252C52.5627 247.7 51.9 248.149 51.7689 248.717C51.6341 249.296 52.1023 249.776 52.819 249.778L52.8179 249.781L57.0449 249.773L49.5021 255.526C49.4924 255.533 49.4821 255.54 49.4732 255.547C48.7616 256.089 48.5316 256.989 48.9798 257.559C49.4346 258.138 50.4018 258.139 51.1207 257.562L55.2373 254.214C55.2373 254.214 55.1773 254.666 55.1821 254.938ZM65.7604 256.451C64.9122 257.31 63.7247 257.797 62.4397 257.799C61.153 257.801 59.9655 257.319 59.1173 256.462C58.7028 256.044 58.3983 255.563 58.2105 255.051C58.0264 254.548 57.9549 254.014 58.0024 253.475C58.0472 252.948 58.205 252.446 58.4568 251.992C58.7043 251.545 59.045 251.141 59.4658 250.799C60.2903 250.132 61.34 249.77 62.4379 249.769C63.5369 249.767 64.5858 250.125 65.4111 250.791C65.8311 251.131 66.1715 251.533 66.4189 251.979C66.6719 252.434 66.8286 252.934 66.8753 253.462C66.9219 254 66.8505 254.534 66.6664 255.037C66.4782 255.551 66.1748 256.031 65.7604 256.451Z" fill="#CED7FF"/>
</g>
</g>
<g opacity="0.75">
<g filter="url(#filter7_dddd_306_4304)">
<circle cx="25" cy="25" r="25" transform="matrix(-1 0 0 1 63 112)" fill="url(#paint23_linear_306_4304)"/>
<circle cx="25" cy="25" r="25" transform="matrix(-1 0 0 1 63 112)" fill="url(#paint24_linear_306_4304)" fill-opacity="0.25"/>
<circle cx="25" cy="25" r="24.5" transform="matrix(-1 0 0 1 63 112)" stroke="#454547"/>
<circle cx="25" cy="25" r="24.5" transform="matrix(-1 0 0 1 63 112)" stroke="url(#paint25_linear_306_4304)" stroke-opacity="0.4"/>
<circle cx="25" cy="25" r="24.5" transform="matrix(-1 0 0 1 63 112)" stroke="url(#paint26_linear_306_4304)" stroke-opacity="0.4" style="mix-blend-mode:plus-lighter"/>
</g>
<g opacity="0.5">
<path fill-rule="evenodd" clip-rule="evenodd" d="M34.8228 146.375L30.5 128.875L47.8289 133.864L34.8228 146.375Z" stroke="#CED7FF" stroke-miterlimit="10" stroke-linejoin="round"/>
<path fill-rule="evenodd" clip-rule="evenodd" d="M39.1619 131.37L41.3218 140.123L32.6621 137.627L39.1619 131.37Z" stroke="#CED7FF" stroke-miterlimit="10" stroke-linejoin="round"/>
<path fill-rule="evenodd" clip-rule="evenodd" d="M37.0122 138.814L35.9395 134.466L40.2417 135.701L37.0122 138.814Z" stroke="#CED7FF" stroke-miterlimit="10" stroke-linejoin="round"/>
<path fill-rule="evenodd" clip-rule="evenodd" d="M34.8662 130.124L35.939 134.472L31.6367 133.237L34.8662 130.124Z" stroke="#CED7FF" stroke-miterlimit="10" stroke-linejoin="round"/>
<path fill-rule="evenodd" clip-rule="evenodd" d="M43.4717 132.602L44.5445 136.95L40.2422 135.715L43.4717 132.602Z" stroke="#CED7FF" stroke-miterlimit="10" stroke-linejoin="round"/>
<path fill-rule="evenodd" clip-rule="evenodd" d="M37.0127 138.817L38.0855 143.165L33.7832 141.93L37.0127 138.817Z" stroke="#CED7FF" stroke-miterlimit="10" stroke-linejoin="round"/>
<g style="mix-blend-mode:plus-lighter" filter="url(#filter8_f_306_4304)">
<path fill-rule="evenodd" clip-rule="evenodd" d="M34.8228 146.375L30.5 128.875L47.8289 133.864L34.8228 146.375Z" stroke="#CED7FF" stroke-miterlimit="10" stroke-linejoin="round"/>
<path fill-rule="evenodd" clip-rule="evenodd" d="M39.1619 131.37L41.3218 140.123L32.6621 137.627L39.1619 131.37Z" stroke="#CED7FF" stroke-miterlimit="10" stroke-linejoin="round"/>
<path fill-rule="evenodd" clip-rule="evenodd" d="M37.0122 138.814L35.9395 134.466L40.2417 135.701L37.0122 138.814Z" stroke="#CED7FF" stroke-miterlimit="10" stroke-linejoin="round"/>
<path fill-rule="evenodd" clip-rule="evenodd" d="M34.8662 130.124L35.939 134.472L31.6367 133.237L34.8662 130.124Z" stroke="#CED7FF" stroke-miterlimit="10" stroke-linejoin="round"/>
<path fill-rule="evenodd" clip-rule="evenodd" d="M43.4717 132.602L44.5445 136.95L40.2422 135.715L43.4717 132.602Z" stroke="#CED7FF" stroke-miterlimit="10" stroke-linejoin="round"/>
<path fill-rule="evenodd" clip-rule="evenodd" d="M37.0127 138.817L38.0855 143.165L33.7832 141.93L37.0127 138.817Z" stroke="#CED7FF" stroke-miterlimit="10" stroke-linejoin="round"/>
</g>
</g>
</g>
<g opacity="0.5">
<g filter="url(#filter9_dddd_306_4304)">
<circle cx="20" cy="20" r="20" transform="matrix(-1 0 0 1 130 37)" fill="url(#paint27_linear_306_4304)"/>
<circle cx="20" cy="20" r="20" transform="matrix(-1 0 0 1 130 37)" fill="url(#paint28_linear_306_4304)" fill-opacity="0.25"/>
<circle cx="20" cy="20" r="19.5" transform="matrix(-1 0 0 1 130 37)" stroke="#454547"/>
<circle cx="20" cy="20" r="19.5" transform="matrix(-1 0 0 1 130 37)" stroke="url(#paint29_linear_306_4304)" stroke-opacity="0.4"/>
<circle cx="20" cy="20" r="19.5" transform="matrix(-1 0 0 1 130 37)" stroke="url(#paint30_linear_306_4304)" stroke-opacity="0.4" style="mix-blend-mode:plus-lighter"/>
</g>
<g opacity="0.7">
<path d="M108.929 50.5H111.217V60.9867C110.045 61.2084 109.183 61.2956 108.249 61.2956C105.455 61.2927 104 60.0443 104 57.6465C104 55.3363 105.543 53.837 107.934 53.837C108.305 53.837 108.588 53.8662 108.929 53.9537V50.5ZM109.01 55.8435C108.742 55.756 108.521 55.7268 108.238 55.7268C107.081 55.7268 106.412 56.4327 106.412 57.6698C106.412 58.8742 107.051 59.5393 108.223 59.5393C108.477 59.5393 108.683 59.525 109.01 59.4812V55.8435Z" fill="#CED7FF"/>
<path d="M114.96 54.1187V59.3692C114.96 61.1774 114.824 62.0469 114.427 62.7966C114.056 63.5174 113.567 63.9718 112.557 64.4738L110.434 63.4733C111.444 63.004 111.932 62.5892 112.245 61.9562C112.571 61.3089 112.674 60.5593 112.674 58.5874V54.1187H114.96Z" fill="#5914B5"/>
<path d="M112.443 50.5H114.731V52.8248H112.443V50.5Z" fill="#5914B5"/>
<g style="mix-blend-mode:plus-lighter" filter="url(#filter10_f_306_4304)">
<path d="M108.929 50.5H111.217V60.9867C110.045 61.2084 109.183 61.2956 108.249 61.2956C105.455 61.2927 104 60.0443 104 57.6465C104 55.3363 105.543 53.837 107.934 53.837C108.305 53.837 108.588 53.8662 108.929 53.9537V50.5ZM109.01 55.8435C108.742 55.756 108.521 55.7268 108.238 55.7268C107.081 55.7268 106.412 56.4327 106.412 57.6698C106.412 58.8742 107.051 59.5393 108.223 59.5393C108.477 59.5393 108.683 59.525 109.01 59.4812V55.8435Z" fill="#CED7FF"/>
<path d="M114.96 54.1187V59.3692C114.96 61.1774 114.824 62.0469 114.427 62.7966C114.056 63.5174 113.567 63.9718 112.557 64.4738L110.434 63.4733C111.444 63.004 111.932 62.5892 112.245 61.9562C112.571 61.3089 112.674 60.5593 112.674 58.5874V54.1187H114.96Z" fill="#5914B5"/>
<path d="M112.443 50.5H114.731V52.8248H112.443V50.5Z" fill="#5914B5"/>
</g>
</g>
<g filter="url(#filter11_dddd_306_4304)">
<circle cx="198" cy="57" r="20" fill="url(#paint31_linear_306_4304)"/>
<circle cx="198" cy="57" r="20" fill="url(#paint32_linear_306_4304)" fill-opacity="0.25"/>
<circle cx="198" cy="57" r="19.5" stroke="#454547"/>
<circle cx="198" cy="57" r="19.5" stroke="url(#paint33_linear_306_4304)" stroke-opacity="0.4"/>
<circle cx="198" cy="57" r="19.5" stroke="url(#paint34_linear_306_4304)" stroke-opacity="0.4" style="mix-blend-mode:plus-lighter"/>
</g>
<g opacity="0.7">
<path d="M197.933 50C194.387 50 194.609 51.5375 194.609 51.5375L194.613 53.1304H197.996V53.6087H193.269C193.269 53.6087 191 53.3514 191 56.9289C191 60.5063 192.98 60.3794 192.98 60.3794H194.162V58.7194C194.162 58.7194 194.098 56.7391 196.111 56.7391H199.466C199.466 56.7391 201.352 56.7696 201.352 54.917V51.8538C201.352 51.8538 201.638 50 197.933 50ZM196.067 51.0711C196.404 51.0711 196.676 51.3432 196.676 51.6798C196.676 52.0165 196.404 52.2885 196.067 52.2885C195.731 52.2885 195.458 52.0165 195.458 51.6798C195.458 51.3432 195.731 51.0711 196.067 51.0711Z" fill="#CED7FF"/>
<path d="M198.033 63.8937C201.579 63.8937 201.358 62.3561 201.358 62.3561L201.354 60.7632H197.97V60.285H202.698C202.698 60.285 204.966 60.5423 204.966 56.9648C204.966 53.3874 202.986 53.5142 202.986 53.5142H201.804V55.1743C201.804 55.1743 201.868 57.1545 199.856 57.1545H196.5C196.5 57.1545 194.615 57.1241 194.615 58.9767V62.0399C194.615 62.0399 194.328 63.8937 198.033 63.8937ZM199.899 62.8225C199.562 62.8225 199.29 62.5505 199.29 62.2138C199.29 61.8772 199.562 61.6051 199.899 61.6051C200.236 61.6051 200.508 61.8772 200.508 62.2138C200.508 62.5505 200.236 62.8225 199.899 62.8225Z" fill="#5914B5"/>
<g style="mix-blend-mode:plus-lighter" filter="url(#filter12_f_306_4304)">
<path d="M197.933 50C194.387 50 194.609 51.5375 194.609 51.5375L194.613 53.1304H197.996V53.6087H193.269C193.269 53.6087 191 53.3514 191 56.9289C191 60.5063 192.98 60.3794 192.98 60.3794H194.162V58.7194C194.162 58.7194 194.098 56.7391 196.111 56.7391H199.466C199.466 56.7391 201.352 56.7696 201.352 54.917V51.8538C201.352 51.8538 201.638 50 197.933 50ZM196.067 51.0711C196.404 51.0711 196.676 51.3432 196.676 51.6798C196.676 52.0165 196.404 52.2885 196.067 52.2885C195.731 52.2885 195.458 52.0165 195.458 51.6798C195.458 51.3432 195.731 51.0711 196.067 51.0711Z" fill="#CED7FF"/>
<path d="M198.033 63.8937C201.579 63.8937 201.358 62.3561 201.358 62.3561L201.354 60.7632H197.97V60.285H202.698C202.698 60.285 204.966 60.5423 204.966 56.9648C204.966 53.3874 202.986 53.5142 202.986 53.5142H201.804V55.1743C201.804 55.1743 201.868 57.1545 199.856 57.1545H196.5C196.5 57.1545 194.615 57.1241 194.615 58.9767V62.0399C194.615 62.0399 194.328 63.8937 198.033 63.8937ZM199.899 62.8225C199.562 62.8225 199.29 62.5505 199.29 62.2138C199.29 61.8772 199.562 61.6051 199.899 61.6051C200.236 61.6051 200.508 61.8772 200.508 62.2138C200.508 62.5505 200.236 62.8225 199.899 62.8225Z" fill="#5914B5"/>
</g>
</g>
</g>
<g filter="url(#filter13_dddd_306_4304)">
<circle cx="30" cy="30" r="30" transform="matrix(1 0 0 -1 218 283)" fill="url(#paint35_linear_306_4304)"/>
<circle cx="30" cy="30" r="30" transform="matrix(1 0 0 -1 218 283)" fill="url(#paint36_linear_306_4304)" fill-opacity="0.25"/>
<circle cx="30" cy="30" r="29.5" transform="matrix(1 0 0 -1 218 283)" stroke="#454547"/>
<circle cx="30" cy="30" r="29.5" transform="matrix(1 0 0 -1 218 283)" stroke="url(#paint37_linear_306_4304)" stroke-opacity="0.4"/>
<circle cx="30" cy="30" r="29.5" transform="matrix(1 0 0 -1 218 283)" stroke="url(#paint38_linear_306_4304)" stroke-opacity="0.4" style="mix-blend-mode:plus-lighter"/>
</g>
<g opacity="0.7">
<path d="M258.801 265.096L243.402 245.259H240.5V259.05H242.821V248.207L256.979 266.5C257.618 266.071 258.227 265.602 258.801 265.096Z" fill="url(#paint39_linear_306_4304)"/>
<path d="M254.489 245.259H252.189V259.056H254.489V245.259Z" fill="url(#paint40_linear_306_4304)"/>
<g style="mix-blend-mode:plus-lighter" filter="url(#filter14_f_306_4304)">
<path d="M258.801 265.096L243.402 245.259H240.5V259.05H242.821V248.207L256.979 266.5C257.618 266.071 258.227 265.602 258.801 265.096Z" fill="url(#paint41_linear_306_4304)"/>
<path d="M254.489 245.259H252.189V259.056H254.489V245.259Z" fill="url(#paint42_linear_306_4304)"/>
</g>
</g>
<g opacity="0.75">
<g filter="url(#filter15_dddd_306_4304)">
<circle cx="270" cy="137" r="25" fill="url(#paint43_linear_306_4304)"/>
<circle cx="270" cy="137" r="25" fill="url(#paint44_linear_306_4304)" fill-opacity="0.25"/>
<circle cx="270" cy="137" r="24.5" stroke="#454547"/>
<circle cx="270" cy="137" r="24.5" stroke="url(#paint45_linear_306_4304)" stroke-opacity="0.4"/>
<circle cx="270" cy="137" r="24.5" stroke="url(#paint46_linear_306_4304)" stroke-opacity="0.4" style="mix-blend-mode:plus-lighter"/>
</g>
<g opacity="0.5">
<path d="M278.75 137.293C278.75 136.134 277.298 135.035 275.072 134.354C275.586 132.086 275.358 130.281 274.352 129.703C274.12 129.568 273.849 129.504 273.553 129.504V130.299C273.717 130.299 273.849 130.331 273.959 130.392C274.445 130.67 274.655 131.729 274.491 133.092C274.452 133.427 274.387 133.78 274.309 134.14C273.61 133.969 272.847 133.837 272.044 133.751C271.562 133.092 271.063 132.492 270.56 131.968C271.723 130.887 272.814 130.295 273.556 130.295V129.5C272.575 129.5 271.291 130.199 269.993 131.412C268.694 130.206 267.41 129.514 266.429 129.514V130.31C267.168 130.31 268.263 130.898 269.426 131.972C268.926 132.496 268.427 133.092 267.953 133.751C267.146 133.837 266.383 133.969 265.684 134.144C265.602 133.787 265.541 133.441 265.498 133.109C265.331 131.747 265.538 130.688 266.019 130.406C266.126 130.342 266.265 130.313 266.429 130.313V129.518C266.13 129.518 265.859 129.582 265.623 129.718C264.621 130.295 264.396 132.096 264.913 134.358C262.695 135.042 261.25 136.137 261.25 137.293C261.25 138.452 262.702 139.55 264.928 140.232C264.414 142.5 264.642 144.305 265.648 144.882C265.88 145.018 266.151 145.082 266.451 145.082C267.432 145.082 268.716 144.383 270.014 143.171C271.313 144.376 272.597 145.068 273.578 145.068C273.877 145.068 274.148 145.004 274.384 144.868C275.386 144.29 275.611 142.489 275.094 140.228C277.305 139.547 278.75 138.448 278.75 137.293ZM274.106 134.914C273.974 135.374 273.81 135.848 273.624 136.323C273.478 136.037 273.325 135.752 273.157 135.467C272.993 135.181 272.818 134.903 272.643 134.632C273.15 134.707 273.638 134.8 274.106 134.914ZM272.472 138.712C272.194 139.194 271.908 139.65 271.612 140.075C271.081 140.121 270.542 140.146 270 140.146C269.461 140.146 268.923 140.121 268.395 140.078C268.099 139.654 267.81 139.201 267.532 138.723C267.26 138.256 267.014 137.781 266.79 137.304C267.011 136.826 267.26 136.348 267.528 135.881C267.806 135.399 268.092 134.943 268.388 134.518C268.919 134.472 269.458 134.447 270 134.447C270.539 134.447 271.077 134.472 271.605 134.515C271.901 134.939 272.19 135.392 272.468 135.87C272.74 136.337 272.986 136.811 273.21 137.289C272.986 137.767 272.74 138.245 272.472 138.712ZM273.624 138.249C273.817 138.727 273.981 139.205 274.116 139.668C273.649 139.782 273.157 139.879 272.647 139.954C272.822 139.679 272.996 139.397 273.16 139.108C273.325 138.823 273.478 138.534 273.624 138.249ZM270.007 142.054C269.675 141.712 269.344 141.33 269.015 140.913C269.337 140.927 269.665 140.938 269.996 140.938C270.332 140.938 270.663 140.931 270.988 140.913C270.667 141.33 270.335 141.712 270.007 142.054ZM267.353 139.954C266.847 139.879 266.358 139.786 265.891 139.672C266.023 139.212 266.187 138.737 266.372 138.263C266.519 138.548 266.672 138.834 266.84 139.119C267.007 139.404 267.178 139.682 267.353 139.954ZM269.989 132.532C270.321 132.874 270.653 133.256 270.981 133.673C270.66 133.659 270.332 133.648 270 133.648C269.665 133.648 269.333 133.655 269.008 133.673C269.329 133.256 269.661 132.874 269.989 132.532ZM267.35 134.632C267.175 134.907 267 135.189 266.836 135.478C266.672 135.763 266.519 136.048 266.372 136.333C266.18 135.856 266.016 135.378 265.88 134.914C266.347 134.803 266.84 134.707 267.35 134.632ZM264.121 139.098C262.859 138.559 262.042 137.853 262.042 137.293C262.042 136.733 262.859 136.023 264.121 135.488C264.428 135.356 264.764 135.239 265.11 135.128C265.313 135.827 265.58 136.555 265.912 137.3C265.584 138.042 265.32 138.766 265.12 139.461C264.767 139.351 264.432 139.23 264.121 139.098ZM266.041 144.194C265.555 143.916 265.345 142.857 265.509 141.494C265.548 141.159 265.613 140.806 265.691 140.446C266.39 140.617 267.153 140.749 267.956 140.834C268.438 141.494 268.937 142.093 269.44 142.618C268.277 143.698 267.186 144.29 266.444 144.29C266.283 144.287 266.148 144.255 266.041 144.194ZM274.502 141.476C274.669 142.839 274.462 143.898 273.981 144.18C273.874 144.244 273.735 144.273 273.571 144.273C272.832 144.273 271.737 143.684 270.574 142.611C271.074 142.086 271.573 141.491 272.047 140.831C272.854 140.745 273.617 140.613 274.316 140.439C274.398 140.799 274.462 141.145 274.502 141.476ZM275.875 139.098C275.568 139.23 275.233 139.347 274.887 139.458C274.684 138.759 274.416 138.031 274.084 137.286C274.412 136.544 274.676 135.82 274.876 135.124C275.229 135.235 275.565 135.356 275.879 135.488C277.141 136.027 277.958 136.733 277.958 137.293C277.955 137.853 277.138 138.563 275.875 139.098Z" fill="#CED7FF"/>
<path d="M269.995 138.923C270.896 138.923 271.626 138.193 271.626 137.293C271.626 136.393 270.896 135.663 269.995 135.663C269.095 135.663 268.365 136.393 268.365 137.293C268.365 138.193 269.095 138.923 269.995 138.923Z" fill="#362CAC"/>
<g style="mix-blend-mode:plus-lighter" filter="url(#filter16_f_306_4304)">
<path d="M278.75 137.293C278.75 136.134 277.298 135.035 275.072 134.354C275.586 132.086 275.358 130.281 274.352 129.703C274.12 129.568 273.849 129.504 273.553 129.504V130.299C273.717 130.299 273.849 130.331 273.959 130.392C274.445 130.67 274.655 131.729 274.491 133.092C274.452 133.427 274.387 133.78 274.309 134.14C273.61 133.969 272.847 133.837 272.044 133.751C271.562 133.092 271.063 132.492 270.56 131.968C271.723 130.887 272.814 130.295 273.556 130.295V129.5C272.575 129.5 271.291 130.199 269.993 131.412C268.694 130.206 267.41 129.514 266.429 129.514V130.31C267.168 130.31 268.263 130.898 269.426 131.972C268.926 132.496 268.427 133.092 267.953 133.751C267.146 133.837 266.383 133.969 265.684 134.144C265.602 133.787 265.541 133.441 265.498 133.109C265.331 131.747 265.538 130.688 266.019 130.406C266.126 130.342 266.265 130.313 266.429 130.313V129.518C266.13 129.518 265.859 129.582 265.623 129.718C264.621 130.295 264.396 132.096 264.913 134.358C262.695 135.042 261.25 136.137 261.25 137.293C261.25 138.452 262.702 139.55 264.928 140.232C264.414 142.5 264.642 144.305 265.648 144.882C265.88 145.018 266.151 145.082 266.451 145.082C267.432 145.082 268.716 144.383 270.014 143.171C271.313 144.376 272.597 145.068 273.578 145.068C273.877 145.068 274.148 145.004 274.384 144.868C275.386 144.29 275.611 142.489 275.094 140.228C277.305 139.547 278.75 138.448 278.75 137.293ZM274.106 134.914C273.974 135.374 273.81 135.848 273.624 136.323C273.478 136.037 273.325 135.752 273.157 135.467C272.993 135.181 272.818 134.903 272.643 134.632C273.15 134.707 273.638 134.8 274.106 134.914ZM272.472 138.712C272.194 139.194 271.908 139.65 271.612 140.075C271.081 140.121 270.542 140.146 270 140.146C269.461 140.146 268.923 140.121 268.395 140.078C268.099 139.654 267.81 139.201 267.532 138.723C267.26 138.256 267.014 137.781 266.79 137.304C267.011 136.826 267.26 136.348 267.528 135.881C267.806 135.399 268.092 134.943 268.388 134.518C268.919 134.472 269.458 134.447 270 134.447C270.539 134.447 271.077 134.472 271.605 134.515C271.901 134.939 272.19 135.392 272.468 135.87C272.74 136.337 272.986 136.811 273.21 137.289C272.986 137.767 272.74 138.245 272.472 138.712ZM273.624 138.249C273.817 138.727 273.981 139.205 274.116 139.668C273.649 139.782 273.157 139.879 272.647 139.954C272.822 139.679 272.996 139.397 273.16 139.108C273.325 138.823 273.478 138.534 273.624 138.249ZM270.007 142.054C269.675 141.712 269.344 141.33 269.015 140.913C269.337 140.927 269.665 140.938 269.996 140.938C270.332 140.938 270.663 140.931 270.988 140.913C270.667 141.33 270.335 141.712 270.007 142.054ZM267.353 139.954C266.847 139.879 266.358 139.786 265.891 139.672C266.023 139.212 266.187 138.737 266.372 138.263C266.519 138.548 266.672 138.834 266.84 139.119C267.007 139.404 267.178 139.682 267.353 139.954ZM269.989 132.532C270.321 132.874 270.653 133.256 270.981 133.673C270.66 133.659 270.332 133.648 270 133.648C269.665 133.648 269.333 133.655 269.008 133.673C269.329 133.256 269.661 132.874 269.989 132.532ZM267.35 134.632C267.175 134.907 267 135.189 266.836 135.478C266.672 135.763 266.519 136.048 266.372 136.333C266.18 135.856 266.016 135.378 265.88 134.914C266.347 134.803 266.84 134.707 267.35 134.632ZM264.121 139.098C262.859 138.559 262.042 137.853 262.042 137.293C262.042 136.733 262.859 136.023 264.121 135.488C264.428 135.356 264.764 135.239 265.11 135.128C265.313 135.827 265.58 136.555 265.912 137.3C265.584 138.042 265.32 138.766 265.12 139.461C264.767 139.351 264.432 139.23 264.121 139.098ZM266.041 144.194C265.555 143.916 265.345 142.857 265.509 141.494C265.548 141.159 265.613 140.806 265.691 140.446C266.39 140.617 267.153 140.749 267.956 140.834C268.438 141.494 268.937 142.093 269.44 142.618C268.277 143.698 267.186 144.29 266.444 144.29C266.283 144.287 266.148 144.255 266.041 144.194ZM274.502 141.476C274.669 142.839 274.462 143.898 273.981 144.18C273.874 144.244 273.735 144.273 273.571 144.273C272.832 144.273 271.737 143.684 270.574 142.611C271.074 142.086 271.573 141.491 272.047 140.831C272.854 140.745 273.617 140.613 274.316 140.439C274.398 140.799 274.462 141.145 274.502 141.476ZM275.875 139.098C275.568 139.23 275.233 139.347 274.887 139.458C274.684 138.759 274.416 138.031 274.084 137.286C274.412 136.544 274.676 135.82 274.876 135.124C275.229 135.235 275.565 135.356 275.879 135.488C277.141 136.027 277.958 136.733 277.958 137.293C277.955 137.853 277.138 138.563 275.875 139.098Z" fill="#CED7FF"/>
<path d="M269.995 138.923C270.896 138.923 271.626 138.193 271.626 137.293C271.626 136.393 270.896 135.663 269.995 135.663C269.095 135.663 268.365 136.393 268.365 137.293C268.365 138.193 269.095 138.923 269.995 138.923Z" fill="#362CAC"/>
</g>
</g>
</g>
<g opacity="0.8">
<path d="M155 346C155 346.552 154.552 347 154 347C153.448 347 153 346.552 153 346L155 346ZM153 346L153 226L155 226L155 346L153 346Z" fill="url(#paint47_linear_306_4304)"/>
<path d="M155 346C155 346.552 154.552 347 154 347C153.448 347 153 346.552 153 346L155 346ZM153 346L153 226L155 226L155 346L153 346Z" fill="url(#paint48_linear_306_4304)" style="mix-blend-mode:plus-lighter"/>
</g>
<g style="mix-blend-mode:plus-lighter" opacity="0.4" filter="url(#filter17_f_306_4304)">
<path d="M155 346C155 346.552 154.552 347 154 347C153.448 347 153 346.552 153 346L155 346ZM153 346L153 226L155 226L155 346L153 346Z" fill="url(#paint49_linear_306_4304)"/>
<path d="M155 346C155 346.552 154.552 347 154 347C153.448 347 153 346.552 153 346L155 346ZM153 346L153 226L155 226L155 346L153 346Z" fill="url(#paint50_linear_306_4304)" style="mix-blend-mode:plus-lighter"/>
</g>
<g style="mix-blend-mode:plus-lighter" opacity="0.4" filter="url(#filter18_f_306_4304)">
<path d="M155 346C155 346.552 154.552 347 154 347C153.448 347 153 346.552 153 346L155 346ZM153 346L153 226L155 226L155 346L153 346Z" fill="url(#paint51_linear_306_4304)"/>
<path d="M155 346C155 346.552 154.552 347 154 347C153.448 347 153 346.552 153 346L155 346ZM153 346L153 226L155 226L155 346L153 346Z" fill="url(#paint52_linear_306_4304)" style="mix-blend-mode:plus-lighter"/>
</g>
<defs>
<filter id="filter0_ddddd_306_4304" x="52" y="97" width="204" height="319" filterUnits="userSpaceOnUse" color-interpolation-filters="sRGB">
<feFlood flood-opacity="0" result="BackgroundImageFix"/>
<feColorMatrix in="SourceAlpha" type="matrix" values="0 0 0 0 0 0 0 0 0 0 0 0 0 0 0 0 0 0 127 0" result="hardAlpha"/>
<feOffset dy="6"/>
<feGaussianBlur stdDeviation="6.5"/>
<feColorMatrix type="matrix" values="0 0 0 0 0 0 0 0 0 0 0 0 0 0 0 0 0 0 0.34 0"/>
<feBlend mode="normal" in2="BackgroundImageFix" result="effect1_dropShadow_306_4304"/>
<feColorMatrix in="SourceAlpha" type="matrix" values="0 0 0 0 0 0 0 0 0 0 0 0 0 0 0 0 0 0 127 0" result="hardAlpha"/>
<feOffset dy="24"/>
<feGaussianBlur stdDeviation="12"/>
<feColorMatrix type="matrix" values="0 0 0 0 0 0 0 0 0 0 0 0 0 0 0 0 0 0 0.3 0"/>
<feBlend mode="normal" in2="effect1_dropShadow_306_4304" result="effect2_dropShadow_306_4304"/>
<feColorMatrix in="SourceAlpha" type="matrix" values="0 0 0 0 0 0 0 0 0 0 0 0 0 0 0 0 0 0 127 0" result="hardAlpha"/>
<feOffset dy="54"/>
<feGaussianBlur stdDeviation="16"/>
<feColorMatrix type="matrix" values="0 0 0 0 0 0 0 0 0 0 0 0 0 0 0 0 0 0 0.18 0"/>
<feBlend mode="normal" in2="effect2_dropShadow_306_4304" result="effect3_dropShadow_306_4304"/>
<feColorMatrix in="SourceAlpha" type="matrix" values="0 0 0 0 0 0 0 0 0 0 0 0 0 0 0 0 0 0 127 0" result="hardAlpha"/>
<feOffset dy="96"/>
<feGaussianBlur stdDeviation="19"/>
<feColorMatrix type="matrix" values="0 0 0 0 0 0 0 0 0 0 0 0 0 0 0 0 0 0 0.05 0"/>
<feBlend mode="normal" in2="effect3_dropShadow_306_4304" result="effect4_dropShadow_306_4304"/>
<feColorMatrix in="SourceAlpha" type="matrix" values="0 0 0 0 0 0 0 0 0 0 0 0 0 0 0 0 0 0 127 0" result="hardAlpha"/>
<feOffset dy="150"/>
<feGaussianBlur stdDeviation="21"/>
<feColorMatrix type="matrix" values="0 0 0 0 0 0 0 0 0 0 0 0 0 0 0 0 0 0 0.01 0"/>
<feBlend mode="normal" in2="effect4_dropShadow_306_4304" result="effect5_dropShadow_306_4304"/>
<feBlend mode="normal" in="SourceGraphic" in2="effect5_dropShadow_306_4304" result="shape"/>
</filter>
<filter id="filter1_f_306_4304" x="117" y="131.5" width="74" height="65" filterUnits="userSpaceOnUse" color-interpolation-filters="sRGB">
<feFlood flood-opacity="0" result="BackgroundImageFix"/>
<feBlend mode="normal" in="SourceGraphic" in2="BackgroundImageFix" result="shape"/>
<feGaussianBlur stdDeviation="8" result="effect1_foregroundBlur_306_4304"/>
</filter>
<filter id="filter2_f_306_4304" x="101" y="115.5" width="106" height="97" filterUnits="userSpaceOnUse" color-interpolation-filters="sRGB">
<feFlood flood-opacity="0" result="BackgroundImageFix"/>
<feBlend mode="normal" in="SourceGraphic" in2="BackgroundImageFix" result="shape"/>
<feGaussianBlur stdDeviation="16" result="effect1_foregroundBlur_306_4304"/>
</filter>
<filter id="filter3_f_306_4304" x="90" y="100" width="128" height="128" filterUnits="userSpaceOnUse" color-interpolation-filters="sRGB">
<feFlood flood-opacity="0" result="BackgroundImageFix"/>
<feBlend mode="normal" in="SourceGraphic" in2="BackgroundImageFix" result="shape"/>
<feGaussianBlur stdDeviation="2" result="effect1_foregroundBlur_306_4304"/>
</filter>
<filter id="filter4_f_306_4304" x="86" y="96" width="136" height="136" filterUnits="userSpaceOnUse" color-interpolation-filters="sRGB">
<feFlood flood-opacity="0" result="BackgroundImageFix"/>
<feBlend mode="normal" in="SourceGraphic" in2="BackgroundImageFix" result="shape"/>
<feGaussianBlur stdDeviation="4" result="effect1_foregroundBlur_306_4304"/>
</filter>
<filter id="filter5_dddd_306_4304" x="17" y="221" width="86" height="107" filterUnits="userSpaceOnUse" color-interpolation-filters="sRGB">
<feFlood flood-opacity="0" result="BackgroundImageFix"/>
<feColorMatrix in="SourceAlpha" type="matrix" values="0 0 0 0 0 0 0 0 0 0 0 0 0 0 0 0 0 0 127 0" result="hardAlpha"/>
<feOffset dy="2"/>
<feGaussianBlur stdDeviation="2"/>
<feColorMatrix type="matrix" values="0 0 0 0 0 0 0 0 0 0 0 0 0 0 0 0 0 0 0.25 0"/>
<feBlend mode="normal" in2="BackgroundImageFix" result="effect1_dropShadow_306_4304"/>
<feColorMatrix in="SourceAlpha" type="matrix" values="0 0 0 0 0 0 0 0 0 0 0 0 0 0 0 0 0 0 127 0" result="hardAlpha"/>
<feOffset dy="8"/>
<feGaussianBlur stdDeviation="4"/>
<feColorMatrix type="matrix" values="0 0 0 0 0 0 0 0 0 0 0 0 0 0 0 0 0 0 0.21 0"/>
<feBlend mode="normal" in2="effect1_dropShadow_306_4304" result="effect2_dropShadow_306_4304"/>
<feColorMatrix in="SourceAlpha" type="matrix" values="0 0 0 0 0 0 0 0 0 0 0 0 0 0 0 0 0 0 127 0" result="hardAlpha"/>
<feOffset dy="18"/>
<feGaussianBlur stdDeviation="5.5"/>
<feColorMatrix type="matrix" values="0 0 0 0 0 0 0 0 0 0 0 0 0 0 0 0 0 0 0.13 0"/>
<feBlend mode="normal" in2="effect2_dropShadow_306_4304" result="effect3_dropShadow_306_4304"/>
<feColorMatrix in="SourceAlpha" type="matrix" values="0 0 0 0 0 0 0 0 0 0 0 0 0 0 0 0 0 0 127 0" result="hardAlpha"/>
<feOffset dy="32"/>
<feGaussianBlur stdDeviation="6.5"/>
<feColorMatrix type="matrix" values="0 0 0 0 0 0 0 0 0 0 0 0 0 0 0 0 0 0 0.04 0"/>
<feBlend mode="normal" in2="effect3_dropShadow_306_4304" result="effect4_dropShadow_306_4304"/>
<feBlend mode="normal" in="SourceGraphic" in2="effect4_dropShadow_306_4304" result="shape"/>
</filter>
<filter id="filter6_f_306_4304" x="40.75" y="236" width="37" height="32.9512" filterUnits="userSpaceOnUse" color-interpolation-filters="sRGB">
<feFlood flood-opacity="0" result="BackgroundImageFix"/>
<feBlend mode="normal" in="SourceGraphic" in2="BackgroundImageFix" result="shape"/>
<feGaussianBlur stdDeviation="4" result="effect1_foregroundBlur_306_4304"/>
</filter>
<filter id="filter7_dddd_306_4304" x="0" y="110" width="76" height="97" filterUnits="userSpaceOnUse" color-interpolation-filters="sRGB">
<feFlood flood-opacity="0" result="BackgroundImageFix"/>
<feColorMatrix in="SourceAlpha" type="matrix" values="0 0 0 0 0 0 0 0 0 0 0 0 0 0 0 0 0 0 127 0" result="hardAlpha"/>
<feOffset dy="2"/>
<feGaussianBlur stdDeviation="2"/>
<feColorMatrix type="matrix" values="0 0 0 0 0 0 0 0 0 0 0 0 0 0 0 0 0 0 0.25 0"/>
<feBlend mode="normal" in2="BackgroundImageFix" result="effect1_dropShadow_306_4304"/>
<feColorMatrix in="SourceAlpha" type="matrix" values="0 0 0 0 0 0 0 0 0 0 0 0 0 0 0 0 0 0 127 0" result="hardAlpha"/>
<feOffset dy="8"/>
<feGaussianBlur stdDeviation="4"/>
<feColorMatrix type="matrix" values="0 0 0 0 0 0 0 0 0 0 0 0 0 0 0 0 0 0 0.21 0"/>
<feBlend mode="normal" in2="effect1_dropShadow_306_4304" result="effect2_dropShadow_306_4304"/>
<feColorMatrix in="SourceAlpha" type="matrix" values="0 0 0 0 0 0 0 0 0 0 0 0 0 0 0 0 0 0 127 0" result="hardAlpha"/>
<feOffset dy="18"/>
<feGaussianBlur stdDeviation="5.5"/>
<feColorMatrix type="matrix" values="0 0 0 0 0 0 0 0 0 0 0 0 0 0 0 0 0 0 0.13 0"/>
<feBlend mode="normal" in2="effect2_dropShadow_306_4304" result="effect3_dropShadow_306_4304"/>
<feColorMatrix in="SourceAlpha" type="matrix" values="0 0 0 0 0 0 0 0 0 0 0 0 0 0 0 0 0 0 127 0" result="hardAlpha"/>
<feOffset dy="32"/>
<feGaussianBlur stdDeviation="6.5"/>
<feColorMatrix type="matrix" values="0 0 0 0 0 0 0 0 0 0 0 0 0 0 0 0 0 0 0.04 0"/>
<feBlend mode="normal" in2="effect3_dropShadow_306_4304" result="effect4_dropShadow_306_4304"/>
<feBlend mode="normal" in="SourceGraphic" in2="effect4_dropShadow_306_4304" result="shape"/>
</filter>
<filter id="filter8_f_306_4304" x="22" y="120.375" width="34.3281" height="34.5" filterUnits="userSpaceOnUse" color-interpolation-filters="sRGB">
<feFlood flood-opacity="0" result="BackgroundImageFix"/>
<feBlend mode="normal" in="SourceGraphic" in2="BackgroundImageFix" result="shape"/>
<feGaussianBlur stdDeviation="4" result="effect1_foregroundBlur_306_4304"/>
</filter>
<filter id="filter9_dddd_306_4304" x="77" y="35" width="66" height="87" filterUnits="userSpaceOnUse" color-interpolation-filters="sRGB">
<feFlood flood-opacity="0" result="BackgroundImageFix"/>
<feColorMatrix in="SourceAlpha" type="matrix" values="0 0 0 0 0 0 0 0 0 0 0 0 0 0 0 0 0 0 127 0" result="hardAlpha"/>
<feOffset dy="2"/>
<feGaussianBlur stdDeviation="2"/>
<feColorMatrix type="matrix" values="0 0 0 0 0 0 0 0 0 0 0 0 0 0 0 0 0 0 0.25 0"/>
<feBlend mode="normal" in2="BackgroundImageFix" result="effect1_dropShadow_306_4304"/>
<feColorMatrix in="SourceAlpha" type="matrix" values="0 0 0 0 0 0 0 0 0 0 0 0 0 0 0 0 0 0 127 0" result="hardAlpha"/>
<feOffset dy="8"/>
<feGaussianBlur stdDeviation="4"/>
<feColorMatrix type="matrix" values="0 0 0 0 0 0 0 0 0 0 0 0 0 0 0 0 0 0 0.21 0"/>
<feBlend mode="normal" in2="effect1_dropShadow_306_4304" result="effect2_dropShadow_306_4304"/>
<feColorMatrix in="SourceAlpha" type="matrix" values="0 0 0 0 0 0 0 0 0 0 0 0 0 0 0 0 0 0 127 0" result="hardAlpha"/>
<feOffset dy="18"/>
<feGaussianBlur stdDeviation="5.5"/>
<feColorMatrix type="matrix" values="0 0 0 0 0 0 0 0 0 0 0 0 0 0 0 0 0 0 0.13 0"/>
<feBlend mode="normal" in2="effect2_dropShadow_306_4304" result="effect3_dropShadow_306_4304"/>
<feColorMatrix in="SourceAlpha" type="matrix" values="0 0 0 0 0 0 0 0 0 0 0 0 0 0 0 0 0 0 127 0" result="hardAlpha"/>
<feOffset dy="32"/>
<feGaussianBlur stdDeviation="6.5"/>
<feColorMatrix type="matrix" values="0 0 0 0 0 0 0 0 0 0 0 0 0 0 0 0 0 0 0.04 0"/>
<feBlend mode="normal" in2="effect3_dropShadow_306_4304" result="effect4_dropShadow_306_4304"/>
<feBlend mode="normal" in="SourceGraphic" in2="effect4_dropShadow_306_4304" result="shape"/>
</filter>
<filter id="filter10_f_306_4304" x="96" y="42.5" width="26.959" height="29.9736" filterUnits="userSpaceOnUse" color-interpolation-filters="sRGB">
<feFlood flood-opacity="0" result="BackgroundImageFix"/>
<feBlend mode="normal" in="SourceGraphic" in2="BackgroundImageFix" result="shape"/>
<feGaussianBlur stdDeviation="4" result="effect1_foregroundBlur_306_4304"/>
</filter>
<filter id="filter11_dddd_306_4304" x="165" y="35" width="66" height="87" filterUnits="userSpaceOnUse" color-interpolation-filters="sRGB">
<feFlood flood-opacity="0" result="BackgroundImageFix"/>
<feColorMatrix in="SourceAlpha" type="matrix" values="0 0 0 0 0 0 0 0 0 0 0 0 0 0 0 0 0 0 127 0" result="hardAlpha"/>
<feOffset dy="2"/>
<feGaussianBlur stdDeviation="2"/>
<feColorMatrix type="matrix" values="0 0 0 0 0 0 0 0 0 0 0 0 0 0 0 0 0 0 0.25 0"/>
<feBlend mode="normal" in2="BackgroundImageFix" result="effect1_dropShadow_306_4304"/>
<feColorMatrix in="SourceAlpha" type="matrix" values="0 0 0 0 0 0 0 0 0 0 0 0 0 0 0 0 0 0 127 0" result="hardAlpha"/>
<feOffset dy="8"/>
<feGaussianBlur stdDeviation="4"/>
<feColorMatrix type="matrix" values="0 0 0 0 0 0 0 0 0 0 0 0 0 0 0 0 0 0 0.21 0"/>
<feBlend mode="normal" in2="effect1_dropShadow_306_4304" result="effect2_dropShadow_306_4304"/>
<feColorMatrix in="SourceAlpha" type="matrix" values="0 0 0 0 0 0 0 0 0 0 0 0 0 0 0 0 0 0 127 0" result="hardAlpha"/>
<feOffset dy="18"/>
<feGaussianBlur stdDeviation="5.5"/>
<feColorMatrix type="matrix" values="0 0 0 0 0 0 0 0 0 0 0 0 0 0 0 0 0 0 0.13 0"/>
<feBlend mode="normal" in2="effect2_dropShadow_306_4304" result="effect3_dropShadow_306_4304"/>
<feColorMatrix in="SourceAlpha" type="matrix" values="0 0 0 0 0 0 0 0 0 0 0 0 0 0 0 0 0 0 127 0" result="hardAlpha"/>
<feOffset dy="32"/>
<feGaussianBlur stdDeviation="6.5"/>
<feColorMatrix type="matrix" values="0 0 0 0 0 0 0 0 0 0 0 0 0 0 0 0 0 0 0.04 0"/>
<feBlend mode="normal" in2="effect3_dropShadow_306_4304" result="effect4_dropShadow_306_4304"/>
<feBlend mode="normal" in="SourceGraphic" in2="effect4_dropShadow_306_4304" result="shape"/>
</filter>
<filter id="filter12_f_306_4304" x="183" y="42" width="29.9668" height="29.8936" filterUnits="userSpaceOnUse" color-interpolation-filters="sRGB">
<feFlood flood-opacity="0" result="BackgroundImageFix"/>
<feBlend mode="normal" in="SourceGraphic" in2="BackgroundImageFix" result="shape"/>
<feGaussianBlur stdDeviation="4" result="effect1_foregroundBlur_306_4304"/>
</filter>
<filter id="filter13_dddd_306_4304" x="205" y="221" width="86" height="107" filterUnits="userSpaceOnUse" color-interpolation-filters="sRGB">
<feFlood flood-opacity="0" result="BackgroundImageFix"/>
<feColorMatrix in="SourceAlpha" type="matrix" values="0 0 0 0 0 0 0 0 0 0 0 0 0 0 0 0 0 0 127 0" result="hardAlpha"/>
<feOffset dy="2"/>
<feGaussianBlur stdDeviation="2"/>
<feColorMatrix type="matrix" values="0 0 0 0 0 0 0 0 0 0 0 0 0 0 0 0 0 0 0.25 0"/>
<feBlend mode="normal" in2="BackgroundImageFix" result="effect1_dropShadow_306_4304"/>
<feColorMatrix in="SourceAlpha" type="matrix" values="0 0 0 0 0 0 0 0 0 0 0 0 0 0 0 0 0 0 127 0" result="hardAlpha"/>
<feOffset dy="8"/>
<feGaussianBlur stdDeviation="4"/>
<feColorMatrix type="matrix" values="0 0 0 0 0 0 0 0 0 0 0 0 0 0 0 0 0 0 0.21 0"/>
<feBlend mode="normal" in2="effect1_dropShadow_306_4304" result="effect2_dropShadow_306_4304"/>
<feColorMatrix in="SourceAlpha" type="matrix" values="0 0 0 0 0 0 0 0 0 0 0 0 0 0 0 0 0 0 127 0" result="hardAlpha"/>
<feOffset dy="18"/>
<feGaussianBlur stdDeviation="5.5"/>
<feColorMatrix type="matrix" values="0 0 0 0 0 0 0 0 0 0 0 0 0 0 0 0 0 0 0.13 0"/>
<feBlend mode="normal" in2="effect2_dropShadow_306_4304" result="effect3_dropShadow_306_4304"/>
<feColorMatrix in="SourceAlpha" type="matrix" values="0 0 0 0 0 0 0 0 0 0 0 0 0 0 0 0 0 0 127 0" result="hardAlpha"/>
<feOffset dy="32"/>
<feGaussianBlur stdDeviation="6.5"/>
<feColorMatrix type="matrix" values="0 0 0 0 0 0 0 0 0 0 0 0 0 0 0 0 0 0 0.04 0"/>
<feBlend mode="normal" in2="effect3_dropShadow_306_4304" result="effect4_dropShadow_306_4304"/>
<feBlend mode="normal" in="SourceGraphic" in2="effect4_dropShadow_306_4304" result="shape"/>
</filter>
<filter id="filter14_f_306_4304" x="232.5" y="237.259" width="34.3008" height="37.2407" filterUnits="userSpaceOnUse" color-interpolation-filters="sRGB">
<feFlood flood-opacity="0" result="BackgroundImageFix"/>
<feBlend mode="normal" in="SourceGraphic" in2="BackgroundImageFix" result="shape"/>
<feGaussianBlur stdDeviation="4" result="effect1_foregroundBlur_306_4304"/>
</filter>
<filter id="filter15_dddd_306_4304" x="232" y="110" width="76" height="97" filterUnits="userSpaceOnUse" color-interpolation-filters="sRGB">
<feFlood flood-opacity="0" result="BackgroundImageFix"/>
<feColorMatrix in="SourceAlpha" type="matrix" values="0 0 0 0 0 0 0 0 0 0 0 0 0 0 0 0 0 0 127 0" result="hardAlpha"/>
<feOffset dy="2"/>
<feGaussianBlur stdDeviation="2"/>
<feColorMatrix type="matrix" values="0 0 0 0 0 0 0 0 0 0 0 0 0 0 0 0 0 0 0.25 0"/>
<feBlend mode="normal" in2="BackgroundImageFix" result="effect1_dropShadow_306_4304"/>
<feColorMatrix in="SourceAlpha" type="matrix" values="0 0 0 0 0 0 0 0 0 0 0 0 0 0 0 0 0 0 127 0" result="hardAlpha"/>
<feOffset dy="8"/>
<feGaussianBlur stdDeviation="4"/>
<feColorMatrix type="matrix" values="0 0 0 0 0 0 0 0 0 0 0 0 0 0 0 0 0 0 0.21 0"/>
<feBlend mode="normal" in2="effect1_dropShadow_306_4304" result="effect2_dropShadow_306_4304"/>
<feColorMatrix in="SourceAlpha" type="matrix" values="0 0 0 0 0 0 0 0 0 0 0 0 0 0 0 0 0 0 127 0" result="hardAlpha"/>
<feOffset dy="18"/>
<feGaussianBlur stdDeviation="5.5"/>
<feColorMatrix type="matrix" values="0 0 0 0 0 0 0 0 0 0 0 0 0 0 0 0 0 0 0.13 0"/>
<feBlend mode="normal" in2="effect2_dropShadow_306_4304" result="effect3_dropShadow_306_4304"/>
<feColorMatrix in="SourceAlpha" type="matrix" values="0 0 0 0 0 0 0 0 0 0 0 0 0 0 0 0 0 0 127 0" result="hardAlpha"/>
<feOffset dy="32"/>
<feGaussianBlur stdDeviation="6.5"/>
<feColorMatrix type="matrix" values="0 0 0 0 0 0 0 0 0 0 0 0 0 0 0 0 0 0 0.04 0"/>
<feBlend mode="normal" in2="effect3_dropShadow_306_4304" result="effect4_dropShadow_306_4304"/>
<feBlend mode="normal" in="SourceGraphic" in2="effect4_dropShadow_306_4304" result="shape"/>
</filter>
<filter id="filter16_f_306_4304" x="253.25" y="121.5" width="33.5" height="31.582" filterUnits="userSpaceOnUse" color-interpolation-filters="sRGB">
<feFlood flood-opacity="0" result="BackgroundImageFix"/>
<feBlend mode="normal" in="SourceGraphic" in2="BackgroundImageFix" result="shape"/>
<feGaussianBlur stdDeviation="4" result="effect1_foregroundBlur_306_4304"/>
</filter>
<filter id="filter17_f_306_4304" x="149" y="222" width="10" height="129" filterUnits="userSpaceOnUse" color-interpolation-filters="sRGB">
<feFlood flood-opacity="0" result="BackgroundImageFix"/>
<feBlend mode="normal" in="SourceGraphic" in2="BackgroundImageFix" result="shape"/>
<feGaussianBlur stdDeviation="2" result="effect1_foregroundBlur_306_4304"/>
</filter>
<filter id="filter18_f_306_4304" x="145" y="218" width="18" height="137" filterUnits="userSpaceOnUse" color-interpolation-filters="sRGB">
<feFlood flood-opacity="0" result="BackgroundImageFix"/>
<feBlend mode="normal" in="SourceGraphic" in2="BackgroundImageFix" result="shape"/>
<feGaussianBlur stdDeviation="4" result="effect1_foregroundBlur_306_4304"/>
</filter>
<radialGradient id="paint0_radial_306_4304" cx="0" cy="0" r="1" gradientUnits="userSpaceOnUse" gradientTransform="translate(153.5 176) rotate(90) scale(139 145.744)">
<stop stop-color="#362CAC"/>
<stop offset="1" stop-color="#101010" stop-opacity="0"/>
</radialGradient>
<linearGradient id="paint1_linear_306_4304" x1="198" y1="77" x2="181" y2="111" gradientUnits="userSpaceOnUse">
<stop stop-color="#362CAC"/>
<stop offset="1" stop-color="#362CAC" stop-opacity="0"/>
</linearGradient>
<linearGradient id="paint2_linear_306_4304" x1="198" y1="77" x2="181" y2="111" gradientUnits="userSpaceOnUse">
<stop stop-color="#362CAC"/>
<stop offset="1" stop-color="#362CAC" stop-opacity="0"/>
</linearGradient>
<linearGradient id="paint3_linear_306_4304" x1="110" y1="77" x2="127" y2="111" gradientUnits="userSpaceOnUse">
<stop stop-color="#362CAC"/>
<stop offset="1" stop-color="#362CAC" stop-opacity="0"/>
</linearGradient>
<linearGradient id="paint4_linear_306_4304" x1="110" y1="77" x2="127" y2="111" gradientUnits="userSpaceOnUse">
<stop stop-color="#362CAC"/>
<stop offset="1" stop-color="#362CAC" stop-opacity="0"/>
</linearGradient>
<linearGradient id="paint5_linear_306_4304" x1="245" y1="137" x2="243.99" y2="146.105" gradientUnits="userSpaceOnUse">
<stop stop-color="#362CAC"/>
<stop offset="1" stop-color="#362CAC" stop-opacity="0"/>
</linearGradient>
<linearGradient id="paint6_linear_306_4304" x1="245" y1="137" x2="243.99" y2="146.105" gradientUnits="userSpaceOnUse">
<stop stop-color="#362CAC"/>
<stop offset="1" stop-color="#362CAC" stop-opacity="0"/>
</linearGradient>
<linearGradient id="paint7_linear_306_4304" x1="63" y1="137" x2="64.0104" y2="146.105" gradientUnits="userSpaceOnUse">
<stop stop-color="#362CAC"/>
<stop offset="1" stop-color="#362CAC" stop-opacity="0"/>
</linearGradient>
<linearGradient id="paint8_linear_306_4304" x1="63" y1="137" x2="64.0104" y2="146.105" gradientUnits="userSpaceOnUse">
<stop stop-color="#362CAC"/>
<stop offset="1" stop-color="#362CAC" stop-opacity="0"/>
</linearGradient>
<linearGradient id="paint9_linear_306_4304" x1="227" y1="232" x2="203.496" y2="241.599" gradientUnits="userSpaceOnUse">
<stop stop-color="#362CAC"/>
<stop offset="1" stop-color="#362CAC" stop-opacity="0"/>
</linearGradient>
<linearGradient id="paint10_linear_306_4304" x1="227" y1="232" x2="203.496" y2="241.599" gradientUnits="userSpaceOnUse">
<stop stop-color="#362CAC"/>
<stop offset="1" stop-color="#362CAC" stop-opacity="0"/>
</linearGradient>
<linearGradient id="paint11_linear_306_4304" x1="81" y1="232" x2="104.504" y2="241.599" gradientUnits="userSpaceOnUse">
<stop stop-color="#362CAC"/>
<stop offset="1" stop-color="#362CAC" stop-opacity="0"/>
</linearGradient>
<linearGradient id="paint12_linear_306_4304" x1="81" y1="232" x2="104.504" y2="241.599" gradientUnits="userSpaceOnUse">
<stop stop-color="#362CAC"/>
<stop offset="1" stop-color="#362CAC" stop-opacity="0"/>
</linearGradient>
<linearGradient id="paint13_linear_306_4304" x1="154" y1="104" x2="154" y2="224" gradientUnits="userSpaceOnUse">
<stop stop-color="#202020"/>
<stop offset="1" stop-color="#131313"/>
</linearGradient>
<linearGradient id="paint14_linear_306_4304" x1="168.149" y1="147.5" x2="155.171" y2="187.178" gradientUnits="userSpaceOnUse">
<stop offset="0.2" stop-color="#8880E3"/>
<stop offset="0.5" stop-color="#CED7FF"/>
<stop offset="0.8" stop-color="#8880E3"/>
</linearGradient>
<linearGradient id="paint15_linear_306_4304" x1="168.149" y1="147.5" x2="155.171" y2="187.178" gradientUnits="userSpaceOnUse">
<stop offset="0.2" stop-color="#8880E3"/>
<stop offset="0.5" stop-color="#CED7FF"/>
<stop offset="0.8" stop-color="#8880E3"/>
</linearGradient>
<linearGradient id="paint16_linear_306_4304" x1="168.149" y1="147.5" x2="155.171" y2="187.178" gradientUnits="userSpaceOnUse">
<stop offset="0.2" stop-color="#8880E3"/>
<stop offset="0.5" stop-color="#CED7FF"/>
<stop offset="0.8" stop-color="#8880E3"/>
</linearGradient>
<linearGradient id="paint17_linear_306_4304" x1="167.25" y1="164.25" x2="173.75" y2="180.5" gradientUnits="userSpaceOnUse">
<stop stop-opacity="0"/>
<stop offset="1" stop-opacity="0.25"/>
</linearGradient>
<linearGradient id="paint18_linear_306_4304" x1="144.5" y1="147.5" x2="152" y2="160.25" gradientUnits="userSpaceOnUse">
<stop stop-color="white" stop-opacity="0.3"/>
<stop offset="1" stop-color="white" stop-opacity="0"/>
</linearGradient>
<linearGradient id="paint19_linear_306_4304" x1="60" y1="223" x2="60" y2="283" gradientUnits="userSpaceOnUse">
<stop stop-color="#1C1C1C"/>
<stop offset="1" stop-color="#131313"/>
</linearGradient>
<linearGradient id="paint20_linear_306_4304" x1="77.625" y1="223" x2="37.125" y2="268.375" gradientUnits="userSpaceOnUse">
<stop stop-opacity="0"/>
<stop offset="1" stop-color="#362CAC"/>
</linearGradient>
<linearGradient id="paint21_linear_306_4304" x1="62.625" y1="248.125" x2="34.125" y2="267.625" gradientUnits="userSpaceOnUse">
<stop stop-color="#362CAC" stop-opacity="0"/>
<stop offset="1" stop-color="#362CAC"/>
</linearGradient>
<linearGradient id="paint22_linear_306_4304" x1="62.625" y1="248.125" x2="34.125" y2="267.625" gradientUnits="userSpaceOnUse">
<stop stop-color="#362CAC" stop-opacity="0"/>
<stop offset="1" stop-color="#362CAC"/>
</linearGradient>
<linearGradient id="paint23_linear_306_4304" x1="25" y1="0" x2="25" y2="50" gradientUnits="userSpaceOnUse">
<stop stop-color="#1C1C1C"/>
<stop offset="1" stop-color="#131313"/>
</linearGradient>
<linearGradient id="paint24_linear_306_4304" x1="43.4375" y1="25" x2="-6.80737e-07" y2="25" gradientUnits="userSpaceOnUse">
<stop stop-opacity="0"/>
<stop offset="1" stop-color="#362CAC"/>
</linearGradient>
<linearGradient id="paint25_linear_306_4304" x1="25" y1="25" x2="0.625" y2="25" gradientUnits="userSpaceOnUse">
<stop stop-color="#362CAC" stop-opacity="0"/>
<stop offset="1" stop-color="#362CAC"/>
</linearGradient>
<linearGradient id="paint26_linear_306_4304" x1="25" y1="25" x2="0.625" y2="25" gradientUnits="userSpaceOnUse">
<stop stop-color="#362CAC" stop-opacity="0"/>
<stop offset="1" stop-color="#362CAC"/>
</linearGradient>
<linearGradient id="paint27_linear_306_4304" x1="20" y1="0" x2="20" y2="40" gradientUnits="userSpaceOnUse">
<stop stop-color="#1C1C1C"/>
<stop offset="1" stop-color="#131313"/>
</linearGradient>
<linearGradient id="paint28_linear_306_4304" x1="31.75" y1="2.33389e-07" x2="4.75" y2="30.25" gradientUnits="userSpaceOnUse">
<stop stop-opacity="0"/>
<stop offset="1" stop-color="#362CAC"/>
</linearGradient>
<linearGradient id="paint29_linear_306_4304" x1="21.75" y1="16.75" x2="2.75" y2="29.75" gradientUnits="userSpaceOnUse">
<stop stop-color="#362CAC" stop-opacity="0"/>
<stop offset="1" stop-color="#362CAC"/>
</linearGradient>
<linearGradient id="paint30_linear_306_4304" x1="21.75" y1="16.75" x2="2.75" y2="29.75" gradientUnits="userSpaceOnUse">
<stop stop-color="#362CAC" stop-opacity="0"/>
<stop offset="1" stop-color="#362CAC"/>
</linearGradient>
<linearGradient id="paint31_linear_306_4304" x1="198" y1="37" x2="198" y2="77" gradientUnits="userSpaceOnUse">
<stop stop-color="#1C1C1C"/>
<stop offset="1" stop-color="#131313"/>
</linearGradient>
<linearGradient id="paint32_linear_306_4304" x1="209.75" y1="37" x2="182.75" y2="67.25" gradientUnits="userSpaceOnUse">
<stop stop-opacity="0"/>
<stop offset="1" stop-color="#362CAC"/>
</linearGradient>
<linearGradient id="paint33_linear_306_4304" x1="199.75" y1="53.75" x2="180.75" y2="66.75" gradientUnits="userSpaceOnUse">
<stop stop-color="#362CAC" stop-opacity="0"/>
<stop offset="1" stop-color="#362CAC"/>
</linearGradient>
<linearGradient id="paint34_linear_306_4304" x1="199.75" y1="53.75" x2="180.75" y2="66.75" gradientUnits="userSpaceOnUse">
<stop stop-color="#362CAC" stop-opacity="0"/>
<stop offset="1" stop-color="#362CAC"/>
</linearGradient>
<linearGradient id="paint35_linear_306_4304" x1="30" y1="0" x2="30" y2="60" gradientUnits="userSpaceOnUse">
<stop stop-color="#1C1C1C"/>
<stop offset="1" stop-color="#131313"/>
</linearGradient>
<linearGradient id="paint36_linear_306_4304" x1="47.625" y1="3.50084e-07" x2="7.125" y2="45.375" gradientUnits="userSpaceOnUse">
<stop stop-opacity="0"/>
<stop offset="1" stop-color="#362CAC"/>
</linearGradient>
<linearGradient id="paint37_linear_306_4304" x1="32.625" y1="25.125" x2="4.125" y2="44.625" gradientUnits="userSpaceOnUse">
<stop stop-color="#362CAC" stop-opacity="0"/>
<stop offset="1" stop-color="#362CAC"/>
</linearGradient>
<linearGradient id="paint38_linear_306_4304" x1="32.625" y1="25.125" x2="4.125" y2="44.625" gradientUnits="userSpaceOnUse">
<stop stop-color="#362CAC" stop-opacity="0"/>
<stop offset="1" stop-color="#362CAC"/>
</linearGradient>
<linearGradient id="paint39_linear_306_4304" x1="248.033" y1="259.374" x2="254.145" y2="266.95" gradientUnits="userSpaceOnUse">
<stop stop-color="#CED7FF"/>
<stop offset="1" stop-color="#CED7FF" stop-opacity="0"/>
</linearGradient>
<linearGradient id="paint40_linear_306_4304" x1="253.338" y1="245.255" x2="253.296" y2="255.387" gradientUnits="userSpaceOnUse">
<stop stop-color="#362CAC"/>
<stop offset="1" stop-color="#362CAC" stop-opacity="0"/>
</linearGradient>
<linearGradient id="paint41_linear_306_4304" x1="248.033" y1="259.374" x2="254.145" y2="266.95" gradientUnits="userSpaceOnUse">
<stop stop-color="#CED7FF"/>
<stop offset="1" stop-color="#CED7FF" stop-opacity="0"/>
</linearGradient>
<linearGradient id="paint42_linear_306_4304" x1="253.338" y1="245.255" x2="253.296" y2="255.387" gradientUnits="userSpaceOnUse">
<stop stop-color="#362CAC"/>
<stop offset="1" stop-color="#362CAC" stop-opacity="0"/>
</linearGradient>
<linearGradient id="paint43_linear_306_4304" x1="270" y1="112" x2="270" y2="162" gradientUnits="userSpaceOnUse">
<stop stop-color="#1C1C1C"/>
<stop offset="1" stop-color="#131313"/>
</linearGradient>
<linearGradient id="paint44_linear_306_4304" x1="288.438" y1="137" x2="245" y2="137" gradientUnits="userSpaceOnUse">
<stop stop-opacity="0"/>
<stop offset="1" stop-color="#362CAC"/>
</linearGradient>
<linearGradient id="paint45_linear_306_4304" x1="270" y1="137" x2="245.625" y2="137" gradientUnits="userSpaceOnUse">
<stop stop-color="#362CAC" stop-opacity="0"/>
<stop offset="1" stop-color="#362CAC"/>
</linearGradient>
<linearGradient id="paint46_linear_306_4304" x1="270" y1="137" x2="245.625" y2="137" gradientUnits="userSpaceOnUse">
<stop stop-color="#362CAC" stop-opacity="0"/>
<stop offset="1" stop-color="#362CAC"/>
</linearGradient>
<linearGradient id="paint47_linear_306_4304" x1="153.5" y1="226" x2="153.5" y2="346" gradientUnits="userSpaceOnUse">
<stop stop-color="#362CAC" stop-opacity="0"/>
<stop offset="1" stop-color="#362CAC"/>
</linearGradient>
<linearGradient id="paint48_linear_306_4304" x1="153.5" y1="226" x2="153.5" y2="346" gradientUnits="userSpaceOnUse">
<stop stop-color="#362CAC" stop-opacity="0"/>
<stop offset="1" stop-color="#362CAC"/>
</linearGradient>
<linearGradient id="paint49_linear_306_4304" x1="153.5" y1="226" x2="153.5" y2="346" gradientUnits="userSpaceOnUse">
<stop stop-color="#362CAC" stop-opacity="0"/>
<stop offset="1" stop-color="#362CAC"/>
</linearGradient>
<linearGradient id="paint50_linear_306_4304" x1="153.5" y1="226" x2="153.5" y2="346" gradientUnits="userSpaceOnUse">
<stop stop-color="#362CAC" stop-opacity="0"/>
<stop offset="1" stop-color="#362CAC"/>
</linearGradient>
<linearGradient id="paint51_linear_306_4304" x1="153.5" y1="226" x2="153.5" y2="346" gradientUnits="userSpaceOnUse">
<stop stop-color="#362CAC" stop-opacity="0"/>
<stop offset="1" stop-color="#362CAC"/>
</linearGradient>
<linearGradient id="paint52_linear_306_4304" x1="153.5" y1="226" x2="153.5" y2="346" gradientUnits="userSpaceOnUse">
<stop stop-color="#362CAC" stop-opacity="0"/>
<stop offset="1" stop-color="#362CAC"/>
</linearGradient>
</defs>
</svg>
