<svg width="358" height="95" viewBox="0 0 358 95" fill="none" xmlns="http://www.w3.org/2000/svg">
<path d="M44.4148 35.6875C44.2557 34.1989 43.5852 33.0398 42.4034 32.2102C41.233 31.3807 39.7102 30.9659 37.8352 30.9659C36.517 30.9659 35.3864 31.1648 34.4432 31.5625C33.5 31.9602 32.7784 32.5 32.2784 33.1818C31.7784 33.8636 31.5227 34.642 31.5114 35.517C31.5114 36.2443 31.6761 36.875 32.0057 37.4091C32.3466 37.9432 32.8068 38.3977 33.3864 38.7727C33.9659 39.1364 34.608 39.4432 35.3125 39.6932C36.017 39.9432 36.7273 40.1534 37.4432 40.3239L40.7159 41.142C42.0341 41.4489 43.3011 41.8636 44.517 42.3864C45.7443 42.9091 46.8409 43.5682 47.8068 44.3636C48.7841 45.1591 49.5568 46.1193 50.125 47.2443C50.6932 48.3693 50.9773 49.6875 50.9773 51.1989C50.9773 53.2443 50.4545 55.0455 49.4091 56.6023C48.3636 58.1477 46.8523 59.358 44.875 60.233C42.9091 61.0966 40.5284 61.5284 37.733 61.5284C35.017 61.5284 32.6591 61.108 30.6591 60.267C28.6705 59.4261 27.1136 58.1989 25.9886 56.5852C24.875 54.9716 24.2727 53.0057 24.1818 50.6875H30.4034C30.4943 51.9034 30.8693 52.9148 31.5284 53.7216C32.1875 54.5284 33.0455 55.1307 34.1023 55.5284C35.1705 55.9261 36.3636 56.125 37.6818 56.125C39.0568 56.125 40.2614 55.9205 41.2955 55.5114C42.3409 55.0909 43.1591 54.5114 43.75 53.7727C44.3409 53.0227 44.642 52.1477 44.6534 51.1477C44.642 50.2386 44.375 49.4886 43.8523 48.8977C43.3295 48.2955 42.5966 47.7955 41.6534 47.3977C40.7216 46.9886 39.6307 46.625 38.3807 46.3068L34.4091 45.2841C31.5341 44.5455 29.2614 43.4261 27.5909 41.9261C25.9318 40.4148 25.1023 38.4091 25.1023 35.9091C25.1023 33.8523 25.6591 32.0511 26.7727 30.5057C27.8977 28.9602 29.4261 27.7614 31.358 26.9091C33.2898 26.0455 35.4773 25.6136 37.9205 25.6136C40.3977 25.6136 42.5682 26.0455 44.4318 26.9091C46.3068 27.7614 47.7784 28.9489 48.8466 30.4716C49.9148 31.983 50.4659 33.7216 50.5 35.6875H44.4148ZM70.3762 34.8182V39.5909H55.3251V34.8182H70.3762ZM59.041 28.5455H65.2114V53.125C65.2114 53.9545 65.3364 54.5909 65.5864 55.0341C65.8478 55.4659 66.1887 55.7614 66.6091 55.9205C67.0296 56.0795 67.4955 56.1591 68.0069 56.1591C68.3932 56.1591 68.7455 56.1307 69.0637 56.0739C69.3932 56.017 69.6432 55.9659 69.8137 55.9205L70.8535 60.7443C70.5239 60.858 70.0523 60.983 69.4387 61.1193C68.8364 61.2557 68.0978 61.3352 67.2228 61.358C65.6773 61.4034 64.2853 61.1705 63.0466 60.6591C61.808 60.1364 60.8251 59.3295 60.0978 58.2386C59.3819 57.1477 59.0296 55.7841 59.041 54.1477V28.5455ZM84.0308 61.5284C82.3717 61.5284 80.8774 61.233 79.5478 60.642C78.2297 60.0398 77.1842 59.1534 76.4115 57.983C75.6501 56.8125 75.2694 55.3693 75.2694 53.6534C75.2694 52.1761 75.5422 50.9545 76.0876 49.9886C76.6331 49.0227 77.3774 48.25 78.3206 47.6705C79.2637 47.0909 80.3262 46.6534 81.5081 46.358C82.7012 46.0511 83.9342 45.8295 85.2069 45.6932C86.741 45.5341 87.9853 45.392 88.9399 45.267C89.8944 45.1307 90.5876 44.9261 91.0194 44.6534C91.4626 44.3693 91.6842 43.9318 91.6842 43.3409V43.2386C91.6842 41.9545 91.3035 40.9602 90.5422 40.2557C89.7808 39.5511 88.6842 39.1989 87.2524 39.1989C85.741 39.1989 84.5422 39.5284 83.6558 40.1875C82.7808 40.8466 82.1899 41.625 81.8831 42.5227L76.1217 41.7045C76.5762 40.1136 77.3262 38.7841 78.3717 37.7159C79.4172 36.6364 80.6956 35.8295 82.2069 35.2955C83.7183 34.75 85.3887 34.4773 87.2183 34.4773C88.4797 34.4773 89.7353 34.625 90.9853 34.9205C92.2353 35.2159 93.3774 35.7045 94.4115 36.3864C95.4456 37.0568 96.2751 37.9716 96.9001 39.1307C97.5365 40.2898 97.8547 41.7386 97.8547 43.4773V61H91.9228V57.4034H91.7183C91.3433 58.1307 90.8149 58.8125 90.1331 59.4489C89.4626 60.0739 88.616 60.5795 87.5933 60.9659C86.5819 61.3409 85.3944 61.5284 84.0308 61.5284ZM85.6331 56.9943C86.8717 56.9943 87.9456 56.75 88.8547 56.2614C89.7637 55.7614 90.4626 55.1023 90.9512 54.2841C91.4512 53.4659 91.7012 52.5739 91.7012 51.608V48.5227C91.5081 48.6818 91.1785 48.8295 90.7126 48.9659C90.2581 49.1023 89.7467 49.2216 89.1785 49.3239C88.6103 49.4261 88.0478 49.517 87.491 49.5966C86.9342 49.6761 86.4512 49.7443 86.0422 49.8011C85.1217 49.9261 84.2978 50.1307 83.5706 50.4148C82.8433 50.6989 82.2694 51.0966 81.849 51.608C81.4285 52.108 81.2183 52.7557 81.2183 53.5511C81.2183 54.6875 81.6331 55.5455 82.4626 56.125C83.2922 56.7045 84.349 56.9943 85.6331 56.9943ZM107.917 70.8182C107.076 70.8182 106.298 70.75 105.582 70.6136C104.877 70.4886 104.315 70.3409 103.894 70.1705L105.326 65.3636C106.224 65.625 107.025 65.75 107.729 65.7386C108.434 65.7273 109.053 65.5057 109.587 65.0739C110.133 64.6534 110.593 63.9489 110.968 62.9602L111.496 61.5455L102.002 34.8182H108.548L114.582 54.5909H114.854L120.906 34.8182H127.468L116.985 64.1705C116.496 65.5568 115.849 66.7443 115.042 67.733C114.235 68.733 113.246 69.4943 112.076 70.017C110.917 70.5511 109.531 70.8182 107.917 70.8182ZM145.564 61V34.8182H151.735V61H145.564ZM148.666 31.1023C147.689 31.1023 146.848 30.7784 146.144 30.1307C145.439 29.4716 145.087 28.6818 145.087 27.7614C145.087 26.8295 145.439 26.0398 146.144 25.392C146.848 24.733 147.689 24.4034 148.666 24.4034C149.655 24.4034 150.496 24.733 151.189 25.392C151.894 26.0398 152.246 26.8295 152.246 27.7614C152.246 28.6818 151.894 29.4716 151.189 30.1307C150.496 30.7784 149.655 31.1023 148.666 31.1023ZM165.21 45.6591V61H159.04V34.8182H164.938V39.267H165.244C165.847 37.8011 166.807 36.6364 168.125 35.7727C169.455 34.9091 171.097 34.4773 173.051 34.4773C174.858 34.4773 176.432 34.8636 177.773 35.6364C179.125 36.4091 180.171 37.5284 180.909 38.9943C181.659 40.4602 182.028 42.2386 182.017 44.3295V61H175.847V45.2841C175.847 43.5341 175.392 42.1648 174.483 41.1761C173.585 40.1875 172.341 39.6932 170.75 39.6932C169.671 39.6932 168.71 39.9318 167.869 40.4091C167.04 40.875 166.386 41.5511 165.909 42.4375C165.443 43.3239 165.21 44.3977 165.21 45.6591ZM215.19 34.8182V39.5909H200.139V34.8182H215.19ZM203.855 28.5455H210.025V53.125C210.025 53.9545 210.15 54.5909 210.4 55.0341C210.662 55.4659 211.002 55.7614 211.423 55.9205C211.843 56.0795 212.309 56.1591 212.821 56.1591C213.207 56.1591 213.559 56.1307 213.877 56.0739C214.207 56.017 214.457 55.9659 214.627 55.9205L215.667 60.7443C215.338 60.858 214.866 60.983 214.252 61.1193C213.65 61.2557 212.912 61.3352 212.037 61.358C210.491 61.4034 209.099 61.1705 207.86 60.6591C206.622 60.1364 205.639 59.3295 204.912 58.2386C204.196 57.1477 203.843 55.7841 203.855 54.1477V28.5455ZM232.45 61.5114C229.893 61.5114 227.677 60.9489 225.802 59.8239C223.927 58.6989 222.472 57.125 221.438 55.1023C220.416 53.0795 219.904 50.7159 219.904 48.0114C219.904 45.3068 220.416 42.9375 221.438 40.9034C222.472 38.8693 223.927 37.2898 225.802 36.1648C227.677 35.0398 229.893 34.4773 232.45 34.4773C235.006 34.4773 237.222 35.0398 239.097 36.1648C240.972 37.2898 242.421 38.8693 243.444 40.9034C244.478 42.9375 244.995 45.3068 244.995 48.0114C244.995 50.7159 244.478 53.0795 243.444 55.1023C242.421 57.125 240.972 58.6989 239.097 59.8239C237.222 60.9489 235.006 61.5114 232.45 61.5114ZM232.484 56.5682C233.87 56.5682 235.029 56.1875 235.961 55.4261C236.893 54.6534 237.586 53.6193 238.041 52.3239C238.506 51.0284 238.739 49.5852 238.739 47.9943C238.739 46.392 238.506 44.9432 238.041 43.6477C237.586 42.3409 236.893 41.3011 235.961 40.5284C235.029 39.7557 233.87 39.3693 232.484 39.3693C231.063 39.3693 229.881 39.7557 228.938 40.5284C228.006 41.3011 227.308 42.3409 226.842 43.6477C226.387 44.9432 226.16 46.392 226.16 47.9943C226.16 49.5852 226.387 51.0284 226.842 52.3239C227.308 53.6193 228.006 54.6534 228.938 55.4261C229.881 56.1875 231.063 56.5682 232.484 56.5682ZM267.88 49.9886V34.8182H274.05V61H268.067V56.3466H267.795C267.204 57.8125 266.232 59.0114 264.88 59.9432C263.539 60.875 261.886 61.3409 259.92 61.3409C258.204 61.3409 256.687 60.9602 255.368 60.1989C254.062 59.4261 253.039 58.3068 252.3 56.8409C251.562 55.3636 251.192 53.5795 251.192 51.4886V34.8182H257.363V50.5341C257.363 52.1932 257.817 53.5114 258.726 54.4886C259.636 55.4659 260.829 55.9545 262.306 55.9545C263.215 55.9545 264.096 55.733 264.948 55.2898C265.8 54.8466 266.499 54.1875 267.045 53.3125C267.601 52.4261 267.88 51.3182 267.88 49.9886ZM292.776 61.5114C290.162 61.5114 287.918 60.9375 286.043 59.7898C284.179 58.642 282.742 57.0568 281.73 55.0341C280.73 53 280.23 50.6591 280.23 48.0114C280.23 45.3523 280.742 43.0057 281.765 40.9716C282.787 38.9261 284.23 37.3352 286.094 36.1989C287.969 35.0511 290.185 34.4773 292.742 34.4773C294.867 34.4773 296.747 34.8693 298.384 35.6534C300.032 36.4261 301.344 37.5227 302.321 38.9432C303.299 40.3523 303.855 42 303.992 43.8864H298.094C297.855 42.625 297.287 41.5739 296.39 40.733C295.503 39.8807 294.316 39.4545 292.827 39.4545C291.566 39.4545 290.458 39.7955 289.503 40.4773C288.549 41.1477 287.804 42.1136 287.27 43.375C286.747 44.6364 286.486 46.1477 286.486 47.9091C286.486 49.6932 286.747 51.2273 287.27 52.5114C287.793 53.7841 288.526 54.767 289.469 55.4602C290.424 56.142 291.543 56.483 292.827 56.483C293.736 56.483 294.549 56.3125 295.265 55.9716C295.992 55.6193 296.6 55.1136 297.088 54.4545C297.577 53.7955 297.912 52.9943 298.094 52.0511H303.992C303.844 53.9034 303.299 55.5455 302.355 56.9773C301.412 58.3977 300.128 59.5114 298.503 60.3182C296.878 61.1136 294.969 61.5114 292.776 61.5114ZM316.189 45.6591V61H310.019V26.0909H316.053V39.267H316.359C316.973 37.7898 317.922 36.625 319.206 35.7727C320.502 34.9091 322.149 34.4773 324.149 34.4773C325.967 34.4773 327.553 34.858 328.905 35.6193C330.257 36.3807 331.303 37.4943 332.041 38.9602C332.791 40.4261 333.166 42.2159 333.166 44.3295V61H326.996V45.2841C326.996 43.5227 326.541 42.1534 325.632 41.1761C324.734 40.1875 323.473 39.6932 321.848 39.6932C320.757 39.6932 319.78 39.9318 318.916 40.4091C318.064 40.875 317.394 41.5511 316.905 42.4375C316.428 43.3239 316.189 44.3977 316.189 45.6591Z" fill="url(#paint0_linear_204_3313)"/>
<g style="mix-blend-mode:plus-lighter" opacity="0.5">
<path d="M44.4148 35.6875C44.2557 34.1989 43.5852 33.0398 42.4034 32.2102C41.233 31.3807 39.7102 30.9659 37.8352 30.9659C36.517 30.9659 35.3864 31.1648 34.4432 31.5625C33.5 31.9602 32.7784 32.5 32.2784 33.1818C31.7784 33.8636 31.5227 34.642 31.5114 35.517C31.5114 36.2443 31.6761 36.875 32.0057 37.4091C32.3466 37.9432 32.8068 38.3977 33.3864 38.7727C33.9659 39.1364 34.608 39.4432 35.3125 39.6932C36.017 39.9432 36.7273 40.1534 37.4432 40.3239L40.7159 41.142C42.0341 41.4489 43.3011 41.8636 44.517 42.3864C45.7443 42.9091 46.8409 43.5682 47.8068 44.3636C48.7841 45.1591 49.5568 46.1193 50.125 47.2443C50.6932 48.3693 50.9773 49.6875 50.9773 51.1989C50.9773 53.2443 50.4545 55.0455 49.4091 56.6023C48.3636 58.1477 46.8523 59.358 44.875 60.233C42.9091 61.0966 40.5284 61.5284 37.733 61.5284C35.017 61.5284 32.6591 61.108 30.6591 60.267C28.6705 59.4261 27.1136 58.1989 25.9886 56.5852C24.875 54.9716 24.2727 53.0057 24.1818 50.6875H30.4034C30.4943 51.9034 30.8693 52.9148 31.5284 53.7216C32.1875 54.5284 33.0455 55.1307 34.1023 55.5284C35.1705 55.9261 36.3636 56.125 37.6818 56.125C39.0568 56.125 40.2614 55.9205 41.2955 55.5114C42.3409 55.0909 43.1591 54.5114 43.75 53.7727C44.3409 53.0227 44.642 52.1477 44.6534 51.1477C44.642 50.2386 44.375 49.4886 43.8523 48.8977C43.3295 48.2955 42.5966 47.7955 41.6534 47.3977C40.7216 46.9886 39.6307 46.625 38.3807 46.3068L34.4091 45.2841C31.5341 44.5455 29.2614 43.4261 27.5909 41.9261C25.9318 40.4148 25.1023 38.4091 25.1023 35.9091C25.1023 33.8523 25.6591 32.0511 26.7727 30.5057C27.8977 28.9602 29.4261 27.7614 31.358 26.9091C33.2898 26.0455 35.4773 25.6136 37.9205 25.6136C40.3977 25.6136 42.5682 26.0455 44.4318 26.9091C46.3068 27.7614 47.7784 28.9489 48.8466 30.4716C49.9148 31.983 50.4659 33.7216 50.5 35.6875H44.4148ZM70.3762 34.8182V39.5909H55.3251V34.8182H70.3762ZM59.041 28.5455H65.2114V53.125C65.2114 53.9545 65.3364 54.5909 65.5864 55.0341C65.8478 55.4659 66.1887 55.7614 66.6091 55.9205C67.0296 56.0795 67.4955 56.1591 68.0069 56.1591C68.3932 56.1591 68.7455 56.1307 69.0637 56.0739C69.3932 56.017 69.6432 55.9659 69.8137 55.9205L70.8535 60.7443C70.5239 60.858 70.0523 60.983 69.4387 61.1193C68.8364 61.2557 68.0978 61.3352 67.2228 61.358C65.6773 61.4034 64.2853 61.1705 63.0466 60.6591C61.808 60.1364 60.8251 59.3295 60.0978 58.2386C59.3819 57.1477 59.0296 55.7841 59.041 54.1477V28.5455ZM84.0308 61.5284C82.3717 61.5284 80.8774 61.233 79.5478 60.642C78.2297 60.0398 77.1842 59.1534 76.4115 57.983C75.6501 56.8125 75.2694 55.3693 75.2694 53.6534C75.2694 52.1761 75.5422 50.9545 76.0876 49.9886C76.6331 49.0227 77.3774 48.25 78.3206 47.6705C79.2637 47.0909 80.3262 46.6534 81.5081 46.358C82.7012 46.0511 83.9342 45.8295 85.2069 45.6932C86.741 45.5341 87.9853 45.392 88.9399 45.267C89.8944 45.1307 90.5876 44.9261 91.0194 44.6534C91.4626 44.3693 91.6842 43.9318 91.6842 43.3409V43.2386C91.6842 41.9545 91.3035 40.9602 90.5422 40.2557C89.7808 39.5511 88.6842 39.1989 87.2524 39.1989C85.741 39.1989 84.5422 39.5284 83.6558 40.1875C82.7808 40.8466 82.1899 41.625 81.8831 42.5227L76.1217 41.7045C76.5762 40.1136 77.3262 38.7841 78.3717 37.7159C79.4172 36.6364 80.6956 35.8295 82.2069 35.2955C83.7183 34.75 85.3887 34.4773 87.2183 34.4773C88.4797 34.4773 89.7353 34.625 90.9853 34.9205C92.2353 35.2159 93.3774 35.7045 94.4115 36.3864C95.4456 37.0568 96.2751 37.9716 96.9001 39.1307C97.5365 40.2898 97.8547 41.7386 97.8547 43.4773V61H91.9228V57.4034H91.7183C91.3433 58.1307 90.8149 58.8125 90.1331 59.4489C89.4626 60.0739 88.616 60.5795 87.5933 60.9659C86.5819 61.3409 85.3944 61.5284 84.0308 61.5284ZM85.6331 56.9943C86.8717 56.9943 87.9456 56.75 88.8547 56.2614C89.7637 55.7614 90.4626 55.1023 90.9512 54.2841C91.4512 53.4659 91.7012 52.5739 91.7012 51.608V48.5227C91.5081 48.6818 91.1785 48.8295 90.7126 48.9659C90.2581 49.1023 89.7467 49.2216 89.1785 49.3239C88.6103 49.4261 88.0478 49.517 87.491 49.5966C86.9342 49.6761 86.4512 49.7443 86.0422 49.8011C85.1217 49.9261 84.2978 50.1307 83.5706 50.4148C82.8433 50.6989 82.2694 51.0966 81.849 51.608C81.4285 52.108 81.2183 52.7557 81.2183 53.5511C81.2183 54.6875 81.6331 55.5455 82.4626 56.125C83.2922 56.7045 84.349 56.9943 85.6331 56.9943ZM107.917 70.8182C107.076 70.8182 106.298 70.75 105.582 70.6136C104.877 70.4886 104.315 70.3409 103.894 70.1705L105.326 65.3636C106.224 65.625 107.025 65.75 107.729 65.7386C108.434 65.7273 109.053 65.5057 109.587 65.0739C110.133 64.6534 110.593 63.9489 110.968 62.9602L111.496 61.5455L102.002 34.8182H108.548L114.582 54.5909H114.854L120.906 34.8182H127.468L116.985 64.1705C116.496 65.5568 115.849 66.7443 115.042 67.733C114.235 68.733 113.246 69.4943 112.076 70.017C110.917 70.5511 109.531 70.8182 107.917 70.8182ZM145.564 61V34.8182H151.735V61H145.564ZM148.666 31.1023C147.689 31.1023 146.848 30.7784 146.144 30.1307C145.439 29.4716 145.087 28.6818 145.087 27.7614C145.087 26.8295 145.439 26.0398 146.144 25.392C146.848 24.733 147.689 24.4034 148.666 24.4034C149.655 24.4034 150.496 24.733 151.189 25.392C151.894 26.0398 152.246 26.8295 152.246 27.7614C152.246 28.6818 151.894 29.4716 151.189 30.1307C150.496 30.7784 149.655 31.1023 148.666 31.1023ZM165.21 45.6591V61H159.04V34.8182H164.938V39.267H165.244C165.847 37.8011 166.807 36.6364 168.125 35.7727C169.455 34.9091 171.097 34.4773 173.051 34.4773C174.858 34.4773 176.432 34.8636 177.773 35.6364C179.125 36.4091 180.171 37.5284 180.909 38.9943C181.659 40.4602 182.028 42.2386 182.017 44.3295V61H175.847V45.2841C175.847 43.5341 175.392 42.1648 174.483 41.1761C173.585 40.1875 172.341 39.6932 170.75 39.6932C169.671 39.6932 168.71 39.9318 167.869 40.4091C167.04 40.875 166.386 41.5511 165.909 42.4375C165.443 43.3239 165.21 44.3977 165.21 45.6591ZM215.19 34.8182V39.5909H200.139V34.8182H215.19ZM203.855 28.5455H210.025V53.125C210.025 53.9545 210.15 54.5909 210.4 55.0341C210.662 55.4659 211.002 55.7614 211.423 55.9205C211.843 56.0795 212.309 56.1591 212.821 56.1591C213.207 56.1591 213.559 56.1307 213.877 56.0739C214.207 56.017 214.457 55.9659 214.627 55.9205L215.667 60.7443C215.338 60.858 214.866 60.983 214.252 61.1193C213.65 61.2557 212.912 61.3352 212.037 61.358C210.491 61.4034 209.099 61.1705 207.86 60.6591C206.622 60.1364 205.639 59.3295 204.912 58.2386C204.196 57.1477 203.843 55.7841 203.855 54.1477V28.5455ZM232.45 61.5114C229.893 61.5114 227.677 60.9489 225.802 59.8239C223.927 58.6989 222.472 57.125 221.438 55.1023C220.416 53.0795 219.904 50.7159 219.904 48.0114C219.904 45.3068 220.416 42.9375 221.438 40.9034C222.472 38.8693 223.927 37.2898 225.802 36.1648C227.677 35.0398 229.893 34.4773 232.45 34.4773C235.006 34.4773 237.222 35.0398 239.097 36.1648C240.972 37.2898 242.421 38.8693 243.444 40.9034C244.478 42.9375 244.995 45.3068 244.995 48.0114C244.995 50.7159 244.478 53.0795 243.444 55.1023C242.421 57.125 240.972 58.6989 239.097 59.8239C237.222 60.9489 235.006 61.5114 232.45 61.5114ZM232.484 56.5682C233.87 56.5682 235.029 56.1875 235.961 55.4261C236.893 54.6534 237.586 53.6193 238.041 52.3239C238.506 51.0284 238.739 49.5852 238.739 47.9943C238.739 46.392 238.506 44.9432 238.041 43.6477C237.586 42.3409 236.893 41.3011 235.961 40.5284C235.029 39.7557 233.87 39.3693 232.484 39.3693C231.063 39.3693 229.881 39.7557 228.938 40.5284C228.006 41.3011 227.308 42.3409 226.842 43.6477C226.387 44.9432 226.16 46.392 226.16 47.9943C226.16 49.5852 226.387 51.0284 226.842 52.3239C227.308 53.6193 228.006 54.6534 228.938 55.4261C229.881 56.1875 231.063 56.5682 232.484 56.5682ZM267.88 49.9886V34.8182H274.05V61H268.067V56.3466H267.795C267.204 57.8125 266.232 59.0114 264.88 59.9432C263.539 60.875 261.886 61.3409 259.92 61.3409C258.204 61.3409 256.687 60.9602 255.368 60.1989C254.062 59.4261 253.039 58.3068 252.3 56.8409C251.562 55.3636 251.192 53.5795 251.192 51.4886V34.8182H257.363V50.5341C257.363 52.1932 257.817 53.5114 258.726 54.4886C259.636 55.4659 260.829 55.9545 262.306 55.9545C263.215 55.9545 264.096 55.733 264.948 55.2898C265.8 54.8466 266.499 54.1875 267.045 53.3125C267.601 52.4261 267.88 51.3182 267.88 49.9886ZM292.776 61.5114C290.162 61.5114 287.918 60.9375 286.043 59.7898C284.179 58.642 282.742 57.0568 281.73 55.0341C280.73 53 280.23 50.6591 280.23 48.0114C280.23 45.3523 280.742 43.0057 281.765 40.9716C282.787 38.9261 284.23 37.3352 286.094 36.1989C287.969 35.0511 290.185 34.4773 292.742 34.4773C294.867 34.4773 296.747 34.8693 298.384 35.6534C300.032 36.4261 301.344 37.5227 302.321 38.9432C303.299 40.3523 303.855 42 303.992 43.8864H298.094C297.855 42.625 297.287 41.5739 296.39 40.733C295.503 39.8807 294.316 39.4545 292.827 39.4545C291.566 39.4545 290.458 39.7955 289.503 40.4773C288.549 41.1477 287.804 42.1136 287.27 43.375C286.747 44.6364 286.486 46.1477 286.486 47.9091C286.486 49.6932 286.747 51.2273 287.27 52.5114C287.793 53.7841 288.526 54.767 289.469 55.4602C290.424 56.142 291.543 56.483 292.827 56.483C293.736 56.483 294.549 56.3125 295.265 55.9716C295.992 55.6193 296.6 55.1136 297.088 54.4545C297.577 53.7955 297.912 52.9943 298.094 52.0511H303.992C303.844 53.9034 303.299 55.5455 302.355 56.9773C301.412 58.3977 300.128 59.5114 298.503 60.3182C296.878 61.1136 294.969 61.5114 292.776 61.5114ZM316.189 45.6591V61H310.019V26.0909H316.053V39.267H316.359C316.973 37.7898 317.922 36.625 319.206 35.7727C320.502 34.9091 322.149 34.4773 324.149 34.4773C325.967 34.4773 327.553 34.858 328.905 35.6193C330.257 36.3807 331.303 37.4943 332.041 38.9602C332.791 40.4261 333.166 42.2159 333.166 44.3295V61H326.996V45.2841C326.996 43.5227 326.541 42.1534 325.632 41.1761C324.734 40.1875 323.473 39.6932 321.848 39.6932C320.757 39.6932 319.78 39.9318 318.916 40.4091C318.064 40.875 317.394 41.5511 316.905 42.4375C316.428 43.3239 316.189 44.3977 316.189 45.6591Z" fill="url(#paint1_linear_204_3313)"/>
</g>
<g style="mix-blend-mode:plus-lighter" opacity="0.5" filter="url(#filter0_f_204_3313)">
<path d="M44.4148 35.6875C44.2557 34.1989 43.5852 33.0398 42.4034 32.2102C41.233 31.3807 39.7102 30.9659 37.8352 30.9659C36.517 30.9659 35.3864 31.1648 34.4432 31.5625C33.5 31.9602 32.7784 32.5 32.2784 33.1818C31.7784 33.8636 31.5227 34.642 31.5114 35.517C31.5114 36.2443 31.6761 36.875 32.0057 37.4091C32.3466 37.9432 32.8068 38.3977 33.3864 38.7727C33.9659 39.1364 34.608 39.4432 35.3125 39.6932C36.017 39.9432 36.7273 40.1534 37.4432 40.3239L40.7159 41.142C42.0341 41.4489 43.3011 41.8636 44.517 42.3864C45.7443 42.9091 46.8409 43.5682 47.8068 44.3636C48.7841 45.1591 49.5568 46.1193 50.125 47.2443C50.6932 48.3693 50.9773 49.6875 50.9773 51.1989C50.9773 53.2443 50.4545 55.0455 49.4091 56.6023C48.3636 58.1477 46.8523 59.358 44.875 60.233C42.9091 61.0966 40.5284 61.5284 37.733 61.5284C35.017 61.5284 32.6591 61.108 30.6591 60.267C28.6705 59.4261 27.1136 58.1989 25.9886 56.5852C24.875 54.9716 24.2727 53.0057 24.1818 50.6875H30.4034C30.4943 51.9034 30.8693 52.9148 31.5284 53.7216C32.1875 54.5284 33.0455 55.1307 34.1023 55.5284C35.1705 55.9261 36.3636 56.125 37.6818 56.125C39.0568 56.125 40.2614 55.9205 41.2955 55.5114C42.3409 55.0909 43.1591 54.5114 43.75 53.7727C44.3409 53.0227 44.642 52.1477 44.6534 51.1477C44.642 50.2386 44.375 49.4886 43.8523 48.8977C43.3295 48.2955 42.5966 47.7955 41.6534 47.3977C40.7216 46.9886 39.6307 46.625 38.3807 46.3068L34.4091 45.2841C31.5341 44.5455 29.2614 43.4261 27.5909 41.9261C25.9318 40.4148 25.1023 38.4091 25.1023 35.9091C25.1023 33.8523 25.6591 32.0511 26.7727 30.5057C27.8977 28.9602 29.4261 27.7614 31.358 26.9091C33.2898 26.0455 35.4773 25.6136 37.9205 25.6136C40.3977 25.6136 42.5682 26.0455 44.4318 26.9091C46.3068 27.7614 47.7784 28.9489 48.8466 30.4716C49.9148 31.983 50.4659 33.7216 50.5 35.6875H44.4148ZM70.3762 34.8182V39.5909H55.3251V34.8182H70.3762ZM59.041 28.5455H65.2114V53.125C65.2114 53.9545 65.3364 54.5909 65.5864 55.0341C65.8478 55.4659 66.1887 55.7614 66.6091 55.9205C67.0296 56.0795 67.4955 56.1591 68.0069 56.1591C68.3932 56.1591 68.7455 56.1307 69.0637 56.0739C69.3932 56.017 69.6432 55.9659 69.8137 55.9205L70.8535 60.7443C70.5239 60.858 70.0523 60.983 69.4387 61.1193C68.8364 61.2557 68.0978 61.3352 67.2228 61.358C65.6773 61.4034 64.2853 61.1705 63.0466 60.6591C61.808 60.1364 60.8251 59.3295 60.0978 58.2386C59.3819 57.1477 59.0296 55.7841 59.041 54.1477V28.5455ZM84.0308 61.5284C82.3717 61.5284 80.8774 61.233 79.5478 60.642C78.2297 60.0398 77.1842 59.1534 76.4115 57.983C75.6501 56.8125 75.2694 55.3693 75.2694 53.6534C75.2694 52.1761 75.5422 50.9545 76.0876 49.9886C76.6331 49.0227 77.3774 48.25 78.3206 47.6705C79.2637 47.0909 80.3262 46.6534 81.5081 46.358C82.7012 46.0511 83.9342 45.8295 85.2069 45.6932C86.741 45.5341 87.9853 45.392 88.9399 45.267C89.8944 45.1307 90.5876 44.9261 91.0194 44.6534C91.4626 44.3693 91.6842 43.9318 91.6842 43.3409V43.2386C91.6842 41.9545 91.3035 40.9602 90.5422 40.2557C89.7808 39.5511 88.6842 39.1989 87.2524 39.1989C85.741 39.1989 84.5422 39.5284 83.6558 40.1875C82.7808 40.8466 82.1899 41.625 81.8831 42.5227L76.1217 41.7045C76.5762 40.1136 77.3262 38.7841 78.3717 37.7159C79.4172 36.6364 80.6956 35.8295 82.2069 35.2955C83.7183 34.75 85.3887 34.4773 87.2183 34.4773C88.4797 34.4773 89.7353 34.625 90.9853 34.9205C92.2353 35.2159 93.3774 35.7045 94.4115 36.3864C95.4456 37.0568 96.2751 37.9716 96.9001 39.1307C97.5365 40.2898 97.8547 41.7386 97.8547 43.4773V61H91.9228V57.4034H91.7183C91.3433 58.1307 90.8149 58.8125 90.1331 59.4489C89.4626 60.0739 88.616 60.5795 87.5933 60.9659C86.5819 61.3409 85.3944 61.5284 84.0308 61.5284ZM85.6331 56.9943C86.8717 56.9943 87.9456 56.75 88.8547 56.2614C89.7637 55.7614 90.4626 55.1023 90.9512 54.2841C91.4512 53.4659 91.7012 52.5739 91.7012 51.608V48.5227C91.5081 48.6818 91.1785 48.8295 90.7126 48.9659C90.2581 49.1023 89.7467 49.2216 89.1785 49.3239C88.6103 49.4261 88.0478 49.517 87.491 49.5966C86.9342 49.6761 86.4512 49.7443 86.0422 49.8011C85.1217 49.9261 84.2978 50.1307 83.5706 50.4148C82.8433 50.6989 82.2694 51.0966 81.849 51.608C81.4285 52.108 81.2183 52.7557 81.2183 53.5511C81.2183 54.6875 81.6331 55.5455 82.4626 56.125C83.2922 56.7045 84.349 56.9943 85.6331 56.9943ZM107.917 70.8182C107.076 70.8182 106.298 70.75 105.582 70.6136C104.877 70.4886 104.315 70.3409 103.894 70.1705L105.326 65.3636C106.224 65.625 107.025 65.75 107.729 65.7386C108.434 65.7273 109.053 65.5057 109.587 65.0739C110.133 64.6534 110.593 63.9489 110.968 62.9602L111.496 61.5455L102.002 34.8182H108.548L114.582 54.5909H114.854L120.906 34.8182H127.468L116.985 64.1705C116.496 65.5568 115.849 66.7443 115.042 67.733C114.235 68.733 113.246 69.4943 112.076 70.017C110.917 70.5511 109.531 70.8182 107.917 70.8182ZM145.564 61V34.8182H151.735V61H145.564ZM148.666 31.1023C147.689 31.1023 146.848 30.7784 146.144 30.1307C145.439 29.4716 145.087 28.6818 145.087 27.7614C145.087 26.8295 145.439 26.0398 146.144 25.392C146.848 24.733 147.689 24.4034 148.666 24.4034C149.655 24.4034 150.496 24.733 151.189 25.392C151.894 26.0398 152.246 26.8295 152.246 27.7614C152.246 28.6818 151.894 29.4716 151.189 30.1307C150.496 30.7784 149.655 31.1023 148.666 31.1023ZM165.21 45.6591V61H159.04V34.8182H164.938V39.267H165.244C165.847 37.8011 166.807 36.6364 168.125 35.7727C169.455 34.9091 171.097 34.4773 173.051 34.4773C174.858 34.4773 176.432 34.8636 177.773 35.6364C179.125 36.4091 180.171 37.5284 180.909 38.9943C181.659 40.4602 182.028 42.2386 182.017 44.3295V61H175.847V45.2841C175.847 43.5341 175.392 42.1648 174.483 41.1761C173.585 40.1875 172.341 39.6932 170.75 39.6932C169.671 39.6932 168.71 39.9318 167.869 40.4091C167.04 40.875 166.386 41.5511 165.909 42.4375C165.443 43.3239 165.21 44.3977 165.21 45.6591ZM215.19 34.8182V39.5909H200.139V34.8182H215.19ZM203.855 28.5455H210.025V53.125C210.025 53.9545 210.15 54.5909 210.4 55.0341C210.662 55.4659 211.002 55.7614 211.423 55.9205C211.843 56.0795 212.309 56.1591 212.821 56.1591C213.207 56.1591 213.559 56.1307 213.877 56.0739C214.207 56.017 214.457 55.9659 214.627 55.9205L215.667 60.7443C215.338 60.858 214.866 60.983 214.252 61.1193C213.65 61.2557 212.912 61.3352 212.037 61.358C210.491 61.4034 209.099 61.1705 207.86 60.6591C206.622 60.1364 205.639 59.3295 204.912 58.2386C204.196 57.1477 203.843 55.7841 203.855 54.1477V28.5455ZM232.45 61.5114C229.893 61.5114 227.677 60.9489 225.802 59.8239C223.927 58.6989 222.472 57.125 221.438 55.1023C220.416 53.0795 219.904 50.7159 219.904 48.0114C219.904 45.3068 220.416 42.9375 221.438 40.9034C222.472 38.8693 223.927 37.2898 225.802 36.1648C227.677 35.0398 229.893 34.4773 232.45 34.4773C235.006 34.4773 237.222 35.0398 239.097 36.1648C240.972 37.2898 242.421 38.8693 243.444 40.9034C244.478 42.9375 244.995 45.3068 244.995 48.0114C244.995 50.7159 244.478 53.0795 243.444 55.1023C242.421 57.125 240.972 58.6989 239.097 59.8239C237.222 60.9489 235.006 61.5114 232.45 61.5114ZM232.484 56.5682C233.87 56.5682 235.029 56.1875 235.961 55.4261C236.893 54.6534 237.586 53.6193 238.041 52.3239C238.506 51.0284 238.739 49.5852 238.739 47.9943C238.739 46.392 238.506 44.9432 238.041 43.6477C237.586 42.3409 236.893 41.3011 235.961 40.5284C235.029 39.7557 233.87 39.3693 232.484 39.3693C231.063 39.3693 229.881 39.7557 228.938 40.5284C228.006 41.3011 227.308 42.3409 226.842 43.6477C226.387 44.9432 226.16 46.392 226.16 47.9943C226.16 49.5852 226.387 51.0284 226.842 52.3239C227.308 53.6193 228.006 54.6534 228.938 55.4261C229.881 56.1875 231.063 56.5682 232.484 56.5682ZM267.88 49.9886V34.8182H274.05V61H268.067V56.3466H267.795C267.204 57.8125 266.232 59.0114 264.88 59.9432C263.539 60.875 261.886 61.3409 259.92 61.3409C258.204 61.3409 256.687 60.9602 255.368 60.1989C254.062 59.4261 253.039 58.3068 252.3 56.8409C251.562 55.3636 251.192 53.5795 251.192 51.4886V34.8182H257.363V50.5341C257.363 52.1932 257.817 53.5114 258.726 54.4886C259.636 55.4659 260.829 55.9545 262.306 55.9545C263.215 55.9545 264.096 55.733 264.948 55.2898C265.8 54.8466 266.499 54.1875 267.045 53.3125C267.601 52.4261 267.88 51.3182 267.88 49.9886ZM292.776 61.5114C290.162 61.5114 287.918 60.9375 286.043 59.7898C284.179 58.642 282.742 57.0568 281.73 55.0341C280.73 53 280.23 50.6591 280.23 48.0114C280.23 45.3523 280.742 43.0057 281.765 40.9716C282.787 38.9261 284.23 37.3352 286.094 36.1989C287.969 35.0511 290.185 34.4773 292.742 34.4773C294.867 34.4773 296.747 34.8693 298.384 35.6534C300.032 36.4261 301.344 37.5227 302.321 38.9432C303.299 40.3523 303.855 42 303.992 43.8864H298.094C297.855 42.625 297.287 41.5739 296.39 40.733C295.503 39.8807 294.316 39.4545 292.827 39.4545C291.566 39.4545 290.458 39.7955 289.503 40.4773C288.549 41.1477 287.804 42.1136 287.27 43.375C286.747 44.6364 286.486 46.1477 286.486 47.9091C286.486 49.6932 286.747 51.2273 287.27 52.5114C287.793 53.7841 288.526 54.767 289.469 55.4602C290.424 56.142 291.543 56.483 292.827 56.483C293.736 56.483 294.549 56.3125 295.265 55.9716C295.992 55.6193 296.6 55.1136 297.088 54.4545C297.577 53.7955 297.912 52.9943 298.094 52.0511H303.992C303.844 53.9034 303.299 55.5455 302.355 56.9773C301.412 58.3977 300.128 59.5114 298.503 60.3182C296.878 61.1136 294.969 61.5114 292.776 61.5114ZM316.189 45.6591V61H310.019V26.0909H316.053V39.267H316.359C316.973 37.7898 317.922 36.625 319.206 35.7727C320.502 34.9091 322.149 34.4773 324.149 34.4773C325.967 34.4773 327.553 34.858 328.905 35.6193C330.257 36.3807 331.303 37.4943 332.041 38.9602C332.791 40.4261 333.166 42.2159 333.166 44.3295V61H326.996V45.2841C326.996 43.5227 326.541 42.1534 325.632 41.1761C324.734 40.1875 323.473 39.6932 321.848 39.6932C320.757 39.6932 319.78 39.9318 318.916 40.4091C318.064 40.875 317.394 41.5511 316.905 42.4375C316.428 43.3239 316.189 44.3977 316.189 45.6591Z" fill="url(#paint2_linear_204_3313)"/>
</g>
<defs>
<filter id="filter0_f_204_3313" x="0.181641" y="0.40332" width="356.984" height="94.415" filterUnits="userSpaceOnUse" color-interpolation-filters="sRGB">
<feFlood flood-opacity="0" result="BackgroundImageFix"/>
<feBlend mode="normal" in="SourceGraphic" in2="BackgroundImageFix" result="shape"/>
<feGaussianBlur stdDeviation="12" result="effect1_foregroundBlur_204_3313"/>
</filter>
<linearGradient id="paint0_linear_204_3313" x1="22" y1="44" x2="337" y2="44" gradientUnits="userSpaceOnUse">
<stop stop-color="#362CAC"/>
<stop offset="0.5" stop-color="#8880E3"/>
<stop offset="1" stop-color="#362CAC"/>
</linearGradient>
<linearGradient id="paint1_linear_204_3313" x1="22" y1="44" x2="337" y2="44" gradientUnits="userSpaceOnUse">
<stop stop-color="#362CAC"/>
<stop offset="0.5" stop-color="#8880E3"/>
<stop offset="1" stop-color="#362CAC"/>
</linearGradient>
<linearGradient id="paint2_linear_204_3313" x1="22" y1="44" x2="337" y2="44" gradientUnits="userSpaceOnUse">
<stop stop-color="#362CAC"/>
<stop offset="0.5" stop-color="#8880E3"/>
<stop offset="1" stop-color="#362CAC"/>
</linearGradient>
</defs>
</svg>
