<svg width="138" height="149" viewBox="0 0 138 149" fill="none" xmlns="http://www.w3.org/2000/svg">
<path d="M105.204 111.384L43.6088 32.0361H32V87.202H41.2859V43.8281L97.9177 117C100.472 115.286 102.908 113.411 105.204 111.384Z" fill="url(#paint0_linear_201_583)"/>
<path d="M105.204 111.384L43.6088 32.0361H32V87.202H41.2859V43.8281L97.9177 117C100.472 115.286 102.908 113.411 105.204 111.384Z" fill="url(#paint1_linear_201_583)"/>
<path d="M87.9575 32.0361H78.7578V87.2236H87.9575V32.0361Z" fill="url(#paint2_linear_201_583)"/>
<g style="mix-blend-mode:plus-lighter" opacity="0.1" filter="url(#filter0_f_201_583)">
<path d="M105.204 111.384L43.6088 32.0361H32V87.202H41.2859V43.8281L97.9177 117C100.472 115.286 102.908 113.411 105.204 111.384Z" fill="url(#paint3_linear_201_583)"/>
<path d="M105.204 111.384L43.6088 32.0361H32V87.202H41.2859V43.8281L97.9177 117C100.472 115.286 102.908 113.411 105.204 111.384Z" fill="url(#paint4_linear_201_583)"/>
<path d="M87.9575 32.0361H78.7578V87.2236H87.9575V32.0361Z" fill="url(#paint5_linear_201_583)"/>
</g>
<g style="mix-blend-mode:plus-lighter" opacity="0.2" filter="url(#filter1_f_201_583)">
<path d="M105.204 111.384L43.6088 32.0361H32V87.202H41.2859V43.8281L97.9177 117C100.472 115.286 102.908 113.411 105.204 111.384Z" fill="url(#paint6_linear_201_583)"/>
<path d="M105.204 111.384L43.6088 32.0361H32V87.202H41.2859V43.8281L97.9177 117C100.472 115.286 102.908 113.411 105.204 111.384Z" fill="url(#paint7_linear_201_583)"/>
<path d="M87.9575 32.0361H78.7578V87.2236H87.9575V32.0361Z" fill="url(#paint8_linear_201_583)"/>
</g>
<defs>
<filter id="filter0_f_201_583" x="16" y="16.0361" width="105.205" height="116.964" filterUnits="userSpaceOnUse" color-interpolation-filters="sRGB">
<feFlood flood-opacity="0" result="BackgroundImageFix"/>
<feBlend mode="normal" in="SourceGraphic" in2="BackgroundImageFix" result="shape"/>
<feGaussianBlur stdDeviation="8" result="effect1_foregroundBlur_201_583"/>
</filter>
<filter id="filter1_f_201_583" x="0" y="0.0361328" width="137.205" height="148.964" filterUnits="userSpaceOnUse" color-interpolation-filters="sRGB">
<feFlood flood-opacity="0" result="BackgroundImageFix"/>
<feBlend mode="normal" in="SourceGraphic" in2="BackgroundImageFix" result="shape"/>
<feGaussianBlur stdDeviation="16" result="effect1_foregroundBlur_201_583"/>
</filter>
<linearGradient id="paint0_linear_201_583" x1="55" y1="80.5" x2="86.8393" y2="115.039" gradientUnits="userSpaceOnUse">
<stop stop-color="#8880E3"/>
<stop offset="1" stop-color="#8880E3" stop-opacity="0"/>
</linearGradient>
<linearGradient id="paint1_linear_201_583" x1="18" y1="32" x2="92.7916" y2="109.021" gradientUnits="userSpaceOnUse">
<stop stop-color="#8880E3"/>
<stop offset="0.462121" stop-color="#CED7FF"/>
<stop offset="0.650851" stop-color="#8880E3"/>
<stop offset="0.75" stop-color="#8880E3" stop-opacity="0.25"/>
<stop offset="1" stop-color="#8880E3" stop-opacity="0"/>
</linearGradient>
<linearGradient id="paint2_linear_201_583" x1="83.3511" y1="32.0206" x2="83.1856" y2="72.5496" gradientUnits="userSpaceOnUse">
<stop stop-color="#8880E3"/>
<stop offset="1" stop-color="#CED7FF" stop-opacity="0"/>
</linearGradient>
<linearGradient id="paint3_linear_201_583" x1="55" y1="80.5" x2="86.8393" y2="115.039" gradientUnits="userSpaceOnUse">
<stop stop-color="#8880E3"/>
<stop offset="1" stop-color="#8880E3" stop-opacity="0"/>
</linearGradient>
<linearGradient id="paint4_linear_201_583" x1="18" y1="32" x2="92.7916" y2="109.021" gradientUnits="userSpaceOnUse">
<stop stop-color="#8880E3"/>
<stop offset="0.462121" stop-color="#CED7FF"/>
<stop offset="0.650851" stop-color="#8880E3"/>
<stop offset="0.75" stop-color="#8880E3" stop-opacity="0.25"/>
<stop offset="1" stop-color="#8880E3" stop-opacity="0"/>
</linearGradient>
<linearGradient id="paint5_linear_201_583" x1="83.3511" y1="32.0206" x2="83.1856" y2="72.5496" gradientUnits="userSpaceOnUse">
<stop stop-color="#8880E3"/>
<stop offset="1" stop-color="#CED7FF" stop-opacity="0"/>
</linearGradient>
<linearGradient id="paint6_linear_201_583" x1="55" y1="80.5" x2="86.8393" y2="115.039" gradientUnits="userSpaceOnUse">
<stop stop-color="#8880E3"/>
<stop offset="1" stop-color="#8880E3" stop-opacity="0"/>
</linearGradient>
<linearGradient id="paint7_linear_201_583" x1="18" y1="32" x2="92.7916" y2="109.021" gradientUnits="userSpaceOnUse">
<stop stop-color="#8880E3"/>
<stop offset="0.462121" stop-color="#CED7FF"/>
<stop offset="0.650851" stop-color="#8880E3"/>
<stop offset="0.75" stop-color="#8880E3" stop-opacity="0.25"/>
<stop offset="1" stop-color="#8880E3" stop-opacity="0"/>
</linearGradient>
<linearGradient id="paint8_linear_201_583" x1="83.3511" y1="32.0206" x2="83.1856" y2="72.5496" gradientUnits="userSpaceOnUse">
<stop stop-color="#8880E3"/>
<stop offset="1" stop-color="#CED7FF" stop-opacity="0"/>
</linearGradient>
</defs>
</svg>
