<svg width="168" height="67" viewBox="0 0 168 67" fill="none" xmlns="http://www.w3.org/2000/svg">
<path d="M27.9631 42H24.5881L30.733 24.5455H34.6364L40.7898 42H37.4148L32.7528 28.125H32.6165L27.9631 42ZM28.0739 35.1562H37.2784V37.696H28.0739V35.1562ZM48.4376 24.5455V42H45.3524V24.5455H48.4376ZM57.0955 24.5455V42H54.0102V24.5455H57.0955ZM71.1575 42V24.5455H77.703C79.0439 24.5455 80.1689 24.7955 81.078 25.2955C81.9928 25.7955 82.6831 26.483 83.149 27.358C83.6206 28.2273 83.8564 29.2159 83.8564 30.3239C83.8564 31.4432 83.6206 32.4375 83.149 33.3068C82.6774 34.1761 81.9814 34.8608 81.0609 35.3608C80.1405 35.8551 79.007 36.1023 77.6604 36.1023H73.3223V33.5028H77.2342C78.0183 33.5028 78.6604 33.3665 79.1604 33.0938C79.6604 32.821 80.0297 32.446 80.2683 31.9688C80.5126 31.4915 80.6348 30.9432 80.6348 30.3239C80.6348 29.7045 80.5126 29.1591 80.2683 28.6875C80.0297 28.2159 79.6575 27.8494 79.1518 27.5881C78.6518 27.321 78.007 27.1875 77.2172 27.1875H74.3195V42H71.1575ZM94.3892 42.2557C93.1108 42.2557 92.0028 41.9744 91.0653 41.4119C90.1278 40.8494 89.4006 40.0625 88.8835 39.0511C88.3722 38.0398 88.1165 36.858 88.1165 35.5057C88.1165 34.1534 88.3722 32.9687 88.8835 31.9517C89.4006 30.9347 90.1278 30.1449 91.0653 29.5824C92.0028 29.0199 93.1108 28.7386 94.3892 28.7386C95.6676 28.7386 96.7756 29.0199 97.7131 29.5824C98.6506 30.1449 99.375 30.9347 99.8864 31.9517C100.403 32.9687 100.662 34.1534 100.662 35.5057C100.662 36.858 100.403 38.0398 99.8864 39.0511C99.375 40.0625 98.6506 40.8494 97.7131 41.4119C96.7756 41.9744 95.6676 42.2557 94.3892 42.2557ZM94.4062 39.7841C95.0994 39.7841 95.679 39.5937 96.1449 39.2131C96.6108 38.8267 96.9574 38.3097 97.1847 37.6619C97.4176 37.0142 97.5341 36.2926 97.5341 35.4972C97.5341 34.696 97.4176 33.9716 97.1847 33.3239C96.9574 32.6705 96.6108 32.1506 96.1449 31.7642C95.679 31.3778 95.0994 31.1847 94.4062 31.1847C93.696 31.1847 93.1051 31.3778 92.6335 31.7642C92.1676 32.1506 91.8182 32.6705 91.5852 33.3239C91.358 33.9716 91.2443 34.696 91.2443 35.4972C91.2443 36.2926 91.358 37.0142 91.5852 37.6619C91.8182 38.3097 92.1676 38.8267 92.6335 39.2131C93.1051 39.5937 93.696 39.7841 94.4062 39.7841ZM116.027 32.3693L113.215 32.6761C113.135 32.392 112.996 32.125 112.797 31.875C112.604 31.625 112.342 31.4233 112.013 31.2699C111.683 31.1165 111.28 31.0398 110.803 31.0398C110.161 31.0398 109.621 31.179 109.183 31.4574C108.752 31.7358 108.538 32.0966 108.544 32.5398C108.538 32.9205 108.678 33.2301 108.962 33.4688C109.252 33.7074 109.729 33.9034 110.394 34.0568L112.627 34.5341C113.865 34.8011 114.786 35.2244 115.388 35.804C115.996 36.3835 116.303 37.142 116.308 38.0795C116.303 38.9034 116.061 39.6307 115.584 40.2614C115.112 40.8864 114.456 41.375 113.615 41.7273C112.774 42.0795 111.808 42.2557 110.717 42.2557C109.115 42.2557 107.825 41.9205 106.848 41.25C105.871 40.5739 105.288 39.6335 105.101 38.429L108.11 38.1392C108.246 38.7301 108.536 39.1761 108.979 39.4773C109.422 39.7784 109.999 39.929 110.709 39.929C111.442 39.929 112.03 39.7784 112.473 39.4773C112.922 39.1761 113.146 38.804 113.146 38.3608C113.146 37.9858 113.002 37.6761 112.712 37.4318C112.428 37.1875 111.985 37 111.382 36.8693L109.149 36.4006C107.894 36.1392 106.965 35.6989 106.362 35.0795C105.76 34.4545 105.462 33.6648 105.467 32.7102C105.462 31.9034 105.681 31.2045 106.124 30.6136C106.573 30.017 107.195 29.5568 107.99 29.233C108.791 28.9034 109.715 28.7386 110.76 28.7386C112.294 28.7386 113.502 29.0653 114.382 29.7188C115.269 30.3722 115.817 31.2557 116.027 32.3693ZM127.789 28.9091V31.2955H120.264V28.9091H127.789ZM122.122 25.7727H125.207V38.0625C125.207 38.4773 125.269 38.7955 125.394 39.017C125.525 39.233 125.696 39.3807 125.906 39.4602C126.116 39.5398 126.349 39.5795 126.605 39.5795C126.798 39.5795 126.974 39.5653 127.133 39.5369C127.298 39.5085 127.423 39.483 127.508 39.4602L128.028 41.8722C127.863 41.929 127.627 41.9915 127.321 42.0597C127.019 42.1278 126.65 42.1676 126.213 42.179C125.44 42.2017 124.744 42.0852 124.125 41.8295C123.505 41.5682 123.014 41.1648 122.65 40.6193C122.292 40.0739 122.116 39.392 122.122 38.5739V25.7727ZM142.929 32.3693L140.116 32.6761C140.037 32.392 139.897 32.125 139.699 31.875C139.505 31.625 139.244 31.4233 138.914 31.2699C138.585 31.1165 138.182 31.0398 137.704 31.0398C137.062 31.0398 136.522 31.179 136.085 31.4574C135.653 31.7358 135.44 32.0966 135.446 32.5398C135.44 32.9205 135.579 33.2301 135.863 33.4688C136.153 33.7074 136.63 33.9034 137.295 34.0568L139.528 34.5341C140.767 34.8011 141.687 35.2244 142.289 35.804C142.897 36.3835 143.204 37.142 143.21 38.0795C143.204 38.9034 142.963 39.6307 142.486 40.2614C142.014 40.8864 141.358 41.375 140.517 41.7273C139.676 42.0795 138.71 42.2557 137.619 42.2557C136.017 42.2557 134.727 41.9205 133.75 41.25C132.772 40.5739 132.19 39.6335 132.003 38.429L135.011 38.1392C135.147 38.7301 135.437 39.1761 135.88 39.4773C136.324 39.7784 136.9 39.929 137.611 39.929C138.343 39.929 138.932 39.7784 139.375 39.4773C139.824 39.1761 140.048 38.804 140.048 38.3608C140.048 37.9858 139.903 37.6761 139.613 37.4318C139.329 37.1875 138.886 37 138.284 36.8693L136.051 36.4006C134.795 36.1392 133.866 35.6989 133.264 35.0795C132.662 34.4545 132.363 33.6648 132.369 32.7102C132.363 31.9034 132.582 31.2045 133.025 30.6136C133.474 30.017 134.096 29.5568 134.892 29.233C135.693 28.9034 136.616 28.7386 137.662 28.7386C139.196 28.7386 140.403 29.0653 141.284 29.7188C142.17 30.3722 142.718 31.2557 142.929 32.3693Z" fill="url(#paint0_linear_297_3853)"/>
<g style="mix-blend-mode:plus-lighter" opacity="0.5">
<path d="M27.9631 42H24.5881L30.733 24.5455H34.6364L40.7898 42H37.4148L32.7528 28.125H32.6165L27.9631 42ZM28.0739 35.1562H37.2784V37.696H28.0739V35.1562ZM48.4376 24.5455V42H45.3524V24.5455H48.4376ZM57.0955 24.5455V42H54.0102V24.5455H57.0955ZM71.1575 42V24.5455H77.703C79.0439 24.5455 80.1689 24.7955 81.078 25.2955C81.9928 25.7955 82.6831 26.483 83.149 27.358C83.6206 28.2273 83.8564 29.2159 83.8564 30.3239C83.8564 31.4432 83.6206 32.4375 83.149 33.3068C82.6774 34.1761 81.9814 34.8608 81.0609 35.3608C80.1405 35.8551 79.007 36.1023 77.6604 36.1023H73.3223V33.5028H77.2342C78.0183 33.5028 78.6604 33.3665 79.1604 33.0938C79.6604 32.821 80.0297 32.446 80.2683 31.9688C80.5126 31.4915 80.6348 30.9432 80.6348 30.3239C80.6348 29.7045 80.5126 29.1591 80.2683 28.6875C80.0297 28.2159 79.6575 27.8494 79.1518 27.5881C78.6518 27.321 78.007 27.1875 77.2172 27.1875H74.3195V42H71.1575ZM94.3892 42.2557C93.1108 42.2557 92.0028 41.9744 91.0653 41.4119C90.1278 40.8494 89.4006 40.0625 88.8835 39.0511C88.3722 38.0398 88.1165 36.858 88.1165 35.5057C88.1165 34.1534 88.3722 32.9687 88.8835 31.9517C89.4006 30.9347 90.1278 30.1449 91.0653 29.5824C92.0028 29.0199 93.1108 28.7386 94.3892 28.7386C95.6676 28.7386 96.7756 29.0199 97.7131 29.5824C98.6506 30.1449 99.375 30.9347 99.8864 31.9517C100.403 32.9687 100.662 34.1534 100.662 35.5057C100.662 36.858 100.403 38.0398 99.8864 39.0511C99.375 40.0625 98.6506 40.8494 97.7131 41.4119C96.7756 41.9744 95.6676 42.2557 94.3892 42.2557ZM94.4062 39.7841C95.0994 39.7841 95.679 39.5937 96.1449 39.2131C96.6108 38.8267 96.9574 38.3097 97.1847 37.6619C97.4176 37.0142 97.5341 36.2926 97.5341 35.4972C97.5341 34.696 97.4176 33.9716 97.1847 33.3239C96.9574 32.6705 96.6108 32.1506 96.1449 31.7642C95.679 31.3778 95.0994 31.1847 94.4062 31.1847C93.696 31.1847 93.1051 31.3778 92.6335 31.7642C92.1676 32.1506 91.8182 32.6705 91.5852 33.3239C91.358 33.9716 91.2443 34.696 91.2443 35.4972C91.2443 36.2926 91.358 37.0142 91.5852 37.6619C91.8182 38.3097 92.1676 38.8267 92.6335 39.2131C93.1051 39.5937 93.696 39.7841 94.4062 39.7841ZM116.027 32.3693L113.215 32.6761C113.135 32.392 112.996 32.125 112.797 31.875C112.604 31.625 112.342 31.4233 112.013 31.2699C111.683 31.1165 111.28 31.0398 110.803 31.0398C110.161 31.0398 109.621 31.179 109.183 31.4574C108.752 31.7358 108.538 32.0966 108.544 32.5398C108.538 32.9205 108.678 33.2301 108.962 33.4688C109.252 33.7074 109.729 33.9034 110.394 34.0568L112.627 34.5341C113.865 34.8011 114.786 35.2244 115.388 35.804C115.996 36.3835 116.303 37.142 116.308 38.0795C116.303 38.9034 116.061 39.6307 115.584 40.2614C115.112 40.8864 114.456 41.375 113.615 41.7273C112.774 42.0795 111.808 42.2557 110.717 42.2557C109.115 42.2557 107.825 41.9205 106.848 41.25C105.871 40.5739 105.288 39.6335 105.101 38.429L108.11 38.1392C108.246 38.7301 108.536 39.1761 108.979 39.4773C109.422 39.7784 109.999 39.929 110.709 39.929C111.442 39.929 112.03 39.7784 112.473 39.4773C112.922 39.1761 113.146 38.804 113.146 38.3608C113.146 37.9858 113.002 37.6761 112.712 37.4318C112.428 37.1875 111.985 37 111.382 36.8693L109.149 36.4006C107.894 36.1392 106.965 35.6989 106.362 35.0795C105.76 34.4545 105.462 33.6648 105.467 32.7102C105.462 31.9034 105.681 31.2045 106.124 30.6136C106.573 30.017 107.195 29.5568 107.99 29.233C108.791 28.9034 109.715 28.7386 110.76 28.7386C112.294 28.7386 113.502 29.0653 114.382 29.7188C115.269 30.3722 115.817 31.2557 116.027 32.3693ZM127.789 28.9091V31.2955H120.264V28.9091H127.789ZM122.122 25.7727H125.207V38.0625C125.207 38.4773 125.269 38.7955 125.394 39.017C125.525 39.233 125.696 39.3807 125.906 39.4602C126.116 39.5398 126.349 39.5795 126.605 39.5795C126.798 39.5795 126.974 39.5653 127.133 39.5369C127.298 39.5085 127.423 39.483 127.508 39.4602L128.028 41.8722C127.863 41.929 127.627 41.9915 127.321 42.0597C127.019 42.1278 126.65 42.1676 126.213 42.179C125.44 42.2017 124.744 42.0852 124.125 41.8295C123.505 41.5682 123.014 41.1648 122.65 40.6193C122.292 40.0739 122.116 39.392 122.122 38.5739V25.7727ZM142.929 32.3693L140.116 32.6761C140.037 32.392 139.897 32.125 139.699 31.875C139.505 31.625 139.244 31.4233 138.914 31.2699C138.585 31.1165 138.182 31.0398 137.704 31.0398C137.062 31.0398 136.522 31.179 136.085 31.4574C135.653 31.7358 135.44 32.0966 135.446 32.5398C135.44 32.9205 135.579 33.2301 135.863 33.4688C136.153 33.7074 136.63 33.9034 137.295 34.0568L139.528 34.5341C140.767 34.8011 141.687 35.2244 142.289 35.804C142.897 36.3835 143.204 37.142 143.21 38.0795C143.204 38.9034 142.963 39.6307 142.486 40.2614C142.014 40.8864 141.358 41.375 140.517 41.7273C139.676 42.0795 138.71 42.2557 137.619 42.2557C136.017 42.2557 134.727 41.9205 133.75 41.25C132.772 40.5739 132.19 39.6335 132.003 38.429L135.011 38.1392C135.147 38.7301 135.437 39.1761 135.88 39.4773C136.324 39.7784 136.9 39.929 137.611 39.929C138.343 39.929 138.932 39.7784 139.375 39.4773C139.824 39.1761 140.048 38.804 140.048 38.3608C140.048 37.9858 139.903 37.6761 139.613 37.4318C139.329 37.1875 138.886 37 138.284 36.8693L136.051 36.4006C134.795 36.1392 133.866 35.6989 133.264 35.0795C132.662 34.4545 132.363 33.6648 132.369 32.7102C132.363 31.9034 132.582 31.2045 133.025 30.6136C133.474 30.017 134.096 29.5568 134.892 29.233C135.693 28.9034 136.616 28.7386 137.662 28.7386C139.196 28.7386 140.403 29.0653 141.284 29.7188C142.17 30.3722 142.718 31.2557 142.929 32.3693Z" fill="url(#paint1_linear_297_3853)"/>
</g>
<g style="mix-blend-mode:plus-lighter" opacity="0.5" filter="url(#filter0_f_297_3853)">
<path d="M27.9631 42H24.5881L30.733 24.5455H34.6364L40.7898 42H37.4148L32.7528 28.125H32.6165L27.9631 42ZM28.0739 35.1562H37.2784V37.696H28.0739V35.1562ZM48.4376 24.5455V42H45.3524V24.5455H48.4376ZM57.0955 24.5455V42H54.0102V24.5455H57.0955ZM71.1575 42V24.5455H77.703C79.0439 24.5455 80.1689 24.7955 81.078 25.2955C81.9928 25.7955 82.6831 26.483 83.149 27.358C83.6206 28.2273 83.8564 29.2159 83.8564 30.3239C83.8564 31.4432 83.6206 32.4375 83.149 33.3068C82.6774 34.1761 81.9814 34.8608 81.0609 35.3608C80.1405 35.8551 79.007 36.1023 77.6604 36.1023H73.3223V33.5028H77.2342C78.0183 33.5028 78.6604 33.3665 79.1604 33.0938C79.6604 32.821 80.0297 32.446 80.2683 31.9688C80.5126 31.4915 80.6348 30.9432 80.6348 30.3239C80.6348 29.7045 80.5126 29.1591 80.2683 28.6875C80.0297 28.2159 79.6575 27.8494 79.1518 27.5881C78.6518 27.321 78.007 27.1875 77.2172 27.1875H74.3195V42H71.1575ZM94.3892 42.2557C93.1108 42.2557 92.0028 41.9744 91.0653 41.4119C90.1278 40.8494 89.4006 40.0625 88.8835 39.0511C88.3722 38.0398 88.1165 36.858 88.1165 35.5057C88.1165 34.1534 88.3722 32.9687 88.8835 31.9517C89.4006 30.9347 90.1278 30.1449 91.0653 29.5824C92.0028 29.0199 93.1108 28.7386 94.3892 28.7386C95.6676 28.7386 96.7756 29.0199 97.7131 29.5824C98.6506 30.1449 99.375 30.9347 99.8864 31.9517C100.403 32.9687 100.662 34.1534 100.662 35.5057C100.662 36.858 100.403 38.0398 99.8864 39.0511C99.375 40.0625 98.6506 40.8494 97.7131 41.4119C96.7756 41.9744 95.6676 42.2557 94.3892 42.2557ZM94.4062 39.7841C95.0994 39.7841 95.679 39.5937 96.1449 39.2131C96.6108 38.8267 96.9574 38.3097 97.1847 37.6619C97.4176 37.0142 97.5341 36.2926 97.5341 35.4972C97.5341 34.696 97.4176 33.9716 97.1847 33.3239C96.9574 32.6705 96.6108 32.1506 96.1449 31.7642C95.679 31.3778 95.0994 31.1847 94.4062 31.1847C93.696 31.1847 93.1051 31.3778 92.6335 31.7642C92.1676 32.1506 91.8182 32.6705 91.5852 33.3239C91.358 33.9716 91.2443 34.696 91.2443 35.4972C91.2443 36.2926 91.358 37.0142 91.5852 37.6619C91.8182 38.3097 92.1676 38.8267 92.6335 39.2131C93.1051 39.5937 93.696 39.7841 94.4062 39.7841ZM116.027 32.3693L113.215 32.6761C113.135 32.392 112.996 32.125 112.797 31.875C112.604 31.625 112.342 31.4233 112.013 31.2699C111.683 31.1165 111.28 31.0398 110.803 31.0398C110.161 31.0398 109.621 31.179 109.183 31.4574C108.752 31.7358 108.538 32.0966 108.544 32.5398C108.538 32.9205 108.678 33.2301 108.962 33.4688C109.252 33.7074 109.729 33.9034 110.394 34.0568L112.627 34.5341C113.865 34.8011 114.786 35.2244 115.388 35.804C115.996 36.3835 116.303 37.142 116.308 38.0795C116.303 38.9034 116.061 39.6307 115.584 40.2614C115.112 40.8864 114.456 41.375 113.615 41.7273C112.774 42.0795 111.808 42.2557 110.717 42.2557C109.115 42.2557 107.825 41.9205 106.848 41.25C105.871 40.5739 105.288 39.6335 105.101 38.429L108.11 38.1392C108.246 38.7301 108.536 39.1761 108.979 39.4773C109.422 39.7784 109.999 39.929 110.709 39.929C111.442 39.929 112.03 39.7784 112.473 39.4773C112.922 39.1761 113.146 38.804 113.146 38.3608C113.146 37.9858 113.002 37.6761 112.712 37.4318C112.428 37.1875 111.985 37 111.382 36.8693L109.149 36.4006C107.894 36.1392 106.965 35.6989 106.362 35.0795C105.76 34.4545 105.462 33.6648 105.467 32.7102C105.462 31.9034 105.681 31.2045 106.124 30.6136C106.573 30.017 107.195 29.5568 107.99 29.233C108.791 28.9034 109.715 28.7386 110.76 28.7386C112.294 28.7386 113.502 29.0653 114.382 29.7188C115.269 30.3722 115.817 31.2557 116.027 32.3693ZM127.789 28.9091V31.2955H120.264V28.9091H127.789ZM122.122 25.7727H125.207V38.0625C125.207 38.4773 125.269 38.7955 125.394 39.017C125.525 39.233 125.696 39.3807 125.906 39.4602C126.116 39.5398 126.349 39.5795 126.605 39.5795C126.798 39.5795 126.974 39.5653 127.133 39.5369C127.298 39.5085 127.423 39.483 127.508 39.4602L128.028 41.8722C127.863 41.929 127.627 41.9915 127.321 42.0597C127.019 42.1278 126.65 42.1676 126.213 42.179C125.44 42.2017 124.744 42.0852 124.125 41.8295C123.505 41.5682 123.014 41.1648 122.65 40.6193C122.292 40.0739 122.116 39.392 122.122 38.5739V25.7727ZM142.929 32.3693L140.116 32.6761C140.037 32.392 139.897 32.125 139.699 31.875C139.505 31.625 139.244 31.4233 138.914 31.2699C138.585 31.1165 138.182 31.0398 137.704 31.0398C137.062 31.0398 136.522 31.179 136.085 31.4574C135.653 31.7358 135.44 32.0966 135.446 32.5398C135.44 32.9205 135.579 33.2301 135.863 33.4688C136.153 33.7074 136.63 33.9034 137.295 34.0568L139.528 34.5341C140.767 34.8011 141.687 35.2244 142.289 35.804C142.897 36.3835 143.204 37.142 143.21 38.0795C143.204 38.9034 142.963 39.6307 142.486 40.2614C142.014 40.8864 141.358 41.375 140.517 41.7273C139.676 42.0795 138.71 42.2557 137.619 42.2557C136.017 42.2557 134.727 41.9205 133.75 41.25C132.772 40.5739 132.19 39.6335 132.003 38.429L135.011 38.1392C135.147 38.7301 135.437 39.1761 135.88 39.4773C136.324 39.7784 136.9 39.929 137.611 39.929C138.343 39.929 138.932 39.7784 139.375 39.4773C139.824 39.1761 140.048 38.804 140.048 38.3608C140.048 37.9858 139.903 37.6761 139.613 37.4318C139.329 37.1875 138.886 37 138.284 36.8693L136.051 36.4006C134.795 36.1392 133.866 35.6989 133.264 35.0795C132.662 34.4545 132.363 33.6648 132.369 32.7102C132.363 31.9034 132.582 31.2045 133.025 30.6136C133.474 30.017 134.096 29.5568 134.892 29.233C135.693 28.9034 136.616 28.7386 137.662 28.7386C139.196 28.7386 140.403 29.0653 141.284 29.7188C142.17 30.3722 142.718 31.2557 142.929 32.3693Z" fill="url(#paint2_linear_297_3853)"/>
</g>
<defs>
<filter id="filter0_f_297_3853" x="0.587891" y="0.54541" width="166.621" height="65.7102" filterUnits="userSpaceOnUse" color-interpolation-filters="sRGB">
<feFlood flood-opacity="0" result="BackgroundImageFix"/>
<feBlend mode="normal" in="SourceGraphic" in2="BackgroundImageFix" result="shape"/>
<feGaussianBlur stdDeviation="12" result="effect1_foregroundBlur_297_3853"/>
</filter>
<linearGradient id="paint0_linear_297_3853" x1="24" y1="32.5" x2="145" y2="32.5" gradientUnits="userSpaceOnUse">
<stop stop-color="#362CAC"/>
<stop offset="0.5" stop-color="#8880E3"/>
<stop offset="1" stop-color="#362CAC"/>
</linearGradient>
<linearGradient id="paint1_linear_297_3853" x1="24" y1="32.5" x2="145" y2="32.5" gradientUnits="userSpaceOnUse">
<stop stop-color="#362CAC"/>
<stop offset="0.5" stop-color="#8880E3"/>
<stop offset="1" stop-color="#362CAC"/>
</linearGradient>
<linearGradient id="paint2_linear_297_3853" x1="24" y1="32.5" x2="145" y2="32.5" gradientUnits="userSpaceOnUse">
<stop stop-color="#362CAC"/>
<stop offset="0.5" stop-color="#8880E3"/>
<stop offset="1" stop-color="#362CAC"/>
</linearGradient>
</defs>
</svg>
