<svg width="286" height="84" viewBox="0 0 286 84" fill="none" xmlns="http://www.w3.org/2000/svg">
<path d="M30.9261 59H24.1761L36.4659 24.0909H44.2727L56.5795 59H49.8295L40.5057 31.25H40.233L30.9261 59ZM31.1477 45.3125H49.5568V50.392H31.1477V45.3125ZM71.8753 24.0909V59H65.7048V24.0909H71.8753ZM89.1909 24.0909V59H83.0205V24.0909H89.1909ZM117.315 59V24.0909H130.406C133.088 24.0909 135.338 24.5909 137.156 25.5909C138.986 26.5909 140.366 27.9659 141.298 29.7159C142.241 31.4545 142.713 33.4318 142.713 35.6477C142.713 37.8864 142.241 39.875 141.298 41.6136C140.355 43.3523 138.963 44.7216 137.122 45.7216C135.281 46.7102 133.014 47.2045 130.321 47.2045H121.645V42.0057H129.468C131.037 42.0057 132.321 41.733 133.321 41.1875C134.321 40.642 135.059 39.892 135.537 38.9375C136.025 37.983 136.27 36.8864 136.27 35.6477C136.27 34.4091 136.025 33.3182 135.537 32.375C135.059 31.4318 134.315 30.6989 133.304 30.1761C132.304 29.642 131.014 29.375 129.434 29.375H123.639V59H117.315ZM163.778 59.5114C161.222 59.5114 159.006 58.9489 157.131 57.8239C155.256 56.6989 153.801 55.125 152.767 53.1023C151.744 51.0795 151.233 48.7159 151.233 46.0114C151.233 43.3068 151.744 40.9375 152.767 38.9034C153.801 36.8693 155.256 35.2898 157.131 34.1648C159.006 33.0398 161.222 32.4773 163.778 32.4773C166.335 32.4773 168.551 33.0398 170.426 34.1648C172.301 35.2898 173.75 36.8693 174.773 38.9034C175.807 40.9375 176.324 43.3068 176.324 46.0114C176.324 48.7159 175.807 51.0795 174.773 53.1023C173.75 55.125 172.301 56.6989 170.426 57.8239C168.551 58.9489 166.335 59.5114 163.778 59.5114ZM163.812 54.5682C165.199 54.5682 166.358 54.1875 167.29 53.4261C168.222 52.6534 168.915 51.6193 169.369 50.3239C169.835 49.0284 170.068 47.5852 170.068 45.9943C170.068 44.392 169.835 42.9432 169.369 41.6477C168.915 40.3409 168.222 39.3011 167.29 38.5284C166.358 37.7557 165.199 37.3693 163.812 37.3693C162.392 37.3693 161.21 37.7557 160.267 38.5284C159.335 39.3011 158.636 40.3409 158.17 41.6477C157.716 42.9432 157.489 44.392 157.489 45.9943C157.489 47.5852 157.716 49.0284 158.17 50.3239C158.636 51.6193 159.335 52.6534 160.267 53.4261C161.21 54.1875 162.392 54.5682 163.812 54.5682ZM207.054 39.7386L201.429 40.3523C201.27 39.7841 200.992 39.25 200.594 38.75C200.208 38.25 199.685 37.8466 199.026 37.5398C198.367 37.233 197.56 37.0795 196.605 37.0795C195.321 37.0795 194.242 37.358 193.367 37.9148C192.503 38.4716 192.077 39.1932 192.088 40.0795C192.077 40.8409 192.355 41.4602 192.924 41.9375C193.503 42.4148 194.458 42.8068 195.787 43.1136L200.253 44.0682C202.73 44.6023 204.571 45.4489 205.776 46.608C206.992 47.767 207.605 49.2841 207.617 51.1591C207.605 52.8068 207.122 54.2614 206.168 55.5227C205.225 56.7727 203.912 57.75 202.23 58.4545C200.549 59.1591 198.617 59.5114 196.435 59.5114C193.23 59.5114 190.651 58.8409 188.696 57.5C186.742 56.1477 185.577 54.267 185.202 51.858L191.219 51.2784C191.492 52.4602 192.071 53.3523 192.958 53.9545C193.844 54.5568 194.997 54.858 196.418 54.858C197.884 54.858 199.06 54.5568 199.946 53.9545C200.844 53.3523 201.293 52.608 201.293 51.7216C201.293 50.9716 201.003 50.3523 200.424 49.8636C199.855 49.375 198.969 49 197.764 48.7386L193.299 47.8011C190.787 47.2784 188.929 46.3977 187.725 45.1591C186.52 43.9091 185.924 42.3295 185.935 40.4205C185.924 38.8068 186.361 37.4091 187.247 36.2273C188.145 35.0341 189.389 34.1136 190.98 33.4659C192.583 32.8068 194.429 32.4773 196.52 32.4773C199.588 32.4773 202.003 33.1307 203.764 34.4375C205.537 35.7443 206.634 37.5114 207.054 39.7386ZM230.579 32.8182V37.5909H215.528V32.8182H230.579ZM219.243 26.5455H225.414V51.125C225.414 51.9545 225.539 52.5909 225.789 53.0341C226.05 53.4659 226.391 53.7614 226.812 53.9205C227.232 54.0795 227.698 54.1591 228.209 54.1591C228.596 54.1591 228.948 54.1307 229.266 54.0739C229.596 54.017 229.846 53.9659 230.016 53.9205L231.056 58.7443C230.726 58.858 230.255 58.983 229.641 59.1193C229.039 59.2557 228.3 59.3352 227.425 59.358C225.88 59.4034 224.488 59.1705 223.249 58.6591C222.011 58.1364 221.028 57.3295 220.3 56.2386C219.584 55.1477 219.232 53.7841 219.243 52.1477V26.5455ZM260.857 39.7386L255.232 40.3523C255.073 39.7841 254.795 39.25 254.397 38.75C254.011 38.25 253.488 37.8466 252.829 37.5398C252.17 37.233 251.363 37.0795 250.409 37.0795C249.124 37.0795 248.045 37.358 247.17 37.9148C246.306 38.4716 245.88 39.1932 245.891 40.0795C245.88 40.8409 246.159 41.4602 246.727 41.9375C247.306 42.4148 248.261 42.8068 249.59 43.1136L254.056 44.0682C256.534 44.6023 258.374 45.4489 259.579 46.608C260.795 47.767 261.409 49.2841 261.42 51.1591C261.409 52.8068 260.926 54.2614 259.971 55.5227C259.028 56.7727 257.715 57.75 256.034 58.4545C254.352 59.1591 252.42 59.5114 250.238 59.5114C247.034 59.5114 244.454 58.8409 242.499 57.5C240.545 56.1477 239.38 54.267 239.005 51.858L245.022 51.2784C245.295 52.4602 245.874 53.3523 246.761 53.9545C247.647 54.5568 248.801 54.858 250.221 54.858C251.687 54.858 252.863 54.5568 253.749 53.9545C254.647 53.3523 255.096 52.608 255.096 51.7216C255.096 50.9716 254.806 50.3523 254.227 49.8636C253.659 49.375 252.772 49 251.568 48.7386L247.102 47.8011C244.59 47.2784 242.732 46.3977 241.528 45.1591C240.323 43.9091 239.727 42.3295 239.738 40.4205C239.727 38.8068 240.164 37.4091 241.051 36.2273C241.948 35.0341 243.193 34.1136 244.784 33.4659C246.386 32.8068 248.232 32.4773 250.323 32.4773C253.391 32.4773 255.806 33.1307 257.568 34.4375C259.34 35.7443 260.437 37.5114 260.857 39.7386Z" fill="url(#paint0_linear_324_5310)"/>
<g style="mix-blend-mode:plus-lighter" opacity="0.5">
<path d="M30.9261 59H24.1761L36.4659 24.0909H44.2727L56.5795 59H49.8295L40.5057 31.25H40.233L30.9261 59ZM31.1477 45.3125H49.5568V50.392H31.1477V45.3125ZM71.8753 24.0909V59H65.7048V24.0909H71.8753ZM89.1909 24.0909V59H83.0205V24.0909H89.1909ZM117.315 59V24.0909H130.406C133.088 24.0909 135.338 24.5909 137.156 25.5909C138.986 26.5909 140.366 27.9659 141.298 29.7159C142.241 31.4545 142.713 33.4318 142.713 35.6477C142.713 37.8864 142.241 39.875 141.298 41.6136C140.355 43.3523 138.963 44.7216 137.122 45.7216C135.281 46.7102 133.014 47.2045 130.321 47.2045H121.645V42.0057H129.468C131.037 42.0057 132.321 41.733 133.321 41.1875C134.321 40.642 135.059 39.892 135.537 38.9375C136.025 37.983 136.27 36.8864 136.27 35.6477C136.27 34.4091 136.025 33.3182 135.537 32.375C135.059 31.4318 134.315 30.6989 133.304 30.1761C132.304 29.642 131.014 29.375 129.434 29.375H123.639V59H117.315ZM163.778 59.5114C161.222 59.5114 159.006 58.9489 157.131 57.8239C155.256 56.6989 153.801 55.125 152.767 53.1023C151.744 51.0795 151.233 48.7159 151.233 46.0114C151.233 43.3068 151.744 40.9375 152.767 38.9034C153.801 36.8693 155.256 35.2898 157.131 34.1648C159.006 33.0398 161.222 32.4773 163.778 32.4773C166.335 32.4773 168.551 33.0398 170.426 34.1648C172.301 35.2898 173.75 36.8693 174.773 38.9034C175.807 40.9375 176.324 43.3068 176.324 46.0114C176.324 48.7159 175.807 51.0795 174.773 53.1023C173.75 55.125 172.301 56.6989 170.426 57.8239C168.551 58.9489 166.335 59.5114 163.778 59.5114ZM163.812 54.5682C165.199 54.5682 166.358 54.1875 167.29 53.4261C168.222 52.6534 168.915 51.6193 169.369 50.3239C169.835 49.0284 170.068 47.5852 170.068 45.9943C170.068 44.392 169.835 42.9432 169.369 41.6477C168.915 40.3409 168.222 39.3011 167.29 38.5284C166.358 37.7557 165.199 37.3693 163.812 37.3693C162.392 37.3693 161.21 37.7557 160.267 38.5284C159.335 39.3011 158.636 40.3409 158.17 41.6477C157.716 42.9432 157.489 44.392 157.489 45.9943C157.489 47.5852 157.716 49.0284 158.17 50.3239C158.636 51.6193 159.335 52.6534 160.267 53.4261C161.21 54.1875 162.392 54.5682 163.812 54.5682ZM207.054 39.7386L201.429 40.3523C201.27 39.7841 200.992 39.25 200.594 38.75C200.208 38.25 199.685 37.8466 199.026 37.5398C198.367 37.233 197.56 37.0795 196.605 37.0795C195.321 37.0795 194.242 37.358 193.367 37.9148C192.503 38.4716 192.077 39.1932 192.088 40.0795C192.077 40.8409 192.355 41.4602 192.924 41.9375C193.503 42.4148 194.458 42.8068 195.787 43.1136L200.253 44.0682C202.73 44.6023 204.571 45.4489 205.776 46.608C206.992 47.767 207.605 49.2841 207.617 51.1591C207.605 52.8068 207.122 54.2614 206.168 55.5227C205.225 56.7727 203.912 57.75 202.23 58.4545C200.549 59.1591 198.617 59.5114 196.435 59.5114C193.23 59.5114 190.651 58.8409 188.696 57.5C186.742 56.1477 185.577 54.267 185.202 51.858L191.219 51.2784C191.492 52.4602 192.071 53.3523 192.958 53.9545C193.844 54.5568 194.997 54.858 196.418 54.858C197.884 54.858 199.06 54.5568 199.946 53.9545C200.844 53.3523 201.293 52.608 201.293 51.7216C201.293 50.9716 201.003 50.3523 200.424 49.8636C199.855 49.375 198.969 49 197.764 48.7386L193.299 47.8011C190.787 47.2784 188.929 46.3977 187.725 45.1591C186.52 43.9091 185.924 42.3295 185.935 40.4205C185.924 38.8068 186.361 37.4091 187.247 36.2273C188.145 35.0341 189.389 34.1136 190.98 33.4659C192.583 32.8068 194.429 32.4773 196.52 32.4773C199.588 32.4773 202.003 33.1307 203.764 34.4375C205.537 35.7443 206.634 37.5114 207.054 39.7386ZM230.579 32.8182V37.5909H215.528V32.8182H230.579ZM219.243 26.5455H225.414V51.125C225.414 51.9545 225.539 52.5909 225.789 53.0341C226.05 53.4659 226.391 53.7614 226.812 53.9205C227.232 54.0795 227.698 54.1591 228.209 54.1591C228.596 54.1591 228.948 54.1307 229.266 54.0739C229.596 54.017 229.846 53.9659 230.016 53.9205L231.056 58.7443C230.726 58.858 230.255 58.983 229.641 59.1193C229.039 59.2557 228.3 59.3352 227.425 59.358C225.88 59.4034 224.488 59.1705 223.249 58.6591C222.011 58.1364 221.028 57.3295 220.3 56.2386C219.584 55.1477 219.232 53.7841 219.243 52.1477V26.5455ZM260.857 39.7386L255.232 40.3523C255.073 39.7841 254.795 39.25 254.397 38.75C254.011 38.25 253.488 37.8466 252.829 37.5398C252.17 37.233 251.363 37.0795 250.409 37.0795C249.124 37.0795 248.045 37.358 247.17 37.9148C246.306 38.4716 245.88 39.1932 245.891 40.0795C245.88 40.8409 246.159 41.4602 246.727 41.9375C247.306 42.4148 248.261 42.8068 249.59 43.1136L254.056 44.0682C256.534 44.6023 258.374 45.4489 259.579 46.608C260.795 47.767 261.409 49.2841 261.42 51.1591C261.409 52.8068 260.926 54.2614 259.971 55.5227C259.028 56.7727 257.715 57.75 256.034 58.4545C254.352 59.1591 252.42 59.5114 250.238 59.5114C247.034 59.5114 244.454 58.8409 242.499 57.5C240.545 56.1477 239.38 54.267 239.005 51.858L245.022 51.2784C245.295 52.4602 245.874 53.3523 246.761 53.9545C247.647 54.5568 248.801 54.858 250.221 54.858C251.687 54.858 252.863 54.5568 253.749 53.9545C254.647 53.3523 255.096 52.608 255.096 51.7216C255.096 50.9716 254.806 50.3523 254.227 49.8636C253.659 49.375 252.772 49 251.568 48.7386L247.102 47.8011C244.59 47.2784 242.732 46.3977 241.528 45.1591C240.323 43.9091 239.727 42.3295 239.738 40.4205C239.727 38.8068 240.164 37.4091 241.051 36.2273C241.948 35.0341 243.193 34.1136 244.784 33.4659C246.386 32.8068 248.232 32.4773 250.323 32.4773C253.391 32.4773 255.806 33.1307 257.568 34.4375C259.34 35.7443 260.437 37.5114 260.857 39.7386Z" fill="url(#paint1_linear_324_5310)"/>
</g>
<g style="mix-blend-mode:plus-lighter" opacity="0.5" filter="url(#filter0_f_324_5310)">
<path d="M30.9261 59H24.1761L36.4659 24.0909H44.2727L56.5795 59H49.8295L40.5057 31.25H40.233L30.9261 59ZM31.1477 45.3125H49.5568V50.392H31.1477V45.3125ZM71.8753 24.0909V59H65.7048V24.0909H71.8753ZM89.1909 24.0909V59H83.0205V24.0909H89.1909ZM117.315 59V24.0909H130.406C133.088 24.0909 135.338 24.5909 137.156 25.5909C138.986 26.5909 140.366 27.9659 141.298 29.7159C142.241 31.4545 142.713 33.4318 142.713 35.6477C142.713 37.8864 142.241 39.875 141.298 41.6136C140.355 43.3523 138.963 44.7216 137.122 45.7216C135.281 46.7102 133.014 47.2045 130.321 47.2045H121.645V42.0057H129.468C131.037 42.0057 132.321 41.733 133.321 41.1875C134.321 40.642 135.059 39.892 135.537 38.9375C136.025 37.983 136.27 36.8864 136.27 35.6477C136.27 34.4091 136.025 33.3182 135.537 32.375C135.059 31.4318 134.315 30.6989 133.304 30.1761C132.304 29.642 131.014 29.375 129.434 29.375H123.639V59H117.315ZM163.778 59.5114C161.222 59.5114 159.006 58.9489 157.131 57.8239C155.256 56.6989 153.801 55.125 152.767 53.1023C151.744 51.0795 151.233 48.7159 151.233 46.0114C151.233 43.3068 151.744 40.9375 152.767 38.9034C153.801 36.8693 155.256 35.2898 157.131 34.1648C159.006 33.0398 161.222 32.4773 163.778 32.4773C166.335 32.4773 168.551 33.0398 170.426 34.1648C172.301 35.2898 173.75 36.8693 174.773 38.9034C175.807 40.9375 176.324 43.3068 176.324 46.0114C176.324 48.7159 175.807 51.0795 174.773 53.1023C173.75 55.125 172.301 56.6989 170.426 57.8239C168.551 58.9489 166.335 59.5114 163.778 59.5114ZM163.812 54.5682C165.199 54.5682 166.358 54.1875 167.29 53.4261C168.222 52.6534 168.915 51.6193 169.369 50.3239C169.835 49.0284 170.068 47.5852 170.068 45.9943C170.068 44.392 169.835 42.9432 169.369 41.6477C168.915 40.3409 168.222 39.3011 167.29 38.5284C166.358 37.7557 165.199 37.3693 163.812 37.3693C162.392 37.3693 161.21 37.7557 160.267 38.5284C159.335 39.3011 158.636 40.3409 158.17 41.6477C157.716 42.9432 157.489 44.392 157.489 45.9943C157.489 47.5852 157.716 49.0284 158.17 50.3239C158.636 51.6193 159.335 52.6534 160.267 53.4261C161.21 54.1875 162.392 54.5682 163.812 54.5682ZM207.054 39.7386L201.429 40.3523C201.27 39.7841 200.992 39.25 200.594 38.75C200.208 38.25 199.685 37.8466 199.026 37.5398C198.367 37.233 197.56 37.0795 196.605 37.0795C195.321 37.0795 194.242 37.358 193.367 37.9148C192.503 38.4716 192.077 39.1932 192.088 40.0795C192.077 40.8409 192.355 41.4602 192.924 41.9375C193.503 42.4148 194.458 42.8068 195.787 43.1136L200.253 44.0682C202.73 44.6023 204.571 45.4489 205.776 46.608C206.992 47.767 207.605 49.2841 207.617 51.1591C207.605 52.8068 207.122 54.2614 206.168 55.5227C205.225 56.7727 203.912 57.75 202.23 58.4545C200.549 59.1591 198.617 59.5114 196.435 59.5114C193.23 59.5114 190.651 58.8409 188.696 57.5C186.742 56.1477 185.577 54.267 185.202 51.858L191.219 51.2784C191.492 52.4602 192.071 53.3523 192.958 53.9545C193.844 54.5568 194.997 54.858 196.418 54.858C197.884 54.858 199.06 54.5568 199.946 53.9545C200.844 53.3523 201.293 52.608 201.293 51.7216C201.293 50.9716 201.003 50.3523 200.424 49.8636C199.855 49.375 198.969 49 197.764 48.7386L193.299 47.8011C190.787 47.2784 188.929 46.3977 187.725 45.1591C186.52 43.9091 185.924 42.3295 185.935 40.4205C185.924 38.8068 186.361 37.4091 187.247 36.2273C188.145 35.0341 189.389 34.1136 190.98 33.4659C192.583 32.8068 194.429 32.4773 196.52 32.4773C199.588 32.4773 202.003 33.1307 203.764 34.4375C205.537 35.7443 206.634 37.5114 207.054 39.7386ZM230.579 32.8182V37.5909H215.528V32.8182H230.579ZM219.243 26.5455H225.414V51.125C225.414 51.9545 225.539 52.5909 225.789 53.0341C226.05 53.4659 226.391 53.7614 226.812 53.9205C227.232 54.0795 227.698 54.1591 228.209 54.1591C228.596 54.1591 228.948 54.1307 229.266 54.0739C229.596 54.017 229.846 53.9659 230.016 53.9205L231.056 58.7443C230.726 58.858 230.255 58.983 229.641 59.1193C229.039 59.2557 228.3 59.3352 227.425 59.358C225.88 59.4034 224.488 59.1705 223.249 58.6591C222.011 58.1364 221.028 57.3295 220.3 56.2386C219.584 55.1477 219.232 53.7841 219.243 52.1477V26.5455ZM260.857 39.7386L255.232 40.3523C255.073 39.7841 254.795 39.25 254.397 38.75C254.011 38.25 253.488 37.8466 252.829 37.5398C252.17 37.233 251.363 37.0795 250.409 37.0795C249.124 37.0795 248.045 37.358 247.17 37.9148C246.306 38.4716 245.88 39.1932 245.891 40.0795C245.88 40.8409 246.159 41.4602 246.727 41.9375C247.306 42.4148 248.261 42.8068 249.59 43.1136L254.056 44.0682C256.534 44.6023 258.374 45.4489 259.579 46.608C260.795 47.767 261.409 49.2841 261.42 51.1591C261.409 52.8068 260.926 54.2614 259.971 55.5227C259.028 56.7727 257.715 57.75 256.034 58.4545C254.352 59.1591 252.42 59.5114 250.238 59.5114C247.034 59.5114 244.454 58.8409 242.499 57.5C240.545 56.1477 239.38 54.267 239.005 51.858L245.022 51.2784C245.295 52.4602 245.874 53.3523 246.761 53.9545C247.647 54.5568 248.801 54.858 250.221 54.858C251.687 54.858 252.863 54.5568 253.749 53.9545C254.647 53.3523 255.096 52.608 255.096 51.7216C255.096 50.9716 254.806 50.3523 254.227 49.8636C253.659 49.375 252.772 49 251.568 48.7386L247.102 47.8011C244.59 47.2784 242.732 46.3977 241.528 45.1591C240.323 43.9091 239.727 42.3295 239.738 40.4205C239.727 38.8068 240.164 37.4091 241.051 36.2273C241.948 35.0341 243.193 34.1136 244.784 33.4659C246.386 32.8068 248.232 32.4773 250.323 32.4773C253.391 32.4773 255.806 33.1307 257.568 34.4375C259.34 35.7443 260.437 37.5114 260.857 39.7386Z" fill="url(#paint2_linear_324_5310)"/>
</g>
<defs>
<filter id="filter0_f_324_5310" x="0.175781" y="0.0908203" width="285.244" height="83.4204" filterUnits="userSpaceOnUse" color-interpolation-filters="sRGB">
<feFlood flood-opacity="0" result="BackgroundImageFix"/>
<feBlend mode="normal" in="SourceGraphic" in2="BackgroundImageFix" result="shape"/>
<feGaussianBlur stdDeviation="12" result="effect1_foregroundBlur_324_5310"/>
</filter>
<linearGradient id="paint0_linear_324_5310" x1="23" y1="42" x2="264" y2="42" gradientUnits="userSpaceOnUse">
<stop stop-color="#362CAC"/>
<stop offset="0.5" stop-color="#8880E3"/>
<stop offset="1" stop-color="#362CAC"/>
</linearGradient>
<linearGradient id="paint1_linear_324_5310" x1="23" y1="42" x2="264" y2="42" gradientUnits="userSpaceOnUse">
<stop stop-color="#362CAC"/>
<stop offset="0.5" stop-color="#8880E3"/>
<stop offset="1" stop-color="#362CAC"/>
</linearGradient>
<linearGradient id="paint2_linear_324_5310" x1="23" y1="42" x2="264" y2="42" gradientUnits="userSpaceOnUse">
<stop stop-color="#362CAC"/>
<stop offset="0.5" stop-color="#8880E3"/>
<stop offset="1" stop-color="#362CAC"/>
</linearGradient>
</defs>
</svg>
