<svg width="207" height="73" viewBox="0 0 207 73" fill="none" xmlns="http://www.w3.org/2000/svg">
<path d="M29.2841 48H24.7841L32.9773 24.7273H38.1818L46.3864 48H41.8864L35.6705 29.5H35.4886L29.2841 48ZM29.4318 38.875H41.7045V42.2614H29.4318V38.875ZM56.5835 24.7273V48H52.4699V24.7273H56.5835ZM68.1273 24.7273V48H64.0136V24.7273H68.1273ZM86.8767 48V24.7273H95.604C97.3919 24.7273 98.8919 25.0606 100.104 25.7273C101.324 26.3939 102.244 27.3106 102.865 28.4773C103.494 29.6364 103.809 30.9545 103.809 32.4318C103.809 33.9242 103.494 35.25 102.865 36.4091C102.237 37.5682 101.309 38.4811 100.081 39.1477C98.854 39.8068 97.3426 40.1364 95.5472 40.1364H89.7631V36.6705H94.979C96.0244 36.6705 96.8805 36.4886 97.5472 36.125C98.2138 35.7614 98.7062 35.2614 99.0244 34.625C99.3502 33.9886 99.5131 33.2576 99.5131 32.4318C99.5131 31.6061 99.3502 30.8788 99.0244 30.25C98.7062 29.6212 98.21 29.1326 97.5358 28.7841C96.8691 28.428 96.0093 28.25 94.9562 28.25H91.0926V48H86.8767ZM117.852 48.3409C116.148 48.3409 114.67 47.9659 113.42 47.2159C112.17 46.4659 111.201 45.4167 110.511 44.0682C109.83 42.7197 109.489 41.1439 109.489 39.3409C109.489 37.5379 109.83 35.9583 110.511 34.6023C111.201 33.2462 112.17 32.1932 113.42 31.4432C114.67 30.6932 116.148 30.3182 117.852 30.3182C119.557 30.3182 121.034 30.6932 122.284 31.4432C123.534 32.1932 124.5 33.2462 125.182 34.6023C125.871 35.9583 126.216 37.5379 126.216 39.3409C126.216 41.1439 125.871 42.7197 125.182 44.0682C124.5 45.4167 123.534 46.4659 122.284 47.2159C121.034 47.9659 119.557 48.3409 117.852 48.3409ZM117.875 45.0455C118.799 45.0455 119.572 44.7917 120.193 44.2841C120.814 43.7689 121.277 43.0795 121.58 42.2159C121.89 41.3523 122.045 40.3902 122.045 39.3295C122.045 38.2614 121.89 37.2955 121.58 36.4318C121.277 35.5606 120.814 34.8674 120.193 34.3523C119.572 33.8371 118.799 33.5795 117.875 33.5795C116.928 33.5795 116.14 33.8371 115.511 34.3523C114.89 34.8674 114.424 35.5606 114.114 36.4318C113.811 37.2955 113.659 38.2614 113.659 39.3295C113.659 40.3902 113.811 41.3523 114.114 42.2159C114.424 43.0795 114.89 43.7689 115.511 44.2841C116.14 44.7917 116.928 45.0455 117.875 45.0455ZM146.703 35.1591L142.953 35.5682C142.847 35.1894 142.661 34.8333 142.396 34.5C142.138 34.1667 141.79 33.8977 141.351 33.6932C140.911 33.4886 140.373 33.3864 139.737 33.3864C138.881 33.3864 138.161 33.572 137.578 33.9432C137.002 34.3144 136.718 34.7955 136.726 35.3864C136.718 35.8939 136.904 36.3068 137.282 36.625C137.669 36.9432 138.305 37.2045 139.191 37.4091L142.169 38.0455C143.82 38.4015 145.048 38.9659 145.851 39.7386C146.661 40.5114 147.07 41.5227 147.078 42.7727C147.07 43.8712 146.748 44.8409 146.112 45.6818C145.483 46.5152 144.608 47.1667 143.487 47.6364C142.366 48.1061 141.078 48.3409 139.623 48.3409C137.487 48.3409 135.767 47.8939 134.464 47C133.161 46.0985 132.385 44.8447 132.135 43.2386L136.146 42.8523C136.328 43.6402 136.714 44.2348 137.305 44.6364C137.896 45.0379 138.665 45.2386 139.612 45.2386C140.589 45.2386 141.373 45.0379 141.964 44.6364C142.563 44.2348 142.862 43.7386 142.862 43.1477C142.862 42.6477 142.669 42.2348 142.282 41.9091C141.904 41.5833 141.313 41.3333 140.51 41.1591L137.532 40.5341C135.858 40.1856 134.62 39.5985 133.816 38.7727C133.013 37.9394 132.616 36.8864 132.623 35.6136C132.616 34.5379 132.907 33.6061 133.498 32.8182C134.097 32.0227 134.926 31.4091 135.987 30.9773C137.055 30.5379 138.286 30.3182 139.68 30.3182C141.726 30.3182 143.335 30.7538 144.51 31.625C145.691 32.4962 146.423 33.6742 146.703 35.1591ZM162.386 30.5455V33.7273H152.352V30.5455H162.386ZM154.829 26.3636H158.943V42.75C158.943 43.303 159.026 43.7273 159.193 44.0227C159.367 44.3106 159.594 44.5076 159.874 44.6136C160.155 44.7197 160.465 44.7727 160.806 44.7727C161.064 44.7727 161.299 44.7538 161.511 44.7159C161.73 44.678 161.897 44.6439 162.011 44.6136L162.704 47.8295C162.484 47.9053 162.17 47.9886 161.761 48.0795C161.359 48.1705 160.867 48.2235 160.284 48.2386C159.253 48.2689 158.325 48.1136 157.499 47.7727C156.674 47.4242 156.018 46.8864 155.534 46.1591C155.056 45.4318 154.821 44.5227 154.829 43.4318V26.3636ZM182.572 35.1591L178.822 35.5682C178.716 35.1894 178.53 34.8333 178.265 34.5C178.007 34.1667 177.659 33.8977 177.219 33.6932C176.78 33.4886 176.242 33.3864 175.606 33.3864C174.75 33.3864 174.03 33.572 173.447 33.9432C172.871 34.3144 172.587 34.7955 172.594 35.3864C172.587 35.8939 172.772 36.3068 173.151 36.625C173.538 36.9432 174.174 37.2045 175.06 37.4091L178.038 38.0455C179.689 38.4015 180.916 38.9659 181.719 39.7386C182.53 40.5114 182.939 41.5227 182.947 42.7727C182.939 43.8712 182.617 44.8409 181.981 45.6818C181.352 46.5152 180.477 47.1667 179.356 47.6364C178.234 48.1061 176.947 48.3409 175.492 48.3409C173.356 48.3409 171.636 47.8939 170.333 47C169.03 46.0985 168.253 44.8447 168.003 43.2386L172.015 42.8523C172.197 43.6402 172.583 44.2348 173.174 44.6364C173.765 45.0379 174.534 45.2386 175.481 45.2386C176.458 45.2386 177.242 45.0379 177.833 44.6364C178.431 44.2348 178.731 43.7386 178.731 43.1477C178.731 42.6477 178.538 42.2348 178.151 41.9091C177.772 41.5833 177.181 41.3333 176.378 41.1591L173.401 40.5341C171.727 40.1856 170.488 39.5985 169.685 38.7727C168.882 37.9394 168.484 36.8864 168.492 35.6136C168.484 34.5379 168.776 33.6061 169.367 32.8182C169.966 32.0227 170.795 31.4091 171.856 30.9773C172.924 30.5379 174.155 30.3182 175.549 30.3182C177.594 30.3182 179.204 30.7538 180.378 31.625C181.56 32.4962 182.291 33.6742 182.572 35.1591Z" fill="url(#paint0_linear_298_4044)"/>
<g style="mix-blend-mode:plus-lighter" opacity="0.5">
<path d="M29.2841 48H24.7841L32.9773 24.7273H38.1818L46.3864 48H41.8864L35.6705 29.5H35.4886L29.2841 48ZM29.4318 38.875H41.7045V42.2614H29.4318V38.875ZM56.5835 24.7273V48H52.4699V24.7273H56.5835ZM68.1273 24.7273V48H64.0136V24.7273H68.1273ZM86.8767 48V24.7273H95.604C97.3919 24.7273 98.8919 25.0606 100.104 25.7273C101.324 26.3939 102.244 27.3106 102.865 28.4773C103.494 29.6364 103.809 30.9545 103.809 32.4318C103.809 33.9242 103.494 35.25 102.865 36.4091C102.237 37.5682 101.309 38.4811 100.081 39.1477C98.854 39.8068 97.3426 40.1364 95.5472 40.1364H89.7631V36.6705H94.979C96.0244 36.6705 96.8805 36.4886 97.5472 36.125C98.2138 35.7614 98.7062 35.2614 99.0244 34.625C99.3502 33.9886 99.5131 33.2576 99.5131 32.4318C99.5131 31.6061 99.3502 30.8788 99.0244 30.25C98.7062 29.6212 98.21 29.1326 97.5358 28.7841C96.8691 28.428 96.0093 28.25 94.9562 28.25H91.0926V48H86.8767ZM117.852 48.3409C116.148 48.3409 114.67 47.9659 113.42 47.2159C112.17 46.4659 111.201 45.4167 110.511 44.0682C109.83 42.7197 109.489 41.1439 109.489 39.3409C109.489 37.5379 109.83 35.9583 110.511 34.6023C111.201 33.2462 112.17 32.1932 113.42 31.4432C114.67 30.6932 116.148 30.3182 117.852 30.3182C119.557 30.3182 121.034 30.6932 122.284 31.4432C123.534 32.1932 124.5 33.2462 125.182 34.6023C125.871 35.9583 126.216 37.5379 126.216 39.3409C126.216 41.1439 125.871 42.7197 125.182 44.0682C124.5 45.4167 123.534 46.4659 122.284 47.2159C121.034 47.9659 119.557 48.3409 117.852 48.3409ZM117.875 45.0455C118.799 45.0455 119.572 44.7917 120.193 44.2841C120.814 43.7689 121.277 43.0795 121.58 42.2159C121.89 41.3523 122.045 40.3902 122.045 39.3295C122.045 38.2614 121.89 37.2955 121.58 36.4318C121.277 35.5606 120.814 34.8674 120.193 34.3523C119.572 33.8371 118.799 33.5795 117.875 33.5795C116.928 33.5795 116.14 33.8371 115.511 34.3523C114.89 34.8674 114.424 35.5606 114.114 36.4318C113.811 37.2955 113.659 38.2614 113.659 39.3295C113.659 40.3902 113.811 41.3523 114.114 42.2159C114.424 43.0795 114.89 43.7689 115.511 44.2841C116.14 44.7917 116.928 45.0455 117.875 45.0455ZM146.703 35.1591L142.953 35.5682C142.847 35.1894 142.661 34.8333 142.396 34.5C142.138 34.1667 141.79 33.8977 141.351 33.6932C140.911 33.4886 140.373 33.3864 139.737 33.3864C138.881 33.3864 138.161 33.572 137.578 33.9432C137.002 34.3144 136.718 34.7955 136.726 35.3864C136.718 35.8939 136.904 36.3068 137.282 36.625C137.669 36.9432 138.305 37.2045 139.191 37.4091L142.169 38.0455C143.82 38.4015 145.048 38.9659 145.851 39.7386C146.661 40.5114 147.07 41.5227 147.078 42.7727C147.07 43.8712 146.748 44.8409 146.112 45.6818C145.483 46.5152 144.608 47.1667 143.487 47.6364C142.366 48.1061 141.078 48.3409 139.623 48.3409C137.487 48.3409 135.767 47.8939 134.464 47C133.161 46.0985 132.385 44.8447 132.135 43.2386L136.146 42.8523C136.328 43.6402 136.714 44.2348 137.305 44.6364C137.896 45.0379 138.665 45.2386 139.612 45.2386C140.589 45.2386 141.373 45.0379 141.964 44.6364C142.563 44.2348 142.862 43.7386 142.862 43.1477C142.862 42.6477 142.669 42.2348 142.282 41.9091C141.904 41.5833 141.313 41.3333 140.51 41.1591L137.532 40.5341C135.858 40.1856 134.62 39.5985 133.816 38.7727C133.013 37.9394 132.616 36.8864 132.623 35.6136C132.616 34.5379 132.907 33.6061 133.498 32.8182C134.097 32.0227 134.926 31.4091 135.987 30.9773C137.055 30.5379 138.286 30.3182 139.68 30.3182C141.726 30.3182 143.335 30.7538 144.51 31.625C145.691 32.4962 146.423 33.6742 146.703 35.1591ZM162.386 30.5455V33.7273H152.352V30.5455H162.386ZM154.829 26.3636H158.943V42.75C158.943 43.303 159.026 43.7273 159.193 44.0227C159.367 44.3106 159.594 44.5076 159.874 44.6136C160.155 44.7197 160.465 44.7727 160.806 44.7727C161.064 44.7727 161.299 44.7538 161.511 44.7159C161.73 44.678 161.897 44.6439 162.011 44.6136L162.704 47.8295C162.484 47.9053 162.17 47.9886 161.761 48.0795C161.359 48.1705 160.867 48.2235 160.284 48.2386C159.253 48.2689 158.325 48.1136 157.499 47.7727C156.674 47.4242 156.018 46.8864 155.534 46.1591C155.056 45.4318 154.821 44.5227 154.829 43.4318V26.3636ZM182.572 35.1591L178.822 35.5682C178.716 35.1894 178.53 34.8333 178.265 34.5C178.007 34.1667 177.659 33.8977 177.219 33.6932C176.78 33.4886 176.242 33.3864 175.606 33.3864C174.75 33.3864 174.03 33.572 173.447 33.9432C172.871 34.3144 172.587 34.7955 172.594 35.3864C172.587 35.8939 172.772 36.3068 173.151 36.625C173.538 36.9432 174.174 37.2045 175.06 37.4091L178.038 38.0455C179.689 38.4015 180.916 38.9659 181.719 39.7386C182.53 40.5114 182.939 41.5227 182.947 42.7727C182.939 43.8712 182.617 44.8409 181.981 45.6818C181.352 46.5152 180.477 47.1667 179.356 47.6364C178.234 48.1061 176.947 48.3409 175.492 48.3409C173.356 48.3409 171.636 47.8939 170.333 47C169.03 46.0985 168.253 44.8447 168.003 43.2386L172.015 42.8523C172.197 43.6402 172.583 44.2348 173.174 44.6364C173.765 45.0379 174.534 45.2386 175.481 45.2386C176.458 45.2386 177.242 45.0379 177.833 44.6364C178.431 44.2348 178.731 43.7386 178.731 43.1477C178.731 42.6477 178.538 42.2348 178.151 41.9091C177.772 41.5833 177.181 41.3333 176.378 41.1591L173.401 40.5341C171.727 40.1856 170.488 39.5985 169.685 38.7727C168.882 37.9394 168.484 36.8864 168.492 35.6136C168.484 34.5379 168.776 33.6061 169.367 32.8182C169.966 32.0227 170.795 31.4091 171.856 30.9773C172.924 30.5379 174.155 30.3182 175.549 30.3182C177.594 30.3182 179.204 30.7538 180.378 31.625C181.56 32.4962 182.291 33.6742 182.572 35.1591Z" fill="url(#paint1_linear_298_4044)"/>
</g>
<g style="mix-blend-mode:plus-lighter" opacity="0.5" filter="url(#filter0_f_298_4044)">
<path d="M29.2841 48H24.7841L32.9773 24.7273H38.1818L46.3864 48H41.8864L35.6705 29.5H35.4886L29.2841 48ZM29.4318 38.875H41.7045V42.2614H29.4318V38.875ZM56.5835 24.7273V48H52.4699V24.7273H56.5835ZM68.1273 24.7273V48H64.0136V24.7273H68.1273ZM86.8767 48V24.7273H95.604C97.3919 24.7273 98.8919 25.0606 100.104 25.7273C101.324 26.3939 102.244 27.3106 102.865 28.4773C103.494 29.6364 103.809 30.9545 103.809 32.4318C103.809 33.9242 103.494 35.25 102.865 36.4091C102.237 37.5682 101.309 38.4811 100.081 39.1477C98.854 39.8068 97.3426 40.1364 95.5472 40.1364H89.7631V36.6705H94.979C96.0244 36.6705 96.8805 36.4886 97.5472 36.125C98.2138 35.7614 98.7062 35.2614 99.0244 34.625C99.3502 33.9886 99.5131 33.2576 99.5131 32.4318C99.5131 31.6061 99.3502 30.8788 99.0244 30.25C98.7062 29.6212 98.21 29.1326 97.5358 28.7841C96.8691 28.428 96.0093 28.25 94.9562 28.25H91.0926V48H86.8767ZM117.852 48.3409C116.148 48.3409 114.67 47.9659 113.42 47.2159C112.17 46.4659 111.201 45.4167 110.511 44.0682C109.83 42.7197 109.489 41.1439 109.489 39.3409C109.489 37.5379 109.83 35.9583 110.511 34.6023C111.201 33.2462 112.17 32.1932 113.42 31.4432C114.67 30.6932 116.148 30.3182 117.852 30.3182C119.557 30.3182 121.034 30.6932 122.284 31.4432C123.534 32.1932 124.5 33.2462 125.182 34.6023C125.871 35.9583 126.216 37.5379 126.216 39.3409C126.216 41.1439 125.871 42.7197 125.182 44.0682C124.5 45.4167 123.534 46.4659 122.284 47.2159C121.034 47.9659 119.557 48.3409 117.852 48.3409ZM117.875 45.0455C118.799 45.0455 119.572 44.7917 120.193 44.2841C120.814 43.7689 121.277 43.0795 121.58 42.2159C121.89 41.3523 122.045 40.3902 122.045 39.3295C122.045 38.2614 121.89 37.2955 121.58 36.4318C121.277 35.5606 120.814 34.8674 120.193 34.3523C119.572 33.8371 118.799 33.5795 117.875 33.5795C116.928 33.5795 116.14 33.8371 115.511 34.3523C114.89 34.8674 114.424 35.5606 114.114 36.4318C113.811 37.2955 113.659 38.2614 113.659 39.3295C113.659 40.3902 113.811 41.3523 114.114 42.2159C114.424 43.0795 114.89 43.7689 115.511 44.2841C116.14 44.7917 116.928 45.0455 117.875 45.0455ZM146.703 35.1591L142.953 35.5682C142.847 35.1894 142.661 34.8333 142.396 34.5C142.138 34.1667 141.79 33.8977 141.351 33.6932C140.911 33.4886 140.373 33.3864 139.737 33.3864C138.881 33.3864 138.161 33.572 137.578 33.9432C137.002 34.3144 136.718 34.7955 136.726 35.3864C136.718 35.8939 136.904 36.3068 137.282 36.625C137.669 36.9432 138.305 37.2045 139.191 37.4091L142.169 38.0455C143.82 38.4015 145.048 38.9659 145.851 39.7386C146.661 40.5114 147.07 41.5227 147.078 42.7727C147.07 43.8712 146.748 44.8409 146.112 45.6818C145.483 46.5152 144.608 47.1667 143.487 47.6364C142.366 48.1061 141.078 48.3409 139.623 48.3409C137.487 48.3409 135.767 47.8939 134.464 47C133.161 46.0985 132.385 44.8447 132.135 43.2386L136.146 42.8523C136.328 43.6402 136.714 44.2348 137.305 44.6364C137.896 45.0379 138.665 45.2386 139.612 45.2386C140.589 45.2386 141.373 45.0379 141.964 44.6364C142.563 44.2348 142.862 43.7386 142.862 43.1477C142.862 42.6477 142.669 42.2348 142.282 41.9091C141.904 41.5833 141.313 41.3333 140.51 41.1591L137.532 40.5341C135.858 40.1856 134.62 39.5985 133.816 38.7727C133.013 37.9394 132.616 36.8864 132.623 35.6136C132.616 34.5379 132.907 33.6061 133.498 32.8182C134.097 32.0227 134.926 31.4091 135.987 30.9773C137.055 30.5379 138.286 30.3182 139.68 30.3182C141.726 30.3182 143.335 30.7538 144.51 31.625C145.691 32.4962 146.423 33.6742 146.703 35.1591ZM162.386 30.5455V33.7273H152.352V30.5455H162.386ZM154.829 26.3636H158.943V42.75C158.943 43.303 159.026 43.7273 159.193 44.0227C159.367 44.3106 159.594 44.5076 159.874 44.6136C160.155 44.7197 160.465 44.7727 160.806 44.7727C161.064 44.7727 161.299 44.7538 161.511 44.7159C161.73 44.678 161.897 44.6439 162.011 44.6136L162.704 47.8295C162.484 47.9053 162.17 47.9886 161.761 48.0795C161.359 48.1705 160.867 48.2235 160.284 48.2386C159.253 48.2689 158.325 48.1136 157.499 47.7727C156.674 47.4242 156.018 46.8864 155.534 46.1591C155.056 45.4318 154.821 44.5227 154.829 43.4318V26.3636ZM182.572 35.1591L178.822 35.5682C178.716 35.1894 178.53 34.8333 178.265 34.5C178.007 34.1667 177.659 33.8977 177.219 33.6932C176.78 33.4886 176.242 33.3864 175.606 33.3864C174.75 33.3864 174.03 33.572 173.447 33.9432C172.871 34.3144 172.587 34.7955 172.594 35.3864C172.587 35.8939 172.772 36.3068 173.151 36.625C173.538 36.9432 174.174 37.2045 175.06 37.4091L178.038 38.0455C179.689 38.4015 180.916 38.9659 181.719 39.7386C182.53 40.5114 182.939 41.5227 182.947 42.7727C182.939 43.8712 182.617 44.8409 181.981 45.6818C181.352 46.5152 180.477 47.1667 179.356 47.6364C178.234 48.1061 176.947 48.3409 175.492 48.3409C173.356 48.3409 171.636 47.8939 170.333 47C169.03 46.0985 168.253 44.8447 168.003 43.2386L172.015 42.8523C172.197 43.6402 172.583 44.2348 173.174 44.6364C173.765 45.0379 174.534 45.2386 175.481 45.2386C176.458 45.2386 177.242 45.0379 177.833 44.6364C178.431 44.2348 178.731 43.7386 178.731 43.1477C178.731 42.6477 178.538 42.2348 178.151 41.9091C177.772 41.5833 177.181 41.3333 176.378 41.1591L173.401 40.5341C171.727 40.1856 170.488 39.5985 169.685 38.7727C168.882 37.9394 168.484 36.8864 168.492 35.6136C168.484 34.5379 168.776 33.6061 169.367 32.8182C169.966 32.0227 170.795 31.4091 171.856 30.9773C172.924 30.5379 174.155 30.3182 175.549 30.3182C177.594 30.3182 179.204 30.7538 180.378 31.625C181.56 32.4962 182.291 33.6742 182.572 35.1591Z" fill="url(#paint2_linear_298_4044)"/>
</g>
<defs>
<filter id="filter0_f_298_4044" x="0.783203" y="0.727295" width="206.164" height="71.6135" filterUnits="userSpaceOnUse" color-interpolation-filters="sRGB">
<feFlood flood-opacity="0" result="BackgroundImageFix"/>
<feBlend mode="normal" in="SourceGraphic" in2="BackgroundImageFix" result="shape"/>
<feGaussianBlur stdDeviation="12" result="effect1_foregroundBlur_298_4044"/>
</filter>
<linearGradient id="paint0_linear_298_4044" x1="24" y1="36.5" x2="185" y2="36.5" gradientUnits="userSpaceOnUse">
<stop stop-color="#362CAC"/>
<stop offset="0.5" stop-color="#8880E3"/>
<stop offset="1" stop-color="#362CAC"/>
</linearGradient>
<linearGradient id="paint1_linear_298_4044" x1="24" y1="36.5" x2="185" y2="36.5" gradientUnits="userSpaceOnUse">
<stop stop-color="#362CAC"/>
<stop offset="0.5" stop-color="#8880E3"/>
<stop offset="1" stop-color="#362CAC"/>
</linearGradient>
<linearGradient id="paint2_linear_298_4044" x1="24" y1="36.5" x2="185" y2="36.5" gradientUnits="userSpaceOnUse">
<stop stop-color="#362CAC"/>
<stop offset="0.5" stop-color="#8880E3"/>
<stop offset="1" stop-color="#362CAC"/>
</linearGradient>
</defs>
</svg>
