<svg width="96" height="96" viewBox="0 0 96 96" fill="none" xmlns="http://www.w3.org/2000/svg">
<path d="M47.6976 16.5C31.7428 16.5 32.7391 23.419 32.7391 23.419L32.7569 30.587H47.9822V32.7391H26.7095C26.7095 32.7391 16.5 31.5813 16.5 47.6798C16.5 63.7784 25.4111 63.2075 25.4111 63.2075H30.7292V55.7372C30.7292 55.7372 30.4426 46.8261 39.498 46.8261H54.5988C54.5988 46.8261 63.083 46.9632 63.083 38.6265V24.8419C63.083 24.8419 64.3711 16.5 47.6976 16.5ZM39.3024 21.3202C40.8172 21.3202 42.0415 22.5445 42.0415 24.0593C42.0415 25.5741 40.8172 26.7984 39.3024 26.7984C37.7876 26.7984 36.5632 25.5741 36.5632 24.0593C36.5632 22.5445 37.7876 21.3202 39.3024 21.3202Z" fill="#CED7FF"/>
<path d="M48.1506 79.0211C64.1055 79.0211 63.1091 72.1021 63.1091 72.1021L63.0913 64.9341H47.8661V62.7819H69.1388C69.1388 62.7819 79.3483 63.9398 79.3483 47.8412C79.3483 31.7427 70.4372 32.3135 70.4372 32.3135H65.119V39.7839C65.119 39.7839 65.4057 48.695 56.3502 48.695H41.2494C41.2494 48.695 32.7653 48.5578 32.7653 56.8946V70.6792C32.7653 70.6792 31.4771 79.0211 48.1506 79.0211ZM56.5459 74.2009C55.0311 74.2009 53.8068 72.9766 53.8068 71.4618C53.8068 69.947 55.0311 68.7226 56.5459 68.7226C58.0607 68.7226 59.285 69.947 59.285 71.4618C59.285 72.9766 58.0607 74.2009 56.5459 74.2009Z" fill="#8880E3"/>
<g style="mix-blend-mode:plus-lighter" opacity="0.3" filter="url(#filter0_f_407_1584)">
<path d="M47.6976 16.5C31.7428 16.5 32.7391 23.419 32.7391 23.419L32.7569 30.587H47.9822V32.7391H26.7095C26.7095 32.7391 16.5 31.5813 16.5 47.6798C16.5 63.7784 25.4111 63.2075 25.4111 63.2075H30.7292V55.7372C30.7292 55.7372 30.4426 46.8261 39.498 46.8261H54.5988C54.5988 46.8261 63.083 46.9632 63.083 38.6265V24.8419C63.083 24.8419 64.3711 16.5 47.6976 16.5ZM39.3024 21.3202C40.8172 21.3202 42.0415 22.5445 42.0415 24.0593C42.0415 25.5741 40.8172 26.7984 39.3024 26.7984C37.7876 26.7984 36.5632 25.5741 36.5632 24.0593C36.5632 22.5445 37.7876 21.3202 39.3024 21.3202Z" fill="#CED7FF"/>
<path d="M48.1506 79.0211C64.1055 79.0211 63.1091 72.1021 63.1091 72.1021L63.0913 64.9341H47.8661V62.7819H69.1388C69.1388 62.7819 79.3483 63.9398 79.3483 47.8412C79.3483 31.7427 70.4372 32.3135 70.4372 32.3135H65.119V39.7839C65.119 39.7839 65.4057 48.695 56.3502 48.695H41.2494C41.2494 48.695 32.7653 48.5578 32.7653 56.8946V70.6792C32.7653 70.6792 31.4771 79.0211 48.1506 79.0211ZM56.5459 74.2009C55.0311 74.2009 53.8068 72.9766 53.8068 71.4618C53.8068 69.947 55.0311 68.7226 56.5459 68.7226C58.0607 68.7226 59.285 69.947 59.285 71.4618C59.285 72.9766 58.0607 74.2009 56.5459 74.2009Z" fill="#8880E3"/>
</g>
<defs>
<filter id="filter0_f_407_1584" x="0.5" y="0.5" width="94.8477" height="94.521" filterUnits="userSpaceOnUse" color-interpolation-filters="sRGB">
<feFlood flood-opacity="0" result="BackgroundImageFix"/>
<feBlend mode="normal" in="SourceGraphic" in2="BackgroundImageFix" result="shape"/>
<feGaussianBlur stdDeviation="8" result="effect1_foregroundBlur_407_1584"/>
</filter>
</defs>
</svg>
