<svg width="160" height="150" viewBox="0 0 160 150" fill="none" xmlns="http://www.w3.org/2000/svg">
<path fill-rule="evenodd" clip-rule="evenodd" d="M107.826 58.628C120.036 62.3649 128 68.3909 128 74.7495C128 81.0886 120.075 87.1146 107.943 90.8515C110.78 103.256 109.548 113.136 104.049 116.306C102.757 117.049 101.27 117.401 99.6266 117.401C94.2454 117.401 87.201 113.606 80.0783 106.993C72.9556 113.645 65.9111 117.479 60.53 117.479C58.8863 117.479 57.3991 117.127 56.1272 116.384C50.6091 113.214 49.3567 103.314 52.1745 90.8711C39.9641 87.1341 32 81.1081 32 74.7495C32 68.4104 39.925 62.404 52.0962 58.6475C49.2589 46.2433 50.4916 36.363 55.9902 33.1935C57.2817 32.45 58.7689 32.0978 60.4126 32.0978V32.0783C65.7937 32.0783 72.8382 35.8739 79.9609 42.4868C87.0836 35.8347 94.128 32 99.5092 32V32.0196C101.126 32.0224 102.606 32.3747 103.873 33.1152C109.391 36.2847 110.643 46.1846 107.826 58.628ZM99.4896 36.363C95.4199 36.3734 89.4411 39.6203 83.0722 45.539C85.8312 48.415 88.5707 51.7019 91.2124 55.3215C95.6152 55.791 99.8027 56.5149 103.638 57.4541C104.068 55.478 104.421 53.5411 104.636 51.7019C105.536 44.2281 104.382 38.4173 101.72 36.8912C101.114 36.5586 100.39 36.3826 99.4896 36.3826V36.363ZM76.8496 45.5585C70.4704 39.6695 64.4631 36.4413 60.4126 36.4413V36.4608C59.5124 36.4608 58.7493 36.6173 58.1623 36.9695C55.5206 38.5151 54.3857 44.3259 55.3053 51.7998C55.5402 53.6193 55.8728 55.5171 56.3229 57.4736C60.1582 56.5149 64.3457 55.791 68.768 55.3215C71.3706 51.7019 74.1101 48.4346 76.8496 45.5585ZM99.881 69.4278C100.898 66.8257 101.799 64.2235 102.523 61.6997C99.9592 61.0736 97.2784 60.5649 94.4998 60.154C95.4586 61.641 96.4174 63.167 97.3176 64.7322C98.2373 66.2974 99.0787 67.8626 99.881 69.4278ZM88.8447 90.0102C90.4688 87.682 92.0342 85.1776 93.5605 82.5364C95.0281 79.9734 96.3783 77.3517 97.6111 74.7299C96.3783 72.1082 95.0281 69.5061 93.541 66.9431C92.0147 64.3214 90.4297 61.8366 88.8055 59.5084C85.9095 59.2736 82.9548 59.1366 80 59.1366C77.0257 59.1366 74.0709 59.2736 71.1553 59.5279C69.5312 61.8562 67.9658 64.3605 66.4395 67.0018C64.9719 69.5648 63.6021 72.1865 62.3889 74.8082C63.6217 77.4299 64.9719 80.0321 66.459 82.5951C67.9853 85.2168 69.5703 87.7015 71.1945 90.0298C74.0905 90.2645 77.0453 90.4015 80 90.4015C82.9743 90.4015 85.9291 90.2645 88.8447 90.0102ZM102.581 87.7798C101.838 85.2363 100.938 82.6146 99.881 79.9929C99.0787 81.5581 98.2373 83.1429 97.3371 84.7081C96.437 86.2929 95.4782 87.8385 94.5194 89.345C97.3176 88.9341 100.018 88.4059 102.581 87.7798ZM74.5993 94.608C76.3995 96.8971 78.2193 98.9905 80.0391 100.869C81.8394 98.9905 83.6592 96.8971 85.4203 94.608C83.6396 94.7058 81.8198 94.7449 79.9804 94.7449C78.1606 94.7449 76.3604 94.6862 74.5993 94.608ZM57.4578 87.7994C60.0212 88.4254 62.702 88.9341 65.4806 89.345C64.5218 87.8581 63.5826 86.332 62.6629 84.7668C61.7432 83.2016 60.9018 81.6364 60.0995 80.0712C59.0819 82.6733 58.1818 85.2755 57.4578 87.7994ZM85.3812 54.891C83.5809 52.6019 81.7611 50.5085 79.9413 48.6302C78.1411 50.5085 76.3212 52.6019 74.5601 54.891C76.3408 54.7932 78.1606 54.7541 80 54.7541C81.8198 54.7541 83.6201 54.8128 85.3812 54.891ZM62.6433 64.7909C63.5434 63.2062 64.5022 61.6605 65.4611 60.154C62.6629 60.5649 59.9625 61.0931 57.3991 61.6997C58.1427 64.2431 59.0428 66.8648 60.0995 69.4865C60.9018 67.9213 61.7432 66.3561 62.6433 64.7909ZM36.3441 74.7495C36.3441 77.8212 40.8251 81.6951 47.7521 84.6494C49.4545 85.3733 51.2939 86.0385 53.2311 86.645C54.327 82.8298 55.775 78.8582 57.5752 74.7886C55.7554 70.6996 54.2878 66.7083 53.1724 62.8736C51.2744 63.4801 49.435 64.1257 47.7521 64.8496C40.8251 67.7844 36.3441 71.6778 36.3441 74.7495ZM55.364 97.7971C54.4639 105.271 55.6184 111.082 58.2797 112.608C58.8667 112.94 59.6103 113.116 60.4908 113.136C64.5609 113.136 70.5487 109.888 76.9278 103.96C74.1688 101.084 71.4293 97.7971 68.7876 94.1775C64.3848 93.708 60.1973 92.9841 56.362 92.045C55.9315 94.021 55.5793 95.958 55.364 97.7971ZM101.838 112.53C104.479 110.984 105.614 105.173 104.695 97.6992C104.479 95.8797 104.127 93.9819 103.677 92.0058C99.8418 92.9645 95.6543 93.6884 91.232 94.158C88.6294 97.7775 85.8899 101.045 83.1504 103.921C89.5296 109.81 95.5369 113.038 99.5874 113.038C100.488 113.038 101.251 112.882 101.838 112.53ZM106.808 86.6255C108.706 86.0189 110.545 85.3733 112.228 84.6494C119.155 81.7146 123.636 77.8212 123.656 74.7495C123.656 71.6778 119.175 67.8039 112.248 64.8496C110.526 64.1257 108.687 63.4605 106.749 62.854C105.653 66.6692 104.205 70.6409 102.405 74.7104C104.225 78.7995 105.693 82.7907 106.808 86.6255ZM88.9219 74.7496C88.9219 79.6877 84.9182 83.6908 79.9793 83.6908C75.0405 83.6908 71.0368 79.6877 71.0368 74.7496C71.0368 69.8115 75.0405 65.8084 79.9793 65.8084C84.9182 65.8084 88.9219 69.8115 88.9219 74.7496Z" fill="url(#paint0_linear_201_572)"/>
<g style="mix-blend-mode:plus-lighter" opacity="0.1" filter="url(#filter0_f_201_572)">
<path fill-rule="evenodd" clip-rule="evenodd" d="M107.826 58.628C120.036 62.3649 128 68.3909 128 74.7495C128 81.0886 120.075 87.1146 107.943 90.8515C110.78 103.256 109.548 113.136 104.049 116.306C102.757 117.049 101.27 117.401 99.6266 117.401C94.2454 117.401 87.201 113.606 80.0783 106.993C72.9556 113.645 65.9111 117.479 60.53 117.479C58.8863 117.479 57.3991 117.127 56.1272 116.384C50.6091 113.214 49.3567 103.314 52.1745 90.8711C39.9641 87.1341 32 81.1081 32 74.7495C32 68.4104 39.925 62.404 52.0962 58.6475C49.2589 46.2433 50.4916 36.363 55.9902 33.1935C57.2817 32.45 58.7689 32.0978 60.4126 32.0978V32.0783C65.7937 32.0783 72.8382 35.8739 79.9609 42.4868C87.0836 35.8347 94.128 32 99.5092 32V32.0196C101.126 32.0224 102.606 32.3747 103.873 33.1152C109.391 36.2847 110.643 46.1846 107.826 58.628ZM99.4896 36.363C95.4199 36.3734 89.4411 39.6203 83.0722 45.539C85.8312 48.415 88.5707 51.7019 91.2124 55.3215C95.6152 55.791 99.8027 56.5149 103.638 57.4541C104.068 55.478 104.421 53.5411 104.636 51.7019C105.536 44.2281 104.382 38.4173 101.72 36.8912C101.114 36.5586 100.39 36.3826 99.4896 36.3826V36.363ZM76.8496 45.5585C70.4704 39.6695 64.4631 36.4413 60.4126 36.4413V36.4608C59.5124 36.4608 58.7493 36.6173 58.1623 36.9695C55.5206 38.5151 54.3857 44.3259 55.3053 51.7998C55.5402 53.6193 55.8728 55.5171 56.3229 57.4736C60.1582 56.5149 64.3457 55.791 68.768 55.3215C71.3706 51.7019 74.1101 48.4346 76.8496 45.5585ZM99.881 69.4278C100.898 66.8257 101.799 64.2235 102.523 61.6997C99.9592 61.0736 97.2784 60.5649 94.4998 60.154C95.4586 61.641 96.4174 63.167 97.3176 64.7322C98.2373 66.2974 99.0787 67.8626 99.881 69.4278ZM88.8447 90.0102C90.4688 87.682 92.0342 85.1776 93.5605 82.5364C95.0281 79.9734 96.3783 77.3517 97.6111 74.7299C96.3783 72.1082 95.0281 69.5061 93.541 66.9431C92.0147 64.3214 90.4297 61.8366 88.8055 59.5084C85.9095 59.2736 82.9548 59.1366 80 59.1366C77.0257 59.1366 74.0709 59.2736 71.1553 59.5279C69.5312 61.8562 67.9658 64.3605 66.4395 67.0018C64.9719 69.5648 63.6021 72.1865 62.3889 74.8082C63.6217 77.4299 64.9719 80.0321 66.459 82.5951C67.9853 85.2168 69.5703 87.7015 71.1945 90.0298C74.0905 90.2645 77.0453 90.4015 80 90.4015C82.9743 90.4015 85.9291 90.2645 88.8447 90.0102ZM102.581 87.7798C101.838 85.2363 100.938 82.6146 99.881 79.9929C99.0787 81.5581 98.2373 83.1429 97.3371 84.7081C96.437 86.2929 95.4782 87.8385 94.5194 89.345C97.3176 88.9341 100.018 88.4059 102.581 87.7798ZM74.5993 94.608C76.3995 96.8971 78.2193 98.9905 80.0391 100.869C81.8394 98.9905 83.6592 96.8971 85.4203 94.608C83.6396 94.7058 81.8198 94.7449 79.9804 94.7449C78.1606 94.7449 76.3604 94.6862 74.5993 94.608ZM57.4578 87.7994C60.0212 88.4254 62.702 88.9341 65.4806 89.345C64.5218 87.8581 63.5826 86.332 62.6629 84.7668C61.7432 83.2016 60.9018 81.6364 60.0995 80.0712C59.0819 82.6733 58.1818 85.2755 57.4578 87.7994ZM85.3812 54.891C83.5809 52.6019 81.7611 50.5085 79.9413 48.6302C78.1411 50.5085 76.3212 52.6019 74.5601 54.891C76.3408 54.7932 78.1606 54.7541 80 54.7541C81.8198 54.7541 83.6201 54.8128 85.3812 54.891ZM62.6433 64.7909C63.5434 63.2062 64.5022 61.6605 65.4611 60.154C62.6629 60.5649 59.9625 61.0931 57.3991 61.6997C58.1427 64.2431 59.0428 66.8648 60.0995 69.4865C60.9018 67.9213 61.7432 66.3561 62.6433 64.7909ZM36.3441 74.7495C36.3441 77.8212 40.8251 81.6951 47.7521 84.6494C49.4545 85.3733 51.2939 86.0385 53.2311 86.645C54.327 82.8298 55.775 78.8582 57.5752 74.7886C55.7554 70.6996 54.2878 66.7083 53.1724 62.8736C51.2744 63.4801 49.435 64.1257 47.7521 64.8496C40.8251 67.7844 36.3441 71.6778 36.3441 74.7495ZM55.364 97.7971C54.4639 105.271 55.6184 111.082 58.2797 112.608C58.8667 112.94 59.6103 113.116 60.4908 113.136C64.5609 113.136 70.5487 109.888 76.9278 103.96C74.1688 101.084 71.4293 97.7971 68.7876 94.1775C64.3848 93.708 60.1973 92.9841 56.362 92.045C55.9315 94.021 55.5793 95.958 55.364 97.7971ZM101.838 112.53C104.479 110.984 105.614 105.173 104.695 97.6992C104.479 95.8797 104.127 93.9819 103.677 92.0058C99.8418 92.9645 95.6543 93.6884 91.232 94.158C88.6294 97.7775 85.8899 101.045 83.1504 103.921C89.5296 109.81 95.5369 113.038 99.5874 113.038C100.488 113.038 101.251 112.882 101.838 112.53ZM106.808 86.6255C108.706 86.0189 110.545 85.3733 112.228 84.6494C119.155 81.7146 123.636 77.8212 123.656 74.7495C123.656 71.6778 119.175 67.8039 112.248 64.8496C110.526 64.1257 108.687 63.4605 106.749 62.854C105.653 66.6692 104.205 70.6409 102.405 74.7104C104.225 78.7995 105.693 82.7907 106.808 86.6255ZM88.9219 74.7496C88.9219 79.6877 84.9182 83.6908 79.9793 83.6908C75.0405 83.6908 71.0368 79.6877 71.0368 74.7496C71.0368 69.8115 75.0405 65.8084 79.9793 65.8084C84.9182 65.8084 88.9219 69.8115 88.9219 74.7496Z" fill="url(#paint1_linear_201_572)"/>
</g>
<g style="mix-blend-mode:plus-lighter" opacity="0.2" filter="url(#filter1_f_201_572)">
<path fill-rule="evenodd" clip-rule="evenodd" d="M107.826 58.628C120.036 62.3649 128 68.3909 128 74.7495C128 81.0886 120.075 87.1146 107.943 90.8515C110.78 103.256 109.548 113.136 104.049 116.306C102.757 117.049 101.27 117.401 99.6266 117.401C94.2454 117.401 87.201 113.606 80.0783 106.993C72.9556 113.645 65.9111 117.479 60.53 117.479C58.8863 117.479 57.3991 117.127 56.1272 116.384C50.6091 113.214 49.3567 103.314 52.1745 90.8711C39.9641 87.1341 32 81.1081 32 74.7495C32 68.4104 39.925 62.404 52.0962 58.6475C49.2589 46.2433 50.4916 36.363 55.9902 33.1935C57.2817 32.45 58.7689 32.0978 60.4126 32.0978V32.0783C65.7937 32.0783 72.8382 35.8739 79.9609 42.4868C87.0836 35.8347 94.128 32 99.5092 32V32.0196C101.126 32.0224 102.606 32.3747 103.873 33.1152C109.391 36.2847 110.643 46.1846 107.826 58.628ZM99.4896 36.363C95.4199 36.3734 89.4411 39.6203 83.0722 45.539C85.8312 48.415 88.5707 51.7019 91.2124 55.3215C95.6152 55.791 99.8027 56.5149 103.638 57.4541C104.068 55.478 104.421 53.5411 104.636 51.7019C105.536 44.2281 104.382 38.4173 101.72 36.8912C101.114 36.5586 100.39 36.3826 99.4896 36.3826V36.363ZM76.8496 45.5585C70.4704 39.6695 64.4631 36.4413 60.4126 36.4413V36.4608C59.5124 36.4608 58.7493 36.6173 58.1623 36.9695C55.5206 38.5151 54.3857 44.3259 55.3053 51.7998C55.5402 53.6193 55.8728 55.5171 56.3229 57.4736C60.1582 56.5149 64.3457 55.791 68.768 55.3215C71.3706 51.7019 74.1101 48.4346 76.8496 45.5585ZM99.881 69.4278C100.898 66.8257 101.799 64.2235 102.523 61.6997C99.9592 61.0736 97.2784 60.5649 94.4998 60.154C95.4586 61.641 96.4174 63.167 97.3176 64.7322C98.2373 66.2974 99.0787 67.8626 99.881 69.4278ZM88.8447 90.0102C90.4688 87.682 92.0342 85.1776 93.5605 82.5364C95.0281 79.9734 96.3783 77.3517 97.6111 74.7299C96.3783 72.1082 95.0281 69.5061 93.541 66.9431C92.0147 64.3214 90.4297 61.8366 88.8055 59.5084C85.9095 59.2736 82.9548 59.1366 80 59.1366C77.0257 59.1366 74.0709 59.2736 71.1553 59.5279C69.5312 61.8562 67.9658 64.3605 66.4395 67.0018C64.9719 69.5648 63.6021 72.1865 62.3889 74.8082C63.6217 77.4299 64.9719 80.0321 66.459 82.5951C67.9853 85.2168 69.5703 87.7015 71.1945 90.0298C74.0905 90.2645 77.0453 90.4015 80 90.4015C82.9743 90.4015 85.9291 90.2645 88.8447 90.0102ZM102.581 87.7798C101.838 85.2363 100.938 82.6146 99.881 79.9929C99.0787 81.5581 98.2373 83.1429 97.3371 84.7081C96.437 86.2929 95.4782 87.8385 94.5194 89.345C97.3176 88.9341 100.018 88.4059 102.581 87.7798ZM74.5993 94.608C76.3995 96.8971 78.2193 98.9905 80.0391 100.869C81.8394 98.9905 83.6592 96.8971 85.4203 94.608C83.6396 94.7058 81.8198 94.7449 79.9804 94.7449C78.1606 94.7449 76.3604 94.6862 74.5993 94.608ZM57.4578 87.7994C60.0212 88.4254 62.702 88.9341 65.4806 89.345C64.5218 87.8581 63.5826 86.332 62.6629 84.7668C61.7432 83.2016 60.9018 81.6364 60.0995 80.0712C59.0819 82.6733 58.1818 85.2755 57.4578 87.7994ZM85.3812 54.891C83.5809 52.6019 81.7611 50.5085 79.9413 48.6302C78.1411 50.5085 76.3212 52.6019 74.5601 54.891C76.3408 54.7932 78.1606 54.7541 80 54.7541C81.8198 54.7541 83.6201 54.8128 85.3812 54.891ZM62.6433 64.7909C63.5434 63.2062 64.5022 61.6605 65.4611 60.154C62.6629 60.5649 59.9625 61.0931 57.3991 61.6997C58.1427 64.2431 59.0428 66.8648 60.0995 69.4865C60.9018 67.9213 61.7432 66.3561 62.6433 64.7909ZM36.3441 74.7495C36.3441 77.8212 40.8251 81.6951 47.7521 84.6494C49.4545 85.3733 51.2939 86.0385 53.2311 86.645C54.327 82.8298 55.775 78.8582 57.5752 74.7886C55.7554 70.6996 54.2878 66.7083 53.1724 62.8736C51.2744 63.4801 49.435 64.1257 47.7521 64.8496C40.8251 67.7844 36.3441 71.6778 36.3441 74.7495ZM55.364 97.7971C54.4639 105.271 55.6184 111.082 58.2797 112.608C58.8667 112.94 59.6103 113.116 60.4908 113.136C64.5609 113.136 70.5487 109.888 76.9278 103.96C74.1688 101.084 71.4293 97.7971 68.7876 94.1775C64.3848 93.708 60.1973 92.9841 56.362 92.045C55.9315 94.021 55.5793 95.958 55.364 97.7971ZM101.838 112.53C104.479 110.984 105.614 105.173 104.695 97.6992C104.479 95.8797 104.127 93.9819 103.677 92.0058C99.8418 92.9645 95.6543 93.6884 91.232 94.158C88.6294 97.7775 85.8899 101.045 83.1504 103.921C89.5296 109.81 95.5369 113.038 99.5874 113.038C100.488 113.038 101.251 112.882 101.838 112.53ZM106.808 86.6255C108.706 86.0189 110.545 85.3733 112.228 84.6494C119.155 81.7146 123.636 77.8212 123.656 74.7495C123.656 71.6778 119.175 67.8039 112.248 64.8496C110.526 64.1257 108.687 63.4605 106.749 62.854C105.653 66.6692 104.205 70.6409 102.405 74.7104C104.225 78.7995 105.693 82.7907 106.808 86.6255ZM88.9219 74.7496C88.9219 79.6877 84.9182 83.6908 79.9793 83.6908C75.0405 83.6908 71.0368 79.6877 71.0368 74.7496C71.0368 69.8115 75.0405 65.8084 79.9793 65.8084C84.9182 65.8084 88.9219 69.8115 88.9219 74.7496Z" fill="url(#paint2_linear_201_572)"/>
</g>
<defs>
<filter id="filter0_f_201_572" x="16" y="16" width="128" height="117.479" filterUnits="userSpaceOnUse" color-interpolation-filters="sRGB">
<feFlood flood-opacity="0" result="BackgroundImageFix"/>
<feBlend mode="normal" in="SourceGraphic" in2="BackgroundImageFix" result="shape"/>
<feGaussianBlur stdDeviation="8" result="effect1_foregroundBlur_201_572"/>
</filter>
<filter id="filter1_f_201_572" x="0" y="0" width="160" height="149.479" filterUnits="userSpaceOnUse" color-interpolation-filters="sRGB">
<feFlood flood-opacity="0" result="BackgroundImageFix"/>
<feBlend mode="normal" in="SourceGraphic" in2="BackgroundImageFix" result="shape"/>
<feGaussianBlur stdDeviation="16" result="effect1_foregroundBlur_201_572"/>
</filter>
<linearGradient id="paint0_linear_201_572" x1="103.429" y1="32" x2="53.1429" y2="117.714" gradientUnits="userSpaceOnUse">
<stop offset="0.25" stop-color="#8880E3"/>
<stop offset="0.495" stop-color="#C9C5FF"/>
<stop offset="0.75" stop-color="#8880E3"/>
</linearGradient>
<linearGradient id="paint1_linear_201_572" x1="103.429" y1="32" x2="53.1429" y2="117.714" gradientUnits="userSpaceOnUse">
<stop offset="0.25" stop-color="#8880E3"/>
<stop offset="0.495" stop-color="#C9C5FF"/>
<stop offset="0.75" stop-color="#8880E3"/>
</linearGradient>
<linearGradient id="paint2_linear_201_572" x1="103.429" y1="32" x2="53.1429" y2="117.714" gradientUnits="userSpaceOnUse">
<stop offset="0.25" stop-color="#8880E3"/>
<stop offset="0.495" stop-color="#C9C5FF"/>
<stop offset="0.75" stop-color="#8880E3"/>
</linearGradient>
</defs>
</svg>
