<svg width="24" height="24" viewBox="0 0 24 24" fill="none" xmlns="http://www.w3.org/2000/svg">
<path d="M6.82539 12L9.72539 14.9C9.92539 15.1 10.0214 15.3334 10.0134 15.6C10.0054 15.8667 9.90106 16.1 9.70039 16.3C9.50039 16.4834 9.26706 16.5794 9.00039 16.588C8.73372 16.5967 8.50039 16.5007 8.30039 16.3L3.70039 11.7C3.50039 11.5 3.40039 11.2667 3.40039 11C3.40039 10.7334 3.50039 10.5 3.70039 10.3L8.30039 5.70005C8.48372 5.51672 8.71306 5.42505 8.98839 5.42505C9.26372 5.42505 9.50106 5.51672 9.70039 5.70005C9.90039 5.90005 10.0004 6.13772 10.0004 6.41305C10.0004 6.68838 9.90039 6.92572 9.70039 7.12505L6.82539 10H16.0004C17.3837 10 18.5631 10.4877 19.5384 11.463C20.5137 12.4384 21.0011 13.6174 21.0004 15V18C21.0004 18.2834 20.9044 18.521 20.7124 18.713C20.5204 18.905 20.2831 19.0007 20.0004 19C19.7177 18.9994 19.4804 18.9034 19.2884 18.712C19.0964 18.5207 19.0004 18.2834 19.0004 18V15C19.0004 14.1667 18.7087 13.4584 18.1254 12.875C17.5421 12.2917 16.8337 12 16.0004 12H6.82539Z" fill="#8880E3"/>
</svg>
