<svg width="405" height="110" viewBox="0 0 405 110" fill="none" xmlns="http://www.w3.org/2000/svg">
<g opacity="0.5">
<path d="M81 109.5V110H82V109.5H81ZM81.5 75H82V74.7929L81.8536 74.6464L81.5 75ZM54 47.5H53.5V47.7071L53.6464 47.8536L54 47.5ZM54.5 16.5C54.5 16.2239 54.2761 16 54 16C53.7239 16 53.5 16.2239 53.5 16.5H54.5ZM82 109.5V75H81V109.5H82ZM81.8536 74.6464L54.3536 47.1464L53.6464 47.8536L81.1464 75.3536L81.8536 74.6464ZM54.5 47.5V16.5H53.5V47.5H54.5Z" fill="url(#paint0_linear_327_5570)"/>
<path d="M48.5 109.5V93.5L1 46V1" stroke="url(#paint1_linear_327_5570)" stroke-linecap="square"/>
</g>
<g opacity="0.5">
<path d="M324.5 109.5V110H323.5V109.5H324.5ZM324 75H323.5V74.7929L323.646 74.6464L324 75ZM351.5 47.5H352V47.7071L351.854 47.8536L351.5 47.5ZM351 16.5C351 16.2239 351.224 16 351.5 16C351.776 16 352 16.2239 352 16.5H351ZM323.5 109.5V75H324.5V109.5H323.5ZM323.646 74.6464L351.146 47.1464L351.854 47.8536L324.354 75.3536L323.646 74.6464ZM351 47.5V16.5H352V47.5H351Z" fill="url(#paint2_linear_327_5570)"/>
<path d="M357 109.5V93.5L404.5 46V1" stroke="url(#paint3_linear_327_5570)" stroke-linecap="square"/>
</g>
<defs>
<linearGradient id="paint0_linear_327_5570" x1="54" y1="17" x2="82" y2="110" gradientUnits="userSpaceOnUse">
<stop stop-color="#3E33A8" stop-opacity="0"/>
<stop offset="1" stop-color="#3E33A8"/>
</linearGradient>
<linearGradient id="paint1_linear_327_5570" x1="1" y1="1.58333" x2="24.1087" y2="115.219" gradientUnits="userSpaceOnUse">
<stop stop-color="#29245F" stop-opacity="0"/>
<stop offset="1" stop-color="#29245F"/>
</linearGradient>
<linearGradient id="paint2_linear_327_5570" x1="351.5" y1="17" x2="323.5" y2="110" gradientUnits="userSpaceOnUse">
<stop stop-color="#3E33A8" stop-opacity="0"/>
<stop offset="1" stop-color="#3E33A8"/>
</linearGradient>
<linearGradient id="paint3_linear_327_5570" x1="404.5" y1="1.58333" x2="381.391" y2="115.219" gradientUnits="userSpaceOnUse">
<stop stop-color="#29245F" stop-opacity="0"/>
<stop offset="1" stop-color="#29245F"/>
</linearGradient>
</defs>
</svg>
