<svg width="90" height="90" viewBox="0 0 90 90" fill="none" xmlns="http://www.w3.org/2000/svg">
<path d="M32.3311 26.1958V26.2421V27.9581V28.8252L31.4726 28.948C29.4249 29.2408 27.3984 29.601 25.395 30.0226L25.1891 29.044M32.3311 26.1958L25.007 30.5948C24.9855 30.4676 25.014 30.337 25.0865 30.2304C25.1591 30.1236 25.2701 30.0491 25.3964 30.0223L25.1891 29.044M32.3311 26.1958C32.3298 26.2105 32.3291 26.2254 32.3291 26.2403L31.3331 26.2401L31.3291 26.2401L31.3311 26.2421V27.9581C29.2611 28.2541 27.2131 28.618 25.1891 29.044M32.3311 26.1958L24.0211 30.7621C23.9564 30.3803 24.0418 29.9883 24.2595 29.6681C24.4772 29.3479 24.8103 29.1243 25.1891 29.044M32.3311 26.1958C32.3406 26.0901 32.3835 25.9897 32.4543 25.9095C32.5349 25.8182 32.646 25.7595 32.7668 25.7444L32.3311 26.1958ZM36.6869 40.9891L36.9299 41.1877C38.4093 42.3968 40.1468 43.2494 42.0083 43.6797L42.8522 43.8748L42.7796 44.7379C42.5742 47.1772 41.751 49.524 40.3876 51.557L40.0905 52H39.5571H38.0791C36.5597 52 35.3291 53.232 35.3291 54.75V60V61H34.3291H32.8291C31.9008 61 31.0106 61.3688 30.3542 62.0252C29.6978 62.6816 29.3291 63.5718 29.3291 64.5C29.3291 64.7758 29.5534 65 29.8291 65H59.8291C59.9617 65 60.0889 64.9474 60.1826 64.8536C60.2764 64.7598 60.3291 64.6327 60.3291 64.5C60.3291 63.5718 59.9603 62.6816 59.304 62.0252C58.6476 61.3688 57.7573 61 56.8291 61H55.3291H54.3291V60V54.75C54.3291 53.2307 53.0971 52 51.5791 52H50.1011H49.5675L49.2704 51.5568C47.9076 49.5236 47.0852 47.1768 46.8806 44.7376L46.8082 43.875L47.6516 43.6798C49.5132 43.2489 51.2508 42.3956 52.73 41.186L52.9732 40.9871L53.2863 40.963C56.0662 40.749 58.6949 39.6122 60.7547 37.7333C62.8146 35.8543 64.1874 33.3408 64.6553 30.5923L65.6411 30.7601L64.6549 30.5946C64.6762 30.4673 64.6476 30.3367 64.5749 30.2301C64.5022 30.1235 64.3911 30.0492 64.2649 30.0226L64.2644 30.0225C62.2519 29.5973 60.2259 29.239 58.1896 28.948L57.3311 28.8253V27.9581V26.2405C57.331 26.1185 57.2864 26.0008 57.2056 25.9095C57.1248 25.8181 57.0134 25.7595 56.8924 25.7445L56.8916 25.7444C52.8901 25.2463 48.8616 24.997 44.8293 24.9981L44.8291 24.9981C40.7446 24.9981 36.72 25.2515 32.7671 25.7443L36.6869 40.9891ZM36.6869 40.9891L36.374 40.965M36.6869 40.9891L36.374 40.965M36.374 40.965C33.5944 40.7506 30.9662 39.6137 28.9067 37.7347C26.8474 35.8559 25.4749 33.343 25.007 30.595L36.374 40.965ZM32.6359 39.0005L35.3935 40.2371L33.9178 37.5997C32.9088 35.7966 32.3311 33.7161 32.3311 31.5001V30.988V29.829L31.1846 29.9988C29.8276 30.1998 28.4753 30.431 27.1286 30.6924L26.0251 30.9065L26.3662 31.9775C26.8585 33.5233 27.6714 34.9478 28.7518 36.1579C29.8321 37.3681 31.1557 38.3367 32.6359 39.0005ZM57.3311 31.5001V31.5016C57.3343 33.6366 56.788 35.7366 55.7446 37.5994L54.267 40.2376L57.0262 39.0005C58.5065 38.3369 59.8301 37.3683 60.9105 36.1581C61.9909 34.9479 62.8038 33.5233 63.296 31.9774L63.6368 30.907L62.5341 30.6925C61.1927 30.4315 59.8399 30.201 58.4778 29.9989L57.3311 29.8287V30.988V31.5001Z" fill="url(#paint0_linear_145_2785)"/>
<path d="M32.3311 26.1958V26.2421V27.9581V28.8252L31.4726 28.948C29.4249 29.2408 27.3984 29.601 25.395 30.0226L25.1891 29.044M32.3311 26.1958L25.007 30.5948C24.9855 30.4676 25.014 30.337 25.0865 30.2304C25.1591 30.1236 25.2701 30.0491 25.3964 30.0223L25.1891 29.044M32.3311 26.1958C32.3298 26.2105 32.3291 26.2254 32.3291 26.2403L31.3331 26.2401L31.3291 26.2401L31.3311 26.2421V27.9581C29.2611 28.2541 27.2131 28.618 25.1891 29.044M32.3311 26.1958L24.0211 30.7621C23.9564 30.3803 24.0418 29.9883 24.2595 29.6681C24.4772 29.3479 24.8103 29.1243 25.1891 29.044M32.3311 26.1958C32.3406 26.0901 32.3835 25.9897 32.4543 25.9095C32.5349 25.8182 32.646 25.7595 32.7668 25.7444L32.3311 26.1958ZM36.6869 40.9891L36.9299 41.1877C38.4093 42.3968 40.1468 43.2494 42.0083 43.6797L42.8522 43.8748L42.7796 44.7379C42.5742 47.1772 41.751 49.524 40.3876 51.557L40.0905 52H39.5571H38.0791C36.5597 52 35.3291 53.232 35.3291 54.75V60V61H34.3291H32.8291C31.9008 61 31.0106 61.3688 30.3542 62.0252C29.6978 62.6816 29.3291 63.5718 29.3291 64.5C29.3291 64.7758 29.5534 65 29.8291 65H59.8291C59.9617 65 60.0889 64.9474 60.1826 64.8536C60.2764 64.7598 60.3291 64.6327 60.3291 64.5C60.3291 63.5718 59.9603 62.6816 59.304 62.0252C58.6476 61.3688 57.7573 61 56.8291 61H55.3291H54.3291V60V54.75C54.3291 53.2307 53.0971 52 51.5791 52H50.1011H49.5675L49.2704 51.5568C47.9076 49.5236 47.0852 47.1768 46.8806 44.7376L46.8082 43.875L47.6516 43.6798C49.5132 43.2489 51.2508 42.3956 52.73 41.186L52.9732 40.9871L53.2863 40.963C56.0662 40.749 58.6949 39.6122 60.7547 37.7333C62.8146 35.8543 64.1874 33.3408 64.6553 30.5923L65.6411 30.7601L64.6549 30.5946C64.6762 30.4673 64.6476 30.3367 64.5749 30.2301C64.5022 30.1235 64.3911 30.0492 64.2649 30.0226L64.2644 30.0225C62.2519 29.5973 60.2259 29.239 58.1896 28.948L57.3311 28.8253V27.9581V26.2405C57.331 26.1185 57.2864 26.0008 57.2056 25.9095C57.1248 25.8181 57.0134 25.7595 56.8924 25.7445L56.8916 25.7444C52.8901 25.2463 48.8616 24.997 44.8293 24.9981L44.8291 24.9981C40.7446 24.9981 36.72 25.2515 32.7671 25.7443L36.6869 40.9891ZM36.6869 40.9891L36.374 40.965M36.6869 40.9891L36.374 40.965M36.374 40.965C33.5944 40.7506 30.9662 39.6137 28.9067 37.7347C26.8474 35.8559 25.4749 33.343 25.007 30.595L36.374 40.965ZM32.6359 39.0005L35.3935 40.2371L33.9178 37.5997C32.9088 35.7966 32.3311 33.7161 32.3311 31.5001V30.988V29.829L31.1846 29.9988C29.8276 30.1998 28.4753 30.431 27.1286 30.6924L26.0251 30.9065L26.3662 31.9775C26.8585 33.5233 27.6714 34.9478 28.7518 36.1579C29.8321 37.3681 31.1557 38.3367 32.6359 39.0005ZM57.3311 31.5001V31.5016C57.3343 33.6366 56.788 35.7366 55.7446 37.5994L54.267 40.2376L57.0262 39.0005C58.5065 38.3369 59.8301 37.3683 60.9105 36.1581C61.9909 34.9479 62.8038 33.5233 63.296 31.9774L63.6368 30.907L62.5341 30.6925C61.1927 30.4315 59.8399 30.201 58.4778 29.9989L57.3311 29.8287V30.988V31.5001Z" stroke="url(#paint1_linear_145_2785)" stroke-width="2"/>
<path d="M32.3311 26.1958V26.2421V27.9581V28.8252L31.4726 28.948C29.4249 29.2408 27.3984 29.601 25.395 30.0226L25.1891 29.044M32.3311 26.1958L25.007 30.5948C24.9855 30.4676 25.014 30.337 25.0865 30.2304C25.1591 30.1236 25.2701 30.0491 25.3964 30.0223L25.1891 29.044M32.3311 26.1958C32.3298 26.2105 32.3291 26.2254 32.3291 26.2403L31.3331 26.2401L31.3291 26.2401L31.3311 26.2421V27.9581C29.2611 28.2541 27.2131 28.618 25.1891 29.044M32.3311 26.1958L24.0211 30.7621C23.9564 30.3803 24.0418 29.9883 24.2595 29.6681C24.4772 29.3479 24.8103 29.1243 25.1891 29.044M32.3311 26.1958C32.3406 26.0901 32.3835 25.9897 32.4543 25.9095C32.5349 25.8182 32.646 25.7595 32.7668 25.7444L32.3311 26.1958ZM36.6869 40.9891L36.9299 41.1877C38.4093 42.3968 40.1468 43.2494 42.0083 43.6797L42.8522 43.8748L42.7796 44.7379C42.5742 47.1772 41.751 49.524 40.3876 51.557L40.0905 52H39.5571H38.0791C36.5597 52 35.3291 53.232 35.3291 54.75V60V61H34.3291H32.8291C31.9008 61 31.0106 61.3688 30.3542 62.0252C29.6978 62.6816 29.3291 63.5718 29.3291 64.5C29.3291 64.7758 29.5534 65 29.8291 65H59.8291C59.9617 65 60.0889 64.9474 60.1826 64.8536C60.2764 64.7598 60.3291 64.6327 60.3291 64.5C60.3291 63.5718 59.9603 62.6816 59.304 62.0252C58.6476 61.3688 57.7573 61 56.8291 61H55.3291H54.3291V60V54.75C54.3291 53.2307 53.0971 52 51.5791 52H50.1011H49.5675L49.2704 51.5568C47.9076 49.5236 47.0852 47.1768 46.8806 44.7376L46.8082 43.875L47.6516 43.6798C49.5132 43.2489 51.2508 42.3956 52.73 41.186L52.9732 40.9871L53.2863 40.963C56.0662 40.749 58.6949 39.6122 60.7547 37.7333C62.8146 35.8543 64.1874 33.3408 64.6553 30.5923L65.6411 30.7601L64.6549 30.5946C64.6762 30.4673 64.6476 30.3367 64.5749 30.2301C64.5022 30.1235 64.3911 30.0492 64.2649 30.0226L64.2644 30.0225C62.2519 29.5973 60.2259 29.239 58.1896 28.948L57.3311 28.8253V27.9581V26.2405C57.331 26.1185 57.2864 26.0008 57.2056 25.9095C57.1248 25.8181 57.0134 25.7595 56.8924 25.7445L56.8916 25.7444C52.8901 25.2463 48.8616 24.997 44.8293 24.9981L44.8291 24.9981C40.7446 24.9981 36.72 25.2515 32.7671 25.7443L36.6869 40.9891ZM36.6869 40.9891L36.374 40.965M36.6869 40.9891L36.374 40.965M36.374 40.965C33.5944 40.7506 30.9662 39.6137 28.9067 37.7347C26.8474 35.8559 25.4749 33.343 25.007 30.595L36.374 40.965ZM32.6359 39.0005L35.3935 40.2371L33.9178 37.5997C32.9088 35.7966 32.3311 33.7161 32.3311 31.5001V30.988V29.829L31.1846 29.9988C29.8276 30.1998 28.4753 30.431 27.1286 30.6924L26.0251 30.9065L26.3662 31.9775C26.8585 33.5233 27.6714 34.9478 28.7518 36.1579C29.8321 37.3681 31.1557 38.3367 32.6359 39.0005ZM57.3311 31.5001V31.5016C57.3343 33.6366 56.788 35.7366 55.7446 37.5994L54.267 40.2376L57.0262 39.0005C58.5065 38.3369 59.8301 37.3683 60.9105 36.1581C61.9909 34.9479 62.8038 33.5233 63.296 31.9774L63.6368 30.907L62.5341 30.6925C61.1927 30.4315 59.8399 30.201 58.4778 29.9989L57.3311 29.8287V30.988V31.5001Z" stroke="url(#paint2_linear_145_2785)" stroke-width="2"/>
<g style="mix-blend-mode:plus-lighter" opacity="0.1" filter="url(#filter0_f_145_2785)">
<path fill-rule="evenodd" clip-rule="evenodd" d="M31.3311 26.2421V27.9581C29.2611 28.2541 27.2131 28.618 25.1891 29.044C24.8103 29.1243 24.4772 29.3479 24.2595 29.6681C24.0418 29.9883 23.9564 30.3803 24.0211 30.7621C24.5262 33.7301 26.0086 36.4443 28.2327 38.4735C30.4569 40.5027 33.2953 41.7305 36.2971 41.962C37.8952 43.2681 39.7722 44.1892 41.7831 44.654C41.592 46.9241 40.8259 49.1081 39.5571 51H38.0791C36.0071 51 34.3291 52.68 34.3291 54.75V60H32.8291C31.6356 60 30.491 60.4742 29.6471 61.3181C28.8032 62.162 28.3291 63.3066 28.3291 64.5C28.3291 65.328 29.0011 66 29.8291 66H59.8291C60.2269 66 60.6084 65.842 60.8897 65.5607C61.171 65.2794 61.3291 64.8979 61.3291 64.5C61.3291 63.3066 60.855 62.162 60.0111 61.3181C59.1672 60.4742 58.0226 60 56.8291 60H55.3291V54.75C55.3291 52.678 53.6491 51 51.5791 51H50.1011C48.8329 49.1079 48.0675 46.9239 47.8771 44.654C49.8881 44.1886 51.7652 43.2668 53.3631 41.96C56.3652 41.729 59.2041 40.5013 61.4287 38.4721C63.6532 36.4428 65.1359 33.7284 65.6411 30.7601C65.7051 30.3783 65.6192 29.9866 65.4011 29.6668C65.1831 29.347 64.8498 29.1239 64.4711 29.044C62.437 28.6144 60.3892 28.2522 58.3311 27.9581V26.2401C58.3309 25.8742 58.1971 25.521 57.9547 25.247C57.7123 24.9729 57.3782 24.7969 57.0151 24.7521C52.9726 24.2488 48.9028 23.997 44.8291 23.9981C40.7031 23.9981 36.6371 24.2541 32.6431 24.7521C32.2804 24.7974 31.9467 24.9736 31.7047 25.2476C31.4628 25.5216 31.3292 25.8745 31.3291 26.2401L31.3311 26.2421ZM31.3311 31.5001C31.3311 33.892 31.9551 36.14 33.0451 38.088C31.6932 37.4818 30.4844 36.5972 29.4978 35.492C28.5111 34.3867 27.7687 33.0858 27.3191 31.674C28.6511 31.4156 29.9888 31.1868 31.3311 30.988V31.5001ZM58.3311 31.5001V30.988C59.6791 31.188 61.0171 31.416 62.3431 31.674C61.8936 33.0858 61.1513 34.3869 60.1646 35.4921C59.1779 36.5974 57.969 37.4819 56.6171 38.088C57.7443 36.0755 58.3346 33.8068 58.3311 31.5001Z" fill="url(#paint3_linear_145_2785)"/>
<path d="M32.3311 26.1958V26.2421V27.9581V28.8252L31.4726 28.948C29.4249 29.2408 27.3984 29.601 25.395 30.0226L25.1891 29.044M32.3311 26.1958L25.007 30.5948C24.9855 30.4676 25.014 30.337 25.0865 30.2304C25.1591 30.1236 25.2701 30.0491 25.3964 30.0223L25.1891 29.044M32.3311 26.1958C32.3298 26.2105 32.3291 26.2254 32.3291 26.2403L31.3331 26.2401L31.3291 26.2401L31.3311 26.2421V27.9581C29.2611 28.2541 27.2131 28.618 25.1891 29.044M32.3311 26.1958L24.0211 30.7621C23.9564 30.3803 24.0418 29.9883 24.2595 29.6681C24.4772 29.3479 24.8103 29.1243 25.1891 29.044M32.3311 26.1958C32.3406 26.0901 32.3835 25.9897 32.4543 25.9095C32.5349 25.8182 32.646 25.7595 32.7668 25.7444L32.3311 26.1958ZM36.6869 40.9891L36.9299 41.1877C38.4093 42.3968 40.1468 43.2494 42.0083 43.6797L42.8522 43.8748L42.7796 44.7379C42.5742 47.1772 41.751 49.524 40.3876 51.557L40.0905 52H39.5571H38.0791C36.5597 52 35.3291 53.232 35.3291 54.75V60V61H34.3291H32.8291C31.9008 61 31.0106 61.3688 30.3542 62.0252C29.6978 62.6816 29.3291 63.5718 29.3291 64.5C29.3291 64.7758 29.5534 65 29.8291 65H59.8291C59.9617 65 60.0889 64.9474 60.1826 64.8536C60.2764 64.7598 60.3291 64.6327 60.3291 64.5C60.3291 63.5718 59.9603 62.6816 59.304 62.0252C58.6476 61.3688 57.7573 61 56.8291 61H55.3291H54.3291V60V54.75C54.3291 53.2307 53.0971 52 51.5791 52H50.1011H49.5675L49.2704 51.5568C47.9076 49.5236 47.0852 47.1768 46.8806 44.7376L46.8082 43.875L47.6516 43.6798C49.5132 43.2489 51.2508 42.3956 52.73 41.186L52.9732 40.9871L53.2863 40.963C56.0662 40.749 58.6949 39.6122 60.7547 37.7333C62.8146 35.8543 64.1874 33.3408 64.6553 30.5923L65.6411 30.7601L64.6549 30.5946C64.6762 30.4673 64.6476 30.3367 64.5749 30.2301C64.5022 30.1235 64.3911 30.0492 64.2649 30.0226L64.2644 30.0225C62.2519 29.5973 60.2259 29.239 58.1896 28.948L57.3311 28.8253V27.9581V26.2405C57.331 26.1185 57.2864 26.0008 57.2056 25.9095C57.1248 25.8181 57.0134 25.7595 56.8924 25.7445L56.8916 25.7444C52.8901 25.2463 48.8616 24.997 44.8293 24.9981L44.8291 24.9981C40.7446 24.9981 36.72 25.2515 32.7671 25.7443L36.6869 40.9891ZM36.6869 40.9891L36.374 40.965M36.6869 40.9891L36.374 40.965M36.374 40.965C33.5944 40.7506 30.9662 39.6137 28.9067 37.7347C26.8474 35.8559 25.4749 33.343 25.007 30.595L36.374 40.965ZM32.6359 39.0005L35.3935 40.2371L33.9178 37.5997C32.9088 35.7966 32.3311 33.7161 32.3311 31.5001V30.988V29.829L31.1846 29.9988C29.8276 30.1998 28.4753 30.431 27.1286 30.6924L26.0251 30.9065L26.3662 31.9775C26.8585 33.5233 27.6714 34.9478 28.7518 36.1579C29.8321 37.3681 31.1557 38.3367 32.6359 39.0005ZM57.3311 31.5001V31.5016C57.3343 33.6366 56.788 35.7366 55.7446 37.5994L54.267 40.2376L57.0262 39.0005C58.5065 38.3369 59.8301 37.3683 60.9105 36.1581C61.9909 34.9479 62.8038 33.5233 63.296 31.9774L63.6368 30.907L62.5341 30.6925C61.1927 30.4315 59.8399 30.201 58.4778 29.9989L57.3311 29.8287V30.988V31.5001Z" stroke="url(#paint4_linear_145_2785)" stroke-width="2"/>
<path d="M32.3311 26.1958V26.2421V27.9581V28.8252L31.4726 28.948C29.4249 29.2408 27.3984 29.601 25.395 30.0226L25.1891 29.044M32.3311 26.1958L25.007 30.5948C24.9855 30.4676 25.014 30.337 25.0865 30.2304C25.1591 30.1236 25.2701 30.0491 25.3964 30.0223L25.1891 29.044M32.3311 26.1958C32.3298 26.2105 32.3291 26.2254 32.3291 26.2403L31.3331 26.2401L31.3291 26.2401L31.3311 26.2421V27.9581C29.2611 28.2541 27.2131 28.618 25.1891 29.044M32.3311 26.1958L24.0211 30.7621C23.9564 30.3803 24.0418 29.9883 24.2595 29.6681C24.4772 29.3479 24.8103 29.1243 25.1891 29.044M32.3311 26.1958C32.3406 26.0901 32.3835 25.9897 32.4543 25.9095C32.5349 25.8182 32.646 25.7595 32.7668 25.7444L32.3311 26.1958ZM36.6869 40.9891L36.9299 41.1877C38.4093 42.3968 40.1468 43.2494 42.0083 43.6797L42.8522 43.8748L42.7796 44.7379C42.5742 47.1772 41.751 49.524 40.3876 51.557L40.0905 52H39.5571H38.0791C36.5597 52 35.3291 53.232 35.3291 54.75V60V61H34.3291H32.8291C31.9008 61 31.0106 61.3688 30.3542 62.0252C29.6978 62.6816 29.3291 63.5718 29.3291 64.5C29.3291 64.7758 29.5534 65 29.8291 65H59.8291C59.9617 65 60.0889 64.9474 60.1826 64.8536C60.2764 64.7598 60.3291 64.6327 60.3291 64.5C60.3291 63.5718 59.9603 62.6816 59.304 62.0252C58.6476 61.3688 57.7573 61 56.8291 61H55.3291H54.3291V60V54.75C54.3291 53.2307 53.0971 52 51.5791 52H50.1011H49.5675L49.2704 51.5568C47.9076 49.5236 47.0852 47.1768 46.8806 44.7376L46.8082 43.875L47.6516 43.6798C49.5132 43.2489 51.2508 42.3956 52.73 41.186L52.9732 40.9871L53.2863 40.963C56.0662 40.749 58.6949 39.6122 60.7547 37.7333C62.8146 35.8543 64.1874 33.3408 64.6553 30.5923L65.6411 30.7601L64.6549 30.5946C64.6762 30.4673 64.6476 30.3367 64.5749 30.2301C64.5022 30.1235 64.3911 30.0492 64.2649 30.0226L64.2644 30.0225C62.2519 29.5973 60.2259 29.239 58.1896 28.948L57.3311 28.8253V27.9581V26.2405C57.331 26.1185 57.2864 26.0008 57.2056 25.9095C57.1248 25.8181 57.0134 25.7595 56.8924 25.7445L56.8916 25.7444C52.8901 25.2463 48.8616 24.997 44.8293 24.9981L44.8291 24.9981C40.7446 24.9981 36.72 25.2515 32.7671 25.7443L36.6869 40.9891ZM36.6869 40.9891L36.374 40.965M36.6869 40.9891L36.374 40.965M36.374 40.965C33.5944 40.7506 30.9662 39.6137 28.9067 37.7347C26.8474 35.8559 25.4749 33.343 25.007 30.595L36.374 40.965ZM32.6359 39.0005L35.3935 40.2371L33.9178 37.5997C32.9088 35.7966 32.3311 33.7161 32.3311 31.5001V30.988V29.829L31.1846 29.9988C29.8276 30.1998 28.4753 30.431 27.1286 30.6924L26.0251 30.9065L26.3662 31.9775C26.8585 33.5233 27.6714 34.9478 28.7518 36.1579C29.8321 37.3681 31.1557 38.3367 32.6359 39.0005ZM57.3311 31.5001V31.5016C57.3343 33.6366 56.788 35.7366 55.7446 37.5994L54.267 40.2376L57.0262 39.0005C58.5065 38.3369 59.8301 37.3683 60.9105 36.1581C61.9909 34.9479 62.8038 33.5233 63.296 31.9774L63.6368 30.907L62.5341 30.6925C61.1927 30.4315 59.8399 30.201 58.4778 29.9989L57.3311 29.8287V30.988V31.5001Z" stroke="url(#paint5_linear_145_2785)" stroke-width="2"/>
</g>
<g style="mix-blend-mode:plus-lighter" opacity="0.2" filter="url(#filter1_f_145_2785)">
<path fill-rule="evenodd" clip-rule="evenodd" d="M31.3311 26.2421V27.9581C29.2611 28.2541 27.2131 28.618 25.1891 29.044C24.8103 29.1243 24.4772 29.3479 24.2595 29.6681C24.0418 29.9883 23.9564 30.3803 24.0211 30.7621C24.5262 33.7301 26.0086 36.4443 28.2327 38.4735C30.4569 40.5027 33.2953 41.7305 36.2971 41.962C37.8952 43.2681 39.7722 44.1892 41.7831 44.654C41.592 46.9241 40.8259 49.1081 39.5571 51H38.0791C36.0071 51 34.3291 52.68 34.3291 54.75V60H32.8291C31.6356 60 30.491 60.4742 29.6471 61.3181C28.8032 62.162 28.3291 63.3066 28.3291 64.5C28.3291 65.328 29.0011 66 29.8291 66H59.8291C60.2269 66 60.6084 65.842 60.8897 65.5607C61.171 65.2794 61.3291 64.8979 61.3291 64.5C61.3291 63.3066 60.855 62.162 60.0111 61.3181C59.1672 60.4742 58.0226 60 56.8291 60H55.3291V54.75C55.3291 52.678 53.6491 51 51.5791 51H50.1011C48.8329 49.1079 48.0675 46.9239 47.8771 44.654C49.8881 44.1886 51.7652 43.2668 53.3631 41.96C56.3652 41.729 59.2041 40.5013 61.4287 38.4721C63.6532 36.4428 65.1359 33.7284 65.6411 30.7601C65.7051 30.3783 65.6192 29.9866 65.4011 29.6668C65.1831 29.347 64.8498 29.1239 64.4711 29.044C62.437 28.6144 60.3892 28.2522 58.3311 27.9581V26.2401C58.3309 25.8742 58.1971 25.521 57.9547 25.247C57.7123 24.9729 57.3782 24.7969 57.0151 24.7521C52.9726 24.2488 48.9028 23.997 44.8291 23.9981C40.7031 23.9981 36.6371 24.2541 32.6431 24.7521C32.2804 24.7974 31.9467 24.9736 31.7047 25.2476C31.4628 25.5216 31.3292 25.8745 31.3291 26.2401L31.3311 26.2421ZM31.3311 31.5001C31.3311 33.892 31.9551 36.14 33.0451 38.088C31.6932 37.4818 30.4844 36.5972 29.4978 35.492C28.5111 34.3867 27.7687 33.0858 27.3191 31.674C28.6511 31.4156 29.9888 31.1868 31.3311 30.988V31.5001ZM58.3311 31.5001V30.988C59.6791 31.188 61.0171 31.416 62.3431 31.674C61.8936 33.0858 61.1513 34.3869 60.1646 35.4921C59.1779 36.5974 57.969 37.4819 56.6171 38.088C57.7443 36.0755 58.3346 33.8068 58.3311 31.5001Z" fill="url(#paint6_linear_145_2785)"/>
<path d="M32.3311 26.1958V26.2421V27.9581V28.8252L31.4726 28.948C29.4249 29.2408 27.3984 29.601 25.395 30.0226L25.1891 29.044M32.3311 26.1958L25.007 30.5948C24.9855 30.4676 25.014 30.337 25.0865 30.2304C25.1591 30.1236 25.2701 30.0491 25.3964 30.0223L25.1891 29.044M32.3311 26.1958C32.3298 26.2105 32.3291 26.2254 32.3291 26.2403L31.3331 26.2401L31.3291 26.2401L31.3311 26.2421V27.9581C29.2611 28.2541 27.2131 28.618 25.1891 29.044M32.3311 26.1958L24.0211 30.7621C23.9564 30.3803 24.0418 29.9883 24.2595 29.6681C24.4772 29.3479 24.8103 29.1243 25.1891 29.044M32.3311 26.1958C32.3406 26.0901 32.3835 25.9897 32.4543 25.9095C32.5349 25.8182 32.646 25.7595 32.7668 25.7444L32.3311 26.1958ZM36.6869 40.9891L36.9299 41.1877C38.4093 42.3968 40.1468 43.2494 42.0083 43.6797L42.8522 43.8748L42.7796 44.7379C42.5742 47.1772 41.751 49.524 40.3876 51.557L40.0905 52H39.5571H38.0791C36.5597 52 35.3291 53.232 35.3291 54.75V60V61H34.3291H32.8291C31.9008 61 31.0106 61.3688 30.3542 62.0252C29.6978 62.6816 29.3291 63.5718 29.3291 64.5C29.3291 64.7758 29.5534 65 29.8291 65H59.8291C59.9617 65 60.0889 64.9474 60.1826 64.8536C60.2764 64.7598 60.3291 64.6327 60.3291 64.5C60.3291 63.5718 59.9603 62.6816 59.304 62.0252C58.6476 61.3688 57.7573 61 56.8291 61H55.3291H54.3291V60V54.75C54.3291 53.2307 53.0971 52 51.5791 52H50.1011H49.5675L49.2704 51.5568C47.9076 49.5236 47.0852 47.1768 46.8806 44.7376L46.8082 43.875L47.6516 43.6798C49.5132 43.2489 51.2508 42.3956 52.73 41.186L52.9732 40.9871L53.2863 40.963C56.0662 40.749 58.6949 39.6122 60.7547 37.7333C62.8146 35.8543 64.1874 33.3408 64.6553 30.5923L65.6411 30.7601L64.6549 30.5946C64.6762 30.4673 64.6476 30.3367 64.5749 30.2301C64.5022 30.1235 64.3911 30.0492 64.2649 30.0226L64.2644 30.0225C62.2519 29.5973 60.2259 29.239 58.1896 28.948L57.3311 28.8253V27.9581V26.2405C57.331 26.1185 57.2864 26.0008 57.2056 25.9095C57.1248 25.8181 57.0134 25.7595 56.8924 25.7445L56.8916 25.7444C52.8901 25.2463 48.8616 24.997 44.8293 24.9981L44.8291 24.9981C40.7446 24.9981 36.72 25.2515 32.7671 25.7443L36.6869 40.9891ZM36.6869 40.9891L36.374 40.965M36.6869 40.9891L36.374 40.965M36.374 40.965C33.5944 40.7506 30.9662 39.6137 28.9067 37.7347C26.8474 35.8559 25.4749 33.343 25.007 30.595L36.374 40.965ZM32.6359 39.0005L35.3935 40.2371L33.9178 37.5997C32.9088 35.7966 32.3311 33.7161 32.3311 31.5001V30.988V29.829L31.1846 29.9988C29.8276 30.1998 28.4753 30.431 27.1286 30.6924L26.0251 30.9065L26.3662 31.9775C26.8585 33.5233 27.6714 34.9478 28.7518 36.1579C29.8321 37.3681 31.1557 38.3367 32.6359 39.0005ZM57.3311 31.5001V31.5016C57.3343 33.6366 56.788 35.7366 55.7446 37.5994L54.267 40.2376L57.0262 39.0005C58.5065 38.3369 59.8301 37.3683 60.9105 36.1581C61.9909 34.9479 62.8038 33.5233 63.296 31.9774L63.6368 30.907L62.5341 30.6925C61.1927 30.4315 59.8399 30.201 58.4778 29.9989L57.3311 29.8287V30.988V31.5001Z" stroke="url(#paint7_linear_145_2785)" stroke-width="2"/>
<path d="M32.3311 26.1958V26.2421V27.9581V28.8252L31.4726 28.948C29.4249 29.2408 27.3984 29.601 25.395 30.0226L25.1891 29.044M32.3311 26.1958L25.007 30.5948C24.9855 30.4676 25.014 30.337 25.0865 30.2304C25.1591 30.1236 25.2701 30.0491 25.3964 30.0223L25.1891 29.044M32.3311 26.1958C32.3298 26.2105 32.3291 26.2254 32.3291 26.2403L31.3331 26.2401L31.3291 26.2401L31.3311 26.2421V27.9581C29.2611 28.2541 27.2131 28.618 25.1891 29.044M32.3311 26.1958L24.0211 30.7621C23.9564 30.3803 24.0418 29.9883 24.2595 29.6681C24.4772 29.3479 24.8103 29.1243 25.1891 29.044M32.3311 26.1958C32.3406 26.0901 32.3835 25.9897 32.4543 25.9095C32.5349 25.8182 32.646 25.7595 32.7668 25.7444L32.3311 26.1958ZM36.6869 40.9891L36.9299 41.1877C38.4093 42.3968 40.1468 43.2494 42.0083 43.6797L42.8522 43.8748L42.7796 44.7379C42.5742 47.1772 41.751 49.524 40.3876 51.557L40.0905 52H39.5571H38.0791C36.5597 52 35.3291 53.232 35.3291 54.75V60V61H34.3291H32.8291C31.9008 61 31.0106 61.3688 30.3542 62.0252C29.6978 62.6816 29.3291 63.5718 29.3291 64.5C29.3291 64.7758 29.5534 65 29.8291 65H59.8291C59.9617 65 60.0889 64.9474 60.1826 64.8536C60.2764 64.7598 60.3291 64.6327 60.3291 64.5C60.3291 63.5718 59.9603 62.6816 59.304 62.0252C58.6476 61.3688 57.7573 61 56.8291 61H55.3291H54.3291V60V54.75C54.3291 53.2307 53.0971 52 51.5791 52H50.1011H49.5675L49.2704 51.5568C47.9076 49.5236 47.0852 47.1768 46.8806 44.7376L46.8082 43.875L47.6516 43.6798C49.5132 43.2489 51.2508 42.3956 52.73 41.186L52.9732 40.9871L53.2863 40.963C56.0662 40.749 58.6949 39.6122 60.7547 37.7333C62.8146 35.8543 64.1874 33.3408 64.6553 30.5923L65.6411 30.7601L64.6549 30.5946C64.6762 30.4673 64.6476 30.3367 64.5749 30.2301C64.5022 30.1235 64.3911 30.0492 64.2649 30.0226L64.2644 30.0225C62.2519 29.5973 60.2259 29.239 58.1896 28.948L57.3311 28.8253V27.9581V26.2405C57.331 26.1185 57.2864 26.0008 57.2056 25.9095C57.1248 25.8181 57.0134 25.7595 56.8924 25.7445L56.8916 25.7444C52.8901 25.2463 48.8616 24.997 44.8293 24.9981L44.8291 24.9981C40.7446 24.9981 36.72 25.2515 32.7671 25.7443L36.6869 40.9891ZM36.6869 40.9891L36.374 40.965M36.6869 40.9891L36.374 40.965M36.374 40.965C33.5944 40.7506 30.9662 39.6137 28.9067 37.7347C26.8474 35.8559 25.4749 33.343 25.007 30.595L36.374 40.965ZM32.6359 39.0005L35.3935 40.2371L33.9178 37.5997C32.9088 35.7966 32.3311 33.7161 32.3311 31.5001V30.988V29.829L31.1846 29.9988C29.8276 30.1998 28.4753 30.431 27.1286 30.6924L26.0251 30.9065L26.3662 31.9775C26.8585 33.5233 27.6714 34.9478 28.7518 36.1579C29.8321 37.3681 31.1557 38.3367 32.6359 39.0005ZM57.3311 31.5001V31.5016C57.3343 33.6366 56.788 35.7366 55.7446 37.5994L54.267 40.2376L57.0262 39.0005C58.5065 38.3369 59.8301 37.3683 60.9105 36.1581C61.9909 34.9479 62.8038 33.5233 63.296 31.9774L63.6368 30.907L62.5341 30.6925C61.1927 30.4315 59.8399 30.201 58.4778 29.9989L57.3311 29.8287V30.988V31.5001Z" stroke="url(#paint8_linear_145_2785)" stroke-width="2"/>
</g>
<defs>
<filter id="filter0_f_145_2785" x="12" y="11.998" width="65.6621" height="66.002" filterUnits="userSpaceOnUse" color-interpolation-filters="sRGB">
<feFlood flood-opacity="0" result="BackgroundImageFix"/>
<feBlend mode="normal" in="SourceGraphic" in2="BackgroundImageFix" result="shape"/>
<feGaussianBlur stdDeviation="6" result="effect1_foregroundBlur_145_2785"/>
</filter>
<filter id="filter1_f_145_2785" x="0" y="-0.00195312" width="89.6621" height="90.002" filterUnits="userSpaceOnUse" color-interpolation-filters="sRGB">
<feFlood flood-opacity="0" result="BackgroundImageFix"/>
<feBlend mode="normal" in="SourceGraphic" in2="BackgroundImageFix" result="shape"/>
<feGaussianBlur stdDeviation="12" result="effect1_foregroundBlur_145_2785"/>
</filter>
<linearGradient id="paint0_linear_145_2785" x1="32.7058" y1="23.998" x2="56.956" y2="66" gradientUnits="userSpaceOnUse">
<stop offset="0.15" stop-color="#8880E3"/>
<stop offset="0.505" stop-color="#CED7FF"/>
<stop offset="0.85" stop-color="#8880E3"/>
</linearGradient>
<linearGradient id="paint1_linear_145_2785" x1="45.999" y1="58" x2="55.499" y2="76" gradientUnits="userSpaceOnUse">
<stop stop-opacity="0"/>
<stop offset="1" stop-opacity="0.25"/>
</linearGradient>
<linearGradient id="paint2_linear_145_2785" x1="36.499" y1="30.5" x2="33.499" y2="21.5" gradientUnits="userSpaceOnUse">
<stop stop-color="white" stop-opacity="0"/>
<stop offset="1" stop-color="white" stop-opacity="0.35"/>
</linearGradient>
<linearGradient id="paint3_linear_145_2785" x1="32.7058" y1="23.998" x2="56.956" y2="66" gradientUnits="userSpaceOnUse">
<stop offset="0.15" stop-color="#8880E3"/>
<stop offset="0.505" stop-color="#CED7FF"/>
<stop offset="0.85" stop-color="#8880E3"/>
</linearGradient>
<linearGradient id="paint4_linear_145_2785" x1="45.999" y1="58" x2="55.499" y2="76" gradientUnits="userSpaceOnUse">
<stop stop-opacity="0"/>
<stop offset="1" stop-opacity="0.25"/>
</linearGradient>
<linearGradient id="paint5_linear_145_2785" x1="36.499" y1="30.5" x2="33.499" y2="21.5" gradientUnits="userSpaceOnUse">
<stop stop-color="white" stop-opacity="0"/>
<stop offset="1" stop-color="white" stop-opacity="0.35"/>
</linearGradient>
<linearGradient id="paint6_linear_145_2785" x1="32.7058" y1="23.998" x2="56.956" y2="66" gradientUnits="userSpaceOnUse">
<stop offset="0.15" stop-color="#8880E3"/>
<stop offset="0.505" stop-color="#CED7FF"/>
<stop offset="0.85" stop-color="#8880E3"/>
</linearGradient>
<linearGradient id="paint7_linear_145_2785" x1="45.999" y1="58" x2="55.499" y2="76" gradientUnits="userSpaceOnUse">
<stop stop-opacity="0"/>
<stop offset="1" stop-opacity="0.25"/>
</linearGradient>
<linearGradient id="paint8_linear_145_2785" x1="36.499" y1="30.5" x2="33.499" y2="21.5" gradientUnits="userSpaceOnUse">
<stop stop-color="white" stop-opacity="0"/>
<stop offset="1" stop-color="white" stop-opacity="0.35"/>
</linearGradient>
</defs>
</svg>
