<svg width="150" height="150" viewBox="0 0 150 150" fill="none" xmlns="http://www.w3.org/2000/svg">
<path fill-rule="evenodd" clip-rule="evenodd" d="M33.2767 32.0391C32.9336 31.9403 32.5638 32.0319 32.3065 32.2796C32.0493 32.5272 31.9436 32.8932 32.0292 33.2398L42.3869 75.1713C42.3913 75.1981 42.3968 75.2249 42.4034 75.2516C42.4099 75.2779 42.4174 75.3037 42.4259 75.329L52.7786 117.24C52.8642 117.587 53.1285 117.862 53.4718 117.961C53.815 118.06 54.1851 117.968 54.4426 117.721L116.872 57.6684C117.13 57.4207 117.236 57.0542 117.15 56.7073C117.064 56.3604 116.799 56.0857 116.456 55.9868L95.7728 50.0321C95.7 49.9887 95.6212 49.9542 95.5377 49.9301C95.4538 49.9059 95.3683 49.8931 95.2832 49.8911L54.4912 38.1468C54.4132 38.0979 54.3278 38.0594 54.2369 38.0331C54.1456 38.0068 54.0524 37.9939 53.96 37.9939L33.2767 32.0391ZM75.9565 46.4081L93.2922 51.3991L80.2826 63.9393L75.9565 46.4081ZM85.4977 85.0731L81.1018 67.2591L98.7502 72.3252L85.4977 85.0731ZM96.6547 52.3672L101.036 70.1262L114.236 57.429L96.6547 52.3672ZM51.9865 39.507L34.3857 34.4396L38.7815 52.2354L51.9865 39.507ZM39.535 55.2857L43.932 73.086L57.1651 60.3467L39.535 55.2857ZM59.6643 57.9407L72.6369 45.4523L55.3556 40.4769L59.6643 57.9407ZM49.8433 97.0171L54.3047 115.078L67.7401 102.155L49.8433 97.0171ZM49.0885 93.9611L62.077 81.4412L44.7635 76.4522L49.0885 93.9611ZM65.7291 82.4936L70.0353 99.9468L83.0043 87.4716L65.7291 82.4936ZM74.0177 46.8992L78.3143 64.311L61.0723 59.3614L74.0177 46.8992ZM62.9605 79.6144L58.5602 61.7798L45.3158 74.5299L62.9605 79.6144ZM83.5551 85.5489L65.9451 80.4745L79.1597 67.7367L83.5551 85.5489ZM60.4961 61.2768L64.8159 78.7851L77.8203 66.2499L60.4961 61.2768ZM57.7242 58.4264L40.4 53.4532L53.4044 40.9181L57.7242 58.4264ZM81.7007 65.3502L99.025 70.3233L94.7052 52.815L81.7007 65.3502ZM68.0269 100.156L50.7027 95.183L63.7072 82.6478L68.0269 100.156Z" fill="url(#paint0_linear_201_499)"/>
<g style="mix-blend-mode:plus-lighter" opacity="0.1" filter="url(#filter0_f_201_499)">
<path fill-rule="evenodd" clip-rule="evenodd" d="M33.2767 32.0391C32.9336 31.9403 32.5638 32.0319 32.3065 32.2796C32.0493 32.5272 31.9436 32.8932 32.0292 33.2398L42.3869 75.1713C42.3913 75.1981 42.3968 75.2249 42.4034 75.2516C42.4099 75.2779 42.4174 75.3037 42.4259 75.329L52.7786 117.24C52.8642 117.587 53.1285 117.862 53.4718 117.961C53.815 118.06 54.1851 117.968 54.4426 117.721L116.872 57.6684C117.13 57.4207 117.236 57.0542 117.15 56.7073C117.064 56.3604 116.799 56.0857 116.456 55.9868L95.7728 50.0321C95.7 49.9887 95.6212 49.9542 95.5377 49.9301C95.4538 49.9059 95.3683 49.8931 95.2832 49.8911L54.4912 38.1468C54.4132 38.0979 54.3278 38.0594 54.2369 38.0331C54.1456 38.0068 54.0524 37.9939 53.96 37.9939L33.2767 32.0391ZM75.9565 46.4081L93.2922 51.3991L80.2826 63.9393L75.9565 46.4081ZM85.4977 85.0731L81.1018 67.2591L98.7502 72.3252L85.4977 85.0731ZM96.6547 52.3672L101.036 70.1262L114.236 57.429L96.6547 52.3672ZM51.9865 39.507L34.3857 34.4396L38.7815 52.2354L51.9865 39.507ZM39.535 55.2857L43.932 73.086L57.1651 60.3467L39.535 55.2857ZM59.6643 57.9407L72.6369 45.4523L55.3556 40.4769L59.6643 57.9407ZM49.8433 97.0171L54.3047 115.078L67.7401 102.155L49.8433 97.0171ZM49.0885 93.9611L62.077 81.4412L44.7635 76.4522L49.0885 93.9611ZM65.7291 82.4936L70.0353 99.9468L83.0043 87.4716L65.7291 82.4936ZM74.0177 46.8992L78.3143 64.311L61.0723 59.3614L74.0177 46.8992ZM62.9605 79.6144L58.5602 61.7798L45.3158 74.5299L62.9605 79.6144ZM83.5551 85.5489L65.9451 80.4745L79.1597 67.7367L83.5551 85.5489ZM60.4961 61.2768L64.8159 78.7851L77.8203 66.2499L60.4961 61.2768ZM57.7242 58.4264L40.4 53.4532L53.4044 40.9181L57.7242 58.4264ZM81.7007 65.3502L99.025 70.3233L94.7052 52.815L81.7007 65.3502ZM68.0269 100.156L50.7027 95.183L63.7072 82.6478L68.0269 100.156Z" fill="url(#paint1_linear_201_499)"/>
</g>
<g style="mix-blend-mode:plus-lighter" opacity="0.2" filter="url(#filter1_f_201_499)">
<path fill-rule="evenodd" clip-rule="evenodd" d="M33.2767 32.0391C32.9336 31.9403 32.5638 32.0319 32.3065 32.2796C32.0493 32.5272 31.9436 32.8932 32.0292 33.2398L42.3869 75.1713C42.3913 75.1981 42.3968 75.2249 42.4034 75.2516C42.4099 75.2779 42.4174 75.3037 42.4259 75.329L52.7786 117.24C52.8642 117.587 53.1285 117.862 53.4718 117.961C53.815 118.06 54.1851 117.968 54.4426 117.721L116.872 57.6684C117.13 57.4207 117.236 57.0542 117.15 56.7073C117.064 56.3604 116.799 56.0857 116.456 55.9868L95.7728 50.0321C95.7 49.9887 95.6212 49.9542 95.5377 49.9301C95.4538 49.9059 95.3683 49.8931 95.2832 49.8911L54.4912 38.1468C54.4132 38.0979 54.3278 38.0594 54.2369 38.0331C54.1456 38.0068 54.0524 37.9939 53.96 37.9939L33.2767 32.0391ZM75.9565 46.4081L93.2922 51.3991L80.2826 63.9393L75.9565 46.4081ZM85.4977 85.0731L81.1018 67.2591L98.7502 72.3252L85.4977 85.0731ZM96.6547 52.3672L101.036 70.1262L114.236 57.429L96.6547 52.3672ZM51.9865 39.507L34.3857 34.4396L38.7815 52.2354L51.9865 39.507ZM39.535 55.2857L43.932 73.086L57.1651 60.3467L39.535 55.2857ZM59.6643 57.9407L72.6369 45.4523L55.3556 40.4769L59.6643 57.9407ZM49.8433 97.0171L54.3047 115.078L67.7401 102.155L49.8433 97.0171ZM49.0885 93.9611L62.077 81.4412L44.7635 76.4522L49.0885 93.9611ZM65.7291 82.4936L70.0353 99.9468L83.0043 87.4716L65.7291 82.4936ZM74.0177 46.8992L78.3143 64.311L61.0723 59.3614L74.0177 46.8992ZM62.9605 79.6144L58.5602 61.7798L45.3158 74.5299L62.9605 79.6144ZM83.5551 85.5489L65.9451 80.4745L79.1597 67.7367L83.5551 85.5489ZM60.4961 61.2768L64.8159 78.7851L77.8203 66.2499L60.4961 61.2768ZM57.7242 58.4264L40.4 53.4532L53.4044 40.9181L57.7242 58.4264ZM81.7007 65.3502L99.025 70.3233L94.7052 52.815L81.7007 65.3502ZM68.0269 100.156L50.7027 95.183L63.7072 82.6478L68.0269 100.156Z" fill="url(#paint2_linear_201_499)"/>
</g>
<defs>
<filter id="filter0_f_201_499" x="16" y="16" width="117.18" height="118" filterUnits="userSpaceOnUse" color-interpolation-filters="sRGB">
<feFlood flood-opacity="0" result="BackgroundImageFix"/>
<feBlend mode="normal" in="SourceGraphic" in2="BackgroundImageFix" result="shape"/>
<feGaussianBlur stdDeviation="8" result="effect1_foregroundBlur_201_499"/>
</filter>
<filter id="filter1_f_201_499" x="0" y="0" width="149.18" height="150" filterUnits="userSpaceOnUse" color-interpolation-filters="sRGB">
<feFlood flood-opacity="0" result="BackgroundImageFix"/>
<feBlend mode="normal" in="SourceGraphic" in2="BackgroundImageFix" result="shape"/>
<feGaussianBlur stdDeviation="16" result="effect1_foregroundBlur_201_499"/>
</filter>
<linearGradient id="paint0_linear_201_499" x1="117" y1="32" x2="32" y2="118" gradientUnits="userSpaceOnUse">
<stop offset="0.25" stop-color="#8880E3"/>
<stop offset="0.5" stop-color="#CED7FF"/>
<stop offset="0.75" stop-color="#8880E3"/>
</linearGradient>
<linearGradient id="paint1_linear_201_499" x1="117" y1="32" x2="32" y2="118" gradientUnits="userSpaceOnUse">
<stop offset="0.25" stop-color="#8880E3"/>
<stop offset="0.5" stop-color="#CED7FF"/>
<stop offset="0.75" stop-color="#8880E3"/>
</linearGradient>
<linearGradient id="paint2_linear_201_499" x1="117" y1="32" x2="32" y2="118" gradientUnits="userSpaceOnUse">
<stop offset="0.25" stop-color="#8880E3"/>
<stop offset="0.5" stop-color="#CED7FF"/>
<stop offset="0.75" stop-color="#8880E3"/>
</linearGradient>
</defs>
</svg>
